<svg width="89" height="26" viewBox="0 0 89 26" fill="none" xmlns="http://www.w3.org/2000/svg">
<g clip-path="url(#clip0)">
<path fill-rule="evenodd" clip-rule="evenodd" d="M84.169 25.9985L89 0H4.83001L0 26H84.169V25.9985Z" fill="#CA2A2A"/>
<path fill-rule="evenodd" clip-rule="evenodd" d="M13.5659 12.4045L13.5005 11.6548H13.3641L13.223 12.406L11.6414 20.8718H9.37598L12.412 4.62505H14.6095L15.4271 13.0903L15.493 13.842H15.63L15.7705 13.0908L17.3522 4.62403H19.6171L16.5815 20.8698H14.3841L13.5659 12.4045ZM21.4471 4.62147H23.9174L20.8819 20.8677H18.411L21.4471 4.62147ZM26.9019 12.3999L26.8359 11.6487H26.699L26.5584 12.3999L24.9768 20.8652H22.7119L25.7479 4.6184H27.9454L28.763 13.0842L28.829 13.8349H28.9664L29.1065 13.0842L30.6907 4.61738H32.9556L29.9195 20.8636H27.7221L26.9019 12.3999ZM33.8862 7.95392C34.0313 7.1797 34.7488 4.43903 37.77 4.4375C40.7912 4.43597 40.4836 7.17715 40.3395 7.95085L38.6127 17.1929C38.3981 18.3422 37.7567 21.0379 34.6685 21.0389C31.5804 21.0399 31.9473 18.3437 32.1619 17.1944L32.352 16.178H34.8224C34.4135 18.3662 34.3481 18.9621 35.0564 18.9611C35.6743 18.9611 35.9114 18.4301 36.1424 17.1934L36.7122 14.143C36.3152 14.382 35.8652 14.5188 35.4024 14.5411C32.8636 14.5411 33.1283 12.0228 33.298 11.1172L33.8862 7.95392ZM37.9989 7.2446C38.0163 7.15447 38.0133 7.06159 37.99 6.97279C37.9667 6.884 37.9238 6.80157 37.8644 6.73158C37.805 6.66159 37.7306 6.60583 37.6468 6.56841C37.563 6.53098 37.4718 6.51286 37.3801 6.51536C37.1754 6.53331 36.9809 6.61255 36.8219 6.74273C36.6629 6.8729 36.5468 7.04799 36.4888 7.24512L35.6094 11.9533C35.5968 12.0427 35.6033 12.1337 35.6284 12.2205C35.6535 12.3072 35.6967 12.3876 35.7551 12.4565C35.8135 12.5254 35.8858 12.5811 35.9672 12.6201C36.0487 12.659 36.1374 12.6803 36.2277 12.6825C36.4249 12.676 36.6151 12.6086 36.7725 12.4897C36.9299 12.3707 37.0466 12.206 37.1067 12.0182L37.9989 7.2446ZM45.0512 6.97734H41.3452L41.7872 4.61228H48.0101L47.564 6.99982L42.5047 20.8606H39.9424L45.0512 6.97734ZM49.2003 4.61023H54.8498L54.3898 7.06319H51.2102L50.413 11.3293H52.7003L52.2128 13.9356H49.9265L49.094 18.404H52.2731L51.8132 20.857H46.1627L49.2003 4.61023ZM60.7077 4.60665H63.1096L57.5112 20.8534H55.0409L55.5146 4.60767H57.9165L57.4826 13.5375L57.4468 14.2223H57.5843L57.803 13.537L60.7077 4.60665ZM64.2308 4.60665H69.8818L69.4219 7.05961H66.2417L65.4445 11.3257H67.7324L67.2459 13.932H64.958L64.124 18.4005H67.3041L66.8442 20.8534H61.1937L64.2308 4.60665ZM72.4073 12.3841L72.3419 11.6328H72.205L72.0644 12.3841L70.4802 20.8498H68.2148L71.2539 4.60256H73.4514L74.2716 13.0683L74.339 13.8206H74.4765L74.6165 13.0689L76.2007 4.60307H78.4651L75.4301 20.8498H73.2326L72.4073 12.3841Z" fill="white"/>
</g>
<defs>
<clipPath id="clip0">
<rect width="89" height="25.8072" fill="white"/>
</clipPath>
</defs>
</svg>
