<svg width="54" height="38" viewBox="0 0 54 38" fill="none" xmlns="http://www.w3.org/2000/svg">
<mask id="path-1-inside-1" fill="white">
<path fill-rule="evenodd" clip-rule="evenodd" d="M37.2206 9.99327C42.2177 4.2255 48.2719 0.630865 53.2303 0V4.58089C50.4007 5.8081 46.6639 9.44757 44.6288 12.5636C46.8714 12.6488 48.9878 13.4043 50.6846 14.8804C55.305 18.9001 55.064 26.741 50.1463 32.3937C45.2287 38.0464 37.4965 39.3702 32.8761 35.3505C30.497 33.2807 29.4068 30.1977 29.5804 26.922C29.6516 21.9567 32.3473 15.6181 37.2206 9.99327Z"/>
</mask>
<path d="M53.2303 0H55.2303V-2.27058L52.9779 -1.98401L53.2303 0ZM37.2206 9.99327L38.7322 11.3029L38.7322 11.3029L37.2206 9.99327ZM53.2303 4.58089L54.0261 6.41576L55.2303 5.8935V4.58089H53.2303ZM44.6288 12.5636L42.9543 11.47L41.0222 14.4281L44.5529 14.5622L44.6288 12.5636ZM50.6846 14.8804L51.9973 13.3715L51.9973 13.3715L50.6846 14.8804ZM50.1463 32.3937L51.6552 33.7064H51.6552L50.1463 32.3937ZM32.8761 35.3505L34.1888 33.8416L32.8761 35.3505ZM29.5804 26.922L31.5776 27.0278L31.5796 26.9892L31.5802 26.9506L29.5804 26.922ZM52.9779 -1.98401C47.3738 -1.271 40.907 2.68399 35.709 8.68365L38.7322 11.3029C43.5284 5.767 49.1699 2.53273 53.4828 1.98401L52.9779 -1.98401ZM55.2303 4.58089V0H51.2303V4.58089H55.2303ZM46.3033 13.6573C47.2217 12.251 48.5574 10.6814 50.0029 9.31977C51.4703 7.93757 52.9161 6.89719 54.0261 6.41576L52.4346 2.74602C50.715 3.49181 48.8775 4.88476 47.2603 6.40811C45.6212 7.95204 44.0709 9.76023 42.9543 11.47L46.3033 13.6573ZM44.5529 14.5622C46.3897 14.6319 48.0556 15.2442 49.3719 16.3893L51.9973 13.3715C49.9201 11.5644 47.3531 10.6656 44.7046 10.5651L44.5529 14.5622ZM49.3719 16.3893C52.8888 19.4489 53.09 25.963 48.6374 31.081L51.6552 33.7064C57.038 27.5191 57.7213 18.3512 51.9973 13.3715L49.3719 16.3893ZM48.6374 31.081C44.1849 36.199 37.7057 36.9012 34.1888 33.8416L31.5634 36.8594C37.2874 41.8391 46.2725 39.8937 51.6552 33.7064L48.6374 31.081ZM34.1888 33.8416C32.3537 32.2452 31.4305 29.8021 31.5776 27.0278L27.5832 26.8161C27.383 30.5933 28.6402 34.3163 31.5634 36.8594L34.1888 33.8416ZM35.709 8.68365C30.6347 14.5405 27.6605 21.3153 27.5806 26.8933L31.5802 26.9506C31.6426 22.5982 34.0599 16.6958 38.7322 11.3029L35.709 8.68365Z" fill="#8AA6B3" mask="url(#path-1-inside-1)"/>
<mask id="path-3-inside-2" fill="white">
<path fill-rule="evenodd" clip-rule="evenodd" d="M7.65843 9.99327C12.6555 4.2255 18.7097 0.630865 23.6682 0V4.58089C20.8385 5.80811 17.1017 9.44762 15.0665 12.5637C17.309 12.6489 19.4254 13.4044 21.1221 14.8805C25.7425 18.9001 25.5015 26.7411 20.5838 32.3938C15.6662 38.0464 7.93402 39.3702 3.31362 35.3506C0.932549 33.2791 -0.157465 30.1928 0.0182957 26.9142C0.0921836 21.9501 2.78766 15.6152 7.65843 9.99327Z"/>
</mask>
<path d="M23.6682 0H25.6682V-2.27058L23.4157 -1.98401L23.6682 0ZM7.65843 9.99327L9.17001 11.3029L9.17002 11.3029L7.65843 9.99327ZM23.6682 4.58089L24.4639 6.41576L25.6682 5.8935V4.58089H23.6682ZM15.0665 12.5637L13.392 11.4701L11.4601 14.4281L14.9906 14.5623L15.0665 12.5637ZM21.1221 14.8805L22.4348 13.3716L21.1221 14.8805ZM20.5838 32.3938L19.0749 31.081L20.5838 32.3938ZM3.31362 35.3506L4.62633 33.8417L3.31362 35.3506ZM0.0182957 26.9142L2.01543 27.0212L2.0175 26.9826L2.01807 26.9439L0.0182957 26.9142ZM23.4157 -1.98401C17.8117 -1.271 11.3448 2.68399 6.14684 8.68365L9.17002 11.3029C13.9662 5.767 19.6077 2.53273 23.9206 1.98401L23.4157 -1.98401ZM25.6682 4.58089V0H21.6682V4.58089H25.6682ZM16.741 13.6573C17.6595 12.251 18.9952 10.6814 20.4407 9.31981C21.9081 7.93759 23.3539 6.89719 24.4639 6.41576L22.8724 2.74602C21.1528 3.49182 19.3153 4.88479 17.698 6.40814C16.059 7.95209 14.5087 9.7603 13.392 11.4701L16.741 13.6573ZM14.9906 14.5623C16.8273 14.632 18.4931 15.2443 19.8094 16.3894L22.4348 13.3716C20.3577 11.5645 17.7907 10.6657 15.1424 10.5651L14.9906 14.5623ZM19.8094 16.3894C23.3263 19.449 23.5275 25.963 19.0749 31.081L22.0927 33.7065C27.4755 27.5192 28.1588 18.3513 22.4348 13.3716L19.8094 16.3894ZM19.0749 31.081C14.6224 36.1991 8.14318 36.9013 4.62633 33.8417L2.00091 36.8595C7.72486 41.8392 16.71 39.8938 22.0927 33.7065L19.0749 31.081ZM4.62633 33.8417C2.7898 32.244 1.86656 29.7983 2.01543 27.0212L-1.97884 26.8071C-2.18149 30.5874 -0.924698 34.3143 2.00091 36.8595L4.62633 33.8417ZM6.14684 8.68365C1.0751 14.5375 -1.89848 21.3082 -1.98148 26.8844L2.01807 26.9439C2.08285 22.592 4.50022 16.6929 9.17001 11.3029L6.14684 8.68365Z" fill="#8AA6B3" mask="url(#path-3-inside-2)"/>
</svg>
