<svg width="200" height="46" viewBox="0 0 200 46" fill="none" xmlns="http://www.w3.org/2000/svg">
<path d="M171.57 38.0997L171.453 38.1607C171.301 37.9226 171.175 37.8518 171.038 37.8518C170.811 37.8518 170.628 38.0388 170.628 38.2612V45.5912C170.628 45.8187 170.811 46.0002 171.038 46.0002C171.26 46.0002 171.453 45.8093 171.453 45.5912V43.6526C171.923 43.8893 172.242 43.9509 172.581 43.9509C173.092 43.9509 173.558 43.8193 173.953 43.5252C174.792 42.8915 175.172 41.8381 175.147 40.8812C175.137 40.0095 174.853 39.2088 174.285 38.5854C173.578 37.8159 172.449 37.6386 171.57 38.0995V38.0997ZM174.201 41.8027H174.195C173.936 42.5127 173.396 43.1548 172.617 43.1548C172.106 43.1548 171.716 42.8662 171.453 42.5629V39.2442C171.888 38.7732 172.242 38.6259 172.748 38.6722H172.753C173.148 38.7124 173.466 38.8953 173.765 39.2297C174.043 39.5583 174.231 39.9794 174.306 40.4454C174.377 40.9008 174.342 41.3729 174.201 41.8027H174.201Z" fill="#828282"/>
<path d="M72.5302 38.0997L72.4142 38.1607C72.2621 37.9226 72.1352 37.8518 71.9992 37.8518C71.771 37.8518 71.5889 38.0388 71.5889 38.2612V45.5912C71.5889 45.8187 71.7709 46.0002 71.9992 46.0002C72.2221 46.0002 72.4142 45.8093 72.4142 45.5912V43.6526C72.8842 43.8893 73.2034 43.9509 73.5429 43.9509C74.0538 43.9509 74.519 43.8193 74.9131 43.5252C75.7524 42.8915 76.133 41.8381 76.1065 40.8812C76.0973 40.0095 75.8144 39.2088 75.2468 38.5854C74.5382 37.8159 73.4098 37.6386 72.5301 38.0995L72.5302 38.0997ZM75.1616 41.8027H75.156C74.8982 42.5127 74.3571 43.1548 73.5783 43.1548C73.067 43.1548 72.6776 42.8662 72.4142 42.5629V39.2442C72.8493 38.7732 73.2033 38.6259 73.7089 38.6722H73.7142C74.1087 38.7124 74.4273 38.8953 74.7261 39.2297C75.0043 39.5583 75.1913 39.9794 75.2671 40.4454C75.3382 40.9008 75.3025 41.3729 75.1614 41.8027H75.1616Z" fill="#828282"/>
<path d="M181.535 37.8357C181.388 37.8357 181.262 37.9071 181.131 38.1302C180.675 37.8974 180.296 37.8213 179.947 37.8213C179.481 37.8213 179.046 37.9728 178.641 38.2614C178.018 38.7074 177.599 39.4115 177.468 40.2679C177.321 41.2501 177.574 42.3039 178.135 43.0182C178.621 43.6315 179.264 43.9507 180.002 43.9507C180.366 43.9507 180.685 43.8747 181.115 43.6373C181.261 43.8747 181.384 43.9409 181.535 43.9409C181.757 43.9409 181.95 43.7536 181.95 43.5305V38.2469C181.95 38.0291 181.757 37.8356 181.535 37.8356L181.535 37.8357ZM181.125 42.5123C180.807 42.9278 180.417 43.12 179.967 43.12C179.572 43.12 179.187 42.958 178.914 42.6743C178.337 42.0608 178.171 41.2051 178.277 40.4458C178.403 39.563 179 38.6672 179.926 38.6463C180.362 38.636 180.786 38.829 181.125 39.2197V42.5123H181.125Z" fill="#828282"/>
<path d="M43.7481 40.7037C44.138 40.2228 44.2893 39.6744 44.1623 39.0722C43.9808 38.206 43.2215 37.8975 42.337 37.8975H40.6877C40.4596 37.8975 40.2773 38.0842 40.2773 38.3073V43.4793C40.2773 43.703 40.4596 43.8901 40.6821 43.8901H42.4323C42.8377 43.8901 43.0851 43.8351 43.3737 43.7327C43.9147 43.5359 44.2595 43.181 44.4104 42.659C44.5023 42.3557 44.5121 42.0762 44.4613 41.7319C44.4051 41.3725 44.2241 41.089 43.7481 40.7037ZM41.1012 38.7073H42.3565C42.7771 38.7073 43.0851 38.8141 43.2521 39.0264C43.5503 39.4024 43.3843 40.02 42.9893 40.2275C42.7562 40.3487 42.5789 40.3538 42.2452 40.3538H41.1012V38.7073ZM43.6317 42.4513C43.4657 42.9684 42.8779 43.0696 42.4225 43.0696H41.1012V41.0942H42.2249C42.6556 41.0942 43.2069 41.084 43.4899 41.4488C43.7132 41.7318 43.7026 42.1271 43.6317 42.4512V42.4513Z" fill="#828282"/>
<path d="M59.4521 38.373C58.5015 37.5678 57.0546 37.6842 56.2389 38.5608C55.642 39.2095 55.3396 40.1361 55.389 41.1493C55.435 42.005 55.7946 42.8569 56.4265 43.404C56.8472 43.7686 57.3834 43.9507 58.0154 43.9507C58.6379 43.9507 59.0981 43.8394 59.4771 43.602C59.7913 43.404 60.0687 43.1553 60.2872 42.7856C60.4436 42.5179 60.231 42.1876 59.9382 42.1876C59.7955 42.1876 59.6496 42.2636 59.5736 42.3857C59.4771 42.5428 59.3657 42.6896 59.1683 42.8363C58.4508 43.3783 57.3077 43.2525 56.7499 42.5631C56.3766 42.0968 56.254 41.6103 56.2088 41.0889H59.8825C60.2928 41.0889 60.5548 40.9365 60.5139 40.5316C60.4386 39.706 60.0687 38.9006 59.4522 38.373L59.4521 38.373ZM56.254 40.3489C56.5129 39.4524 57.0132 38.6568 57.9641 38.6568C58.9762 38.6568 59.432 39.4619 59.6698 40.3489H56.254Z" fill="#828282"/>
<path d="M142.881 40.7037C143.271 40.2228 143.423 39.6744 143.296 39.0722C143.114 38.206 142.355 37.8975 141.47 37.8975H139.82C139.592 37.8975 139.41 38.0842 139.41 38.3073V43.4793C139.41 43.703 139.592 43.8901 139.816 43.8901H141.566C141.971 43.8901 142.219 43.8351 142.507 43.7327C143.048 43.5359 143.393 43.181 143.544 42.659C143.636 42.3557 143.646 42.0762 143.595 41.7319C143.54 41.3725 143.358 41.089 142.881 40.7037ZM140.236 38.7073H141.491C141.91 38.7073 142.219 38.8141 142.386 39.0264C142.684 39.4024 142.518 40.02 142.123 40.2275C141.89 40.3487 141.712 40.3538 141.379 40.3538H140.236V38.7073ZM142.765 42.4513C142.598 42.9684 142.011 43.0696 141.556 43.0696H140.236V41.0942H141.359C141.788 41.0942 142.34 41.084 142.623 41.4488C142.846 41.7318 142.836 42.1271 142.765 42.4512V42.4513Z" fill="#828282"/>
<path d="M51.7089 37.8359C51.4809 37.8359 51.2995 38.0186 51.2995 38.2472V40.3489H48.6633V38.2472C48.6633 38.0185 48.4763 37.8359 48.2539 37.8359C48.0258 37.8359 47.8389 38.0186 47.8389 38.2472V43.546C47.8389 43.7683 48.0259 43.9509 48.2539 43.9509C48.4764 43.9509 48.6633 43.7683 48.6633 43.546V41.0891H51.2995V43.546C51.2995 43.7683 51.481 43.9509 51.7089 43.9509C51.937 43.9509 52.1184 43.7683 52.1184 43.546V38.2472C52.1184 38.0185 51.9369 37.8359 51.7089 37.8359Z" fill="#828282"/>
<path d="M187.882 40.7241C188.165 40.4305 188.383 40.1571 188.414 39.7408C188.49 38.7787 187.918 38.1353 186.982 37.9021C186.212 37.7097 185.408 37.9069 184.882 38.4137C184.715 38.5763 184.594 38.7736 184.488 39.0423C184.436 39.1785 184.457 39.3309 184.533 39.4422C184.609 39.5482 184.73 39.6145 184.866 39.6145C185.039 39.6145 185.2 39.4986 185.252 39.3462C185.342 39.052 185.63 38.7889 185.919 38.7079C186.344 38.5861 187.027 38.6624 187.376 38.9765C187.574 39.1489 187.654 39.3759 187.604 39.6342C187.508 40.1058 187.073 40.3444 186.683 40.3444H186.278C186.076 40.3444 185.908 40.5113 185.908 40.7132C185.908 40.9169 186.076 41.0837 186.278 41.0837H186.673C186.961 41.0837 187.239 41.185 187.442 41.3477C187.665 41.5248 187.791 41.7772 187.807 42.0565C187.842 42.7453 187.143 43.1353 186.552 43.1353C186.228 43.1353 185.908 43.0444 185.62 42.8618C185.383 42.7157 185.221 42.5386 185.11 42.3252C185.049 42.2033 184.948 42.1469 184.872 42.127C184.755 42.0918 184.629 42.1115 184.523 42.1727C184.346 42.2738 184.29 42.5122 184.391 42.7157C184.645 43.2219 185.15 43.5915 185.651 43.7891C186.112 43.962 186.501 43.9715 186.865 43.92C187.528 43.8348 188.145 43.48 188.449 42.9025C188.661 42.4976 188.691 42.0616 188.55 41.5849C188.449 41.2361 188.19 40.9776 187.882 40.7242V40.7241Z" fill="#828282"/>
<path d="M194.994 37.8357C194.846 37.8357 194.721 37.9071 194.589 38.1302C194.134 37.8974 193.755 37.8213 193.406 37.8213C192.94 37.8213 192.505 37.9728 192.1 38.2614C191.477 38.7074 191.058 39.4115 190.927 40.2679C190.78 41.2501 191.033 42.3039 191.594 43.0182C192.08 43.6315 192.723 43.9507 193.461 43.9507C193.826 43.9507 194.144 43.8747 194.574 43.6373C194.721 43.8747 194.842 43.9409 194.994 43.9409C195.216 43.9409 195.409 43.7536 195.409 43.5305V38.2469C195.409 38.0291 195.216 37.8356 194.994 37.8356V37.8357ZM194.584 42.5123C194.266 42.9278 193.876 43.12 193.426 43.12C193.031 43.12 192.646 42.958 192.373 42.6743C191.797 42.0608 191.629 41.2051 191.736 40.4458C191.862 39.563 192.46 38.6672 193.385 38.6463C193.82 38.636 194.245 38.829 194.584 39.2197V42.5123Z" fill="#828282"/>
<path d="M128.926 38.373C127.974 37.5678 126.527 37.6842 125.713 38.5608C125.117 39.2095 124.812 40.1361 124.863 41.1493C124.908 42.005 125.268 42.8569 125.9 43.404C126.32 43.7686 126.856 43.9507 127.489 43.9507C128.111 43.9507 128.572 43.8394 128.951 43.602C129.264 43.404 129.543 43.1553 129.76 42.7856C129.917 42.5179 129.704 42.1876 129.411 42.1876C129.27 42.1876 129.122 42.2636 129.047 42.3857C128.951 42.5428 128.84 42.6896 128.643 42.8363C127.925 43.3783 126.78 43.2525 126.224 42.5631C125.85 42.0968 125.728 41.6103 125.683 41.0889H129.355C129.765 41.0889 130.028 40.9365 129.988 40.5316C129.912 39.706 129.543 38.9006 128.926 38.373L128.926 38.373ZM125.728 40.3489C125.986 39.4524 126.487 38.6568 127.438 38.6568C128.45 38.6568 128.906 39.4619 129.144 40.3489H125.728H125.728Z" fill="#828282"/>
<path d="M133.366 38.0997L133.25 38.1607C133.098 37.9226 132.972 37.8518 132.835 37.8518C132.607 37.8518 132.425 38.0388 132.425 38.2612V45.5912C132.425 45.8187 132.607 46.0002 132.835 46.0002C133.058 46.0002 133.25 45.8093 133.25 45.5912V43.6526C133.72 43.8893 134.039 43.9509 134.379 43.9509C134.888 43.9509 135.355 43.8193 135.749 43.5252C136.589 42.8915 136.968 41.8381 136.943 40.8812C136.933 40.0095 136.649 39.2088 136.083 38.5854C135.374 37.8159 134.246 37.6386 133.366 38.0995L133.366 38.0997ZM135.998 41.8027H135.992C135.734 42.5127 135.192 43.1548 134.413 43.1548C133.902 43.1548 133.513 42.8662 133.25 42.5629V39.2442C133.685 38.7732 134.039 38.6259 134.545 38.6722H134.55C134.945 38.7124 135.263 38.8953 135.562 39.2297C135.84 39.5583 136.027 39.9794 136.103 40.4454C136.174 40.9008 136.139 41.3729 135.997 41.8027H135.998Z" fill="#828282"/>
<path d="M156.401 37.8975H153.811C153.583 37.8975 153.396 38.0844 153.396 38.3129V43.5408C153.396 43.7737 153.583 43.9508 153.811 43.9508C154.028 43.9508 154.221 43.7641 154.221 43.5408V38.7128H156.401C156.629 38.7128 156.811 38.5352 156.811 38.3129C156.811 38.0795 156.629 37.8975 156.401 37.8975H156.401Z" fill="#828282"/>
<path d="M148.459 37.8359C146.973 37.8359 145.89 39.1231 145.89 40.896C145.89 42.6697 146.973 43.9509 148.459 43.9509C149.947 43.9509 151.03 42.6697 151.03 40.896C151.03 39.1231 149.947 37.8359 148.459 37.8359ZM149.694 42.5023C149.376 42.9125 148.936 43.1406 148.459 43.1406C147.984 43.1406 147.544 42.9125 147.225 42.5023C146.907 42.0972 146.729 41.5246 146.729 40.896C146.729 40.2681 146.907 39.7003 147.225 39.2849C147.544 38.8791 147.984 38.6524 148.459 38.6524C148.936 38.6524 149.376 38.8792 149.694 39.2849C150.012 39.7003 150.19 40.2681 150.19 40.896C150.19 41.5246 150.012 42.0972 149.694 42.5023Z" fill="#828282"/>
<path d="M82.1203 37.8975H80.5982C79.6366 37.8975 79.0448 38.2969 78.7717 39.1277C78.6602 39.4675 78.6499 39.7916 78.7359 40.1715C78.8826 40.7946 79.2979 41.1595 79.8591 41.3776L78.7359 43.3431C78.5796 43.617 78.7764 43.9508 79.0908 43.9508C79.2374 43.9508 79.3681 43.8803 79.4446 43.7488L80.7803 41.4433H81.7108V43.5408C81.7108 43.7737 81.8979 43.9508 82.1251 43.9508C82.3483 43.9508 82.5354 43.7737 82.5354 43.5408V38.3073C82.5354 38.0892 82.3534 37.8975 82.1203 37.8975H82.1203ZM81.7108 40.7041H80.4662C80.0113 40.7041 79.6213 40.44 79.5404 40.0652C79.3639 39.2653 79.7832 38.7233 80.5681 38.7233H81.7108V40.7041Z" fill="#828282"/>
<path d="M160.516 37.8359C159.028 37.8359 157.946 39.1231 157.946 40.896C157.946 42.6697 159.028 43.9509 160.516 43.9509C162.003 43.9509 163.086 42.6697 163.086 40.896C163.086 39.1231 162.003 37.8359 160.516 37.8359ZM161.75 42.5023C161.431 42.9125 160.992 43.1406 160.516 43.1406C160.04 43.1406 159.6 42.9125 159.281 42.5023C158.963 42.0972 158.786 41.5246 158.786 40.896C158.786 40.2681 158.963 39.7003 159.281 39.2849C159.6 38.8791 160.04 38.6524 160.516 38.6524C160.992 38.6524 161.431 38.8792 161.75 39.2849C162.07 39.7003 162.246 40.2681 162.246 40.896C162.246 41.5246 162.07 42.0972 161.75 42.5023Z" fill="#828282"/>
<path d="M97.7199 38.1761L96.0295 42.4317L94.335 38.1711C94.1179 37.6286 93.3184 37.7809 93.3184 38.3679V43.5357C93.3184 43.7541 93.4948 43.9458 93.7126 43.9512C93.9461 43.9617 94.1374 43.7788 94.1374 43.5463V39.873L95.6554 43.7028C95.7159 43.8551 95.8723 43.9512 96.0294 43.9512C96.2067 43.9512 96.343 43.86 96.4091 43.6931L97.9269 39.8576V43.5357C97.9269 43.7541 98.1036 43.9458 98.3213 43.9512C98.5535 43.9617 98.7462 43.7788 98.7462 43.5463V38.3729C98.7462 37.7809 97.9375 37.6286 97.7198 38.1761H97.7199Z" fill="#828282"/>
<path d="M89.4543 38.373C88.5038 37.5678 87.0568 37.6842 86.2425 38.5608C85.6451 39.2095 85.3419 40.1361 85.3921 41.1493C85.4381 42.005 85.7968 42.8569 86.4296 43.404C86.8488 43.7686 87.3855 43.9507 88.0177 43.9507C88.6401 43.9507 89.1003 43.8394 89.48 43.602C89.7936 43.404 90.0718 43.1553 90.2895 42.7856C90.4465 42.5179 90.2337 42.1876 89.9403 42.1876C89.7987 42.1876 89.6517 42.2636 89.5759 42.3857C89.48 42.5428 89.3697 42.6896 89.1714 42.8363C88.4531 43.3783 87.31 43.2525 86.7536 42.5631C86.3789 42.0968 86.2572 41.6103 86.2119 41.0889H89.8848C90.2942 41.0889 90.558 40.9365 90.5175 40.5316C90.4409 39.706 90.0718 38.9006 89.4544 38.373L89.4543 38.373ZM86.2571 40.3489C86.5149 39.4524 87.0163 38.6568 87.9678 38.6568C88.9793 38.6568 89.4348 39.4619 89.672 40.3489H86.2571Z" fill="#828282"/>
<path d="M110.293 42.3298C110.025 42.7247 109.69 43.0447 109.215 43.1155C108.699 43.1907 108.224 43.0595 107.879 42.7306C107.267 42.1378 107.116 41.2969 107.202 40.531C107.298 39.7156 107.783 38.8247 108.608 38.6826C108.942 38.626 109.28 38.6826 109.59 38.8391C109.862 38.9803 110.105 39.199 110.272 39.4573C110.354 39.5786 110.496 39.6498 110.652 39.6498C110.778 39.6498 110.905 39.5687 110.971 39.4468C111.041 39.305 111.037 39.1429 110.95 39.0122C110.496 38.2969 109.746 37.8358 108.912 37.8311C108.345 37.8261 107.818 38.0339 107.379 38.4292C106.761 38.9803 106.387 39.8414 106.366 40.734C106.336 41.9802 106.868 43.3278 108.031 43.7897C108.37 43.9206 108.739 43.9711 109.134 43.9412C109.726 43.8956 110.004 43.733 110.267 43.5509C110.591 43.3232 110.859 43.0184 111.021 42.6892C111.082 42.5629 111.076 42.4161 111.001 42.2938C110.834 42.0258 110.434 42.0666 110.293 42.3298V42.3298Z" fill="#828282"/>
<path d="M122.215 37.8975H118.759C118.531 37.8975 118.349 38.0844 118.349 38.3129V43.5458C118.349 43.7678 118.531 43.9508 118.759 43.9508C118.977 43.9508 119.168 43.7641 119.168 43.5458V38.7127H121.805V43.5458C121.805 43.7678 121.987 43.9508 122.215 43.9508C122.437 43.9508 122.624 43.7641 122.624 43.5458V38.3129C122.624 38.0892 122.437 37.8975 122.215 37.8975H122.215Z" fill="#828282"/>
<path d="M68.5583 43.0689H68.0749V38.3066C68.0749 38.0788 67.8881 37.8975 67.6606 37.8975H65.6818C64.635 37.8975 64.1336 38.1347 64.1336 39.4114V41.6455C64.1336 42.072 64.1233 42.6515 63.9454 43.0688H63.4448C63.2257 43.0688 63.0322 43.2598 63.0322 43.4765C63.0322 43.7038 63.2198 43.89 63.4448 43.89H68.5583C68.7774 43.89 68.9706 43.698 68.9706 43.4815C68.9706 43.2551 68.783 43.0687 68.5583 43.0687V43.0689ZM67.2504 43.0792H64.777C64.9487 42.3754 64.9585 41.8636 64.9585 41.0424V39.4165C64.9585 38.7885 65.1205 38.7121 65.7331 38.7121H67.2504V43.0792H67.2504Z" fill="#828282"/>
<path d="M125.018 19.0046L114.96 20.122L122.608 4.76751L125.018 19.0046ZM140.45 26.5451L144.439 6.10154L127.602 7.99649L126.421 1.05664L120.594 1.70888L106.619 29.819H110.129L113.406 23.2387L125.496 21.8957L126.846 29.8191L131.284 29.8204L128.104 10.9947L139.584 9.71114L136.163 27.2175C135.828 28.9474 137.36 30.4581 140.554 29.6195L149.234 27.1669L148.72 29.8191H152.873L156.381 11.8864L152.127 12.3677L149.824 24.1609L140.45 26.5451ZM159.187 4.50388L149.218 5.56597L148.615 8.69697L158.607 7.6288L159.187 4.50388Z" fill="#0E95C0"/>
<path d="M186.815 4.43528L188.424 1.19189L160.419 4.42228L159.842 7.55048L169.487 6.37519L164.91 29.837H169.063L173.739 5.88285L186.815 4.43528Z" fill="#0E95C0"/>
<path d="M177.859 27.2174C177.523 28.9473 179.056 30.458 182.249 29.6196L190.924 27.1848L190.415 29.8189H194.568L199 7.10254L194.758 7.58015L191.394 24.1878L182.145 26.5618L185.649 8.60477L181.401 9.08048L177.859 27.2173V27.2174Z" fill="#0E95C0"/>
<path d="M16.5864 25.4003C17.4153 21.1553 14.6303 17.7139 10.3672 17.7139C6.10329 17.7139 1.97497 21.1553 1.14595 25.4003C0.31718 29.6456 3.10203 33.0869 7.36531 33.0869C11.6291 33.0869 15.7575 29.6456 16.5864 25.4003Z" fill="#0E95C0"/>
<path d="M76.626 26.3021L73.0257 26.6914L76.1616 10.7096L76.9103 10.6197C78.9179 10.3849 81.8704 10.2367 83.5602 12.3745C85.1087 14.1898 84.6552 16.6046 84.2457 18.4737C83.8353 20.343 83.1514 25.5668 76.626 26.3021ZM56.9733 18.9521L46.7891 20.0929L54.5683 4.74973L56.9733 18.9521ZM111.857 9.75264L87.7538 12.441C87.4332 11.5688 85.8457 6.59389 77.2164 7.56014L59.7359 9.52977L58.2945 1L52.5947 1.64466L38.5791 29.8197H42.1033L45.2318 23.2201L57.4656 21.879L58.8097 29.8197H63.1632L60.2353 12.4879L71.9055 11.1815L67.0882 35.8578L71.3347 35.3779L72.4159 29.8232C72.4159 29.8232 76.6131 29.3529 76.6089 29.3529C81.107 28.8608 86.1115 27.1647 87.752 18.7714C88.1191 16.8917 88.1788 15.4586 88.1788 15.4586L97.5967 14.4126L94.5845 29.8399H98.737L101.852 13.9322L110.231 12.9983L111.857 9.75264Z" fill="#CE2635"/>
<path d="M21.8647 5.3912C15.2791 5.3912 8.89568 10.4366 7.10938 16.8559C8.25099 16.4346 9.45197 16.2001 10.6625 16.2001C15.7657 16.2001 19.0993 20.3192 18.107 25.4006C17.7517 27.2201 16.888 28.914 15.6941 30.3425C16.1127 30.3858 16.5417 30.4089 16.9806 30.4089C23.9195 30.4089 30.6371 24.8081 31.9864 17.8996C33.3352 10.9911 28.8036 5.39111 21.8647 5.39111V5.3912Z" fill="#CE2635"/>
</svg>
