<svg width="50" height="52" viewBox="0 0 50 52" fill="none" xmlns="http://www.w3.org/2000/svg">
<path fill-rule="evenodd" clip-rule="evenodd" d="M21.0275 50.6246L21.2158 44.3852L27.2131 44.5662L27.0248 50.8055L21.0275 50.6246ZM28.244 43.5572L28.4322 37.3178L34.4295 37.4988L34.2412 43.7382L28.244 43.5572ZM42.8652 23.1811L42.677 29.4205L48.6742 29.6014L48.8625 23.3621L42.8652 23.1811ZM22.3455 6.94868L28.3427 7.12964L28.531 0.890267L22.5337 0.709303L22.3455 6.94868ZM35.8998 21.9301L41.897 22.1111L42.0853 15.8717L36.088 15.6908L35.8998 21.9301ZM35.4605 36.4889L35.6488 30.2495L41.6461 30.4304L41.4578 36.6698L35.4605 36.4889ZM29.1226 14.4399L35.1198 14.6209L35.3081 8.38148L29.3108 8.20051L29.1226 14.4399ZM35.8684 22.9702L35.6801 29.2095L41.6774 29.3905L41.8657 23.1511L35.8684 22.9702ZM14.6897 28.5758L14.8779 22.3364L20.8752 22.5173L20.6869 28.7567L14.6897 28.5758ZM28.6833 28.9985L34.6806 29.1794L34.8689 22.9401L28.8716 22.7591L28.6833 28.9985ZM21.6865 28.7877L21.8748 22.5483L27.872 22.7293L27.6838 28.9686L21.6865 28.7877ZM7.8811 22.1254L7.69283 28.3648L13.6901 28.5458L13.8784 22.3064L7.8811 22.1254ZM6.69331 28.3347L0.696039 28.1538L0.884308 21.9144L6.88158 22.0953L6.69331 28.3347Z" fill="#F2F2F2"/>
</svg>
