<svg width="19" height="12" viewBox="0 0 19 12" fill="none" xmlns="http://www.w3.org/2000/svg">
<path d="M17.3301 0H1.66992C0.750277 0 0 0.621415 0 1.38462V10.6154C0 11.376 0.746938 12 1.66992 12H17.3301C18.2474 12 19 11.3807 19 10.6154V1.38462C19 0.624 18.2531 0 17.3301 0ZM17.0995 0.923077L9.5354 7.19486L1.9059 0.923077H17.0995ZM1.11328 10.4242V1.57135L6.47481 5.97874L1.11328 10.4242ZM1.90048 11.0769L7.26539 6.62862L9.14523 8.17391C9.36284 8.3528 9.71401 8.35221 9.93073 8.17249L11.7637 6.65271L17.0995 11.0769H1.90048ZM17.8867 10.4242L12.5509 6L17.8867 1.57575V10.4242Z" fill="#828282"/>
</svg>
