<svg width="50" height="45" viewBox="0 0 50 45" fill="none" xmlns="http://www.w3.org/2000/svg">
<path d="M24.9591 32.042C26.2864 25.2444 21.8267 19.7334 15.0001 19.7334C8.17208 19.7334 1.56126 25.2444 0.233719 32.042C-1.09342 38.8401 3.36605 44.3508 10.193 44.3508C17.0207 44.3508 23.6317 38.8401 24.9591 32.042Z" fill="#0E95C0"/>
<path d="M33.4114 0.00013197C22.8657 0.00013197 12.6437 8.07949 9.7832 18.3589C11.6113 17.6843 13.5345 17.3088 15.473 17.3088C23.6448 17.3088 28.9831 23.9049 27.394 32.0419C26.8251 34.9554 25.4421 37.6681 23.5302 39.9555C24.2005 40.0249 24.8875 40.0618 25.5903 40.0618C36.7019 40.0618 47.459 31.0932 49.6196 20.0302C51.7796 8.96744 44.5229 0 33.4114 0V0.00013197Z" fill="#CE2635"/>
</svg>
