<svg width="16" height="16" viewBox="0 0 16 16" fill="none" xmlns="http://www.w3.org/2000/svg">
<path d="M15.966 12.397C15.9207 12.2607 15.6328 12.0598 15.1023 11.7949C14.9587 11.7114 14.7539 11.5979 14.489 11.454C14.2238 11.31 13.9831 11.1773 13.7673 11.0561C13.5511 10.9349 13.3486 10.8175 13.1593 10.704C13.129 10.6813 13.0344 10.6151 12.8753 10.505C12.716 10.3952 12.5817 10.3138 12.4716 10.2606C12.3618 10.2078 12.2538 10.1812 12.1477 10.1812C11.9962 10.1812 11.807 10.2893 11.5798 10.505C11.3526 10.7211 11.1442 10.9557 10.9549 11.2097C10.7655 11.4636 10.5647 11.6983 10.3528 11.9142C10.1406 12.1302 9.96622 12.2381 9.83001 12.2381C9.76162 12.2381 9.67637 12.2191 9.57419 12.1814C9.47205 12.1436 9.39436 12.1112 9.34102 12.085C9.28816 12.0583 9.19745 12.0054 9.06857 11.9256C8.93944 11.8461 8.86764 11.8025 8.85251 11.7949C7.81463 11.219 6.92451 10.5599 6.18197 9.81774C5.43967 9.07513 4.78045 8.18513 4.20469 7.1472C4.19713 7.13204 4.15346 7.06004 4.07397 6.93132C3.99437 6.80248 3.94131 6.7117 3.9148 6.65852C3.88829 6.60555 3.85609 6.52786 3.81828 6.42561C3.78046 6.32336 3.76148 6.23818 3.76148 6.16993C3.76148 6.03365 3.86946 5.85932 4.0854 5.64718C4.30129 5.43516 4.53621 5.23432 4.78992 5.04507C5.04383 4.85581 5.27851 4.64741 5.49448 4.42023C5.71038 4.19293 5.81833 4.00363 5.81833 3.85215C5.81833 3.74616 5.79182 3.6381 5.73884 3.52829C5.68582 3.41824 5.60438 3.28395 5.49448 3.12478C5.38455 2.9657 5.31827 2.87109 5.29551 2.84064C5.18199 2.65139 5.06468 2.44876 4.94332 2.23284C4.82196 2.01696 4.6895 1.77632 4.54549 1.51121C4.4016 1.24621 4.28804 1.04159 4.20461 0.897674C3.9396 0.367484 3.73887 0.0794828 3.60246 0.0341891C3.5494 0.0114627 3.4698 0 3.36384 0C3.15917 0 2.89217 0.037811 2.56263 0.113672C2.23298 0.189413 1.97358 0.268856 1.78415 0.352319C1.40534 0.511325 1.00385 0.973415 0.57954 1.73843C0.193167 2.45039 0 3.15507 0 3.85195C0 4.05633 0.0132546 4.25517 0.0397638 4.44853C0.0662729 4.64168 0.113639 4.85951 0.181902 5.10198C0.250046 5.34437 0.305015 5.52443 0.34657 5.64169C0.388164 5.75902 0.465821 5.96921 0.5795 6.27233C0.69302 6.57538 0.761283 6.76089 0.784011 6.82907C1.04914 7.57152 1.36355 8.23433 1.72716 8.81769C2.3254 9.78733 3.14181 10.7894 4.17591 11.8235C5.21005 12.8575 6.21198 13.6739 7.18176 14.2723C7.76508 14.6359 8.42817 14.9502 9.17054 15.2155C9.23876 15.2381 9.42429 15.3062 9.72723 15.4201C10.0303 15.5337 10.2406 15.6114 10.3579 15.6531C10.4753 15.6948 10.6554 15.7498 10.8976 15.818C11.1403 15.8863 11.358 15.9337 11.5512 15.9604C11.7444 15.9865 11.9433 16 12.1478 16C12.8446 16 13.5494 15.8067 14.2615 15.4204C15.0265 14.9963 15.4885 14.5947 15.6476 14.2157C15.7313 14.0265 15.8105 13.767 15.8863 13.4374C15.9623 13.1079 16 12.8409 16 12.6363C16.0002 12.5299 15.9888 12.4505 15.966 12.397Z" fill="#828282"/>
</svg>
