<svg width="48" height="28" viewBox="0 0 48 28" fill="none" xmlns="http://www.w3.org/2000/svg">
<path fill-rule="evenodd" clip-rule="evenodd" d="M48 0.1875L42 0.1875L42 6.23047L48 6.23047L48 0.1875ZM41 7.23749L35 7.23749L35 13.2805L41 13.2805L41 7.23749ZM21 21.338L27 21.338L27 27.3809L21 27.3809L21 21.338ZM6 0.187498L6 6.23047L-2.64147e-07 6.23047L0 0.1875L6 0.187498ZM20 14.2878L20 20.3308L14 20.3308L14 14.2878L20 14.2878ZM34 14.2878L28 14.2878L28 20.3308L34 20.3308L34 14.2878ZM13 7.23749L13 13.2805L7 13.2805L7 7.23749L13 7.23749Z" fill="#8AA6B3"/>
</svg>
