<svg width="48" height="49" viewBox="0 0 48 49" fill="none" xmlns="http://www.w3.org/2000/svg">
<path fill-rule="evenodd" clip-rule="evenodd" d="M21 0.476562V6.51956L27 6.51956V0.476562H21ZM28 7.52679V13.5698H34V7.52679L28 7.52679ZM42 27.67V21.6271H48V27.67H42ZM21 42.7774H27V48.8204H21V42.7774ZM35 28.6772H41V34.7201H35V28.6772ZM35 14.5768V20.6198H41V14.5768H35ZM28 35.7274H34V41.7704H28V35.7274ZM35 27.67V21.6271H41V27.67H35ZM14 21.6271V27.67H20V21.6271H14ZM28 21.6271H34V27.6701H28V21.6271ZM21 21.6271V27.67H27V21.6271H21ZM7 27.67L7 21.6271H13L13 27.67H7ZM6 21.6271H0V27.6701H6L6 21.6271Z" fill="#9EBCCA"/>
</svg>
