<svg width="48" height="39" viewBox="0 0 48 39" fill="none" xmlns="http://www.w3.org/2000/svg">
<path fill-rule="evenodd" clip-rule="evenodd" d="M48 0L42 -2.62268e-07L42 6.04285L48 6.04285L48 0ZM47 32.9147L47 38.9575L41 38.9575L41 32.9147L47 32.9147ZM39 38.9575L39 32.9147L33 32.9147L33 38.9575L39 38.9575ZM31 32.9147L31 38.9575L25 38.9575L25 32.9147L31 32.9147ZM21 21.1504L27 21.1504L27 27.1934L21 27.1934L21 21.1504ZM6 -1.83588e-06L6 6.04285L-2.64141e-07 6.04285L0 1.13344e-07L6 -1.83588e-06ZM7 38.9575L7 32.9147L0.999999 32.9147L0.999998 38.9575L7 38.9575ZM23 38.9575L23 32.9147L17 32.9147L17 38.9575L23 38.9575ZM15 32.9147L15 38.9575L9 38.9575L9 32.9147L15 32.9147ZM41 7.04993L35 7.04993L35 13.0929L41 13.0929L41 7.04993ZM20 14.1002L20 20.1432L14 20.1432L14 14.1002L20 14.1002ZM34 14.1002L28 14.1002L28 20.1433L34 20.1433L34 14.1002ZM13 7.04993L13 13.0929L7 13.0929L7 7.04993L13 7.04993Z" fill="white"/>
</svg>
