<svg width="48" height="29" viewBox="0 0 48 29" fill="none" xmlns="http://www.w3.org/2000/svg">
<path fill-rule="evenodd" clip-rule="evenodd" d="M48 0.82373L42 0.82373L42 6.8667L48 6.8667L48 0.82373ZM41 7.87353L35 7.87354L35 13.9167L41 13.9167L41 7.87353ZM21 21.9744L27 21.9744L27 28.0171L21 28.0171L21 21.9744ZM6 0.823729L6 6.8667L-2.64147e-07 6.8667L0 0.823731L6 0.823729ZM20 14.9241L20 20.967L14 20.967L14 14.9241L20 14.9241ZM34 14.9241L28 14.9241L28 20.967L34 20.967L34 14.9241ZM13 7.87354L13 13.9167L7 13.9167L7 7.87354L13 7.87354Z" fill="#6490A3"/>
</svg>
