<svg width="66" height="66" viewBox="0 0 66 66" fill="none" xmlns="http://www.w3.org/2000/svg">
<g clip-path="url(#clip0)">
<path d="M14.6644 28.5954L14.6644 28.5954C11.8721 29.9377 9.50991 32.0283 7.83321 34.6409C6.11038 37.3255 5.19972 40.4378 5.19972 43.6416C5.19972 46.3693 5.87283 49.0762 7.14615 51.4691C7.36859 51.8871 7.79678 52.1255 8.23965 52.1255C8.43557 52.1255 8.63449 52.0788 8.81968 51.9802L8.84317 52.0244L8.81968 51.9802C9.42302 51.6593 9.65181 50.9099 9.33084 50.3067L9.37498 50.2832L9.33084 50.3067C8.24725 48.27 7.67445 45.9654 7.67445 43.6416C7.67445 38.2105 10.8389 33.1801 15.7367 30.8257C16.3527 30.5296 16.6119 29.7904 16.3158 29.1745L16.3158 29.1745C16.0198 28.5585 15.2805 28.2992 14.6644 28.5954Z" fill="#206DA9" stroke="#8AA6B3" stroke-width="0.1"/>
<path d="M34.9511 35.3036L34.9511 35.3037C34.3478 35.6246 34.119 36.374 34.44 36.9772L34.3958 37.0007L34.44 36.9772C35.5236 39.0139 36.0964 41.3185 36.0964 43.6423C36.0964 49.0732 32.9319 54.1036 28.0343 56.4581C27.4183 56.7542 27.1592 57.4935 27.455 58.1095C27.6681 58.5524 28.1103 58.811 28.5712 58.811C28.7509 58.811 28.9335 58.7718 29.1064 58.6886L29.1281 58.7337L29.1064 58.6886C31.8987 57.3462 34.2609 55.2556 35.9376 52.6429C37.6604 49.9582 38.5711 46.846 38.5711 43.6423C38.5711 40.9145 37.898 38.2078 36.6247 35.8148L36.6247 35.8148C36.3038 35.2115 35.5542 34.9827 34.9511 35.3036Z" fill="#206DA9" stroke="#8AA6B3" stroke-width="0.1"/>
<path d="M16.0856 22.5698L16.0762 22.5922L16.0529 22.5987C6.83553 25.1566 0.0500031 33.6212 0.0500031 43.6417C0.0500031 55.6816 9.84529 65.4769 21.8852 65.4769C28.1709 65.4769 33.8436 62.8062 37.8314 58.5409L37.8462 58.525H37.8679H53.0395C56.2771 58.525 58.9113 55.8908 58.9113 52.6532C58.9113 50.7938 58.0416 49.1345 56.6883 48.0578L56.6391 48.0186L56.6883 47.9795C58.0416 46.9028 58.9113 45.2435 58.9113 43.3841C58.9113 41.5248 58.0416 39.8655 56.6883 38.7888L56.6391 38.7496L56.6883 38.7105C58.0416 37.6338 58.9113 35.9745 58.9113 34.1151C58.9113 32.2558 58.0416 30.5965 56.6883 29.5198L56.6391 29.4806L56.6883 29.4415C58.0416 28.3648 58.9113 26.7055 58.9113 24.8461C58.9113 21.6085 56.2771 18.9743 53.0395 18.9743H49.682H49.5869L49.6408 18.8959C50.2908 17.951 50.6722 16.808 50.6722 15.5771C50.6722 14.3462 50.2907 13.2032 49.6408 12.2583L49.5869 12.18H49.682H59.9912C63.2289 12.18 65.8631 9.54575 65.8631 6.3081C65.8631 3.07045 63.2289 0.43623 59.9912 0.43623H28.4508C25.2132 0.43623 22.579 3.07045 22.579 6.3081C22.579 7.53901 22.9605 8.68202 23.6103 9.62691L23.6642 9.70524H23.5692H13.26C10.0223 9.70524 7.38809 12.3395 7.38809 15.5771C7.38809 18.8148 10.0223 21.449 13.26 21.449H16.6115H16.7063L16.6527 21.5272C16.4313 21.8508 16.241 22.1996 16.0856 22.5698ZM20.0427 21.8851L20.0168 21.7902C20.4688 21.5713 20.9727 21.449 21.4991 21.449H53.0395C54.9126 21.449 56.4366 22.9729 56.4366 24.8461C56.4366 26.7193 54.9126 28.2433 53.0395 28.2433H37.372H37.3513L37.3366 28.2286C33.3813 24.2635 27.9148 21.8066 21.8852 21.8066C21.2646 21.8066 20.6504 21.8341 20.0427 21.8851ZM39.5313 30.7975L39.4733 30.718H39.5717H53.0395C54.9128 30.718 56.4366 32.242 56.4366 34.1151C56.4366 35.9884 54.9128 37.5123 53.0395 37.5123H42.8806H42.8432L42.8327 37.4764C42.1167 35.0483 40.9894 32.7952 39.5313 30.7975ZM43.4225 40.0452L43.4128 39.987H43.4718H53.0395C54.9128 39.987 56.4366 41.5108 56.4366 43.3841C56.4366 45.2574 54.9128 46.7813 53.0395 46.7813H43.5512H43.4936L43.5017 46.7243C43.6447 45.7168 43.7203 44.688 43.7203 43.6417C43.7203 42.4168 43.6173 41.2157 43.4225 40.0452ZM42.9773 49.2931L42.9872 49.256H43.0256H53.0395C54.9128 49.256 56.4366 50.7798 56.4366 52.6532C56.4366 54.5265 54.9128 56.0503 53.0395 56.0503H39.9368H39.8418L39.8956 55.972C41.2764 53.9613 42.3292 51.7094 42.9773 49.2931ZM9.86282 15.5771C9.86282 13.7039 11.3867 12.18 13.26 12.18H44.8003C46.6736 12.18 48.1975 13.7039 48.1975 15.5771C48.1975 17.4503 46.6736 18.9743 44.8003 18.9743H21.4991H13.26C11.3867 18.9743 9.86282 17.4503 9.86282 15.5771ZM63.3884 6.3081C63.3884 8.18127 61.8645 9.70524 59.9912 9.70524H28.4508C26.5775 9.70524 25.0537 8.18127 25.0537 6.3081C25.0537 4.43492 26.5775 2.91096 28.4508 2.91096H59.9912C61.8645 2.91096 63.3884 4.43492 63.3884 6.3081ZM41.2456 43.6417C41.2456 54.3171 32.5605 63.0022 21.8852 63.0022C11.2098 63.0022 2.52472 54.3171 2.52472 43.6417C2.52472 32.9664 11.2098 24.2813 21.8852 24.2813C32.5605 24.2813 41.2456 32.9664 41.2456 43.6417Z" fill="#206DA9" stroke="#8AA6B3" stroke-width="0.1"/>
<g clip-path="url(#clip1)">
<path d="M19.8468 42.9129V43.0548H19.9887H25.3505C27.1809 43.0548 28.2562 41.8221 28.4421 40.4645C28.6277 39.1091 27.9272 37.6243 26.2326 37.124L26.2326 37.124L26.2292 37.123L26.1924 37.2601L26.2292 37.123L26.2292 37.123L26.2291 37.123L26.2287 37.1229L26.2275 37.1226L26.223 37.1214L26.2064 37.1171C26.1921 37.1134 26.1715 37.1082 26.1458 37.102C26.0946 37.0896 26.0228 37.073 25.9409 37.0565C25.7795 37.0239 25.5688 36.9892 25.3955 36.9892H25.3936H25.3918H25.3899H25.388H25.386H25.3841H25.3821H25.3802H25.3782H25.3762H25.3742H25.3721H25.3701H25.368H25.366H25.3639H25.3618H25.3597H25.3575H25.3554H25.3532H25.351H25.3489H25.3467H25.3444H25.3422H25.34H25.3377H25.3354H25.3332H25.3309H25.3286H25.3262H25.3239H25.3215H25.3192H25.3168H25.3144H25.312H25.3096H25.3072H25.3047H25.3023H25.2998H25.2973H25.2948H25.2923H25.2898H25.2873H25.2847H25.2822H25.2796H25.277H25.2745H25.2719H25.2692H25.2666H25.264H25.2613H25.2587H25.256H25.2533H25.2506H25.2479H25.2452H25.2425H25.2397H25.237H25.2342H25.2315H25.2287H25.2259H25.2231H25.2203H25.2174H25.2146H25.2118H25.2089H25.206H25.2032H25.2003H25.1974H25.1945H25.1916H25.1886H25.1857H25.1827H25.1798H25.1768H25.1738H25.1709H25.1679H25.1649H25.1618H25.1588H25.1558H25.1528H25.1497H25.1466H25.1436H25.1405H25.1374H25.1343H25.1312H25.1281H25.125H25.1219H25.1187H25.1156H25.1124H25.1093H25.1061H25.1029H25.0997H25.0965H25.0933H25.0901H25.0869H25.0837H25.0805H25.0772H25.074H25.0707H25.0675H25.0642H25.0609H25.0576H25.0543H25.051H25.0477H25.0444H25.0411H25.0378H25.0345H25.0311H25.0278H25.0244H25.0211H25.0177H25.0143H25.011H25.0076H25.0042H25.0008H24.9974H24.994H24.9906H24.9872H24.9837H24.9803H24.9769H24.9734H24.97H24.9665H24.9631H24.9596H24.9562H24.9527H24.9492H24.9457H24.9422H24.9388H24.9353H24.9318H24.9283H24.9248H24.9212H24.9177H24.9142H24.9107H24.9071H24.9036H24.9001H24.8965H24.893H24.8894H24.8859H24.8823H24.8788H24.8752H24.8716H24.868H24.8645H24.8609H24.8573H24.8537H24.8501H24.8465H24.843H24.8394H24.8358H24.8321H24.8285H24.8249H24.8213H24.8177H24.8141H24.8105H24.8069H24.8032H24.7996H24.796H24.7923H24.7887H24.7851H24.7814H24.7778H24.7742H24.7705H24.7669H24.7632H24.7596H24.7559H24.7523H24.7487H24.745H24.7413H24.7377H24.734H24.7304H24.7267H24.7231H24.7194H24.7158H24.7121H24.7084H24.7048H24.7011H24.6975H24.6938H24.6901H24.6865H24.6828H24.6792H24.6755H24.6718H24.6682H24.6645H24.6608H24.6572H24.6535H24.6499H24.6462H24.6426H24.6389H24.6352H24.6316H24.6279H24.6243H24.6206H24.617H24.6133H24.6097H24.606H24.6024H24.5987H24.5951H24.5914H24.5878H24.5842H24.5805H24.5769H24.5733H24.5696H24.566H24.5624H24.5587H24.5551H24.5515H24.5479H24.5443H24.5407H24.537H24.5334H24.5298H24.5262H24.5226H24.519H24.5154H24.5118H24.5083H24.5047H24.5011H24.4975H24.4939H24.4904H24.4868H24.4832H24.4797H24.4761H24.4726H24.469H24.4655H24.4619H24.4584H24.4549H24.4513H24.4478H24.4443H24.4408H24.4373H24.4337H24.4302H24.4267H24.4233H24.4198H24.4163H24.4128H24.4093H24.4059H24.4024H24.3989H24.3955H24.392H24.3886H24.3852H24.3817H24.3783H24.3749H24.3715H24.368H24.3646H24.3612H24.3579H24.3545H24.3511H24.3477H24.3443H24.341H24.3376H24.3343H24.3309H24.3276H24.3243H24.3209H24.3176H24.3143H24.311H24.3077H24.3044H24.3012H24.2979H24.2946H24.2914H24.2881H24.2849H24.2816H24.2784H24.2752H24.272H24.2688H24.2656H24.2624H24.2592H24.256H24.2528H24.2497H24.2465H24.2434H24.2403H24.2371H24.234H24.2309H24.2278H24.2247H24.2216H24.2186H24.2155H24.2124H24.2094H24.2063H24.2033H24.2003H24.1973H24.1943H24.1913H24.1883H24.1853H24.1824H24.1794H24.1765H24.1735H24.1706H24.1677H24.1648H24.1619H24.159H24.1562H24.1533H24.1504H24.1476H24.1448H24.1419H24.1391H24.1363H24.1335H24.1308H24.128H24.1252H24.1225H24.1198H24.117H24.1143H24.1116H24.1089H24.1062H24.1036H24.1009H24.0983H24.0956H24.093H24.0904H24.0878H24.0852H24.0827H24.0801H24.0775H24.075H24.0725H24.07H24.0675H24.065H24.0625H24.06H24.0576H24.0552H24.0527H24.0503H24.0479H24.0455H24.0432H24.0408H24.0384H24.0361H24.0338H24.0315H24.0292H24.0269H24.0246H24.0224H24.0202H24.0179H24.0157H24.0135H24.0113H24.0092H24.007H24.0049H24.0027H24.0006H23.9985H23.9964H23.9944H23.9923H23.9903H23.9883H23.9862H23.9843H23.9823H23.9803H23.9784H23.9764H23.9745H23.9726H23.9707H23.9688H23.967H23.9651H23.9633H23.9615H23.9597H23.9579H23.9561H23.9544H23.9526H23.9509H23.9492H23.9475H23.9459H23.9442H23.9426H23.941H23.9394H23.9378H23.9362H23.9346H23.9331H23.9316H23.9301H23.9286H23.9271H23.9257H23.9242H23.9228H23.9214H23.92H23.9187H23.9173H23.916H23.9147H23.9134H23.9121H23.9108H23.9096H23.9084H23.9072H23.906H23.9048H23.9037H23.9025H23.9014H23.9003H23.6154C23.5367 36.9867 23.3745 36.9876 23.2221 36.9884C23.1496 36.9888 23.0792 36.9892 23.0212 36.9892H22.5951C22.5212 36.9868 22.4282 36.9875 22.3232 36.9883C22.266 36.9887 22.2053 36.9892 22.1422 36.9892H21.7319C21.6574 36.9868 21.557 36.9875 21.4466 36.9883C21.3875 36.9887 21.3255 36.9892 21.2631 36.9892H19.9887H19.8468V37.1311V42.9129ZM17.1319 43.0548H17.2738V42.9129V35.5956C17.2738 34.9311 17.847 34.3826 18.495 34.3826H25.1312C26.0691 34.3826 26.8025 34.5529 27.4741 34.8414L27.4742 34.8414C27.7824 34.9736 28.0964 35.1525 28.3666 35.3334C28.5137 35.4318 28.6369 35.5182 28.7599 35.6258L28.7599 35.6258C29.1989 36.0093 29.4354 36.2341 29.7871 36.7347C29.9725 36.9991 30.1727 37.3147 30.3051 37.6103C31.0185 39.2049 31.0306 40.9867 30.2628 42.5648C29.2734 44.5984 27.3337 45.7068 25.087 45.7068H19.989H19.8471V45.8487V46.9779V47.1198H19.989H25.7023C25.9465 47.1198 26.2191 47.2679 26.4367 47.5032C26.6537 47.7378 26.791 48.0324 26.791 48.2877V48.5134C26.791 48.8145 26.6562 49.1199 26.4415 49.351C26.2267 49.5822 25.9436 49.7267 25.6585 49.7267H19.989H19.8471V49.8686C19.8471 50.0326 19.8514 50.2424 19.8561 50.4749C19.8572 50.526 19.8582 50.5781 19.8593 50.6311C19.8651 50.9267 19.8704 51.2508 19.8685 51.5666C19.8666 51.8827 19.8575 52.1881 19.8348 52.4466C19.8117 52.7099 19.7757 52.9081 19.7275 53.0202C19.4644 53.6315 18.8548 53.8623 18.2993 53.7649C17.7457 53.6679 17.2742 53.2507 17.2742 52.5787V49.8686V49.7267H17.1322C16.9828 49.7267 16.8393 49.7305 16.7049 49.7341C16.6391 49.7358 16.5756 49.7375 16.5146 49.7387C16.3259 49.7422 16.1578 49.7409 16.0024 49.723C15.6985 49.688 15.4441 49.5902 15.2007 49.3328C14.8482 48.9598 14.7883 48.4065 14.96 47.938C15.1311 47.4708 15.5194 47.1198 16.0336 47.1198H17.1322H17.2742V46.9779V45.8487V45.7068H17.1322H16.1213C15.0751 45.7068 14.392 44.3304 15.2444 43.4511L15.1425 43.3523L15.2444 43.4511C15.5018 43.1855 15.7222 43.091 15.9929 43.0573C16.1339 43.0397 16.2906 43.0386 16.479 43.0424C16.5344 43.0435 16.5926 43.0451 16.6537 43.0467C16.7974 43.0506 16.9569 43.0548 17.1319 43.0548Z" fill="#206DA9" stroke="#8AA6B3" stroke-width="0.283842"/>
</g>
</g>
<defs>
<clipPath id="clip0">
<rect width="65.9131" height="65.9131" transform="matrix(-1 0 0 1 65.9131 0)" fill="white"/>
</clipPath>
<clipPath id="clip1">
<rect x="14.5527" y="34.2402" width="16.2643" height="19.6883" fill="white"/>
</clipPath>
</defs>
</svg>
