<svg width="80" height="82" viewBox="0 0 80 82" fill="none" xmlns="http://www.w3.org/2000/svg">
<g clip-path="url(#clip0)">
<path d="M12.4036 21.885H12.4882C15.6698 21.8815 18.2478 19.2456 18.2512 15.9925V14.0304C18.2478 10.778 15.6698 8.14212 12.4882 8.13794H12.4036C9.22196 8.14212 6.64404 10.778 6.64062 14.0304V15.9918C6.64335 19.2449 9.22196 21.8815 12.4036 21.885ZM9.08552 14.0311C9.08757 12.1583 10.5713 10.6406 12.4036 10.6385H12.4882C14.3198 10.6406 15.8042 12.1583 15.8063 14.0311V15.9925C15.8042 17.8653 14.3198 19.383 12.4882 19.3851H12.4036C10.5713 19.383 9.08757 17.8653 9.08552 15.9925V14.0311Z" fill="#206DA9"/>
<path d="M19.2268 23.7654H16.8146C16.5035 23.7661 16.2047 23.8874 15.9783 24.1051L12.6206 27.3261L9.39805 24.119C9.16952 23.8923 8.86391 23.7654 8.54534 23.7654H5.98447C4.3036 23.7654 2.7005 24.488 1.56673 25.756C0.432965 27.0248 -0.127098 28.7225 0.0243442 30.4342V44.779C0.0243442 46.8959 1.70248 48.6117 3.77287 48.6131H3.81721C4.31929 48.6075 4.81523 48.4959 5.27365 48.2853L5.91762 74.2253C5.97287 75.8212 6.94019 77.235 8.38776 77.8349C9.83532 78.434 11.4923 78.1083 12.6186 77.0014C13.7462 78.1097 15.4066 78.4354 16.8555 77.8321C18.3045 77.2288 19.2697 75.81 19.3202 74.2121L19.9635 48.3062C21.1225 48.8119 22.4521 48.6885 23.5033 47.9784C24.5545 47.2676 25.1876 46.0659 25.1876 44.7769V30.4349C25.3383 28.7232 24.7789 27.0255 23.6452 25.7567C22.5107 24.488 20.9076 23.7654 19.2268 23.7654ZM15.3589 75.6308C14.5205 75.6301 13.841 74.9354 13.8403 74.0788V48.0942H11.3954V74.0788C11.3948 74.9221 10.7358 75.6106 9.91104 75.6294C9.0863 75.6482 8.39799 74.9905 8.36047 74.1479L7.63259 44.8306H17.6046L16.876 74.134C16.8494 74.9703 16.1768 75.6336 15.3589 75.6308ZM22.7481 30.2486C22.744 30.2905 22.742 30.333 22.742 30.3749V44.7769C22.7338 45.5092 22.1505 46.0993 21.4336 46.0993C20.7173 46.0993 20.1341 45.5092 20.1259 44.7769V41.7239L20.1402 41.1436H20.1259V35.1367H17.681V41.6946L17.6653 42.3307H7.5712L7.5405 41.0808H7.52549V35.1374H5.08059V44.7071C5.09696 45.4576 4.52326 46.0826 3.78993 46.114C3.44134 46.1182 3.10571 45.9794 2.8574 45.729C2.60977 45.4779 2.46993 45.1368 2.46993 44.7797V30.3756C2.46993 30.333 2.46788 30.2912 2.46379 30.2493C2.36282 29.231 2.68822 28.2168 3.35948 27.4579C4.03073 26.6991 4.98441 26.2659 5.98515 26.2659H8.0494L11.7522 29.9501C11.7577 29.9557 11.7638 29.9592 11.77 29.9648C11.8068 30.0003 11.845 30.0331 11.8859 30.0638C11.8887 30.0659 11.8914 30.0687 11.8948 30.0708C11.9391 30.1029 11.9855 30.1322 12.0333 30.158C12.0428 30.1629 12.0524 30.1677 12.0626 30.1726C12.1069 30.1956 12.1527 30.2152 12.199 30.2326C12.2031 30.234 12.2072 30.2361 12.212 30.2375C12.2618 30.2542 12.3123 30.2682 12.3641 30.2786C12.3764 30.2807 12.3887 30.2828 12.4003 30.2849C12.446 30.2933 12.4924 30.2982 12.5388 30.301C12.5456 30.301 12.5524 30.3024 12.5599 30.303C12.6118 30.3044 12.6636 30.303 12.7154 30.2982C12.7277 30.2968 12.74 30.2954 12.7523 30.294C12.8034 30.2877 12.8546 30.2786 12.9044 30.2661L12.9099 30.2647C12.9638 30.25 13.017 30.2319 13.0688 30.2096C13.0729 30.2082 13.077 30.2075 13.0811 30.2054C13.0859 30.204 13.09 30.2005 13.094 30.1991C13.1943 30.1538 13.2885 30.0959 13.3737 30.0254C13.3847 30.0157 13.3956 30.0066 13.4065 29.9968C13.4174 29.9871 13.431 29.9766 13.4426 29.9655L17.2989 26.2659H19.2281C20.2282 26.2659 21.1819 26.6991 21.8531 27.4579C22.5237 28.2168 22.8491 29.231 22.7481 30.2486Z" fill="#206DA9"/>
<path d="M66.4759 21.885H66.5611C69.7421 21.8815 72.32 19.2456 72.3241 15.9925V14.0304C72.32 10.778 69.7421 8.14212 66.5611 8.13794H66.4759C63.2942 8.14212 60.7163 10.778 60.7129 14.0304V15.9918C60.7163 19.2449 63.2942 21.8815 66.4759 21.885ZM63.1578 14.0311C63.1598 12.1583 64.6442 10.6406 66.4759 10.6385H66.5611C68.3928 10.6406 69.8772 12.1583 69.8792 14.0311V15.9925C69.8772 17.8653 68.3928 19.383 66.5611 19.3851H66.4759C64.6442 19.383 63.1598 17.8653 63.1578 15.9925V14.0311Z" fill="#206DA9"/>
<path d="M73.3002 23.7654H70.8874C70.5763 23.7661 70.2775 23.8874 70.051 24.1051L66.6934 27.3254L63.4708 24.119C63.2423 23.8923 62.9367 23.7654 62.6181 23.7654H60.0572C58.3764 23.7654 56.7733 24.488 55.6388 25.756C54.5051 27.0248 53.9457 28.7225 54.0964 30.4342V44.779C54.0971 46.8959 55.7753 48.6117 57.8456 48.6131H57.8893C58.3914 48.6068 58.8873 48.4952 59.3451 48.2853L59.989 74.2246C60.0443 75.8205 61.0116 77.2343 62.4592 77.8342C63.9067 78.434 65.5637 78.1076 66.69 77.0014C67.8183 78.1097 69.478 78.4347 70.927 77.8314C72.3759 77.2287 73.3418 75.81 73.3916 74.2114L74.0349 48.3062C75.1939 48.8112 76.5235 48.6877 77.5747 47.9777C78.6259 47.2669 79.259 46.0651 79.259 44.7769V30.4349C79.4104 28.7232 78.8504 27.0255 77.7173 25.7574C76.5835 24.4887 74.9804 23.7661 73.3002 23.7654ZM69.4316 75.6308C68.5932 75.6301 67.9138 74.9354 67.9131 74.0788V48.0942H65.4682V74.0788C65.4703 74.9235 64.8106 75.6147 63.9845 75.6336C63.1584 75.6524 62.4694 74.9919 62.4339 74.1479L61.7054 44.8306H71.6773L70.9488 74.1339C70.9222 74.9702 70.2502 75.6336 69.4316 75.6308ZM76.8209 30.2486C76.8168 30.2905 76.8148 30.333 76.8148 30.3749V44.7769C76.8148 45.5155 76.2295 46.114 75.507 46.114C74.7846 46.114 74.1993 45.5155 74.1993 44.7769V41.7239L74.2136 41.1436H74.1993V35.1367H71.7544V41.6939L71.7387 42.33H61.6433L61.6126 41.0801H61.5976V35.1367H59.1527V44.7071C59.1691 45.4576 58.5954 46.0826 57.862 46.114C57.5134 46.1182 57.1778 45.9794 56.9302 45.729C56.6819 45.4779 56.542 45.1361 56.542 44.7797V30.3756C56.542 30.333 56.54 30.2912 56.5359 30.2493C56.4349 29.231 56.7603 28.2168 57.4316 27.4579C58.1021 26.6991 59.0565 26.2659 60.0572 26.2659H62.1208L65.8257 29.9501C65.8305 29.955 65.8373 29.9592 65.8427 29.9641C65.8796 30.0003 65.9185 30.0331 65.9594 30.0638C65.9621 30.0659 65.9648 30.0687 65.9676 30.0708C66.0126 30.1029 66.059 30.1322 66.1074 30.158C66.117 30.1628 66.1265 30.1677 66.1361 30.1726C66.1804 30.1956 66.2268 30.2152 66.2739 30.2326L66.2855 30.2368C66.3353 30.2542 66.3864 30.2682 66.4383 30.2786C66.4499 30.2807 66.4621 30.2828 66.4744 30.2849C66.5201 30.2926 66.5665 30.2982 66.6129 30.301C66.6197 30.301 66.6265 30.3023 66.6341 30.303C66.6859 30.3044 66.7377 30.303 66.7889 30.2975C66.8019 30.2968 66.8141 30.2954 66.8264 30.2933C66.8776 30.2877 66.9281 30.2779 66.9779 30.2654C66.9799 30.2654 66.982 30.2654 66.9833 30.2647C67.0379 30.25 67.0904 30.2319 67.1423 30.2096C67.1464 30.2082 67.1511 30.2075 67.1552 30.2054C67.1593 30.204 67.1634 30.2005 67.1675 30.1984C67.2678 30.1538 67.3619 30.0959 67.4472 30.0254C67.4581 30.0157 67.469 30.0073 67.4799 29.9968C67.4909 29.9864 67.5045 29.9766 67.5161 29.9655L71.3724 26.2659H73.3016C74.3023 26.2659 75.256 26.6991 75.9266 27.4579C76.5978 28.2168 76.9226 29.231 76.8216 30.2486H76.8209Z" fill="#206DA9"/>
<path d="M39.4388 21.885H39.524C42.705 21.8815 45.2836 19.2456 45.287 15.9925V14.0304C45.2836 10.778 42.705 8.14212 39.524 8.13794H39.4388C36.2578 8.14212 33.6799 10.778 33.6758 14.0304V15.9918C33.6792 19.2449 36.2571 21.8815 39.4388 21.885ZM36.1207 14.0311C36.1227 12.1583 37.6071 10.6406 39.4388 10.6385H39.524C41.3557 10.6406 42.8401 12.1583 42.8421 14.0311V15.9925C42.8401 17.8653 41.3557 19.383 39.524 19.3851H39.4388C37.6071 19.383 36.1227 17.8653 36.1207 15.9925V14.0304V14.0311Z" fill="#206DA9"/>
<path d="M46.2641 23.7654H43.8506C43.5395 23.7661 43.2407 23.8874 43.0142 24.1051L39.6566 27.3261L36.434 24.119C36.2062 23.8923 35.8999 23.7654 35.582 23.7654H33.0211C31.3402 23.7654 29.7371 24.488 28.6034 25.756C27.4689 27.0248 26.9095 28.7225 27.0603 30.4342V44.779C27.061 46.8959 28.7391 48.6117 30.8095 48.6131H30.8532C31.3552 48.6068 31.8512 48.4952 32.3089 48.2853L32.9536 74.2246C33.0081 75.8212 33.9761 77.235 35.4237 77.8342C36.8713 78.434 38.5283 78.1076 39.6545 77.0014C40.7822 78.1097 42.4426 78.4347 43.8915 77.8321C45.3397 77.2288 46.3057 75.8101 46.3562 74.2114L46.9988 48.3062C48.1585 48.8112 49.488 48.6878 50.5392 47.9777C51.5905 47.2676 52.2228 46.0652 52.2228 44.7769V30.4349C52.3743 28.7232 51.8149 27.0255 50.6811 25.7567C49.5474 24.4887 47.9443 23.7661 46.2641 23.7654ZM42.3948 75.6308C41.5571 75.6301 40.8777 74.9354 40.877 74.0789V48.0942H38.4321V74.0789C38.4314 74.9221 37.7724 75.6106 36.9477 75.6294C36.1229 75.6482 35.4346 74.9905 35.3971 74.1479L34.6692 44.8306H44.6405L43.912 74.134C43.886 74.9703 43.2134 75.6336 42.3948 75.6308ZM49.7848 30.2486C49.78 30.2905 49.7779 30.333 49.7779 30.3749V44.7769C49.7779 45.5155 49.1926 46.114 48.4702 46.114C47.7478 46.114 47.1625 45.5155 47.1625 44.7769V41.7239L47.1768 41.1436H47.1625V35.1367H44.7176V41.6939L44.7019 42.33H34.6072L34.5758 41.0801H34.5614V35.1367H32.1165V44.7071C32.1329 45.4576 31.5585 46.0826 30.8259 46.114C30.4773 46.1182 30.141 45.9794 29.8934 45.729C29.645 45.4779 29.5059 45.1361 29.5052 44.7797V30.3756C29.5052 30.333 29.5032 30.2912 29.4991 30.2493C29.3981 29.231 29.7242 28.2168 30.3948 27.4579C31.066 26.6984 32.0204 26.2652 33.0211 26.2659H35.0854L38.7895 29.9501C38.795 29.955 38.8011 29.9592 38.8073 29.9641C38.8434 29.9996 38.8823 30.0331 38.9232 30.0638C38.926 30.0659 38.9287 30.0687 38.9321 30.0708C38.9765 30.1029 39.0228 30.1322 39.0706 30.1573C39.0801 30.1629 39.0897 30.1677 39.0999 30.1726C39.1443 30.1956 39.19 30.2152 39.2364 30.2319C39.2405 30.234 39.2445 30.2361 39.2493 30.2375C39.2991 30.2542 39.3496 30.2682 39.4014 30.2786C39.4137 30.2807 39.4253 30.2828 39.4376 30.2849C39.4833 30.2933 39.5297 30.2982 39.5761 30.301C39.5829 30.301 39.5904 30.3024 39.5972 30.303C39.6491 30.3044 39.7009 30.303 39.7528 30.2975C39.765 30.2968 39.7773 30.2954 39.7896 30.2933C39.8414 30.2877 39.8919 30.2779 39.9417 30.2654L39.9472 30.2647C40.0011 30.25 40.0543 30.2319 40.1061 30.2096C40.1102 30.2082 40.1143 30.2075 40.1184 30.2054C40.1225 30.204 40.1273 30.2005 40.1314 30.1984C40.2317 30.1538 40.3258 30.0959 40.4111 30.0254C40.422 30.0157 40.4329 30.0073 40.4438 29.9968C40.4547 29.9864 40.4684 29.9766 40.4793 29.9655L44.3356 26.2659H46.2648C47.2655 26.2659 48.2192 26.6991 48.8904 27.4579C49.561 28.2168 49.8864 29.231 49.7848 30.2486Z" fill="#206DA9"/>
<path d="M31.9289 10.8878V8.92642C31.9255 5.67328 29.3476 3.03742 26.1659 3.03394H26.0813C22.8997 3.03742 20.3218 5.67328 20.3184 8.92642V10.8878C20.3218 14.1402 22.8997 16.7761 26.0813 16.7803H26.1659C29.3476 16.7768 31.9255 14.1402 31.9289 10.8878ZM29.484 10.8878C29.482 12.7606 27.9982 14.2783 26.1659 14.2804H26.0813C24.2497 14.2783 22.7653 12.7606 22.7633 10.8878V8.92642C22.7653 7.05363 24.2497 5.53587 26.0813 5.53378H26.1659C27.9982 5.53587 29.482 7.05363 29.484 8.92642V10.8878Z" fill="#206DA9"/>
<path d="M58.9657 10.8878V8.92642C58.9623 5.67328 56.3844 3.03742 53.2027 3.03394H53.1175C49.9365 3.03742 47.3586 5.67328 47.3545 8.92642V10.8878C47.3586 14.1402 49.9365 16.7761 53.1175 16.7803H53.2027C56.3844 16.7768 58.9623 14.1402 58.9657 10.8878ZM56.5208 10.8878C56.5188 12.7606 55.0344 14.2783 53.2027 14.2804H53.1175C51.2858 14.2783 49.8014 12.7606 49.7994 10.8878V8.92642C49.8014 7.05363 51.2858 5.53587 53.1175 5.53378H53.2027C55.0344 5.53587 56.5188 7.05363 56.5208 8.92642V10.8878Z" fill="#206DA9"/>
</g>
<defs>
<clipPath id="clip0">
<rect width="79.283" height="81.0646" fill="white"/>
</clipPath>
</defs>
</svg>
