<svg width="94" height="94" viewBox="0 0 94 94" fill="none" xmlns="http://www.w3.org/2000/svg">
<g clip-path="url(#clip0)">
<path d="M87.9051 12.5243L83.9239 9.01864L87.9051 5.51368C88.5242 4.96779 88.736 4.11696 88.4453 3.34503C88.1532 2.57239 87.4317 2.07341 86.6065 2.07341H70.1315V1.36545C70.1315 0.611289 69.5202 0 68.7661 0C68.0119 0 67.4006 0.611289 67.4006 1.36545V19.7809L56.1863 25.8703C56.1245 25.377 55.9766 24.8922 55.7428 24.4359L54.1627 21.351C53.078 19.2328 50.4722 18.3934 48.3554 19.4774L47.1336 20.1029C46.1072 20.6289 45.3473 21.5216 44.9933 22.6191C44.6394 23.7159 44.7339 24.8851 45.2599 25.9108L46.84 28.9964C47.2089 29.7164 47.7541 30.2865 48.3952 30.686C47.5565 31.8154 47.1584 33.2043 46.749 34.6473L44.7731 41.6337C44.5677 42.3595 44.9899 43.1143 45.7157 43.319C45.8393 43.3546 45.9644 43.3709 46.0874 43.3709C46.6831 43.3709 47.2304 42.9786 47.401 42.3765L49.3768 35.3922C49.9753 33.2818 50.3428 32.1516 51.5128 31.5162L53.6104 30.3768L53.8691 30.2446C53.9551 30.2005 54.0354 30.1507 54.1172 30.1017L69.0667 21.9836C68.9722 23.8523 67.9664 25.618 66.3102 26.6238L56.5886 32.5305C56.5773 32.5369 56.5659 32.5433 56.5552 32.5504L53.5293 34.3885C52.8854 34.7802 52.6799 35.6204 53.0716 36.2651C53.4405 36.8728 54.2082 37.0889 54.8344 36.7839L52.5385 43.7242L50.8603 44.4122L46.2969 46.2824L47.6119 41.6337C47.8166 40.908 47.3951 40.1531 46.6694 39.9477C45.943 39.7416 45.1888 40.1645 44.9834 40.8902L42.9057 48.2378C42.8787 48.3323 42.8609 48.4361 42.8567 48.5349L42.3129 58.5231C42.2966 58.9041 42.3776 59.6241 42.2013 59.9958L36.1623 72.7007H31.7739C29.2029 72.7007 27.1117 74.7919 27.1117 77.3621V81.3035C26.5232 81.0341 25.8699 80.8834 25.1812 80.8834H14.0365C11.4663 80.8834 9.37511 82.9739 9.37511 85.5449V90.4352H6.09689C5.34273 90.4352 4.73145 91.0465 4.73145 91.8006C4.73145 92.5548 5.34273 93.1661 6.09689 93.1661H86.605C87.3592 93.1661 87.9705 92.5548 87.9705 91.8006C87.9705 91.0465 87.3592 90.4352 86.605 90.4352H83.0539V55.2399C83.0539 52.6696 80.9627 50.5784 78.3924 50.5784H70.1315V26.7574C71.6455 24.7053 72.2063 22.0156 71.5034 19.4596C71.3932 19.058 71.1053 18.7282 70.7215 18.5654C70.5331 18.4851 70.3312 18.4495 70.1315 18.4574V15.9646H86.6057C87.4317 15.9646 88.1532 15.4656 88.4446 14.6937C88.736 13.9217 88.5242 13.0702 87.9051 12.5243ZM47.5927 23.4578C47.7228 23.0548 48.0014 22.7264 48.3782 22.5338L49.6 21.9083C49.8303 21.7903 50.0763 21.7342 50.3194 21.7342C50.8951 21.7342 51.4517 22.049 51.7317 22.5956L53.3125 25.6812C53.6814 26.402 53.4426 27.2756 52.7866 27.717L52.3416 27.9579L51.4026 28.4391C50.6257 28.8372 49.669 28.5287 49.2709 27.7511L47.6901 24.6662C47.4975 24.2895 47.4627 23.8602 47.5927 23.4578ZM44.849 73.1208C44.3849 72.909 43.8802 72.7703 43.35 72.7213L44.849 70.7304V73.1208ZM51.3323 62.1183C51.989 61.3314 52.1703 60.4124 52.3167 59.6717C52.3537 59.4954 53.0275 55.8149 53.0275 55.8149C53.0275 55.8149 53.6651 56.2123 53.7319 56.2407C53.7781 56.2613 53.8108 56.3068 53.8158 56.3601L54.5586 63.9109H49.9824L51.3323 62.1183ZM59.407 54.5817L58.254 63.9045H57.3023L56.5339 56.0928C56.4358 55.092 55.8231 54.2185 54.9254 53.7842L53.5521 52.9134L54.4669 47.8433C54.4669 47.8433 58.3208 52.4216 58.4104 52.5381C59.2079 53.5752 59.4809 53.9903 59.407 54.5817ZM44.6578 61.19C44.9336 60.3598 45.0616 59.5146 45.0402 58.6553L45.5364 49.5457L51.8518 46.9576L50.7039 53.3164C50.7003 53.3335 50.6968 53.3513 50.6947 53.3683L49.745 58.6261C49.6214 59.1706 49.5133 59.9966 49.1735 60.4451L39.9466 72.7007H39.1861L44.6578 61.19ZM12.106 85.5442C12.106 84.4801 12.9718 83.6143 14.0365 83.6143H25.1812C26.246 83.6143 27.1124 84.4801 27.1124 85.5442V90.4352H12.106V85.5442ZM29.8426 85.5442V77.3621C29.8426 76.2973 30.7091 75.4316 31.7739 75.4316H42.9185C43.9833 75.4316 44.849 76.2973 44.849 77.3621V90.4352H29.8433L29.8426 85.5442ZM80.323 55.2399V90.4352H65.3173V82.2482C65.3173 81.494 64.706 80.8827 63.9518 80.8827C63.1969 80.8827 62.5857 81.494 62.5857 82.2482V90.4352H47.5799V68.5717C47.5799 67.5076 48.4457 66.6418 49.5105 66.6418H60.6551C61.7199 66.6418 62.5857 67.5076 62.5857 68.5717V83.1842C62.5857 83.9383 63.1969 84.5496 63.9511 84.5496C64.706 84.5496 65.3165 83.9383 65.3165 83.1842V55.2399C65.3165 54.1751 66.183 53.3093 67.2478 53.3093H68.7519C68.7561 53.3093 68.7611 53.3101 68.7661 53.3101C68.7703 53.3101 68.7753 53.3093 68.7796 53.3093H78.3917C79.4565 53.3093 80.323 54.1758 80.323 55.2399ZM67.2478 50.5784C64.6775 50.5784 62.5864 52.6696 62.5864 55.2399V64.331C62.0973 64.1078 61.5642 63.9664 61.0034 63.9252L62.1172 54.9179C62.3362 53.1622 61.4406 51.9986 60.5748 50.8727C60.4831 50.7533 55.1756 44.4513 55.1756 44.4513L58.4317 34.6068L67.4006 29.1578V50.5784H67.2478ZM70.1315 13.233V4.80501H84.5771L81.4659 7.54444C81.0423 7.91761 80.7992 8.45497 80.7992 9.01935C80.7992 9.58373 81.0423 10.1211 81.4659 10.4943L84.5771 13.2337L70.1315 13.233Z" fill="#206DA9"/>
</g>
<defs>
<clipPath id="clip0">
<rect width="93.1663" height="93.1663" fill="white"/>
</clipPath>
</defs>
</svg>
