<svg width="88" height="82" viewBox="0 0 88 82" fill="none" xmlns="http://www.w3.org/2000/svg">
<g clip-path="url(#clip0)">
<path d="M50.6002 36.5535H38.8668C29.961 36.5631 22.7438 43.2251 22.7334 51.4458V79.8767C22.7334 80.6244 23.3901 81.2306 24.2001 81.2306H65.2669C66.0769 81.2306 66.7336 80.6244 66.7336 79.8767V51.4458C66.7231 43.2251 59.506 36.5633 50.6002 36.5535ZM44.5795 42.7203L42.7065 39.2612H46.7604L44.8801 42.7176C44.7811 42.9061 44.7309 43.1132 44.7335 43.3227C44.7329 43.3779 44.737 43.4332 44.7452 43.4879L47.5891 64.4956L44.7335 67.1316L41.8779 64.4956L44.7217 43.4906C44.7302 43.4349 44.734 43.3789 44.7335 43.3227C44.7333 43.1137 44.6805 42.9074 44.5795 42.7203ZM63.8002 78.5229H25.6667V51.4458C25.6757 44.7199 31.5804 39.2693 38.8668 39.2612H39.4271L41.7561 43.561L38.8785 64.8165C38.8224 65.2309 38.9766 65.6461 39.2965 65.9415L43.6965 70.0031C44.2693 70.5316 45.1977 70.5316 45.7704 70.0031L50.1704 65.9415C50.4904 65.6461 50.6445 65.2309 50.5884 64.8165L47.7108 43.561L50.0399 39.2612H50.6002C57.8866 39.2693 63.7914 44.7199 63.8002 51.4458V78.5229Z" fill="#206DA9"/>
<path d="M59.4003 2.7075C59.1343 2.7075 58.8733 2.77435 58.6454 2.90076L52.2947 6.42078L45.7709 0.396138C45.1982 -0.132372 44.2698 -0.132372 43.697 0.396138L37.1733 6.41807L30.8226 2.89806C30.1283 2.51305 29.2272 2.72036 28.81 3.36124C28.6725 3.57244 28.6 3.81444 28.6006 4.06101V16.2457C28.6006 16.9933 29.2573 17.5995 30.0673 17.5995H31.5339V23.0149C31.5339 29.7443 37.4439 35.1996 44.734 35.1996C52.0243 35.1996 57.934 29.7443 57.934 23.0149V17.5995H59.4007C60.2107 17.5995 60.8674 16.9933 60.8674 16.2457V4.06101C60.867 3.31335 60.2103 2.70733 59.4003 2.7075ZM55.0005 23.0149C55.0005 28.2489 50.404 32.4919 44.7338 32.4919C39.0636 32.4919 34.4671 28.2489 34.4671 23.0149V17.5995H55.0005V23.0149ZM57.9339 14.8918H31.5337V6.45192L36.6451 9.28282C37.2222 9.60284 37.9613 9.51907 38.4374 9.07974L44.7338 3.26766L51.0302 9.07974C51.5063 9.51907 52.2454 9.60284 52.8225 9.28282L57.9339 6.45192V14.8918Z" fill="#206DA9"/>
<path d="M82.867 21.661C80.4369 21.661 78.467 19.8426 78.467 17.5995C78.467 16.8518 77.8103 16.2456 77.0004 16.2456C76.1904 16.2456 75.5337 16.8518 75.5337 17.5995C75.5337 19.8426 73.5638 21.661 71.1337 21.661C70.3237 21.661 69.667 22.2672 69.667 23.0149C69.667 23.7625 70.3237 24.3687 71.1337 24.3687C73.5638 24.3687 75.5337 26.1871 75.5337 28.4303C75.5337 29.1779 76.1904 29.7841 77.0004 29.7841C77.8103 29.7841 78.467 29.1779 78.467 28.4303C78.467 26.1871 80.4369 24.3687 82.867 24.3687C83.677 24.3687 84.3337 23.7625 84.3337 23.0149C84.3337 22.2672 83.677 21.661 82.867 21.661ZM77.0004 24.4107C76.5732 23.8796 76.0637 23.4093 75.4882 23.0149C76.0635 22.6204 76.5732 22.1503 77.0004 21.619C77.4277 22.1501 77.937 22.6204 78.5125 23.0149C77.9372 23.4093 77.4277 23.8796 77.0004 24.4107Z" fill="#206DA9"/>
<path d="M21.2665 36.5536C18.8364 36.5536 16.8664 34.7352 16.8664 32.492C16.8664 31.7444 16.2097 31.1382 15.3998 31.1382C14.5898 31.1382 13.9331 31.7444 13.9331 32.492C13.9331 34.7352 11.9632 36.5536 9.53308 36.5536C8.72311 36.5536 8.06641 37.1598 8.06641 37.9074C8.06641 38.6551 8.72311 39.2613 9.53308 39.2613C11.9632 39.2613 13.9331 41.0797 13.9331 43.3229C13.9331 44.0705 14.5898 44.6767 15.3998 44.6767C16.2097 44.6767 16.8664 44.0705 16.8664 43.3229C16.8664 41.0797 18.8364 39.2613 21.2665 39.2613C22.0764 39.2613 22.7331 38.6551 22.7331 37.9074C22.7331 37.1598 22.0764 36.5536 21.2665 36.5536ZM15.3998 39.3033C14.9724 38.7722 14.4631 38.3019 13.8876 37.9074C14.4629 37.513 14.9724 37.0428 15.3998 36.5116C15.8271 37.0427 16.3364 37.513 16.9119 37.9074C16.3366 38.3019 15.8271 38.7722 15.3998 39.3033Z" fill="#206DA9"/>
<path d="M16.8661 12.1842C14.436 12.1842 12.4661 10.3658 12.4661 8.12265C12.4661 7.37499 11.8093 6.7688 10.9994 6.7688C10.1894 6.7688 9.53271 7.37499 9.53271 8.12265C9.53271 10.3658 7.56278 12.1842 5.13269 12.1842C4.32272 12.1842 3.66602 12.7904 3.66602 13.5381C3.66602 14.2857 4.32272 14.8919 5.13269 14.8919C7.56278 14.8919 9.53271 16.7103 9.53271 18.9535C9.53271 19.7011 10.1894 20.3073 10.9994 20.3073C11.8093 20.3073 12.4661 19.7011 12.4661 18.9535C12.4661 16.7103 14.436 14.8919 16.8661 14.8919C17.676 14.8919 18.3327 14.2857 18.3327 13.5381C18.3327 12.7904 17.676 12.1842 16.8661 12.1842ZM10.9994 14.9339C10.572 14.4028 10.0627 13.9325 9.48724 13.5381C10.0625 13.1436 10.572 12.6735 10.9994 12.1422C11.4267 12.6733 11.936 13.1436 12.5115 13.5381C11.9362 13.9325 11.4267 14.4028 10.9994 14.9339Z" fill="#206DA9"/>
</g>
<defs>
<clipPath id="clip0">
<rect width="88" height="81.2308" fill="white"/>
</clipPath>
</defs>
</svg>
