<svg width="76" height="76" viewBox="0 0 76 76" fill="none" xmlns="http://www.w3.org/2000/svg">
<g clip-path="url(#clip0)">
<path d="M74.4166 72.8335H1.58338C0.709383 72.8335 0 73.5427 0 74.4167C0 75.2907 0.709383 76.0001 1.58338 76.0001H74.4168C75.2908 76.0001 76.0001 75.2907 76.0001 74.4167C76 73.5427 75.2906 72.8335 74.4166 72.8335Z" fill="#206DA9"/>
<path d="M14.2504 53.8335H4.75038C3.87638 53.8335 3.16699 54.5429 3.16699 55.4169V74.4169C3.16699 75.2907 3.87638 76.0001 4.75038 76.0001H14.2504C15.1244 76.0001 15.8338 75.2907 15.8338 74.4167V55.4167C15.8338 54.5427 15.1244 53.8335 14.2504 53.8335ZM12.667 72.8335H6.33376V57.0001H12.6671V72.8335H12.667Z" fill="#206DA9"/>
<path d="M33.2504 38H23.7504C22.8764 38 22.167 38.7094 22.167 39.5834V74.4168C22.167 75.2908 22.8764 76.0001 23.7504 76.0001H33.2504C34.1244 76.0001 34.8338 75.2908 34.8338 74.4168V39.5834C34.8338 38.7094 34.1244 38 33.2504 38ZM31.667 72.8334H25.3336V41.1666H31.667V72.8334Z" fill="#206DA9"/>
<path d="M52.2504 44.3335H42.7504C41.8764 44.3335 41.167 45.0429 41.167 45.9169V74.4169C41.167 75.2909 41.8764 76.0003 42.7504 76.0003H52.2504C53.1244 76.0003 53.8338 75.2909 53.8338 74.4169V45.9169C53.8338 45.0427 53.1244 44.3335 52.2504 44.3335ZM50.667 72.8335H44.3336V47.5001H50.667V72.8335Z" fill="#206DA9"/>
<path d="M71.2504 25.3335H61.7504C60.8764 25.3335 60.167 26.0429 60.167 26.9169V74.4169C60.167 75.2909 60.8764 76.0003 61.7504 76.0003H71.2504C72.1244 76.0003 72.8338 75.2909 72.8338 74.4169V26.9169C72.8338 26.0427 72.1244 25.3335 71.2504 25.3335ZM69.667 72.8335H63.3336V28.5001H69.667V72.8335Z" fill="#206DA9"/>
<path d="M9.50038 28.5C6.00749 28.5 3.16699 31.3405 3.16699 34.8334C3.16699 38.3263 6.00749 41.1668 9.50038 41.1668C12.9933 41.1668 15.8338 38.3263 15.8338 34.8334C15.8338 31.3405 12.9933 28.5 9.50038 28.5ZM9.50038 38C7.75238 38 6.33376 36.5781 6.33376 34.8334C6.33376 33.0885 7.75238 31.6668 9.50038 31.6668C11.2484 31.6668 12.667 33.0886 12.667 34.8334C12.667 36.5781 11.2484 38 9.50038 38Z" fill="#206DA9"/>
<path d="M28.5004 12.6665C25.0075 12.6665 22.167 15.507 22.167 18.9999C22.167 22.4928 25.0075 25.3333 28.5004 25.3333C31.9933 25.3333 34.8338 22.4928 34.8338 18.9999C34.8338 15.507 31.9933 12.6665 28.5004 12.6665ZM28.5004 22.1665C26.7524 22.1665 25.3338 20.7446 25.3338 18.9999C25.3338 17.255 26.7524 15.8333 28.5004 15.8333C30.2484 15.8333 31.667 17.2552 31.667 18.9999C31.667 20.7448 30.2484 22.1665 28.5004 22.1665Z" fill="#206DA9"/>
<path d="M47.5004 19C44.0075 19 41.167 21.8405 41.167 25.3334C41.167 28.8263 44.0075 31.6668 47.5004 31.6668C50.9933 31.6668 53.8338 28.8263 53.8338 25.3334C53.8338 21.8405 50.9933 19 47.5004 19ZM47.5004 28.5C45.7524 28.5 44.3338 27.0781 44.3338 25.3334C44.3338 23.5885 45.7524 22.1668 47.5004 22.1668C49.2484 22.1668 50.667 23.5886 50.667 25.3334C50.667 27.0781 49.2484 28.5 47.5004 28.5Z" fill="#206DA9"/>
<path d="M66.5004 0C63.0075 0 60.167 2.8405 60.167 6.33338C60.167 9.82627 63.0075 12.6668 66.5004 12.6668C69.9933 12.6668 72.8338 9.82627 72.8338 6.33338C72.8338 2.8405 69.9933 0 66.5004 0ZM66.5004 9.5C64.7524 9.5 63.3338 8.07812 63.3338 6.33338C63.3338 4.5885 64.7524 3.16677 66.5004 3.16677C68.2484 3.16677 69.667 4.58865 69.667 6.33338C69.667 8.07812 68.2484 9.5 66.5004 9.5Z" fill="#206DA9"/>
<path d="M64.264 8.56859C63.6465 7.95109 62.6426 7.95109 62.0251 8.56859L49.7385 20.8552C49.121 21.4727 49.121 22.4766 49.7385 23.0941C50.0489 23.4012 50.4541 23.5565 50.8595 23.5565C51.2616 23.5565 51.667 23.4045 51.9774 23.0941L64.264 10.8075C64.8815 10.19 64.8815 9.18609 64.264 8.56859Z" fill="#206DA9"/>
<path d="M43.6711 21.6787L33.4997 18.7781C32.6478 18.5311 31.7833 19.0251 31.5458 19.8674C31.3052 20.7098 31.7928 21.5838 32.6319 21.8244L42.8033 24.7251C42.9489 24.7662 43.0947 24.7852 43.2372 24.7852C43.9276 24.7852 44.5608 24.3323 44.7603 23.6357C45.0011 22.7966 44.5135 21.9193 43.6711 21.6787Z" fill="#206DA9"/>
<path d="M26.0299 20.9728C25.4853 20.2888 24.4909 20.178 23.8069 20.7195L11.8686 30.2385C11.1846 30.7863 11.0706 31.7806 11.6184 32.4646C11.9319 32.8572 12.3943 33.06 12.8566 33.06C13.2017 33.06 13.5501 32.946 13.8414 32.718L25.7798 23.199C26.4638 22.6511 26.5778 21.6568 26.0299 20.9728Z" fill="#206DA9"/>
</g>
<defs>
<clipPath id="clip0">
<rect width="76" height="76" fill="white"/>
</clipPath>
</defs>
</svg>
