<svg width="50" height="52" viewBox="0 0 50 52" fill="none" xmlns="http://www.w3.org/2000/svg">
<path fill-rule="evenodd" clip-rule="evenodd" d="M28.7518 50.8668L28.5635 44.6274L22.5662 44.8084L22.7545 51.0477L28.7518 50.8668ZM21.5353 43.7994L21.3471 37.56L15.3498 37.741L15.5381 43.9804L21.5353 43.7994ZM6.91407 23.4233L7.10234 29.6627L1.10507 29.8436L0.9168 23.6043L6.91407 23.4233ZM27.4338 7.19087L21.4366 7.37183L21.2483 1.13245L27.2456 0.951491L27.4338 7.19087ZM13.8795 22.1723L7.88225 22.3533L7.69398 16.1139L13.6913 15.9329L13.8795 22.1723ZM14.3188 36.7311L14.1305 30.4916L8.13323 30.6726L8.3215 36.912L14.3188 36.7311ZM20.6567 14.6821L14.6595 14.863L14.4712 8.62366L20.4685 8.4427L20.6567 14.6821ZM13.9109 23.2124L14.0992 29.4517L8.10189 29.6327L7.91362 23.3933L13.9109 23.2124ZM35.0896 28.8179L34.9014 22.5786L28.9041 22.7595L29.0924 28.9989L35.0896 28.8179ZM21.096 29.2407L15.0987 29.4216L14.9104 23.1823L20.9077 23.0013L21.096 29.2407ZM28.0928 29.0299L27.9045 22.7905L21.9073 22.9714L22.0955 29.2108L28.0928 29.0299ZM41.8982 22.3676L42.0865 28.607L36.0892 28.788L35.9009 22.5486L41.8982 22.3676ZM43.086 28.5769L49.0833 28.3959L48.895 22.1566L42.8977 22.3375L43.086 28.5769Z" fill="#6490A3"/>
</svg>
