<svg width="89" height="26" viewBox="0 0 89 26" fill="none" xmlns="http://www.w3.org/2000/svg"><g clip-path="url(#a)" fill-rule="evenodd" clip-rule="evenodd"><path d="M84.169 25.998L89 0H4.83L0 26h84.169v-.002z" fill="#CA2A2A"/><path d="M13.566 12.405l-.066-.75h-.136l-.141.751-1.582 8.466H9.376l3.036-16.247h2.197l.818 8.465.066.752h.137l.14-.751 1.582-8.467h2.265L16.581 20.87h-2.197l-.818-8.466zm7.881-7.784h2.47l-3.035 16.247H18.41L21.447 4.62zm5.455 7.779l-.066-.751h-.137l-.14.75-1.582 8.466h-2.265l3.036-16.247h2.197l.818 8.466.066.75h.137l.14-.75 1.585-8.467h2.265l-3.037 16.247h-2.197l-.82-8.464zm6.984-4.446c.145-.774.863-3.515 3.884-3.516 3.021-.002 2.714 2.74 2.57 3.513l-1.727 9.242c-.215 1.15-.856 3.845-3.944 3.846-3.089 0-2.722-2.695-2.507-3.845l.19-1.016h2.47c-.409 2.188-.474 2.784.234 2.783.618 0 .855-.53 1.086-1.768l.57-3.05a2.8 2.8 0 0 1-1.31.398c-2.538 0-2.274-2.518-2.104-3.424l.588-3.163zM38 7.244a.613.613 0 0 0-.619-.729 1.022 1.022 0 0 0-.891.73l-.88 4.708a.64.64 0 0 0 .619.73.956.956 0 0 0 .879-.665L38 7.245zm7.052-.267h-3.706l.442-2.365h6.223L47.564 7l-5.06 13.86h-2.562l5.11-13.883zm4.15-2.367h5.649l-.46 2.453h-3.18l-.797 4.266H52.7l-.487 2.607h-2.287l-.832 4.468h3.18l-.46 2.453h-5.651L49.2 4.61zm11.507-.003h2.402L57.51 20.853h-2.47l.474-16.245h2.401l-.433 8.93-.036.684h.137l.219-.685 2.905-8.93zm3.523 0h5.65l-.46 2.453h-3.18l-.796 4.266h2.287l-.486 2.606h-2.288l-.834 4.469h3.18l-.46 2.452h-5.65L64.23 4.607zm8.176 7.777l-.065-.751h-.137l-.14.751-1.585 8.466h-2.265l3.039-16.247h2.197l.82 8.465.068.753h.138l.14-.752L76.2 4.603h2.264L75.43 20.85h-2.197l-.826-8.466z" fill="#fff"/></g><defs><clipPath id="a"><path fill="#fff" d="M0 0h89v25.807H0z"/></clipPath></defs></svg>