<svg xmlns="http://www.w3.org/2000/svg" width="440" height="360" viewBox="0 0 440 360"><defs><linearGradient id="a" x1="2.73%" x2="71.545%" y1="51.097%" y2="51.097%"><stop offset="65.41%" stop-color="#E7EFF7"/><stop offset="100%" stop-color="#E7EFF7" stop-opacity="0"/></linearGradient><linearGradient id="b" x1="2.729%" x2="71.566%" y1="51.03%" y2="51.03%"><stop offset="65.41%" stop-color="#E7EFF7"/><stop offset="100%" stop-color="#E7EFF7" stop-opacity="0"/></linearGradient><linearGradient id="c" x1="2.858%" x2="71.695%" y1="52.28%" y2="52.28%"><stop offset="65.41%" stop-color="#E7EFF7"/><stop offset="100%" stop-color="#E7EFF7" stop-opacity="0"/></linearGradient><linearGradient id="d" x1="2.858%" x2="71.695%" y1="52.28%" y2="52.28%"><stop offset="34.05%" stop-color="#E7EFF7"/><stop offset="100%" stop-color="#E7EFF7" stop-opacity="0"/></linearGradient><linearGradient id="e" x1="2.922%" x2="71.759%" y1="51.03%" y2="51.03%"><stop offset="34.05%" stop-color="#E7EFF7"/><stop offset="100%" stop-color="#E7EFF7" stop-opacity="0"/></linearGradient><linearGradient id="f" x1="2.626%" x2="99.137%" y1="49.978%" y2="49.978%"><stop offset="78.38%" stop-color="#E7EFF7"/><stop offset="100%" stop-color="#E7EFF7" stop-opacity="0"/></linearGradient><linearGradient id="g" x1="8.71%" x2="108.709%" y1="49.984%" y2="49.984%"><stop offset="29.19%" stop-color="#CCE0F4"/><stop offset="37.27%" stop-color="#CADFF4"/><stop offset="40.18%" stop-color="#C3D9F5"/><stop offset="42.24%" stop-color="#B8D0F7"/><stop offset="43.91%" stop-color="#A7C3F9"/><stop offset="44.05%" stop-color="#A5C2F9"/></linearGradient><linearGradient id="h" x1="-.005%" y1="50.002%" y2="50.002%"><stop offset="31.89%" stop-color="#EDF4FB"/><stop offset="100%" stop-color="#CCE0F4"/></linearGradient><linearGradient id="i" x1="-.012%" x2="100.023%" y1="49.993%" y2="49.993%"><stop offset="0%" stop-color="#3184F8"/><stop offset="4.767%" stop-color="#307CE9"/><stop offset="13.99%" stop-color="#2F6FD3"/><stop offset="24.74%" stop-color="#2D66C1"/><stop offset="37.82%" stop-color="#2D5FB5"/><stop offset="55.67%" stop-color="#2C5BAE"/><stop offset="100%" stop-color="#2C5AAC"/></linearGradient><linearGradient id="j" x1="-35.671%" x2="64.294%" y1="50.025%" y2="50.025%"><stop offset="45.68%" stop-color="#93B2EF"/><stop offset="58.57%" stop-color="#A6C0F5"/><stop offset="70.81%" stop-color="#B3CAFA"/></linearGradient><linearGradient id="k" x1="4.405%" x2="104.44%" y1="50.023%" y2="50.023%"><stop offset="56.49%" stop-color="#93B2EF"/><stop offset="57.72%" stop-color="#9FBBF3"/><stop offset="59.79%" stop-color="#AAC4F7"/><stop offset="62.71%" stop-color="#B1C9F9"/><stop offset="70.81%" stop-color="#B3CAFA"/></linearGradient><linearGradient id="l" x1="41.719%" x2="-15.406%" y1="39.437%" y2="-18.251%"><stop offset="0%" stop-color="#A5C2F9"/><stop offset="15.01%" stop-color="#BED3FB"/><stop offset="36.52%" stop-color="#DAE6FD"/><stop offset="58%" stop-color="#EFF4FE"/><stop offset="79.25%" stop-color="#FBFCFF"/><stop offset="100%" stop-color="#FFF"/></linearGradient><linearGradient id="m" x1="50.259%" x2="68.011%" y1="44.915%" y2="87.965%"><stop offset="0%" stop-color="#1F5BAF"/><stop offset="100%" stop-color="#1F4A8A"/></linearGradient><linearGradient id="n" x1="2.59%" x2="71.457%" y1="50.834%" y2="50.834%"><stop offset="65.41%" stop-color="#E7EFF7"/><stop offset="100%" stop-color="#E7EFF7" stop-opacity="0"/></linearGradient><linearGradient id="o" x1="40.051%" x2="50.744%" y1="96.647%" y2="58.548%"><stop offset="0%" stop-color="#1F4A8A"/><stop offset="100%" stop-color="#1F5BAF"/></linearGradient><linearGradient id="p" x1="-2.474%" x2="95.006%" y1="50.148%" y2="50.148%"><stop offset="0%" stop-color="#A5C2F9"/><stop offset="15.01%" stop-color="#BED3FB"/><stop offset="36.52%" stop-color="#DAE6FD"/><stop offset="58%" stop-color="#EFF4FE"/><stop offset="79.25%" stop-color="#FBFCFF"/><stop offset="100%" stop-color="#FFF"/></linearGradient><linearGradient id="q" x1="113.685%" x2="93.798%" y1="34.549%" y2="38.518%"><stop offset="0%" stop-color="#1F5BAF"/><stop offset="100%" stop-color="#1F4A8A"/></linearGradient><linearGradient id="r" x1="-23.092%" x2="-16.728%" y1="95.152%" y2="90.459%"><stop offset="0%" stop-color="#3289F8"/><stop offset="100%" stop-color="#1F5BAF"/></linearGradient><linearGradient id="s" x1="34.635%" x2="46.867%" y1="65.733%" y2="53.469%"><stop offset="0%" stop-color="#1F4A8A"/><stop offset="100%" stop-color="#1F5BAF"/></linearGradient><linearGradient id="t" x1="52.685%" x2="52.685%" y1="100.91%" y2="93.989%"><stop offset="0%" stop-color="#3289F8"/><stop offset="100%" stop-color="#1F5BAF"/></linearGradient><linearGradient id="u" x1="119.822%" x2="-3.6%" y1="52.669%" y2="47.129%"><stop offset="0%" stop-color="#1F4A8A"/><stop offset="100%" stop-color="#1F5BAF"/></linearGradient><linearGradient id="v" x1="114.092%" x2="22.81%" y1="53.611%" y2="48.761%"><stop offset="0%" stop-color="#1F4A8A"/><stop offset="100%" stop-color="#1F5BAF"/></linearGradient><linearGradient id="w" x1="50.491%" x2="50.491%" y1="3.296%" y2="11.435%"><stop offset="0%" stop-color="#A5C2F9"/><stop offset="4.093%" stop-color="#ABC6F9"/><stop offset="28.37%" stop-color="#C7DAFA"/><stop offset="52.61%" stop-color="#DCE8FB"/><stop offset="76.59%" stop-color="#E8F0FB"/><stop offset="100%" stop-color="#ECF3FB"/></linearGradient><linearGradient id="x" x1="127.686%" x2="4.669%" y1="61.778%" y2="45.981%"><stop offset="0%" stop-color="#1F5BAF"/><stop offset="100%" stop-color="#3289F8"/></linearGradient><linearGradient id="y" x1="96.437%" x2="33.643%" y1="70.024%" y2="44.395%"><stop offset="0%" stop-color="#1F4A8A"/><stop offset="100%" stop-color="#1F5BAF"/></linearGradient><linearGradient id="z" x1="468.887%" x2="52.212%" y1="358.75%" y2="46.25%"><stop offset="0%" stop-color="#1F5BAF"/><stop offset="100%" stop-color="#3289F8"/></linearGradient><linearGradient id="A" x1="470.45%" x2="53.775%" y1="361.25%" y2="48.75%"><stop offset="0%" stop-color="#1F5BAF"/><stop offset="100%" stop-color="#3289F8"/></linearGradient><linearGradient id="B" x1="97.019%" x2="30.761%" y1="86.772%" y2="34.669%"><stop offset="0%" stop-color="#A5C2F9"/><stop offset="15.01%" stop-color="#BED3FB"/><stop offset="36.52%" stop-color="#DAE6FD"/><stop offset="58%" stop-color="#EFF4FE"/><stop offset="79.25%" stop-color="#FBFCFF"/><stop offset="100%" stop-color="#FFF"/></linearGradient><linearGradient id="C" x1="50.706%" x2="14.379%" y1="52.644%" y2="27.723%"><stop offset="0%" stop-color="#1F5BAF"/><stop offset="100%" stop-color="#3289F8"/></linearGradient><linearGradient id="D" x1="66.316%" x2="49.4%" y1="37.404%" y2="48.035%"><stop offset="0%" stop-color="#1F5BAF"/><stop offset="100%" stop-color="#1F4A8A"/></linearGradient><radialGradient id="E" cx="-14.128%" cy="6.217%" r="223.436%" fx="-14.128%" fy="6.217%" gradientTransform="matrix(.60061 0 0 1 -.056 0)"><stop offset="3.116%" stop-color="#A5C2F9"/><stop offset="49.73%" stop-color="#A5C2F9"/><stop offset="100%" stop-color="#2C5AAC"/></radialGradient><radialGradient id="F" cx="-14.826%" cy="6.436%" r="219.699%" fx="-14.826%" fy="6.436%" gradientTransform="matrix(.61398 0 0 1 -.057 0)"><stop offset="3.116%" stop-color="#A5C2F9"/><stop offset="49.73%" stop-color="#A5C2F9"/><stop offset="100%" stop-color="#2C5AAC"/></radialGradient><radialGradient id="G" cx="-15.076%" cy="5.685%" r="222.238%" fx="-15.076%" fy="5.685%" gradientTransform="matrix(.60385 0 0 1 -.06 0)"><stop offset="3.116%" stop-color="#A5C2F9"/><stop offset="49.73%" stop-color="#A5C2F9"/><stop offset="100%" stop-color="#2C5AAC"/></radialGradient><radialGradient id="H" cx="-15.064%" cy="6.778%" r="220.286%" fx="-15.064%" fy="6.778%" gradientTransform="matrix(.61137 0 0 1 -.059 0)"><stop offset="3.116%" stop-color="#A5C2F9"/><stop offset="49.73%" stop-color="#A5C2F9"/><stop offset="100%" stop-color="#2C5AAC"/></radialGradient><radialGradient id="I" cx="-15.023%" cy="6.742%" r="223.436%" fx="-15.023%" fy="6.742%" gradientTransform="matrix(.60061 0 0 1 -.06 0)"><stop offset="3.116%" stop-color="#A5C2F9"/><stop offset="49.73%" stop-color="#A5C2F9"/><stop offset="100%" stop-color="#2C5AAC"/></radialGradient><radialGradient id="J" cx="-14.644%" cy="6.13%" r="223.436%" fx="-14.644%" fy="6.13%" gradientTransform="matrix(.60061 0 0 1 -.058 0)"><stop offset="3.116%" stop-color="#A5C2F9"/><stop offset="49.73%" stop-color="#A5C2F9"/><stop offset="100%" stop-color="#2C5AAC"/></radialGradient><radialGradient id="K" cx="-14.344%" cy="4.627%" r="224.969%" fx="-14.344%" fy="4.627%" gradientTransform="matrix(.60143 0 0 1 -.057 0)"><stop offset="3.116%" stop-color="#A5C2F9"/><stop offset="49.73%" stop-color="#A5C2F9"/><stop offset="100%" stop-color="#2C5AAC"/></radialGradient><radialGradient id="L" cx="-16.071%" cy="6.078%" r="221.33%" fx="-16.071%" fy="6.078%" gradientTransform="matrix(.61552 0 0 1 -.062 0)"><stop offset="3.116%" stop-color="#A5C2F9"/><stop offset="49.73%" stop-color="#A5C2F9"/><stop offset="100%" stop-color="#2C5AAC"/></radialGradient><radialGradient id="M" cx="-16.137%" cy="6.595%" r="222.115%" fx="-16.137%" fy="6.595%" gradientTransform="matrix(.61334 0 0 1 -.062 0)"><stop offset="3.116%" stop-color="#A5C2F9"/><stop offset="49.73%" stop-color="#A5C2F9"/><stop offset="100%" stop-color="#2C5AAC"/></radialGradient><radialGradient id="N" cx="-15.708%" cy="7.183%" r="221.873%" fx="-15.708%" fy="7.183%" gradientTransform="matrix(.60781 0 0 1 -.062 0)"><stop offset="3.116%" stop-color="#A5C2F9"/><stop offset="49.73%" stop-color="#A5C2F9"/><stop offset="100%" stop-color="#2C5AAC"/></radialGradient><radialGradient id="O" cx="-14.875%" cy="7.438%" r="222.047%" fx="-14.875%" fy="7.438%" gradientTransform="matrix(.60733 0 0 1 -.058 0)"><stop offset="3.116%" stop-color="#A5C2F9"/><stop offset="49.73%" stop-color="#A5C2F9"/><stop offset="100%" stop-color="#2C5AAC"/></radialGradient><radialGradient id="P" cx="-15.599%" cy="6.271%" r="196.649%" fx="-15.599%" fy="6.271%" gradientTransform="matrix(.71305 0 0 1 -.045 0)"><stop offset="3.116%" stop-color="#A5C2F9"/><stop offset="49.73%" stop-color="#A5C2F9"/><stop offset="100%" stop-color="#2C5AAC"/></radialGradient><radialGradient id="Q" cx="-7.965%" cy="-12.116%" r="244.095%" fx="-7.965%" fy="-12.116%" gradientTransform="matrix(.53767 0 0 1 -.037 0)"><stop offset="3.116%" stop-color="#A5C2F9"/><stop offset="49.73%" stop-color="#A5C2F9"/><stop offset="100%" stop-color="#2C5AAC"/></radialGradient><radialGradient id="R" cx="-7.873%" cy="-13%" r="243.865%" fx="-7.873%" fy="-13%" gradientTransform="matrix(.53571 0 0 1 -.037 0)"><stop offset="3.116%" stop-color="#A5C2F9"/><stop offset="49.73%" stop-color="#A5C2F9"/><stop offset="100%" stop-color="#2C5AAC"/></radialGradient><radialGradient id="S" cx="-7.418%" cy="-12.349%" r="243.982%" fx="-7.418%" fy="-12.349%" gradientTransform="matrix(.53546 0 0 1 -.034 0)"><stop offset="3.116%" stop-color="#A5C2F9"/><stop offset="49.73%" stop-color="#A5C2F9"/><stop offset="100%" stop-color="#2C5AAC"/></radialGradient><radialGradient id="T" cx="107.964%" cy="-12.032%" r="244.923%" fx="107.964%" fy="-12.032%" gradientTransform="matrix(-.53479 0 0 -1 1.657 -.24)"><stop offset="0%" stop-color="#2C5AAC"/><stop offset="50.27%" stop-color="#A5C2F9"/><stop offset="96.88%" stop-color="#A5C2F9"/></radialGradient><linearGradient id="U" x1="-4.207%" x2="101.901%" y1="50.041%" y2="50.041%"><stop offset="0%" stop-color="#2260BB"/><stop offset="100%" stop-color="#3184F8"/></linearGradient><linearGradient id="V" x1="45.361%" x2="55.012%" y1="59.96%" y2="39.764%"><stop offset="0%" stop-color="#3184F8" stop-opacity="0"/><stop offset="100%" stop-color="#3184F8" stop-opacity=".4"/></linearGradient><linearGradient id="W" x1="49.689%" x2="49.689%" y1="139.363%" y2="37.047%"><stop offset="0%" stop-color="#3184F8" stop-opacity="0"/><stop offset="100%" stop-color="#3184F8" stop-opacity=".4"/></linearGradient><linearGradient id="X" x1="57.733%" x2="93.541%" y1="57.331%" y2="75.02%"><stop offset="0%" stop-color="#3289F8"/><stop offset="100%" stop-color="#1F5BAF"/></linearGradient><linearGradient id="Y" x1="54.035%" x2="76.321%" y1="50.081%" y2="49.212%"><stop offset="0%" stop-color="#D6E4FA"/><stop offset="34.81%" stop-color="#C9DBFA"/><stop offset="99.71%" stop-color="#A5C2F9"/><stop offset="100%" stop-color="#A5C2F9"/></linearGradient><linearGradient id="Z" x1="-10.899%" x2="115.577%" y1="13.767%" y2="100.237%"><stop offset="0%" stop-color="#3289F8"/><stop offset="100%" stop-color="#1F5BAF"/></linearGradient><linearGradient id="aa" x1="-26.398%" x2="51.45%" y1="76.805%" y2="49.397%"><stop offset="0%" stop-color="#1F5BAF"/><stop offset="100%" stop-color="#3289F8"/></linearGradient><linearGradient id="ab" x1="11.39%" x2="71.192%" y1="28.63%" y2="63.025%"><stop offset="0%" stop-color="#75A9FA"/><stop offset="100%" stop-color="#3289F8"/></linearGradient><linearGradient id="ac" x1="-4.293%" x2="101.695%" y1="96.488%" y2="5.649%"><stop offset="0%" stop-color="#3184F8"/><stop offset="100%" stop-color="#2260BB"/></linearGradient><linearGradient id="ad" x1="54.814%" x2="44.908%" y1="60.197%" y2="39.328%"><stop offset="0%" stop-color="#3184F8" stop-opacity="0"/><stop offset="100%" stop-color="#3184F8" stop-opacity=".4"/></linearGradient><linearGradient id="ae" x1="-4.32%" x2="101.787%" y1="50.007%" y2="50.007%"><stop offset="0%" stop-color="#2260BB"/><stop offset="100%" stop-color="#3184F8"/></linearGradient><linearGradient id="af" x1="45.247%" x2="54.898%" y1="59.907%" y2="39.711%"><stop offset="0%" stop-color="#3184F8" stop-opacity="0"/><stop offset="100%" stop-color="#3184F8" stop-opacity=".4"/></linearGradient><linearGradient id="ag" x1="49.578%" x2="49.578%" y1="139.44%" y2="37.123%"><stop offset="0%" stop-color="#3184F8" stop-opacity="0"/><stop offset="100%" stop-color="#3184F8" stop-opacity=".4"/></linearGradient><linearGradient id="ah" x1="57.452%" x2="91.547%" y1="57.588%" y2="75.88%"><stop offset="0%" stop-color="#75A9FA"/><stop offset="100%" stop-color="#3289F8"/></linearGradient><linearGradient id="ai" x1="-19.776%" x2="51.053%" y1="76.894%" y2="49.487%"><stop offset="0%" stop-color="#3289F8"/><stop offset="100%" stop-color="#75A9FA"/></linearGradient><linearGradient id="aj" x1="64.788%" x2="36.323%" y1="54.663%" y2="47.142%"><stop offset="0%" stop-color="#A5C2F9"/><stop offset="4.093%" stop-color="#ABC6F9"/><stop offset="28.37%" stop-color="#C7DAFA"/><stop offset="52.61%" stop-color="#DCE8FB"/><stop offset="76.59%" stop-color="#E8F0FB"/><stop offset="100%" stop-color="#ECF3FB"/></linearGradient><linearGradient id="ak" x1="65.77%" x2="48.485%" y1="70.744%" y2="44.624%"><stop offset="0%" stop-color="#1F5BAF"/><stop offset="100%" stop-color="#3289F8"/></linearGradient><linearGradient id="al" x1="107.212%" x2="-1.932%" y1="49.502%" y2="49.502%"><stop offset="0%" stop-color="#6EA9FF"/><stop offset="26.63%" stop-color="#88B8FF"/><stop offset="83.36%" stop-color="#CBDDFD"/><stop offset="100%" stop-color="#E0E9FD"/></linearGradient><linearGradient id="am" x1="-.073%" x2="99.742%" y1="49.72%" y2="49.72%"><stop offset="0%" stop-color="#4382F5" stop-opacity=".5"/><stop offset="83.24%" stop-color="#4382F5" stop-opacity="0"/></linearGradient><linearGradient id="an" x1=".373%" x2="100.187%" y1="49.88%" y2="49.88%"><stop offset="0%" stop-color="#4382F5" stop-opacity=".5"/><stop offset="83.24%" stop-color="#4382F5" stop-opacity="0"/></linearGradient><linearGradient id="ao" x1=".03%" x2="99.844%" y1="49.823%" y2="49.823%"><stop offset="0%" stop-color="#4382F5" stop-opacity=".5"/><stop offset="83.24%" stop-color="#4382F5" stop-opacity="0"/></linearGradient><linearGradient id="ap" x1=".286%" x2="100.101%" y1="49.923%" y2="49.923%"><stop offset="0%" stop-color="#4382F5" stop-opacity=".5"/><stop offset="83.24%" stop-color="#4382F5" stop-opacity="0"/></linearGradient><radialGradient id="aq" cx="49.968%" cy="49.939%" r="81.827%" fx="49.968%" fy="49.939%" gradientTransform="matrix(.59315 0 0 1 .203 0)"><stop offset="26.49%" stop-color="#4382F5" stop-opacity=".5"/><stop offset="78.92%" stop-color="#4382F5" stop-opacity="0"/></radialGradient><radialGradient id="ar" cx="50.028%" cy="49.95%" r="82.98%" fx="50.028%" fy="49.95%" gradientTransform="matrix(.57915 0 0 1 .21 0)"><stop offset="0%" stop-color="#355BAE" stop-opacity=".4"/><stop offset="100%" stop-color="#355BAE" stop-opacity="0"/></radialGradient><radialGradient id="as" cx="49.708%" cy="49.72%" r="82.591%" fx="49.708%" fy="49.72%" gradientTransform="matrix(.5826 0 0 1 .207 0)"><stop offset="62.7%" stop-color="#355BAE"/><stop offset="100%" stop-color="#355BAE" stop-opacity="0"/></radialGradient><linearGradient id="at" x1="36.885%" x2="88.638%" y1="69.71%" y2="-16.307%"><stop offset="0%" stop-color="#2260BB"/><stop offset="100%" stop-color="#3184F8"/></linearGradient><linearGradient id="au" x1="-.817%" x2="99.217%" y1="49.083%" y2="49.083%"><stop offset="0%" stop-color="#3184F8"/><stop offset="100%" stop-color="#2260BB"/></linearGradient><linearGradient id="av" x1="-.495%" x2="99.538%" y1="49.69%" y2="49.69%"><stop offset="0%" stop-color="#3184F8"/><stop offset="100%" stop-color="#2260BB"/></linearGradient><linearGradient id="aw" x1="-.312%" x2="99.721%" y1="49.107%" y2="49.107%"><stop offset="0%" stop-color="#3184F8"/><stop offset="100%" stop-color="#2260BB"/></linearGradient><linearGradient id="ax" x1="-.224%" x2="99.807%" y1="49.073%" y2="49.073%"><stop offset="0%" stop-color="#3184F8"/><stop offset="100%" stop-color="#2260BB"/></linearGradient><linearGradient id="ay" x1="80.966%" x2="19.925%" y1="51.101%" y2="49.984%"><stop offset="0%" stop-color="#2260BB"/><stop offset="100%" stop-color="#3184F8"/></linearGradient><linearGradient id="az" x1="53.253%" x2="15.004%" y1="45.149%" y2="130.478%"><stop offset="3.116%" stop-color="#A5C2F9"/><stop offset="100%" stop-color="#2C5AAC"/></linearGradient><linearGradient id="aA" x1="57.23%" x2="34.519%" y1="45.001%" y2="129.55%"><stop offset="2.575%" stop-color="#4485FB"/><stop offset="99.46%" stop-color="#2C5AAC"/></linearGradient><linearGradient id="aB" x1="61.003%" x2="38.246%" y1="86.311%" y2="16.026%"><stop offset="0%" stop-color="#2260BB"/><stop offset="100%" stop-color="#3184F8"/></linearGradient><linearGradient id="aC" x1="61.02%" x2="46.023%" y1="92.956%" y2="39.123%"><stop offset="0%" stop-color="#2260BB"/><stop offset="100%" stop-color="#3184F8"/></linearGradient><linearGradient id="aD" x1="34.371%" x2="46.545%" y1="-17.267%" y2="44.232%"><stop offset="0%" stop-color="#2260BB"/><stop offset="100%" stop-color="#3184F8"/></linearGradient><radialGradient id="aE" cx="40.585%" cy="36.805%" r="63.672%" fx="40.585%" fy="36.805%" gradientTransform="matrix(.92746 0 0 1 .03 0)"><stop offset="15.68%" stop-color="#FFF"/><stop offset="100%" stop-color="#86A5DA"/></radialGradient><radialGradient id="aF" cx="41.665%" cy="34.553%" r="80.404%" fx="41.665%" fy="34.553%" gradientTransform="matrix(.63017 0 0 1 .154 0)"><stop offset="15.68%" stop-color="#4485FB"/><stop offset="98.92%" stop-color="#3971D8"/></radialGradient><linearGradient id="aG" x1="43.546%" x2="55.98%" y1="95.02%" y2="43.901%"><stop offset="0%" stop-color="#3184F8"/><stop offset="100%" stop-color="#2260BB"/></linearGradient><linearGradient id="aH" x1="1.153%" x2="99.697%" y1="51.737%" y2="51.737%"><stop offset="0%" stop-color="#3184F8"/><stop offset="100%" stop-color="#2260BB"/></linearGradient><linearGradient id="aI" x1="1.582%" x2="100.124%" y1="51.663%" y2="51.663%"><stop offset="0%" stop-color="#3184F8"/><stop offset="100%" stop-color="#2260BB"/></linearGradient><linearGradient id="aJ" x1=".65%" x2="99.194%" y1="51.9%" y2="51.9%"><stop offset="0%" stop-color="#3184F8"/><stop offset="100%" stop-color="#2260BB"/></linearGradient><linearGradient id="aK" x1="1.238%" x2="100.185%" y1="49.739%" y2="49.739%"><stop offset="0%" stop-color="#3184F8"/><stop offset="100%" stop-color="#2260BB"/></linearGradient><linearGradient id="aL" x1="50.017%" x2="51.116%" y1="7.177%" y2="88.388%"><stop offset="0%" stop-color="#3184F8"/><stop offset="100%" stop-color="#2260BB"/></linearGradient><linearGradient id="aM" x1="17.878%" x2="74.869%" y1="71.545%" y2="18.667%"><stop offset="0%" stop-color="#2260BB"/><stop offset="100%" stop-color="#3184F8"/></linearGradient><linearGradient id="aN" x1=".029%" x2="100.062%" y1="49.973%" y2="49.973%"><stop offset="0%" stop-color="#3184F8"/><stop offset="100%" stop-color="#2260BB"/></linearGradient><linearGradient id="aO" x1=".69%" x2="100.724%" y1="49.283%" y2="49.283%"><stop offset="0%" stop-color="#3184F8"/><stop offset="100%" stop-color="#2260BB"/></linearGradient><linearGradient id="aP" x1=".876%" x2="100.907%" y1="48.697%" y2="48.697%"><stop offset="0%" stop-color="#3184F8"/><stop offset="100%" stop-color="#2260BB"/></linearGradient><linearGradient id="aQ" x1=".962%" x2="100.993%" y1="48.667%" y2="48.667%"><stop offset="0%" stop-color="#3184F8"/><stop offset="100%" stop-color="#2260BB"/></linearGradient><linearGradient id="aR" x1="70.045%" x2="30.525%" y1="58.25%" y2="42.642%"><stop offset="0%" stop-color="#2260BB"/><stop offset="100%" stop-color="#3184F8"/></linearGradient><linearGradient id="aS" x1="55.196%" x2="33.555%" y1="38.8%" y2="99.391%"><stop offset="0%" stop-color="#3184F8"/><stop offset="100%" stop-color="#2260BB"/></linearGradient><linearGradient id="aT" x1="54.98%" x2="28.824%" y1="9.601%" y2="88.67%"><stop offset="0%" stop-color="#3289F8"/><stop offset="100%" stop-color="#75A9FA"/></linearGradient><linearGradient id="aU" x1="49.773%" x2="51.907%" y1="32.529%" y2="84.737%"><stop offset="0%" stop-color="#3289F8"/><stop offset="100%" stop-color="#75A9FA"/></linearGradient><linearGradient id="aV" x1="61.775%" x2="48.87%" y1="177.777%" y2="44.525%"><stop offset="0%" stop-color="#3289F8"/><stop offset="100%" stop-color="#75A9FA"/></linearGradient><linearGradient id="aW" x1="69.792%" x2="37.236%" y1="59.61%" y2="19.358%"><stop offset="0%" stop-color="#3289F8"/><stop offset="100%" stop-color="#75A9FA"/></linearGradient><linearGradient id="aX" x1="38.15%" x2="84.215%" y1="11.083%" y2="86.799%"><stop offset="0%" stop-color="#3289F8"/><stop offset="100%" stop-color="#75A9FA"/></linearGradient><linearGradient id="aY" x1="41.898%" x2="56.468%" y1="100.973%" y2="58.145%"><stop offset="0%" stop-color="#3289F8"/><stop offset="100%" stop-color="#75A9FA"/></linearGradient><linearGradient id="aZ" x1="66.298%" x2="44.923%" y1="59.441%" y2="19.799%"><stop offset="0%" stop-color="#3289F8"/><stop offset="100%" stop-color="#75A9FA"/></linearGradient><linearGradient id="ba" x1="40.697%" x2="72.542%" y1="9.808%" y2="88.686%"><stop offset="0%" stop-color="#3289F8"/><stop offset="100%" stop-color="#75A9FA"/></linearGradient><linearGradient id="bb" x1="41.3%" x2="54.173%" y1="117.521%" y2="61.712%"><stop offset="0%" stop-color="#3289F8"/><stop offset="100%" stop-color="#75A9FA"/></linearGradient><linearGradient id="bc" x1="64.106%" x2="30.885%" y1="59.42%" y2="17.815%"><stop offset="0%" stop-color="#3289F8"/><stop offset="100%" stop-color="#75A9FA"/></linearGradient><linearGradient id="bd" x1="19.984%" x2="80.876%" y1="53.959%" y2="46.168%"><stop offset="0%" stop-color="#3184F8"/><stop offset="100%" stop-color="#2260BB"/></linearGradient><linearGradient id="be" x1="54.348%" x2="92.782%" y1="31.611%" y2="82.333%"><stop offset="0%" stop-color="#3289F8"/><stop offset="100%" stop-color="#75A9FA"/></linearGradient><linearGradient id="bf" x1="63.721%" x2="42.548%" y1="135.58%" y2="47.508%"><stop offset="0%" stop-color="#3289F8"/><stop offset="100%" stop-color="#75A9FA"/></linearGradient><linearGradient id="bg" x1="76.116%" x2="56.756%" y1="97.585%" y2="41.917%"><stop offset="84.98%" stop-color="#3184F8" stop-opacity="0"/><stop offset="98.92%" stop-color="#3184F8" stop-opacity=".6"/></linearGradient><linearGradient id="bh" x1="48.218%" x2="51.633%" y1="45.189%" y2="54.711%"><stop offset="13.24%" stop-color="#CCDAF8"/><stop offset="81.89%" stop-color="#B3C8F4"/></linearGradient><linearGradient id="bi" x1="48.29%" x2="51.706%" y1="45.333%" y2="54.849%"><stop offset="13.24%" stop-color="#CCDAF8"/><stop offset="81.89%" stop-color="#B3C8F4"/></linearGradient><linearGradient id="bj" x1="48.182%" x2="51.598%" y1="45.244%" y2="54.766%"><stop offset="13.24%" stop-color="#CCDAF8"/><stop offset="81.89%" stop-color="#B3C8F4"/></linearGradient><linearGradient id="bk" x1="48.255%" x2="51.671%" y1="45.382%" y2="54.897%"><stop offset="13.24%" stop-color="#CCDAF8"/><stop offset="81.89%" stop-color="#B3C8F4"/></linearGradient><linearGradient id="bl" x1="48.345%" x2="51.761%" y1="45.351%" y2="54.867%"><stop offset="13.24%" stop-color="#CCDAF8"/><stop offset="81.89%" stop-color="#B3C8F4"/></linearGradient><linearGradient id="bm" x1="48.255%" x2="51.671%" y1="45.315%" y2="54.831%"><stop offset="13.78%" stop-color="#EDF4FB"/><stop offset="81.89%" stop-color="#B3C8F4"/></linearGradient><linearGradient id="bn" x1="48.255%" x2="51.671%" y1="45.315%" y2="54.831%"><stop offset="13.24%" stop-color="#CCDAF8"/><stop offset="81.89%" stop-color="#B3C8F4"/></linearGradient><linearGradient id="bo" x1="40.023%" x2="55.613%" y1="-12.07%" y2="81.119%"><stop offset="0%" stop-color="#3D78E5" stop-opacity=".9"/><stop offset="100%" stop-color="#3D78E5" stop-opacity="0"/></linearGradient><linearGradient id="bp" x1="46.87%" x2="51.896%" y1="55.036%" y2="80.301%"><stop offset="0%" stop-color="#3D78E5" stop-opacity=".9"/><stop offset="100%" stop-color="#3D78E5" stop-opacity="0"/></linearGradient><linearGradient id="bq" x1="27.831%" x2="91.496%" y1="33.343%" y2="77.298%"><stop offset="0%" stop-color="#3D78E5" stop-opacity=".9"/><stop offset="100%" stop-color="#3D78E5" stop-opacity="0"/></linearGradient><linearGradient id="br" x1="45.266%" x2="50.353%" y1="1.637%" y2="79.603%"><stop offset="0%" stop-color="#3289F8"/><stop offset="100%" stop-color="#75A9FA"/></linearGradient><linearGradient id="bs" x1="56.937%" x2="35.172%" y1="85.766%" y2="-2.469%"><stop offset="0%" stop-color="#A5C2F9"/><stop offset="4.093%" stop-color="#ABC6F9"/><stop offset="28.37%" stop-color="#C7DAFA"/><stop offset="52.61%" stop-color="#DCE8FB"/><stop offset="76.59%" stop-color="#E8F0FB"/><stop offset="100%" stop-color="#ECF3FB"/></linearGradient><linearGradient id="bt" x1="23.702%" x2="80.001%" y1="21.284%" y2="82.058%"><stop offset="0%" stop-color="#3289F8"/><stop offset="100%" stop-color="#75A9FA"/></linearGradient><linearGradient id="bu" x1="28.569%" x2="61.323%" y1="29.178%" y2="61.228%"><stop offset="0%" stop-color="#75A9FA"/><stop offset="100%" stop-color="#3289F8"/></linearGradient><linearGradient id="bv" x1="22.523%" x2="54.62%" y1="6.675%" y2="67.417%"><stop offset="0%" stop-color="#1F5BAF"/><stop offset="100%" stop-color="#3289F8"/></linearGradient><linearGradient id="bw" x1="40.31%" x2="52.446%" y1="79.005%" y2="45.626%"><stop offset="0%" stop-color="#A5C2F9"/><stop offset="4.093%" stop-color="#ABC6F9"/><stop offset="28.37%" stop-color="#C7DAFA"/><stop offset="52.61%" stop-color="#DCE8FB"/><stop offset="76.59%" stop-color="#E8F0FB"/><stop offset="100%" stop-color="#ECF3FB"/></linearGradient><linearGradient id="bx" x1="69.915%" x2="43.886%" y1="73.828%" y2="56.671%"><stop offset="0%" stop-color="#1F4A8A"/><stop offset="100%" stop-color="#1F5BAF"/></linearGradient><linearGradient id="by" x1="68.91%" x2="47.411%" y1="69.94%" y2="46.431%"><stop offset="0%" stop-color="#1F4A8A"/><stop offset="100%" stop-color="#1F5BAF"/></linearGradient><linearGradient id="bz" x1="116.448%" x2="48.308%" y1="62.223%" y2="50.143%"><stop offset="0%" stop-color="#1F5BAF"/><stop offset="100%" stop-color="#3289F8"/></linearGradient><linearGradient id="bA" x1="89.418%" x2="36.679%" y1="56.065%" y2="48.639%"><stop offset="0%" stop-color="#1F5BAF"/><stop offset="100%" stop-color="#3289F8"/></linearGradient><linearGradient id="bB" x1="22.772%" x2="84.102%" y1="59.879%" y2="41.328%"><stop offset="0%" stop-color="#1F4A8A"/><stop offset="100%" stop-color="#1F5BAF"/></linearGradient><linearGradient id="bC" x1="1.676%" x2="115.551%" y1="58.69%" y2="36.651%"><stop offset="0%" stop-color="#3289F8"/><stop offset="100%" stop-color="#75A9FA"/></linearGradient></defs><g fill="none" fill-rule="evenodd"><path fill="url(#a)" d="M106.2 228.2c.9.5 1.5 1.3 1.5 2.1 0 1.6-2.3 3-5.1 2.9H75.4c-1.4 0-2.7-.3-3.6-.9-.9-.6-1.5-1.3-1.5-2.1 0-1.6 2.3-3 5.1-3h27.2c1.4.1 2.7.5 3.6 1z" transform="translate(0 53)"/><path fill="url(#b)" d="M365.7 54.4c.6.4 1 .9 1 1.4 0 1.1-1.6 2-3.5 2h-18.9c-1 0-1.9-.2-2.5-.6-.6-.4-1-.9-1-1.4 0-1.1 1.6-2 3.5-2h18.9c1 0 1.8.2 2.5.6z" transform="translate(0 53)"/><path fill="url(#c)" d="M72 82.1c.6.4 1 .9 1 1.4 0 1.1-1.6 2-3.5 2H50.6c-1 0-1.9-.2-2.5-.6-.6-.4-1-.9-1-1.4 0-1.1 1.6-2 3.5-2h18.9c1 0 1.9.3 2.5.6z" transform="translate(0 53)"/><path fill="url(#d)" d="M114.5 235.6c.6.4 1 .9 1 1.4 0 1.1-1.6 2-3.5 2H93.1c-1 0-1.9-.2-2.5-.6-.6-.4-1-.9-1-1.4 0-1.1 1.6-2 3.5-2H112c1 0 1.9.3 2.5.6z" transform="translate(0 53)"/><path fill="url(#e)" d="M352.4 49.9c.6.4 1 .9 1 1.4 0 1.1-1.6 2-3.5 2H331c-1 0-1.9-.2-2.5-.6-.6-.4-1-.9-1-1.4 0-1.1 1.6-2 3.5-2h18.9c1 0 1.9.2 2.5.6z" transform="translate(0 53)"/><path fill="url(#f)" d="M207.2 35.3l-183 106c-6.7 3.9-6.6 10.2.1 14.1l166.5 96.1c3.6 2.1 8.3 3 13 2.9 4.1-.1 5.1 0 9.3 0 4.5.1 9.1-.9 12.5-2.9l183-106c6.7-3.9 6.6-10.2-.1-14.1L242.1 35.3c-6.7-3.9-14.1-3.9-20.8 0h-14.1z" transform="translate(0 53)"/><path fill="url(#g)" d="M1 128.6v10c0 2.6 1.7 5.1 5.1 7.1l181.6 104.9c6.7 3.9 17.6 3.9 24.3 0l182-105.4c3.3-1.9 5-4.5 5-7v-10l-398 .4z" transform="translate(0 53)"/><path fill="#FFF" d="M393.9 175.3c6.7 3.9 6.8 10.2.1 14.1L212 294.8c-6.7 3.9-17.6 3.9-24.3 0L6.1 189.9C-.7 186-.7 179.7 6 175.8L188 70.5c6.7-3.9 17.6-3.9 24.3 0l181.6 104.8z"/><path fill="url(#h)" d="M393.9 121.1c6.7 3.9 6.8 10.2.1 14.1L212 240.6c-6.7 3.9-17.6 3.9-24.3 0L6.1 135.7c-6.7-3.9-6.8-10.2-.1-14.1L188 16.2c6.7-3.9 17.6-3.9 24.3 0l181.6 104.9z" transform="translate(0 53)"/><path fill="url(#i)" d="M276.2 75.1c9.8 5.6 14.1 14.4 14.1 16.5 0 6.8-5 13.6-13.9 18.8-7.7 4.5-10.8 10.6-9.4 16.5 1 3.9 4.1 11.7 9.3 14.8l2.4 1.4c10.2 5.9 14.7 7.8 14.5 13.6-.2 6.8-6.5 13.4-17.3 19.6l-53.7 31.2c-14.7 8.6-38.7 8.6-53.5 0L58.3 143.7c-7.1-4.1-10.8-9.4-11.1-14.7-.4-5.9 3.3-7.8 11-12.3l117.9-68.5c14.7-8.6 38.7-8.6 53.5 0l46.6 26.9z" transform="translate(0 53)"/><path fill="url(#j)" d="M220.6 91.5c1.4 3.3 4.3 6.5 8.7 9.1l2.4 1.4c12.7 7.3 16.5 14.7 13.6 21.9-1.8-4.3-6.2-8.6-13.6-12.9l-2.4-1.4c-6.3-3.7-9.6-8.5-9.6-13.3v-8.7s.2 1.8.9 3.9z" transform="translate(47 90)"/><path fill="url(#k)" d="M11.1 84.7L129 16.2c14.7-8.6 38.7-8.6 53.5 0l46.6 26.9c7.4 4.3 11.9 9.6 13.5 15.2 2.4-8.5-2.1-17.6-13.5-24.2L182.5 7.2c-14.8-8.6-38.8-8.6-53.5 0L11.1 75.7C1.8 81.1-1.6 88.7.9 95.6c1.5-4 4.9-7.8 10.2-10.9z" transform="translate(47 90)"/><g transform="translate(45 53)"><path fill="url(#l)" d="M6.5 2.8c.3-.7 1.6-1.9 3.3-1.5 1.8.3.6 1.4-.1 1.8-.8.4-1.7 1.8-2.6 1.3-.8-.5-.6-1.6-.6-1.6z"/><path fill="url(#m)" d="M1.3 5.4c1.5-.9 4.5-2.6 5.3-2.8.4-.1 1.8 2 .6 3-1.2 1-2.9 2.3-3.9 3-1 .7-3.3-2.1-2-3.2z"/><path fill="url(#n)" d="M53.9 57.3c1.3.7 2.1 1.8 2.1 2.9 0 2.3-3.2 4.1-7.1 4.1H10.7c-2 0-3.7-.5-5-1.2-1.3-.7-2.1-1.8-2.1-2.9 0-2.3 3.2-4.1 7.1-4.1h38.2c1.9 0 3.7.5 5 1.2z"/><path fill="url(#o)" d="M8.6 48.4c-.6-.2-.2-2.4.4-2.5.7-.1 1.4.1 2.2.6.9.5 2.9 1.2 3.4 1.7s-.4.8-1.3.7c-.8-.1-3-.1-4.7-.5z" transform="translate(5 10)"/><path fill="url(#p)" d="M9.5 16.6c1.7.3 1.5 3.4.5 4.2-1 .8-.5-4.2-.5-4.2z" transform="translate(5 10)"/><path fill="url(#q)" d="M13.4 6.8c-.3-1.3-.6-2.6-1.8-4.6-2.1-3.3-4.1-.6-3.7.8.3 1.1 2.6 4 3.1 5.2 0 .1.1.1.1.2-.1.1-.1.2-.2.3-.4 1-.9 6.2-1.5 8.4-.3 1.2.2 1.9 1.3 1.9 1.5-1.4 2.5-7.7 2.7-9.2.2-.9.1-2.5 0-3z" transform="translate(5 10)"/><path fill="url(#r)" d="M10.5 46.4s1.7-11.3 1.8-12.4c.2-2.3-.5-3.3-1.5-3.3-.9 0-1.7 1.5-1.8 2.9 0 1.4-.5 11.1-.2 12.7.1.9 1.5.6 1.7.1z" transform="translate(5 10)"/><path fill="url(#s)" d="M1.1 52c-.4-.4-.2-2.4.4-2.3.6.1 1.3.4 2 1s2.4 2.2 2.7 2.8c.3.6-1 .8-1.8.5-.8-.3-2.4-1.3-3.3-2z" transform="translate(5 10)"/><path fill="url(#t)" d="M2.8 50.4S4.5 39.1 4.6 38c.2-2.3-.5-3.3-1.5-3.3-.9 0-1.7 1.5-1.8 2.9C1.2 39 .7 48.8 1 50.3c.3.9 1.6.7 1.8.1z" transform="translate(5 10)"/><path fill="url(#u)" d="M5.5 22.2s2.9 8.5 3.1 9.7c.2 1.2-.5 11.6-.3 13.8 0 0 4.1 0 4.1-.6 0 0 .2-11.2.4-13 .1-1.8-1.4-10.8-1.8-12.7-.6-2.2-5.4 2.8-5.5 2.8z" transform="translate(5 10)"/><path fill="url(#v)" d="M.9 22.2c0 2.9.2 10.2.5 14.2 0 0-.7 11.9-.5 13.7 0 0 3.6.2 4.2-.5 0 0 .7-11.6.8-13.4.1-1.8.5-11.2.5-11.2s.6-1.5 1.1-3.2c.4-1.8-6.6.4-6.6.4z" transform="translate(5 10)"/><path fill="url(#w)" d="M10.1 19.7c0-3.4 1-6.6 1.3-11.5.3-4.9-.3-7.2-2.1-7.9-1.8-.7-6.8.9-8.4 2.9-1.6 2 .4 5.4.5 8 .1 2.6-1 8.5-.5 11.1l6.3-.5 2.9-2.1z" transform="translate(5 10)"/><path fill="url(#x)" d="M11.5 13.4c.8-.1.8-1.3.8-1.3s.2 1 1 .9l-.4.7 2.8 5-2.1 2.5-1.7-1.1.6-6.3-1-.4z"/><path fill="url(#y)" d="M5.2 23.6c.3-5.4.3-9.9 1.3-11.1 1-1.2 3.4-2 3.4-2l-.1.5c-.6 1.7 4 9 4 9s.7-6.8-1.1-9.4l.2-.7s1.5.1 2.2.7c.7.7 1.7 1.5 1.5 5.4-.1 2.2-.9 10.3-.9 11.4 0 1.1.8 5.6.8 5.6s-.1.3-.5.4c-2.5.9-3-1.8-3-1.8s-.9 3.1-2.7 3.7c-2.8.9-5.4-1.2-5.4-1.2l.3-10.5z"/><ellipse cx="13.8" cy="23.7" fill="url(#z)" rx="1" ry="1"/><ellipse cx="13.6" cy="27.3" fill="url(#A)" rx="1" ry="1"/><path fill="url(#B)" d="M9.9 11c-.1-.2-.1-1.3-.2-1.5-.4-1-1-2.3-1.1-4.8-.1-2.6 1.9-3.5 3.3-3.5 1.9 0 3.3 1.5 3.2 3.7-.1 1.9-.1 3.8-1 4.2-1.8.8-.8 2-1.6 2.4-.6.4-2.3.4-2.6-.5z"/><path fill="url(#C)" d="M15.9 2.4C15.6 1.1 13 .2 11.1.7c-1.9.6-1.7 1.2-1.7 1.2C8 2.4 8 3.6 8.3 5.5c.4 2 .6 3.8 1.2 3.8s.3-1.8.2-2.6c-.2-1.1.4-1.3.6-.9.2.3.4.6.6.6.7 0 0-1.6.8-2 .4-.2 1.2.1 1.9.1 1.6 0 2.6-.7 2.3-2.1z"/><path fill="#284B8C" d="M9.9 10.5v.3s-.3.5.1 1.5c.3 1 2.8 6 3.9 7.6 0 0-2.8-2.5-3.6-3.3-.6-.6-1.6-1.9-1.6-1.9l1.2-.9-1.2-.3c-.1.1.2-2.5 1.2-3z"/><path fill="#284B8C" d="M13.9 20s.3-3.2 0-5.7c-.3-2.4-1-3.5-1-3.5l.1-.4 2.1 1.7-.8.9 1.2.4c.1-.1-.5 3.9-1.6 6.6z"/><path fill="url(#D)" d="M5.4 16.8C3.6 14.1.6 7.9.7 6.6c.1-1.3.8-1.5 1.6-1.4.8.1 1.5.6 2.1 1.9.6 1.3 3 4.5 3.3 5.8.4 3-1 6-2.3 3.9z"/></g><path fill="url(#E)" d="M93.7 121.2c0 1.4-2 2.5-4.4 2.5-2.4 0-4.4-1.1-4.4-2.5s1.8-2.2 4.3-2.7c2.4-.5 4.5 1.3 4.5 2.7z" transform="translate(0 53)"/><path fill="url(#F)" d="M59.1 227.9c0 2.5-3.4 4.5-7.7 4.5-4.3 0-7.7-2-7.7-4.5s3.2-3.8 7.5-4.8c4.2-.9 7.9 2.3 7.9 4.8z" transform="translate(0 53)"/><path fill="url(#G)" d="M58.2 250c0 1.4-2 2.5-4.4 2.5-2.4 0-4.4-1.1-4.4-2.5s1.8-2.2 4.3-2.7c2.3-.6 4.5 1.3 4.5 2.7z" transform="translate(0 53)"/><path fill="url(#H)" d="M38.5 62.2c0 2.7-3.7 4.9-8.4 4.9s-8.4-2.2-8.4-4.9 3.5-4.2 8.2-5.2c4.5-1 8.6 2.6 8.6 5.2z" transform="translate(0 53)"/><path fill="url(#I)" d="M218.6 70.9c0 1.4-2 2.5-4.4 2.5-2.4 0-4.4-1.1-4.4-2.5s1.8-2.2 4.3-2.7c2.3-.5 4.5 1.3 4.5 2.7z" transform="translate(0 53)"/><path fill="url(#J)" d="M88.4 47.6c0 1.4-2 2.5-4.4 2.5-2.4 0-4.4-1.1-4.4-2.5s1.8-2.2 4.3-2.7c2.4-.5 4.5 1.3 4.5 2.7z" transform="translate(0 53)"/><path fill="url(#K)" d="M225.9 63.1c0 .6-.8 1-1.8 1s-1.8-.5-1.8-1 .8-.9 1.8-1.1c1-.3 1.8.5 1.8 1.1z" transform="translate(0 53)"/><path fill="url(#L)" d="M391 92.7c0 2.3-3.2 4.2-7.2 4.2s-7.2-1.9-7.2-4.2c0-2.3 3.1-3.6 7.1-4.5 3.8-.9 7.3 2.1 7.3 4.5z" transform="translate(0 53)"/><path fill="url(#M)" d="M301.2 177.5c0 2.3-3.2 4.2-7.2 4.2s-7.2-1.9-7.2-4.2c0-2.3 3.1-3.6 7.1-4.5 3.8-.8 7.3 2.2 7.3 4.5z" transform="translate(0 53)"/><path fill="url(#N)" d="M357.5 69.5c0 1-1.3 1.7-3 1.7-1.6 0-3-.8-3-1.7 0-1 1.3-1.5 2.9-1.9 1.6-.3 3.1.9 3.1 1.9z" transform="translate(0 53)"/><path fill="url(#O)" d="M285.2 190.4c0 1-1.3 1.7-3 1.7-1.6 0-3-.8-3-1.7 0-1 1.3-1.5 2.9-1.9 1.7-.3 3.1 1 3.1 1.9z" transform="translate(0 53)"/><path fill="url(#P)" d="M84.7 130.8c0 2.9-4.1 5.3-9.1 5.3s-9.1-2.4-9.1-5.3 4.6-9.5 9.1-7.2c5.6 2.9 9.1 4.3 9.1 7.2z" transform="translate(0 53)"/><path fill="url(#Q)" d="M209.5 58.2c1 2-2.6 4.2-6.2 3.2s-7.4-1-7.4-3.2 3.5-3.2 7.1-3.9c2.3-.3 4.8.6 6.5 3.9z" transform="translate(0 53)"/><path fill="url(#R)" d="M85.3 244.8c1.3 2.6-3.5 5.6-8.4 4.3-4.8-1.4-9.9-1.3-9.9-4.3s4.7-4.3 9.6-5.2c3-.5 6.4.7 8.7 5.2z" transform="translate(0 53)"/><path fill="url(#S)" d="M395.1 69.3c1.3 2.6-3.5 5.6-8.4 4.3-4.8-1.4-9.9-1.3-9.9-4.3 0-2.9 4.7-4.3 9.6-5.2 3.1-.5 6.5.8 8.7 5.2z" transform="translate(0 53)"/><path fill="url(#T)" d="M196.4 201.9c-1 2 2.6 4.2 6.2 3.2s7.4-1 7.4-3.2-2.8-4.1-7.1-3.9c-2.4.2-4.8.6-6.5 3.9z" transform="translate(0 53)"/><path fill="url(#U)" d="M48 49.4V24c0-1.3-.9-2.8-2-3.5L11.8.7c-1.1-.6-2-.1-2 1.1l-.1 25.4L48 49.4z" transform="translate(167 184)"/><path fill="url(#V)" d="M9.8 28.1l-.1 9.6L48 59.8v-9.6z" transform="translate(167 184)"/><path fill="#E0E9FD" d="M197.1 214.4v4.5l2.7 1.6V216z"/><path fill="#6EA9FF" d="M197.1 210.8v3.6l2.7 1.6v-3.6z"/><path fill="#E0E9FD" d="M193.1 213.5l-.1 3.1 2.8 1.6V215z"/><path fill="#6EA9FF" d="M193.1 200.7l-.1 12.8 2.8 1.6v-12.8z"/><path fill="#E0E9FD" d="M189 208.3l-.1 5.9 2.8 1.6v-5.9z"/><path fill="#6EA9FF" d="M189 203.9v4.4l2.7 1.6.1-4.4zm-9.8 3.4v1.4l5.5 3.1v-1.4zm24.9 2.6v1.4l5.4 3.1V213zm0 11.4v1.4l5.4 3.1v-1.4zm-.1-15v1.4l7.6 4.4v-1.4z"/><path fill="url(#W)" d="M.6 57c.4 2.9 1.8 4.3 3 5.1 0 0 .3 3.4 3.4 3.5 2.5.1 3.4-3 3.4-3s3-.7 3.3-3.9c0 0-1.2 1.5-3.9.1 0 0-3.2 1.4-6.4.3C.7 58.1.6 57 .6 57z" transform="translate(167 184)"/><path fill="url(#X)" d="M11.2 45c-1.4-1.7-6.3-3.3-7.4-2.7h-.3C1.7 42.8.9 51.7.7 55.1c-.1 1.7 2.1 3.5 5.3 3.5 3.8 0 5-1.2 5-1.2s1.7-10.6.2-12.4" transform="translate(167 184)"/><path fill="url(#Y)" d="M9.6 35.6c1.1 1.4.9 5 .2 5.7-.5.5-1.1.4-1.7.6-.5.2-.3.7-.5 1.1-.5 1.4-3 .7-3.2-.3-.2-.8-.9-6.1.3-7 1.2-.9 4.2-1 4.9-.1z" transform="translate(167 184)"/><path fill="url(#Z)" d="M7.7 43.1c-.7.7-2.8.1-3.4-.7 0 0-.1.1-.1.5s.7 1 1.6 1.2c.9.2 2.4-.1 2.2-.6-.2-.4-.3-.4-.3-.4z" transform="translate(167 184)"/><path fill="url(#aa)" d="M9.6 57.6c-.2-.6-.3-.9-.4-1.4-.4-1.5-.6-9.3-.6-9.9 0-1.4.8-2.4 2.1-1.7 1.2.7 1.3 7.8 2.3 10.4.3.9.6 1.7.8 2.5.2.6-.5 1.3-1.7 1.3s-2.3-.5-2.5-1.2z" transform="translate(167 184)"/><path fill="url(#ab)" d="M6 32.3c1.3-.5 5-.4 5.2 2.5.1 1.5-.8 1.9-1.6 2.6-.4.3-.5 1-.8 1.3-.3.2-.3-.7-.8-.4-1 .6.2 2.5-2.2 2.8-.5.1-1.3.1-1.8-.5-1.4-1.9-1.9-6.5.6-7 0 0 0-.8 1.4-1.3z" transform="translate(167 184)"/><path fill="url(#ac)" d="M65 50.2l.2-46.3C65.2.7 63-.5 60.3 1L6 32c-2.7 1.6-5 5.4-5 8.5L.8 86.8 65 50.2z" transform="translate(109 85)"/><path fill="#E0E9FD" d="M123.3 128.3v1.4l-5.6 3.2v-1.4zm2.2-5v1.5l-7.8 4.5v-1.5zm43.3 1.7v1.5l-18.5 10.7v-1.5zm-8.9 8.8v1.5l-9.6 5.5v-1.4zm8.9-12.4v1.5l-18.5 10.7v-1.5z"/><path fill="#6EA9FF" d="M121.2 148v9.5l-3.5 2.1-.1-9.5zm5.3-8.2v14.7l-3.6 2v-14.6zm5.3 5.6v6l-3.6 2.1v-6.1z"/><path fill="#E0E9FD" d="M137 127.1l.1 21.3-3.6 2v-21.3z"/><path fill="#6EA9FF" d="M142.3 128.5l.1 16.8-3.6 2.1-.1-16.9zm17.2-24.1v8.8l6.8-8.2c.6.9 1 2.2 1 3.8 0 5-3.5 11-7.8 13.5s-7.8.5-7.8-4.5c0-4.9 3.5-10.9 7.8-13.4z"/><path fill="#E0E9FD" d="M160.6 101.5c2.9-1.7 5.5-1.3 6.8.6l-6.8 8.2v-8.8z"/><path fill="url(#ad)" d="M65 51.2l.1 16.1L1 103.9V87.8z" transform="translate(109 85)"/><path fill="url(#ae)" d="M167.7 153l.1-25.4c0-1.3-.9-2.8-2-3.5l-34.2-19.8c-1.1-.6-2-.1-2 1.1l-.1 25.4 38.2 22.2z" transform="translate(0 53)"/><path fill="url(#af)" d="M129.5 131.7v9.6l38.3 22.1v-9.6z" transform="translate(0 53)"/><path fill="url(#ag)" d="M121.1 160.9c.4 2.9 1.8 4.3 3 5.1 0 0 .3 3.4 3.4 3.5 2.5.1 3.4-3 3.4-3s3-.7 3.3-3.9c0 0-1.2 1.5-3.9.1 0 0-3.2 1.4-6.4.3-2.7-1-2.8-2.1-2.8-2.1z" transform="translate(0 53)"/><path fill="url(#ah)" d="M131.5 150.3c-1.4-1.7-6.3-3.3-7.4-2.7h-.3c-1.8.5-2.6 8.1-2.8 11.5-.1 1.7 2.1 3.5 5.3 3.5 3.8 0 5-1.2 5-1.2s1.7-9.3.2-11.1" transform="translate(0 53)"/><path fill="url(#ai)" d="M129.9 161.6c-.2-.6-.3-.9-.4-1.4-.4-1.5-.6-8-.6-8.6 0-1.4.8-2.4 2.1-1.7 1.2.7 1.3 6.5 2.3 9.1.3.9.6 1.7.8 2.5.2.6-.5 1.3-1.7 1.3s-2.3-.5-2.5-1.2z" transform="translate(0 53)"/><path fill="url(#aj)" d="M130.5 140.9c1 1.4.5 5.1-.2 5.7-.5.5-1.1.3-1.8.5-.5.1-.4 1.1-.6 1.5-.8.6-3 .1-3.2-.9-.1-.8-.5-6.1.9-7 1.4-.9 4.2-.8 4.9.2z" transform="translate(0 53)"/><path fill="url(#ak)" d="M132.1 140.5c.1-.3 0-.6-.2-.9.1-.1.1-.2.2-.4.1-.5-.2-1.1-.8-1.2h-.2c-.1-.3-.4-.6-.7-.7-.2-.1-.5 0-.7.1h-.1c-.1-.2-.3-.4-.6-.4-.3-.1-.7 0-.9.3-.1-.1-.3-.3-.5-.3-.4-.1-.8.1-1.1.4h-.1c-.5-.1-1.1.2-1.2.8v.2l-.1-.1c-.5-.1-1.1.2-1.2.8v.4c-.3.1-.5.4-.6.7-.1.2 0 .5.1.7-.2.1-.3.3-.4.6-.1.4.1.7.3.9v.1c-.1.1-.2.3-.2.4-.1.4.1.9.5 1.1v.1c-.1.1-.2.2-.2.4-.1.5.2 1.1.8 1.2h.1l.1.1c.1.3.4.6.7.6.3.1.6 0 .8-.2.1 0 .2.1.2.1.5.1.9-.1 1.1-.6.1-.1.1-.2.2-.2.2-.1.3-.3.4-.6 0-.2 0-.4-.1-.6.1-.4.2-.7.5-.9.5-.3.5.6.8.4.3-.2.5-.8.8-1.2.4 0 .7-.3.9-.6.4-.1.7-.4.8-.7v-.2c.4-.2.6-.4.6-.6z" transform="translate(0 53)"/><path d="M139 185.6v-1.4l-5.5-3.2v1.5zm0-11.5v-1.4l-5.5-3.1v1.4zm2.1-2.3v-1.4l-7.6-4.4v1.4z" fill="#6EA9FF"/><path fill="url(#al)" d="M141.4 134l22 12.3v-16.9c-.5.5-1.1.8-1.8.8s-1.5-.2-2.4-.4c-1.7-.5-3.4-1.1-4.8-.7-1.2.4-1.8.9-2.5 1.4-.6.5-1.3.9-2.5.9-.8 0-1.8-.2-3.3-.6-2.3-.8-4 1-4.7 3.2z" transform="translate(0 53)"/><g transform="translate(286 138)"><path fill="url(#am)" d="M47.3 56.5c3.6 2.1 3.6 5.4 0 7.5-3.6 2.1-9.3 2.1-12.9 0-3.6-2.1-3.6-5.4 0-7.5 3.5-2.1 9.3-2.1 12.9 0z"/><path fill="url(#an)" d="M25 42.7c3.6 2.1 3.6 5.4 0 7.5-3.6 2.1-9.3 2.1-12.9 0-3.6-2.1-3.6-5.4 0-7.5 3.6-2 9.4-2 12.9 0z"/><path fill="url(#ao)" d="M32.3 36.9c3.6 2.1 3.6 5.4 0 7.5-3.6 2.1-9.3 2.1-12.9 0-3.6-2.1-3.6-5.4 0-7.5 3.5-2.1 9.3-2.1 12.9 0z"/><path fill="url(#ap)" d="M72.2 50.8c3.6 2.1 3.6 5.4 0 7.5-3.6 2.1-9.3 2.1-12.9 0-3.6-2.1-3.6-5.4 0-7.5 3.6-2 9.3-2 12.9 0z"/><ellipse cx="46.7" cy="43.7" fill="url(#aq)" rx="46.7" ry="27.7"/><path fill="url(#ar)" d="M68.9 29.5c11.5 6.6 11.6 17.4.1 24.1-11.4 6.6-30 6.6-41.5 0s-11.6-17.4-.1-24c11.4-6.7 30-6.8 41.5-.1z"/><path fill="url(#as)" d="M66 33.7c4.6 2.7 4.7 7 .1 9.7-4.6 2.7-12.1 2.7-16.7 0s-4.7-7-.1-9.7c4.6-2.7 12-2.7 16.7 0z"/><g transform="translate(4)"><path fill="#355BAE" d="M17.4 36.1c-1 .6-3.6 1.2-3.6 1.2l.9 1s1.5-.2 2.6-.6c.7-.3 1.6-.8.3.6S15 40.2 15 40.2s1 1.1 1.8 1c.8-.1 2.5-2.4 2.9-2.8.4-.4.8-.3.6.3-.2.6-2.2 3.9-2.2 3.9s2.3.9 2.2.4c-.1-.5 1.9-3.4 2.4-4.2.5-.8 1.1-1 1-.3-.1.7-.8 1.4-.2 2.3.2.2 2-.1 2-.4 0-.3-.1-1.4.7-2.9.7-1.4 1.5-3.8 1.7-5 .2-1.2-1.1-2.2-3-2.1-2 .1-2.5.8-2.9 1.5-.5.6-1.2 1.2-1.9 2.1-.9 1-1.7 1.5-2.7 2.1z"/><path fill="#355BAE" d="M15.8 38.3c-.3.4-1.3.6-2.2.5-.9-.2-1.4-.6-1.1-1.1.3-.4 1.6-.9 2.5-.7.9.1 1.1.9.8 1.3zm4.6 5.1c-.3.4-1.3.6-2.2.5-.9-.1-1.4-.6-1.1-1.1.3-.5 1.6-.9 2.5-.7.9.1 1.2.9.8 1.3zm5.5-2.2c-.3.4-1.3.6-2.2.5-.9-.2-1.4-.6-1.1-1.1.3-.5 1.6-.9 2.5-.7.9.2 1.2.9.8 1.3zm-8.4.1c-.4.5-1.6.7-2.7.5-1.1-.2-1.6-.8-1.2-1.3.4-.5 1.8-1.1 2.9-.9 1.1.2 1.4 1.2 1 1.7z"/><path fill="url(#at)" d="M16.8 44.2c-.6.4-1.4 1.5-1.7 2-1 1.2-3 3.6-3 4.3 0 .7-2.6.1-2.6.1s2.7-3.3 2.2-3.7c-.6-.5-2 .2-3.1.8-1.1.7-3.1 1.6-3.1 1.6L4 47.9s2-1 3.1-1.5c1.1-.6 2.5-1 2.3-1.7-.2-.7-2.3-.2-3.4 0-.7.1-3 .8-3 .8l.1-1.8c1.8-.5 3.7-.9 4.9-1.2.4-.1.9-.3 1.3-.5l5.4-2.7c1-.5 2.1-.8 3.2-.7 1.2.1 2 .5 1.8 2.3-.1 1.5.4 5.2.4 5.2l-2.2.4s-.1-.8-.1-1.4c-.1-1.3-.4-1.3-1-.9z"/><path fill="url(#au)" d="M21.4 46.6c0 .7-.9 1.3-2.1 1.3-1.2 0-2.1-.6-2.1-1.3 0-.7.9-1.7 2.1-1.7 1.1 0 2.1 1 2.1 1.7z"/><path fill="url(#av)" d="M4.4 44.3c0 .7-.9 1.3-2.1 1.3-1.2 0-2.1-.6-2.1-1.3 0-.7.9-1.7 2.1-1.7 1.1 0 2.1 1 2.1 1.7z"/><path fill="url(#aw)" d="M7 48.7c0 .7-.9 1.3-2.1 1.3-1.2 0-2.1-.6-2.1-1.3 0-.7.9-1.7 2.1-1.7C6 47 7 48 7 48.7z"/><path fill="url(#ax)" d="M12.9 51.2c0 .7-.9 1.3-2.1 1.3-1.2 0-2.1-.6-2.1-1.3 0-.7.9-1.7 2.1-1.7 1.2 0 2.1 1 2.1 1.7z"/><path fill="url(#ay)" d="M14.9 37.8c.9-2.9.7-4.2 1.7-7.7 1.4-4.9 4-7.2 6-7 2.7.3 3.4 3.2 2.9 5.4s-2.3 6.1-3.9 8.7c-1.6 2.6-4 5.1-6.3 4.5-2.2-.5-1-1.8-.4-3.9z"/><path fill="url(#az)" d="M11.8 2.4c-2.7.7-3.5 4.2-1.5 6.1 1.9 1.8 1.5-6.1 1.5-6.1z"/><path fill="#2C5AAC" d="M9.2 5.1c-.2.9 0 1.9.4 2.7 0 0 .5.3.9-.1.5-.4-.1-2.6-1.3-2.6z"/><path fill="url(#aA)" d="M11.8 2.4c-1.8.5-2.7 2.1-2.6 3.7 0 0 1 .8 2.5.9 1.5.2.1-4.6.1-4.6z"/><path fill="url(#aB)" d="M8.2 17.8c-1 5.9 2.9 6.4 6.5 7.6 9.4 3 12.1 9.9 16.6 12.5 4.5 2.6 14.7 8.2 17.4 3.7C51.5 37.1 42.2 5.8 32 8.7c-10.1 2.9-23.8 9.1-23.8 9.1z"/><path fill="url(#aC)" d="M38.4 30.8c4.4 5.9 5.1 12.9 8 12.3 0 0 2.9 2.6 13.2-.2 8.8-2.4 7.2-12.6 5.1-17.4-2.1-4.8-7-4.1-9.2-7.5-.5-.8-4.6-3.5-8.9-3.7C40.2 14 29.4.6 25.1 2.2c-4.3 1.6-11.2-3.5-13.8-.1-2.6 3.3-.6 5.5-2.3 8.7-1.7 3.2-4.1 8.5.3 10.7 2.1 1 3.9 1.7 8 2.7 4.1 1 16.6.6 21.1 6.6z"/><path fill="url(#aD)" d="M16.6 12.7c2.1-1.6 2.5-4 7-5.2 4.5-1.2 8 1.4 8.8 3.1.8 1.7-1.3 2.8-3.3 2.4-2-.4-4.3-.1-6.2 1.3-1.8 1.4-4.7 2.3-6.2 1.4-1.3-1-.9-2.4-.1-3z"/><path fill="#2C5AAC" d="M11.2 20.6c.1-1.5.8-1.9 1.2-1.3 1.1 1.4-1.2 1.3-1.2 1.3zm-3.9-2.2c.9-1.2.8-1.8.2-1.5-1.3.9-.2 1.5-.2 1.5z"/><path fill="url(#aE)" d="M22 14.9c.1-3.7 2-5.2 4-5 2 .2 3.1 2.4 3.1 2.4s.3 2.9-2.7 4c-2.1.8-4.4-1.4-4.4-1.4z"/><path fill="#2C5AAC" d="M22 14.9c0-1.9 1.1-2.7 2.1-2.6 1 .1 1.6 1.3 1.6 1.3s.2 1.5-1.4 2.1c-1.1.4-2.3-.8-2.3-.8z"/><circle cx="24.4" cy="12.3" r="1" fill="#FFF" opacity=".7"/><path fill="url(#aF)" d="M22 14c.4-3 2.1-4.2 3.9-4 2 .2 3.1 2.4 3.1 2.4s.1.6-.2 1.4c0 0-.7.6-3.3.6C23 14.3 22 14 22 14z"/><path fill="url(#aG)" d="M53.6 52c-.4.9-2.4 2.2-2.4 2.2l1.5 1s1.2-.5 1.8-1.3c.4-.5 1.2-1.6 1.1.4-.1 2-1.4 3-1.4 3s1.6 1 2.3.8c.7-.3 1-3.3 1.1-3.8.1-.5.5-.5.8.2.3.7.3 5 .3 5s2.7.5 2.3 0c-.4-.5-.7-4.4-.8-5.4-.1-1 .3-1.4.7-.6.4.8.3 1.8 1.4 2.7.3.2 1.7-.6 1.5-.9-.2-.3-1.1-1.7-1.4-3.5-.3-1.8-1.3-4.7-2-6.1-.7-1.4-2.5-2.3-4.2-1.8-1.7.5-1.6 1.5-1.6 2.3 0 .8-.2 1.7-.2 2.8 0 1.4-.4 2.1-.8 3z"/><path fill="url(#aH)" d="M53.7 54.9c0 .6-.8 1-1.7 1-.9 0-1.7-.5-1.7-1s.8-1.4 1.7-1.4c.9 0 1.7.9 1.7 1.4z"/><path fill="url(#aI)" d="M61.4 59.9c0 .6-.8 1-1.7 1-.9 0-1.7-.5-1.7-1 0-.6.8-1.4 1.7-1.4.9 0 1.7.9 1.7 1.4z"/><path fill="url(#aJ)" d="M64.8 56.2c0 .6-.8 1-1.7 1-.9 0-1.7-.5-1.7-1s.8-1.4 1.7-1.4c.9 0 1.7.9 1.7 1.4z"/><path fill="url(#aK)" d="M57.3 58.1c0 .7-.9 1.2-2 1.2s-2-.5-2-1.2.9-1.6 2-1.6 2 1 2 1.6z"/><path fill="url(#aL)" d="M54.6 46.3c-.8-3-.7-5.7-1.1-11.6-1.1-16.7 7.7-15 10.3-12.3 1.7 1.7.4 6.5-.4 11.3-.6 3.5-3.4 10.6-3.1 12.1.4 1.5-4.5 3.5-5.7.5z"/><path fill="url(#aM)" d="M26.4 56.8c2.3-.6 4.6-1.1 5.6-1.4 1-.3 1.7-.9 1-1.1-.7-.2-3-.4-3.2-.9-.2-.5.6-1.6 1.7-1.4 1.1.2 1.4.7 3.7.8 2.3.1 2.9-1 3.9-1 1-.1 4.7-.6 3.8 2.2-.9 2.8-3 3.9-4 5.1-1 1.2-3.5 4-3.5 4.8 0 .8-2.6.1-2.6.1s2.7-3.3 2.2-3.7c-.6-.5-2 .2-3.1.8-1.1.6-3.1 1.6-3.1 1.6l-1.5-1.4s2-1 3.1-1.5c1.1-.6 2.5-1 2.3-1.7-.2-.7-2.3-.2-3.4 0-.7.1-3 .8-3 .8l.1-2.1z"/><path fill="url(#aN)" d="M32.5 52.5c0 .7-.9 1.3-2.1 1.3-1.2 0-2.1-.6-2.1-1.3 0-.7.9-1.7 2.1-1.7 1.2 0 2.1 1 2.1 1.7z"/><path fill="url(#aO)" d="M27.8 57.7c0 .7-.9 1.3-2.1 1.3-1.2 0-2.1-.6-2.1-1.3 0-.7.9-1.7 2.1-1.7 1.2 0 2.1 1 2.1 1.7z"/><path fill="url(#aP)" d="M30.4 62.1c0 .7-.9 1.3-2.1 1.3-1.2 0-2.1-.6-2.1-1.3 0-.7.9-1.7 2.1-1.7 1.2 0 2.1 1 2.1 1.7z"/><path fill="url(#aQ)" d="M36.3 64.6c0 .7-.9 1.3-2.1 1.3-1.2 0-2.1-.6-2.1-1.3 0-.7.9-1.7 2.1-1.7 1.2 0 2.1 1 2.1 1.7z"/><path fill="url(#aR)" d="M39.4 51.2c2.5-2.6 2.2-4.4 4.4-7.9 3.2-5 7.7-5.8 9.5-4.8 2.4 1.2.7 4-.5 6.1-1.2 2.1-4.4 6-6.9 8.3-2.4 2.3-5.7 4.3-7.6 2.8-1.9-1.4-.6-2.7 1.1-4.5z"/><path fill="url(#aS)" d="M32.9 38.6c2.9 3 4.7-.6 11.9 4.1 7.2 4.7 11.7-2.5 9.3-4.1-2.4-1.7-7.2-4.1-9.2-5.5-2-1.5-4.1-.8-8.3.5-4.1 1.2-5.5 3-3.7 5z"/></g></g><path fill="url(#aT)" d="M93.8 236.5c1.2-4.4 1.6-10.6 7-16 0 0-11.5.9-10.8 10 .2 2.7.2 5.7-.1 8l3.9-2z" transform="translate(0 53)"/><path fill="url(#aU)" d="M330.3 52.6c.3-1.3.9-2.8.5-4.3-.7-2.2-1.9-4-3.4-4.7-3.7-1.7-4.9-1-4.9-1s1.6-.4 3.2 4.1c.2.6 2.5 4.4 2.6 5l2 .9z" transform="translate(0 53)"/><path fill="url(#aV)" d="M322.3 42c4.9 0 7.8 3.6 7.6 4.5 0 0-8.3-4-14-3.4 0-.1 2.9-1.2 6.4-1.1z" transform="translate(0 53)"/><path fill="url(#aW)" d="M341.4 54.8c-.2-3.9-1.3-8.5-1.2-12 .1-4.2 3.8-7 7.2-7.4-.7 0-2.2 4-2.1 5.4.1 3.7.1 11.6-1.4 16.2l-2.5-2.2z" transform="translate(0 53)"/><path fill="url(#aX)" d="M341.3 54.8c-.7-5.9-3.4-14.1-5.7-19.8 0 0 8.6 1.2 8.2 18.6 0 1-.1 2.4-.1 3.4l-2.4-2.2z" transform="translate(0 53)"/><path fill="url(#aY)" d="M334.6 33.6c1.1.2 5.4 2.9 6.4 5.9 0 0-6.3-5.2-10.4-2.4 0 .1 1.1-4.1 4-3.5z" transform="translate(0 53)"/><path fill="url(#aZ)" d="M47.7 83.3c-.2-2.6-1.3-5.6-1.2-8 .1-2.8 3.8-4.7 7.2-4.9-.7 0-2.2 2.7-2.1 3.6.1 2.4.1 7.7-1.4 10.8l-2.5-1.5z" transform="translate(0 53)"/><path fill="url(#ba)" d="M47.6 83.3c-.7-4-3.4-9.4-5.7-13.2 0 0 8.6.8 8.2 12.4 0 .6-.1 1.6-.1 2.2l-2.4-1.4z" transform="translate(0 53)"/><path fill="url(#bb)" d="M40.9 69.2c1.1.2 5.4 2 6.4 4 0 0-6.3-3.4-10.4-1.6 0-.1 1.1-2.8 4-2.4z" transform="translate(0 53)"/><path fill="url(#bc)" d="M79.1 198.3c-.4 0-1.5 8.6-1.7 10.5-.7 6.7-1.1 20.9-3.5 23.1-1.6-3.3-1-16.6 0-24.1.8-5.6 3.3-8.9 5.2-9.5z" transform="translate(0 53)"/><path stroke="#A9C2FB" stroke-linecap="round" stroke-linejoin="round" stroke-width="2.5" d="M73.5 284c.3-5.7.3-30.6-4-49-3.8-16.3-6.3-22.5-6.3-22.5"/><path fill="url(#bd)" d="M72.4 188c1.6-.8 2.4-2.2 1.9-3.9-.3-1-.5-2-.8-3-.5-1.8-.9-3.6-1.4-5.4-1.2-4.7-1.3-5.3-2.5-10-.3-1.2-.4-2.6-1.6-3.4-1.7-1.1-4.2-.6-5.7.5-1.1.7-1.8 1.9-1.5 3.2.1.4.2.9.3 1.3 1.3 5 1.5 6 2.8 11.1.6 2.2 1.1 4.5 1.7 6.7.1.5.2 1 .4 1.5.4 1.6 2 2.2 3.5 2.2 1 0 2.1-.3 2.9-.8z" transform="translate(0 53)"/><path fill="url(#be)" d="M74 231.9c1.2-10.3-1.4-25.9-4.9-27-3.5-1.1-4.8.2-4.8.2s1.8-2.4 4.4 10.3c2 9.9 2.1 18.3 5.3 16.5z" transform="translate(0 53)"/><path fill="url(#bf)" d="M64.3 203.3c1.2-.2 5.4 1.9 5.8 2.3 0 0-5.4-1.1-10.4 2-.1-.1 1.3-3.8 4.6-4.3z" transform="translate(0 53)"/><path fill="url(#bg)" d="M21.9 60.3l52.9-31.2V15.8L24.3 45.6c-2.3 1.5-3.4 1.2-3.9.8-.5-.4-17.6-10.7-18.7-11.2-1.1-.5-.9.8-.2 1.9.7 1.1 17.7 11.2 18.8 11.8 1.1.6 1.6 11.4 1.6 11.4z" transform="translate(184 135)"/><path fill="#B6C8F6" d="M204.8 180.2c-2.4-1.4-18.7-10.8-18.7-10.8l6-3.7 19.3 10-6.6 4.5z"/><path fill="#BACBF7" d="M238.7 136.5c2.4 1.4 18.7 10.8 18.7 10.8l-6 3.7-19.3-10 6.6-4.5z"/><path fill="url(#bh)" d="M4 34.8L55.1 4.7c1-.6 1.4-1.9.8-3-.6-1-1.9-1.4-3-.8L1.8 31c-1 .6-1.4 1.9-.8 3 .6 1 1.9 1.4 3 .8" transform="translate(184 135)"/><path fill="url(#bi)" d="M7.7 36.9L58.8 6.8c1-.6 1.4-1.9.8-3-.6-1-1.9-1.4-3-.8L5.5 33.1c-1 .6-1.4 1.9-.8 3 .7 1.1 2 1.4 3 .8" transform="translate(184 135)"/><path fill="url(#bj)" d="M11.4 39.1L62.6 9c1-.6 1.4-1.9.8-3-.6-1-1.9-1.4-3-.8L9.3 35.3c-1 .6-1.4 1.9-.8 3 .6 1 1.9 1.4 2.9.8" transform="translate(184 135)"/><path fill="url(#bk)" d="M15.2 41.2l51.1-30.1c1-.6 1.4-1.9.8-3-.6-1-1.9-1.4-3-.8L13 37.5c-1 .6-1.4 1.9-.8 3 .6 1 2 1.3 3 .7" transform="translate(184 135)"/><path fill="url(#bl)" d="M18.9 43.4L70 13.3c1-.6 1.4-1.9.8-3-.6-1-1.9-1.4-3-.8L16.7 39.6c-1 .6-1.4 1.9-.8 3 .7 1.1 2 1.4 3 .8" transform="translate(184 135)"/><path fill="url(#bm)" d="M22.7 45.6l51.1-30.1c1-.6 1.4-1.9.8-3-.6-1-1.9-1.4-3-.8L20.5 41.8c-1 .6-1.4 1.9-.8 3 .6 1.1 2 1.4 3 .8" transform="translate(184 135)"/><path fill="url(#bn)" d="M22.7 45.6l51.1-30.1c1-.6 1.4-1.9.8-3-.6-1-1.9-1.4-3-.8L20.5 41.8c-1 .6-1.4 1.9-.8 3 .6 1.1 2 1.4 3 .8" transform="translate(184 135)"/><path fill="url(#bo)" d="M17 28.3c1.6.6 7.5.5 9.8-.2 2.3-.7 5.3-2.5 4.5-2.8-.8-.3-7.4.2-8.9.4S17 28.3 17 28.3" transform="translate(184 135)"/><path fill="url(#bp)" d="M24.6 29.9l-7.5 7.6c2.1.6 3.5.5 4.4.4.9-.1 8.2-2.9 10.1-3.5 2-.6 6.6-4.5 8.4-5.1 1.9-.8 9.6-6 11.3-6.8 1.7-.8 7.5.3 9.3-1.1 1.9-1.5-2.2-4.4-2.2-4.4l-4.2-3.2L48.8 8l-3.2-3-3.5 11.7L30.6 24l-2.1 2.2-3.9 3.7z" transform="translate(184 135)"/><path fill="#356BC5" d="M226.3 162.9c.3.2.4.3.2.6l-3.5 3.4c-.2.2-.5.1-.8 0l-1.4-.6c-.3-.2-.6-.3-.3-.5l3.5-3.4c.2-.2.5-.2.8-.1l1.5.6z"/><path fill="url(#bq)" d="M53.6 15c1.6.1 6-1.9 5.4-4.2-.7-2.2-1.9-3.1-3.1-3.1-1.2 0-6 2.5-5.8 4.6.1 2 3.5 2.7 3.5 2.7z" transform="translate(184 135)"/><path fill="url(#br)" d="M41.9 12.6c.4-2.2 2.1-9.8 2.6-10.4 1.2-1.4 2-.5 2.6.1.6.6 3.4 5.9 3.4 5.9l-1.8 1.6-2.2-3.6s0 2.8-.2 4.5c-.2 1.6-4.4 1.9-4.4 1.9z" transform="translate(184 135)"/><path fill="url(#bs)" d="M53.3 11.9c-.5-.7-1.7-2.3-2.4-1.9-.7.5-.9 1.5-.6 2.4.3.9 1.3 1.5 1.9 1.1.5-.4 1.1-1.6 1.1-1.6z" transform="translate(184 135)"/><path fill="url(#bt)" d="M51.7 14.6s5.4 4.5 6.1 4.4c.7 0 1.9-1.9 1.4-2.6-.5-.7-5.9-4.7-5.9-4.7s-2.7 1.4-1.6 2.9z" transform="translate(184 135)"/><path fill="url(#bu)" d="M44.5 22.8c-2.4 1.6-5.9 3.3-8.3 4.5-3 1.5-6.2-5.5-3.6-7.5 2.7-2 3.9-2.8 7.7-6 3.7-3.3 3.7-3.7 5.7-3.6.8 0 2.8.6 3.3 1.6.4.8 1.1 2.4 1.2 3.4.1 1.7 1.2 1.9-2.2 5-.8.5-2.8 2-3.8 2.6z" transform="translate(184 135)"/><path fill="url(#bv)" d="M49.5 12.9c.2.7-.8 1.6-2.5.6s-.4-3.1.8-2.9c1.3 0 1.7 2.3 1.7 2.3z" transform="translate(184 135)"/><path fill="url(#bw)" d="M49.2 13.1c.1-.1 1-.9 1.3-1 1-.5 2.4-1.1 4.3-2.9 2-2 1.4-4 .5-5-1.2-1.4-3.2-1.2-4.8.6-1.4 1.5-2.8 3-2.5 4 .5 1.9-1 2.1-.7 2.9 0 .6 1 1.8 1.9 1.4z" transform="translate(184 135)"/><path fill="url(#bx)" d="M52.5 2.6c1.1-.6 3.2.3 4 2 .7 1.8.2 2.4.2 2.4.1.8-.7 1.9-2.5 3.1-1.7 1.3-3.1 2.1-3.5 1.8-.4-.3 1.2-1.7 1.8-2.2 1-.7.8-1.3.3-1.1-.4.1-.7.2-.8.1-.4-.5.9-.9.8-1.7-.1-.5-.6-1.2-1.1-1.7-.9-1-.5-2 .8-2.7z" transform="translate(184 135)"/><path fill="url(#by)" d="M22.7 27.3c.5-.3.5-2.8-.1-2.9-.7-.1-1.4.2-2.3.7-.9.5-2.9 1.9-3.5 2.6-.6.7.2 1 1.1.8 1-.2 3.7-.6 4.8-1.2z" transform="translate(184 135)"/><path fill="url(#bz)" d="M34.7 21.5c-.2-4.9-.3-12.3-3.6-11.6-.6.2-10.3 14.2-10.3 14.2s2 3 3.7 1.3c1.7-1.7 5.8-7.6 5.8-7.6s-.7 4.7.5 6.1c1.2 1.4 3.9-2.4 3.9-2.4z" transform="translate(184 135)"/><path fill="url(#bA)" d="M17 33.7c-1.6 1.2.1 4.1 2.1 2.8 1.9-1.3 8.9-6 8.9-6s8.1-2.6 9.1-3.4c1-.8 1.4-.9 1.4-.9s-.2-3.3-3.8-4.8c0 0-7.3 4.5-8.5 5.3-1.6.9-9.2 7-9.2 7z" transform="translate(184 135)"/><path fill="url(#bB)" d="M15.9 36.6c0 .3.7 1 1.3 1 .7-.1 1.1-.5 1.2-.9.4-.7.4-1.4.5-2.4.1-1-.2-2.2-.4-2.8-.3-.6-1.1-.6-1.3.4-.2 1-1.2 3.5-1.3 4.7z" transform="translate(184 135)"/><path fill="url(#bC)" d="M48.5 19.6c.1-.4.5-3 .9-3.7.7-1.5.9-1.1.9-1.1s6.5 1 7.8 1.3c1.3.4 1.5.6 1.2 1.9-.3 1.4-1.5 1.6-2.4 1.8-.7.2-6.7-.2-8.4-.2z" transform="translate(184 135)"/></g></svg>