<svg width="440" height="360" viewBox="0 0 440 360" xmlns="http://www.w3.org/2000/svg"><title>illustration/problem-5-1</title><defs><linearGradient x1="2.617%" y1="50.006%" x2="99.082%" y2="50.006%" id="a"><stop stop-color="#E7EFF7" offset="78.38%"/><stop stop-color="#E7EFF7" stop-opacity="0" offset="100%"/></linearGradient><linearGradient x1=".002%" y1="49.962%" x2="99.984%" y2="49.962%" id="b"><stop stop-color="#E7EFF7" offset="0%"/><stop stop-color="#E7EFF7" offset="100%"/></linearGradient><linearGradient x1="3.854%" y1="49.927%" x2="99.535%" y2="49.927%" id="c"><stop stop-color="#E7EFF7" offset="78.38%"/><stop stop-color="#E7EFF7" stop-opacity="0" offset="100%"/></linearGradient><linearGradient x1="0%" y1="50.084%" x2="100.003%" y2="50.084%" id="d"><stop stop-color="#E7EFF7" offset="65.41%"/><stop stop-color="#E7EFF7" stop-opacity="0" offset="100%"/></linearGradient><linearGradient x1="-.023%" y1="50.01%" x2="99.918%" y2="50.01%" id="e"><stop stop-color="#CCE0F4" offset="17.3%"/><stop stop-color="#CADFF4" offset="31.1%"/><stop stop-color="#C3D9F5" offset="36.07%"/><stop stop-color="#B8D0F7" offset="39.61%"/><stop stop-color="#A7C3F9" offset="42.46%"/><stop stop-color="#A5C2F9" offset="42.7%"/></linearGradient><linearGradient x1=".038%" y1="49.966%" x2="100.015%" y2="49.966%" id="f"><stop stop-color="#EDF4FB" offset="31.89%"/><stop stop-color="#CCE0F4" offset="100%"/></linearGradient><linearGradient x1="-.084%" y1="50.048%" x2="401.58%" y2="50.048%" id="g"><stop stop-color="#EBF2FA" offset="48.11%"/><stop stop-color="#E0EAFA" offset="49.84%"/><stop stop-color="#CADCFA" offset="54.19%"/><stop stop-color="#B9D0F9" offset="59.34%"/><stop stop-color="#AEC8F9" offset="65.71%"/><stop stop-color="#A7C3F9" offset="74.64%"/><stop stop-color="#A5C2F9" offset="99.44%"/></linearGradient><linearGradient x1="6.686%" y1="50.015%" x2="106.67%" y2="50.015%" id="h"><stop stop-color="#CCE0F4" offset="0%"/><stop stop-color="#CADFF4" offset="6.755%"/><stop stop-color="#C3D9F5" offset="9.189%"/><stop stop-color="#B8D0F7" offset="10.92%"/><stop stop-color="#A7C3F9" offset="12.31%"/><stop stop-color="#A5C2F9" offset="12.43%"/><stop stop-color="#A5C2F9" offset="81.08%"/><stop stop-color="#CCE0F4" offset="84.86%"/></linearGradient><linearGradient x1="31.952%" y1="41.791%" x2="99.768%" y2="72.811%" id="i"><stop stop-color="#2260BB" offset="0%"/><stop stop-color="#3184F8" offset="100%"/></linearGradient><linearGradient x1="34.731%" y1="49.963%" x2="507.013%" y2="49.963%" id="j"><stop stop-color="#2260BB" offset="0%"/><stop stop-color="#3184F8" offset="100%"/></linearGradient><linearGradient x1="-62.645%" y1="50.303%" x2="272.245%" y2="50.303%" id="k"><stop stop-color="#2260BB" offset="0%"/><stop stop-color="#3184F8" offset="100%"/></linearGradient><linearGradient x1="-780.423%" y1="50.547%" x2="636.423%" y2="50.547%" id="l"><stop stop-color="#2260BB" offset="0%"/><stop stop-color="#3184F8" offset="100%"/></linearGradient><linearGradient x1="-252.91%" y1="49.99%" x2="115.47%" y2="49.99%" id="m"><stop stop-color="#2260BB" offset="0%"/><stop stop-color="#3184F8" offset="100%"/></linearGradient><linearGradient x1="289.098%" y1="49.987%" x2="-220.71%" y2="49.987%" id="n"><stop stop-color="#A5C2F9" offset="51.62%"/><stop stop-color="#ABC6F9" offset="53.6%"/><stop stop-color="#C7DAFA" offset="65.35%"/><stop stop-color="#DCE8FB" offset="77.07%"/><stop stop-color="#E8F0FB" offset="88.67%"/><stop stop-color="#ECF3FB" offset="100%"/></linearGradient><linearGradient x1="-120.798%" y1="49.961%" x2="102.635%" y2="49.961%" id="o"><stop stop-color="#FFF" offset="40%"/><stop stop-color="#CCE0F4" offset="100%"/></linearGradient><linearGradient x1="-1.81%" y1="49.998%" x2="102.261%" y2="49.998%" id="p"><stop stop-color="#FFF" offset="40%"/><stop stop-color="#CCE0F4" offset="100%"/></linearGradient><linearGradient x1="99.983%" y1="50.002%" x2="-1.374%" y2="50.002%" id="q"><stop stop-color="#A5C2F9" offset="51.62%"/><stop stop-color="#A5C2F9" offset="51.7%"/><stop stop-color="#BFD4FA" offset="58.15%"/><stop stop-color="#D3E2FA" offset="65.25%"/><stop stop-color="#E1ECFB" offset="73.35%"/><stop stop-color="#EAF1FB" offset="83.24%"/><stop stop-color="#ECF3FB" offset="100%"/></linearGradient><linearGradient x1="99.983%" y1="50.002%" x2="-1.374%" y2="50.002%" id="r"><stop stop-color="#A5C2F9" offset="51.62%"/><stop stop-color="#ABC6F9" offset="53.6%"/><stop stop-color="#C7DAFA" offset="65.35%"/><stop stop-color="#DCE8FB" offset="77.07%"/><stop stop-color="#E8F0FB" offset="88.67%"/><stop stop-color="#ECF3FB" offset="100%"/></linearGradient><linearGradient x1="25.632%" y1="101.662%" x2="99.793%" y2="13.661%" id="s"><stop stop-color="#2F82EF" stop-opacity="0" offset="0%"/><stop stop-color="#2F82EF" offset="100%"/></linearGradient><linearGradient x1="-.016%" y1="50.058%" x2="100.017%" y2="50.058%" id="t"><stop stop-color="#EDF4FB" offset="0%"/><stop stop-color="#CCE0F4" offset="100%"/></linearGradient><linearGradient x1="-16.425%" y1="49.942%" x2="83.695%" y2="49.942%" id="u"><stop stop-color="#A5C2F9" offset="56.49%"/><stop stop-color="#FFF" offset="69.73%"/></linearGradient><linearGradient x1="49.981%" y1="3.597%" x2="49.981%" y2="101.785%" id="v"><stop stop-color="#2F82EF" stop-opacity="0" offset="0%"/><stop stop-color="#2F82EF" offset="100%"/></linearGradient><linearGradient x1="49.96%" y1="-15.467%" x2="49.96%" y2="83.257%" id="w"><stop stop-color="#ECF3FB" offset="0%"/><stop stop-color="#ECF3FB" stop-opacity="0" offset="100%"/></linearGradient><linearGradient x1="50.167%" y1="-15.436%" x2="50.167%" y2="83.044%" id="x"><stop stop-color="#ECF3FB" offset="0%"/><stop stop-color="#ECF3FB" stop-opacity="0" offset="100%"/></linearGradient><linearGradient x1="50.223%" y1="-15.198%" x2="50.223%" y2="83.05%" id="y"><stop stop-color="#ECF3FB" offset="0%"/><stop stop-color="#ECF3FB" stop-opacity="0" offset="100%"/></linearGradient><linearGradient x1="51.204%" y1="-15.489%" x2="51.204%" y2="83.235%" id="z"><stop stop-color="#ECF3FB" offset="0%"/><stop stop-color="#ECF3FB" stop-opacity="0" offset="100%"/></linearGradient><linearGradient x1="49.975%" y1="-14.908%" x2="49.975%" y2="83.346%" id="A"><stop stop-color="#ECF3FB" offset="0%"/><stop stop-color="#ECF3FB" stop-opacity="0" offset="100%"/></linearGradient><linearGradient x1="52.797%" y1="-14.376%" x2="52.797%" y2="83.361%" id="B"><stop stop-color="#ECF3FB" offset="0%"/><stop stop-color="#ECF3FB" stop-opacity="0" offset="100%"/></linearGradient><linearGradient x1="50.653%" y1="-15.432%" x2="50.653%" y2="83.185%" id="C"><stop stop-color="#ECF3FB" offset="0%"/><stop stop-color="#ECF3FB" stop-opacity="0" offset="100%"/></linearGradient><linearGradient x1="-16.43%" y1="49.877%" x2="83.68%" y2="49.877%" id="D"><stop stop-color="#A5C2F9" offset="56.49%"/><stop stop-color="#EEF4FB" offset="69.73%"/></linearGradient><linearGradient x1="27.764%" y1="116.151%" x2="71.802%" y2="-15.313%" id="E"><stop stop-color="#2F82EF" stop-opacity="0" offset="0%"/><stop stop-color="#2F82EF" stop-opacity=".488" offset="97.58%"/><stop stop-color="#2F82EF" stop-opacity=".5" offset="100%"/></linearGradient><linearGradient x1="48.951%" y1="52.995%" x2="71.802%" y2="-15.222%" id="F"><stop stop-color="#2F82EF" stop-opacity="0" offset="0%"/><stop stop-color="#2F82EF" stop-opacity=".5" offset="100%"/></linearGradient><linearGradient x1="-.052%" y1="49.851%" x2="100.097%" y2="49.851%" id="G"><stop stop-color="#A9C2FB" stop-opacity=".7" offset="0%"/><stop stop-color="#A9C2FB" stop-opacity=".693" offset="1.028%"/><stop stop-color="#A9C2FB" stop-opacity="0" offset="100%"/></linearGradient><linearGradient x1=".028%" y1="49.878%" x2="99.91%" y2="49.878%" id="H"><stop stop-color="#A9C2FB" stop-opacity=".7" offset="0%"/><stop stop-color="#A9C2FB" stop-opacity=".3" offset="100%"/></linearGradient><linearGradient x1="-.039%" y1="49.59%" x2="100.002%" y2="49.59%" id="I"><stop stop-color="#A9C2FB" stop-opacity=".9" offset="0%"/><stop stop-color="#A9C2FB" stop-opacity="0" offset="100%"/></linearGradient><linearGradient x1=".008%" y1="49.8%" x2="99.86%" y2="49.8%" id="J"><stop stop-color="#CCE0F4" offset="17.3%"/><stop stop-color="#CADFF4" offset="31.1%"/><stop stop-color="#C3D9F5" offset="36.07%"/><stop stop-color="#B8D0F7" offset="39.61%"/><stop stop-color="#A7C3F9" offset="42.46%"/><stop stop-color="#A5C2F9" offset="42.7%"/></linearGradient><linearGradient x1=".207%" y1="50.02%" x2="100.102%" y2="50.02%" id="K"><stop stop-color="#DFE9FC" offset="0%"/><stop stop-color="#DDE7FB" offset="100%"/></linearGradient><linearGradient x1="9.897%" y1="18.666%" x2="88.049%" y2="80.082%" id="L"><stop stop-color="#2260BB" offset="0%"/><stop stop-color="#3184F8" offset="100%"/></linearGradient><linearGradient x1="41.423%" y1="26.818%" x2="59.349%" y2="67.719%" id="M"><stop stop-color="#ECF3FB" offset="26.49%"/><stop stop-color="#EAF2FB" offset="64.34%"/><stop stop-color="#E3EDFB" offset="77.97%"/><stop stop-color="#D8E5FB" offset="87.69%"/><stop stop-color="#C7D9FA" offset="95.49%"/><stop stop-color="#B9D0FA" offset="100%"/></linearGradient><linearGradient x1="56.177%" y1="50.057%" x2="85.012%" y2="54.686%" id="N"><stop stop-color="#A5C2F9" offset="0%"/><stop stop-color="#A5C2F9" offset=".286%"/><stop stop-color="#C9DBFA" offset="65.19%"/><stop stop-color="#D6E4FA" offset="100%"/></linearGradient><linearGradient x1="-1.407%" y1="51.455%" x2="66.004%" y2="49.311%" id="O"><stop stop-color="#1F4A8A" offset="0%"/><stop stop-color="#1F5BAF" offset="100%"/></linearGradient><linearGradient x1="52.874%" y1="56.145%" x2="47.583%" y2="16.634%" id="P"><stop stop-color="#1F4A8A" offset="0%"/><stop stop-color="#1F5BAF" offset="100%"/></linearGradient><linearGradient x1="-48.531%" y1="68.823%" x2="7.598%" y2="58.877%" id="Q"><stop stop-color="#3289F8" offset="0%"/><stop stop-color="#1F5BAF" offset="100%"/></linearGradient><linearGradient x1="49.175%" y1="45.231%" x2="47.399%" y2="9.143%" id="R"><stop stop-color="#1F4A8A" offset="0%"/><stop stop-color="#1F5BAF" offset="100%"/></linearGradient><linearGradient x1="-52%" y1="73.048%" x2="-20.947%" y2="66.548%" id="S"><stop stop-color="#3289F8" offset="0%"/><stop stop-color="#1F5BAF" offset="100%"/></linearGradient><linearGradient x1="41.049%" y1="50.633%" x2="-12.994%" y2="51.809%" id="T"><stop stop-color="#1F5BAF" offset="0%"/><stop stop-color="#3289F8" offset="100%"/></linearGradient><linearGradient x1="22.273%" y1="49.949%" x2="-5.905%" y2="49.949%" id="U"><stop stop-color="#1F5BAF" offset="0%"/><stop stop-color="#3289F8" offset="100%"/></linearGradient><linearGradient x1="58.552%" y1="51.123%" x2=".661%" y2="60.065%" id="V"><stop stop-color="#1F5BAF" offset="0%"/><stop stop-color="#1F4A8A" offset="100%"/></linearGradient><linearGradient x1="34.159%" y1="54.153%" x2="63.068%" y2="46.403%" id="W"><stop stop-color="#A5C2F9" offset="0%"/><stop stop-color="#ABC6F9" offset="4.093%"/><stop stop-color="#C7DAFA" offset="28.37%"/><stop stop-color="#DCE8FB" offset="52.61%"/><stop stop-color="#E8F0FB" offset="76.59%"/><stop stop-color="#ECF3FB" offset="100%"/></linearGradient><linearGradient x1="19.83%" y1="65.91%" x2="58.993%" y2="40.46%" id="X"><stop stop-color="#1F4A8A" offset="0%"/><stop stop-color="#1F5BAF" offset="100%"/></linearGradient><linearGradient x1="55.693%" y1="52.215%" x2="40.28%" y2="23.237%" id="Y"><stop stop-color="#A5C2F9" offset="0%"/><stop stop-color="#A5C2F9" offset=".286%"/><stop stop-color="#C9DBFA" offset="65.19%"/><stop stop-color="#D6E4FA" offset="100%"/></linearGradient><linearGradient x1="73.806%" y1="86.141%" x2="57.143%" y2="60.24%" id="Z"><stop stop-color="#1F4A8A" offset="0%"/><stop stop-color="#1F5BAF" offset="100%"/></linearGradient><linearGradient x1=".008%" y1="49.606%" x2="99.86%" y2="49.606%" id="aa"><stop stop-color="#CCE0F4" offset="17.3%"/><stop stop-color="#CADFF4" offset="31.1%"/><stop stop-color="#C3D9F5" offset="36.07%"/><stop stop-color="#B8D0F7" offset="39.61%"/><stop stop-color="#A7C3F9" offset="42.46%"/><stop stop-color="#A5C2F9" offset="42.7%"/></linearGradient><linearGradient x1=".055%" y1="49.907%" x2="100.022%" y2="49.907%" id="ab"><stop stop-color="#CCE0F4" offset="17.3%"/><stop stop-color="#CADFF4" offset="31.1%"/><stop stop-color="#C3D9F5" offset="36.07%"/><stop stop-color="#B8D0F7" offset="39.61%"/><stop stop-color="#A7C3F9" offset="42.46%"/><stop stop-color="#A5C2F9" offset="42.7%"/></linearGradient><linearGradient x1=".021%" y1="49.977%" x2="99.902%" y2="49.977%" id="ac"><stop stop-color="#FFF" offset="2.162%"/><stop stop-color="#EDF4FB" offset="100%"/></linearGradient><linearGradient x1="104.174%" y1="50.014%" x2="-1.933%" y2="50.014%" id="ad"><stop stop-color="#2260BB" offset="0%"/><stop stop-color="#3184F8" offset="100%"/></linearGradient><linearGradient x1=".052%" y1="50.088%" x2="100.025%" y2="50.088%" id="ae"><stop stop-color="#3184F8" offset="0%"/><stop stop-color="#2260BB" offset="100%"/></linearGradient><linearGradient x1=".392%" y1="50.568%" x2="99.983%" y2="50.568%" id="af"><stop stop-color="#FFF" offset="2.162%"/><stop stop-color="#EDF4FB" offset="100%"/></linearGradient><linearGradient x1="54.606%" y1="59.888%" x2="44.956%" y2="39.693%" id="ag"><stop stop-color="#3184F8" stop-opacity=".4" offset="0%"/><stop stop-color="#3184F8" stop-opacity="0" offset="100%"/></linearGradient><linearGradient x1="49.536%" y1="44.158%" x2="36.192%" y2="116.14%" id="ah"><stop stop-color="#1F5BAF" offset="0%"/><stop stop-color="#3289F8" offset="100%"/></linearGradient><linearGradient x1="80.559%" y1="46.767%" x2="-8.854%" y2="56.782%" id="ai"><stop stop-color="#A5C2F9" offset="0%"/><stop stop-color="#ABC6F9" offset="4.093%"/><stop stop-color="#C7DAFA" offset="28.37%"/><stop stop-color="#DCE8FB" offset="52.61%"/><stop stop-color="#E8F0FB" offset="76.59%"/><stop stop-color="#ECF3FB" offset="100%"/></linearGradient><linearGradient x1="48.823%" y1="45.413%" x2="35.478%" y2="117.394%" id="aj"><stop stop-color="#1F5BAF" offset="0%"/><stop stop-color="#3289F8" offset="100%"/></linearGradient><linearGradient x1="81.639%" y1="46.898%" x2="-7.774%" y2="56.913%" id="ak"><stop stop-color="#A5C2F9" offset="0%"/><stop stop-color="#ABC6F9" offset="4.093%"/><stop stop-color="#C7DAFA" offset="28.37%"/><stop stop-color="#DCE8FB" offset="52.61%"/><stop stop-color="#E8F0FB" offset="76.59%"/><stop stop-color="#ECF3FB" offset="100%"/></linearGradient><linearGradient x1="43.564%" y1="49.837%" x2="-1.534%" y2="49.282%" id="al"><stop stop-color="#A5C2F9" offset="0%"/><stop stop-color="#ABC6F9" offset="4.093%"/><stop stop-color="#C7DAFA" offset="28.37%"/><stop stop-color="#DCE8FB" offset="52.61%"/><stop stop-color="#E8F0FB" offset="76.59%"/><stop stop-color="#ECF3FB" offset="100%"/></linearGradient><linearGradient x1="111.685%" y1="51.829%" x2="42.381%" y2="44.126%" id="am"><stop stop-color="#3289F8" offset="0%"/><stop stop-color="#75A9FA" offset="100%"/></linearGradient><linearGradient x1="78.64%" y1="51.337%" x2="44.192%" y2="48.77%" id="an"><stop stop-color="#1F5BAF" offset="0%"/><stop stop-color="#3289F8" offset="100%"/></linearGradient><linearGradient x1="51.314%" y1="50.283%" x2="108.169%" y2="56.75%" id="ao"><stop stop-color="#B6D1FC" offset="0%"/><stop stop-color="#3289F8" offset="100%"/></linearGradient><linearGradient x1="59.188%" y1="48.548%" x2="17.36%" y2="48.548%" id="ap"><stop stop-color="#A5C2F9" offset="0%"/><stop stop-color="#ABC6F9" offset="4.093%"/><stop stop-color="#C7DAFA" offset="28.37%"/><stop stop-color="#DCE8FB" offset="52.61%"/><stop stop-color="#E8F0FB" offset="76.59%"/><stop stop-color="#ECF3FB" offset="100%"/></linearGradient><linearGradient x1="86.762%" y1="50.255%" x2="39.301%" y2="50.044%" id="aq"><stop stop-color="#A5C2F9" offset="0%"/><stop stop-color="#ABC6F9" offset="4.093%"/><stop stop-color="#C7DAFA" offset="28.37%"/><stop stop-color="#DCE8FB" offset="52.61%"/><stop stop-color="#E8F0FB" offset="76.59%"/><stop stop-color="#ECF3FB" offset="100%"/></linearGradient><linearGradient x1="68.656%" y1="52.602%" x2="204.201%" y2="68.037%" id="ar"><stop stop-color="#A5C2F9" offset="0%"/><stop stop-color="#ABC6F9" offset="4.093%"/><stop stop-color="#C7DAFA" offset="28.37%"/><stop stop-color="#DCE8FB" offset="52.61%"/><stop stop-color="#E8F0FB" offset="76.59%"/><stop stop-color="#ECF3FB" offset="100%"/></linearGradient><linearGradient x1="31.899%" y1="40.981%" x2="78.211%" y2="58.359%" id="as"><stop stop-color="#B6D1FC" offset="0%"/><stop stop-color="#3289F8" offset="100%"/></linearGradient><linearGradient x1="89.469%" y1="61.841%" x2="26.863%" y2="48.321%" id="at"><stop stop-color="#3289F8" offset="0%"/><stop stop-color="#75A9FA" offset="100%"/></linearGradient><linearGradient x1="2.617%" y1="49.956%" x2="99.081%" y2="49.956%" id="au"><stop stop-color="#E7EFF7" offset="78.38%"/><stop stop-color="#E7EFF7" stop-opacity="0" offset="100%"/></linearGradient><linearGradient x1="-.024%" y1="50.113%" x2="99.917%" y2="50.113%" id="av"><stop stop-color="#CCE0F4" offset="17.3%"/><stop stop-color="#CADFF4" offset="31.1%"/><stop stop-color="#C3D9F5" offset="36.07%"/><stop stop-color="#B8D0F7" offset="39.61%"/><stop stop-color="#A7C3F9" offset="42.46%"/><stop stop-color="#A5C2F9" offset="42.7%"/></linearGradient><linearGradient x1=".038%" y1="49.917%" x2="100.014%" y2="49.917%" id="aw"><stop stop-color="#EDF4FB" offset="31.89%"/><stop stop-color="#CCE0F4" offset="100%"/></linearGradient><linearGradient x1=".027%" y1="50.041%" x2="99.908%" y2="50.041%" id="ax"><stop stop-color="#A9C2FB" stop-opacity=".7" offset="0%"/><stop stop-color="#A9C2FB" stop-opacity=".3" offset="100%"/></linearGradient><linearGradient x1="-.041%" y1="49.241%" y2="49.241%" id="ay"><stop stop-color="#A9C2FB" stop-opacity=".9" offset="0%"/><stop stop-color="#A9C2FB" stop-opacity="0" offset="100%"/></linearGradient><linearGradient x1=".003%" y1="49.614%" x2="99.855%" y2="49.614%" id="az"><stop stop-color="#CCE0F4" offset="17.3%"/><stop stop-color="#CADFF4" offset="31.1%"/><stop stop-color="#C3D9F5" offset="36.07%"/><stop stop-color="#B8D0F7" offset="39.61%"/><stop stop-color="#A7C3F9" offset="42.46%"/><stop stop-color="#A5C2F9" offset="42.7%"/></linearGradient><linearGradient x1=".388%" y1="50.219%" x2="99.978%" y2="50.219%" id="aA"><stop stop-color="#FFF" offset="2.162%"/><stop stop-color="#EDF4FB" offset="100%"/></linearGradient><linearGradient x1=".054%" y1="50.144%" x2="100.02%" y2="50.144%" id="aB"><stop stop-color="#CCE0F4" offset="17.3%"/><stop stop-color="#CADFF4" offset="31.1%"/><stop stop-color="#C3D9F5" offset="36.07%"/><stop stop-color="#B8D0F7" offset="39.61%"/><stop stop-color="#A7C3F9" offset="42.46%"/><stop stop-color="#A5C2F9" offset="42.7%"/></linearGradient><linearGradient x1=".02%" y1="49.865%" x2="99.901%" y2="49.865%" id="aC"><stop stop-color="#FFF" offset="2.162%"/><stop stop-color="#EDF4FB" offset="100%"/></linearGradient><linearGradient x1="104.16%" y1="49.933%" x2="-1.671%" y2="49.933%" id="aD"><stop stop-color="#2260BB" offset="0%"/><stop stop-color="#3184F8" offset="100%"/></linearGradient><linearGradient x1=".046%" y1="49.691%" x2="100.02%" y2="49.691%" id="aE"><stop stop-color="#3184F8" offset="0%"/><stop stop-color="#2260BB" offset="100%"/></linearGradient><linearGradient x1="54.747%" y1="59.76%" x2="45.071%" y2="39.564%" id="aF"><stop stop-color="#3184F8" stop-opacity=".4" offset="0%"/><stop stop-color="#3184F8" stop-opacity="0" offset="100%"/></linearGradient><linearGradient x1="49.369%" y1="62.31%" x2="53.365%" y2="22.194%" id="aG"><stop stop-color="#1F5BAF" offset="0%"/><stop stop-color="#3289F8" offset="100%"/></linearGradient><linearGradient x1="-34.834%" y1="96.812%" x2="-22.98%" y2="89.553%" id="aH"><stop stop-color="#ECF3FB" offset="0%"/><stop stop-color="#E8F0FB" offset="23.41%"/><stop stop-color="#DCE8FB" offset="47.39%"/><stop stop-color="#C7DAFA" offset="71.63%"/><stop stop-color="#ABC6F9" offset="95.91%"/><stop stop-color="#A5C2F9" offset="100%"/></linearGradient><linearGradient x1="51.735%" y1="53.175%" x2="-17.231%" y2="39.112%" id="aI"><stop stop-color="#A5C2F9" offset="0%"/><stop stop-color="#ABC6F9" offset="4.093%"/><stop stop-color="#C7DAFA" offset="28.37%"/><stop stop-color="#DCE8FB" offset="52.61%"/><stop stop-color="#E8F0FB" offset="76.59%"/><stop stop-color="#ECF3FB" offset="100%"/></linearGradient><linearGradient x1="-1.329%" y1="48.174%" x2="64.225%" y2="50.425%" id="aJ"><stop stop-color="#75A9FA" offset="0%"/><stop stop-color="#3289F8" offset="100%"/></linearGradient><linearGradient x1="50.958%" y1="45.798%" x2="52.734%" y2="10.267%" id="aK"><stop stop-color="#1F5BAF" offset="0%"/><stop stop-color="#3289F8" offset="100%"/></linearGradient><linearGradient x1="-61.858%" y1="88.469%" x2="-41.379%" y2="80.975%" id="aL"><stop stop-color="#ECF3FB" offset="0%"/><stop stop-color="#E8F0FB" offset="23.41%"/><stop stop-color="#DCE8FB" offset="47.39%"/><stop stop-color="#C7DAFA" offset="71.63%"/><stop stop-color="#ABC6F9" offset="95.91%"/><stop stop-color="#A5C2F9" offset="100%"/></linearGradient><linearGradient x1="59.266%" y1="50.533%" x2="113.309%" y2="51.707%" id="aM"><stop stop-color="#75A9FA" offset="0%"/><stop stop-color="#3289F8" offset="100%"/></linearGradient><linearGradient x1="77.874%" y1="49.852%" x2="106.022%" y2="49.852%" id="aN"><stop stop-color="#75A9FA" offset="0%"/><stop stop-color="#3289F8" offset="100%"/></linearGradient><linearGradient x1="29.267%" y1="49.352%" x2="86.902%" y2="58.161%" id="aO"><stop stop-color="#75A9FA" offset="0%"/><stop stop-color="#3289F8" offset="100%"/></linearGradient><linearGradient x1="65.392%" y1="54.568%" x2="36.927%" y2="47.047%" id="aP"><stop stop-color="#A5C2F9" offset="0%"/><stop stop-color="#ABC6F9" offset="4.093%"/><stop stop-color="#C7DAFA" offset="28.37%"/><stop stop-color="#DCE8FB" offset="52.61%"/><stop stop-color="#E8F0FB" offset="76.59%"/><stop stop-color="#ECF3FB" offset="100%"/></linearGradient><linearGradient x1="45.74%" y1="45.808%" x2="89.949%" y2="67.83%" id="aQ"><stop stop-color="#3289F8" offset="0%"/><stop stop-color="#1F5BAF" offset="100%"/></linearGradient><linearGradient x1="49.032%" y1="60.573%" x2="53.028%" y2="20.454%" id="aR"><stop stop-color="#1F5BAF" offset="0%"/><stop stop-color="#3289F8" offset="100%"/></linearGradient><linearGradient x1="-35.447%" y1="96.762%" x2="-23.592%" y2="89.51%" id="aS"><stop stop-color="#ECF3FB" offset="0%"/><stop stop-color="#E8F0FB" offset="23.41%"/><stop stop-color="#DCE8FB" offset="47.39%"/><stop stop-color="#C7DAFA" offset="71.63%"/><stop stop-color="#ABC6F9" offset="95.91%"/><stop stop-color="#A5C2F9" offset="100%"/></linearGradient><linearGradient x1="22.732%" y1="54.963%" x2="-10.613%" y2="61.022%" id="aT"><stop stop-color="#A5C2F9" offset="0%"/><stop stop-color="#ABC6F9" offset="4.093%"/><stop stop-color="#C7DAFA" offset="28.37%"/><stop stop-color="#DCE8FB" offset="52.61%"/><stop stop-color="#E8F0FB" offset="76.59%"/><stop stop-color="#ECF3FB" offset="100%"/></linearGradient><linearGradient x1="8.696%" y1="48.244%" x2="66.214%" y2="50.627%" id="aU"><stop stop-color="#3289F8" offset="0%"/><stop stop-color="#1F5BAF" offset="100%"/></linearGradient><linearGradient x1="50.622%" y1="44.061%" x2="52.398%" y2="8.53%" id="aV"><stop stop-color="#1F5BAF" offset="0%"/><stop stop-color="#3289F8" offset="100%"/></linearGradient><linearGradient x1="-62.47%" y1="88.24%" x2="-41.991%" y2="80.771%" id="aW"><stop stop-color="#ECF3FB" offset="0%"/><stop stop-color="#E8F0FB" offset="23.41%"/><stop stop-color="#DCE8FB" offset="47.39%"/><stop stop-color="#C7DAFA" offset="71.63%"/><stop stop-color="#ABC6F9" offset="95.91%"/><stop stop-color="#A5C2F9" offset="100%"/></linearGradient><linearGradient x1="58.821%" y1="50.633%" x2="112.864%" y2="51.809%" id="aX"><stop stop-color="#75A9FA" offset="0%"/><stop stop-color="#3289F8" offset="100%"/></linearGradient><linearGradient x1="77.585%" y1="49.94%" x2="105.734%" y2="49.94%" id="aY"><stop stop-color="#75A9FA" offset="0%"/><stop stop-color="#3289F8" offset="100%"/></linearGradient><linearGradient x1="30.126%" y1="49.052%" x2="83.475%" y2="57.903%" id="aZ"><stop stop-color="#3289F8" offset="0%"/><stop stop-color="#1F5BAF" offset="100%"/></linearGradient><linearGradient x1="61.646%" y1="60.066%" x2="38.88%" y2="47.813%" id="ba"><stop stop-color="#A5C2F9" offset="0%"/><stop stop-color="#ABC6F9" offset="4.093%"/><stop stop-color="#C7DAFA" offset="28.37%"/><stop stop-color="#DCE8FB" offset="52.61%"/><stop stop-color="#E8F0FB" offset="76.59%"/><stop stop-color="#ECF3FB" offset="100%"/></linearGradient><linearGradient x1="65.879%" y1="70.744%" x2="48.594%" y2="44.624%" id="bb"><stop stop-color="#1F5BAF" offset="0%"/><stop stop-color="#3289F8" offset="100%"/></linearGradient><linearGradient x1="21.726%" y1="22.691%" x2="92.459%" y2="91.075%" id="bc"><stop stop-color="#3289F8" offset="0%"/><stop stop-color="#1F5BAF" offset="100%"/></linearGradient><linearGradient x1="57.277%" y1="48.656%" x2="22.074%" y2="43.731%" id="bd"><stop stop-color="#A5C2F9" offset="0%"/><stop stop-color="#ABC6F9" offset="4.093%"/><stop stop-color="#C7DAFA" offset="28.37%"/><stop stop-color="#DCE8FB" offset="52.61%"/><stop stop-color="#E8F0FB" offset="76.59%"/><stop stop-color="#ECF3FB" offset="100%"/></linearGradient><linearGradient x1="6.06%" y1="47.66%" x2="74.966%" y2="56.422%" id="be"><stop stop-color="#3289F8" offset="0%"/><stop stop-color="#1F5BAF" offset="100%"/></linearGradient><linearGradient x1="49.969%" y1="45.915%" x2="52.591%" y2="63.155%" id="bf"><stop stop-color="#3289F8" offset="0%"/><stop stop-color="#276FCF" offset="100%"/></linearGradient><linearGradient x1="59.544%" y1="50.069%" x2="3.631%" y2="44.189%" id="bg"><stop stop-color="#A5C2F9" offset="0%"/><stop stop-color="#ABC6F9" offset="4.093%"/><stop stop-color="#C7DAFA" offset="28.37%"/><stop stop-color="#DCE8FB" offset="52.61%"/><stop stop-color="#E8F0FB" offset="76.59%"/><stop stop-color="#ECF3FB" offset="100%"/></linearGradient><linearGradient x1="41.308%" y1="49.62%" x2="86.99%" y2="54.226%" id="bh"><stop stop-color="#75A9FA" offset="0%"/><stop stop-color="#3289F8" offset="100%"/></linearGradient><linearGradient x1="194.86%" y1="55.348%" x2=".23%" y2="48.277%" id="bi"><stop stop-color="#3289F8" offset="0%"/><stop stop-color="#1F5BAF" offset="100%"/></linearGradient></defs><g fill="none" fill-rule="evenodd"><path d="M162.7 26.7l-42-24.2c-5.8-3.3-15.2-3.3-20.9 0l-2.2 1.3-2.2-1.3c-5.8-3.3-15.2-3.3-20.9 0l-70 40.7c-5.8 3.3-5.7 8.8.1 12.1l42 24.2c3.1 1.8 7.2 2.6 11.2 2.5 3.5-.1 20.6 0 24.3 0 3.9 0 7.8-.8 10.8-2.5l70-40.7c5.6-3.3 5.6-8.7-.2-12.1z" transform="translate(115 244)" fill="url(#a)"/><path d="M107.9 58.9l-103.2 60c-5.7 3.3-5.7 8.7.1 12.1l12.7 7.4c3.1 1.8 7.2 2.6 11.3 2.5 3.5-.1 20.6 0 24.4 0 3.8 0 7.7-.8 10.6-2.5l85.4-49.6-41.3-29.9z" fill="url(#b)" transform="translate(0 103)"/><path d="M234.4.3l-90.2 52.5.5 38.8 123.4-71.8s.5-5.8-5.5-9.4c-4.5-2.7-14.1-8.2-14.7-8.9L234.4.3z" fill="url(#c)" transform="translate(0 103)"/><path d="M104.3 27.8L57.6.8C54.7-.9-3.2 69.3.6 69.3h46.7c3.9 0 7.7-.8 10.7-2.5l46.4-27c5.8-3.2 5.7-8.7-.1-12z" transform="translate(92 157)" fill="url(#d)"/><path d="M307.3 228.9l-129.5 75.3L66.6 240c-4.5-2.6-4.5-6.8-.1-9.4l44.3-25.7.7.4L67.3 231c-4.1 2.4-4 6.2 0 8.6l110.4 63.8 128.1-74.5-5.8-3.4-87.7 50.9-.7-.4 88.4-51.4 7.3 4.3zm12.9-54.1l-.7.4-43.6-25.1-56.2 32.6-73.6-42.5.7-.4 72.9 42.1 56.2-32.7z" fill="#DEEBFF"/><path d="M.2 49.8v8.6c0 2.2 1.5 4.4 4.4 6.1l42 24.2c5.8 3.3 15.2 3.3 20.9 0l70-40.7c2.9-1.7 4.3-3.8 4.3-6v-8.6L.2 49.8z" fill="url(#e)" transform="translate(115 235)"/><path d="M252.3 263.4c5.8 3.3 5.8 8.8.1 12.1l-70 40.7c-5.8 3.3-15.1 3.3-20.9 0l-42-24.2c-5.8-3.3-5.8-8.8-.1-12.1l70-40.7c5.8-3.3 15.1-3.3 20.9 0l42 24.2z" fill="#FFF"/><path d="M137.3 27.3c5.8 3.3 5.8 8.8.1 12.1l-70 40.7c-5.8 3.3-15.1 3.3-20.9 0l-42-24.2c-5.8-3.3-5.8-8.8-.1-12.1l70-40.7c5.8-3.3 15.1-3.3 20.9 0l42 24.2z" fill="url(#f)" transform="translate(115 235)"/><path d="M39.5 122.8h38v95.8h-38z" fill="#2363BE"/><path d="M.2 1.8l-.2 95c0 2.2 1.4 4.4 4.4 6.1l6 3.4.2-69.7c0-4.8 3.4-6.7 7.5-4.3l12.5 7.2V.3C13.1.6.2 1.1.2 1.8z" transform="translate(31 94)" fill="url(#g)"/><path d="M.4 77.3v8.6c0 2.2 1.4 4.4 4.4 6.1l12.7 7.4c5.8 3.3 15.2 3.3 20.9 0l111.8-65-.1-34.1L.4 77.3" transform="translate(0 142)" fill="url(#h)"/><path d="M97.3 12c2.6 1.5 4.7 5.2 4.7 8.2l-.2 54.1L73 57.6l.2-54.1c0-3 2.1-4.2 4.7-2.7L97.3 12z" fill="url(#i)" transform="translate(150 42)"/><path d="M229.9 103.4c-5.8-3.3-15.2-3.3-20.9 0l-58.5 34 .5 38.8 91.7-53.3c2.9-1.7 4.3-3.9 4.3-6.1V108c0-1.6-17.1-4.6-17.1-4.6z" fill="#A9C2FB"/><path fill="url(#j)" d="M4.3 2.3v1.2L1.8 2.1v1.7l2.3 1.3v1.3L1.8 5.1v1.7l2.6 1.5v1.3L.5 7.4.6.1z" transform="translate(229 32)"/><path fill="url(#k)" d="M10.8 6L8.9 8.4l1.9 4.9-1.5-.8-1.1-2.9-.2-.9-.2.6-1.2 1.6-1.3-.8 1.9-2.6-1.7-4.6 1.5.9.9 2.7.3.8.2-.6 1-1.5z" transform="translate(229 32)"/><path fill="url(#l)" d="M13.3 7.5v7.2L12 14l.1-7.3z" transform="translate(229 32)"/><path fill="url(#m)" d="M19.5 11v1.3l-1.9-1.1v6l-1.2-.7v-6l-1.9-1.1V8.2z" transform="translate(229 32)"/><path d="M4.2.5C1.9-.4.2.8.1 3.5L0 57.6l4 2.3.1-58.7c0-.3 0-.5.1-.7z" transform="translate(223 42)" fill="url(#n)"/><path d="M33.4 196.8l174-101c5.8-3.3 15.1-3.3 20.9 0l12.7 7.4c5.8 3.3 5.8 8.8.1 12.1L52.2 225l-18.8-28.2z"/><path d="M209.6 10l-12.7-7.4c-5.8-3.3-15.2-3.3-20.9 0l-58.5 34 .5 38.8 91.7-53.3c5.7-3.4 5.7-8.8-.1-12.1z" fill="url(#o)" transform="translate(33 92)"/><path d="M149.6 169.2L38.5 233.8c-5.8 3.3-15.1 3.3-20.9 0l-12.7-7.4c-5.8-3.3-5.8-8.8-.1-12.1l144.1-83.7.7 38.6z" fill="#FFF"/><path d="M148.8 38.6L38.5 102.8c-5.8 3.3-15.1 3.3-20.9 0L4.9 95.4c-5.8-3.3-5.8-8.8-.1-12.1L147.4.4l1.4 38.2z" transform="translate(0 130)" fill="url(#p)"/><g stroke-linecap="round" stroke-linejoin="round"><path d="M128.1 175.5l-24.6-14.3m42.5 4l-24.6-14.4m42.4 4l-24.5-14.4m42.4 4L157.1 130" stroke="#CEE0F5"/><path d="M199.6 134L175 119.6" stroke="#BED6ED"/><path d="M92.4 196.3l-24.6-14.4m42.4 4l-24.5-14.4m-11.2 35.2L50 192.3m-11.2 35.2l-24.6-14.4m42.4 4l-24.5-14.4" stroke="#CEE0F5"/><path d="M235.1 113.3l-24.5-14.4m6.7 24.8l-24.6-14.4" stroke="#BED6ED"/></g><path d="M0 .4v37.2l.5.3 9.8 5.7c4.1 2.4 7.5 8.2 7.5 12.9l-.2 69.7 6.5 3.7c5.8 3.3 15.2 3.3 20.9 0l46.4-27c2.9-1.7 4.3-3.8 4.3-6l.2-95.1C95.9.3.2.4 0 .4z" transform="translate(58 94)" fill="url(#q)"/><path d="M0 .4v37.2l.5.3 9.8 5.7c4.1 2.4 7.5 8.2 7.5 12.9l-.2 69.7 6.5 3.7c5.8 3.3 15.2 3.3 20.9 0l46.4-27c2.9-1.7 4.3-3.8 4.3-6l.2-95.1C95.9.3.2.4 0 .4z" transform="translate(58 94)" fill="url(#r)"/><path d="M68.3 12.5l-6.8-3.9L49 1.3c-4.1-2.4-7.5-.5-7.5 4.3L41.3 67 4.8 88.2c-5.8 3.3-5.7 8.8.1 12.1l12.7 7.4c5.8 3.3 15.2 3.3 20.9 0l36.6-21.3.5-.3.1-39.1.1-21.6c0-4.8-3.3-10.5-7.5-12.9z" transform="translate(0 125)" fill="url(#s)"/><path d="M149.5 91.1c5.8 3.3 5.8 8.8.1 12.1l-46.4 27c-5.8 3.3-15.1 3.3-20.9 0l-46.7-27c-5.8-3.3-5.8-8.8-.1-12.1l46.4-27c5.8-3.3 15.1-3.3 20.9 0l46.7 27z" fill="#FFF"/><path d="M118.5 29.7c5.8 3.3 5.8 8.8.1 12.1l-46.4 27c-5.8 3.3-15.1 3.3-20.9 0l-46.7-27c-5.8-3.3-5.8-8.8-.1-12.1l46.4-27C56.7-.6 66-.6 71.8 2.7l46.7 27z" transform="translate(31 60)" fill="url(#t)"/><path d="M134.2 95.6c0 1.4-.9 2.7-2.7 3.7l-32.5 19c-3.6 2.1-9.4 2.1-12.9 0L53.4 99.4c-1.8-1-2.7-2.4-2.7-3.7 0-1.4 41.9-22.7 41.9-22.7s41.6 21.3 41.6 22.6z" fill="#2363BE"/><path d="M3.3 24.9L35.8 6c3.6-2.1 9.4-2.1 12.9 0l32.7 18.9c.9.5 1.6 1.1 2 1.8 1.3-1.9.7-4.2-2-5.7L48.8 2C45.2-.1 39.4-.1 35.9 2L3.3 20.9c-2.7 1.5-3.3 3.8-2 5.7.5-.6 1.1-1.2 2-1.7z" transform="translate(50 71)" fill="url(#u)"/><path d="M.8.2L.7 56.6c0 1.4.9 2.7 2.7 3.8l32.7 18.9c3.6 2.1 9.4 2.1 12.9 0l32.5-18.9c1.8-1 2.7-2.4 2.7-3.7L84.3.3.8.2z" fill="url(#v)" transform="translate(50 39)"/><path d="M23.8 61.5V24.3c0-1.3-1.1-2.4-2.4-2.4-1.3 0-2.4 1.1-2.4 2.4v37.2h4.8z" fill="url(#w)" transform="translate(50 39)"/><path d="M47.2 76.9V48.6c0-1.3-1.1-2.4-2.4-2.4-1.3 0-2.4 1.1-2.4 2.4v28.3h4.8z" fill="url(#x)" transform="translate(50 39)"/><path d="M30.3 74.6V57.9c0-1.3-1.1-2.4-2.4-2.4-1.3 0-2.4 1.1-2.4 2.4v16.6h4.8v.1z" fill="url(#y)" transform="translate(50 39)"/><path d="M68.8 55.7V18.5c0-1.3-1.1-2.4-2.4-2.4-1.3 0-2.4 1.1-2.4 2.4v37.2h4.8z" fill="url(#z)" transform="translate(50 39)"/><path d="M36.2 53.6V38.4c0-.9-.7-1.6-1.6-1.6-.9 0-1.6.7-1.6 1.6v15.2h3.2z" fill="url(#A)" opacity=".7" transform="translate(50 39)"/><path d="M63.7 59.6v-6c0-.9-.7-1.6-1.6-1.6-.9 0-1.6.7-1.6 1.6v6h3.2z" fill="url(#B)" opacity=".7" transform="translate(50 39)"/><path d="M57.3 55.2V30.9c0-.9-.7-1.6-1.6-1.6-.9 0-1.6.7-1.6 1.6v24.3h3.2z" fill="url(#C)" opacity=".7" transform="translate(50 39)"/><path d="M3.3 21.9L35.8 3C39.4.9 45.2.9 48.7 3l32.7 18.9c1.6.9 2.5 2.1 2.6 3.3.3-1.5-.6-3.1-2.6-4.3L48.7 2C45.1-.1 39.3-.1 35.8 2L3.3 20.8C1.3 22 .4 23.6.7 25.1c.2-1.1 1.1-2.3 2.6-3.2z" transform="translate(50 70)" fill="url(#D)"/><path d="M61.9 1.2c2.7 1.5 2.7 4 0 5.6l-34 19.7c-2.6 1.5-7 1.5-9.6 0-2.6-1.5-2.7-4 0-5.6l34-19.7c2.6-1.6 6.9-1.6 9.6 0z" fill="url(#E)" transform="translate(4 195)"/><path d="M32.4 19.3c2.7 1.5 2.7 4 0 5.6L10.978 37.312c-4.192 2.43-13.788-3.173-9.592-5.604L22.8 19.3c2.6-1.6 6.9-1.6 9.6 0z" fill="url(#F)" transform="translate(4 195)"/><path d="M50.5 2.1c1.3.7 2.1 1.8 2.1 2.9 0 2.3-3.2 4.1-7.1 4.1H7.3c-2 0-3.7-.5-5-1.2C1 7.2.2 6.1.2 5 .2 2.7 3.4.9 7.3.9h38.2c2-.1 3.7.4 5 1.2z" transform="translate(171 126)" fill="url(#G)"/><path d="M62.2 10.9c2.1 1.2 2.1 3.1 0 4.3L26.7 35.9c-2 1.2-5.4 1.2-7.5 0L2.5 26.3C.4 25.1.4 23.2 2.5 22L38 1.3c2.1-1.2 5.4-1.2 7.5 0l16.7 9.6z" transform="translate(151 254)" fill="url(#H)"/><path d="M31 12.2H8.6c-1.4 0-2.7-.3-3.7-.9L2.2 9.8C.1 8.6.1 6.7 2.2 5.5l7.1-4.1c1-.6 2.3-.9 3.6-.9h38.5L31 12.2z" transform="translate(189 281)" fill="url(#I)"/><path d="M.6 2.8v14.7c0 .8.5 1.6 1.6 2.2l2.7 1.5c2.1 1.2 5.4 1.2 7.5 0l7.1-4.1c1-.6 1.5-1.4 1.5-2.1V.3S.6 2 .6 2.8z" transform="translate(189 271)" fill="url(#J)"/><path d="M30.7 2.8c0-2.2-1.6-3.1-3.5-2l-24 13.8C1.5 15.6.1 18 .1 19.9v45.2c0 2.5 1.8 3.6 4 2.3l24.2-13.9c1.3-.7 2.4-2.6 2.4-4.1V2.8z" transform="translate(112 125)" fill="url(#K)"/><path d="M26.6 2.1c0-1.3-.9-1.8-2-1.2l-22 12.6c-1.1.6-2 2.2-2 3.5v39.5c0 1.3.9 1.8 2 1.2l22-12.6c1.1-.6 2-2.2 2-3.5V2.1z" transform="translate(114 128)" fill="url(#L)"/><path d="M125.2 165.5l3.8.9-3.8 5.3v-1.9l-5.8 3.4v-2.5l5.8-3.4z" fill="#E0E9FD"/><path d="M130.2 149.2v2.2l-10.8 6.3v-2.2zm5.6-8.6v2.2l-16.4 9.5v-2.2z" fill="#6EA9FF"/><path d="M19.3 4.8l-3.5-4L.9 9.5 4 15c.3.1.5.1.6 0l14.9-8.7c.3-.2.3-.9-.2-1.5z" fill="url(#M)" transform="translate(119 177)"/><path d="M119.9 186.4l3.5 4c.7.9.5 2-.4 1.5l-3.1-1.8v-3.7z" fill="#BFD2FC"/><path d="M2.4 18.6c.7.1.8.4.7 1.2 0 .8-.5 3.9-1.8 3.2-1.4-.8-.8-3.8 1.1-4.4z" fill="url(#N)" transform="translate(141 169)"/><path d="M4.5 10.6v-.1c0-.2 0-.3-.1-.5-.3-1.4-1-7.4-1.5-8.5C2.4.2-.5-.8.1 4.5.4 7 1.6 16.9 1.7 18.9c0 1.1.5 1.4 1.2.3 1-1.5 1.8-7.3 1.6-8.6z" fill="url(#O)" transform="translate(141 169)"/><path d="M11.3 57.5s-1.7-.4-2.7-.3c-.7 0-1.1.1-.9.6.2.5 2.8 2.1 4 2.4 1.2.3 2 .1 2-.6s-.1-2.1-1-2.1h-1.4z" fill="url(#P)" transform="translate(129 158)"/><path d="M13 46.7s.1 9.4.2 10.9c.1 1.6-1.5 1.1-2 .1 0 0-2.8-13.1-1.9-16.5 1-3.5 3.7-.1 3.7 5.5z" fill="url(#Q)" transform="translate(129 158)"/><path d="M4.9 60.8s-2.5.2-3.5.3c-.7 0-1.4.1-1.2.5.2.5 3.9 1.5 5.2 1.9 1.2.3 2.2.1 2.2-.6s-.4-2.1-1.3-2.1H4.9z" fill="url(#R)" transform="translate(129 158)"/><path d="M6.6 50s.1 9.4.2 10.9c.1 1.6-1.5 1.1-2 .1 0 0-2.3-13.1-1.5-16.5 1-3.5 3.3-.1 3.3 5.5z" fill="url(#S)" transform="translate(129 158)"/><path d="M9.7 56.6c1.2.7 3.6 1.4 3.6.3 0-1.1-.3-8.9-.4-11.9 0-9.1 1.4-8.4.9-13.3-.5-4.9-5-.6-5.4.7-.4 1.3.4 10.7.6 12.9.2 2.3.7 11.3.7 11.3z" fill="url(#T)" transform="translate(129 158)"/><path d="M4.2 31.2c-.3 1.6-1.6 11.3-1.6 13.6 0 2.3.6 14.8.6 14.8s3.8 1.9 3.8.2c0-.9 0-8.4-.5-12.1-.3-2.2 2.1-8.7 2.7-11.1.8-.3 2.9-1.7 2.4-5.9-.6-4.2-7.4.5-7.4.5z" fill="url(#U)" transform="translate(129 158)"/><path d="M14.6 33.6c-.1 1.8-3.9 2.5-7 2.3-3.2-.2-3.9-1.2-4.5-2 .2-2.1 1-4.8 1.3-6.3.3-4.8.1-12.2.7-13.4.6-1.4 4-2.8 6.3-3.2 1-.2 2.4.2 2.9.4 1.4.6.8 2.9.4 4.5s-.9 4.7-.7 7.9c-.1 3.3.8 7.5.6 9.8z" fill="url(#V)" transform="translate(129 158)"/><path d="M5.9 4.4c-1 1.4-.5 5.1.2 5.7.5.5 1.1.3 1.8.5.5.1.4 1.1.6 1.5.4-.3 1.5-.4 2.2-.5.7-.2.7-.5.9-.4.1-.8.5-6.1-.9-7-1.2-.9-4.1-.8-4.8.2z" fill="url(#W)" transform="translate(129 158)"/><path d="M10.8 1.5C9.6.8 6-.5 5.3 2.3c-.4 1.4.4 2.7 1 3.5.3.4.3 1.1.6 1.4.3.3.4-.6.9-.2.9.8-.7 2.4 1.7 3.1.4.1 1.3.4 1.8-.2 1.7-1.6 3.1-6 .7-6.9 0 0 .1-.8-1.2-1.5z" fill="url(#X)" transform="translate(129 158)"/><path d="M2.1 28.7c.5-.4 1.5-.8 1.6-1.7.2-1.3-1.4-1-2.1-.7-.7.3-1.1 1.6-1 2.8.1.6.2 1.2.5 1.3.3.1.4-.3.4-.6s.1-.8.6-1.1z" fill="url(#Y)" transform="translate(124 158)"/><path d="M9.5 25.7c.8-.7 2.2-5.1 2.9-6.9.5-1.4.3-2.4.3-3.1-.1-1-.3-2.2-1.4-2.2-1 0-1.3.5-2.5 3.6-1 2.5-1.5 6.1-2.1 6.6-.9.8-2.4 1.5-3.8 2.2-.5.2.3 3.1 1.6 3.1-.1 0 3.2-1.8 5-3.3z" fill="url(#Z)" transform="translate(124 158)"/><path d="M45.6 76.8v1.3c0 .8.5 1.6 1.6 2.2l2.7 1.5c2.1 1.2 5.4 1.2 7.5 0l7.1-4.1c1-.6 1.5-1.4 1.5-2.1v-1.3S45.6 76 45.6 76.8z" fill="url(#aa)" transform="translate(144 197)"/><path d="M63.4 51.6c0-.8-62.8 10.2-62.8 11v1.3c0 .8.5 1.6 1.6 2.2l16.7 9.6c2.1 1.2 5.4 1.2 7.5 0L61.9 55c1-.6 1.5-1.4 1.5-2.1v-1.3z" fill="url(#ab)" transform="translate(144 197)"/><path d="M61.9 49.4c2.1 1.2 2.1 3.1 0 4.3L26.4 74.4c-2 1.2-5.4 1.2-7.5 0L2.2 64.8c-2.1-1.2-2.1-3.1 0-4.3l35.5-20.7c2.1-1.2 5.4-1.2 7.5 0l16.7 9.6z" fill="url(#ac)" transform="translate(144 197)"/><path d="M42.8.5c1.1-.6 2-.1 2 1.1l.1 25.4c0 1.3-.9 2.8-2 3.5L8.7 50.3c-1.1.6-2 .1-2-1.1l-.1-25.4c0-1.3.9-2.8 2-3.5L42.8.5z" fill="url(#ad)" transform="translate(144 197)"/><path d="M44.7 56.9c.9.5.9 1.3 0 1.8l-10.1 5.9c-.9.5-2.2.5-3.1 0l-3.1-1.8c-.9-.5-.9-1.3 0-1.8l10.1-5.9c.9-.5 2.2-.5 3.1 0l3.1 1.8z" fill="url(#ae)" transform="translate(144 197)"/><path d="M64.4 72c2.1 1.2 2.1 3.1 0 4.3l-7.1 4.1c-2.1 1.2-5.4 1.2-7.5 0l-2.7-1.5c-2.1-1.2-2.1-3.1 0-4.3l7.1-4.1c2.1-1.2 5.4-1.2 7.5 0l2.7 1.5z" fill="url(#af)" transform="translate(144 197)"/><path fill="url(#ag)" d="M44.8 32.5l.1 9.6L6.6 64.2v-9.6z" transform="translate(144 197)"/><path d="M5.9 57.1s2.3.2 3.3.3c.6 0 1.3.4 1.2.8-.1.4-3.7 1.5-4.9 1.8-1.2.3-2.1-.2-2.1-.9 0-.6.3-2 1.2-2h1.3z" fill="url(#ah)" transform="translate(52 139)"/><path d="M7 29.5c-6-.7-4.2 7.6-4.1 11.6 0 1.1.1 1.9.1 2.6 0 1.8-.3 3-.2 4.1.3 4 1.4 8 1.3 9.5-.1 1.5 1.7.4 1.9.1l.6-12.6c.6-4.1.5-12.2.6-13.2-.1-1.4-.2-2.1-.2-2.1z" fill="url(#ai)" transform="translate(52 139)"/><path d="M10.7 59.5s2.3.2 3.3.3c.6 0 1.3.4 1.2.8-.1.4-3.7 1.5-4.9 1.8-1.2.3-2.1-.2-2.1-.9 0-.6.3-2 1.2-2h1.3z" fill="url(#aj)" transform="translate(52 139)"/><path d="M11.7 31.9c-6-.7-4.2 7.6-4.1 11.6 0 1.1.1 1.9.1 2.6 0 1.8-.2 2-.2 4.1.1 4.1 1.4 8 1.3 9.5-.1 1.5 1.7.4 1.9.1l.6-12.6c.6-4.1.5-12.2.6-13.2 0-1.3-.2-2.1-.2-2.1z" fill="url(#ak)" transform="translate(52 139)"/><path d="M4.4 13.4c0-5.4-2.5-1.8-2.8-.4-.3 1.2-.6 4.9-.7 6.3v.7c-.2 1.9.1 6.6.6 8.7.2.9.1 1.1.1 1.5 0 .6-.1 1.4.1 1.5.3.4.4-1 .6-.6.2.6-.1.9-.3 1.3-.1.2-.1.5.2.4 1.1-.4 1.5-2 1.3-2.8-.1-.5-.5-1.3-.8-1.7.4-2.1.6-5.6.8-6.6.1-.4.2-1.8.2-2.1.4-1.6.7-3.7.7-6.2z" fill="url(#al)" transform="translate(52 139)"/><path d="M1 14.3c0 1.5 2.6 2.5 2.6 2.5s-.1-6.2-.4-6.1c-.3.1-1.6 1.2-2.2 3.6z" fill="url(#am)" transform="translate(52 139)"/><path d="M3.3 25.2c-.8 1.4-1.6 3.1-1.9 4.6-.3 1.8 1.4 10.3 1.4 10.3s4.9 3.2 8.9-.8c0 0 1-7.9.5-10-.5-2.1-1-4-2.1-4l-6.8-.1z" fill="url(#an)" transform="translate(52 139)"/><path d="M11.4 27.2c.3-.3.3-1 .2-1.5-.2-.9.9-11.4.4-12-.8-.9-2.9-2.5-4.8-3.1-1.4-.5-2.6-.8-2.6-.8-2.8.9-2.2 5.1-1.6 11.8.2 2.6 0 4 .3 4.3.3.3-.1-.3 5.7 1.3.4.1.3 0 .7-.1l.8-1.7.9 1.8z" fill="url(#ao)" transform="translate(52 139)"/><path d="M11.8 33.6c-.1-.6-.5-2.1 0-2.7.7-1 1.5.7 1.8 1.4.3.7-.2 1.8-1.1 2.5-.4.4-.9.7-1.2.6-.3-.1-.1-.4.1-.6.2-.3.5-.7.4-1.2z" fill="url(#ap)" transform="translate(52 139)"/><path d="M13.3 22.8c0-1.4.3-3.9-.2-6.3-.5-2.2-1.1-2.1-1.6-2.3-.7-.3-1.3-.2-1.4.6-.1 1.2 1.2 14.7 1.4 16.8.1 1.1.6 1.4 1.2.2.8-1.6.6-6.2.6-8.2v-.8z" fill="url(#aq)" transform="translate(52 139)"/><path d="M10.2 4.3c1 1.4.5 5.1-.2 5.7-.5.5-1.1.3-1.8.5-.5.1-.4.7-.6 1.1-.6 1.4-3 .5-3.2-.5-.1-.8-.5-6.1.9-7 1.4-.9 4.3-.8 4.9.2z" fill="url(#ar)" transform="translate(52 139)"/><path d="M4.6 1.7c-1.4.9-1.2 1.9-2.1 4.9-1.1 3.8-.9 5 .4 6.5 1 1.1 4.9 2.3 6.6.7.7-.7.2-2.8.1-4-.2-1.3-.6-3.4.2-4.2.7-.7 1.4-1.4 1.1-2.8-.4-1.5-3.7-2.8-6.3-1.1z" fill="url(#as)" transform="translate(52 139)"/><path d="M1.4.6C2.2.2 4.2.3 5 4.7c0 0-1.7 1.9-4.3 1.1 0 0-1-4.5.7-5.2z" transform="translate(61 152)" fill="url(#at)"/><path d="M163 74.4l-42-24.2c-5.8-3.3-15.2-3.3-20.9 0l-2.2 1.3-2.2-1.3c-5.8-3.3-15.2-3.3-20.9 0l-70 40.7c-5.8 3.3-5.7 8.8.1 12.1l42 24.2c3.1 1.8 7.2 2.6 11.2 2.5 3.5-.1 20.6 0 24.3 0 3.9 0 7.8-.8 10.8-2.5l70-40.7c5.6-3.3 5.6-8.7-.2-12.1z" fill="url(#au)" transform="translate(249 119)"/><path d="M.5 88.4V97c0 2.2 1.5 4.4 4.4 6.1l42 24.2c5.8 3.3 15.2 3.3 20.9 0l70-40.7c2.9-1.7 4.3-3.8 4.3-6V72L.5 88.4z" fill="url(#av)" transform="translate(249 119)"/><path d="M386.6 186c5.8 3.3 5.8 8.8.1 12.1l-70 40.7c-5.8 3.3-15.1 3.3-20.9 0l-42-24.2c-5.8-3.3-5.8-8.8-.1-12.1l70-40.7c5.8-3.3 15.1-3.3 20.9 0l42 24.2z" fill="#FFF"/><path d="M137.6 66c5.8 3.3 5.8 8.8.1 12.1l-70 40.7c-5.8 3.3-15.1 3.3-20.9 0l-42-24.2C-1 91.3-1 85.8 4.7 82.5l70-40.7c5.8-3.3 15.1-3.3 20.9 0l42 24.2z" fill="url(#aw)" transform="translate(249 119)"/><path d="M98.5 68.5c2.1 1.2 2.1 3.1 0 4.3L63 93.5c-2 1.2-5.4 1.2-7.5 0l-16.7-9.6c-2.1-1.2-2.1-3.1 0-4.3l35.5-20.7c2.1-1.2 5.4-1.2 7.5 0l16.7 9.6z" fill="url(#ax)" transform="translate(249 119)"/><path d="M105.3 96.9H82.9c-1.4 0-2.7-.3-3.7-.9l-2.7-1.5c-2.1-1.2-2.1-3.1 0-4.3l7.1-4.1c1-.6 2.3-.9 3.6-.9h38.5l-20.4 11.7z" fill="url(#ay)" transform="translate(249 119)"/><path d="M74.9 77.5v14.7c0 .8.5 1.6 1.6 2.2l2.7 1.5c2.1 1.2 5.4 1.2 7.5 0l7.1-4.1c1-.6 1.5-1.4 1.5-2.1V75s-20.4 1.7-20.4 2.5z" fill="url(#az)" transform="translate(249 119)"/><path d="M93.7 72.7c2.1 1.2 2.1 3.1 0 4.3l-7.1 4.1c-2.1 1.2-5.4 1.2-7.5 0l-2.7-1.5c-2.1-1.2-2.1-3.1 0-4.3l7.1-4.1c2.1-1.2 5.4-1.2 7.5 0l2.7 1.5z" fill="url(#aA)" transform="translate(249 119)"/><path d="M63.7 52.2c0-.8-62.8 10.2-62.8 11v1.3c0 .8.5 1.6 1.6 2.2l16.7 9.6c2.1 1.2 5.4 1.2 7.5 0l35.5-20.7c1-.6 1.5-1.4 1.5-2.1v-1.3z" fill="url(#aB)" transform="translate(278 119)"/><path d="M62.2 50.1c2.1 1.2 2.1 3.1 0 4.3L26.7 75.1c-2 1.2-5.4 1.2-7.5 0L2.5 65.5c-2.1-1.2-2.1-3.1 0-4.3L38 40.5c2.1-1.2 5.4-1.2 7.5 0l16.7 9.6z" fill="url(#aC)" transform="translate(278 119)"/><path d="M43.1 1.2c1.1-.6 2-.1 2 1.1l.1 25.4c0 1.3-.9 2.8-2 3.5L8.9 51c-1.1.6-2 .1-2-1.1l-.1-25.4c0-1.3.9-2.8 2-3.5L43.1 1.2z" fill="url(#aD)" transform="translate(278 119)"/><path fill="#7DAAFD" d="M308.1 138.3v2.1l-1.8 1.1v-2.2zm-16.8 4.2v2.2l-1.8 1v-2.1zm14.8 3.2v2.1l-1.8 1.1v-2.1z"/><path fill="#5E99FC" d="M302.8 154.8v2.1L301 158v-2.2zm-9-2.6v2.1l-1.8 1.1v-2.1z"/><path fill="#468AFB" d="M316 126.8v2.1l-1.8 1v-2.1zm-4.5 17.7v2.1l-1.8 1.1v-2.1zm-10.1-.9v2.1l-1.9 1.1v-2.2zm18.4-1.9v2.1l-1.8 1v-2.1z"/><path d="M45 57.6c.9.5.9 1.3 0 1.8l-10.1 5.9c-.9.5-2.2.5-3.1 0l-3.1-1.8c-.9-.5-.9-1.3 0-1.8l10.1-5.9c.9-.5 2.2-.5 3.1 0l3.1 1.8z" fill="url(#aE)" transform="translate(278 119)"/><path fill="url(#aF)" d="M45.1 33.2v9.6L6.9 64.9v-9.6z" transform="translate(278 119)"/><path d="M4.8 57.2s2.5.2 3.5.3c.7 0 1.4.1 1.2.5-.2.5-3.9 1.5-5.2 1.9-1.3.4-2.2.1-2.2-.6s.4-2.1 1.3-2.1h1.4z" fill="url(#aG)" transform="translate(171 71)"/><path d="M3.1 46.4s-.1 9.4-.2 10.9c-.1 1.6 1.5 1.1 2 .1 0 0 2.8-13.1 1.9-16.5-.9-3.4-3.7 0-3.7 5.5z" fill="url(#aH)" transform="translate(171 71)"/><path d="M1.8 34.9c-.2.1-.3-.2-.2-.5.2-.4.6-.8.4-1.4-.1-.4-.5 1.1-.9.7-.2-.2.2-1.1.2-1.6 0-.6-.3-1.6 0-1.9.3-.3.8-.6.8-.6s.8 1.4 1 2.3c.2.9-.2 2.5-1.3 3z" fill="url(#aI)" transform="translate(171 71)"/><path d="M4.3 14.4c0-5.7-2.6-3.4-3-1.9-.3 1.2-.6 6.7-.8 8.1v.8c-.2 2.6-.2 7.5.5 9 .5 1.2 1.1 1 1.3-.1.4-2.1.9-7.1 1.1-8.2.1-.4.1-.8 0-1.2.6-1.6.9-3.9.9-6.5z" fill="url(#aJ)" transform="translate(171 71)"/><path d="M183.2 103.9c.4 2.1 1.1 8.6.7 12.9-.2 2-.6 2.5-1.5 2.3-1.3-.2-1.6-1.2-2.5-4.7-.3-1.2-1.3-5-1.6-6.3 0 0-1.9-1.4-1.6-4.1.5-4.8 6-2.3 6-2.3s.2 1 .5 2.2z" fill="#349B2C"/><path d="M10.8 60.5s2.5.2 3.5.3c.7 0 1.4.1 1.2.5-.2.5-3.9 1.5-5.2 1.9-1.3.4-2.2.1-2.2-.6s.4-2.1 1.3-2.1h1.4z" fill="url(#aK)" transform="translate(171 71)"/><path d="M9.1 49.7s-.1 9.4-.2 10.9c-.1 1.6 1.5 1.1 2 .1 0 0 2.8-13.1 1.9-16.5-1-3.4-3.7 0-3.7 5.5z" fill="url(#aL)" transform="translate(171 71)"/><path d="M6.4 56.4c-1.2.7-3.6 1.4-3.6.3 0-1.1.3-8.9.4-11.9 0-9.1-1.4-8.4-.9-13.3.5-5 5-.6 5.4.7.4 1.3-.4 10.7-.6 12.9-.2 2.2-.7 11.3-.7 11.3z" fill="url(#aM)" transform="translate(171 71)"/><path d="M12.3 30.9c.3 1.6.8 11.4.8 13.7 0 2.3-.6 14.8-.6 14.8s-3.8 1.9-3.8.2c0-.9 0-8.4.5-12.1.3-2.2-1.7-8.7-2.3-11.1-.8-.3-2.9-1.7-2.4-5.9.7-4.3 7.8.4 7.8.4z" fill="url(#aN)" transform="translate(171 71)"/><path d="M1.8 31.5c.1 1.8 3.6 2.4 6.8 2.2 3.2-.2 3.8-1.4 3.8-2.3 0-.9-.7-15.6-1.6-17.6-.9-2-6.8-3.6-8.2-3-1.4.6-1.4 3.3-1 4.9.4 1.6.9 4.7.7 7.9-.1 3.2-.7 5.6-.5 7.9z" fill="url(#aO)" transform="translate(171 71)"/><path d="M10.2 4.2c1 1.4.5 5.1-.2 5.7-.5.5-1.1.3-1.8.5-.5.1-.4 1.1-.6 1.5-.8.6-3 .1-3.2-.9-.1-.8-.5-6.1.9-7 1.4-.9 4.2-.8 4.9.2z" fill="url(#aP)" transform="translate(171 71)"/><path d="M5.3 1.2c1.2-.7 6-1.8 5.6 2.1-.1 1.5-.5 1.4-1.1 2.2-.3.4-.3 1.1-.6 1.4-.3.3-.4-.6-.9-.2-.9.8.7 2.4-1.7 3.1-.4.1-1.3.4-1.8-.2-1.7-1.6-3.1-6-.7-6.9 0 .1-.1-.7 1.2-1.5z" fill="url(#aQ)" transform="translate(171 71)"/><path d="M5.2 54s2.5.2 3.5.3c.7 0 1.4.1 1.2.5-.2.4-3.9 1.5-5.2 1.9-1.3.4-2.2.1-2.2-.6S2.9 54 3.8 54h1.4z" fill="url(#aR)" transform="translate(22 160)"/><path d="M3.5 43.2s-.1 9.4-.2 10.9 1.5 1.1 2 .1c0 0 2.8-13.1 1.9-16.5-1-3.5-3.7-.1-3.7 5.5z" fill="url(#aS)" transform="translate(22 160)"/><path d="M3.7 31.4c.2 0 .7-.2.3-1.3-.1-.2-.5-.9-.7-1.5-.2-.6-.2-1.6-.6-1.8-.4-.2-1-.3-1-.3s-.3 1.6-.2 2.5c0 .9 1 2.3 2.2 2.4z" fill="url(#aT)" transform="translate(22 160)"/><path d="M4.7 11.1c.1-3.8-2.6-2.4-2.6-2-.7 1.4-1.6 6.8-1.7 8.2v.8c-.2 2.1-.2 5.7.2 7.8.1.5.5.9.8 1.2.5.7 1.1 1 1.3-.1.4-2.1.9-7.1 1.1-8.2.1-.4.1-.8 0-1.2.6-1.6.8-3.8.9-6.5z" fill="url(#aU)" transform="translate(22 160)"/><path d="M34.6 189.7c.4 2.1 1.1 8.6.7 12.9-.2 2-.6 2.5-1.5 2.3-1.3-.2-1.6-1.2-2.5-4.7-.3-1.2-1.3-5-1.6-6.3 0 0-1.9-1.4-1.6-4.1.5-4.8 6-2.3 6-2.3s.2 1 .5 2.2z" fill="#349B2C"/><path d="M11.2 57.3s2.5.2 3.5.3c.7 0 1.4.1 1.2.5-.2.5-3.9 1.5-5.2 1.9-1.3.4-2.2.1-2.2-.6s.4-2.1 1.3-2.1h1.4z" fill="url(#aV)" transform="translate(22 160)"/><path d="M9.5 46.5s-.1 9.4-.2 10.9c-.1 1.6 1.5 1.1 2 .1 0 0 2.8-13.1 1.9-16.5-1-3.5-3.7-.1-3.7 5.5z" fill="url(#aW)" transform="translate(22 160)"/><path d="M6.8 53.1c-1.2.7-3.6 1.4-3.6.3 0-1.1.3-8.9.4-11.9 0-9.1-1.4-8.4-.9-13.3.5-4.9 5-.6 5.4.7.4 1.3-.4 10.7-.6 12.9-.2 2.2-.7 11.3-.7 11.3z" fill="url(#aX)" transform="translate(22 160)"/><path d="M12.7 27.6c.3 1.6.8 11.4.8 13.7 0 2.3-.6 14.8-.6 14.8s-3.8 1.9-3.8.2c0-.9 0-8.4.5-12.1.3-2.2-1.7-8.7-2.3-11.1-.8-.3-2.9-1.7-2.4-5.9.6-4.2 7.8.4 7.8.4z" fill="url(#aY)" transform="translate(22 160)"/><path d="M2.4 27.4c.2.3-.1 1.5.1 1.7 1 1.1 3.8 1.5 6.4 1.3 3.2-.2 3.8-1.4 3.8-2.3v-.7c0-.5.6-.1.6-1.6-.1-4.7-1.5-13.9-2.1-15.3-.6-1.4-3.4-2.3-5.7-2.7-.9-.1-2.4.5-2.8.7-1 .5-1.1 2.3-.7 3.9.4 1.6-.1 4.6-.2 7.8-.2 3.3-.7 4.9.6 7.2z" fill="url(#aZ)" transform="translate(22 160)"/><path d="M12.2 2.1c.6 1.6-.7 5.1-1.5 5.5-.6.3-1.2.1-1.8.1-.5 0-.6 1-.9 1.3-.9.4-3-.2-2.9-1.2C5.2 7 6 1.3 7.5.7c1.4-.5 4.2.3 4.7 1.4z" fill="url(#ba)" transform="translate(22 160)"/><path d="M13.4 4.2c.1-.3 0-.6-.2-.9.1-.1.1-.2.2-.4.1-.5-.2-1.1-.8-1.2h-.2c-.1-.3-.4-.6-.7-.7-.2-.1-.5 0-.7.1h-.1c-.1-.2-.3-.4-.6-.4-.3-.1-.7 0-.9.3-.1-.1-.3-.3-.5-.3-.4-.1-.8.1-1.1.4h-.1c-.5-.1-1.1.2-1.2.8v.2L6.4 2c-.5-.1-1.1.2-1.2.8v.4c-.3.1-.5.4-.6.7-.1.2 0 .5.1.7-.2.1-.3.3-.4.6-.1.4.1.7.3.9v.1c-.1.1-.2.3-.2.4-.1.4.1.9.5 1.1v.1c-.1.1-.2.2-.2.4-.1.5.2 1.1.8 1.2h.1l.1.1c.1.3.4.6.7.6.3.1.6 0 .8-.2.1 0 .2.1.2.1.5.1.9-.1 1.1-.6.1-.1.1-.2.2-.2.2-.1.3-.3.4-.6 0-.2 0-.4-.1-.6.1-.4.2-.7.5-.9.5-.3.5.6.8.4.3-.2.5-.8.8-1.2.4 0 .7-.3.9-.6.4-.1.7-.4.8-.7v-.2c.4-.2.6-.4.6-.6z" fill="url(#bb)" transform="translate(22 157)"/><path d="M2.8 6.7l-1.4-.3c-.3-.1-.6-.3-.5-.6L1.8 1c.1-.3.3-.4.7-.3L4 1c.3.1.6.3.6.6l-.9 4.8c-.2.3-.5.4-.9.3z" transform="translate(36 167)" fill="url(#bc)"/><path d="M7.2 5.2c-.2-.6-.4-.7-.2-1.7.3-1 .5-1 .6-.8.3.3-.1.8.2.9.3.1.9-1.2.9-1.2s.5.7.6 1.1c.1.4.5 1.4-.4 2.3-1.4 1.3-1.7-.6-1.7-.6z" fill="url(#bd)" transform="translate(31 170)"/><path d="M.1 3.1C.1.8 1.4-.4 2.6 1.4c1.9 2.8 1.1 4.3 1.5 6 .1.3.9-1.3 1.8-1.8.8-.5.6 0 1.3-.6.3-.2 1.6.5 1.4 1.3-.3 1 .2 1-.1 1.8-.3.7-3.3 5-5.8 4.4C.3 12 .1 7 .1 3.1z" fill="url(#be)" transform="translate(31 170)"/><path d="M14.6 16.2c-.1-.4-.4-.6-.6-.6l-1.7-.3c-.3 0-.5.1-.8.4l-7.4 9.1c-.5.6-.7 1.7-.4 2.5l2.5 6.4c.1.4.4.6.6.6l1.7.3c.3 0 8.9-11.2 8.6-11.9l-2.5-6.5z" fill="url(#bf)" transform="translate(179 83)"/><path d="M187.4 101.7l.6.9" stroke="#304D93" stroke-linecap="round" stroke-linejoin="round"/><path d="M7.9 21c.7-.8.9-1.7.4-2.3-.5-.7-1.7-1.8-1.7-1.8s-.4.4-.6.8c-.2.4-.1 1.7.2 2.2.7 1.1 1.3 1.5 1.7 1.1z" fill="url(#bg)" transform="translate(179 83)"/><path d="M1.5 1C-.2 1.5.8 3.6 1 6.4c.2 2.4.5 4.8.5 5 .2 1.4 3.4 6.7 3.9 7.2s1.8-.6 1.8-1.4c0-.8-2.3-5.6-2.5-7-.4-2-.9-9.8-3.2-9.2z" fill="url(#bh)" transform="translate(179 83)"/><path d="M13.2 15.9c.5-.6 1.1-.5 1.4.2l2.5 6.4c.3.7.1 1.8-.4 2.5l-7.4 9.1c-.5.6-1.1.5-1.4-.2l-2.5-6.4c-.3-.7-.1-1.8.4-2.5l7.4-9.1z" fill="url(#bi)" transform="translate(179 83)"/><path d="M186.2 103.1c-.2.2-.3.6-.1.9l.3.6" stroke="#304D93" stroke-linecap="round" stroke-linejoin="round"/><path fill="#7DAAFD" d="M166.1 222v2.1l-1.9 1.1v-2.1zm9.7-7.3v2.1l-1.8 1v-2.1zm-15 18.5v2.2l-1.8 1v-2.1z"/><path fill="#5E99FC" d="M172.4 228.3v2.1l-1.8 1.1v-2.1zm-16.7-8.1v2.1l-1.9 1.1v-2.1zm29 1.6v2.1l-1.9 1v-2.1z"/><path fill="#468AFB" d="M174.6 220.5v2.1l-1.9 1.1v-2.1zm8-13.8v2.1l-1.8 1v-2.1z"/></g></svg>