<svg width="54" height="38" viewBox="0 0 54 38" fill="none" xmlns="http://www.w3.org/2000/svg"><mask id="a" fill="#fff"><path fill-rule="evenodd" clip-rule="evenodd" d="M37.22 9.993C42.219 4.225 48.273.631 53.23 0v4.58c-2.83 1.228-6.566 4.868-8.601 7.984 2.242.085 4.359.84 6.056 2.316 4.62 4.02 4.379 11.861-.539 17.514-4.917 5.652-12.65 6.976-17.27 2.956-2.379-2.07-3.47-5.152-3.296-8.428.072-4.965 2.767-11.304 7.64-16.929z"/></mask><path d="M53.23 0h2v-2.27l-2.252.286L53.23 0zM37.22 9.993l1.512 1.31-1.511-1.31zm16.01-5.412l.796 1.835 1.204-.522V4.58h-2zm-8.601 7.983l-1.675-1.094-1.932 2.958 3.53.134.077-1.998zm6.056 2.316l1.312-1.509-1.312 1.51zm-.539 17.514l1.51 1.312-1.51-1.312zm-17.27 2.956l1.313-1.508-1.313 1.508zm-3.296-8.428l1.998.106.002-.039v-.038l-2-.029zM52.978-1.984c-5.604.713-12.071 4.668-17.269 10.668l3.023 2.619c4.796-5.536 10.438-8.77 14.75-9.319l-.504-3.968zm2.252 6.565V0h-4v4.58h4zm-8.927 9.076c.919-1.406 2.254-2.976 3.7-4.337 1.467-1.382 2.913-2.423 4.023-2.904l-1.591-3.67c-1.72.746-3.558 2.139-5.175 3.662-1.639 1.544-3.19 3.352-4.306 5.062l3.35 2.187zm-1.75.905c1.837.07 3.503.682 4.819 1.827l2.625-3.018c-2.077-1.807-4.644-2.705-7.292-2.806l-.152 3.997zm4.819 1.827c3.517 3.06 3.718 9.574-.735 14.692l3.018 2.625c5.383-6.187 6.066-15.355.342-20.335l-2.625 3.018zm-.735 14.692c-4.452 5.118-10.931 5.82-14.448 2.76l-2.626 3.018c5.724 4.98 14.71 3.035 20.092-3.153l-3.018-2.625zm-14.448 2.76c-1.835-1.596-2.759-4.039-2.611-6.813l-3.995-.212c-.2 3.777 1.057 7.5 3.98 10.043l2.626-3.017zm1.52-25.157c-5.074 5.857-8.049 12.631-8.128 18.21l4 .057c.062-4.353 2.479-10.255 7.151-15.648l-3.023-2.62z" fill="#8AA6B3" mask="url(#a)"/><mask id="b" fill="#fff"><path fill-rule="evenodd" clip-rule="evenodd" d="M7.658 9.993C12.655 4.225 18.71.631 23.668 0v4.58c-2.83 1.228-6.566 4.868-8.601 7.984 2.242.085 4.358.84 6.055 2.316 4.62 4.02 4.38 11.861-.538 17.514-4.918 5.652-12.65 6.976-17.27 2.957C.933 33.279-.157 30.193.018 26.914c.074-4.964 2.77-11.299 7.64-16.92z"/></mask><path d="M23.668 0h2v-2.27l-2.252.286L23.668 0zM7.658 9.993l1.512 1.31-1.512-1.31zm16.01-5.412l.796 1.835 1.204-.522V4.58h-2zm-8.601 7.983l-1.675-1.094-1.932 2.958 3.53.134.076-1.998zm6.055 2.316l1.313-1.508-1.313 1.508zm-.538 17.514l-1.51-1.313 1.51 1.313zM3.314 35.35l1.312-1.51-1.312 1.51zM.018 26.914l1.997.107.002-.038.001-.04-2-.029zM23.416-1.984c-5.604.713-12.071 4.668-17.27 10.668l3.024 2.619c4.796-5.536 10.438-8.77 14.75-9.319l-.504-3.968zm2.252 6.565V0h-4v4.58h4zm-8.927 9.076c.919-1.406 2.254-2.976 3.7-4.337 1.467-1.382 2.913-2.423 4.023-2.904l-1.592-3.67c-1.72.746-3.557 2.139-5.174 3.662-1.639 1.544-3.19 3.352-4.306 5.062l3.349 2.187zm-1.75.905c1.836.07 3.502.682 4.818 1.827l2.626-3.017c-2.077-1.807-4.644-2.706-7.293-2.807l-.151 3.997zm4.818 1.827c3.517 3.06 3.718 9.574-.734 14.692l3.018 2.625c5.383-6.187 6.066-15.355.342-20.334l-2.626 3.017zm-.734 14.692c-4.453 5.118-10.932 5.82-14.449 2.76L2.001 36.86c5.724 4.98 14.709 3.035 20.092-3.153l-3.018-2.625zm-14.449 2.76c-1.836-1.597-2.76-4.043-2.61-6.82l-3.995-.214c-.202 3.78 1.054 7.507 3.98 10.052l2.625-3.017zm1.52-25.157c-5.07 5.854-8.044 12.624-8.127 18.2l4 .06C2.082 22.592 4.5 16.693 9.17 11.303l-3.023-2.62z" fill="#8AA6B3" mask="url(#b)"/></svg>