<svg width="440" height="360" viewBox="0 0 440 360" xmlns="http://www.w3.org/2000/svg"><title>illustration/problem-5-2</title><defs><linearGradient x1="2.617%" y1="50.006%" x2="99.082%" y2="50.006%" id="a"><stop stop-color="#E7EFF7" offset="78.38%"/><stop stop-color="#E7EFF7" stop-opacity="0" offset="100%"/></linearGradient><linearGradient x1=".001%" y1="49.988%" x2="99.998%" y2="49.988%" id="b"><stop stop-color="#E7EFF7" offset="0%"/><stop stop-color="#E7EFF7" offset="100%"/></linearGradient><linearGradient x1="0%" y1="50.084%" x2="100.003%" y2="50.084%" id="c"><stop stop-color="#E7EFF7" offset="65.41%"/><stop stop-color="#E7EFF7" stop-opacity="0" offset="100%"/></linearGradient><linearGradient x1=".077%" y1="50.059%" x2="99.99%" y2="50.059%" id="d"><stop stop-color="#E7EFF7" offset="78.38%"/><stop stop-color="#E7EFF7" stop-opacity="0" offset="100%"/></linearGradient><linearGradient x1="-.023%" y1="50.01%" x2="99.918%" y2="50.01%" id="e"><stop stop-color="#CCE0F4" offset="17.3%"/><stop stop-color="#CADFF4" offset="31.1%"/><stop stop-color="#C3D9F5" offset="36.07%"/><stop stop-color="#B8D0F7" offset="39.61%"/><stop stop-color="#A7C3F9" offset="42.46%"/><stop stop-color="#A5C2F9" offset="42.7%"/></linearGradient><linearGradient x1=".038%" y1="49.966%" x2="100.015%" y2="49.966%" id="f"><stop stop-color="#EDF4FB" offset="31.89%"/><stop stop-color="#CCE0F4" offset="100%"/></linearGradient><linearGradient x1="-.084%" y1="50.048%" x2="401.58%" y2="50.048%" id="g"><stop stop-color="#EBF2FA" offset="48.11%"/><stop stop-color="#E0EAFA" offset="49.84%"/><stop stop-color="#CADCFA" offset="54.19%"/><stop stop-color="#B9D0F9" offset="59.34%"/><stop stop-color="#AEC8F9" offset="65.71%"/><stop stop-color="#A7C3F9" offset="74.64%"/><stop stop-color="#A5C2F9" offset="99.44%"/></linearGradient><linearGradient x1=".006%" y1="50%" x2="99.997%" y2="50%" id="h"><stop stop-color="#CCE0F4" offset="0%"/><stop stop-color="#CADFF4" offset="6.755%"/><stop stop-color="#C3D9F5" offset="9.189%"/><stop stop-color="#B8D0F7" offset="10.92%"/><stop stop-color="#A7C3F9" offset="12.31%"/><stop stop-color="#A5C2F9" offset="12.43%"/><stop stop-color="#A5C2F9" offset="81.08%"/><stop stop-color="#CCE0F4" offset="84.86%"/></linearGradient><linearGradient x1="-.032%" y1="49.935%" x2="99.941%" y2="49.935%" id="i"><stop stop-color="#CCE0F4" offset="4.865%"/><stop stop-color="#CADFF4" offset="20.87%"/><stop stop-color="#C3D9F5" offset="26.64%"/><stop stop-color="#B8D0F7" offset="30.73%"/><stop stop-color="#A7C3F9" offset="34.04%"/><stop stop-color="#A5C2F9" offset="34.32%"/></linearGradient><linearGradient x1="-1.777%" y1="50.003%" x2="102.231%" y2="50.003%" id="j"><stop stop-color="#FFF" offset="40%"/><stop stop-color="#CCE0F4" offset="100%"/></linearGradient><linearGradient x1="99.983%" y1="50.002%" x2="-1.374%" y2="50.002%" id="k"><stop stop-color="#A5C2F9" offset="51.62%"/><stop stop-color="#A5C2F9" offset="51.7%"/><stop stop-color="#BFD4FA" offset="58.15%"/><stop stop-color="#D3E2FA" offset="65.25%"/><stop stop-color="#E1ECFB" offset="73.35%"/><stop stop-color="#EAF1FB" offset="83.24%"/><stop stop-color="#ECF3FB" offset="100%"/></linearGradient><linearGradient x1="99.983%" y1="50.002%" x2="-1.374%" y2="50.002%" id="l"><stop stop-color="#A5C2F9" offset="51.62%"/><stop stop-color="#ABC6F9" offset="53.6%"/><stop stop-color="#C7DAFA" offset="65.35%"/><stop stop-color="#DCE8FB" offset="77.07%"/><stop stop-color="#E8F0FB" offset="88.67%"/><stop stop-color="#ECF3FB" offset="100%"/></linearGradient><linearGradient x1="25.712%" y1="101.621%" x2="99.871%" y2="13.62%" id="m"><stop stop-color="#2F82EF" stop-opacity="0" offset="0%"/><stop stop-color="#2F82EF" offset="100%"/></linearGradient><linearGradient x1="-.016%" y1="50.058%" x2="100.017%" y2="50.058%" id="n"><stop stop-color="#EDF4FB" offset="0%"/><stop stop-color="#CCE0F4" offset="100%"/></linearGradient><linearGradient x1="-16.425%" y1="49.942%" x2="83.695%" y2="49.942%" id="o"><stop stop-color="#A5C2F9" offset="56.49%"/><stop stop-color="#FFF" offset="69.73%"/></linearGradient><linearGradient x1="50.031%" y1="3.597%" x2="50.031%" y2="101.785%" id="p"><stop stop-color="#2F82EF" stop-opacity="0" offset="0%"/><stop stop-color="#2F82EF" offset="100%"/></linearGradient><linearGradient x1="49.772%" y1="-15.467%" x2="49.772%" y2="83.257%" id="q"><stop stop-color="#ECF3FB" offset="0%"/><stop stop-color="#ECF3FB" stop-opacity="0" offset="100%"/></linearGradient><linearGradient x1="51.025%" y1="-15.435%" x2="51.025%" y2="83.044%" id="r"><stop stop-color="#ECF3FB" offset="0%"/><stop stop-color="#ECF3FB" stop-opacity="0" offset="100%"/></linearGradient><linearGradient x1="51.079%" y1="-15.198%" x2="51.079%" y2="83.05%" id="s"><stop stop-color="#ECF3FB" offset="0%"/><stop stop-color="#ECF3FB" stop-opacity="0" offset="100%"/></linearGradient><linearGradient x1="49.979%" y1="-15.489%" x2="49.979%" y2="83.235%" id="t"><stop stop-color="#ECF3FB" offset="0%"/><stop stop-color="#ECF3FB" stop-opacity="0" offset="100%"/></linearGradient><linearGradient x1="51.263%" y1="-14.908%" x2="51.263%" y2="83.346%" id="u"><stop stop-color="#ECF3FB" offset="0%"/><stop stop-color="#ECF3FB" stop-opacity="0" offset="100%"/></linearGradient><linearGradient x1="50.959%" y1="-14.376%" x2="50.959%" y2="83.361%" id="v"><stop stop-color="#ECF3FB" offset="0%"/><stop stop-color="#ECF3FB" stop-opacity="0" offset="100%"/></linearGradient><linearGradient x1="51.941%" y1="-15.432%" x2="51.941%" y2="83.185%" id="w"><stop stop-color="#ECF3FB" offset="0%"/><stop stop-color="#ECF3FB" stop-opacity="0" offset="100%"/></linearGradient><linearGradient x1="-16.43%" y1="49.877%" x2="83.68%" y2="49.877%" id="x"><stop stop-color="#A5C2F9" offset="56.49%"/><stop stop-color="#EEF4FB" offset="69.73%"/></linearGradient><linearGradient x1="27.799%" y1="116.151%" x2="71.837%" y2="-15.313%" id="y"><stop stop-color="#2F82EF" stop-opacity="0" offset="0%"/><stop stop-color="#2F82EF" stop-opacity=".488" offset="97.58%"/><stop stop-color="#2F82EF" stop-opacity=".5" offset="100%"/></linearGradient><linearGradient x1="-.148%" y1="49.851%" x2="100.002%" y2="49.851%" id="z"><stop stop-color="#A9C2FB" stop-opacity=".7" offset="0%"/><stop stop-color="#A9C2FB" stop-opacity=".693" offset="1.028%"/><stop stop-color="#A9C2FB" stop-opacity="0" offset="100%"/></linearGradient><linearGradient x1="2.526%" y1="50.428%" x2="71.394%" y2="50.428%" id="A"><stop stop-color="#E7EFF7" offset="65.41%"/><stop stop-color="#E7EFF7" stop-opacity="0" offset="100%"/></linearGradient><linearGradient x1="30.35%" y1="76.056%" x2="59.202%" y2="40.602%" id="B"><stop stop-color="#1F5BAF" offset="0%"/><stop stop-color="#3289F8" offset="100%"/></linearGradient><linearGradient x1="45.095%" y1="48.638%" x2="4.657%" y2="18.919%" id="C"><stop stop-color="#A5C2F9" offset="0%"/><stop stop-color="#ABC6F9" offset="4.093%"/><stop stop-color="#C7DAFA" offset="28.37%"/><stop stop-color="#DCE8FB" offset="52.61%"/><stop stop-color="#E8F0FB" offset="76.59%"/><stop stop-color="#ECF3FB" offset="100%"/></linearGradient><linearGradient x1="33.894%" y1="49.645%" x2="-137.293%" y2="50.32%" id="D"><stop stop-color="#1F5BAF" offset="0%"/><stop stop-color="#3289F8" offset="100%"/></linearGradient><linearGradient x1="1.842%" y1="49.685%" x2="100.971%" y2="49.685%" id="E"><stop stop-color="#A5C2F9" offset="0%"/><stop stop-color="#BED3FB" offset="15.01%"/><stop stop-color="#DAE6FD" offset="36.52%"/><stop stop-color="#EFF4FE" offset="58%"/><stop stop-color="#FBFCFF" offset="79.25%"/><stop stop-color="#FFF" offset="100%"/></linearGradient><linearGradient x1="22.438%" y1="50.875%" x2="92.286%" y2="49.636%" id="F"><stop stop-color="#75A9FA" offset="0%"/><stop stop-color="#3289F8" offset="100%"/></linearGradient><linearGradient x1="34.088%" y1="77.941%" x2="59.417%" y2="39.572%" id="G"><stop stop-color="#1F5BAF" offset="0%"/><stop stop-color="#3289F8" offset="100%"/></linearGradient><linearGradient x1="48.4%" y1="104.856%" x2="47.22%" y2="122.808%" id="H"><stop stop-color="#A5C2F9" offset="0%"/><stop stop-color="#BED3FB" offset="15.01%"/><stop stop-color="#DAE6FD" offset="36.52%"/><stop stop-color="#EFF4FE" offset="58%"/><stop stop-color="#FBFCFF" offset="79.25%"/><stop stop-color="#FFF" offset="100%"/></linearGradient><linearGradient x1="-.726%" y1="50.258%" x2="99.504%" y2="50.258%" id="I"><stop stop-color="#75A9FA" offset="0%"/><stop stop-color="#3289F8" offset="100%"/></linearGradient><linearGradient x1="114.517%" y1="55.028%" x2="19.513%" y2="48.142%" id="J"><stop stop-color="#1F5BAF" offset="0%"/><stop stop-color="#3289F8" offset="100%"/></linearGradient><linearGradient x1="80.433%" y1="46.445%" x2="37.893%" y2="51.622%" id="K"><stop stop-color="#A5C2F9" offset="0%"/><stop stop-color="#ABC6F9" offset="4.093%"/><stop stop-color="#C7DAFA" offset="28.37%"/><stop stop-color="#DCE8FB" offset="52.61%"/><stop stop-color="#E8F0FB" offset="76.59%"/><stop stop-color="#ECF3FB" offset="100%"/></linearGradient><linearGradient x1="97.93%" y1="43.448%" x2="40.433%" y2="54.692%" id="L"><stop stop-color="#A5C2F9" offset="0%"/><stop stop-color="#BED3FB" offset="15.01%"/><stop stop-color="#DAE6FD" offset="36.52%"/><stop stop-color="#EFF4FE" offset="58%"/><stop stop-color="#FBFCFF" offset="79.25%"/><stop stop-color="#FFF" offset="100%"/></linearGradient><linearGradient x1="105.66%" y1="53.618%" x2="31.076%" y2="48.392%" id="M"><stop stop-color="#1F5BAF" offset="0%"/><stop stop-color="#3289F8" offset="100%"/></linearGradient><linearGradient x1="84.419%" y1="78.433%" x2="57.376%" y2="55.923%" id="N"><stop stop-color="#A5C2F9" offset="0%"/><stop stop-color="#ABC6F9" offset="4.093%"/><stop stop-color="#C7DAFA" offset="28.37%"/><stop stop-color="#DCE8FB" offset="52.61%"/><stop stop-color="#E8F0FB" offset="76.59%"/><stop stop-color="#ECF3FB" offset="100%"/></linearGradient><linearGradient x1="28.936%" y1="28.041%" x2="45.834%" y2="46.165%" id="O"><stop stop-color="#75A9FA" offset="0%"/><stop stop-color="#3289F8" offset="100%"/></linearGradient><linearGradient x1=".028%" y1="49.878%" x2="99.91%" y2="49.878%" id="P"><stop stop-color="#A9C2FB" stop-opacity=".7" offset="0%"/><stop stop-color="#A9C2FB" stop-opacity=".3" offset="100%"/></linearGradient><linearGradient x1="-.039%" y1="49.59%" x2="100.002%" y2="49.59%" id="Q"><stop stop-color="#A9C2FB" stop-opacity=".9" offset="0%"/><stop stop-color="#A9C2FB" stop-opacity="0" offset="100%"/></linearGradient><linearGradient x1="56.814%" y1="77.967%" x2="45.843%" y2="54.777%" id="R"><stop stop-color="#1F4A8A" offset="0%"/><stop stop-color="#1F5BAF" offset="100%"/></linearGradient><linearGradient x1="77.175%" y1="49.806%" x2="34.23%" y2="50.078%" id="S"><stop stop-color="#3289F8" offset="0%"/><stop stop-color="#75A9FA" offset="100%"/></linearGradient><linearGradient x1="49.005%" y1="19.91%" x2="47.636%" y2="-.45%" id="T"><stop stop-color="#3289F8" offset="0%"/><stop stop-color="#75A9FA" offset="100%"/></linearGradient><linearGradient x1=".008%" y1="49.8%" x2="99.86%" y2="49.8%" id="U"><stop stop-color="#CCE0F4" offset="17.3%"/><stop stop-color="#CADFF4" offset="31.1%"/><stop stop-color="#C3D9F5" offset="36.07%"/><stop stop-color="#B8D0F7" offset="39.61%"/><stop stop-color="#A7C3F9" offset="42.46%"/><stop stop-color="#A5C2F9" offset="42.7%"/></linearGradient><linearGradient x1=".207%" y1="50.02%" x2="100.102%" y2="50.02%" id="V"><stop stop-color="#DFE9FC" offset="0%"/><stop stop-color="#DDE7FB" offset="100%"/></linearGradient><linearGradient x1="9.855%" y1="18.634%" x2="88.007%" y2="80.049%" id="W"><stop stop-color="#2260BB" offset="0%"/><stop stop-color="#3184F8" offset="100%"/></linearGradient><linearGradient x1="41.423%" y1="26.818%" x2="59.349%" y2="67.719%" id="X"><stop stop-color="#ECF3FB" offset="26.49%"/><stop stop-color="#EAF2FB" offset="64.34%"/><stop stop-color="#E3EDFB" offset="77.97%"/><stop stop-color="#D8E5FB" offset="87.69%"/><stop stop-color="#C7D9FA" offset="95.49%"/><stop stop-color="#B9D0FA" offset="100%"/></linearGradient><linearGradient x1="58.564%" y1="27.099%" x2="40.638%" y2="68.001%" id="Y"><stop stop-color="#ECF3FB" offset="26.49%"/><stop stop-color="#EAF2FB" offset="64.34%"/><stop stop-color="#E3EDFB" offset="77.97%"/><stop stop-color="#D8E5FB" offset="87.69%"/><stop stop-color="#C7D9FA" offset="95.49%"/><stop stop-color="#B9D0FA" offset="100%"/></linearGradient><linearGradient x1="40.421%" y1="95.55%" x2="50.957%" y2="57.451%" id="Z"><stop stop-color="#1F4A8A" offset="0%"/><stop stop-color="#1F5BAF" offset="100%"/></linearGradient><linearGradient x1="2.323%" y1="49.369%" x2="99.802%" y2="49.369%" id="aa"><stop stop-color="#A5C2F9" offset="0%"/><stop stop-color="#BED3FB" offset="15.01%"/><stop stop-color="#DAE6FD" offset="36.52%"/><stop stop-color="#EFF4FE" offset="58%"/><stop stop-color="#FBFCFF" offset="79.25%"/><stop stop-color="#FFF" offset="100%"/></linearGradient><linearGradient x1="107.183%" y1="33.275%" x2="87.589%" y2="37.376%" id="ab"><stop stop-color="#1F5BAF" offset="0%"/><stop stop-color="#1F4A8A" offset="100%"/></linearGradient><linearGradient x1="-20.723%" y1="95.177%" x2="-14.528%" y2="90.474%" id="ac"><stop stop-color="#3289F8" offset="0%"/><stop stop-color="#1F5BAF" offset="100%"/></linearGradient><linearGradient x1="33.904%" y1="67.296%" x2="46.136%" y2="55.032%" id="ad"><stop stop-color="#1F4A8A" offset="0%"/><stop stop-color="#1F5BAF" offset="100%"/></linearGradient><linearGradient x1="51.792%" y1="100.704%" x2="51.792%" y2="93.783%" id="ae"><stop stop-color="#3289F8" offset="0%"/><stop stop-color="#1F5BAF" offset="100%"/></linearGradient><linearGradient x1="119.364%" y1="52.368%" x2="-4.056%" y2="46.807%" id="af"><stop stop-color="#1F4A8A" offset="0%"/><stop stop-color="#1F5BAF" offset="100%"/></linearGradient><linearGradient x1="113.712%" y1="53.83%" x2="22.333%" y2="48.979%" id="ag"><stop stop-color="#1F4A8A" offset="0%"/><stop stop-color="#1F5BAF" offset="100%"/></linearGradient><linearGradient x1="50.192%" y1="3.597%" x2="50.192%" y2="11.736%" id="ah"><stop stop-color="#A5C2F9" offset="0%"/><stop stop-color="#ABC6F9" offset="4.093%"/><stop stop-color="#C7DAFA" offset="28.37%"/><stop stop-color="#DCE8FB" offset="52.61%"/><stop stop-color="#E8F0FB" offset="76.59%"/><stop stop-color="#ECF3FB" offset="100%"/></linearGradient><linearGradient x1="126.89%" y1="62.51%" x2="3.876%" y2="46.713%" id="ai"><stop stop-color="#1F5BAF" offset="0%"/><stop stop-color="#3289F8" offset="100%"/></linearGradient><linearGradient x1="96.152%" y1="70.284%" x2="33.359%" y2="44.655%" id="aj"><stop stop-color="#1F4A8A" offset="0%"/><stop stop-color="#1F5BAF" offset="100%"/></linearGradient><linearGradient x1="464.712%" y1="365.41%" x2="48.05%" y2="52.91%" id="ak"><stop stop-color="#1F5BAF" offset="0%"/><stop stop-color="#3289F8" offset="100%"/></linearGradient><linearGradient x1="466.275%" y1="357.91%" x2="49.612%" y2="45.41%" id="al"><stop stop-color="#1F5BAF" offset="0%"/><stop stop-color="#3289F8" offset="100%"/></linearGradient><linearGradient x1="76.425%" y1="87.641%" x2="62.904%" y2="65.548%" id="am"><stop stop-color="#A5C2F9" offset="0%"/><stop stop-color="#BED3FB" offset="15.01%"/><stop stop-color="#DAE6FD" offset="36.52%"/><stop stop-color="#EFF4FE" offset="58%"/><stop stop-color="#FBFCFF" offset="79.25%"/><stop stop-color="#FFF" offset="100%"/></linearGradient><linearGradient x1="50.303%" y1="52.263%" x2="13.959%" y2="27.342%" id="an"><stop stop-color="#1F5BAF" offset="0%"/><stop stop-color="#3289F8" offset="100%"/></linearGradient><linearGradient x1="88.247%" y1="26.783%" x2="26.275%" y2="58.271%" id="ao"><stop stop-color="#A5C2F9" offset="0%"/><stop stop-color="#BED3FB" offset="15.01%"/><stop stop-color="#DAE6FD" offset="36.52%"/><stop stop-color="#EFF4FE" offset="58%"/><stop stop-color="#FBFCFF" offset="79.25%"/><stop stop-color="#FFF" offset="100%"/></linearGradient><linearGradient x1="12.273%" y1="41.395%" x2="43.411%" y2="47.382%" id="ap"><stop stop-color="#1F5BAF" offset="0%"/><stop stop-color="#1F4A8A" offset="100%"/></linearGradient><linearGradient x1=".008%" y1="49.606%" x2="99.86%" y2="49.606%" id="aq"><stop stop-color="#CCE0F4" offset="17.3%"/><stop stop-color="#CADFF4" offset="31.1%"/><stop stop-color="#C3D9F5" offset="36.07%"/><stop stop-color="#B8D0F7" offset="39.61%"/><stop stop-color="#A7C3F9" offset="42.46%"/><stop stop-color="#A5C2F9" offset="42.7%"/></linearGradient><linearGradient x1="50.021%" y1="36.367%" x2="47.849%" y2="8.555%" id="ar"><stop stop-color="#3289F8" offset="0%"/><stop stop-color="#75A9FA" offset="100%"/></linearGradient><linearGradient x1=".055%" y1="49.907%" x2="100.022%" y2="49.907%" id="as"><stop stop-color="#CCE0F4" offset="17.3%"/><stop stop-color="#CADFF4" offset="31.1%"/><stop stop-color="#C3D9F5" offset="36.07%"/><stop stop-color="#B8D0F7" offset="39.61%"/><stop stop-color="#A7C3F9" offset="42.46%"/><stop stop-color="#A5C2F9" offset="42.7%"/></linearGradient><linearGradient x1=".021%" y1="49.977%" x2="99.902%" y2="49.977%" id="at"><stop stop-color="#FFF" offset="2.162%"/><stop stop-color="#EDF4FB" offset="100%"/></linearGradient><linearGradient x1="104.174%" y1="50.014%" x2="-1.933%" y2="50.014%" id="au"><stop stop-color="#2260BB" offset="0%"/><stop stop-color="#3184F8" offset="100%"/></linearGradient><linearGradient x1=".052%" y1="50.088%" x2="100.025%" y2="50.088%" id="av"><stop stop-color="#3184F8" offset="0%"/><stop stop-color="#2260BB" offset="100%"/></linearGradient><linearGradient x1=".392%" y1="50.568%" x2="99.983%" y2="50.568%" id="aw"><stop stop-color="#FFF" offset="2.162%"/><stop stop-color="#EDF4FB" offset="100%"/></linearGradient><linearGradient x1="54.606%" y1="59.888%" x2="44.956%" y2="39.693%" id="ax"><stop stop-color="#3184F8" stop-opacity=".4" offset="0%"/><stop stop-color="#3184F8" stop-opacity="0" offset="100%"/></linearGradient><linearGradient x1="54.495%" y1="57.046%" x2="80.117%" y2="96.888%" id="ay"><stop stop-color="#A9C2FB" stop-opacity=".9" offset="0%"/><stop stop-color="#A9C2FB" stop-opacity="0" offset="100%"/></linearGradient><linearGradient x1="41.116%" y1="45.638%" x2="8.553%" y2="28.26%" id="az"><stop stop-color="#A5C2F9" offset="0%"/><stop stop-color="#A5C2F9" offset=".286%"/><stop stop-color="#C9DBFA" offset="65.19%"/><stop stop-color="#D6E4FA" offset="100%"/></linearGradient><linearGradient x1="51.13%" y1="68.345%" x2="48.607%" y2="42.702%" id="aA"><stop stop-color="#A5C2F9" offset="0%"/><stop stop-color="#A5C2F9" offset=".286%"/><stop stop-color="#C9DBFA" offset="65.19%"/><stop stop-color="#D6E4FA" offset="100%"/></linearGradient><linearGradient x1="49.681%" y1="61.863%" x2="53.328%" y2="15.942%" id="aB"><stop stop-color="#1F4A8A" offset="0%"/><stop stop-color="#1F5BAF" offset="100%"/></linearGradient><linearGradient x1="16.053%" y1="60.282%" x2="64.76%" y2="50.742%" id="aC"><stop stop-color="#1F5BAF" offset="0%"/><stop stop-color="#3289F8" offset="100%"/></linearGradient><linearGradient x1="31.626%" y1="52.319%" x2="-103.919%" y2="67.754%" id="aD"><stop stop-color="#A5C2F9" offset="0%"/><stop stop-color="#ABC6F9" offset="4.093%"/><stop stop-color="#C7DAFA" offset="28.37%"/><stop stop-color="#DCE8FB" offset="52.61%"/><stop stop-color="#E8F0FB" offset="76.59%"/><stop stop-color="#ECF3FB" offset="100%"/></linearGradient><linearGradient x1="59.681%" y1="84.581%" x2="55.061%" y2="65.84%" id="aE"><stop stop-color="#A5C2F9" offset="0%"/><stop stop-color="#A5C2F9" offset=".286%"/><stop stop-color="#C9DBFA" offset="65.19%"/><stop stop-color="#D6E4FA" offset="100%"/></linearGradient><linearGradient x1="55.252%" y1="97.757%" x2="51.466%" y2="54.696%" id="aF"><stop stop-color="#1F5BAF" offset="0%"/><stop stop-color="#3289F8" offset="100%"/></linearGradient><linearGradient x1="56.585%" y1="55.286%" x2="27.147%" y2="44.794%" id="aG"><stop stop-color="#1F4A8A" offset="0%"/><stop stop-color="#1F5BAF" offset="100%"/></linearGradient><linearGradient x1="44.364%" y1="44.883%" x2="39.818%" y2="32.482%" id="aH"><stop stop-color="#A5C2F9" offset="0%"/><stop stop-color="#A5C2F9" offset=".286%"/><stop stop-color="#C9DBFA" offset="65.19%"/><stop stop-color="#D6E4FA" offset="100%"/></linearGradient><linearGradient x1="2.617%" y1="49.956%" x2="99.081%" y2="49.956%" id="aI"><stop stop-color="#E7EFF7" offset="78.38%"/><stop stop-color="#E7EFF7" stop-opacity="0" offset="100%"/></linearGradient><linearGradient x1="-.024%" y1="50.113%" x2="99.917%" y2="50.113%" id="aJ"><stop stop-color="#CCE0F4" offset="17.3%"/><stop stop-color="#CADFF4" offset="31.1%"/><stop stop-color="#C3D9F5" offset="36.07%"/><stop stop-color="#B8D0F7" offset="39.61%"/><stop stop-color="#A7C3F9" offset="42.46%"/><stop stop-color="#A5C2F9" offset="42.7%"/></linearGradient><linearGradient x1=".038%" y1="49.917%" x2="100.014%" y2="49.917%" id="aK"><stop stop-color="#EDF4FB" offset="31.89%"/><stop stop-color="#CCE0F4" offset="100%"/></linearGradient><linearGradient x1=".027%" y1="50.041%" x2="99.908%" y2="50.041%" id="aL"><stop stop-color="#A9C2FB" stop-opacity=".7" offset="0%"/><stop stop-color="#A9C2FB" stop-opacity=".3" offset="100%"/></linearGradient><linearGradient x1="-.041%" y1="49.241%" y2="49.241%" id="aM"><stop stop-color="#A9C2FB" stop-opacity=".9" offset="0%"/><stop stop-color="#A9C2FB" stop-opacity="0" offset="100%"/></linearGradient><linearGradient x1="85.777%" y1="50.001%" x2="49.822%" y2="47.708%" id="aN"><stop stop-color="#1F5BAF" offset="0%"/><stop stop-color="#3289F8" offset="100%"/></linearGradient><linearGradient x1="42.849%" y1="45.975%" x2="58.466%" y2="11.305%" id="aO"><stop stop-color="#1F5BAF" offset="0%"/><stop stop-color="#3289F8" offset="100%"/></linearGradient><linearGradient x1=".003%" y1="49.614%" x2="99.855%" y2="49.614%" id="aP"><stop stop-color="#CCE0F4" offset="17.3%"/><stop stop-color="#CADFF4" offset="31.1%"/><stop stop-color="#C3D9F5" offset="36.07%"/><stop stop-color="#B8D0F7" offset="39.61%"/><stop stop-color="#A7C3F9" offset="42.46%"/><stop stop-color="#A5C2F9" offset="42.7%"/></linearGradient><linearGradient x1=".388%" y1="50.219%" x2="99.978%" y2="50.219%" id="aQ"><stop stop-color="#FFF" offset="2.162%"/><stop stop-color="#EDF4FB" offset="100%"/></linearGradient><linearGradient x1="92.074%" y1="14.254%" x2="65.883%" y2="38.698%" id="aR"><stop stop-color="#1F5BAF" offset="0%"/><stop stop-color="#3289F8" offset="100%"/></linearGradient><linearGradient x1="-27.773%" y1="68.289%" x2="-5.796%" y2="62.669%" id="aS"><stop stop-color="#ECF3FB" offset="0%"/><stop stop-color="#E8F0FB" offset="23.41%"/><stop stop-color="#DCE8FB" offset="47.39%"/><stop stop-color="#C7DAFA" offset="71.63%"/><stop stop-color="#ABC6F9" offset="95.91%"/><stop stop-color="#A5C2F9" offset="100%"/></linearGradient><linearGradient x1="54.285%" y1="57.341%" x2="79.908%" y2="97.181%" id="aT"><stop stop-color="#A9C2FB" stop-opacity=".9" offset="0%"/><stop stop-color="#A9C2FB" stop-opacity="0" offset="100%"/></linearGradient><linearGradient x1="49.467%" y1="30.425%" x2="53.021%" y2="4.08%" id="aU"><stop stop-color="#1F5BAF" offset="0%"/><stop stop-color="#3289F8" offset="100%"/></linearGradient><linearGradient x1=".054%" y1="50.144%" x2="100.02%" y2="50.144%" id="aV"><stop stop-color="#CCE0F4" offset="17.3%"/><stop stop-color="#CADFF4" offset="31.1%"/><stop stop-color="#C3D9F5" offset="36.07%"/><stop stop-color="#B8D0F7" offset="39.61%"/><stop stop-color="#A7C3F9" offset="42.46%"/><stop stop-color="#A5C2F9" offset="42.7%"/></linearGradient><linearGradient x1=".02%" y1="49.865%" x2="99.901%" y2="49.865%" id="aW"><stop stop-color="#FFF" offset="2.162%"/><stop stop-color="#EDF4FB" offset="100%"/></linearGradient><linearGradient x1="104.16%" y1="49.933%" x2="-1.671%" y2="49.933%" id="aX"><stop stop-color="#2260BB" offset="0%"/><stop stop-color="#3184F8" offset="100%"/></linearGradient><linearGradient x1=".046%" y1="49.691%" x2="100.02%" y2="49.691%" id="aY"><stop stop-color="#3184F8" offset="0%"/><stop stop-color="#2260BB" offset="100%"/></linearGradient><linearGradient x1="54.747%" y1="59.76%" x2="45.071%" y2="39.564%" id="aZ"><stop stop-color="#3184F8" stop-opacity=".4" offset="0%"/><stop stop-color="#3184F8" stop-opacity="0" offset="100%"/></linearGradient><linearGradient x1="47.192%" y1="50.956%" x2="38.53%" y2="29.266%" id="ba"><stop stop-color="#A5C2F9" offset="0%"/><stop stop-color="#A5C2F9" offset=".286%"/><stop stop-color="#C9DBFA" offset="65.19%"/><stop stop-color="#D6E4FA" offset="100%"/></linearGradient><linearGradient x1="46.758%" y1="49.722%" x2="-45.734%" y2="55.178%" id="bb"><stop stop-color="#3289F8" offset="0%"/><stop stop-color="#75A9FA" offset="100%"/></linearGradient><linearGradient x1="50.212%" y1="60.31%" x2="52.698%" y2="22.352%" id="bc"><stop stop-color="#A5C2F9" offset="0%"/><stop stop-color="#A5C2F9" offset=".286%"/><stop stop-color="#C9DBFA" offset="65.19%"/><stop stop-color="#D6E4FA" offset="100%"/></linearGradient><linearGradient x1="59.873%" y1="50.674%" x2="-1.952%" y2="67.856%" id="bd"><stop stop-color="#75A9FA" offset="0%"/><stop stop-color="#3289F8" offset="100%"/></linearGradient><linearGradient x1="46.771%" y1="49.761%" x2="24.913%" y2="50.134%" id="be"><stop stop-color="#A5C2F9" offset="0%"/><stop stop-color="#A5C2F9" offset=".286%"/><stop stop-color="#C9DBFA" offset="65.19%"/><stop stop-color="#D6E4FA" offset="100%"/></linearGradient><linearGradient x1="79.627%" y1="57.94%" x2="38.519%" y2="45.937%" id="bf"><stop stop-color="#1F5BAF" offset="0%"/><stop stop-color="#3289F8" offset="100%"/></linearGradient><linearGradient x1="101.457%" y1="16.274%" x2="65.631%" y2="46.745%" id="bg"><stop stop-color="#1F5BAF" offset="0%"/><stop stop-color="#3289F8" offset="100%"/></linearGradient><linearGradient x1="61.515%" y1="98.464%" x2="53.142%" y2="56.919%" id="bh"><stop stop-color="#3289F8" offset="0%"/><stop stop-color="#75A9FA" offset="100%"/></linearGradient><linearGradient x1="48.696%" y1="60.573%" x2="52.692%" y2="20.454%" id="bi"><stop stop-color="#1F4A8A" offset="0%"/><stop stop-color="#1F5BAF" offset="100%"/></linearGradient><linearGradient x1="-36.059%" y1="96.762%" x2="-24.204%" y2="89.51%" id="bj"><stop stop-color="#3289F8" offset="0%"/><stop stop-color="#1F5BAF" offset="100%"/></linearGradient><linearGradient x1="53.195%" y1="54.115%" x2="-14.605%" y2="40.052%" id="bk"><stop stop-color="#A5C2F9" offset="0%"/><stop stop-color="#ABC6F9" offset="4.093%"/><stop stop-color="#C7DAFA" offset="28.37%"/><stop stop-color="#DCE8FB" offset="52.61%"/><stop stop-color="#E8F0FB" offset="76.59%"/><stop stop-color="#ECF3FB" offset="100%"/></linearGradient><linearGradient x1="-2.606%" y1="48.418%" x2="62.948%" y2="50.669%" id="bl"><stop stop-color="#ECF3FB" offset="0%"/><stop stop-color="#E8F0FB" offset="23.41%"/><stop stop-color="#DCE8FB" offset="47.39%"/><stop stop-color="#C7DAFA" offset="71.63%"/><stop stop-color="#ABC6F9" offset="95.91%"/><stop stop-color="#A5C2F9" offset="100%"/></linearGradient><linearGradient x1="50.286%" y1="44.061%" x2="52.061%" y2="8.53%" id="bm"><stop stop-color="#1F4A8A" offset="0%"/><stop stop-color="#1F5BAF" offset="100%"/></linearGradient><linearGradient x1="-63.082%" y1="88.24%" x2="-42.604%" y2="80.771%" id="bn"><stop stop-color="#3289F8" offset="0%"/><stop stop-color="#1F5BAF" offset="100%"/></linearGradient><linearGradient x1="60.156%" y1="50.711%" x2="114.199%" y2="51.885%" id="bo"><stop stop-color="#1F5BAF" offset="0%"/><stop stop-color="#3289F8" offset="100%"/></linearGradient><linearGradient x1="77.297%" y1="49.94%" x2="105.446%" y2="49.94%" id="bp"><stop stop-color="#1F5BAF" offset="0%"/><stop stop-color="#3289F8" offset="100%"/></linearGradient><linearGradient x1="30.177%" y1="49.383%" x2="88.547%" y2="58.184%" id="bq"><stop stop-color="#ECF3FB" offset="0%"/><stop stop-color="#E8F0FB" offset="23.41%"/><stop stop-color="#DCE8FB" offset="47.39%"/><stop stop-color="#C7DAFA" offset="71.63%"/><stop stop-color="#ABC6F9" offset="95.91%"/><stop stop-color="#A5C2F9" offset="100%"/></linearGradient><linearGradient x1="66.162%" y1="55.137%" x2="37.697%" y2="47.617%" id="br"><stop stop-color="#A5C2F9" offset="0%"/><stop stop-color="#ABC6F9" offset="4.093%"/><stop stop-color="#C7DAFA" offset="28.37%"/><stop stop-color="#DCE8FB" offset="52.61%"/><stop stop-color="#E8F0FB" offset="76.59%"/><stop stop-color="#ECF3FB" offset="100%"/></linearGradient><linearGradient x1="79.498%" y1="66.661%" x2="40.809%" y2="40.303%" id="bs"><stop stop-color="#1F4A8A" offset="0%"/><stop stop-color="#1F5BAF" offset="100%"/></linearGradient><linearGradient x1="50.944%" y1="45.751%" x2="44.901%" y2="65.041%" id="bt"><stop stop-color="#3289F8" offset="0%"/><stop stop-color="#276FCF" offset="100%"/></linearGradient><linearGradient x1="174.92%" y1="94.334%" x2="5.89%" y2="34.202%" id="bu"><stop stop-color="#3289F8" offset="0%"/><stop stop-color="#1F5BAF" offset="100%"/></linearGradient><linearGradient x1="79.875%" y1="49.867%" x2="-13.384%" y2="49.867%" id="bv"><stop stop-color="#A5C2F9" offset="0%"/><stop stop-color="#ABC6F9" offset="4.093%"/><stop stop-color="#C7DAFA" offset="28.37%"/><stop stop-color="#DCE8FB" offset="52.61%"/><stop stop-color="#E8F0FB" offset="76.59%"/><stop stop-color="#ECF3FB" offset="100%"/></linearGradient><linearGradient x1="41.973%" y1="49.364%" x2="98.173%" y2="53.026%" id="bw"><stop stop-color="#ECF3FB" offset="0%"/><stop stop-color="#E8F0FB" offset="23.41%"/><stop stop-color="#DCE8FB" offset="47.39%"/><stop stop-color="#C7DAFA" offset="71.63%"/><stop stop-color="#ABC6F9" offset="95.91%"/><stop stop-color="#A5C2F9" offset="100%"/></linearGradient><linearGradient x1="33.824%" y1="44.609%" x2="72.139%" y2="75.508%" id="bx"><stop stop-color="#1F4A8A" offset="0%"/><stop stop-color="#1F5BAF" offset="100%"/></linearGradient></defs><g fill="none" fill-rule="evenodd"><path d="M162.7 26.7l-42-24.2c-5.8-3.3-15.2-3.3-20.9 0l-2.2 1.3-2.2-1.3c-5.8-3.3-15.2-3.3-20.9 0l-70 40.7c-5.8 3.3-5.7 8.8.1 12.1l42 24.2c3.1 1.8 7.2 2.6 11.2 2.5 3.5-.1 20.6 0 24.3 0 3.9 0 7.8-.8 10.8-2.5l70-40.7c5.6-3.3 5.6-8.7-.2-12.1z" transform="translate(115 244)" fill="url(#a)"/><path d="M232.1 2.2C219.1-.5 204 1 193.6 7.1L4.7 116.9c-5.7 3.3-5.7 8.7.1 12.1l12.7 7.4c3.1 1.8 7.2 2.6 11.3 2.5 3.5-.1 20.6 0 24.4 0 3.8 0 7.7-.8 10.6-2.5l168.6-98s12.8-38.9-.3-36.2z" transform="translate(0 105)" fill="url(#b)"/><path d="M104.3 27.8L57.6.8C54.7-.9-3.2 69.3.6 69.3h46.7c3.9 0 7.7-.8 10.7-2.5l46.4-27c5.8-3.2 5.7-8.7-.1-12z" transform="translate(92 157)" fill="url(#c)"/><path d="M307.3 228.9l-129.5 75.3L66.6 240c-4.5-2.6-4.5-6.8-.1-9.4l44.3-25.7.7.4L67.3 231c-4.1 2.4-4 6.2 0 8.6l110.4 63.8 128.1-74.5-5.8-3.4-87.7 50.9-.7-.4 88.4-51.4 7.3 4.3z" fill="#DEEBFF"/><path d="M111.6 29.5L73 7.2c-10.6-6.1-25.9-7.8-38.9-5-13-2.7 3.8 38.1 3.8 38.1 4.1 2.3 4.1 6.2 0 8.5l-32.7 19c-5.8 3.3-5.7 8.8.1 12.1L18 87.3c2.9 1.7 6.7 2.5 10.6 2.5h25.2c3.8 0 7.6-.8 10.5-2.5L112 59.6c14.3-8.2 14.1-21.8-.4-30.1z" transform="translate(198 105)" fill="url(#d)"/><path d="M.2 49.8v8.6c0 2.2 1.5 4.4 4.4 6.1l42 24.2c5.8 3.3 15.2 3.3 20.9 0l70-40.7c2.9-1.7 4.3-3.8 4.3-6v-8.6L.2 49.8z" fill="url(#e)" transform="translate(115 235)"/><path d="M252.3 263.4c5.8 3.3 5.8 8.8.1 12.1l-70 40.7c-5.8 3.3-15.1 3.3-20.9 0l-42-24.2c-5.8-3.3-5.8-8.8-.1-12.1l70-40.7c5.8-3.3 15.1-3.3 20.9 0l42 24.2z" fill="#FFF"/><path d="M137.3 27.3c5.8 3.3 5.8 8.8.1 12.1l-70 40.7c-5.8 3.3-15.1 3.3-20.9 0l-42-24.2c-5.8-3.3-5.8-8.8-.1-12.1l70-40.7c5.8-3.3 15.1-3.3 20.9 0l42 24.2z" fill="url(#f)" transform="translate(115 235)"/><path d="M39.5 122.8h38v95.8h-38z" fill="#2363BE"/><path d="M.2 1.8l-.2 95c0 2.2 1.4 4.4 4.4 6.1l6 3.4.2-69.7c0-4.8 3.4-6.7 7.5-4.3l12.5 7.2V.3C13.1.6.2 1.1.2 1.8z" transform="translate(31 94)" fill="url(#g)"/><path d="M227.8 1.2C213.3-7.1.4 103.1.4 105.3v8.6c0 2.2 1.4 4.4 4.4 6.1l12.7 7.4c5.8 3.3 15.2 3.3 20.9 0L212.3 26.3c4-2.4 10.6-2.4 14.7 0l15.4 8.9 24.2-19-38.8-15z" transform="translate(0 114)" fill="url(#h)"/><path d="M43.4 8.2L11 25.3c-2.9 1.7-11 1.9-11 4v8.6c0 2.2 1.4 4.4 4.4 6.1l12.7 7.4c5.8 3.3 15.2 3.3 20.9 0l47.7-27.7c7-4.1 10.5-9.5 10.6-14.8V.3L43.4 8.2z" transform="translate(199 141)" fill="url(#i)"/><path d="M284.3 127c14.5 8.3 14.6 21.9.4 30.1L237 184.8c-5.8 3.3-15.1 3.3-20.9 0l-12.7-7.4c-5.8-3.3-5.8-8.8-.1-12.1l32.7-19c4-2.4 4-6.2 0-8.5l-8.9-5.1c-4.1-2.3-10.6-2.3-14.7 0L38.5 233.8c-5.8 3.3-15.1 3.3-20.9 0l-12.7-7.4c-5.8-3.3-5.8-8.8-.1-12.1l188.9-109.8c14.2-8.3 37.6-8.2 52 .1l38.6 22.4z" fill="#FFF"/><path d="M284.3 28.9c14.5 8.3 14.6 21.9.4 30.1L237 86.8c-5.8 3.3-15.1 3.3-20.9 0l-12.7-7.4c-5.8-3.3-5.8-8.8-.1-12.1l32.7-19c4-2.4 4-6.2 0-8.5l-8.9-5.1c-4.1-2.3-10.6-2.3-14.7 0L38.5 135.8c-5.8 3.3-15.1 3.3-20.9 0l-12.7-7.4c-5.8-3.3-5.8-8.8-.1-12.1L193.7 6.5c14.2-8.3 37.6-8.2 52 .1l38.6 22.3z" transform="translate(0 97)" fill="url(#j)"/><g stroke-linecap="round" stroke-linejoin="round"><path d="M228.2 155.1l24.6 14.4m-42.5-4l24.6 14.3m37.3-22.2L244 145.7M225.1 126l11.5-19m26.9 11.2l-24.7 14.2m42 4.2l-34.5 2.5" stroke="#BED6ED"/><path d="M128.1 175.5l-24.6-14.3m42.5 4l-24.6-14.4m42.4 4l-24.5-14.4m42.4 4L157.1 130m42.5 4L175 119.6" stroke="#CEE0F5"/><path d="M213.6 126.6l-14-18.6" stroke="#C5DCEF"/><path d="M92.4 196.3l-24.6-14.4m42.4 4l-24.5-14.4m-11.2 35.2L50 192.3m-11.2 35.2l-24.6-14.4m42.4 4l-24.5-14.4" stroke="#CEE0F5"/></g><path d="M0 .4v37.2l.5.3 9.8 5.7c4.1 2.4 7.5 8.2 7.5 12.9l-.2 69.7 6.5 3.7c5.8 3.3 15.2 3.3 20.9 0l46.4-27c2.9-1.7 4.3-3.8 4.3-6l.2-95.1C95.9.3.2.4 0 .4z" transform="translate(58 94)" fill="url(#k)"/><path d="M0 .4v37.2l.5.3 9.8 5.7c4.1 2.4 7.5 8.2 7.5 12.9l-.2 69.7 6.5 3.7c5.8 3.3 15.2 3.3 20.9 0l46.4-27c2.9-1.7 4.3-3.8 4.3-6l.2-95.1C95.9.3.2.4 0 .4z" transform="translate(58 94)" fill="url(#l)"/><path d="M68.3 12.5l-6.8-3.9L49 1.4C44.9-1 41.5.9 41.5 5.7L41.3 67 4.7 88.3c-5.8 3.3-5.7 8.8.1 12.1l12.7 7.4c5.8 3.3 15.2 3.3 20.9 0L75 86.5l.5-.3.1-39.1.1-21.6c.1-4.8-3.3-10.6-7.4-13z" transform="translate(0 125)" fill="url(#m)"/><path d="M149.5 91.1c5.8 3.3 5.8 8.8.1 12.1l-46.4 27c-5.8 3.3-15.1 3.3-20.9 0l-46.7-27c-5.8-3.3-5.8-8.8-.1-12.1l46.4-27c5.8-3.3 15.1-3.3 20.9 0l46.7 27z" fill="#FFF"/><path d="M118.5 29.7c5.8 3.3 5.8 8.8.1 12.1l-46.4 27c-5.8 3.3-15.1 3.3-20.9 0l-46.7-27c-5.8-3.3-5.8-8.8-.1-12.1l46.4-27C56.7-.6 66-.6 71.8 2.7l46.7 27z" transform="translate(31 60)" fill="url(#n)"/><path d="M134.2 95.6c0 1.4-.9 2.7-2.7 3.7l-32.5 19c-3.6 2.1-9.4 2.1-12.9 0L53.4 99.4c-1.8-1-2.7-2.4-2.7-3.7 0-1.4 41.9-22.7 41.9-22.7s41.6 21.3 41.6 22.6z" fill="#2363BE"/><path d="M3.3 24.9L35.8 6c3.6-2.1 9.4-2.1 12.9 0l32.7 18.9c.9.5 1.6 1.1 2 1.8 1.3-1.9.7-4.2-2-5.7L48.8 2C45.2-.1 39.4-.1 35.9 2L3.3 20.9c-2.7 1.5-3.3 3.8-2 5.7.5-.6 1.1-1.2 2-1.7z" transform="translate(50 71)" fill="url(#o)"/><path d="M.7.3L.6 56.7c0 1.4.9 2.7 2.7 3.8L36 79.4c3.6 2.1 9.4 2.1 12.9 0l32.5-18.9c1.8-1 2.7-2.4 2.7-3.7L84.2.4.7.3z" fill="url(#p)" transform="translate(50 39)"/><path d="M23.7 61.6V24.4c0-1.3-1.1-2.4-2.4-2.4-1.3 0-2.3 1.1-2.3 2.4v37.2h4.7z" fill="url(#q)" transform="translate(50 39)"/><path d="M47.1 77V48.7c0-1.3-1.1-2.4-2.4-2.4-1.3 0-2.4 1.1-2.4 2.4V77h4.8z" fill="url(#r)" transform="translate(50 39)"/><path d="M30.2 74.7V58c0-1.3-1.1-2.4-2.4-2.4-1.3 0-2.4 1.1-2.4 2.4v16.6h4.8v.1z" fill="url(#s)" transform="translate(50 39)"/><path d="M68.8 55.8V18.6c0-1.3-1.1-2.4-2.4-2.4-1.3 0-2.4 1.1-2.4 2.4v37.2h4.8z" fill="url(#t)" transform="translate(50 39)"/><path d="M36.1 53.7V38.5c0-.9-.7-1.6-1.6-1.6-.9 0-1.6.7-1.6 1.6v15.2h3.2z" fill="url(#u)" opacity=".7" transform="translate(50 39)"/><path d="M63.7 59.7v-6c0-.9-.7-1.6-1.6-1.6-.9 0-1.6.7-1.6 1.6v6h3.2z" fill="url(#v)" opacity=".7" transform="translate(50 39)"/><path d="M57.2 55.3V31c0-.9-.7-1.6-1.6-1.6-.9 0-1.6.7-1.6 1.6v24.3h3.2z" fill="url(#w)" opacity=".7" transform="translate(50 39)"/><path d="M3.3 21.9L35.8 3C39.4.9 45.2.9 48.7 3l32.7 18.9c1.6.9 2.5 2.1 2.6 3.3.3-1.5-.6-3.1-2.6-4.3L48.7 2C45.1-.1 39.3-.1 35.8 2L3.3 20.8C1.3 22 .4 23.6.7 25.1c.2-1.1 1.1-2.3 2.6-3.2z" transform="translate(50 70)" fill="url(#x)"/><path d="M45.8 1.7c2.7 1.5 2.7 4 0 5.6L11.8 27c-2.6 1.5-7 1.5-9.6 0-2.6-1.5-2.7-4 0-5.6l34-19.7c2.6-1.6 6.9-1.6 9.6 0z" transform="translate(17 197)" fill="url(#y)"/><path d="M113.8 2.1c1.3.7 2.1 1.8 2.1 2.9 0 2.3-3.2 4.1-7.1 4.1H70.6c-2 0-3.7-.5-5-1.2-1.3-.7-2.1-1.8-2.1-2.9 0-2.3 3.2-4.1 7.1-4.1h38.2c1.9-.1 3.7.4 5 1.2z" fill="url(#z)" transform="translate(170 118)"/><path d="M50.6 71c1.3.7 2.1 1.8 2.1 2.9 0 2.3-3.2 4.1-7.1 4.1H7.4c-2 0-3.7-.5-5-1.2C1.1 76.1.3 75 .3 73.9c0-2.3 3.2-4.1 7.1-4.1h38.2c1.9 0 3.7.5 5 1.2z" fill="url(#A)" transform="translate(170 118)"/><path d="M7.7 49.4c-.5-.3-.2-2.4.5-2.4.7-.1 1.4.1 2.2.6.9.5 2.8 1.7 3.2 2.1.5.5-.4.8-1.3.7-.9-.1-3.6-.4-4.6-1z" fill="url(#B)" transform="translate(234 72)"/><path d="M10.2 24.6c-.2.1-.3-.2-.1-.5.3-.4.7-.7.5-1.3-.1-.4-.6 1-1 .6-.1-.2.3-1 .4-1.6.1-.6-.1-1.6.2-1.9.3-.3.9-.5.9-.5s.6 1.5.7 2.4c.3.9-.4 2.5-1.6 2.8z" fill="url(#C)" transform="translate(234 72)"/><path d="M12.2 16.5c-.1 1.7-.2 3.3-.5 4.1-.5 1.2-1.1 1.1-1.3-.1-.4-2.1-1-7.1-1-8.1v-.7C9.2 10 7.8 4.2 7.9 2.9c.1-1.6 2.6-1.5 3.2 1.9.3 1.4.5 2.9.7 4.2.3 2.3.6 5.2.4 7.5z" fill="url(#D)" transform="translate(234 72)"/><path d="M9.6 47.5s1.7-11.3 1.8-12.4c.2-2.3-.5-3.3-1.5-3.3s-1.7 1.5-1.8 2.9c-.1 1.5-.6 11.2-.3 12.7.2.9 1.6.6 1.8.1z" fill="url(#E)" transform="translate(234 72)"/><path d="M10.7 19c.7 3 1.3 11.6 1.3 14.2 0 1.6-.6 13.7-.6 13.7s-2.6.9-3.9.3c0 0 .2-11.9.1-12.9S5.7 22.2 5.7 22.2l5-3.2z" fill="url(#F)" transform="translate(234 72)"/><path d="M1.6 52.7c-.5-.3-.2-2.4.5-2.4.7-.1 1.4.1 2.2.6.9.5 2.8 1.7 3.2 2.1.4.4-.4.8-1.3.7-.8-.1-3.6-.4-4.6-1z" fill="url(#G)" transform="translate(234 72)"/><path d="M3.5 50.8s1.7-11.3 1.8-12.4c.2-2.3-.5-3.3-1.5-3.3-.9 0-1.7 1.5-1.8 2.9-.1 1.5-.6 11.2-.3 12.7.3.9 1.6.6 1.8.1z" fill="url(#H)" transform="translate(234 72)"/><path d="M7 22.8c-.1 2.3-1.1 14.7-1.1 14.7l-.3 11.9s-1.5 1.9-3.5 1.1l-.5-.1.4-13.7s-.8-11-.1-15.6c.7-4.6 5.1 1.7 5.1 1.7z" fill="url(#I)" transform="translate(234 72)"/><path d="M1.2 24.6c.7 3.3 10 1 10-2.4s0-6.4.3-11.3.1-7.8-2-9.2c-.8-.6-2.3-1-3.4-.9-1 .1-1.1.1-2 .5-1.2.5-2.6 1.5-3.2 2.3-1.6 2 .3 5.9.4 8.4.2 2.6-.6 10-.1 12.6z" fill="url(#J)" transform="translate(234 72)"/><path d="M2.7 27.8c.2 0 .2-.3 0-.5-.4-.3-.8-.5-.9-1.2 0-.5.9.9 1.1.3.1-.2-.6-1-.8-1.6-.2-.6-.3-1.7-.7-1.9-.4-.1-1-.2-1-.2s-.2 1.7-.1 2.7c.2.9 1.2 2.4 2.4 2.4z" fill="url(#K)" transform="translate(234 72)"/><path d="M6.3 10.4c-.7.4.6 2.9 2.5 3.5 2 .6 1.5-3 .5-3.8-1-.8-3 .3-3 .3z" fill="url(#L)" transform="translate(232 63)"/><path d="M3.9 12.1c-2 .3-2.7 5-2.9 8.2-.2 3.2.4 10 .7 11.1.3 1.1.2 2.6 1.4 2.6 1.1 0 1.1-2 1.1-3.7 0-1.7.1-5.5.4-8.4.3-2.9 1.1-7.4.4-8.5-.7-1.1-.8-1.3-1.1-1.3z" fill="url(#M)" transform="translate(232 63)"/><path d="M6.4 10.7c-.1-.2-.1-1.3-.2-1.5-.4-1-1-2.3-1.1-4.8C5 1.8 7 .9 8.4.9c1.9 0 3.3 1.5 3.2 3.7-.1 1.9-.1 3.8-1 4.2-1.8.8-.8 2-1.6 2.4-.7.4-2.3.4-2.6-.5z" fill="url(#N)" transform="translate(232 63)"/><path d="M12.4 2.1C12.1.8 9.5-.1 7.6.4 5.7 1 5.9 1.6 5.9 1.6c-1.4.5-1.4 1.7-1.1 3.6C5.2 7.2 5.4 9 6 9s.3-1.8.2-2.6c-.2-1.1.4-1.3.6-.9.2.3.4.6.6.6.7 0 0-1.6.8-2 .4-.2 1.2.1 1.9.1 1.6.1 2.6-.7 2.3-2.1z" fill="url(#O)" transform="translate(232 63)"/><path d="M62.2 10.9c2.1 1.2 2.1 3.1 0 4.3L26.7 35.9c-2 1.2-5.4 1.2-7.5 0L2.5 26.3C.4 25.1.4 23.2 2.5 22L38 1.3c2.1-1.2 5.4-1.2 7.5 0l16.7 9.6z" transform="translate(151 254)" fill="url(#P)"/><path d="M31 12.2H8.6c-1.4 0-2.7-.3-3.7-.9L2.2 9.8C.1 8.6.1 6.7 2.2 5.5l7.1-4.1c1-.6 2.3-.9 3.6-.9h38.5L31 12.2z" transform="translate(189 281)" fill="url(#Q)"/><path d="M5.1 19s-2 1.5-2.9 2c-.5.4-1.2.8-.8 1.1.4.3 4.2-.7 5.4-1 1.2-.3 2-1.1 1.6-1.6-.3-.6-1.4-1.6-2.2-1.2l-1.1.7z" fill="url(#R)" transform="translate(181 261)"/><path d="M5.3 8.6s1.9 8.2 2.2 9.6c.1.5 0 .7-.5.7s-1.2.1-1.5-.4C5.5 18.5.1 7.4.6 4.2 1 1 4 3.5 5.3 8.6z" fill="url(#S)" transform="translate(181 261)"/><path d="M20.9 4.4C19.9 4 13.5 1.6 9.2.7c-2-.4-3.2-.2-3.4.6-.2 1.3.4 2.4 3.5 4.2.8.5 4.4 1.9 5.6 2.5 0 0 1.7 1.5 3.9 1.7 4.9.4 3.9-4.5 3.9-4.5s-.6-.4-1.8-.8z" fill="url(#T)" transform="translate(181 261)"/><path d="M8.6 12.8v14.7c0 .8.5 1.6 1.6 2.2l2.7 1.5c2.1 1.2 5.4 1.2 7.5 0l7.1-4.1c1-.6 1.5-1.4 1.5-2.1V10.3S8.6 12 8.6 12.8z" fill="url(#U)" transform="translate(181 261)"/><path d="M30.7 2.8c0-2.2-1.6-3.1-3.5-2l-24 13.8C1.5 15.6.1 18 .1 19.9v45.2c0 2.5 1.8 3.6 4 2.3l24.2-13.9c1.3-.7 2.4-2.6 2.4-4.1V2.8z" transform="translate(112 125)" fill="url(#V)"/><path d="M26.6 2.1c0-1.3-.9-1.8-2-1.2l-22 12.6c-1.1.6-2 2.2-2 3.5v39.5c0 1.3.9 1.8 2 1.2l22-12.6c1.1-.6 2-2.2 2-3.5V2.1z" transform="translate(114 128)" fill="url(#W)"/><path d="M130.2 149.2v2.2l-10.8 6.3v-2.2zm5.6-8.6v2.2l-16.4 9.5v-2.2z" fill="#6EA9FF"/><path d="M128.2 160.5c2.5-1.5 4.6-.3 4.6 2.6s-2.1 6.5-4.6 8c-2.6 1.5-4.6.3-4.6-2.6-.1-3 2-6.6 4.6-8zm-.9 8.8l4.2-7.3-.8-.5-3.4 5.9-1.6-.9-.8 1.4 2.4 1.4z" fill="#E0E9FD" fill-rule="nonzero"/><path d="M19.3 4.8l-3.5-4L.9 9.5 4 15c.3.1.5.1.6 0l14.9-8.7c.3-.2.3-.9-.2-1.5z" fill="url(#X)" transform="translate(119 177)"/><path d="M119.9 186.4l3.5 4c.7.9.5 2-.4 1.5l-3.1-1.8v-3.7z" fill="#BFD2FC"/><path d="M79.5 7.4l3.5-4 14.9 8.7-3.1 5.5c-.3.1-.5.1-.6 0L79.3 8.9c-.3-.1-.3-.9.2-1.5z" fill="url(#Y)" transform="translate(119 177)"/><path d="M216.9 189l-3.5 4c-.7.9-.5 2 .4 1.5l3.1-1.8V189z" fill="#BFD2FC"/><path d="M9.2 49c-.6-.2-.2-2.4.5-2.4.7-.1 1.4.1 2.2.6.9.5 2.9 1.2 3.4 1.7s-.4.8-1.3.7c-.8-.1-3.1-.1-4.8-.6z" fill="url(#Z)" transform="translate(171 141)"/><path d="M10.1 17.3c1.7.3 1.5 3.4.5 4.2-1 .8-.5-4.2-.5-4.2z" fill="url(#aa)" transform="translate(171 141)"/><path d="M14.2 8.7c0-.3 0-.7-.1-1.2-.3-1.3-.6-2.6-1.8-4.6-2.1-3.3-4.1-.6-3.7.8.3 1.1 2.6 4 3.1 5.2 0 .1.1.1.1.2-.1.1-.1.2-.2.3-.4 1-.9 6.2-1.5 8.4-.3 1.2.1 1.7 1.1.7 1.5-1.4 2.8-7.5 3-9 .1-.3.1-.6 0-.8z" fill="url(#ab)" transform="translate(171 141)"/><path d="M11.2 47.1s1.7-11.3 1.8-12.4c.2-2.3-.5-3.3-1.5-3.3-.9 0-1.7 1.5-1.8 2.9-.1 1.5-.6 11.2-.3 12.7.2.8 1.6.6 1.8.1z" fill="url(#ac)" transform="translate(171 141)"/><path d="M1.8 52.6c-.4-.4-.2-2.4.4-2.3.6.1 1.3.4 2 1s2.4 2.2 2.7 2.8c.3.6-1 .8-1.8.5-.8-.3-2.4-1.2-3.3-2z" fill="url(#ad)" transform="translate(171 141)"/><path d="M3.5 51.1s1.7-11.3 1.8-12.4c.2-2.3-.5-3.3-1.5-3.3S2.1 36.9 2 38.3c-.1 1.5-.6 11.2-.3 12.7.2.9 1.6.7 1.8.1z" fill="url(#ae)" transform="translate(171 141)"/><path d="M6.2 22.9s2.9 8.5 3.1 9.7c.2 1.2-.5 11.6-.3 13.8 0 0 4.1 0 4.1-.6 0 0 .2-11.2.4-13 .1-1.8-1.4-10.8-1.8-12.7-.4-1.9-5.4 2.7-5.5 2.8z" fill="url(#af)" transform="translate(171 141)"/><path d="M1.6 22.8c0 2.9.2 10.2.5 14.2 0 0-.7 11.9-.5 13.7 0 0 3.6.2 4.2-.5 0 0 .7-11.6.8-13.4 0-1.7.5-11.3.5-11.3s.6-1.5 1.1-3.2c.3-1.6-6.6.5-6.6.5z" fill="url(#ag)" transform="translate(171 141)"/><path d="M10.8 20.3c0-3.4 1-6.6 1.3-11.5.3-4.9-.3-7.2-2.1-7.9-1.8-.7-6.8.9-8.4 2.9-1.6 2 .4 5.4.5 8 .1 2.6-1 8.5-.5 11.1l6.3-.5 2.9-2.1z" fill="url(#ah)" transform="translate(171 141)"/><path d="M.2 2C1 1.9 1 .7 1 .7s.2 1 1 .9l-.4.7 2.8 5-2.1 2.5L.6 8.7l.6-6.3-1-.4z" transform="translate(178 143)" fill="url(#ai)"/><g transform="translate(171 141)"><path d="M.9 14.3c.3-5.4.3-9.9 1.3-11.1 1-1.2 3.4-2 3.4-2l-.1.4c-.6 1.7 4 9 4 9s.7-6.8-1.1-9.4l.2-.7s1.5.1 2.2.7c.7.7 1.7 1.5 1.5 5.4-.1 2.2-.9 10.3-.9 11.4 0 1.1.8 5.6.8 5.6s-.1.3-.5.4c-2.5.9-3-1.8-3-1.8s-.9 3.1-2.7 3.7c-2.8.9-5.4-1.2-5.4-1.2l.3-10.4z" fill="url(#aj)"/><ellipse fill="url(#ak)" cx="9.5" cy="14.3" rx="1" ry="1"/><ellipse fill="url(#al)" cx="9.3" cy="18" rx="1" ry="1"/></g><path d="M2.6 10.7c-.1-.2-.1-1.3-.2-1.5-.4-1-1-2.3-1.1-4.8C1.2 1.8 3.2.9 4.6.9c1.9 0 3.3 1.5 3.2 3.7-.1 1.9-.1 3.8-1 4.2-1.8.8-.8 2-1.6 2.4-.7.4-2.3.4-2.6-.5z" fill="url(#am)" transform="translate(174 132)"/><path d="M8.6 2.1C8.3.8 5.7-.1 3.8.4 1.9.9 2.1 1.6 2.1 1.6.7 2.1.7 3.3 1 5.2c.4 2 .6 3.8 1.2 3.8s.3-1.8.2-2.6c-.2-1.1.4-1.3.6-.9.2.3.4.6.6.6.7 0 0-1.6.8-2 .4-.2 1.2.1 1.9.1 1.5 0 2.6-.7 2.3-2.1z" fill="url(#an)" transform="translate(174 132)"/><path d="M3.1 17.5c.7-.6 1.5.2 2.3.4.5.1.3.6 0 .6-.7 0 0 .2-.1 1s-.8.8-1.4.1c-.6-.7-1-1.9-.8-2.1z" fill="url(#ao)" transform="translate(169 144)"/><path d="M4.9 17.4c-.3-1.5-1.5-5.4-1.6-6.1.5-1.9 2.2-7.5 2.3-8.8C5.8.9 4.1-1.9 2 3.8 1 6.6.4 9.1.5 11c.2 3 1.7 7.4 1.7 7.4l2.7-1z" fill="url(#ap)" transform="translate(169 144)"/><g fill="#284B8C"><path d="M176.6 142.2v.3s-.3.5.1 1.5c.3 1 2.8 6 3.9 7.6 0 0-2.8-2.5-3.6-3.3-.6-.6-1.6-1.9-1.6-1.9l1.2-.9-1.2-.3c-.1.1.1-2.5 1.2-3z"/><path d="M180.6 151.6s.3-3.2 0-5.7c-.3-2.4-1-3.5-1-3.5l.1-.4 2.1 1.7-.8.9 1.2.4s-.6 4-1.6 6.6z"/></g><path d="M45.6 76.8v1.3c0 .8.5 1.6 1.6 2.2l2.7 1.5c2.1 1.2 5.4 1.2 7.5 0l7.1-4.1c1-.6 1.5-1.4 1.5-2.1v-1.3S45.6 76 45.6 76.8z" fill="url(#aq)" transform="translate(144 197)"/><path d="M52 71.2c-1.8-1-6.7-3.9-10.8-4.7-1.9-.4-3.4.3-3.5 1.2-.2 1.3.6 1.9 3.5 3.7 1 .6 4.2 2.7 5.3 3.3 0 0 1.8 1.3 4.4 1.8 4.6.9 2.7-4.1 2.7-4.1s-.5-.7-1.6-1.2z" fill="url(#ar)" transform="translate(144 197)"/><path d="M63.4 51.6c0-.8-62.8 10.2-62.8 11v1.3c0 .8.5 1.6 1.6 2.2l16.7 9.6c2.1 1.2 5.4 1.2 7.5 0L61.9 55c1-.6 1.5-1.4 1.5-2.1v-1.3z" fill="url(#as)" transform="translate(144 197)"/><path d="M61.9 49.4c2.1 1.2 2.1 3.1 0 4.3L26.4 74.4c-2 1.2-5.4 1.2-7.5 0L2.2 64.8c-2.1-1.2-2.1-3.1 0-4.3l35.5-20.7c2.1-1.2 5.4-1.2 7.5 0l16.7 9.6z" fill="url(#at)" transform="translate(144 197)"/><path d="M42.8.5c1.1-.6 2-.1 2 1.1l.1 25.4c0 1.3-.9 2.8-2 3.5L8.7 50.3c-1.1.6-2 .1-2-1.1l-.1-25.4c0-1.3.9-2.8 2-3.5L42.8.5z" fill="url(#au)" transform="translate(144 197)"/><path d="M44.7 56.9c.9.5.9 1.3 0 1.8l-10.1 5.9c-.9.5-2.2.5-3.1 0l-3.1-1.8c-.9-.5-.9-1.3 0-1.8l10.1-5.9c.9-.5 2.2-.5 3.1 0l3.1 1.8z" fill="url(#av)" transform="translate(144 197)"/><path d="M64.4 72c2.1 1.2 2.1 3.1 0 4.3l-7.1 4.1c-2.1 1.2-5.4 1.2-7.5 0l-2.7-1.5c-2.1-1.2-2.1-3.1 0-4.3l7.1-4.1c2.1-1.2 5.4-1.2 7.5 0l2.7 1.5z" fill="url(#aw)" transform="translate(144 197)"/><path fill="url(#ax)" d="M44.8 32.5l.1 9.6L6.6 64.2v-9.6z" transform="translate(144 197)"/><ellipse cx="8.3" cy="4.3" rx="7.9" ry="3.7" transform="translate(192 267)" fill="url(#ay)"/><path d="M21 12c-1 .4-5.5 1.8-7.6 2.6-.5-.2-1.4-.4-2-.4-.9-.1-2.4.7-2.7 1.9 0 .2.3.2.5.1.4-.3.7-.7 1.3-.6.4.1-1 .7-.5 1 .2.1 1-.4 1.6-.5.4-.1 1-.1 1.5-.2.1 0 .2.1.3.1 1.9.4 8-.9 9.2-1.5 1.7-1 .6-3.4-1.6-2.5z" fill="url(#az)" transform="translate(175 239)"/><path d="M2.7 19.4c.6 0 1.7.2 2.3-.4.9-.9-.6-1.6-1.3-1.7-.7-.1-1.8.7-2.4 1.7-.3.5-.5 1.1-.3 1.3.2.2.5 0 .6-.3.2-.2.5-.6 1.1-.6z" fill="url(#aA)" transform="translate(175 239)"/><path d="M29.2 27c.4 1.3 1.9 4.7-1.4 6.5-3.1 1.6-6 1.9-7.6 1.6-1.6-.3-7.9-4.2-7.9-4.2-1.4-1.4-1.4-4.5.2-5 1.6-.5 2.6-.2 3.5-1.5.8-1.2 1.4-1.2 1.8-1.2L29.2 27z" fill="url(#aB)" transform="translate(175 239)"/><path d="M18.8 11.4c-.5.6-.3.9-.1 5.8 0 1.3 1.3 1.8 1.3 2.6.1 1.6.2 3 .2 3.6.1 1.9 0 3-.2 3.9-.2 1.3.7 2.5 2.1 2.6 3.1.2 7.3-.9 7.2-3-.1-3.2-.5-3.1-.2-5.7.6-6.7.3-12.4-2.6-13.3 0 .2-6.3 1.9-7.7 3.5z" fill="url(#aC)" transform="translate(175 239)"/><path d="M19.8 1.7c-1 1.4-.5 5.1.2 5.7.5.5 1.1.3 1.8.5.5.1.4.7.6 1.1.6 1.4 3 .5 3.2-.5.1-.8.5-6.1-.9-7-1.4-.9-4.3-.8-4.9.2z" fill="url(#aD)" transform="translate(175 239)"/><path d="M18.6 11.6c-.9.7-3.9 3.7-5.2 5.1h-.2c-1 .2-6 .7-8.2 1.1-1.2.2-1.4.8-.1 1.3 1.4.6 5.6.7 7.9.6.4.1 1.1 0 2-.5 1.6-.8 3.7-2.4 5.4-4.6 3.4-4.6-.9-3.5-1.6-3z" fill="url(#aE)" transform="translate(175 239)"/><path d="M3.5 18.6c.5-.5 1.7-1.2 2.2-1.7C7.4 15.2 7 13.6 6 13c-.7-.4-1.8-.2-2.2.2-1.4 1.2-1.8 1.6-2.1 1.9-.3.2-.5.5-.7.7 0 0-.1 1.9 2.5 2.8z" fill="url(#aF)" transform="translate(190 237)"/><path d="M10.4 1.1C11.8 2 11.6 3 12.5 6c1.1 3.8.9 5-.4 6.5-1 1.1-4.9 2.3-6.6.7-.7-.7.3-2.8.5-4 .4-2 0-3.3-.8-4.2-.7-.7-1.4-1.4-1.1-2.8.4-1.6 3.7-2.8 6.3-1.1z" fill="url(#aG)" transform="translate(190 237)"/><path d="M6.4 3.6c.3-1.7 2.8-3.3 4-2.7.6.3.6.5.6.5s-2.6-.2-4 2.5c-.3.5-.8.6-.6-.3z" fill="url(#aH)" transform="translate(190 237)"/><path d="M163 74.4l-42-24.2c-5.8-3.3-15.2-3.3-20.9 0l-2.2 1.3-2.2-1.3c-5.8-3.3-15.2-3.3-20.9 0l-70 40.7c-5.8 3.3-5.7 8.8.1 12.1l42 24.2c3.1 1.8 7.2 2.6 11.2 2.5 3.5-.1 20.6 0 24.3 0 3.9 0 7.8-.8 10.8-2.5l70-40.7c5.6-3.3 5.6-8.7-.2-12.1z" fill="url(#aI)" transform="translate(249 119)"/><path d="M.5 88.4V97c0 2.2 1.5 4.4 4.4 6.1l42 24.2c5.8 3.3 15.2 3.3 20.9 0l70-40.7c2.9-1.7 4.3-3.8 4.3-6V72L.5 88.4z" fill="url(#aJ)" transform="translate(249 119)"/><path d="M386.6 186c5.8 3.3 5.8 8.8.1 12.1l-70 40.7c-5.8 3.3-15.1 3.3-20.9 0l-42-24.2c-5.8-3.3-5.8-8.8-.1-12.1l70-40.7c5.8-3.3 15.1-3.3 20.9 0l42 24.2z" fill="#FFF"/><path d="M137.6 66c5.8 3.3 5.8 8.8.1 12.1l-70 40.7c-5.8 3.3-15.1 3.3-20.9 0l-42-24.2C-1 91.3-1 85.8 4.7 82.5l70-40.7c5.8-3.3 15.1-3.3 20.9 0l42 24.2z" fill="url(#aK)" transform="translate(249 119)"/><path d="M98.5 68.5c2.1 1.2 2.1 3.1 0 4.3L63 93.5c-2 1.2-5.4 1.2-7.5 0l-16.7-9.6c-2.1-1.2-2.1-3.1 0-4.3l35.5-20.7c2.1-1.2 5.4-1.2 7.5 0l16.7 9.6z" fill="url(#aL)" transform="translate(249 119)"/><path d="M105.3 96.9H82.9c-1.4 0-2.7-.3-3.7-.9l-2.7-1.5c-2.1-1.2-2.1-3.1 0-4.3l7.1-4.1c1-.6 2.3-.9 3.6-.9h38.5l-20.4 11.7z" fill="url(#aM)" transform="translate(249 119)"/><path d="M74.5 81.6s-2.5.2-3.5.3c-.7 0-1.4.1-1.2.5.2.4 3.9 1.5 5.2 1.9 1.3.4 2.2.1 2.2-.6s-.4-2.1-1.3-2.1h-1.4z" fill="url(#aN)" transform="translate(249 119)"/><path d="M86.5 71.4c-.9-.6-6.4-4.7-10.3-6.7-1.1-.6-2-.9-2.7-.8-.1 0-.1 0-.2.1-.2.1-.4.2-.5.4-.1.2-.1.3-.2.5 0 .1-.1.2-.1.3-.9 3.4 1.9 16.5 1.9 16.5.4 1.1 2.1 1.5 2-.1-.1-1.6-.2-10.9-.2-10.9v-.9c1.1 1.1 2.9 2.7 3.6 3.4 0 0 1.2 1.9 3.3 2.7 4.6 1.7 5-3.2 5-3.2s-.5-.6-1.6-1.3z" fill="url(#aO)" transform="translate(249 119)"/><path d="M74.9 77.5v14.7c0 .8.5 1.6 1.6 2.2l2.7 1.5c2.1 1.2 5.4 1.2 7.5 0l7.1-4.1c1-.6 1.5-1.4 1.5-2.1V75s-20.4 1.7-20.4 2.5z" fill="url(#aP)" transform="translate(249 119)"/><path d="M93.7 72.7c2.1 1.2 2.1 3.1 0 4.3l-7.1 4.1c-2.1 1.2-5.4 1.2-7.5 0l-2.7-1.5c-2.1-1.2-2.1-3.1 0-4.3l7.1-4.1c2.1-1.2 5.4-1.2 7.5 0l2.7 1.5z" fill="url(#aQ)" transform="translate(249 119)"/><g transform="translate(278 119)"><path d="M39.2 85.2s-2.5.2-3.5.3c-.7 0-1.4.1-1.2.5.2.5 3.9 1.5 5.2 1.9 1.2.3 2.2.1 2.2-.6s-.4-2.1-1.3-2.1h-1.4z" fill="url(#aR)"/><path d="M41.2 74.3s.1 9.4.2 10.9c.1 1.6-1.5 1.1-2 .1 0 0-1.3-6.4-1.9-11.4l3.7.4z" fill="url(#aS)"/><ellipse fill="url(#aT)" cx="55.4" cy="75.8" rx="7.9" ry="3.7"/><path d="M39.1 84.6s-1.7-6-1.9-11c-.2-5 .2-5.9 1.1-6.2.7-.3 2.8.1 5.1 1s6.7 2.8 6.7 2.8l8.1-2.5s1.5 4.1 1.2 5.9c-.3 1.8-5.1 4-7.3 4.3-2.2.3-4.1-1.3-5.2-2.1-2.5-1.7-5.8-4-5.8-4s.9 10.9 1 11.7c0 .1-.2 1.4-3 .1z" fill="url(#aU)"/><path d="M63.7 52.2c0-.8-62.8 10.2-62.8 11v1.3c0 .8.5 1.6 1.6 2.2l16.7 9.6c2.1 1.2 5.4 1.2 7.5 0l35.5-20.7c1-.6 1.5-1.4 1.5-2.1v-1.3z" fill="url(#aV)"/><path d="M62.2 50.1c2.1 1.2 2.1 3.1 0 4.3L26.7 75.1c-2 1.2-5.4 1.2-7.5 0L2.5 65.5c-2.1-1.2-2.1-3.1 0-4.3L38 40.5c2.1-1.2 5.4-1.2 7.5 0l16.7 9.6z" fill="url(#aW)"/><path d="M43.1 1.2c1.1-.6 2-.1 2 1.1l.1 25.4c0 1.3-.9 2.8-2 3.5L8.9 51c-1.1.6-2 .1-2-1.1l-.1-25.4c0-1.3.9-2.8 2-3.5L43.1 1.2z" fill="url(#aX)"/><path d="M45 57.6c.9.5.9 1.3 0 1.8l-10.1 5.9c-.9.5-2.2.5-3.1 0l-3.1-1.8c-.9-.5-.9-1.3 0-1.8l10.1-5.9c.9-.5 2.2-.5 3.1 0l3.1 1.8z" fill="url(#aY)"/><path fill="url(#aZ)" d="M45.1 33.2v9.6L6.9 64.9v-9.6z"/></g><path d="M7.8 18.8c.1.2.3.1.5-.2.2-.4.2-1 .9-1.2.4-.1-.5 1.1 0 1.1.2 0 .7-.8 1.2-1.2.4-.4 1.5-.8 1.5-1.2 0-.4-.1-1-.1-1s-1.6.3-2.4.6c-1 .6-2 2-1.6 3.1z" fill="url(#ba)" transform="translate(309 160)"/><path d="M19.5 16.6c-1.1.4-5.7 1-7.8.8-1.1-.1-.8-1.9.2-2.1 1.8-.5 5.9-1.1 6.7-1.4 1.8-.6 2.4 2 .9 2.7z" fill="url(#bb)" transform="translate(309 160)"/><path d="M2.4 21.4c.6-.1 1.7-.1 2.2-.8.7-1.1-.9-1.5-1.6-1.5-.7 0-1.7 1-2 2.1-.2.6-.3 1.1-.1 1.4.2.2.5-.1.6-.4.1-.2.3-.6.9-.8z" fill="url(#bc)" transform="translate(309 160)"/><path d="M20.1 32.8c3.1.4 8 .1 7.9-2-.1-3.2-.5-4.1-.3-6.7.6-6.7.3-12.4-2.6-13.3h-.3c-1.2-.6-6 1-7.4 2.7-1.4 1.7 0 1.6.4 6.5.1 1.9.3 5.4.4 6.3.1 2.7-.1 3.8-.4 5-.3.8.7 1.3 2.3 1.5z" fill="url(#bd)" transform="translate(309 160)"/><path d="M18.4 4.5c-1 1.4-.5 5.1.2 5.7.5.5 1.1.3 1.8.5.5.1.4.7.6 1.1.6 1.4 3 .5 3.2-.5.1-.8.5-6.1-.9-7-1.4-.9-4.2-.8-4.9.2z" fill="url(#be)" transform="translate(309 160)"/><path d="M23.3 1.5C22.1.8 18.5.2 17.8 3c-.4 1.4.4 2.1 1.1 2.8.3.4.3 1.1.6 1.4.3.3.4-.6.9-.2.9.8-.7 2.4 1.7 3.1.4.1 1.3.4 1.8-.2 1.7-1.6 3.1-6 .7-6.9-.1 0 0-.7-1.3-1.5z" fill="url(#bf)" transform="translate(309 160)"/><path d="M.9 1.8c.8.6 2.8-.2 3.3-1.1 0 0 .1 0 .2.4s-.6 1.1-1.5 1.4C2 2.8.5 2.7.6 2.2c.2-.4.3-.4.3-.4z" transform="translate(329 170)" fill="url(#bg)"/><path d="M1.2 9.1c-.7-.3-.3-1.8.2-1.8s6.3.1 7 .1c.7 0 1.8-1.8 3.7-3.8C14 1.6 14.4 1 15.7.9c1.3 0 1 1.2.5 2.6-.2.6-.4 1.6-1.3 2.8-1.2 1.5-2.7 3.2-3.6 3.7-1.7 1-4.2.4-5.8.2C4 10 1.2 9.1 1.2 9.1z" transform="translate(312 172)" fill="url(#bh)"/><path d="M157.6 230.5v7.2l-2.8 1.6v-7.2zm4-6.3v11.2l-2.7 1.6-.1-11.2zm4.1 4.2v4.7l-2.8 1.6V230zm4-14v16.3l-2.7 1.6-.1-16.3zm4.1 1.1v12.9L171 230v-12.9z" fill="#E0E9FD"/><path d="M182.5 210.9v1.4l-5.4 3.1V214zm0 11.4v1.5l-5.4 3.1v-1.4zm2.2-16.2v1.4l-7.6 4.4v-1.4z" fill="#6EA9FF"/><path d="M297.6 141.6v7.5l5.8-7c.6.8.9 1.9.9 3.3 0 4.2-3 9.4-6.6 11.5-3.7 2.1-6.7.4-6.7-3.8s3-9.4 6.6-11.5z" fill="#E0E9FD"/><path d="M298.6 139.1c2.5-1.4 4.7-1.1 5.8.5l-5.8 7v-7.5zm15.6-1.7v1.4l-5.5 3.1v-1.4zm2.1-4.8v1.4l-7.6 4.4V137z" fill="#6EA9FF"/><path fill="#E0E9FD" d="M316.3 142.8v1.4l-7.6 4.4v-1.4z"/><path d="M4.6 57.5s2.5.2 3.5.3c.7 0 1.4.1 1.2.5-.2.4-3.9 1.5-5.2 1.9-1.3.4-2.2.1-2.2-.6s.4-2.1 1.3-2.1h1.4z" fill="url(#bi)" transform="translate(48 141)"/><path d="M2.9 46.7s-.1 9.4-.2 10.9 1.5 1.1 2 .1c0 0 2.8-13.1 1.9-16.5-1-3.5-3.7-.1-3.7 5.5z" fill="url(#bj)" transform="translate(48 141)"/><path d="M1.5 35.1c-.2.1-.3-.2-.2-.5.2-.4.6-.8.4-1.4-.1-.4-.5 1.1-.9.7-.2-.2.2-1.1.2-1.6 0-.6-.3-1.6 0-1.9.3-.3.8-.6.8-.6s.8 1.4 1 2.3c.3.9-.2 2.6-1.3 3z" fill="url(#bk)" transform="translate(48 141)"/><path d="M4.1 14.6c0-5.7-2.6-3.4-3-1.9-.3 1.2-.6 6.7-.8 8.1v.8c-.2 2.6-.2 7.5.5 9 .5 1.2 1.1 1 1.3-.1.4-2.1.9-7.1 1.1-8.2.1-.4.1-.8 0-1.2.6-1.6.9-3.8.9-6.5z" fill="url(#bl)" transform="translate(48 141)"/><path d="M59.9 174.2c.4 2.1 1.1 8.6.7 12.9-.2 2-.6 2.5-1.5 2.3-1.3-.2-1.6-1.2-2.5-4.7-.3-1.2-1.3-5-1.6-6.3 0 0-1.9-1.4-1.6-4.1.5-4.8 6-2.3 6-2.3s.3 1 .5 2.2z" fill="#349B2C"/><path d="M10.6 60.8s2.5.2 3.5.3c.7 0 1.4.1 1.2.5-.2.5-3.9 1.5-5.2 1.9-1.3.4-2.2.1-2.2-.6s.4-2.1 1.3-2.1h1.4z" fill="url(#bm)" transform="translate(48 141)"/><path d="M8.9 50s-.1 9.4-.2 10.9c-.1 1.6 1.5 1.1 2 .1 0 0 2.8-13.1 1.9-16.5-1-3.5-3.8-.1-3.7 5.5z" fill="url(#bn)" transform="translate(48 141)"/><path d="M6.1 56.6c-1.2.7-3.6 1.4-3.6.3 0-1.1.3-8.9.4-11.9 0-9.1-1.4-8.4-.9-13.3.5-5 5-.6 5.4.7.4 1.3-.4 10.7-.6 12.9-.2 2.2-.7 11.3-.7 11.3z" fill="url(#bo)" transform="translate(48 141)"/><path d="M12.1 31.1c.3 1.6.8 11.4.8 13.7 0 2.3-.6 14.8-.6 14.8s-3.8 1.9-3.8.2c0-.9 0-8.4.5-12.1.3-2.2-1.7-8.7-2.3-11.1-.8-.3-2.9-1.7-2.4-5.9.6-4.2 7.8.4 7.8.4z" fill="url(#bp)" transform="translate(48 141)"/><path d="M1.5 31.8c.1 1.8 3.6 2.4 6.8 2.2 3.2-.2 3.7-.7 3.7-1.7 0-.9-.6-16.3-1.5-18.3s-6.8-3.6-8.2-3c-1.4.6-1.4 3.3-1 4.9.4 1.6.9 4.7.7 7.9-.2 3.2-.7 5.6-.5 8z" fill="url(#bq)" transform="translate(48 141)"/><path d="M9.9 4.4c1 1.4.5 5.1-.2 5.7-.5.5-1.1.3-1.8.5-.5.1-.4 1.1-.6 1.5-.8.6-3 .1-3.2-.9-.1-.8-.5-6.1.9-7 1.4-.9 4.3-.8 4.9.2z" fill="url(#br)" transform="translate(48 141)"/><path d="M5 1.5C6.2.8 9.8.2 10.5 3c.4 1.4-.4 2.1-1.1 2.8-.3.4-.3 1.1-.6 1.4-.3.3-.4-.6-.9-.2-.9.8.7 2.4-1.7 3.1-.4.1-1.3.4-1.8-.2-1.7-1.6-3.1-6-.7-6.9.2 0 .1-.8 1.3-1.5z" fill="url(#bs)" transform="translate(48 141)"/><path d="M19.6 34.1c0-.4-.1-.7-.4-.8l-1.5-.9c-.2-.1-.5-.1-.9.1L6.7 38.4c-.7.4-1.2 1.4-1.2 2.2v6.8c0 .4.1.7.4.8l1.5.9c.2.1 12.3-7.3 12.3-8.1l-.1-6.9z" fill="url(#bt)" transform="translate(48 141)"/><path d="M18.4 33.4c.7-.4 1.2-.1 1.3.7v6.8c0 .8-.6 1.8-1.2 2.2L8.4 49c-.7.4-1.2.1-1.3-.7v-6.8c0-.8.6-1.8 1.2-2.2l10.1-5.9z" fill="url(#bu)" transform="translate(48 141)"/><path d="M61.6 176v-.7s-.1-.7-.8-.2" stroke="#304D93" stroke-linecap="round" stroke-linejoin="round"/><path d="M12.2 36.3c1.1-.5 1.3-1.8 1-2.5-.3-.7-1.4-2.1-2.1-1-.4.7-.3 1.4-.1 2 0 0-.2.4-.1 1 .1.7.8.7 1.3.5z" fill="url(#bv)" transform="translate(48 141)"/><path d="M9.2 13.3c-1.7.5-.7 3.1-.4 6 .5 5.4.8 7.3 1 9.1.1 1.4.6 4.1 1.1 4.6.4.5 2.1.4 2.2-.4 0-.8-.2-6.1-.4-8.8-.2-2.2-1.2-11.1-3.5-10.5z" fill="url(#bw)" transform="translate(48 141)"/><path d="M58.8 177.5v-.7c0-.3.2-.6.4-.7" stroke="#304D93" stroke-linecap="round" stroke-linejoin="round"/><path d="M3.7 11.5l.1-.5s.4 0 1.6.2c1.1.2 2.4.7 2.4.7l-.3.5c-.1 0-2.4.9-3.8-.9z" fill="url(#bx)" transform="translate(48 141)"/></g></svg>