<svg xmlns="http://www.w3.org/2000/svg" width="440" height="360" viewBox="0 0 440 360"><defs><linearGradient id="a" x1="43.4%" x2="51.862%" y1="21.613%" y2="57.331%"><stop offset="0%" stop-color="#A9C2FB" stop-opacity=".9"/><stop offset="100%" stop-color="#A9C2FB" stop-opacity="0"/></linearGradient><linearGradient id="b" x1="2.666%" x2="99.128%" y1="49.935%" y2="49.935%"><stop offset="78.38%" stop-color="#E7EFF7"/><stop offset="100%" stop-color="#E7EFF7" stop-opacity="0"/></linearGradient><linearGradient id="c" x1="29.932%" x2="129.921%" y1="49.996%" y2="49.996%"><stop offset="17.3%" stop-color="#CCE0F4"/><stop offset="31.1%" stop-color="#CADFF4"/><stop offset="36.07%" stop-color="#C3D9F5"/><stop offset="39.61%" stop-color="#B8D0F7"/><stop offset="42.46%" stop-color="#A7C3F9"/><stop offset="42.7%" stop-color="#A5C2F9"/></linearGradient><linearGradient id="d" x1=".007%" x2="100.022%" y1="49.992%" y2="49.992%"><stop offset="31.89%" stop-color="#EDF4FB"/><stop offset="100%" stop-color="#CCE0F4"/></linearGradient><linearGradient id="e" x1=".074%" x2="53.918%" y1="49.57%" y2="49.57%"><stop offset="0%" stop-color="#A9C2FB" stop-opacity=".9"/><stop offset="100%" stop-color="#A9C2FB" stop-opacity="0"/></linearGradient><linearGradient id="f" x1="86.069%" x2="50.114%" y1="49.16%" y2="46.832%"><stop offset="0%" stop-color="#3289F8"/><stop offset="100%" stop-color="#75A9FA"/></linearGradient><linearGradient id="g" x1="42.352%" x2="57.97%" y1="45.731%" y2="11.061%"><stop offset="0%" stop-color="#1F5BAF"/><stop offset="100%" stop-color="#3289F8"/></linearGradient><linearGradient id="h" x1="-.021%" x2="99.832%" y1="49.934%" y2="49.934%"><stop offset="17.3%" stop-color="#CCE0F4"/><stop offset="31.1%" stop-color="#CADFF4"/><stop offset="36.07%" stop-color="#C3D9F5"/><stop offset="39.61%" stop-color="#B8D0F7"/><stop offset="42.46%" stop-color="#A7C3F9"/><stop offset="42.7%" stop-color="#A5C2F9"/></linearGradient><linearGradient id="i" x1=".364%" x2="99.955%" y1="49.962%" y2="49.962%"><stop offset="2.162%" stop-color="#FFF"/><stop offset="100%" stop-color="#EDF4FB"/></linearGradient><linearGradient id="j" x1="54.732%" x2="80.354%" y1="56.327%" y2="96.168%"><stop offset="0%" stop-color="#A9C2FB" stop-opacity=".9"/><stop offset="100%" stop-color="#A9C2FB" stop-opacity="0"/></linearGradient><linearGradient id="k" x1="91.189%" x2="64.998%" y1="16.166%" y2="40.61%"><stop offset="0%" stop-color="#3289F8"/><stop offset="100%" stop-color="#75A9FA"/></linearGradient><linearGradient id="l" x1="-26.897%" x2="-4.92%" y1="68.951%" y2="63.312%"><stop offset="0%" stop-color="#FFF"/><stop offset="100%" stop-color="#CCD9EE"/></linearGradient><linearGradient id="m" x1="49.62%" x2="53.174%" y1="30.728%" y2="4.384%"><stop offset="0%" stop-color="#1F5BAF"/><stop offset="100%" stop-color="#3289F8"/></linearGradient><linearGradient id="n" x1="42.79%" x2="10.705%" y1="49.639%" y2="48.551%"><stop offset="0%" stop-color="#3289F8"/><stop offset="100%" stop-color="#75A9FA"/></linearGradient><linearGradient id="o" x1="16.835%" x2="45.745%" y1="58.404%" y2="50.655%"><stop offset="0%" stop-color="#ECF3FB"/><stop offset="23.41%" stop-color="#E8F0FB"/><stop offset="47.39%" stop-color="#DCE8FB"/><stop offset="71.63%" stop-color="#C7DAFA"/><stop offset="95.91%" stop-color="#ABC6F9"/><stop offset="100%" stop-color="#A5C2F9"/></linearGradient><linearGradient id="p" x1="79.531%" x2="26.995%" y1="72.377%" y2="25.903%"><stop offset="0%" stop-color="#1F5BAF"/><stop offset="100%" stop-color="#3289F8"/></linearGradient><linearGradient id="q" x1="54.595%" x2="37.811%" y1="54.649%" y2="40.554%"><stop offset="0%" stop-color="#A5C2F9"/><stop offset=".286%" stop-color="#A5C2F9"/><stop offset="65.19%" stop-color="#C9DBFA"/><stop offset="100%" stop-color="#D6E4FA"/></linearGradient><linearGradient id="r" x1="70.79%" x2="56.935%" y1="65.499%" y2="58.024%"><stop offset="0%" stop-color="#A5C2F9"/><stop offset=".286%" stop-color="#A5C2F9"/><stop offset="65.19%" stop-color="#C9DBFA"/><stop offset="100%" stop-color="#D6E4FA"/></linearGradient><linearGradient id="s" x1="107.22%" x2="38.334%" y1="57.472%" y2="47.033%"><stop offset="0%" stop-color="#3289F8"/><stop offset="100%" stop-color="#75A9FA"/></linearGradient><linearGradient id="t" x1="54.502%" x2="45.047%" y1="87.085%" y2="59.139%"><stop offset="0%" stop-color="#1F5BAF"/><stop offset="100%" stop-color="#3289F8"/></linearGradient><linearGradient id="u" x1="57.551%" x2="46.58%" y1="77.931%" y2="54.741%"><stop offset="0%" stop-color="#1F5BAF"/><stop offset="100%" stop-color="#3289F8"/></linearGradient><linearGradient id="v" x1=".122%" x2="53.966%" y1="49.285%" y2="49.285%"><stop offset="0%" stop-color="#A9C2FB" stop-opacity=".9"/><stop offset="100%" stop-color="#A9C2FB" stop-opacity="0"/></linearGradient><linearGradient id="w" x1="84.907%" x2="33.455%" y1="50.837%" y2="49.372%"><stop offset="0%" stop-color="#A9C2FB"/><stop offset=".282%" stop-color="#A9C2FB"/><stop offset="33.96%" stop-color="#BED3F8"/><stop offset="67.37%" stop-color="#CADDF6"/><stop offset="100%" stop-color="#CEE0F5"/></linearGradient><linearGradient id="x" x1=".083%" x2="99.935%" y1="49.934%" y2="49.934%"><stop offset="17.3%" stop-color="#CCE0F4"/><stop offset="31.1%" stop-color="#CADFF4"/><stop offset="36.07%" stop-color="#C3D9F5"/><stop offset="39.61%" stop-color="#B8D0F7"/><stop offset="42.46%" stop-color="#A7C3F9"/><stop offset="42.7%" stop-color="#A5C2F9"/></linearGradient><linearGradient id="y" x1=".467%" x2="100.058%" y1="49.962%" y2="49.962%"><stop offset="2.162%" stop-color="#FFF"/><stop offset="100%" stop-color="#EDF4FB"/></linearGradient><linearGradient id="z" x1="54.232%" x2="79.855%" y1="56.326%" y2="96.168%"><stop offset="0%" stop-color="#A9C2FB" stop-opacity=".9"/><stop offset="100%" stop-color="#A9C2FB" stop-opacity="0"/></linearGradient><linearGradient id="A" x1="49.313%" x2="47.944%" y1="19.869%" y2="-.49%"><stop offset="0%" stop-color="#A9C2FB"/><stop offset=".282%" stop-color="#A9C2FB"/><stop offset="33.96%" stop-color="#BED3F8"/><stop offset="67.37%" stop-color="#CADDF6"/><stop offset="100%" stop-color="#CEE0F5"/></linearGradient><linearGradient id="B" x1="76.483%" x2="33.538%" y1="49.806%" y2="50.078%"><stop offset="0%" stop-color="#A9C2FB"/><stop offset=".282%" stop-color="#A9C2FB"/><stop offset="33.96%" stop-color="#BED3F8"/><stop offset="67.37%" stop-color="#CADDF6"/><stop offset="100%" stop-color="#CEE0F5"/></linearGradient><linearGradient id="C" x1="49.695%" x2="47.522%" y1="36.453%" y2="8.64%"><stop offset="0%" stop-color="#A9C2FB"/><stop offset=".282%" stop-color="#A9C2FB"/><stop offset="33.96%" stop-color="#BED3F8"/><stop offset="67.37%" stop-color="#CADDF6"/><stop offset="100%" stop-color="#CEE0F5"/></linearGradient><linearGradient id="D" x1="50.404%" x2="44.136%" y1="50.164%" y2="-15.096%"><stop offset="0%" stop-color="#1F5BAF"/><stop offset="100%" stop-color="#3289F8"/></linearGradient><linearGradient id="E" x1="63.489%" x2="22.089%" y1="50.567%" y2="51.702%"><stop offset="0%" stop-color="#3289F8"/><stop offset="100%" stop-color="#75A9FA"/></linearGradient><linearGradient id="F" x1="119.938%" x2="-15.606%" y1="42.353%" y2="57.788%"><stop offset="0%" stop-color="#A5C2F9"/><stop offset="4.093%" stop-color="#ABC6F9"/><stop offset="28.37%" stop-color="#C7DAFA"/><stop offset="52.61%" stop-color="#DCE8FB"/><stop offset="76.59%" stop-color="#E8F0FB"/><stop offset="100%" stop-color="#ECF3FB"/></linearGradient><linearGradient id="G" x1="77.008%" x2="62.427%" y1="59.013%" y2="54.602%"><stop offset="0%" stop-color="#A5C2F9"/><stop offset="4.093%" stop-color="#ABC6F9"/><stop offset="28.37%" stop-color="#C7DAFA"/><stop offset="52.61%" stop-color="#DCE8FB"/><stop offset="76.59%" stop-color="#E8F0FB"/><stop offset="100%" stop-color="#ECF3FB"/></linearGradient><linearGradient id="H" x1="58.697%" x2="40.595%" y1="54.581%" y2="41.159%"><stop offset="0%" stop-color="#A5C2F9"/><stop offset="4.093%" stop-color="#ABC6F9"/><stop offset="28.37%" stop-color="#C7DAFA"/><stop offset="52.61%" stop-color="#DCE8FB"/><stop offset="76.59%" stop-color="#E8F0FB"/><stop offset="100%" stop-color="#ECF3FB"/></linearGradient><linearGradient id="I" x1="73.265%" x2="25.992%" y1="54.942%" y2="42.898%"><stop offset="0%" stop-color="#A5C2F9"/><stop offset="15.01%" stop-color="#BED3FB"/><stop offset="36.52%" stop-color="#DAE6FD"/><stop offset="58%" stop-color="#EFF4FE"/><stop offset="79.25%" stop-color="#FBFCFF"/><stop offset="100%" stop-color="#FFF"/></linearGradient><linearGradient id="J" x1="88.245%" x2="7.954%" y1="64.5%" y2="39.869%"><stop offset="0%" stop-color="#1F5BAF"/><stop offset="100%" stop-color="#3289F8"/></linearGradient><linearGradient id="K" x1="86.349%" x2="50.393%" y1="51.806%" y2="49.478%"><stop offset="0%" stop-color="#1F5BAF"/><stop offset="100%" stop-color="#3289F8"/></linearGradient><linearGradient id="L" x1="42.484%" x2="58.102%" y1="45.598%" y2="10.928%"><stop offset="0%" stop-color="#1F5BAF"/><stop offset="100%" stop-color="#3289F8"/></linearGradient><linearGradient id="M" x1=".25%" x2="96.157%" y1="49.911%" y2="49.911%"><stop offset="0%" stop-color="#A9C2FB" stop-opacity=".9"/><stop offset="100%" stop-color="#A9C2FB" stop-opacity="0"/></linearGradient><linearGradient id="N" x1=".19%" x2="100.042%" y1="49.934%" y2="49.934%"><stop offset="17.3%" stop-color="#CCE0F4"/><stop offset="31.1%" stop-color="#CADFF4"/><stop offset="36.07%" stop-color="#C3D9F5"/><stop offset="39.61%" stop-color="#B8D0F7"/><stop offset="42.46%" stop-color="#A7C3F9"/><stop offset="42.7%" stop-color="#A5C2F9"/></linearGradient><linearGradient id="O" x1=".574%" x2="100.164%" y1="49.962%" y2="49.962%"><stop offset="2.162%" stop-color="#FFF"/><stop offset="100%" stop-color="#EDF4FB"/></linearGradient><linearGradient id="P" x1="91.468%" x2="65.278%" y1="15.046%" y2="39.119%"><stop offset="0%" stop-color="#1F5BAF"/><stop offset="100%" stop-color="#3289F8"/></linearGradient><linearGradient id="Q" x1="-26.362%" x2="-4.387%" y1="68.526%" y2="62.905%"><stop offset="0%" stop-color="#FFF"/><stop offset="100%" stop-color="#CCD9EE"/></linearGradient><linearGradient id="R" x1="54.504%" x2="80.127%" y1="56.665%" y2="96.505%"><stop offset="0%" stop-color="#A9C2FB" stop-opacity=".9"/><stop offset="100%" stop-color="#A9C2FB" stop-opacity="0"/></linearGradient><linearGradient id="S" x1="49.714%" x2="53.267%" y1="30.588%" y2="4.244%"><stop offset="0%" stop-color="#1F5BAF"/><stop offset="100%" stop-color="#3289F8"/></linearGradient><linearGradient id="T" x1="49.188%" x2="18.59%" y1="49.828%" y2="49.828%"><stop offset="0%" stop-color="#1F5BAF"/><stop offset="100%" stop-color="#3289F8"/></linearGradient><linearGradient id="U" x1="34.514%" x2="62.978%" y1="54.378%" y2="46.857%"><stop offset="0%" stop-color="#ECF3FB"/><stop offset="23.41%" stop-color="#E8F0FB"/><stop offset="47.39%" stop-color="#DCE8FB"/><stop offset="71.63%" stop-color="#C7DAFA"/><stop offset="95.91%" stop-color="#ABC6F9"/><stop offset="100%" stop-color="#A5C2F9"/></linearGradient><linearGradient id="V" x1="104.891%" x2="36.703%" y1="75.244%" y2="36.993%"><stop offset="0%" stop-color="#3289F8"/><stop offset="100%" stop-color="#75A9FA"/></linearGradient><linearGradient id="W" x1="58.084%" x2="33.963%" y1="80.494%" y2="12.819%"><stop offset="0%" stop-color="#A5C2F9"/><stop offset="4.093%" stop-color="#ABC6F9"/><stop offset="28.37%" stop-color="#C7DAFA"/><stop offset="52.61%" stop-color="#DCE8FB"/><stop offset="76.59%" stop-color="#E8F0FB"/><stop offset="100%" stop-color="#ECF3FB"/></linearGradient><linearGradient id="X" x1="24.539%" x2="63.246%" y1="45.694%" y2="52.155%"><stop offset="0%" stop-color="#ECF3FB"/><stop offset="23.41%" stop-color="#E8F0FB"/><stop offset="47.39%" stop-color="#DCE8FB"/><stop offset="71.63%" stop-color="#C7DAFA"/><stop offset="95.91%" stop-color="#ABC6F9"/><stop offset="100%" stop-color="#A5C2F9"/></linearGradient><linearGradient id="Y" x1=".05%" x2="53.893%" y1="49.926%" y2="49.926%"><stop offset="0%" stop-color="#A9C2FB" stop-opacity=".9"/><stop offset="100%" stop-color="#A9C2FB" stop-opacity="0"/></linearGradient><linearGradient id="Z" x1="86.29%" x2="50.333%" y1="52.102%" y2="49.774%"><stop offset="0%" stop-color="#A5C2F9"/><stop offset="15.01%" stop-color="#BED3FB"/><stop offset="36.52%" stop-color="#DAE6FD"/><stop offset="58%" stop-color="#EFF4FE"/><stop offset="79.25%" stop-color="#FBFCFF"/><stop offset="100%" stop-color="#FFF"/></linearGradient><linearGradient id="aa" x1="50.216%" x2="54.97%" y1="28.148%" y2="11.291%"><stop offset="0%" stop-color="#1F5BAF"/><stop offset="100%" stop-color="#3289F8"/></linearGradient><linearGradient id="ab" x1="-.197%" x2="99.655%" y1="49.934%" y2="49.934%"><stop offset="17.3%" stop-color="#CCE0F4"/><stop offset="31.1%" stop-color="#CADFF4"/><stop offset="36.07%" stop-color="#C3D9F5"/><stop offset="39.61%" stop-color="#B8D0F7"/><stop offset="42.46%" stop-color="#A7C3F9"/><stop offset="42.7%" stop-color="#A5C2F9"/></linearGradient><linearGradient id="ac" x1=".188%" x2="99.779%" y1="49.962%" y2="49.962%"><stop offset="2.162%" stop-color="#FFF"/><stop offset="100%" stop-color="#EDF4FB"/></linearGradient><linearGradient id="ad" x1="54.504%" x2="80.127%" y1="56.327%" y2="96.168%"><stop offset="0%" stop-color="#A9C2FB" stop-opacity=".9"/><stop offset="100%" stop-color="#A9C2FB" stop-opacity="0"/></linearGradient><linearGradient id="ae" x1="91.408%" x2="65.217%" y1="15.338%" y2="39.407%"><stop offset="0%" stop-color="#A5C2F9"/><stop offset="15.01%" stop-color="#BED3FB"/><stop offset="36.52%" stop-color="#DAE6FD"/><stop offset="58%" stop-color="#EFF4FE"/><stop offset="79.25%" stop-color="#FBFCFF"/><stop offset="100%" stop-color="#FFF"/></linearGradient><linearGradient id="af" x1="-26.477%" x2="-4.5%" y1="68.593%" y2="62.973%"><stop offset="0%" stop-color="#ECF3FB"/><stop offset="23.41%" stop-color="#E8F0FB"/><stop offset="47.39%" stop-color="#DCE8FB"/><stop offset="71.63%" stop-color="#C7DAFA"/><stop offset="95.91%" stop-color="#ABC6F9"/><stop offset="100%" stop-color="#A5C2F9"/></linearGradient><linearGradient id="ag" x1="49.694%" x2="53.247%" y1="30.635%" y2="4.29%"><stop offset="0%" stop-color="#1F5BAF"/><stop offset="100%" stop-color="#3289F8"/></linearGradient><linearGradient id="ah" x1="62.974%" x2="26.343%" y1="49.717%" y2="48.732%"><stop offset="0%" stop-color="#3289F8"/><stop offset="100%" stop-color="#75A9FA"/></linearGradient><linearGradient id="ai" x1="49.892%" x2="51.885%" y1="77.986%" y2="46.716%"><stop offset="0%" stop-color="#A5C2F9"/><stop offset="4.093%" stop-color="#ABC6F9"/><stop offset="28.37%" stop-color="#C7DAFA"/><stop offset="52.61%" stop-color="#DCE8FB"/><stop offset="76.59%" stop-color="#E8F0FB"/><stop offset="100%" stop-color="#ECF3FB"/></linearGradient><linearGradient id="aj" x1="78.872%" x2="49.832%" y1="56.125%" y2="49.979%"><stop offset="0%" stop-color="#3289F8"/><stop offset="100%" stop-color="#75A9FA"/></linearGradient><linearGradient id="ak" x1="47.049%" x2="25.193%" y1="50.42%" y2="50.794%"><stop offset="0%" stop-color="#A5C2F9"/><stop offset="4.093%" stop-color="#ABC6F9"/><stop offset="28.37%" stop-color="#C7DAFA"/><stop offset="52.61%" stop-color="#DCE8FB"/><stop offset="76.59%" stop-color="#E8F0FB"/><stop offset="100%" stop-color="#ECF3FB"/></linearGradient><linearGradient id="al" x1="79.849%" x2="38.741%" y1="57.495%" y2="45.492%"><stop offset="0%" stop-color="#3289F8"/><stop offset="100%" stop-color="#75A9FA"/></linearGradient><linearGradient id="am" x1="102.468%" x2="65.645%" y1="21.631%" y2="48.885%"><stop offset="0%" stop-color="#A5C2F9"/><stop offset="15.01%" stop-color="#BED3FB"/><stop offset="36.52%" stop-color="#DAE6FD"/><stop offset="58%" stop-color="#EFF4FE"/><stop offset="79.25%" stop-color="#FBFCFF"/><stop offset="100%" stop-color="#FFF"/></linearGradient><linearGradient id="an" x1="100.005%" x2="-.014%" y1="49.993%" y2="49.993%"><stop offset="0%" stop-color="#2260BB"/><stop offset="100%" stop-color="#3184F8"/></linearGradient><linearGradient id="ao" x1="2.587%" x2="99.088%" y1="49.896%" y2="49.896%"><stop offset="78.38%" stop-color="#E7EFF7"/><stop offset="100%" stop-color="#E7EFF7" stop-opacity="0"/></linearGradient><linearGradient id="ap" x1="10.079%" x2="110.124%" y1="50.019%" y2="50.019%"><stop offset="17.3%" stop-color="#CCE0F4"/><stop offset="31.1%" stop-color="#CADFF4"/><stop offset="36.07%" stop-color="#C3D9F5"/><stop offset="39.61%" stop-color="#B8D0F7"/><stop offset="42.46%" stop-color="#A7C3F9"/><stop offset="42.7%" stop-color="#A5C2F9"/></linearGradient><linearGradient id="aq" x1="-.015%" x2="99.981%" y1="50.003%" y2="50.003%"><stop offset="31.89%" stop-color="#EDF4FB"/><stop offset="100%" stop-color="#CCE0F4"/></linearGradient><linearGradient id="ar" x1="-.052%" x2="99.989%" y1="49.958%" y2="49.958%"><stop offset="0%" stop-color="#A9C2FB" stop-opacity=".7"/><stop offset="100%" stop-color="#A9C2FB" stop-opacity=".3"/></linearGradient><linearGradient id="as" x1="58.486%" x2="45.361%" y1="69.501%" y2="51.723%"><stop offset="0%" stop-color="#1F4A8A"/><stop offset="100%" stop-color="#1F5BAF"/></linearGradient><linearGradient id="at" x1="71.655%" x2="37.572%" y1="48.296%" y2="50.936%"><stop offset="0%" stop-color="#3289F8"/><stop offset="100%" stop-color="#75A9FA"/></linearGradient><linearGradient id="au" x1="77.891%" x2="33.682%" y1="49.732%" y2="49.677%"><stop offset="0%" stop-color="#3289F8"/><stop offset="100%" stop-color="#75A9FA"/></linearGradient><linearGradient id="av" x1="49.123%" x2="47.753%" y1="19.999%" y2="-.359%"><stop offset="0%" stop-color="#3289F8"/><stop offset="100%" stop-color="#75A9FA"/></linearGradient><linearGradient id="aw" x1="49.548%" x2="47.375%" y1="36.47%" y2="8.657%"><stop offset="0%" stop-color="#3289F8"/><stop offset="100%" stop-color="#75A9FA"/></linearGradient><linearGradient id="ax" x1="-.025%" x2="99.942%" y1="50.024%" y2="50.024%"><stop offset="17.3%" stop-color="#CCE0F4"/><stop offset="31.1%" stop-color="#CADFF4"/><stop offset="36.07%" stop-color="#C3D9F5"/><stop offset="39.61%" stop-color="#B8D0F7"/><stop offset="42.46%" stop-color="#A7C3F9"/><stop offset="42.7%" stop-color="#A5C2F9"/></linearGradient><linearGradient id="ay" x1=".1%" x2="99.981%" y1="50.057%" y2="50.057%"><stop offset="2.162%" stop-color="#FFF"/><stop offset="100%" stop-color="#EDF4FB"/></linearGradient><linearGradient id="az" x1="104.304%" x2="-1.804%" y1="50.072%" y2="50.072%"><stop offset="0%" stop-color="#2260BB"/><stop offset="100%" stop-color="#3184F8"/></linearGradient><linearGradient id="aA" x1="-.234%" x2="99.74%" y1="49.397%" y2="49.397%"><stop offset="0%" stop-color="#3184F8"/><stop offset="100%" stop-color="#2260BB"/></linearGradient><linearGradient id="aB" x1="54.736%" x2="45.085%" y1="59.98%" y2="39.785%"><stop offset="0%" stop-color="#3184F8" stop-opacity=".4"/><stop offset="100%" stop-color="#3184F8" stop-opacity="0"/></linearGradient><linearGradient id="aC" x1="2.627%" x2="99.127%" y1="49.896%" y2="49.896%"><stop offset="78.38%" stop-color="#E7EFF7"/><stop offset="100%" stop-color="#E7EFF7" stop-opacity="0"/></linearGradient><linearGradient id="aD" x1="10.675%" x2="110.72%" y1="50.019%" y2="50.019%"><stop offset="17.3%" stop-color="#CCE0F4"/><stop offset="31.1%" stop-color="#CADFF4"/><stop offset="36.07%" stop-color="#C3D9F5"/><stop offset="39.61%" stop-color="#B8D0F7"/><stop offset="42.46%" stop-color="#A7C3F9"/><stop offset="42.7%" stop-color="#A5C2F9"/></linearGradient><linearGradient id="aE" x1="-.069%" x2="100.024%" y1="50.003%" y2="50.003%"><stop offset="31.89%" stop-color="#EDF4FB"/><stop offset="100%" stop-color="#CCE0F4"/></linearGradient><linearGradient id="aF" x1=".019%" x2="99.9%" y1="49.958%" y2="49.958%"><stop offset="0%" stop-color="#A9C2FB" stop-opacity=".7"/><stop offset="100%" stop-color="#A9C2FB" stop-opacity=".3"/></linearGradient><linearGradient id="aG" x1="86.89%" x2="50.934%" y1="51.22%" y2="48.889%"><stop offset="0%" stop-color="#1F5BAF"/><stop offset="100%" stop-color="#3289F8"/></linearGradient><linearGradient id="aH" x1="42.738%" x2="58.356%" y1="46.041%" y2="11.372%"><stop offset="0%" stop-color="#1F5BAF"/><stop offset="100%" stop-color="#3289F8"/></linearGradient><linearGradient id="aI" x1=".098%" x2="53.942%" y1="49.356%" y2="49.356%"><stop offset="0%" stop-color="#A9C2FB" stop-opacity=".9"/><stop offset="100%" stop-color="#A9C2FB" stop-opacity="0"/></linearGradient><linearGradient id="aJ" x1="-.023%" x2="99.83%" y1="49.934%" y2="49.934%"><stop offset="17.3%" stop-color="#CCE0F4"/><stop offset="31.1%" stop-color="#CADFF4"/><stop offset="36.07%" stop-color="#C3D9F5"/><stop offset="39.61%" stop-color="#B8D0F7"/><stop offset="42.46%" stop-color="#A7C3F9"/><stop offset="42.7%" stop-color="#A5C2F9"/></linearGradient><linearGradient id="aK" x1="-.023%" x2="99.83%" y1="49.954%" y2="49.954%"><stop offset="17.3%" stop-color="#CCE0F4"/><stop offset="31.1%" stop-color="#CADFF4"/><stop offset="36.07%" stop-color="#C3D9F5"/><stop offset="39.61%" stop-color="#B8D0F7"/><stop offset="42.46%" stop-color="#A7C3F9"/><stop offset="42.7%" stop-color="#A5C2F9"/></linearGradient><linearGradient id="aL" x1=".362%" x2="99.953%" y1="49.962%" y2="49.962%"><stop offset="2.162%" stop-color="#FFF"/><stop offset="100%" stop-color="#EDF4FB"/></linearGradient><linearGradient id="aM" x1="54.729%" x2="80.352%" y1="56.327%" y2="96.168%"><stop offset="0%" stop-color="#A9C2FB" stop-opacity=".9"/><stop offset="100%" stop-color="#A9C2FB" stop-opacity="0"/></linearGradient><linearGradient id="aN" x1="92.008%" x2="65.818%" y1="14.695%" y2="39.139%"><stop offset="0%" stop-color="#1F5BAF"/><stop offset="100%" stop-color="#3289F8"/></linearGradient><linearGradient id="aO" x1="-25.335%" x2="-3.358%" y1="68.39%" y2="62.769%"><stop offset="0%" stop-color="#ECF3FB"/><stop offset="23.41%" stop-color="#E8F0FB"/><stop offset="47.39%" stop-color="#DCE8FB"/><stop offset="71.63%" stop-color="#C7DAFA"/><stop offset="95.91%" stop-color="#ABC6F9"/><stop offset="100%" stop-color="#A5C2F9"/></linearGradient><linearGradient id="aP" x1="49.446%" x2="52.999%" y1="30.495%" y2="4.151%"><stop offset="0%" stop-color="#1F5BAF"/><stop offset="100%" stop-color="#3289F8"/></linearGradient><linearGradient id="aQ" x1=".045%" x2="100.012%" y1="50.024%" y2="50.024%"><stop offset="17.3%" stop-color="#CCE0F4"/><stop offset="31.1%" stop-color="#CADFF4"/><stop offset="36.07%" stop-color="#C3D9F5"/><stop offset="39.61%" stop-color="#B8D0F7"/><stop offset="42.46%" stop-color="#A7C3F9"/><stop offset="42.7%" stop-color="#A5C2F9"/></linearGradient><linearGradient id="aR" x1=".011%" x2="100.052%" y1="50.057%" y2="50.057%"><stop offset="2.162%" stop-color="#FFF"/><stop offset="100%" stop-color="#EDF4FB"/></linearGradient><linearGradient id="aS" x1="104.158%" x2="-1.95%" y1="50.072%" y2="50.072%"><stop offset="0%" stop-color="#2260BB"/><stop offset="100%" stop-color="#3184F8"/></linearGradient><linearGradient id="aT" x1=".017%" x2="99.99%" y1="49.397%" y2="49.397%"><stop offset="0%" stop-color="#3184F8"/><stop offset="100%" stop-color="#2260BB"/></linearGradient><linearGradient id="aU" x1="54.733%" x2="45.057%" y1="59.98%" y2="39.785%"><stop offset="0%" stop-color="#3184F8" stop-opacity=".4"/><stop offset="100%" stop-color="#3184F8" stop-opacity="0"/></linearGradient><linearGradient id="aV" x1="40.92%" x2="8.357%" y1="44.294%" y2="27.037%"><stop offset="0%" stop-color="#A5C2F9"/><stop offset=".286%" stop-color="#A5C2F9"/><stop offset="65.19%" stop-color="#C9DBFA"/><stop offset="100%" stop-color="#D6E4FA"/></linearGradient><linearGradient id="aW" x1="50.467%" x2="47.944%" y1="68.886%" y2="43.243%"><stop offset="0%" stop-color="#A5C2F9"/><stop offset=".286%" stop-color="#A5C2F9"/><stop offset="65.19%" stop-color="#C9DBFA"/><stop offset="100%" stop-color="#D6E4FA"/></linearGradient><linearGradient id="aX" x1="20.076%" x2="67.43%" y1="60.34%" y2="50.546%"><stop offset="0%" stop-color="#3289F8"/><stop offset="100%" stop-color="#75A9FA"/></linearGradient><linearGradient id="aY" x1="58.573%" x2="53.113%" y1="94.981%" y2="71.247%"><stop offset="0%" stop-color="#A5C2F9"/><stop offset=".286%" stop-color="#A5C2F9"/><stop offset="65.19%" stop-color="#C9DBFA"/><stop offset="100%" stop-color="#D6E4FA"/></linearGradient><linearGradient id="aZ" x1="96.344%" x2="38.416%" y1="106.658%" y2="25.061%"><stop offset="0%" stop-color="#1F5BAF"/><stop offset="100%" stop-color="#3289F8"/></linearGradient><linearGradient id="ba" x1="46.196%" x2="24.34%" y1="50.138%" y2="50.511%"><stop offset="0%" stop-color="#A5C2F9"/><stop offset=".286%" stop-color="#A5C2F9"/><stop offset="65.19%" stop-color="#C9DBFA"/><stop offset="100%" stop-color="#D6E4FA"/></linearGradient><linearGradient id="bb" x1="79.172%" x2="38.065%" y1="57.227%" y2="45.225%"><stop offset="0%" stop-color="#3289F8"/><stop offset="100%" stop-color="#75A9FA"/></linearGradient><linearGradient id="bc" x1="103.671%" x2="66.848%" y1="20.496%" y2="47.75%"><stop offset="0%" stop-color="#1F4A8A"/><stop offset="100%" stop-color="#1F5BAF"/></linearGradient><linearGradient id="bd" x1="-.186%" x2="99.964%" y1="50.713%" y2="50.713%"><stop offset="0%" stop-color="#A9C2FB" stop-opacity=".7"/><stop offset="1.028%" stop-color="#A9C2FB" stop-opacity=".693"/><stop offset="100%" stop-color="#A9C2FB" stop-opacity="0"/></linearGradient><linearGradient id="be" x1="-.09%" x2="100.059%" y1="50.104%" y2="50.104%"><stop offset="0%" stop-color="#A9C2FB" stop-opacity=".7"/><stop offset="1.028%" stop-color="#A9C2FB" stop-opacity=".693"/><stop offset="100%" stop-color="#A9C2FB" stop-opacity="0"/></linearGradient><linearGradient id="bf" x1=".157%" x2="100.852%" y1="50.607%" y2="50.607%"><stop offset="0%" stop-color="#A9C2FB" stop-opacity=".7"/><stop offset="1.028%" stop-color="#A9C2FB" stop-opacity=".693"/><stop offset="100%" stop-color="#A9C2FB" stop-opacity="0"/></linearGradient><linearGradient id="bg" x1="-.446%" x2="100.249%" y1="50.607%" y2="50.607%"><stop offset="0%" stop-color="#A9C2FB" stop-opacity=".7"/><stop offset="1.028%" stop-color="#A9C2FB" stop-opacity=".693"/><stop offset="100%" stop-color="#A9C2FB" stop-opacity="0"/></linearGradient><linearGradient id="bh" x1="-.446%" x2="100.249%" y1="47.036%" y2="47.036%"><stop offset="0%" stop-color="#A9C2FB" stop-opacity=".7"/><stop offset="1.028%" stop-color="#A9C2FB" stop-opacity=".693"/><stop offset="100%" stop-color="#A9C2FB" stop-opacity="0"/></linearGradient><linearGradient id="bi" x1="56.668%" x2="85.998%" y1="48.993%" y2="53.622%"><stop offset="0%" stop-color="#A5C2F9"/><stop offset=".286%" stop-color="#A5C2F9"/><stop offset="65.19%" stop-color="#C9DBFA"/><stop offset="100%" stop-color="#D6E4FA"/></linearGradient><linearGradient id="bj" x1="-.7%" x2="66.709%" y1="51.209%" y2="49.064%"><stop offset="0%" stop-color="#1F4A8A"/><stop offset="100%" stop-color="#1F5BAF"/></linearGradient><linearGradient id="bk" x1="53.398%" x2="48.109%" y1="57.798%" y2="18.288%"><stop offset="0%" stop-color="#1F4A8A"/><stop offset="100%" stop-color="#1F5BAF"/></linearGradient><linearGradient id="bl" x1="-47.752%" x2="8.379%" y1="69%" y2="59.022%"><stop offset="0%" stop-color="#3289F8"/><stop offset="100%" stop-color="#1F5BAF"/></linearGradient><linearGradient id="bm" x1="49.602%" x2="47.827%" y1="47.069%" y2="10.981%"><stop offset="0%" stop-color="#1F4A8A"/><stop offset="100%" stop-color="#1F5BAF"/></linearGradient><linearGradient id="bn" x1="-51.134%" x2="-20.082%" y1="73.238%" y2="66.718%"><stop offset="0%" stop-color="#3289F8"/><stop offset="100%" stop-color="#1F5BAF"/></linearGradient><linearGradient id="bo" x1="39.833%" x2="-14.208%" y1="50.462%" y2="51.638%"><stop offset="0%" stop-color="#1F5BAF"/><stop offset="100%" stop-color="#3289F8"/></linearGradient><linearGradient id="bp" x1="22.622%" x2="-5.555%" y1="50.114%" y2="50.114%"><stop offset="0%" stop-color="#1F5BAF"/><stop offset="100%" stop-color="#3289F8"/></linearGradient><linearGradient id="bq" x1="58.814%" x2=".923%" y1="50.931%" y2="59.873%"><stop offset="0%" stop-color="#1F5BAF"/><stop offset="100%" stop-color="#1F4A8A"/></linearGradient><linearGradient id="br" x1="33.091%" x2="62.001%" y1="53.59%" y2="45.84%"><stop offset="0%" stop-color="#A5C2F9"/><stop offset="4.093%" stop-color="#ABC6F9"/><stop offset="28.37%" stop-color="#C7DAFA"/><stop offset="52.61%" stop-color="#DCE8FB"/><stop offset="76.59%" stop-color="#E8F0FB"/><stop offset="100%" stop-color="#ECF3FB"/></linearGradient><linearGradient id="bs" x1="18.986%" x2="58.15%" y1="66.448%" y2="40.998%"><stop offset="0%" stop-color="#1F4A8A"/><stop offset="100%" stop-color="#1F5BAF"/></linearGradient><linearGradient id="bt" x1="50.993%" x2="34.948%" y1="56.286%" y2="33.94%"><stop offset="0%" stop-color="#A5C2F9"/><stop offset=".286%" stop-color="#A5C2F9"/><stop offset="65.19%" stop-color="#C9DBFA"/><stop offset="100%" stop-color="#D6E4FA"/></linearGradient><linearGradient id="bu" x1="121.591%" x2="75.346%" y1="94.769%" y2="63.466%"><stop offset="0%" stop-color="#1F4A8A"/><stop offset="100%" stop-color="#1F5BAF"/></linearGradient><linearGradient id="bv" x1="-15.185%" x2="38.766%" y1="49.945%" y2="49.945%"><stop offset="0%" stop-color="#A9C2FB" stop-opacity=".9"/><stop offset="100%" stop-color="#A9C2FB" stop-opacity="0"/></linearGradient><linearGradient id="bw" x1="6.608%" x2="106.848%" y1="50.281%" y2="50.281%"><stop offset="17.3%" stop-color="#CCE0F4"/><stop offset="31.29%" stop-color="#CADEF4"/><stop offset="38.29%" stop-color="#C2D8F5"/><stop offset="43.71%" stop-color="#B5CEF7"/><stop offset="47.78%" stop-color="#A5C2F9"/></linearGradient><linearGradient id="bx" x1=".244%" x2="99.897%" y1="49.849%" y2="49.849%"><stop offset="2.162%" stop-color="#FFF"/><stop offset="100%" stop-color="#EDF4FB"/></linearGradient><linearGradient id="by" x1=".147%" x2="53.99%" y1="49.356%" y2="49.356%"><stop offset="0%" stop-color="#A9C2FB" stop-opacity=".9"/><stop offset="100%" stop-color="#A9C2FB" stop-opacity="0"/></linearGradient><linearGradient id="bz" x1=".11%" x2="99.962%" y1="49.839%" y2="49.839%"><stop offset="17.3%" stop-color="#CCE0F4"/><stop offset="31.1%" stop-color="#CADFF4"/><stop offset="36.07%" stop-color="#C3D9F5"/><stop offset="39.61%" stop-color="#B8D0F7"/><stop offset="42.46%" stop-color="#A7C3F9"/><stop offset="42.7%" stop-color="#A5C2F9"/></linearGradient><linearGradient id="bA" x1=".494%" x2="100.085%" y1="49.784%" y2="49.784%"><stop offset="2.162%" stop-color="#FFF"/><stop offset="100%" stop-color="#EDF4FB"/></linearGradient><linearGradient id="bB" x1="54.627%" x2="80.249%" y1="57.159%" y2="97%"><stop offset="0%" stop-color="#A9C2FB" stop-opacity=".9"/><stop offset="100%" stop-color="#A9C2FB" stop-opacity="0"/></linearGradient><linearGradient id="bC" x1="41.069%" x2="8.655%" y1="44.199%" y2="26.965%"><stop offset="0%" stop-color="#A5C2F9"/><stop offset=".286%" stop-color="#A5C2F9"/><stop offset="65.19%" stop-color="#C9DBFA"/><stop offset="100%" stop-color="#D6E4FA"/></linearGradient><linearGradient id="bD" x1="51.607%" x2="49.084%" y1="68.614%" y2="42.974%"><stop offset="0%" stop-color="#A5C2F9"/><stop offset=".286%" stop-color="#A5C2F9"/><stop offset="65.19%" stop-color="#C9DBFA"/><stop offset="100%" stop-color="#D6E4FA"/></linearGradient><linearGradient id="bE" x1="49.256%" x2="52.903%" y1="61.932%" y2="16.011%"><stop offset="0%" stop-color="#1F4A8A"/><stop offset="100%" stop-color="#1F5BAF"/></linearGradient><linearGradient id="bF" x1="16.245%" x2="64.952%" y1="59.865%" y2="50.326%"><stop offset="0%" stop-color="#1F5BAF"/><stop offset="100%" stop-color="#3289F8"/></linearGradient><linearGradient id="bG" x1="31.947%" x2="-103.597%" y1="52.413%" y2="67.848%"><stop offset="0%" stop-color="#A5C2F9"/><stop offset="4.093%" stop-color="#ABC6F9"/><stop offset="28.37%" stop-color="#C7DAFA"/><stop offset="52.61%" stop-color="#DCE8FB"/><stop offset="76.59%" stop-color="#E8F0FB"/><stop offset="100%" stop-color="#ECF3FB"/></linearGradient><linearGradient id="bH" x1="59.651%" x2="55.044%" y1="84.677%" y2="65.938%"><stop offset="0%" stop-color="#A5C2F9"/><stop offset=".286%" stop-color="#A5C2F9"/><stop offset="65.19%" stop-color="#C9DBFA"/><stop offset="100%" stop-color="#D6E4FA"/></linearGradient><linearGradient id="bI" x1="55.607%" x2="51.82%" y1="97.9%" y2="54.839%"><stop offset="0%" stop-color="#1F5BAF"/><stop offset="100%" stop-color="#3289F8"/></linearGradient><linearGradient id="bJ" x1="55.723%" x2="26.285%" y1="55.346%" y2="44.855%"><stop offset="0%" stop-color="#1F4A8A"/><stop offset="100%" stop-color="#1F5BAF"/></linearGradient><linearGradient id="bK" x1="44.814%" x2="40.268%" y1="43.188%" y2="30.516%"><stop offset="0%" stop-color="#A5C2F9"/><stop offset=".286%" stop-color="#A5C2F9"/><stop offset="65.19%" stop-color="#C9DBFA"/><stop offset="100%" stop-color="#D6E4FA"/></linearGradient><linearGradient id="bL" x1="-5.966%" x2="105.605%" y1="50.026%" y2="50.026%"><stop offset="0%" stop-color="#1F5BAF"/><stop offset="100%" stop-color="#3289F8"/></linearGradient><linearGradient id="bM" x1="-26.759%" x2="24.204%" y1="50.037%" y2="50.037%"><stop offset="0%" stop-color="#3184F8"/><stop offset="100%" stop-color="#2260BB"/></linearGradient><linearGradient id="bN" x1="-.028%" x2="100.018%" y1="50.015%" y2="50.015%"><stop offset="0%" stop-color="#3184F8"/><stop offset="100%" stop-color="#2260BB"/></linearGradient><linearGradient id="bO" x1="48.36%" x2="52.355%" y1="61.224%" y2="20.48%"><stop offset="0%" stop-color="#1F4A8A"/><stop offset="100%" stop-color="#1F5BAF"/></linearGradient><linearGradient id="bP" x1="-36.671%" x2="-24.817%" y1="96.513%" y2="89.277%"><stop offset="0%" stop-color="#3289F8"/><stop offset="100%" stop-color="#1F5BAF"/></linearGradient><linearGradient id="bQ" x1="56.409%" x2="34.619%" y1="16.463%" y2="78.945%"><stop offset="0%" stop-color="#ECF3FB"/><stop offset="23.41%" stop-color="#E8F0FB"/><stop offset="47.39%" stop-color="#DCE8FB"/><stop offset="71.63%" stop-color="#C7DAFA"/><stop offset="95.91%" stop-color="#ABC6F9"/><stop offset="100%" stop-color="#A5C2F9"/></linearGradient><linearGradient id="bR" x1="53.98%" x2="45.074%" y1="14.288%" y2="84.087%"><stop offset="0%" stop-color="#ECF3FB"/><stop offset="23.41%" stop-color="#E8F0FB"/><stop offset="47.39%" stop-color="#DCE8FB"/><stop offset="71.63%" stop-color="#C7DAFA"/><stop offset="95.91%" stop-color="#ABC6F9"/><stop offset="100%" stop-color="#A5C2F9"/></linearGradient><linearGradient id="bS" x1="49.95%" x2="51.725%" y1="43.773%" y2="8.239%"><stop offset="0%" stop-color="#1F4A8A"/><stop offset="100%" stop-color="#1F5BAF"/></linearGradient><linearGradient id="bT" x1="-63.695%" x2="-43.216%" y1="88.691%" y2="81.197%"><stop offset="0%" stop-color="#3289F8"/><stop offset="100%" stop-color="#1F5BAF"/></linearGradient><linearGradient id="bU" x1="59.711%" x2="113.754%" y1="50.681%" y2="51.856%"><stop offset="0%" stop-color="#3289F8"/><stop offset="100%" stop-color="#1F5BAF"/></linearGradient><linearGradient id="bV" x1="85.036%" x2="58.229%" y1="77.847%" y2="55.141%"><stop offset="0%" stop-color="#A5C2F9"/><stop offset="4.093%" stop-color="#ABC6F9"/><stop offset="28.37%" stop-color="#C7DAFA"/><stop offset="52.61%" stop-color="#DCE8FB"/><stop offset="76.59%" stop-color="#E8F0FB"/><stop offset="100%" stop-color="#ECF3FB"/></linearGradient><linearGradient id="bW" x1="48.579%" x2="37.375%" y1="28.919%" y2="-22.342%"><stop offset="0%" stop-color="#1F5BAF"/><stop offset="100%" stop-color="#3289F8"/></linearGradient><linearGradient id="bX" x1="78.162%" x2="106.31%" y1="49.913%" y2="49.913%"><stop offset="0%" stop-color="#3289F8"/><stop offset="100%" stop-color="#1F5BAF"/></linearGradient><linearGradient id="bY" x1="35.011%" x2="90.947%" y1="49.814%" y2="57.916%"><stop offset="0%" stop-color="#ECF3FB"/><stop offset="23.41%" stop-color="#E8F0FB"/><stop offset="47.39%" stop-color="#DCE8FB"/><stop offset="71.63%" stop-color="#C7DAFA"/><stop offset="95.91%" stop-color="#ABC6F9"/><stop offset="100%" stop-color="#A5C2F9"/></linearGradient><linearGradient id="bZ" x1="82.87%" x2="-10.385%" y1="49.661%" y2="49.661%"><stop offset="0%" stop-color="#A5C2F9"/><stop offset="4.093%" stop-color="#ABC6F9"/><stop offset="28.37%" stop-color="#C7DAFA"/><stop offset="52.61%" stop-color="#DCE8FB"/><stop offset="76.59%" stop-color="#E8F0FB"/><stop offset="100%" stop-color="#ECF3FB"/></linearGradient><linearGradient id="ca" x1="41.459%" x2="97.659%" y1="49.322%" y2="52.984%"><stop offset="0%" stop-color="#ECF3FB"/><stop offset="23.41%" stop-color="#E8F0FB"/><stop offset="47.39%" stop-color="#DCE8FB"/><stop offset="71.63%" stop-color="#C7DAFA"/><stop offset="95.91%" stop-color="#ABC6F9"/><stop offset="100%" stop-color="#A5C2F9"/></linearGradient><linearGradient id="cb" x1="33.215%" x2="71.529%" y1="48.035%" y2="77.565%"><stop offset="0%" stop-color="#3289F8"/><stop offset="100%" stop-color="#1F5BAF"/></linearGradient><linearGradient id="cc" x1="-.361%" x2="100.102%" y1="50.297%" y2="50.297%"><stop offset="26.76%" stop-color="#3264C4"/><stop offset="100%" stop-color="#3264C4" stop-opacity="0"/></linearGradient><radialGradient id="cd" cx="50.396%" cy="50.304%" r="49.479%" fx="50.396%" fy="50.304%"><stop offset="19.73%" stop-color="#3D65C7"/><stop offset="100%" stop-color="#3D65C7" stop-opacity="0"/></radialGradient><linearGradient id="ce" x1=".045%" x2="99.698%" y1="50.381%" y2="50.381%"><stop offset="26.76%" stop-color="#3264C4"/><stop offset="100%" stop-color="#3264C4" stop-opacity="0"/></linearGradient><radialGradient id="cf" cx="49.875%" cy="50.369%" r="49.479%" fx="49.875%" fy="50.369%"><stop offset="19.73%" stop-color="#3D65C7"/><stop offset="100%" stop-color="#3D65C7" stop-opacity="0"/></radialGradient><linearGradient id="cg" x1="-.361%" x2="100.102%" y1="50.049%" y2="50.049%"><stop offset="26.76%" stop-color="#3264C4"/><stop offset="100%" stop-color="#3264C4" stop-opacity="0"/></linearGradient><radialGradient id="ch" cx="50.396%" cy="49.587%" r="49.479%" fx="50.396%" fy="49.587%"><stop offset="19.73%" stop-color="#3D65C7"/><stop offset="100%" stop-color="#3D65C7" stop-opacity="0"/></radialGradient><linearGradient id="ci" x1="100.094%" x2="-.369%" y1="49.936%" y2="49.936%"><stop offset="26.76%" stop-color="#3264C4"/><stop offset="100%" stop-color="#3264C4" stop-opacity="0"/></linearGradient><radialGradient id="cj" cx="50.304%" cy="49.501%" r="49.479%" fx="50.304%" fy="49.501%"><stop offset="19.73%" stop-color="#3D65C7"/><stop offset="100%" stop-color="#3D65C7" stop-opacity="0"/></radialGradient><linearGradient id="ck" x1="99.69%" x2=".037%" y1="50.437%" y2="50.437%"><stop offset="26.76%" stop-color="#3264C4"/><stop offset="100%" stop-color="#3264C4" stop-opacity="0"/></linearGradient><radialGradient id="cl" cx="49.783%" cy="50.413%" r="49.479%" fx="49.783%" fy="50.413%"><stop offset="19.73%" stop-color="#3D65C7"/><stop offset="100%" stop-color="#3D65C7" stop-opacity="0"/></radialGradient><linearGradient id="cm" x1=".315%" x2="99.967%" y1="49.437%" y2="49.437%"><stop offset="26.76%" stop-color="#3264C4"/><stop offset="100%" stop-color="#3264C4" stop-opacity="0"/></linearGradient><radialGradient id="cn" cx="50.222%" cy="49.631%" r="49.479%" fx="50.222%" fy="49.631%"><stop offset="19.73%" stop-color="#3D65C7"/><stop offset="100%" stop-color="#3D65C7" stop-opacity="0"/></radialGradient><linearGradient id="co" x1="-.327%" x2="100.137%" y1="50.231%" y2="50.231%"><stop offset="26.76%" stop-color="#3264C4"/><stop offset="100%" stop-color="#3264C4" stop-opacity="0"/></linearGradient><radialGradient id="cp" cx="50.44%" cy="50.108%" r="49.479%" fx="50.44%" fy="50.108%"><stop offset="19.73%" stop-color="#3D65C7"/><stop offset="100%" stop-color="#3D65C7" stop-opacity="0"/></radialGradient></defs><g fill="none" fill-rule="evenodd" transform="translate(6 6)"><path fill="#CEE0F5" d="M89.4 226.5c2.9 1.7 2.9 4.4 0 6.1l-41.1 23.9c-2.5 1.5-2.5 3.9 0 5.3l60.3 34.8-.7.4-60.3-34.8c-2.9-1.7-3-4.5 0-6.1l41.1-23.9c2.5-1.5 2.5-3.9 0-5.3l-63.4-36.6.7-.4 63.4 36.6zm131.7 48l-.7.4-93.8-54.2c-2.5-1.5-6.7-1.5-9.2 0l-8.4 4.9c-4.3 2.5-11.2 2.5-15.5 0l-68.1-39.3.7-.4 68.1 39.3c3.9 2.2 10.2 2.2 14.1 0l8.4-4.9c2.9-1.7 7.7-1.7 10.6 0l93.8 54.2z"/><path fill="#CEE0F5" d="M308 218.7l-20.3 11.8c-2.9 1.7-7.7 1.7-10.6 0l-87.9-50.7c-2.5-1.5-6.7-1.5-9.2 0l-73.7 42.8c-2.9 1.7-7.7 1.7-10.6 0l-70.5-40.7.7-.4 70.5 40.7c2.5 1.5 6.7 1.5 9.2 0l73.7-42.8c2.9-1.7 7.7-1.7 10.6 0l87.9 50.7c2.5 1.5 6.7 1.5 9.2 0l20.3-11.8.7.4zm9.4 4.4l-127 73.8-.7-.4 127-73.8z"/><path fill="url(#a)" d="M7.1 196.6h59.2L192 124.3h-62.1s-3.7.4-7.7 2.6c-3.6 2-97.3 56.3-115.3 66.6-2.9 1.8-2.8 3.1.2 3.1z"/><path fill="url(#b)" d="M239.3 122.5l-39.7 23.2c-5.8 3.3-5.7 8.8.1 12.1l122 71.5c3.1 1.8 7.2 2.6 11.2 2.5 3.5-.1 4.4 0 8 0 3.9 0 7.8-.8 10.8-2.5l39.7-23.2c5.8-3.3 5.7-8.8-.1-12.1l-122-71.5c-5.8-3.3-12.2-3.3-17.9 0h-12.1z"/><path fill="url(#c)" d="M194.8 143v8.6c0 2.2 1.5 4.4 4.4 6.1l122 71.5c5.8 3.3 15.2 3.3 20.9 0l39.7-23.2c2.9-1.7 4.3-3.8 4.3-6v-8.6L194.8 143z"/><path fill="#FFF" d="M381.6 186.4c5.8 3.3 5.8 8.8.1 12.1L342 221.7c-5.8 3.3-15.1 3.3-20.9 0l-122-71.5c-5.8-3.3-5.8-8.8-.1-12.1l39.7-23.2c5.8-3.3 15.1-3.3 20.9 0l122 71.5z"/><path fill="url(#d)" d="M381.6 185.3c5.8 3.3 5.8 8.8.1 12.1L342 220.6c-5.8 3.3-15.1 3.3-20.9 0l-122-71.5c-5.8-3.3-5.8-8.8-.1-12.1l39.7-23.2c5.8-3.3 15.1-3.3 20.9 0l122 71.5z"/><path fill="url(#e)" d="M12.6 33.5c-1.2 0-2.4-.3-3.4-.9l-2.7-1.5c-2.1-1.2-2.1-3.1 0-4.3l7.1-4.1c1-.6 2.3-.9 3.7-.9h48.4c1.4 0 2.8.3 3.9.9l2.7 1.5c2.1 1.2 2.1 3.1 0 4.3l-7.1 4.1c-1 .6-2.4.9-3.7.9H12.6z" transform="translate(315 146)"/><path fill="url(#f)" d="M4.9 18.5s-2.5.2-3.5.3c-.7 0-1.4.1-1.2.5.2.5 3.9 1.5 5.2 1.9 1.2.3 2.2.1 2.2-.6s-.4-2.1-1.3-2.1H4.9z" transform="translate(315 146)"/><path fill="url(#g)" d="M17 8.3c-.9-.6-6.4-4.7-10.3-6.7C5.6 1 4.7.7 4 .8c-.1 0-.1 0-.2.1-.2.1-.4.2-.5.4-.1.2-.1.3-.2.5 0 .1-.1.2-.1.3-.9 3.4 1.9 16.5 1.9 16.5.4 1.1 2.1 1.5 2-.1-.1-1.6-.2-10.9-.2-10.9v-.9c1.1 1.1 2.9 2.7 3.6 3.4 0 0 1.2 1.9 3.3 2.7 4.6 1.7 5-3.2 5-3.2S18 9 17 8.3z" transform="translate(315 146)"/><path fill="url(#h)" d="M4.9 14.1v14.7c0 .8.5 1.6 1.6 2.2l2.7 1.5c2.1 1.2 5.4 1.2 7.5 0l7.1-4.1c1-.6 1.5-1.4 1.5-2.1V11.6c0 .1-20.4 1.8-20.4 2.5z" transform="translate(315 146)"/><path fill="url(#i)" d="M23.7 9.4c2.1 1.2 2.1 3.1 0 4.3l-7.1 4.1c-2.1 1.2-5.4 1.2-7.5 0l-2.7-1.5c-2.1-1.2-2.1-3.1 0-4.3l7.1-4.1c2.1-1.2 5.4-1.2 7.5 0l2.7 1.5z" transform="translate(315 146)"/><ellipse cx="329.8" cy="158.1" fill="url(#j)" rx="7.9" ry="3.7"/><path fill="url(#k)" d="M314.5 167.5s-2.5.2-3.5.3c-.7 0-1.4.1-1.2.5.2.5 3.9 1.5 5.2 1.9 1.2.3 2.2.1 2.2-.6s-.4-2.1-1.3-2.1h-1.4z"/><path fill="url(#l)" d="M316.4 156.6s.1 9.4.2 10.9-1.5 1.1-2 .1c0 0-1.3-6.4-1.9-11.4l3.7.4z"/><path fill="url(#m)" d="M314.3 166.9s-1.7-6-1.9-11c-.2-5 .2-5.9 1.1-6.2.7-.3 2.8.1 5.1 1 2.6.9 2.1.8 6.7 2.8l8.1-2.5s1.5 4.1 1.2 5.9c-.3 1.8-5.1 4-7.3 4.3-2.2.3-4.1-1.3-5.2-2.1-2.5-1.7-5.8-4-5.8-4s.9 10.9 1 11.7c.1.1-.2 1.4-3 .1z"/><path fill="url(#n)" d="M11.6 31.9c-.1 1.8-3.9 2.5-7 2.3-3.2-.2-3.9-1.2-4.5-2 .2-2.1 1-4.8 1.3-6.3.3-4.8.1-10.2.7-11.4.6-1.4 4-2.8 6.3-3.2 1-.2 2.4.2 2.9.4 1.4.6.8 2.9.4 4.5s-.9 2.7-.7 5.9c-.1 3.3.8 7.5.6 9.8z" transform="translate(323 123)"/><path fill="url(#o)" d="M3 4.7c-1 1.4-.5 5.1.2 5.7.5.5 1.1.3 1.8.5.5.1.4 1.1.6 1.5.4-.3 1.5-.4 2.2-.5.7-.2.7-.5.9-.4.1-.8.5-6.1-.9-7-1.3-.9-4.2-.8-4.8.2z" transform="translate(323 123)"/><path fill="url(#p)" d="M7.9 1.8c-1.2-.7-4.8-2-5.5.8-.4 1.4.4 2.7 1 3.5.3.4.3 1.1.6 1.4.3.3.4-.6.9-.2.9.8-.7 2.4 1.7 3.1.4.1 1.3.4 1.8-.2 1.7-1.6 3.1-6 .7-6.9-.1 0 0-.8-1.2-1.5z" transform="translate(323 123)"/><path fill="url(#q)" d="M316.2 152.3c.5-.3 1.6-.8 1.7-1.6.2-1.3-1.4-1-2.1-.7-.7.3-1.1 1.5-1 2.7.1.6.2 1.2.5 1.3.3.1.4-.3.4-.6-.1-.3 0-.8.5-1.1z"/><path fill="url(#r)" d="M324.6 139c-.4 1.7-.8 3.9-1.1 5.1l-.2.2c-.8.7-4.7 3.9-6.3 5.4-.9.8-.7 1.4.6 1.2 1.5-.3 5.1-2.5 7-3.9.4-.1.9-.6 1.4-1.5.7-1.1 1.3-2.7 1.7-4.6.2-.8-2.9-2.8-3.1-1.9z"/><path fill="url(#s)" d="M324.3 138.1c0-.1.8-1.3 1.6-1.2 2.1.4 1.9 4.1 1.7 4.6-.1.7.1 1.5-.5 2.4-2.6.9-4.1-1.9-4.1-1.9.3-1.2 1.3-3.9 1.3-3.9z"/><path fill="url(#t)" d="M7.6 16.6s-2.1 1.3-3 1.7c-.6.3-1.2.7-.9 1 .4.3 4.2-.3 5.5-.5 1.2-.2 2-.9 1.8-1.5-.3-.6-1.2-1.7-2-1.4l-1.4.7z" transform="translate(284 165)"/><path fill="url(#u)" d="M4 18.5s-2 1.5-2.9 2c-.5.4-1.2.8-.8 1.1.4.3 4.2-.7 5.4-1 1.2-.3 2-1.1 1.6-1.6-.3-.6-1.4-1.6-2.2-1.2l-1.1.7z" transform="translate(284 165)"/><path fill="url(#v)" d="M15.4 31.2c-1.2 0-2.4-.3-3.4-.9l-2.7-1.5c-2.1-1.2-2.1-3.1 0-4.3l7.1-4.1c1-.6 2.3-.9 3.7-.9h48.4c1.4 0 2.8.3 3.9.9l2.7 1.5c2.1 1.2 2.1 3.1 0 4.3L68 30.3c-1 .6-2.4.9-3.7.9H15.4z" transform="translate(284 165)"/><path fill="url(#w)" d="M8.8 6.3s1.1 8.4 1.3 9.8c0 .5-.1.7-.6.6-.5-.1-1.2 0-1.5-.6 0 0-4.4-11.6-3.6-14.7C5.3-1.7 8 1 8.8 6.3z" transform="translate(284 165)"/><path fill="url(#x)" d="M7.3 11.6v14.7c0 .8.5 1.6 1.6 2.2l2.7 1.5c2.1 1.2 5.4 1.2 7.5 0l7.1-4.1c1-.6 1.5-1.4 1.5-2.1V9.1c0 .1-20.4 1.8-20.4 2.5z" transform="translate(284 165)"/><path fill="url(#y)" d="M26.1 6.9c2.1 1.2 2.1 3.1 0 4.3L19 15.3c-2.1 1.2-5.4 1.2-7.5 0l-2.7-1.5c-2.1-1.2-2.1-3.1 0-4.3l7.1-4.1c2.1-1.2 5.4-1.2 7.5 0l2.7 1.5z" transform="translate(284 165)"/><ellipse cx="301.3" cy="174.6" fill="url(#z)" rx="7.9" ry="3.7"/><path fill="url(#A)" d="M303.8 168.9c-1-.4-7.4-2.8-11.7-3.7-2-.4-3.2-.2-3.4.6-.2 1.3.4 2.4 3.5 4.2.8.5 4.4 1.9 5.6 2.5 0 0 1.7 1.5 3.9 1.7 4.9.4 3.9-4.5 3.9-4.5s-.6-.4-1.8-.8z"/><path fill="url(#B)" d="M288.3 173.1s1.9 8.2 2.2 9.6c.1.5 0 .7-.5.7s-1.2.1-1.5-.4c0 0-5.4-11.1-4.9-14.3.5-3.2 3.4-.7 4.7 4.4z"/><path fill="url(#C)" d="M298 171.7c-1.8-1-6.7-3.9-10.8-4.7-1.9-.4-3.4.3-3.5 1.2-.2 1.3.6 1.9 3.5 3.7 1 .6 4.2 2.7 5.3 3.3 0 0 1.8 1.3 4.4 1.8 4.6.9 2.7-4.1 2.7-4.1s-.6-.7-1.6-1.2z"/><path fill="url(#D)" d="M306.2 169.5c.4 1.3 1.9 4.7-1.4 6.5-3.1 1.6-6 1.9-7.6 1.6-1.6-.3-7.9-4.2-7.9-4.2-1.4-1.4-1.4-4.5.2-5 1.6-.5 2.6-.2 3.5-1.5.8-1.2 1.4-1.2 1.8-1.2l11.4 3.8z"/><path fill="url(#E)" d="M295.8 153.9c-.5.6-.3.9-.1 5.8 0 1.3 1.3 1.8 1.3 2.6.1 1.6.2 3 .2 3.6.1 1.9 0 3-.2 3.9-.2 1.3.7 2.5 2.1 2.6 3.1.2 7.3-.9 7.2-3-.1-3.2-.5-3.1-.2-5.7.6-6.7.3-12.4-2.6-13.3 0 .2-6.4 1.9-7.7 3.5z"/><path fill="url(#F)" d="M296.7 144.2c-1 1.4-.5 5.1.2 5.7.5.5 1.1.3 1.8.5.5.1.4.7.6 1.1.6 1.4 3 .5 3.2-.5.1-.8.5-6.1-.9-7-1.3-.9-4.2-.8-4.9.2z"/><path fill="url(#G)" d="M295.4 155c-.3 1.1-1 5.2-1.3 7.2-.1.1-.2.4-.3.5-.7.8-3.1 4.5-4.6 6-.8.8-.7 1.4.6 1.1 1.5-.4 3.5-2.5 5.5-4.7.4-.4.9-.9 1.4-1.8.8-1.6 1.6-4.1 1.6-6.9.2-5.6-2.6-2.1-2.9-1.4z"/><path fill="url(#H)" d="M288.9 170.8c.5-.4 1.5-.9 1.6-1.7.1-1.3-1.4-.9-2.1-.6-.7.3-1.1 1.6-.9 2.8.1.6.2 1.2.5 1.2s.4-.3.3-.6c.1-.2.1-.7.6-1.1z"/><path fill="url(#I)" d="M298.3 159.2c.1-.7.7-2 .8-2.7.4-2.4-.9-3.4-2.1-3.3-.8.1-1.5.9-1.7 1.5-.4 1.8-.5 2.4-.6 2.8-.1.3-.1.7-.1 1 0-.1 1.1 1.5 3.7.7z"/><path fill="url(#J)" d="M302.4 141.6c1.4.9 1.2 1.9 2.1 4.9 1.1 3.8.9 5-.4 6.5-1 1.1-4.9 2.3-6.6.7-.7-.7.3-2.8.5-4 .4-2 0-3.3-.8-4.2-.7-.7-1.4-1.4-1.1-2.8.4-1.6 3.6-2.8 6.3-1.1z"/><path fill="url(#K)" d="M4.9 18s-2.5.2-3.5.3c-.7 0-1.4.1-1.2.5.2.5 3.9 1.5 5.2 1.9 1.2.3 2.2.1 2.2-.6S7.2 18 6.3 18H4.9z" transform="translate(347 165)"/><path fill="url(#L)" d="M17 7.9c-.9-.6-6.4-4.7-10.3-6.7C5.6.6 4.7.3 4 .4c-.1 0-.1 0-.2.1-.2.1-.4.2-.5.4-.1.2-.1.3-.2.5 0 .1-.1.2-.1.3-.9 3.4 1.9 16.5 1.9 16.5.4 1.1 2.1 1.5 2-.1-.1-1.6-.2-10.9-.2-10.9v-.9C7.8 7.4 9.6 9 10.3 9.7c0 0 1.2 1.9 3.3 2.7 4.6 1.7 5-3.2 5-3.2S18 8.6 17 7.9z" transform="translate(347 165)"/><path fill="url(#M)" d="M33.7 33H12.9c-1.2 0-2.4-.3-3.4-.9l-2.7-1.5c-2.1-1.2-2.1-3.1 0-4.3l7.1-4.1c1-.6 2.3-.9 3.7-.9H36c2.6 2.1 6.2 6.6-2.3 11.7z" transform="translate(347 165)"/><path fill="url(#N)" d="M4.9 13.6v14.7c0 .8.5 1.6 1.6 2.2L9.2 32c2.1 1.2 5.4 1.2 7.5 0l7.1-4.1c1-.6 1.5-1.4 1.5-2.1V11.1c0 .1-20.4 1.8-20.4 2.5z" transform="translate(347 165)"/><path fill="url(#O)" d="M23.7 8.9c2.1 1.2 2.1 3.1 0 4.3l-7.1 4.1c-2.1 1.2-5.4 1.2-7.5 0l-2.7-1.5c-2.1-1.2-2.1-3.1 0-4.3l7.1-4.1c2.1-1.2 5.4-1.2 7.5 0l2.7 1.5z" transform="translate(347 165)"/><path fill="url(#P)" d="M346.5 186.1s-2.5.2-3.5.3c-.7 0-1.4.1-1.2.5.2.5 3.9 1.5 5.2 1.9 1.3.4 2.2.1 2.2-.6s-.4-2.1-1.3-2.1h-1.4z"/><path fill="url(#Q)" d="M348.4 175.2s.1 9.4.2 10.9c.1 1.6-1.5 1.1-2 .1 0 0-1.3-6.4-1.9-11.4l3.7.4z"/><ellipse cx="361.8" cy="176.7" fill="url(#R)" rx="7.9" ry="3.7"/><path fill="url(#S)" d="M346.3 185.5s-1.7-6-1.9-11c-.2-5 .2-5.9 1.1-6.2.7-.3 2.8.1 5.1 1 2.6.9 2.1.8 6.7 2.8l8.1-2.5s1.5 4.1 1.2 5.9c-.3 1.8-5.1 4-7.3 4.3-2.2.3-4.1-1.3-5.2-2.1-2.5-1.7-5.8-4-5.8-4s.9 10.9 1 11.7c.1.1-.2 1.4-3 .1z"/><path fill="url(#T)" d="M11.4 28.6c-.1 1.8-3.6 2.4-6.8 2.2-3.2-.2-3.8-1.4-3.8-2.3 0-.9.7-15.6 1.6-17.6.9-2 6.8-3.6 8.2-3 1.4.6 1.4 3.3 1 4.9-.4 1.6-.9 4.7-.7 7.9.1 3.2.7 5.6.5 7.9z" transform="translate(355 144)"/><path fill="url(#U)" d="M3 1.3c-1 1.4-.5 5.1.2 5.7.5.5 1.1.3 1.8.5.5.1.4 1.1.6 1.5.8.6 3 .1 3.2-.9.1-.8.5-6.1-.9-7C6.6.2 3.7.3 3 1.3z" transform="translate(355 144)"/><path fill="url(#V)" d="M356.3 144.8c-.1-.3 0-.6.2-.9-.1-.1-.1-.2-.2-.4-.1-.5.2-1.1.8-1.2h.2c.1-.3.4-.6.7-.7.2-.1.5 0 .7.1h.1c.1-.2.3-.4.6-.4.3-.1.7 0 .9.3.1-.1.3-.3.5-.3.4-.1.8.1 1.1.4h.1c.5-.1 1.1.2 1.2.8v.2l.1-.1c.5-.1 1.1.2 1.2.8v.4c.3.1.5.4.6.7.1.2 0 .5-.1.7.2.1.3.3.4.6.1.4-.1.7-.3.9v.1c.1.1.2.3.2.4.1.4-.1.9-.5 1.1v.1c.1.1.2.2.2.4.1.5-.2 1.1-.8 1.2h-.1l-.1.1c-.1.3-.4.6-.7.6-.3.1-.6 0-.8-.2-.1 0-.2.1-.2.1-.5.1-.9-.1-1.1-.6-.1-.1-.1-.2-.2-.2-.2-.1-.3-.3-.4-.6 0-.2 0-.4.1-.6-.1-.4-.2-.7-.5-.9-.5-.3-.5.6-.8.4-.3-.2-.5-.8-.8-1.2-.4 0-.7-.3-.9-.6-.4-.1-.7-.4-.8-.7v-.2c-.4-.1-.5-.3-.6-.6z"/><path fill="url(#W)" d="M351.5 173.6c-.7-.8-.3-.9.1-1.5.5-.7 1.7-1.8 1.7-1.8s.4.4.6.8c.2.4.5 1.1.2 1.6-.7 1.2-2.1 1.4-2.6.9z"/><path fill="url(#X)" d="M358.7 154.1c1.7.5.7 2.6.5 5.5-.2 2.4-.5 4.9-.5 5.1-.2 1.4-3.5 6.8-3.9 7.3-.4.5-1.8-.6-1.8-1.4 0-.8 2.4-5.7 2.6-7.1.2-2.1.8-10 3.1-9.4z"/><path fill="url(#Y)" d="M331.2 214.5c-1.2 0-2.4-.3-3.4-.9l-2.7-1.5c-2.1-1.2-2.1-3.1 0-4.3l7.1-4.1c1-.6 2.3-.9 3.7-.9h48.4c1.4 0 2.8.3 3.9.9l2.7 1.5c2.1 1.2 2.1 3.1 0 4.3l-7.1 4.1c-1 .6-2.4.9-3.7.9h-48.9z"/><path fill="url(#Z)" d="M5.3 18.5s-2.5.2-3.5.3c-.7 0-1.4.1-1.2.5.2.5 3.9 1.5 5.2 1.9 1.2.3 2.2.1 2.2-.6s-.4-2.1-1.3-2.1H5.3z" transform="translate(318 181)"/><path fill="url(#aa)" d="M17.4 8.4c-.9-.6-6.4-4.7-10.3-6.7C6 1.1 5.1.8 4.4.9c-.1 0-.1 0-.2.1-.2.1-.4.2-.5.4-.1.2-.1.3-.2.5 0 .1-.1.2-.1.3-.9 3.4 1.9 16.5 1.9 16.5.4 1.1 2.1 1.5 2-.1-.1-1.6-.2-10.9-.2-10.9v-.9c1.1 1.1 2.9 2.7 3.6 3.4 0 0 1.2 1.9 3.3 2.7 4.6 1.7 5-3.2 5-3.2s-.6-.6-1.6-1.3z" transform="translate(318 181)"/><path fill="url(#ab)" d="M5.4 14.1v14.7c0 .8.5 1.6 1.6 2.2l2.7 1.5c2.1 1.2 5.4 1.2 7.5 0l7.1-4.1c1-.6 1.5-1.4 1.5-2.1V11.6c-.1.1-20.4 1.8-20.4 2.5z" transform="translate(318 181)"/><path fill="url(#ac)" d="M24.2 9.4c2.1 1.2 2.1 3.1 0 4.3l-7.1 4.1c-2.1 1.2-5.4 1.2-7.5 0l-2.7-1.5c-2.1-1.2-2.1-3.1 0-4.3L14 7.9c2.1-1.2 5.4-1.2 7.5 0l2.7 1.5z" transform="translate(318 181)"/><ellipse cx="333.3" cy="193.1" fill="url(#ad)" rx="7.9" ry="3.7"/><path fill="url(#ae)" d="M317.9 202.6s-2.5.2-3.5.3c-.7 0-1.4.1-1.2.5.2.5 3.9 1.5 5.2 1.9 1.3.4 2.2.1 2.2-.6s-.4-2.1-1.3-2.1h-1.4z"/><path fill="url(#af)" d="M319.8 191.7s.1 9.4.2 10.9c.1 1.6-1.5 1.1-2 .1 0 0-1.3-6.4-1.9-11.4l3.7.4z"/><path fill="url(#ag)" d="M317.7 202s-1.7-6-1.9-11c-.2-5 .2-5.9 1.1-6.2.7-.3 2.8.1 5.1 1 2.6.9 2.1.8 6.7 2.8l8.1-2.5s1.5 4.1 1.2 5.9c-.3 1.8-5.1 4-7.3 4.3-2.2.3-4.1-1.3-5.2-2.1-2.5-1.7-5.8-4-5.8-4s.9 10.9 1 11.7c.1.1-.2 1.4-3 .1z"/><path fill="url(#ah)" d="M327.5 170c-.7.6-1.5 1-1.3 2.5.1.7.9 1.9.9 3.6 0 1.3.5 2.8.6 3.7.1 1.6.1 2.8.1 3.4.1 1.9-.4 4-.4 4.8 0 .6-.2.8.1 1.3.4.5 3.7 1.7 4.4 1.8 3.1.2 5.8-1.1 5.8-3.3-.1-3.2-.6-4.5-.6-7.4.1-4.5.6-9.2-.4-11.6-.4-1.2-1.6-1.3-2.5-1.5 0-.1-5.1 1.3-6.7 2.7z"/><path fill="url(#ai)" d="M320.1 187.2c.6.2 1.6.6 2.3.2 1.1-.7-.2-1.7-.9-2-.7-.3-1.9.2-2.7 1.1-.4.4-.7.9-.6 1.2.1.3.5.1.7-.1.2-.2.6-.5 1.2-.4z"/><path fill="url(#aj)" d="M328.8 177.6c-.9 3.8-1.2 3.8-1.8 4.6-.5.8-3.6 4.6-4 4.8-.4.2-2.2-.9-1.7-1.8.5-.9 2.6-3.6 2.9-4.5.4-.8 1.3-2 1.6-5.2.3-3.4.2-4.5 1.3-4.8 1.2-.4 2.6 3.1 1.7 6.9z"/><path fill="url(#ak)" d="M327.5 161.4c-1 1.4-.5 5.1.2 5.7.5.5 1.1.3 1.8.5.5.1.4.7.6 1.1.6 1.4 3 .5 3.2-.5.1-.8.5-6.1-.9-7-1.3-.9-4.2-.8-4.9.2z"/><path fill="url(#al)" d="M332.4 158.5c-1.2-.7-4.8-1.3-5.5 1.5-.4 1.4.4 2.1 1.1 2.8.3.4.3 1.1.6 1.4.3.3.4-.6.9-.2.9.8-.7 2.4 1.7 3.1.4.1 1.3.4 1.8-.2 1.7-1.6 3.1-6 .7-6.9-.1 0 0-.8-1.3-1.5z"/><path fill="url(#am)" d="M330.1 168.4c.8.6 2.8-.2 3.3-1.1 0 0 .1 0 .2.4s-.6 1.4-1.4 1.7c-.8.3-2.4-.1-2.3-.6 0-.4.2-.4.2-.4z"/><path fill="url(#an)" d="M4.2 71.1C2.3 72.2.8 74.8.8 77L1 193.3c0 2.2 1.5 3 3.4 2L126 125.1c1.9-1.1 3.4-3.7 3.4-5.9l-.2-116.3c0-2.2-1.5-3-3.4-2L4.2 71.1z"/><path fill="#E0E9FD" d="M22.9 96.8v3l-11.3 6.5v-2.9zm4.4-10l.1 3L11.6 99v-2.9zm92.8-.4v2.9l-42.7 25.1v-2.9zm-12.5 14.8v2.9l-30.2 17.7v-3zm12.5-22.1v3l-42.7 25v-2.9z"/><path fill="#6EA9FF" d="M18.7 136.7l.1 19.2-7.3 4.2V141zm10.7-16.6v29.5l-7.2 4.3-.1-29.6zm10.7 11.1v12.2l-7.2 4.2-.1-12.2z"/><path fill="#E0E9FD" d="M50.6 94.2l.2 43-7.3 4.2-.1-43z"/><path fill="#6EA9FF" d="M61.3 97l.1 33.9-7.2 4.3-.1-34zm34.6-48.9l.1 17.8 13.7-16.6c1.3 1.9 2 4.5 2.1 7.7 0 10-7 22.3-15.7 27.4-8.7 5.1-15.8 1.1-15.8-8.9-.2-10 6.9-22.3 15.6-27.4z"/><path fill="#E0E9FD" d="M98.1 42.2c5.9-3.5 11-2.8 13.8 1.1L98.2 59.9l-.1-17.7z"/><path fill="url(#ao)" d="M134.9 282.5l-35.3 20.7c-5.8 3.3-5.7 8.8.1 12.1l37.6 21.7c3.1 1.8 7.2 2.6 11.2 2.5 3.5-.1 4.4 0 8 0 3.9 0 7.8-.8 10.8-2.5l35.3-20.7c5.8-3.3 5.7-8.8-.1-12.1l-37.6-21.7c-5.8-3.3-12.2-3.3-17.9 0h-12.1z"/><path fill="url(#ap)" d="M94.6 300.5v8.6c0 2.2 1.5 4.4 4.4 6.1l37.6 21.7c5.8 3.3 15.2 3.3 20.9 0l35.3-20.7c2.9-1.7 4.3-3.8 4.3-6v-8.6l-102.5-1.1z"/><path fill="#FFF" d="M192.8 296.6c5.8 3.3 5.8 8.8.1 12.1l-35.3 20.7c-5.8 3.3-15.1 3.3-20.9 0L99 307.6c-5.8-3.3-5.8-8.8-.1-12.1l35.3-20.7c5.8-3.3 15.1-3.3 20.9 0l37.7 21.8z"/><path fill="url(#aq)" d="M192.8 295.5c5.8 3.3 5.8 8.8.1 12.1l-35.3 20.7c-5.8 3.3-15.1 3.3-20.9 0L99 306.6c-5.8-3.3-5.8-8.8-.1-12.1l35.3-20.7c5.8-3.3 15.1-3.3 20.9 0l37.7 21.7z"/><path fill="url(#ar)" d="M166.6 285.6c2.1 1.2 2.1 3.1 0 4.3l-35.5 20.7c-2 1.2-5.4 1.2-7.5 0L107 301c-2.1-1.2-2.1-3.1 0-4.3l35.5-20.7c2.1-1.2 5.4-1.2 7.5 0l16.6 9.6z"/><path fill="url(#as)" d="M141.6 300.2s-1.8 1.7-2.6 2.4c-.5.4-1.1.9-.7 1.2.4.2 4.1-1.2 5.2-1.7 1.1-.5 1.8-1.3 1.4-1.8-.4-.5-1.5-1.4-2.3-.9l-1 .8z"/><path fill="url(#at)" d="M140.5 289.8s2.9 7.9 3.3 9.3c.2.5.1.7-.4.8-.5 0-1.1.3-1.5-.3 0 0-6.8-10.4-6.7-13.6.2-3.2 3.5-1.1 5.3 3.8z"/><path fill="url(#au)" d="M144.9 288.2s1.8 8.3 2 9.7c.1.5 0 .7-.5.7-.5-.1-1.2.1-1.5-.5 0 0-5.2-11.2-4.7-14.4.5-3.1 3.5-.6 4.7 4.5z"/><path fill="url(#av)" d="M155.4 286.1c-1-.4-7.4-2.8-11.7-3.7-2-.4-3.2-.2-3.4.6-.2 1.3.4 2.4 3.5 4.2.8.5 4.4 1.9 5.6 2.5 0 0 1.7 1.5 3.9 1.7 4.9.4 3.9-4.5 3.9-4.5s-.6-.4-1.8-.8z"/><path fill="url(#aw)" d="M149.6 288.9c-1.8-1-6.7-3.9-10.8-4.7-1.9-.4-3.4.3-3.5 1.2-.2 1.3.6 1.9 3.5 3.7 1 .6 4.2 2.7 5.3 3.3 0 0 1.8 1.3 4.4 1.8 4.6.9 2.7-4.1 2.7-4.1s-.6-.7-1.6-1.2z"/><path fill="url(#ax)" d="M160.9 269.3c0-.8-62.8 10.2-62.8 11v1.3c0 .8.5 1.6 1.6 2.2l16.7 9.6c2.1 1.2 5.4 1.2 7.5 0l35.5-20.7c1-.6 1.5-1.4 1.5-2.1v-1.3z"/><path fill="url(#ay)" d="M159.3 267.1c2.1 1.2 2.1 3.1 0 4.3l-35.5 20.7c-2 1.2-5.4 1.2-7.5 0l-16.7-9.6c-2.1-1.2-2.1-3.1 0-4.3l35.5-20.7c2.1-1.2 5.4-1.2 7.5 0l16.7 9.6z"/><path fill="url(#az)" d="M140.2 218.2c1.1-.6 2-.1 2 1.1l.1 25.4c0 1.3-.9 2.8-2 3.5L106.1 268c-1.1.6-2 .1-2-1.1l-.1-25.4c0-1.3.9-2.8 2-3.5l34.2-19.8z"/><path fill="url(#aA)" d="M142.2 274.7c.9.5.9 1.3 0 1.8l-10.1 5.9c-.9.5-2.2.5-3.1 0l-3.1-1.8c-.9-.5-.9-1.3 0-1.8l10.1-5.9c.9-.5 2.2-.5 3.1 0l3.1 1.8z"/><path fill="url(#aB)" d="M142.3 250.2v9.7l-38.3 22v-9.6z"/><path fill="#E0E9FD" d="M119.3 250.7v3l-2.7 1.6v-3z"/><path fill="#6EA9FF" d="M119.3 244.1v6.6l-2.7 1.6-.1-6.6z"/><path fill="#E0E9FD" d="M123.3 245.7l.1 5.7-2.8 1.6v-5.7z"/><path fill="#6EA9FF" d="M123.3 235.9v9.8l-2.7 1.6-.1-9.8z"/><path fill="#E0E9FD" d="M127.4 245.1v4l-2.7 1.5-.1-3.9z"/><path fill="#6EA9FF" d="M127.4 236.8v8.4l-2.8 1.5v-8.4zm8.8-5.2v1.4l-5.4 3.1-.1-1.4zm0 11.4v1.4l-5.4 3.1-.1-1.4zm2.1-16.2v1.4l-7.6 4.4v-1.4zm-24.9 28.7v1.4L108 260v-1.4z"/><path fill="url(#aC)" d="M210.2 239l-35.3 20.7c-5.8 3.3-5.7 8.8.1 12.1l37.6 21.7c3.1 1.8 7.2 2.6 11.2 2.5 3.5-.1 4.4 0 8 0 3.9 0 7.8-.8 10.8-2.5l35.3-20.7c5.8-3.3 5.7-8.8-.1-12.1L240.2 239c-5.8-3.3-12.2-3.3-17.9 0h-12.1z"/><path fill="url(#aD)" d="M170 257v8.6c0 2.2 1.5 4.4 4.4 6.1l37.6 21.7c5.8 3.3 15.2 3.3 20.9 0l35.3-20.7c2.9-1.7 4.3-3.8 4.3-6v-8.6L170 257z"/><path fill="#FFF" d="M268.1 253.1c5.8 3.3 5.8 8.8.1 12.1l-35.3 20.7c-5.8 3.3-15.1 3.3-20.9 0l-37.6-21.7c-5.8-3.3-5.8-8.8-.1-12.1l35.3-20.7c5.8-3.3 15.1-3.3 20.9 0l37.6 21.7z"/><path fill="url(#aE)" d="M268.1 252c5.8 3.3 5.8 8.8.1 12.1l-35.3 20.7c-5.8 3.3-15.1 3.3-20.9 0l-37.6-21.7c-5.8-3.3-5.8-8.8-.1-12.1l35.3-20.7c5.8-3.3 15.1-3.3 20.9 0l37.6 21.7z"/><path fill="url(#aF)" d="M62 11.1c2.1 1.2 2.1 3.1 0 4.3L26.5 36.1c-2 1.2-5.4 1.2-7.5 0L2.3 26.5c-2.1-1.2-2.1-3.1 0-4.3L37.8 1.5c2.1-1.2 5.4-1.2 7.5 0L62 11.1z" transform="translate(180 231)"/><path fill="url(#aG)" d="M38.2 24.4s-2.5.2-3.5.3c-.7 0-1.4.1-1.2.5.2.4 3.9 1.5 5.2 1.9 1.2.3 2.2.1 2.2-.6s-.4-2.1-1.3-2.1h-1.4z" transform="translate(180 231)"/><path fill="url(#aH)" d="M50.3 14.2c-.9-.6-6.4-4.7-10.3-6.7-1.1-.6-2-.9-2.7-.8-.1 0-.1 0-.2.1-.2.1-.4.2-.5.4-.1.2-.1.3-.2.5 0 .1-.1.2-.1.3-.9 3.4 1.9 16.5 1.9 16.5.4 1.1 2.1 1.5 2-.1-.1-1.6-.2-10.9-.2-10.9v-.9c1.1 1.1 2.9 2.7 3.6 3.4 0 0 1.2 1.9 3.3 2.7 4.6 1.7 5-3.2 5-3.2s-.6-.6-1.6-1.3z" transform="translate(180 231)"/><path fill="url(#aI)" d="M46.5 39.4c-1.2 0-2.4-.3-3.4-.9L40.4 37c-2.1-1.2-2.1-3.1 0-4.3l7.1-4.1c1-.6 2.3-.9 3.7-.9h48.4c1.4 0 2.8.3 3.9.9l2.7 1.5c2.1 1.2 2.1 3.1 0 4.3l-7.1 4.1c-1 .6-2.4.9-3.7.9H46.5z" transform="translate(180 231)"/><path fill="url(#aJ)" d="M38.4 20v14.7c0 .8.5 1.6 1.6 2.2l2.7 1.5c2.1 1.2 5.4 1.2 7.5 0l7.1-4.1c1-.6 1.5-1.4 1.5-2.1V17.5c0 .1-20.4 1.8-20.4 2.5z" transform="translate(180 231)"/><path fill="url(#aK)" d="M.4 8v1.3c0 .8.5 1.6 1.6 2.2L4.7 13c2.1 1.2 5.4 1.2 7.5 0l7.1-4.1c1-.6 1.5-1.4 1.5-2.1V5.5C20.8 5.6.4 7.3.4 8z" transform="translate(218 243)"/><path fill="url(#aL)" d="M19.2 3.3c2.1 1.2 2.1 3.1 0 4.3l-7.1 4.1c-2.1 1.2-5.4 1.2-7.5 0l-2.7-1.5C-.2 9-.2 7.1 1.9 5.9L9 1.8c2.1-1.2 5.4-1.2 7.5 0l2.7 1.5z" transform="translate(218 243)"/><ellipse cx="228.3" cy="249" fill="url(#aM)" rx="7.9" ry="3.7"/><path fill="url(#aN)" d="M212.8 258.5s-2.5.2-3.5.3c-.7 0-1.4.1-1.2.5.2.5 3.9 1.5 5.2 1.9 1.2.3 2.2.1 2.2-.6s-.4-2.1-1.3-2.1h-1.4z"/><path fill="url(#aO)" d="M214.7 247.6s.1 9.4.2 10.9c.1 1.6-1.5 1.1-2 .1 0 0-1.3-6.4-1.9-11.4l3.7.4z"/><path fill="url(#aP)" d="M212.7 257.9s-1.7-6-1.9-11c-.2-5 .2-5.9 1.1-6.2.7-.3 2.8.1 5.1 1 2.6.9 2.1.8 6.7 2.8l8.1-2.5s1.5 4.1 1.2 5.9c-.3 1.8-5.1 4-7.3 4.3-2.2.3-4.1-1.3-5.2-2.1-2.5-1.7-5.8-4-5.8-4s.9 10.9 1 11.7c0 .1-.2 1.4-3 .1z"/><path fill="url(#aQ)" d="M236.2 225.8c0-.8-62.8 10.2-62.8 11v1.3c0 .8.5 1.6 1.6 2.2l16.7 9.6c2.1 1.2 5.4 1.2 7.5 0l35.5-20.7c1-.6 1.5-1.4 1.5-2.1v-1.3z"/><path fill="url(#aR)" d="M234.6 223.6c2.1 1.2 2.1 3.1 0 4.3l-35.5 20.7c-2 1.2-5.4 1.2-7.5 0L175 239c-2.1-1.2-2.1-3.1 0-4.3l35.5-20.7c2.1-1.2 5.4-1.2 7.5 0l16.6 9.6z"/><path fill="url(#aS)" d="M215.6 174.7c1.1-.6 2-.1 2 1.1l.1 25.4c0 1.3-.9 2.8-2 3.5l-34.2 19.8c-1.1.6-2 .1-2-1.1l-.1-25.4c0-1.3.9-2.8 2-3.5l34.2-19.8z"/><path fill="url(#aT)" d="M217.5 231.2c.9.5.9 1.3 0 1.8l-10.1 5.9c-.9.5-2.2.5-3.1 0l-3.1-1.8c-.9-.5-.9-1.3 0-1.8l10.1-5.9c.9-.5 2.2-.5 3.1 0l3.1 1.8z"/><path fill="url(#aU)" d="M217.6 206.7v9.7l-38.2 22v-9.6z"/><path fill="url(#aV)" d="M223.7 227.1c-1 .4-5.5 1.8-7.6 2.6-.5-.2-1.4-.4-2-.4-.9-.1-2.4.7-2.7 1.9 0 .2.3.2.5.1.4-.3.7-.7 1.3-.6.4.1-1 .7-.5 1 .2.1 1-.4 1.6-.5.4-.1 1-.1 1.5-.2.1 0 .2.1.3.1 1.9.4 8-.9 9.2-1.5 1.7-1 .6-3.5-1.6-2.5z"/><path fill="url(#aW)" d="M205.4 234.4c.6 0 1.7.2 2.3-.4.9-.9-.6-1.6-1.3-1.7-.7-.1-1.8.7-2.4 1.7-.3.5-.5 1.1-.3 1.3.2.2.5 0 .6-.3.2-.2.5-.5 1.1-.6z"/><path fill="url(#aX)" d="M221.1 226.6c-.7.6-1 .6-.7 2.1.1.7 1.6 1.6 1.7 3.2 0 1.3.5 2.8.6 3.7.1 1.6.1 2.8.1 3.4.1 1.9-.4 4-.4 4.8 0 .6-.2.8.1 1.3.4.5 3.7 1.7 4.4 1.8 3.1.2 5.8-1.1 5.8-3.3-.1-3.2-.6-4.5-.6-7.4.1-4.5.6-9.2-.4-11.6-.4-1.2-1.6-1.3-2.5-1.5 0 0-6.4 2.1-8.1 3.5z"/><path fill="url(#aY)" d="M219.8 227.9l-3.7 3.7h-.2c-1 .2-6 .7-8.2 1.1-1.2.2-1.4.8-.1 1.3 1.4.6 5.6.7 7.9.6.4.1 1.1 0 2-.5 1.2-.6 2.6-1.6 3.9-3 .5-.4-1-3.8-1.6-3.2z"/><path fill="url(#aZ)" d="M221.6 226.3c.1-.1.9.1 1.1 1 .3 1.5.1 4.3-.4 4.7-.5.5-1.2 1-2.2 1.4-2.6-.9-2.2-3.9-2.2-3.9.9-1 3.7-3.2 3.7-3.2z"/><path fill="url(#ba)" d="M222.5 217.3c-1 1.4-.5 5.1.2 5.7.5.5 1.1.3 1.8.5.5.1.4.7.6 1.1.6 1.4 3 .5 3.2-.5.1-.8.5-6.1-.9-7-1.3-.9-4.3-.8-4.9.2z"/><path fill="url(#bb)" d="M227.4 214.4c-1.2-.7-4.8-1.3-5.5 1.5-.4 1.4.4 2.1 1.1 2.8.3.4.3 1.1.6 1.4.3.3.4-.6.9-.2.9.8-.7 2.4 1.7 3.1.4.1 1.3.4 1.8-.2 1.7-1.6 3.1-6 .7-6.9-.2 0-.1-.8-1.3-1.5z"/><path fill="url(#bc)" d="M225 224.3c.8.6 2.8-.2 3.3-1.1 0 0 .1 0 .2.4s-.6 1.4-1.4 1.7c-.9.3-2.4-.1-2.3-.6.1-.4.2-.4.2-.4z"/><path fill="url(#bd)" d="M184.3 181.7c1.3.7 2.1 1.8 2.1 2.9 0 2.3-3.2 4.1-7.1 4.1h-38.2c-2 0-3.7-.5-5-1.2-1.3-.7-2.1-1.8-2.1-2.9 0-2.3 3.2-4.1 7.1-4.1h38.2c1.9 0 3.7.5 5 1.2z"/><path fill="url(#be)" d="M281.5 160c1.3.7 2.1 1.8 2.1 2.9 0 2.3-3.2 4.1-7.1 4.1h-38.2c-2 0-3.7-.5-5-1.2-1.3-.7-2.1-1.8-2.1-2.9 0-2.3 3.2-4.1 7.1-4.1h38.2c1.9 0 3.7.4 5 1.2z"/><path fill="url(#bf)" d="M233.2 152.9c.2.1.3.3.3.5 0 .4-.5.7-1.1.7h-6.1c-.3 0-.6-.1-.8-.2-.2-.1-.3-.3-.3-.5 0-.4.5-.7 1.1-.7h6.1c.3.1.6.1.8.2z"/><path fill="url(#bg)" d="M216.5 143.4c.2.1.3.3.3.5 0 .4-.5.7-1.1.7h-6.1c-.3 0-.6-.1-.8-.2-.2-.1-.3-.3-.3-.5 0-.4.5-.7 1.1-.7h6.1c.3.1.6.1.8.2z"/><path fill="url(#bh)" d="M275.5 128.2c.2.1.3.3.3.5 0 .4-.5.7-1.1.7h-6.1c-.3 0-.6-.1-.8-.2-.2-.1-.3-.3-.3-.5 0-.4.5-.7 1.1-.7h6.1c.3 0 .6.1.8.2z"/><path fill="url(#bi)" d="M14.4 29.2c.7.1.8.4.7 1.2-.1.8-.5 3.9-1.8 3.2-1.3-.8-.8-3.9 1.1-4.4z" transform="translate(134 125)"/><path fill="url(#bj)" d="M16.5 21.2v-.1c0-.2 0-.3-.1-.5-.3-1.4-1-7.4-1.5-8.5-.5-1.3-3.4-2.3-2.8 3 .3 2.5 1.5 12.4 1.6 14.4 0 1.1.5 1.4 1.2.3 1-1.6 1.8-7.4 1.6-8.6z" transform="translate(134 125)"/><path fill="url(#bk)" d="M11.3 57s-1.7-.4-2.7-.3c-.7 0-1.1.1-.9.6.2.5 2.8 2.1 4 2.4 1.2.3 2 .1 2-.6s-.1-2.1-1-2.1h-1.4z" transform="translate(134 125)"/><path fill="url(#bl)" d="M13 46.2s.1 9.4.2 10.9c.1 1.6-1.5 1.1-2 .1 0 0-2.8-13.1-1.9-16.5 1-3.4 3.7 0 3.7 5.5z" transform="translate(134 125)"/><path fill="url(#bm)" d="M4.9 60.3s-2.5.2-3.5.3c-.7 0-1.4.1-1.2.5.2.5 3.9 1.5 5.2 1.9 1.2.3 2.2.1 2.2-.6s-.4-2.1-1.3-2.1H4.9z" transform="translate(134 125)"/><path fill="url(#bn)" d="M6.6 49.5s.1 9.4.2 10.9c.1 1.6-1.5 1.1-2 .1 0 0-2.3-13.1-1.5-16.5.8-3.4 3.3 0 3.3 5.5z" transform="translate(134 125)"/><path fill="url(#bo)" d="M9.8 56.2c1.2.7 3.6 1.4 3.6.3 0-1.1-.3-8.9-.4-11.9 0-9.1 1.4-8.4.9-13.3-.5-4.9-5-.6-5.4.7-.4 1.3.4 10.7.6 12.9.2 2.2.7 11.3.7 11.3z" transform="translate(134 125)"/><path fill="url(#bp)" d="M4.2 30.7C3.9 32.3 2.6 42 2.6 44.3c0 2.3.6 14.8.6 14.8S7 61 7 59.3c0-.9 0-8.4-.5-12.1-.3-2.2 2.1-8.7 2.7-11.1.8-.3 2.9-1.7 2.4-5.9s-7.4.5-7.4.5z" transform="translate(134 125)"/><path fill="url(#bq)" d="M14.6 33.2c-.1 1.8-3.9 2.5-7 2.3-3.1-.2-3.9-1.2-4.5-2 .2-2.1 1-4.8 1.3-6.3.3-4.8.1-12.2.7-13.4.6-1.4 4-2.8 6.3-3.2 1-.2 2.4.2 2.9.4 1.4.6.8 2.9.4 4.5s-.9 4.7-.7 7.9c-.1 3.2.8 7.4.6 9.8z" transform="translate(134 125)"/><path fill="url(#br)" d="M6 4c-1 1.4-.5 5.1.2 5.7.5.5 1.1.3 1.8.5.5.1.4 1.1.6 1.5.4-.3 1.5-.4 2.2-.5.7-.2.7-.5.9-.4.1-.8.5-6.1-.9-7C9.4 2.9 6.6 3 6 4z" transform="translate(134 125)"/><path fill="url(#bs)" d="M10.9 1c-1.2-.7-4.8-2-5.5.8-.4 1.4.4 2.7 1 3.5.3.4.3 1.1.6 1.4.3.3.4-.6.9-.2.9.8-.7 2.4 1.7 3.1.4.1 1.3.4 1.8-.2 1.7-1.6 3.1-6 .7-6.9-.1.1 0-.7-1.2-1.5z" transform="translate(134 125)"/><path fill="url(#bt)" d="M5.5 33.9c-1.2-.2-1.8-1.6-1.7-2.4.1-.7.8-2.2 1.7-1.3.5.5.5 1.3.4 1.9 0 0 .4 0 .5.4.1.3-.2 1.5-.9 1.4z" transform="translate(134 125)"/><path fill="url(#bu)" d="M2.7 23.2c.1-1.1.1-3.5 1.1-6.6 1-3.2 1.5-3.7 2.5-3.6.7.1 1.4.9 1.5 1.9.1.6.1 2-.4 3.4-.6 1.9-1.6 4.6-1.6 5.7 0 1.6.8 5.7.7 6.9-.1 1.2-2.8-.4-2.8-.4l-1-7.3z" transform="translate(134 125)"/><path fill="url(#bv)" d="M30 195.6c-1.5-.1-2.1-.4-3.2-1.1l-3.3-1.9c-2.6-1.5-2.6-3.9 0-5.4l8.9-5.2c1.3-.7 2.9-1.1 4.6-1.1h60.5c1.8 0 3.6.3 4.9 1.1l3.3 1.9c2.6 1.5 2.6 3.9 0 5.4l-8.9 5.2c-1.3.7-3 1.1-4.6 1.1H30z"/><path fill="url(#bw)" d="M16.8 173v15.2c0 .4.3.8.8 1.1l10.1 5.8c1.1.6 2.8.6 3.9 0l10.2-5.9c.5-.3.8-.7.8-1.1v-15.2c.1.1-25.8-.3-25.8.1z"/><path fill="url(#bx)" d="M41.9 171.8c1.1.6 1.1 1.6 0 2.3L31.6 180c-1.1.6-2.8.6-3.9 0l-10.1-5.8c-1.1-.6-1.1-1.6 0-2.3l10.3-5.9c1.1-.6 2.8-.6 3.9 0l10.1 5.8z"/><path fill="url(#by)" d="M151.3 313.9c-1.2 0-2.4-.3-3.4-.9l-2.7-1.5c-2.1-1.2-2.1-3.1 0-4.3l7.1-4.1c1-.6 2.3-.9 3.7-.9h48.4c1.4 0 2.8.3 3.9.9l2.7 1.5c2.1 1.2 2.1 3.1 0 4.3l-7.1 4.1c-1 .6-2.4.9-3.7.9h-48.9z"/><path fill="url(#bz)" d="M143.1 294.5v14.7c0 .8.5 1.6 1.6 2.2l2.7 1.5c2.1 1.2 5.4 1.2 7.5 0l7.1-4.1c1-.6 1.5-1.4 1.5-2.1V292s-20.4 1.7-20.4 2.5z"/><path fill="url(#bA)" d="M161.9 289.8c2.1 1.2 2.1 3.1 0 4.3l-7.1 4.1c-2.1 1.2-5.4 1.2-7.5 0l-2.7-1.5c-2.1-1.2-2.1-3.1 0-4.3l7.1-4.1c2.1-1.2 5.4-1.2 7.5 0l2.7 1.5z"/><ellipse cx="153.8" cy="292" fill="url(#bB)" rx="7.9" ry="3.7"/><path fill="url(#bC)" d="M149.5 271.8c-1 .4-5.5 1.8-7.6 2.6-.5-.2-1.4-.4-2-.4-.9-.1-2.4.7-2.7 1.9 0 .2.3.2.5.1.4-.3.7-.7 1.3-.6.4.1-1 .7-.5 1 .2.1 1-.4 1.6-.5.4-.1 1-.1 1.5-.2.1 0 .2.1.3.1 1.9.4 8-.9 9.2-1.5 1.8-1.1.7-3.5-1.6-2.5z"/><path fill="url(#bD)" d="M131.2 279.1c.6 0 1.7.2 2.3-.4.9-.9-.6-1.6-1.3-1.7-.7-.1-1.8.7-2.4 1.7-.3.5-.5 1.1-.3 1.3.2.2.5 0 .6-.3.2-.2.5-.6 1.1-.6z"/><path fill="url(#bE)" d="M157.8 286.7c.4 1.3 1.9 4.7-1.4 6.5-3.1 1.6-6 1.9-7.6 1.6-1.6-.3-7.9-4.2-7.9-4.2-1.4-1.4-1.4-4.5.2-5 1.6-.5 2.6-.2 3.5-1.5.8-1.2 1.4-1.2 1.8-1.2l11.4 3.8z"/><path fill="url(#bF)" d="M147.3 271.2c-.5.6-.3.9-.1 5.8 0 1.3 1.3 1.8 1.3 2.6.1 1.6.2 3 .2 3.6.1 1.9 0 3-.2 3.9-.2 1.3.7 2.5 2.1 2.6 3.1.2 7.3-.9 7.2-3-.1-3.2-.5-3.1-.2-5.7.6-6.7.3-12.4-2.6-13.3 0 .1-6.3 1.8-7.7 3.5z"/><path fill="url(#bG)" d="M148.3 261.4c-1 1.4-.5 5.1.2 5.7.5.5 1.1.3 1.8.5.5.1.4.7.6 1.1.6 1.4 3 .5 3.2-.5.1-.8.5-6.1-.9-7-1.3-.9-4.2-.8-4.9.2z"/><path fill="url(#bH)" d="M147.1 271.3c-.9.7-3.9 3.7-5.2 5.1h-.2c-1 .2-6 .7-8.2 1.1-1.2.2-1.4.8-.1 1.3 1.4.6 5.6.7 7.9.6.4.1 1.1 0 2-.5 1.6-.8 3.7-2.4 5.4-4.6 3.5-4.6-.9-3.5-1.6-3z"/><path fill="url(#bI)" d="M147 276.3c.5-.5 1.7-1.2 2.2-1.7 1.7-1.7 1.3-3.3.3-3.9-.7-.4-1.8-.2-2.2.2-1.4 1.2-1.8 1.6-2.1 1.9-.3.2-.5.5-.7.7 0 0-.1 2 2.5 2.8z"/><path fill="url(#bJ)" d="M154 258.8c1.4.9 1.2 1.9 2.1 4.9 1.1 3.8.9 5-.4 6.5-1 1.1-4.9 2.3-6.6.7-.7-.7.3-2.8.5-4 .4-2 0-3.3-.8-4.2-.7-.7-1.4-1.4-1.1-2.8.3-1.6 3.6-2.8 6.3-1.1z"/><path fill="url(#bK)" d="M149.9 261.4c.3-1.7 2.8-3.3 4-2.7.6.3.6.5.6.5s-2.6-.2-4 2.5c-.3.4-.8.5-.6-.3z"/><path d="M209.8 188.8v1.4l-5.4 3.1v-1.4zm0 11.4v1.4l-5.4 3.1v-1.4zM212 184v1.4l-7.6 4.4v-1.4zm-12.9 7.3l1.8.3-2.6 6.4-3.2 3.8-1.8 7.6-4.5 1.7-2.1 4.3-1.7-.5 2.9-6 4.1-1.5 1.3-6.3 3.5-4.1z" fill="#6EA9FF"/><path fill="#E0E9FD" d="M192.7 206.6c.8-.5 1.5-.1 1.5.9s-.7 2.1-1.5 2.6-1.5.1-1.5-.9.7-2.1 1.5-2.6zm4.9-10.9c.8-.5 1.5-.1 1.5.9s-.7 2.1-1.5 2.6-1.5.1-1.5-.9.6-2.1 1.5-2.6zm-9.1 12.5c.8-.5 1.5-.1 1.5.9s-.7 2.1-1.5 2.6-1.5.1-1.5-.9c0-.9.7-2.1 1.5-2.6z"/><path stroke="url(#bL)" stroke-linecap="round" stroke-linejoin="round" d="M259.4 61.9l-8.2 57.2"/><path fill="url(#bM)" d="M217.1 86.5l42.3-24.6-6.3 43.8-42.2 24.5z"/><path fill="url(#bN)" d="M217.1 86.2l42.3-24.6 6.4 51.2-42.3 24.6z"/><path d="M256.1 87.3l.2 1.5-10.6 6.2-.2-1.4zm-.1-15.5l.2 1.4-12.6 7.5-.2-1.4zm-1.4 5l.2 1.4-10.6 6.2-.2-1.4z" fill="#6EA9FF"/><path d="M226.2 98.5l1 7.3-2.5 1.6-1.1-7.3zm3.1-6.3l1.6 11.3-2.5 1.6-1.6-11.3zm4.7 4.3l.7 4.7-2.6 1.5-.6-4.6zm2-14l2.4 16.3-2.5 1.6-2.4-16.3zm4.3 1l1.8 13-2.5 1.6-1.9-13z" fill="#CDE9FF"/><path fill="#6EA9FF" d="M251.2 100.5l1.1 7.5 4.8-7c.7.8 1.1 1.9 1.3 3.3.6 4.2-1.6 9.4-5 11.5-3.4 2.1-6.6.4-7.2-3.8-.7-4.3 1.6-9.4 5-11.5z"/><path fill="#CDE9FF" d="M251.8 98c2.3-1.4 4.5-1.1 5.9.5l-4.8 7-1.1-7.5z"/><path d="M258.9 61.7l8.5 67c0 .3.3.5.6.4.3 0 .5-.3.4-.6l-8.5-67c0-.3-.3-.5-.6-.4-.3.1-.5.3-.4.6m-49.5 82.1l8.1-57.2v-.3h-.5l-.5.1 8.5 67c0 .3.3.5.6.4.3 0 .5-.3.4-.6l-8.5-67c0-.3-.3-.4-.5-.4-.3 0-.5.2-.5.5v.3l-8.1 57.2c0 .3.2.5.4.6.3-.2.6-.4.6-.6z" fill="#A9C2FB"/><path fill="url(#bO)" d="M234 160.3s2.5.2 3.5.3c.7 0 1.4.1 1.2.5-.2.5-3.9 1.5-5.2 1.9-1.2.3-2.2.1-2.2-.6s.4-2.1 1.3-2.1h1.4z"/><path fill="url(#bP)" d="M232.3 149.5s-.1 9.4-.2 10.9c-.1 1.6 1.5 1.1 2 .1 0 0 2.8-13.1 1.9-16.5-1-3.5-3.8-.1-3.7 5.5z"/><path fill="#349B2C" d="M241.3 136c.4 2.1 1.1 8.6.7 12.9-.2 2-.6 2.5-1.5 2.3-1.3-.2-1.6-1.2-2.5-4.7-.3-1.2-1.3-5-1.6-6.3 0 0-1.9-1.4-1.6-4.1.5-4.8 6-2.3 6-2.3s.3 1 .5 2.2z"/><path fill="url(#bQ)" d="M249.8 109.9c.2-.1.3-.5 0-.5-.4 0-1.8.4-2.5.8s-1.9 1.3-1.9 1.3.3 1 .6 1.3c.3.3 1.2-.5 1.7-.4.7 0 1.6-.9 1.3-2.2l.8-.3z"/><path fill="url(#bR)" d="M239.1 117.7c-2 .6-5.3 1.5-6.4 1.4-1.3-.1-2-5 .9-5.7 1.2-.3 5.3.2 7.4-.4 1.4-.4 4.8-2.4 5.5-2.3.9.1 1 2.2.9 2.5-.2.3-4.1 2.6-4.9 3.1-.9.5-3.4 1.4-3.4 1.4z"/><path fill="url(#bS)" d="M240 163.6s2.5.2 3.5.3c.7 0 1.4.1 1.2.5-.2.5-3.9 1.5-5.2 1.9-1.3.4-2.2.1-2.2-.6s.4-2.1 1.3-2.1h1.4z"/><path fill="url(#bT)" d="M238.3 152.7s-.1 9.4-.2 10.9c-.1 1.6 1.5 1.1 2 .1 0 0 2.8-13.1 1.9-16.5-1-3.4-3.8 0-3.7 5.5z"/><path fill="url(#bU)" d="M235.5 159.4c-1.2.7-3.6 1.4-3.6.3 0-1.1.3-8.9.4-11.9 0-9.1-1.4-8.4-.9-13.3.5-5 5-.6 5.4.7.4 1.3-.4 10.7-.6 12.9-.2 2.2-.7 11.3-.7 11.3z"/><path fill="url(#bV)" d="M234.4 113.8c-.1-.2-.1-1.3-.2-1.5-.4-1-1-2.3-1.1-4.8-.1-2.6 1.9-3.5 3.3-3.4 1.9 0 3.3 1.5 3.2 3.8-.1 1.9-.1 3.8-1 4.2-1.8.8-.8 2-1.6 2.4-.6.2-2.3.2-2.6-.7z"/><path fill="url(#bW)" d="M240.5 105.2c-.3-1.3-2.9-2.3-4.8-1.7-1.9.6-1.7 1.2-1.7 1.2-1.4.5-1.4 1.6-1.1 3.6.4 2 .6 3.8 1.2 3.8s.3-1.8.2-2.6c-.2-1.1.4-1.3.6-.9.2.3.4.6.6.6.7 0 .1-1.6.8-2 .4-.2 1.2.1 1.9.1 1.5.1 2.6-.7 2.3-2.1z"/><path fill="url(#bX)" d="M241.4 133.9c.3 1.6.8 11.4.8 13.7 0 2.3-.6 14.8-.6 14.8s-3.8 1.9-3.8.2c0-.9 0-8.4.5-12.1.3-2.2-1.7-8.7-2.3-11.1-.8-.3-2.9-1.7-2.4-5.9.7-4.2 7.8.4 7.8.4z"/><path fill="url(#bY)" d="M230.9 134.6c.1 1.8 3.6 2.4 6.8 2.2 3.2-.2 3.7-.7 3.7-1.7s-.6-16.3-1.5-18.3-5.1-3.7-6.6-3.1c-1.4.6-1.9 2.5-1.9 4.9 0 1.6.1 4.9 0 8.1-.1 3.2-.7 5.5-.5 7.9z"/><path fill="url(#bZ)" d="M241.5 139.1c1.1-.5 1.3-1.8 1-2.5-.3-.7-1.4-2.1-2.1-1-.4.7-.3 1.4-.1 2 0 0-.2.4-.1 1 .2.7.9.7 1.3.5z"/><path fill="url(#ca)" d="M238.6 116.1c-1.7.5-.7 3.1-.4 6 .5 5.4.8 7.3 1 9.1.1 1.4.6 4.1 1.1 4.6.5.5 2.1.4 2.2-.4 0-.8-.2-6.1-.4-8.8-.2-2.2-1.2-11.1-3.5-10.5z"/><path fill="url(#cb)" d="M233.6 113.7l.1-.5s.4 0 1.6.2c1.1.2 2.4.7 2.4.7l-.3.5c-.1.1-2.4 1-3.8-.9z"/><g transform="translate(42 198)"><path fill="url(#cc)" d="M5.8 4.5l12 7-.5.5L5.5 5.1z"/><circle cx="5.6" cy="4.8" r="4.8" fill="url(#cd)"/></g><g transform="translate(78 234)"><path fill="url(#ce)" d="M81.6 4.9l12 7-.5.5-11.9-6.9z"/><circle cx="81.4" cy="5.2" r="4.8" fill="url(#cf)"/><path fill="url(#cg)" d="M5.3 48.1l12 6.9-.5.5L5 48.7z"/><circle cx="5.1" cy="48.4" r="4.8" fill="url(#ch)"/></g><g transform="translate(55 240)"><path fill="url(#ci)" d="M12 4.9L.1 11.8l.4.5 11.9-6.8z"/><circle cx="12.2" cy="5.2" r="4.8" fill="url(#cj)"/></g><g transform="translate(272 237)"><path fill="url(#ck)" d="M12.3 4.5l-12 7 .5.5 11.9-6.9z"/><circle cx="12.5" cy="4.8" r="4.8" fill="url(#cl)"/></g><g transform="translate(256 216)"><path fill="url(#cm)" d="M5.4 4.7l12 6.9-.5.6L5 5.3z"/><circle cx="5.2" cy="5" r="4.8" fill="url(#cn)"/></g><g transform="translate(140 192)"><path fill="url(#co)" d="M5.4 7.9l12-6.9-.5-.6L5.1 7.3z"/><circle cx="5.2" cy="7.6" r="4.8" fill="url(#cp)"/></g></g></svg>