<svg xmlns="http://www.w3.org/2000/svg" width="440" height="360" viewBox="0 0 440 360"><defs><linearGradient id="a" x1="2.571%" x2="99.045%" y1="50.037%" y2="50.037%"><stop offset="78.38%" stop-color="#E7EFF7"/><stop offset="100%" stop-color="#E7EFF7" stop-opacity="0"/></linearGradient><linearGradient id="b" x1="-.194%" x2="100.042%" y1="49.749%" y2="49.749%"><stop offset="78.38%" stop-color="#E7EFF7"/><stop offset="100%" stop-color="#E7EFF7" stop-opacity="0"/></linearGradient><linearGradient id="c" x1="3.026%" x2="95.026%" y1="50.086%" y2="50.086%"><stop offset="20.54%" stop-color="#E7EFF7"/><stop offset="100%" stop-color="#E7EFF7" stop-opacity="0"/></linearGradient><linearGradient id="d" x1="2.987%" x2="95.135%" y1="50.061%" y2="50.061%"><stop offset="39.46%" stop-color="#E7EFF7"/><stop offset="100%" stop-color="#E7EFF7" stop-opacity="0"/></linearGradient><linearGradient id="e" x1="3.246%" x2="95.097%" y1="49.83%" y2="49.83%"><stop offset="39.46%" stop-color="#E7EFF7"/><stop offset="100%" stop-color="#E7EFF7" stop-opacity="0"/></linearGradient><linearGradient id="f" x1="-1.516%" x2="90.335%" y1="49.832%" y2="49.832%"><stop offset="38.92%" stop-color="#E7EFF7"/><stop offset="68.11%" stop-color="#E7EFF7" stop-opacity="0"/></linearGradient><linearGradient id="g" x1="2.88%" x2="95.13%" y1="49.832%" y2="49.832%"><stop offset="39.46%" stop-color="#E7EFF7"/><stop offset="100%" stop-color="#E7EFF7" stop-opacity="0"/></linearGradient><linearGradient id="h" x1="3.076%" x2="95.122%" y1="50%" y2="50%"><stop offset="24.86%" stop-color="#E7EFF7"/><stop offset="100%" stop-color="#E7EFF7" stop-opacity="0"/></linearGradient><linearGradient id="i" x1=".033%" x2="100.021%" y1="50.013%" y2="50.013%"><stop offset="0%" stop-color="#2260BB"/><stop offset="100%" stop-color="#3184F8"/></linearGradient><linearGradient id="j" x1="2.598%" x2="99.057%" y1="50.007%" y2="50.007%"><stop offset="78.38%" stop-color="#E7EFF7"/><stop offset="100%" stop-color="#E7EFF7" stop-opacity="0"/></linearGradient><linearGradient id="k" x1=".035%" x2="100.028%" y1="50.155%" y2="50.155%"><stop offset="27.57%" stop-color="#CCE0F4"/><stop offset="42.7%" stop-color="#A5C2F9"/></linearGradient><linearGradient id="l" x1="-.025%" x2="99.978%" y1="50.032%" y2="50.032%"><stop offset="31.89%" stop-color="#EDF4FB"/><stop offset="100%" stop-color="#CCE0F4"/></linearGradient><linearGradient id="m" x1="21.423%" x2="75.686%" y1="-2.557%" y2="104.279%"><stop offset="0%" stop-color="#EDF4FB"/><stop offset=".995%" stop-color="#E5EEFB"/><stop offset="2.496%" stop-color="#D1DFFB"/><stop offset="4.309%" stop-color="#AFC6FB"/><stop offset="4.595%" stop-color="#A9C2FB"/><stop offset="19.91%" stop-color="#B0C7FA"/><stop offset="41.45%" stop-color="#C2D6F7"/><stop offset="52.43%" stop-color="#CEE0F5"/><stop offset="96.76%" stop-color="#EEF4FB"/><stop offset="100%" stop-color="#A9C2FB"/></linearGradient><linearGradient id="n" x1="2.61%" x2="99.083%" y1="50.008%" y2="50.008%"><stop offset="78.38%" stop-color="#E7EFF7"/><stop offset="100%" stop-color="#E7EFF7" stop-opacity="0"/></linearGradient><linearGradient id="o" x1="-.039%" x2="99.977%" y1="50.016%" y2="50.016%"><stop offset="17.3%" stop-color="#CCE0F4"/><stop offset="31.1%" stop-color="#CADFF4"/><stop offset="36.07%" stop-color="#C3D9F5"/><stop offset="39.61%" stop-color="#B8D0F7"/><stop offset="42.46%" stop-color="#A7C3F9"/><stop offset="42.7%" stop-color="#A5C2F9"/></linearGradient><linearGradient id="p" x1="-.052%" x2="100.015%" y1="49.952%" y2="49.952%"><stop offset="31.89%" stop-color="#EDF4FB"/><stop offset="100%" stop-color="#CCE0F4"/></linearGradient><linearGradient id="q" x1="2.693%" x2="71.561%" y1="50.277%" y2="50.277%"><stop offset="36.22%" stop-color="#E7EFF7"/><stop offset="39.49%" stop-color="#E7EFF7" stop-opacity=".931"/><stop offset="83.78%" stop-color="#E7EFF7" stop-opacity="0"/></linearGradient><linearGradient id="r" x1="2.536%" x2="71.404%" y1="50.239%" y2="50.239%"><stop offset="36.22%" stop-color="#E7EFF7"/><stop offset="39.49%" stop-color="#E7EFF7" stop-opacity=".931"/><stop offset="83.78%" stop-color="#E7EFF7" stop-opacity="0"/></linearGradient><linearGradient id="s" x1="2.897%" x2="71.583%" y1="49.918%" y2="49.918%"><stop offset="36.22%" stop-color="#E7EFF7"/><stop offset="39.49%" stop-color="#E7EFF7" stop-opacity=".931"/><stop offset="83.78%" stop-color="#E7EFF7" stop-opacity="0"/></linearGradient><linearGradient id="t" x1="104.209%" x2="-1.898%" y1="50.014%" y2="50.014%"><stop offset="0%" stop-color="#2260BB"/><stop offset="100%" stop-color="#3184F8"/></linearGradient><linearGradient id="u" x1="62.552%" x2="36.707%" y1="67.532%" y2="31.738%"><stop offset="0%" stop-color="#3184F8" stop-opacity=".4"/><stop offset="100%" stop-color="#3184F8" stop-opacity="0"/></linearGradient><linearGradient id="v" x1="110.547%" x2="10.459%" y1="50.413%" y2="50.413%"><stop offset="57.3%" stop-color="#A5C2F9"/><stop offset="57.54%" stop-color="#A7C3F9"/><stop offset="60.39%" stop-color="#B8D0F7"/><stop offset="63.93%" stop-color="#C3D9F5"/><stop offset="68.9%" stop-color="#CADFF4"/><stop offset="82.7%" stop-color="#CCE0F4"/></linearGradient><linearGradient id="w" x1="100.059%" x2="-.008%" y1="50.04%" y2="50.04%"><stop offset="0%" stop-color="#CCE0F4"/><stop offset="68.11%" stop-color="#EDF4FB"/></linearGradient><linearGradient id="x" x1=".036%" x2="100.079%" y1="49.778%" y2="49.778%"><stop offset="0%" stop-color="#A9C2FB" stop-opacity=".9"/><stop offset="100%" stop-color="#A9C2FB" stop-opacity="0"/></linearGradient><linearGradient id="y" x1="118.75%" x2="18.897%" y1="50.03%" y2="50.03%"><stop offset="57.3%" stop-color="#A5C2F9"/><stop offset="57.54%" stop-color="#A7C3F9"/><stop offset="60.39%" stop-color="#B8D0F7"/><stop offset="63.93%" stop-color="#C3D9F5"/><stop offset="68.9%" stop-color="#CADFF4"/><stop offset="82.7%" stop-color="#CCE0F4"/></linearGradient><linearGradient id="z" x1="99.574%" x2="-.017%" y1="50.14%" y2="50.14%"><stop offset="2.162%" stop-color="#FFF"/><stop offset="100%" stop-color="#EDF4FB"/></linearGradient><linearGradient id="A" x1="99.934%" x2="-.033%" y1="50.106%" y2="50.106%"><stop offset="17.3%" stop-color="#CCE0F4"/><stop offset="31.1%" stop-color="#CADFF4"/><stop offset="36.07%" stop-color="#C3D9F5"/><stop offset="39.61%" stop-color="#B8D0F7"/><stop offset="42.46%" stop-color="#A7C3F9"/><stop offset="42.7%" stop-color="#A5C2F9"/></linearGradient><linearGradient id="B" x1="99.968%" x2=".087%" y1="49.977%" y2="49.977%"><stop offset="0%" stop-color="#EDF4FB"/><stop offset="97.84%" stop-color="#FFF"/></linearGradient><linearGradient id="C" x1="-4.192%" x2="101.916%" y1="49.915%" y2="49.915%"><stop offset="0%" stop-color="#2260BB"/><stop offset="100%" stop-color="#3184F8"/></linearGradient><linearGradient id="D" x1="99.909%" x2="-.064%" y1="49.6%" y2="49.6%"><stop offset="0%" stop-color="#3184F8"/><stop offset="100%" stop-color="#2260BB"/></linearGradient><linearGradient id="E" x1="45.376%" x2="55.026%" y1="59.731%" y2="39.535%"><stop offset="0%" stop-color="#3184F8" stop-opacity=".4"/><stop offset="100%" stop-color="#3184F8" stop-opacity="0"/></linearGradient><linearGradient id="F" x1="-.108%" x2="100.042%" y1="50.002%" y2="50.002%"><stop offset="11.89%" stop-color="#A9C2FB" stop-opacity=".7"/><stop offset="12.26%" stop-color="#A9C2FB" stop-opacity=".693"/><stop offset="48.11%" stop-color="#A9C2FB" stop-opacity="0"/></linearGradient><linearGradient id="G" x1="-.022%" x2="100.003%" y1="49.976%" y2="49.976%"><stop offset="31.89%" stop-color="#EDF4FB"/><stop offset="100%" stop-color="#CCE0F4"/></linearGradient><linearGradient id="H" x1="-64.506%" x2="147.065%" y1="49.903%" y2="49.903%"><stop offset="0%" stop-color="#E4EEF9"/><stop offset="100%" stop-color="#C4D6FA"/></linearGradient><linearGradient id="I" x1="149.373%" x2="-13.411%" y1="49.952%" y2="49.952%"><stop offset="0%" stop-color="#CCE0F4"/><stop offset="68.11%" stop-color="#EDF4FB"/></linearGradient><linearGradient id="J" x1="-.329%" x2="99.87%" y1="50.11%" y2="50.11%"><stop offset="0%" stop-color="#E4EEF9"/><stop offset="100%" stop-color="#C4D6FA"/></linearGradient><linearGradient id="K" x1="29.738%" x2="70.257%" y1="84.027%" y2="15.792%"><stop offset="32.97%" stop-color="#EDF4FB"/><stop offset="35.27%" stop-color="#EBF3FB"/><stop offset="36.09%" stop-color="#E4EFF9"/><stop offset="36.68%" stop-color="#D9E8F7"/><stop offset="37.03%" stop-color="#CDE1F4"/><stop offset="62.97%" stop-color="#CDE1F4"/><stop offset="64.32%" stop-color="#EDF4FB"/><stop offset="91.7%" stop-color="#EBF3FA"/><stop offset="100%" stop-color="#E6EFF9"/></linearGradient><linearGradient id="L" x1="-.084%" x2="100.065%" y1="50.587%" y2="50.587%"><stop offset="0%" stop-color="#A9C2FB" stop-opacity=".7"/><stop offset="1.028%" stop-color="#A9C2FB" stop-opacity=".693"/><stop offset="100%" stop-color="#A9C2FB" stop-opacity="0"/></linearGradient><linearGradient id="M" x1="58.711%" x2="88.343%" y1="49.501%" y2="54.13%"><stop offset="0%" stop-color="#A5C2F9"/><stop offset=".286%" stop-color="#A5C2F9"/><stop offset="65.19%" stop-color="#C9DBFA"/><stop offset="100%" stop-color="#D6E4FA"/></linearGradient><linearGradient id="N" x1="-1.522%" x2="65.889%" y1="51.327%" y2="49.182%"><stop offset="0%" stop-color="#1F4A8A"/><stop offset="100%" stop-color="#1F5BAF"/></linearGradient><linearGradient id="O" x1="52.787%" x2="47.497%" y1="55.351%" y2="15.841%"><stop offset="0%" stop-color="#1F4A8A"/><stop offset="100%" stop-color="#1F5BAF"/></linearGradient><linearGradient id="P" x1="-48.658%" x2="7.473%" y1="69.122%" y2="59.144%"><stop offset="0%" stop-color="#3289F8"/><stop offset="100%" stop-color="#1F5BAF"/></linearGradient><linearGradient id="Q" x1="49.103%" x2="47.328%" y1="44.349%" y2="8.265%"><stop offset="0%" stop-color="#1F4A8A"/><stop offset="100%" stop-color="#1F5BAF"/></linearGradient><linearGradient id="R" x1="-52.141%" x2="-21.089%" y1="73.36%" y2="66.84%"><stop offset="0%" stop-color="#3289F8"/><stop offset="100%" stop-color="#1F5BAF"/></linearGradient><linearGradient id="S" x1="40.954%" x2="-13.088%" y1="50.544%" y2="51.72%"><stop offset="0%" stop-color="#1F5BAF"/><stop offset="100%" stop-color="#3289F8"/></linearGradient><linearGradient id="T" x1="22.215%" x2="-5.963%" y1="50.187%" y2="50.187%"><stop offset="0%" stop-color="#1F5BAF"/><stop offset="100%" stop-color="#3289F8"/></linearGradient><linearGradient id="U" x1="58.508%" x2=".617%" y1="51.023%" y2="59.965%"><stop offset="0%" stop-color="#1F5BAF"/><stop offset="100%" stop-color="#1F4A8A"/></linearGradient><linearGradient id="V" x1="34.076%" x2="62.985%" y1="53.859%" y2="46.11%"><stop offset="0%" stop-color="#A5C2F9"/><stop offset="4.093%" stop-color="#ABC6F9"/><stop offset="28.37%" stop-color="#C7DAFA"/><stop offset="52.61%" stop-color="#DCE8FB"/><stop offset="76.59%" stop-color="#E8F0FB"/><stop offset="100%" stop-color="#ECF3FB"/></linearGradient><linearGradient id="W" x1="19.764%" x2="58.929%" y1="65.651%" y2="40.202%"><stop offset="0%" stop-color="#1F4A8A"/><stop offset="100%" stop-color="#1F5BAF"/></linearGradient><linearGradient id="X" x1="86.93%" x2="49.902%" y1="106.705%" y2="45.174%"><stop offset="0%" stop-color="#1F4A8A"/><stop offset="100%" stop-color="#1F5BAF"/></linearGradient><linearGradient id="Y" x1="72.068%" x2="44.06%" y1="60.3%" y2="45.352%"><stop offset="0%" stop-color="#1F4A8A"/><stop offset="100%" stop-color="#1F5BAF"/></linearGradient><linearGradient id="Z" x1="-19.267%" x2="55.131%" y1="109.783%" y2="43.766%"><stop offset="0%" stop-color="#1F5BAF"/><stop offset="100%" stop-color="#3289F8"/></linearGradient><linearGradient id="aa" x1="60.155%" x2="44.999%" y1="54.219%" y2="33.316%"><stop offset="0%" stop-color="#A5C2F9"/><stop offset=".286%" stop-color="#A5C2F9"/><stop offset="65.19%" stop-color="#C9DBFA"/><stop offset="100%" stop-color="#D6E4FA"/></linearGradient><linearGradient id="ab" x1="56.839%" x2="50.064%" y1="39.796%" y2="78.471%"><stop offset="50%" stop-color="#75A9FA"/><stop offset="51.08%" stop-color="#3289F8"/></linearGradient><linearGradient id="ac" x1=".133%" x2="99.87%" y1="49.863%" y2="49.863%"><stop offset="0%" stop-color="#B6D1FC"/><stop offset="100%" stop-color="#74ADFA"/></linearGradient><linearGradient id="ad" x1=".7%" x2="100.61%" y1="50.045%" y2="50.045%"><stop offset="0%" stop-color="#ECF3FB"/><stop offset="100%" stop-color="#C6D9FA"/></linearGradient><linearGradient id="ae" x1="67.344%" x2="41.896%" y1="87.898%" y2="20.794%"><stop offset="0%" stop-color="#2F82EF"/><stop offset="76.76%" stop-color="#2F82EF" stop-opacity="0"/></linearGradient><linearGradient id="af" x1=".043%" x2="100.024%" y1="49.951%" y2="49.951%"><stop offset="31.89%" stop-color="#EDF4FB"/><stop offset="100%" stop-color="#CCE0F4"/></linearGradient><linearGradient id="ag" x1="117.386%" x2="51.887%" y1="85.35%" y2="50.355%"><stop offset="0%" stop-color="#3289F8"/><stop offset="100%" stop-color="#B6D1FC"/></linearGradient><linearGradient id="ah" x1="69.523%" x2="40.671%" y1="75.815%" y2="40.361%"><stop offset="0%" stop-color="#1F5BAF"/><stop offset="100%" stop-color="#3289F8"/></linearGradient><linearGradient id="ai" x1="97.944%" x2="-1.185%" y1="49.755%" y2="49.755%"><stop offset="0%" stop-color="#A5C2F9"/><stop offset="15.01%" stop-color="#BED3FB"/><stop offset="36.52%" stop-color="#DAE6FD"/><stop offset="58%" stop-color="#EFF4FE"/><stop offset="79.25%" stop-color="#FBFCFF"/><stop offset="100%" stop-color="#FFF"/></linearGradient><linearGradient id="aj" x1="65.784%" x2="40.455%" y1="77.7%" y2="39.331%"><stop offset="0%" stop-color="#1F5BAF"/><stop offset="100%" stop-color="#3289F8"/></linearGradient><linearGradient id="ak" x1="38.43%" x2="19.597%" y1="28.977%" y2="-7.137%"><stop offset="0%" stop-color="#1F5BAF"/><stop offset="100%" stop-color="#3289F8"/></linearGradient><linearGradient id="al" x1="52.717%" x2="53.721%" y1="105.248%" y2="123.13%"><stop offset="0%" stop-color="#A5C2F9"/><stop offset="15.01%" stop-color="#BED3FB"/><stop offset="36.52%" stop-color="#DAE6FD"/><stop offset="58%" stop-color="#EFF4FE"/><stop offset="79.25%" stop-color="#FBFCFF"/><stop offset="100%" stop-color="#FFF"/></linearGradient><linearGradient id="am" x1="39.291%" x2="26.137%" y1="31.099%" y2="1.313%"><stop offset="0%" stop-color="#1F5BAF"/><stop offset="100%" stop-color="#3289F8"/></linearGradient><linearGradient id="an" x1="44.948%" x2="114.099%" y1="48.329%" y2="75.799%"><stop offset="0%" stop-color="#B6D1FC"/><stop offset="100%" stop-color="#3289F8"/></linearGradient><linearGradient id="ao" x1="113.507%" x2="49.436%" y1="78.807%" y2="41.757%"><stop offset="0%" stop-color="#A5C2F9"/><stop offset="4.093%" stop-color="#ABC6F9"/><stop offset="28.37%" stop-color="#C7DAFA"/><stop offset="52.61%" stop-color="#DCE8FB"/><stop offset="76.59%" stop-color="#E8F0FB"/><stop offset="100%" stop-color="#ECF3FB"/></linearGradient><linearGradient id="ap" x1="70.622%" x2="47.612%" y1="68.845%" y2="37.439%"><stop offset="0%" stop-color="#1F4A8A"/><stop offset="100%" stop-color="#1F5BAF"/></linearGradient><linearGradient id="aq" x1="78.005%" x2="4.439%" y1="30.335%" y2="81.58%"><stop offset="0%" stop-color="#1F5BAF"/><stop offset="100%" stop-color="#3289F8"/></linearGradient><linearGradient id="ar" x1="104.241%" x2="42.132%" y1="116.692%" y2="18.425%"><stop offset="0%" stop-color="#3289F8"/><stop offset="100%" stop-color="#B6D1FC"/></linearGradient><linearGradient id="as" x1="-30.646%" x2="144.762%" y1="-39.995%" y2="154.214%"><stop offset="0%" stop-color="#1F5BAF"/><stop offset="100%" stop-color="#3289F8"/></linearGradient><linearGradient id="at" x1="61.085%" x2="47.218%" y1="65.286%" y2="45.421%"><stop offset="0%" stop-color="#A5C2F9"/><stop offset="4.093%" stop-color="#ABC6F9"/><stop offset="28.37%" stop-color="#C7DAFA"/><stop offset="52.61%" stop-color="#DCE8FB"/><stop offset="76.59%" stop-color="#E8F0FB"/><stop offset="100%" stop-color="#ECF3FB"/></linearGradient><linearGradient id="au" x1="36.711%" x2="66.045%" y1="52.721%" y2="47.78%"><stop offset="0%" stop-color="#1F5BAF"/><stop offset="100%" stop-color="#3289F8"/></linearGradient><linearGradient id="av" x1="2.665%" x2="71.533%" y1="49.839%" y2="49.839%"><stop offset="36.22%" stop-color="#E7EFF7"/><stop offset="39.49%" stop-color="#E7EFF7" stop-opacity=".931"/><stop offset="83.78%" stop-color="#E7EFF7" stop-opacity="0"/></linearGradient><linearGradient id="aw" x1="30.713%" x2="59.564%" y1="73.986%" y2="38.532%"><stop offset="0%" stop-color="#1F5BAF"/><stop offset="100%" stop-color="#3289F8"/></linearGradient><linearGradient id="ax" x1="2.453%" x2="101.582%" y1="49.754%" y2="49.754%"><stop offset="0%" stop-color="#A5C2F9"/><stop offset="15.01%" stop-color="#BED3FB"/><stop offset="36.52%" stop-color="#DAE6FD"/><stop offset="58%" stop-color="#EFF4FE"/><stop offset="79.25%" stop-color="#FBFCFF"/><stop offset="100%" stop-color="#FFF"/></linearGradient><linearGradient id="ay" x1="21.213%" x2="91.059%" y1="50.624%" y2="49.385%"><stop offset="0%" stop-color="#1F5BAF"/><stop offset="100%" stop-color="#3289F8"/></linearGradient><linearGradient id="az" x1="34.385%" x2="56.783%" y1="70.744%" y2="44.014%"><stop offset="0%" stop-color="#1F5BAF"/><stop offset="100%" stop-color="#3289F8"/></linearGradient><linearGradient id="aA" x1="49.224%" x2="48.27%" y1="104.936%" y2="122.869%"><stop offset="0%" stop-color="#A5C2F9"/><stop offset="15.01%" stop-color="#BED3FB"/><stop offset="36.52%" stop-color="#DAE6FD"/><stop offset="58%" stop-color="#EFF4FE"/><stop offset="79.25%" stop-color="#FBFCFF"/><stop offset="100%" stop-color="#FFF"/></linearGradient><linearGradient id="aB" x1="-.131%" x2="99.935%" y1="50.182%" y2="50.182%"><stop offset="0%" stop-color="#1F5BAF"/><stop offset="100%" stop-color="#3289F8"/></linearGradient><linearGradient id="aC" x1="112.406%" x2="17.377%" y1="55.585%" y2="48.515%"><stop offset="0%" stop-color="#3289F8"/><stop offset="100%" stop-color="#75A9FA"/></linearGradient><linearGradient id="aD" x1="98.488%" x2="40.994%" y1="44.136%" y2="55.382%"><stop offset="0%" stop-color="#A5C2F9"/><stop offset="15.01%" stop-color="#BED3FB"/><stop offset="36.52%" stop-color="#DAE6FD"/><stop offset="58%" stop-color="#EFF4FE"/><stop offset="79.25%" stop-color="#FBFCFF"/><stop offset="100%" stop-color="#FFF"/></linearGradient><linearGradient id="aE" x1="64.041%" x2="49.505%" y1="84.973%" y2="57.728%"><stop offset="0%" stop-color="#A5C2F9"/><stop offset="4.093%" stop-color="#ABC6F9"/><stop offset="28.37%" stop-color="#C7DAFA"/><stop offset="52.61%" stop-color="#DCE8FB"/><stop offset="76.59%" stop-color="#E8F0FB"/><stop offset="100%" stop-color="#ECF3FB"/></linearGradient><linearGradient id="aF" x1="34.792%" x2="44.519%" y1="26.668%" y2="51.234%"><stop offset="0%" stop-color="#75A9FA"/><stop offset="100%" stop-color="#3289F8"/></linearGradient><linearGradient id="aG" x1="46.344%" x2="55.975%" y1="67.403%" y2="15.223%"><stop offset="0%" stop-color="#A5C2F9"/><stop offset="4.093%" stop-color="#ABC6F9"/><stop offset="28.37%" stop-color="#C7DAFA"/><stop offset="52.61%" stop-color="#DCE8FB"/><stop offset="76.59%" stop-color="#E8F0FB"/><stop offset="100%" stop-color="#ECF3FB"/></linearGradient><linearGradient id="aH" x1="73.758%" x2="49.753%" y1="124.779%" y2="49.249%"><stop offset="0%" stop-color="#1F5BAF"/><stop offset="100%" stop-color="#3289F8"/></linearGradient><linearGradient id="aI" x1=".23%" x2="100.255%" y1="49.741%" y2="49.741%"><stop offset="0%" stop-color="#A5C2F9"/><stop offset="4.093%" stop-color="#ABC6F9"/><stop offset="28.37%" stop-color="#C7DAFA"/><stop offset="52.61%" stop-color="#DCE8FB"/><stop offset="76.59%" stop-color="#E8F0FB"/><stop offset="100%" stop-color="#ECF3FB"/></linearGradient><linearGradient id="aJ" x1="49.417%" x2="107.491%" y1="53.619%" y2="-26.33%"><stop offset="0%" stop-color="#A5C2F9"/><stop offset="4.093%" stop-color="#ABC6F9"/><stop offset="28.37%" stop-color="#C7DAFA"/><stop offset="52.61%" stop-color="#DCE8FB"/><stop offset="76.59%" stop-color="#E8F0FB"/><stop offset="100%" stop-color="#ECF3FB"/></linearGradient><linearGradient id="aK" x1="45.54%" x2="56.411%" y1="63.632%" y2="10.209%"><stop offset="0%" stop-color="#A5C2F9"/><stop offset="4.093%" stop-color="#ABC6F9"/><stop offset="28.37%" stop-color="#C7DAFA"/><stop offset="52.61%" stop-color="#DCE8FB"/><stop offset="76.59%" stop-color="#E8F0FB"/><stop offset="100%" stop-color="#ECF3FB"/></linearGradient><linearGradient id="aL" x1="22.413%" x2="64.069%" y1="46.153%" y2="49.863%"><stop offset="0%" stop-color="#1F5BAF"/><stop offset="100%" stop-color="#3289F8"/></linearGradient><linearGradient id="aM" x1="42.804%" x2="53.775%" y1="78.722%" y2="55.496%"><stop offset="0%" stop-color="#1F4A8A"/><stop offset="100%" stop-color="#1F5BAF"/></linearGradient><linearGradient id="aN" x1="22.425%" x2="65.369%" y1="49.985%" y2="50.26%"><stop offset="0%" stop-color="#3289F8"/><stop offset="100%" stop-color="#75A9FA"/></linearGradient><linearGradient id="aO" x1="43.727%" x2="54.697%" y1="78.334%" y2="55.143%"><stop offset="0%" stop-color="#1F4A8A"/><stop offset="100%" stop-color="#1F5BAF"/></linearGradient><linearGradient id="aP" x1="23.402%" x2="66.347%" y1="49.92%" y2="50.192%"><stop offset="0%" stop-color="#3289F8"/><stop offset="100%" stop-color="#75A9FA"/></linearGradient><linearGradient id="aQ" x1="-2.772%" x2="102.484%" y1="50.493%" y2="50.493%"><stop offset="0%" stop-color="#A9C2FB" stop-opacity=".9"/><stop offset="81.08%" stop-color="#A9C2FB" stop-opacity="0"/></linearGradient><linearGradient id="aR" x1="-2.81%" x2="102.577%" y1="49.938%" y2="49.938%"><stop offset="0%" stop-color="#A9C2FB" stop-opacity=".9"/><stop offset="81.08%" stop-color="#A9C2FB" stop-opacity="0"/></linearGradient><linearGradient id="aS" x1="-2.994%" x2="102.771%" y1="49.513%" y2="49.513%"><stop offset="15.14%" stop-color="#A9C2FB" stop-opacity=".9"/><stop offset="81.08%" stop-color="#A9C2FB" stop-opacity="0"/></linearGradient><linearGradient id="aT" x1="-2.772%" x2="102.484%" y1="50.216%" y2="50.216%"><stop offset="0%" stop-color="#A9C2FB" stop-opacity=".9"/><stop offset="81.08%" stop-color="#A9C2FB" stop-opacity="0"/></linearGradient><linearGradient id="aU" x1="-2.94%" x2="102.756%" y1="49.938%" y2="49.938%"><stop offset="0%" stop-color="#A9C2FB" stop-opacity=".9"/><stop offset="81.08%" stop-color="#A9C2FB" stop-opacity="0"/></linearGradient><linearGradient id="aV" x1="-3.073%" x2="102.761%" y1="49.799%" y2="49.799%"><stop offset="0%" stop-color="#A9C2FB" stop-opacity=".9"/><stop offset="81.08%" stop-color="#A9C2FB" stop-opacity="0"/></linearGradient><linearGradient id="aW" x1="-2.824%" x2="102.501%" y1="49.752%" y2="49.752%"><stop offset="0%" stop-color="#A9C2FB" stop-opacity=".9"/><stop offset="81.08%" stop-color="#A9C2FB" stop-opacity="0"/></linearGradient><linearGradient id="aX" x1="35.429%" x2="135.732%" y1="49.871%" y2="49.871%"><stop offset="50%" stop-color="#75A9FA"/><stop offset="51.08%" stop-color="#3289F8"/></linearGradient><linearGradient id="aY" x1="-.113%" x2="100.096%" y1="50.013%" y2="50.013%"><stop offset="0%" stop-color="#B6D1FC"/><stop offset="100%" stop-color="#74ADFA"/></linearGradient><linearGradient id="aZ" x1="-33.677%" x2="66.443%" y1="49.92%" y2="49.92%"><stop offset="50%" stop-color="#75A9FA"/><stop offset="51.08%" stop-color="#3289F8"/></linearGradient><linearGradient id="ba" x1="-.262%" x2="100.251%" y1="50.399%" y2="50.399%"><stop offset="0%" stop-color="#B6D1FC"/><stop offset="100%" stop-color="#74ADFA"/></linearGradient><linearGradient id="bb" x1="20.098%" x2="120.588%" y1="49.818%" y2="49.818%"><stop offset="50%" stop-color="#75A9FA"/><stop offset="51.08%" stop-color="#3289F8"/></linearGradient><linearGradient id="bc" x1="-.075%" x2="100.367%" y1="49.961%" y2="49.961%"><stop offset="0%" stop-color="#B6D1FC"/><stop offset="100%" stop-color="#74ADFA"/></linearGradient><linearGradient id="bd" x1="-9.103%" x2="91.344%" y1="49.898%" y2="49.898%"><stop offset="50%" stop-color="#75A9FA"/><stop offset="51.08%" stop-color="#3289F8"/></linearGradient><linearGradient id="be" x1="-.156%" x2="100.152%" y1="50.272%" y2="50.272%"><stop offset="0%" stop-color="#B6D1FC"/><stop offset="100%" stop-color="#74ADFA"/></linearGradient><linearGradient id="bf" x1="-.316%" x2="100.31%" y1="50.674%" y2="50.674%"><stop offset="0%" stop-color="#ECF3FB"/><stop offset="100%" stop-color="#C6D9FA"/></linearGradient><linearGradient id="bg" x1="17.614%" x2="118.3%" y1="49.751%" y2="49.751%"><stop offset="50%" stop-color="#75A9FA"/><stop offset="51.08%" stop-color="#3289F8"/></linearGradient><linearGradient id="bh" x1="-.416%" x2="100.447%" y1="50.154%" y2="50.154%"><stop offset="0%" stop-color="#B6D1FC"/><stop offset="100%" stop-color="#74ADFA"/></linearGradient><linearGradient id="bi" x1=".485%" x2="99.555%" y1="50.543%" y2="50.543%"><stop offset="0%" stop-color="#ECF3FB"/><stop offset="100%" stop-color="#C6D9FA"/></linearGradient><linearGradient id="bj" x1="17.498%" x2="117.662%" y1="49.766%" y2="49.766%"><stop offset="50%" stop-color="#75A9FA"/><stop offset="51.08%" stop-color="#3289F8"/></linearGradient><linearGradient id="bk" x1="-.041%" x2="100.023%" y1="49.999%" y2="49.999%"><stop offset="0%" stop-color="#B6D1FC"/><stop offset="100%" stop-color="#74ADFA"/></linearGradient><linearGradient id="bl" x1=".145%" x2="100.2%" y1="49.888%" y2="49.888%"><stop offset="0%" stop-color="#E4EEF9"/><stop offset="100%" stop-color="#C4D6FA"/></linearGradient><linearGradient id="bm" x1=".104%" x2="99.947%" y1="50.111%" y2="50.111%"><stop offset="31.89%" stop-color="#EDF4FB"/><stop offset="100%" stop-color="#CCE0F4"/></linearGradient><linearGradient id="bn" x1="86.157%" x2="50.201%" y1="50.042%" y2="47.714%"><stop offset="0%" stop-color="#1F5BAF"/><stop offset="100%" stop-color="#3289F8"/></linearGradient><linearGradient id="bo" x1="42.394%" x2="58.011%" y1="45.864%" y2="11.195%"><stop offset="0%" stop-color="#1F5BAF"/><stop offset="100%" stop-color="#3289F8"/></linearGradient><linearGradient id="bp" x1="-.296%" x2="99.592%" y1="50.057%" y2="50.057%"><stop offset="0%" stop-color="#E4EEF9"/><stop offset="100%" stop-color="#C4D6FA"/></linearGradient><linearGradient id="bq" x1="-.103%" x2="99.923%" y1="49.832%" y2="49.832%"><stop offset="2.162%" stop-color="#FFF"/><stop offset="100%" stop-color="#EDF4FB"/></linearGradient><linearGradient id="br" x1="-.189%" x2="99.847%" y1="50.197%" y2="50.197%"><stop offset="0%" stop-color="#E4EEF9"/><stop offset="100%" stop-color="#C4D6FA"/></linearGradient><linearGradient id="bs" x1=".073%" x2="100.035%" y1="50.194%" y2="50.194%"><stop offset="2.162%" stop-color="#FFF"/><stop offset="100%" stop-color="#EDF4FB"/></linearGradient><linearGradient id="bt" x1="62.946%" x2="10.771%" y1="55.09%" y2="48.966%"><stop offset="48.92%" stop-color="#3289F8"/><stop offset="50%" stop-color="#75A9FA"/></linearGradient><linearGradient id="bu" x1=".287%" x2="99.764%" y1="49.884%" y2="49.884%"><stop offset="0%" stop-color="#B6D1FC"/><stop offset="100%" stop-color="#74ADFA"/></linearGradient><linearGradient id="bv" x1="91.991%" x2="34.539%" y1="52.807%" y2="42.622%"><stop offset="48.92%" stop-color="#3289F8"/><stop offset="50%" stop-color="#75A9FA"/></linearGradient><linearGradient id="bw" x1=".391%" x2="100.069%" y1="49.633%" y2="49.633%"><stop offset="0%" stop-color="#B6D1FC"/><stop offset="100%" stop-color="#74ADFA"/></linearGradient><linearGradient id="bx" x1="-7.214%" x2="92.767%" y1="50.189%" y2="50.189%"><stop offset="50%" stop-color="#75A9FA"/><stop offset="51.08%" stop-color="#3289F8"/></linearGradient><linearGradient id="by" x1=".032%" x2="99.88%" y1="50.009%" y2="50.009%"><stop offset="0%" stop-color="#B6D1FC"/><stop offset="100%" stop-color="#74ADFA"/></linearGradient><linearGradient id="bz" x1="-12.809%" x2="87.069%" y1="50.18%" y2="50.18%"><stop offset="50%" stop-color="#75A9FA"/><stop offset="51.08%" stop-color="#3289F8"/></linearGradient><linearGradient id="bA" x1="-.028%" x2="99.57%" y1="49.917%" y2="49.917%"><stop offset="0%" stop-color="#B6D1FC"/><stop offset="100%" stop-color="#74ADFA"/></linearGradient><linearGradient id="bB" x1="1.848%" x2="101.714%" y1="49.858%" y2="49.858%"><stop offset="50%" stop-color="#75A9FA"/><stop offset="51.08%" stop-color="#3289F8"/></linearGradient><linearGradient id="bC" x1="-.073%" x2="99.675%" y1="49.969%" y2="49.969%"><stop offset="0%" stop-color="#B6D1FC"/><stop offset="100%" stop-color="#74ADFA"/></linearGradient><linearGradient id="bD" x1="29.999%" x2="129.961%" y1="49.859%" y2="49.859%"><stop offset="50%" stop-color="#75A9FA"/><stop offset="51.08%" stop-color="#3289F8"/></linearGradient><linearGradient id="bE" x1="-.175%" x2="99.783%" y1="49.953%" y2="49.953%"><stop offset="0%" stop-color="#B6D1FC"/><stop offset="100%" stop-color="#74ADFA"/></linearGradient><linearGradient id="bF" x1=".803%" x2="99.718%" y1="49.923%" y2="49.923%"><stop offset="0%" stop-color="#ECF3FB"/><stop offset="100%" stop-color="#C6D9FA"/></linearGradient><linearGradient id="bG" x1=".324%" x2="99.858%" y1="49.779%" y2="49.779%"><stop offset="0%" stop-color="#E4EEF9"/><stop offset="100%" stop-color="#C4D6FA"/></linearGradient><linearGradient id="bH" x1="13.925%" x2="114.226%" y1="50.02%" y2="50.02%"><stop offset="50%" stop-color="#75A9FA"/><stop offset="51.08%" stop-color="#3289F8"/></linearGradient><linearGradient id="bI" x1=".075%" x2="100.075%" y1="50.013%" y2="50.013%"><stop offset="0%" stop-color="#B6D1FC"/><stop offset="100%" stop-color="#74ADFA"/></linearGradient><linearGradient id="bJ" x1="-13.261%" x2="86.871%" y1="50.074%" y2="50.074%"><stop offset="50%" stop-color="#75A9FA"/><stop offset="51.08%" stop-color="#3289F8"/></linearGradient><linearGradient id="bK" x1="-.196%" x2="99.754%" y1="49.811%" y2="49.811%"><stop offset="0%" stop-color="#B6D1FC"/><stop offset="100%" stop-color="#74ADFA"/></linearGradient><linearGradient id="bL" x1="-17.062%" x2="82.816%" y1="49.951%" y2="49.951%"><stop offset="50%" stop-color="#75A9FA"/><stop offset="51.08%" stop-color="#3289F8"/></linearGradient><linearGradient id="bM" x1="-.22%" x2="100.178%" y1="49.999%" y2="49.999%"><stop offset="0%" stop-color="#B6D1FC"/><stop offset="100%" stop-color="#74ADFA"/></linearGradient><linearGradient id="bN" x1=".15%" x2="100.441%" y1="49.73%" y2="49.73%"><stop offset="0%" stop-color="#ECF3FB"/><stop offset="100%" stop-color="#C6D9FA"/></linearGradient><linearGradient id="bO" x1=".081%" x2="100.23%" y1="50.028%" y2="50.028%"><stop offset="0%" stop-color="#ECF3FB"/><stop offset="100%" stop-color="#C6D9FA"/></linearGradient><linearGradient id="bP" x1="-.43%" x2="99.799%" y1="50.977%" y2="50.977%"><stop offset="0%" stop-color="#ECF3FB"/><stop offset="100%" stop-color="#C6D9FA"/></linearGradient><linearGradient id="bQ" x1="172.284%" x2="-61.843%" y1="66.994%" y2="32.272%"><stop offset="0%" stop-color="#ECF3FB"/><stop offset="100%" stop-color="#C6D9FA"/></linearGradient><linearGradient id="bR" x1=".48%" x2="100.21%" y1="50.339%" y2="50.339%"><stop offset="0%" stop-color="#ECF3FB"/><stop offset="100%" stop-color="#C6D9FA"/></linearGradient><linearGradient id="bS" x1="-.373%" x2="100.441%" y1="49.486%" y2="49.486%"><stop offset="0%" stop-color="#ECF3FB"/><stop offset="100%" stop-color="#C6D9FA"/></linearGradient><linearGradient id="bT" x1="-.332%" x2="100.279%" y1="50.019%" y2="50.019%"><stop offset="0%" stop-color="#ECF3FB"/><stop offset="100%" stop-color="#C6D9FA"/></linearGradient><linearGradient id="bU" x1=".318%" x2="99.65%" y1="50.653%" y2="50.653%"><stop offset="0%" stop-color="#ECF3FB"/><stop offset="100%" stop-color="#C6D9FA"/></linearGradient><linearGradient id="bV" x1="-.187%" x2="100.149%" y1="49.998%" y2="49.998%"><stop offset="0%" stop-color="#ECF3FB"/><stop offset="100%" stop-color="#C6D9FA"/></linearGradient><linearGradient id="bW" x1=".084%" x2="99.783%" y1="50.027%" y2="50.027%"><stop offset="0%" stop-color="#ECF3FB"/><stop offset="100%" stop-color="#C6D9FA"/></linearGradient><linearGradient id="bX" x1="-.419%" x2="99.53%" y1="49.856%" y2="49.856%"><stop offset="0%" stop-color="#ECF3FB"/><stop offset="100%" stop-color="#C6D9FA"/></linearGradient><linearGradient id="bY" x1=".43%" x2="100.127%" y1="49.914%" y2="49.914%"><stop offset="0%" stop-color="#ECF3FB"/><stop offset="100%" stop-color="#C6D9FA"/></linearGradient><linearGradient id="bZ" x1=".638%" x2="100.588%" y1="49.998%" y2="49.998%"><stop offset="0%" stop-color="#ECF3FB"/><stop offset="100%" stop-color="#C6D9FA"/></linearGradient><linearGradient id="ca" x1="50.851%" x2="52.221%" y1="19.159%" y2="-1.2%"><stop offset="0%" stop-color="#3289F8"/><stop offset="100%" stop-color="#75A9FA"/></linearGradient><linearGradient id="cb" x1="50.402%" x2="52.574%" y1="36.791%" y2="8.978%"><stop offset="0%" stop-color="#3289F8"/><stop offset="100%" stop-color="#75A9FA"/></linearGradient><linearGradient id="cc" x1="48.188%" x2="51.208%" y1="58.855%" y2=".213%"><stop offset="0%" stop-color="#A9C2FB" stop-opacity=".9"/><stop offset="100%" stop-color="#A9C2FB" stop-opacity="0"/></linearGradient><linearGradient id="cd" x1="50.71%" x2="47.063%" y1="61.307%" y2="15.386%"><stop offset="0%" stop-color="#1F4A8A"/><stop offset="100%" stop-color="#1F5BAF"/></linearGradient><linearGradient id="ce" x1="67.478%" x2="97.533%" y1="31.376%" y2="3.512%"><stop offset="0%" stop-color="#A5C2F9"/><stop offset=".286%" stop-color="#A5C2F9"/><stop offset="65.19%" stop-color="#C9DBFA"/><stop offset="100%" stop-color="#D6E4FA"/></linearGradient><linearGradient id="cf" x1="80.507%" x2="33.55%" y1="59.762%" y2="50.222%"><stop offset="0%" stop-color="#1F5BAF"/><stop offset="100%" stop-color="#3289F8"/></linearGradient><linearGradient id="cg" x1="65.564%" x2="181.423%" y1="57.688%" y2="94.242%"><stop offset="0%" stop-color="#A5C2F9"/><stop offset="4.093%" stop-color="#ABC6F9"/><stop offset="28.37%" stop-color="#C7DAFA"/><stop offset="52.61%" stop-color="#DCE8FB"/><stop offset="76.59%" stop-color="#E8F0FB"/><stop offset="100%" stop-color="#ECF3FB"/></linearGradient><linearGradient id="ch" x1="41.697%" x2="69.487%" y1="52.371%" y2="46%"><stop offset="0%" stop-color="#1F4A8A"/><stop offset="100%" stop-color="#1F5BAF"/></linearGradient><linearGradient id="ci" x1="56.88%" x2="64.234%" y1="43.108%" y2="33.677%"><stop offset="0%" stop-color="#A5C2F9"/><stop offset=".286%" stop-color="#A5C2F9"/><stop offset="65.19%" stop-color="#C9DBFA"/><stop offset="100%" stop-color="#D6E4FA"/></linearGradient><linearGradient id="cj" x1="18.576%" x2="92.34%" y1="24.555%" y2="91.023%"><stop offset="0%" stop-color="#3289F8"/><stop offset="100%" stop-color="#1F5BAF"/></linearGradient><linearGradient id="ck" x1="27.845%" x2="59.894%" y1="106.571%" y2="3.501%"><stop offset="0%" stop-color="#A5C2F9"/><stop offset="4.093%" stop-color="#ABC6F9"/><stop offset="28.37%" stop-color="#C7DAFA"/><stop offset="52.61%" stop-color="#DCE8FB"/><stop offset="76.59%" stop-color="#E8F0FB"/><stop offset="100%" stop-color="#ECF3FB"/></linearGradient><linearGradient id="cl" x1="-25.948%" x2="77.996%" y1="107.744%" y2="19.929%"><stop offset="0%" stop-color="#A5C2F9"/><stop offset="4.093%" stop-color="#ABC6F9"/><stop offset="28.37%" stop-color="#C7DAFA"/><stop offset="52.61%" stop-color="#DCE8FB"/><stop offset="76.59%" stop-color="#E8F0FB"/><stop offset="100%" stop-color="#ECF3FB"/></linearGradient><linearGradient id="cm" x1="91.276%" x2="65.085%" y1="13.313%" y2="37.382%"><stop offset="0%" stop-color="#1F5BAF"/><stop offset="100%" stop-color="#3289F8"/></linearGradient><linearGradient id="cn" x1="-26.728%" x2="-4.754%" y1="68.931%" y2="63.31%"><stop offset="0%" stop-color="#ECF3FB"/><stop offset="23.41%" stop-color="#E8F0FB"/><stop offset="47.39%" stop-color="#DCE8FB"/><stop offset="71.63%" stop-color="#C7DAFA"/><stop offset="95.91%" stop-color="#ABC6F9"/><stop offset="100%" stop-color="#A5C2F9"/></linearGradient><linearGradient id="co" x1="87.126%" x2="28.423%" y1="1.052%" y2="65.264%"><stop offset="0%" stop-color="#A5C2F9"/><stop offset=".286%" stop-color="#A5C2F9"/><stop offset="65.19%" stop-color="#C9DBFA"/><stop offset="100%" stop-color="#D6E4FA"/></linearGradient><linearGradient id="cp" x1="27.841%" x2="102.224%" y1="49.082%" y2="51.136%"><stop offset="0%" stop-color="#A5C2F9"/><stop offset=".286%" stop-color="#A5C2F9"/><stop offset="65.19%" stop-color="#C9DBFA"/><stop offset="100%" stop-color="#D6E4FA"/></linearGradient><linearGradient id="cq" x1="-.451%" x2="99.576%" y1="49.393%" y2="49.393%"><stop offset="28.65%" stop-color="#A9C2FB" stop-opacity=".7"/><stop offset="72.16%" stop-color="#A9C2FB" stop-opacity="0"/></linearGradient><linearGradient id="cr" x1="49.65%" x2="53.203%" y1="30.862%" y2="4.523%"><stop offset="0%" stop-color="#1F5BAF"/><stop offset="100%" stop-color="#3289F8"/></linearGradient><linearGradient id="cs" x1="-22.732%" x2="77.946%" y1="90.825%" y2="34.262%"><stop offset="0%" stop-color="#1F5BAF"/><stop offset="100%" stop-color="#3289F8"/></linearGradient><linearGradient id="ct" x1="19.638%" x2="66.992%" y1="60.201%" y2="50.406%"><stop offset="0%" stop-color="#3289F8"/><stop offset="100%" stop-color="#75A9FA"/></linearGradient><linearGradient id="cu" x1="105.801%" x2="31.998%" y1="53.288%" y2="47.262%"><stop offset="0%" stop-color="#A5C2F9"/><stop offset=".286%" stop-color="#A5C2F9"/><stop offset="65.19%" stop-color="#C9DBFA"/><stop offset="100%" stop-color="#D6E4FA"/></linearGradient><linearGradient id="cv" x1="55.057%" x2="48.936%" y1="77.422%" y2="55.846%"><stop offset="0%" stop-color="#A5C2F9"/><stop offset=".286%" stop-color="#A5C2F9"/><stop offset="65.19%" stop-color="#C9DBFA"/><stop offset="100%" stop-color="#D6E4FA"/></linearGradient><linearGradient id="cw" x1="96.759%" x2="38.831%" y1="106.191%" y2="24.594%"><stop offset="0%" stop-color="#1F5BAF"/><stop offset="100%" stop-color="#3289F8"/></linearGradient><linearGradient id="cx" x1="46.898%" x2="25.042%" y1="49.761%" y2="50.134%"><stop offset="0%" stop-color="#A5C2F9"/><stop offset=".286%" stop-color="#A5C2F9"/><stop offset="65.19%" stop-color="#C9DBFA"/><stop offset="100%" stop-color="#D6E4FA"/></linearGradient><linearGradient id="cy" x1="84.307%" x2="42.429%" y1="51.128%" y2="48.811%"><stop offset="0%" stop-color="#3289F8"/><stop offset="100%" stop-color="#75A9FA"/></linearGradient><linearGradient id="cz" x1="102.204%" x2="65.384%" y1="23.523%" y2="50.773%"><stop offset="0%" stop-color="#1F4A8A"/><stop offset="100%" stop-color="#1F5BAF"/></linearGradient><linearGradient id="cA" x1="78.557%" x2="5.384%" y1="22.568%" y2="90.768%"><stop offset="0%" stop-color="#3289F8"/><stop offset="100%" stop-color="#1F5BAF"/></linearGradient><linearGradient id="cB" x1="39.6%" x2="43.922%" y1="119.296%" y2="79.578%"><stop offset="0%" stop-color="#A5C2F9"/><stop offset=".286%" stop-color="#A5C2F9"/><stop offset="65.19%" stop-color="#C9DBFA"/><stop offset="100%" stop-color="#D6E4FA"/></linearGradient><linearGradient id="cC" x1="11.822%" x2="62.45%" y1="38.081%" y2="52.017%"><stop offset="0%" stop-color="#A5C2F9"/><stop offset=".286%" stop-color="#A5C2F9"/><stop offset="65.19%" stop-color="#C9DBFA"/><stop offset="100%" stop-color="#D6E4FA"/></linearGradient><linearGradient id="cD" x1="26.642%" x2="45.727%" y1="61.649%" y2="51.915%"><stop offset="0%" stop-color="#A5C2F9"/><stop offset=".286%" stop-color="#A5C2F9"/><stop offset="65.19%" stop-color="#C9DBFA"/><stop offset="100%" stop-color="#D6E4FA"/></linearGradient><linearGradient id="cE" x1="22.401%" x2="42.068%" y1="95.245%" y2="57.443%"><stop offset="0%" stop-color="#1F5BAF"/><stop offset="100%" stop-color="#3289F8"/></linearGradient><linearGradient id="cF" x1="2.58%" x2="71.44%" y1="50.834%" y2="50.834%"><stop offset="0%" stop-color="#E7EFF7"/><stop offset="100%" stop-color="#E7EFF7" stop-opacity="0"/></linearGradient><linearGradient id="cG" x1="24.225%" x2="-7.701%" y1="61.385%" y2="80.383%"><stop offset="0%" stop-color="#A5C2F9"/><stop offset="4.093%" stop-color="#ABC6F9"/><stop offset="28.37%" stop-color="#C7DAFA"/><stop offset="52.61%" stop-color="#DCE8FB"/><stop offset="76.59%" stop-color="#E8F0FB"/><stop offset="100%" stop-color="#ECF3FB"/></linearGradient><linearGradient id="cH" x1="48.537%" x2="52.532%" y1="62.988%" y2="22.243%"><stop offset="0%" stop-color="#1F5BAF"/><stop offset="100%" stop-color="#3289F8"/></linearGradient><linearGradient id="cI" x1="-36.348%" x2="-24.493%" y1="96.768%" y2="89.509%"><stop offset="0%" stop-color="#ECF3FB"/><stop offset="23.41%" stop-color="#E8F0FB"/><stop offset="47.39%" stop-color="#DCE8FB"/><stop offset="71.63%" stop-color="#C7DAFA"/><stop offset="95.91%" stop-color="#ABC6F9"/><stop offset="100%" stop-color="#A5C2F9"/></linearGradient><linearGradient id="cJ" x1="50.126%" x2="51.903%" y1="46.219%" y2="10.131%"><stop offset="0%" stop-color="#1F5BAF"/><stop offset="100%" stop-color="#3289F8"/></linearGradient><linearGradient id="cK" x1="-63.374%" x2="-42.895%" y1="88.435%" y2="80.948%"><stop offset="0%" stop-color="#ECF3FB"/><stop offset="23.41%" stop-color="#E8F0FB"/><stop offset="47.39%" stop-color="#DCE8FB"/><stop offset="71.63%" stop-color="#C7DAFA"/><stop offset="95.91%" stop-color="#ABC6F9"/><stop offset="100%" stop-color="#A5C2F9"/></linearGradient><linearGradient id="cL" x1="59.946%" x2="113.989%" y1="50.503%" y2="51.678%"><stop offset="0%" stop-color="#75A9FA"/><stop offset="100%" stop-color="#3289F8"/></linearGradient><linearGradient id="cM" x1="78.314%" x2="106.463%" y1="50.071%" y2="50.071%"><stop offset="0%" stop-color="#75A9FA"/><stop offset="100%" stop-color="#3289F8"/></linearGradient><linearGradient id="cN" x1="34.554%" x2="78.408%" y1="49.735%" y2="51.646%"><stop offset="0%" stop-color="#3289F8"/><stop offset="100%" stop-color="#1F5BAF"/></linearGradient><linearGradient id="cO" x1="68.133%" x2="38.237%" y1="50.956%" y2="48.851%"><stop offset="0%" stop-color="#A5C2F9"/><stop offset="4.093%" stop-color="#ABC6F9"/><stop offset="28.37%" stop-color="#C7DAFA"/><stop offset="52.61%" stop-color="#DCE8FB"/><stop offset="76.59%" stop-color="#E8F0FB"/><stop offset="100%" stop-color="#ECF3FB"/></linearGradient><linearGradient id="cP" x1="73.221%" x2="47.174%" y1="62.817%" y2="43.488%"><stop offset="0%" stop-color="#3289F8"/><stop offset="100%" stop-color="#75A9FA"/></linearGradient><linearGradient id="cQ" x1="45.222%" x2="55.436%" y1="57.901%" y2="-10.265%"><stop offset="0%" stop-color="#A5C2F9"/><stop offset="4.093%" stop-color="#ABC6F9"/><stop offset="28.37%" stop-color="#C7DAFA"/><stop offset="52.61%" stop-color="#DCE8FB"/><stop offset="76.59%" stop-color="#E8F0FB"/><stop offset="100%" stop-color="#ECF3FB"/></linearGradient><linearGradient id="cR" x1="51.472%" x2="35.575%" y1="41.76%" y2="136.87%"><stop offset="0%" stop-color="#3289F8"/><stop offset="100%" stop-color="#1F5BAF"/></linearGradient></defs><g fill="none" fill-rule="evenodd"><path fill="url(#a)" d="M216.7 65l-35.3 20.7c-5.8 3.3-5.7 8.8.1 12.1l33.3 19.2c3.1 1.8 7.2 2.6 11.2 2.5 3.5-.1 4.4 0 8 0 3.9 0 7.8-.8 10.8-2.5l35.3-20.7c5.8-3.3 5.7-8.8-.1-12.1L246.7 65c-5.8-3.3-12.2-3.3-17.9 0h-12.1z" transform="translate(0 39)"/><path fill="url(#b)" d="M297.2 138.3l7.7-.8 3.3-3.3 7.6-1.4-13.1-11.1-8.1 9.1z" transform="translate(0 39)"/><path fill="url(#c)" d="M277.7 111.6H316V97h-40.5z" transform="translate(0 39)"/><path fill="url(#d)" d="M224.7 183.6h18.7l-2.5-10.4H220z" transform="translate(0 39)"/><path fill="url(#e)" d="M195 194.8h18.7l4.4-11h-20.9z" transform="translate(0 39)"/><path fill="url(#f)" d="M26.6 249.1h18.7l4.4-11.1h-21z" transform="translate(0 39)"/><path fill="url(#g)" d="M186.9 188.1h18.6l4.4-11.1H189z" transform="translate(0 39)"/><path fill="url(#h)" d="M274.9 187h16.4l4.2 10.5h47.7l-.2-29h-58.5z" transform="translate(0 39)"/><path fill="url(#i)" d="M116.2 287.2l83.5-49.1 31.8 18.2-76.1 44.4-10.7-.9z" transform="translate(0 39)"/><path fill="#CEE0F5" d="M169.8 309.1c0-2.3-111-82.1-111-82.1l-22.3-61.5H2c-1.2.1-1.6 1.2-1.6 2.2-.2 7.1 0 14.3-.1 21.4 0 10.2-.1 20.5-.1 30.7v5.8c1.4.8 148.7 85.8 157.9 91.2l.1.1s.1 0 .1.1h.1c.9.5 1.8.5 2.4.1.6-.3 9-6.9 9-8z"/><path fill="url(#j)" d="M.9 59.5l30.7 17.7c3.1 1.8 7.2 2.6 11.2 2.5 3.5-.1 4.4 0 8 0 3.9 0 7.8-.8 10.8-2.5l70-40.7c5.8-3.3 5.7-8.8-.1-12.1L100.8 6.7c-.7-.4 20.5 17.8 17.6 19C101.7 32 66.8 56 46.4 68 40.5 71.4.9 59.5.9 59.5z" transform="translate(115 267)"/><path fill="url(#k)" d="M.6 59.5l30.7 17.7c5.8 3.3 15.2 3.3 20.9 0l70-40.7c2.9-1.7 4.3-3.8 4.3-6v-8.6l-83 46.2L9.8 49.4l-9.2 2v8.1z" transform="translate(115 267)"/><path fill="#C0D4F7" d="M236.5 283l-28.2-15.6-9.1 2-.1 8.1 30.7 17.7 8-5.9z"/><path fill="#FFF" d="M115.7 317.9v1l30.7 17.7c5.8 3.3 15.2 3.3 20.9 0l70-40.7c5.8-3.3 5.7-8.8-.1-12.1l-3.8 9.2-73 41.8-12-2.5-32.7-14.4z"/><path fill="url(#l)" d="M237.2 243.9l-30.7-17.7-7.3 4.3 30.2 17.4c1.5.9 1.5 3.1 0 4l-66.7 38.9c-3.4 2-7.6 2-11.1 0l-28.3-16.3-7.6 4.4 30.7 17.7c5.8 3.3 15.2 3.3 20.9 0l70-40.7c5.7-3.3 5.7-8.7-.1-12z" transform="translate(0 39)"/><path fill="#FFF" d="M3.8 165c2.1 1.2 3.7 3.8 3.7 6.1.3 9.5 3.3 34.3 24.4 57.5 7.6 8.4 16.9 15.8 27.6 22l.4.2 98.6 56.9.2.1c2.2 1.3 4 4.4 4 7l-.7 1.2s-1.5 1.9-2.9 1.2l1.1-.8c.3-.2.5-1 .5-1.6 0-1.9-1.4-4.3-3-5.3l-.7-.3v-.1l-98.5-56.9c-10.9-6.4-20.4-13.9-28.1-22.4C8.9 206.3 5.9 181 5.6 171.2c-.1-1.7-1.2-3.6-2.7-4.5-.5-.2-.9-.3-1.1-.2-.8.4-1.3 1.1-1.4 2.1 0 0-.3-2.6 1.2-3 1.5-.4 2.2-.6 2.2-.6z"/><path fill="url(#m)" d="M195.7 256.4c0-2.3-1.6-5-3.5-6.1h-.1l-99-57.2c-47.3-27.5-52.3-68.4-52.7-80.5-.1-2-1.4-4.3-3.2-5.3-.8-.5-1.6-.5-2.1-.2L1.2 126.7c.5-.3 1.3-.3 2.1.2 1.8 1 3.2 3.3 3.2 5.3.3 9.1 3.2 34.5 24.7 58.2 7.1 7.8 16.2 15.4 27.8 22.2.1.1.3.2.4.2l98.5 56.8c.1 0 .2.1.3.1 2 1.1 3.6 3.9 3.5 6.1 0 1.1-.4 1.8-1 2.2l33.8-19.5c.8-.2 1.2-1 1.2-2.1z" transform="translate(0 39)"/><path d="M111.1 246.4l-25.5 14.8m7.3-25.3l-25.5 14.8m61.9 6.2l-25.6 14.8m43.8-4.3l-25.6 14.8m43.8-4.3l-25.6 14.8m43.8-4.3l-25.6 14.8m-83.6-77.8l-25.5 14.8M75.4 225l-25.5 14.8m10.6-28.6L34.9 226m14.7-29.4L24 211.3m13.5-51L11.9 175m30.1 5.1l-25.6 14.8" stroke="#3A71DA" stroke-linecap="round" stroke-linejoin="round" opacity=".2"/><path fill="url(#n)" d="M351.2 207.6l-35.3 20.7c-5.8 3.3-5.7 8.8.1 12.1l33.3 19.2c3.1 1.8 7.2 2.6 11.2 2.5 3.5-.1 4.4 0 8 0 3.9 0 7.8-.8 10.8-2.5l35.3-20.7c5.8-3.3 5.7-8.8-.1-12.1l-33.3-19.2c-5.8-3.3-12.2-3.3-17.9 0h-12.1z" transform="translate(0 39)"/><path fill="url(#o)" d="M311.4 225.8v8.6c0 2.2 1.5 4.4 4.4 6.1l33.3 19.2c5.8 3.3 15.2 3.3 20.9 0l35.3-20.7c2.9-1.7 4.3-3.8 4.3-6v-8.6l-98.2 1.4z" transform="translate(0 39)"/><path fill="#FFF" d="M405.2 258.4c5.8 3.3 5.8 8.8.1 12.1L370 291.1c-5.8 3.3-15.1 3.3-20.9 0l-33.3-19.2c-5.8-3.3-5.8-8.8-.1-12.1l35.3-20.7c5.8-3.3 15.1-3.3 20.9 0l33.3 19.3z"/><path fill="url(#p)" d="M405.2 218.3c5.8 3.3 5.8 8.8.1 12.1L370 251.1c-5.8 3.3-15.1 3.3-20.9 0l-33.3-19.2c-5.8-3.3-5.8-8.8-.1-12.1l35.3-20.7c5.8-3.3 15.1-3.3 20.9 0l33.3 19.2z" transform="translate(0 39)"/><path fill="url(#q)" d="M218.1 99c1.3.7 2.1 1.8 2.1 2.9 0 2.3-3.2 4.1-7.1 4.1h-38.2c-2 0-3.7-.5-5-1.2-1.3-.7-2.1-1.8-2.1-2.9 0-2.3 3.2-4.1 7.1-4.1h38.2c2 0 3.7.5 5 1.2z" transform="translate(0 39)"/><path fill="url(#r)" d="M303.4 165.1c1.3.7 2.1 1.8 2.1 2.9 0 2.3-3.2 4.1-7.1 4.1h-38.2c-2 0-3.7-.5-5-1.2-1.3-.7-2.1-1.8-2.1-2.9 0-2.3 3.2-4.1 7.1-4.1h38.2c1.9 0 3.7.4 5 1.2z" transform="translate(0 39)"/><path fill="url(#s)" d="M161 121.9c-1.3-.7-3.1-1.2-5.1-1.2h-38.2c-3.9 0-7.1 1.9-7.1 4.1 0 .6.2 1.1.6 1.7h-5.5l2.6 17H153v-14.6h3c3.9 0 7.1-1.9 7.1-4.1 0-1.1-.8-2.2-2.1-2.9z" transform="translate(0 39)"/><path fill="url(#t)" d="M357 143.5c1.1-.6 2-.1 2 1.1l.1 25.4c0 1.3-.9 2.8-2 3.5l-34.2 19.8c-1.1.6-2 .1-2-1.1l-.1-25.4c0-1.3.9-2.8 2-3.5l34.2-19.8z" transform="translate(0 39)"/><path fill="url(#u)" d="M359 175.8l.1 25.8-38.3 22.1v-25.8z" transform="translate(0 39)"/><path fill="url(#v)" d="M272.4 83s.5-.3.5-.4v8.6c0 2.2-1.9 4.7-4.8 6.4l-33.3 19.2c-5.8 3.3-15.2 3.3-20.9 0l-35.3-20.7c-2.9-1.7-4.3-3.8-4.3-6v-8.6l98.1 1.5z" transform="translate(0 39)"/><path fill="#FFF" d="M178.6 115.6c-5.8 3.3-5.8 8.8-.1 12.1l35.3 20.7c5.8 3.3 15.1 3.3 20.9 0l33.3-19.2c5.8-3.3 5.8-8.8.1-12.1l-35.3-20.7c-5.8-3.3-15.1-3.3-20.9 0l-33.3 19.2z"/><path fill="url(#w)" d="M178.6 75.5c-5.8 3.3-5.8 8.8-.1 12.1l35.3 20.7c5.8 3.3 15.1 3.3 20.9 0L268 89.1c5.8-3.3 5.8-8.8.1-12.1l-35.3-20.7c-5.8-3.3-15.1-3.3-20.9 0l-33.3 19.2z" transform="translate(0 39)"/><path fill="url(#x)" d="M53 38.7H13.8c-1.4 0-2.7-.3-3.7-.9l-2.7-1.5c-2.1-1.2-2.1-3.1 0-4.3l7.1-4.1c1-.6 2.3-.9 3.6-.9h15.7L12.6 14.7c-2.1-1.2-2-3.1 0-4.3L29.3.8l24.4 11.1 10.6 6.2c4.9 2.8 5.5 4.9 5.5 7 0 2.2-.9 4.5-3.8 6.2-2.9 1.7-13 7.4-13 7.4z" transform="translate(203 97)"/><path fill="url(#y)" d="M.6 16.5v14.7c0 .8.5 1.6 1.5 2.1l7.1 4.1c2.1 1.2 5.4 1.2 7.5 0l2.7-1.5c1-.6 1.6-1.4 1.6-2.2V19C21 18.3.6 16.6.6 16.5z" transform="translate(203 97)"/><path fill="url(#z)" d="M2.2 14.3c-2.1 1.2-2.1 3.1 0 4.3l7.1 4.1c2.1 1.2 5.4 1.2 7.5 0l2.7-1.5c2.1-1.2 2.1-3.1 0-4.3l-7.1-4.1c-2.1-1.2-5.4-1.2-7.5 0l-2.7 1.5z" transform="translate(203 97)"/><path fill="url(#A)" d="M206.2 51.8v1.3c0 .8.5 1.6 1.5 2.1l35.5 20.7c2 1.2 5.4 1.2 7.5 0l16.7-9.6c1-.6 1.6-1.4 1.6-2.2v-1.3c0-.7-62.8-11.8-62.8-11z" transform="translate(0 39)"/><path fill="url(#B)" d="M207.7 49.7c-2.1 1.2-2.1 3.1 0 4.3l35.5 20.7c2 1.2 5.4 1.2 7.5 0l16.7-9.6c2.1-1.2 2.1-3.1 0-4.3L231.9 40c-2.1-1.2-5.4-1.2-7.5 0l-16.7 9.7z" transform="translate(0 39)"/><path fill="url(#C)" d="M226.8.8c-1.1-.6-2-.1-2 1.1l-.1 25.4c0 1.3.9 2.8 2 3.5L261 50.6c1.1.6 2 .1 2-1.1V24c0-1.3-.9-2.8-2-3.5L226.8.8z" transform="translate(0 39)"/><path fill="url(#D)" d="M224.9 57.2c-.9.5-.9 1.3 0 1.8l10.1 5.9c.9.5 2.2.5 3.1 0l3.1-1.8c.9-.5.9-1.3 0-1.8l-10.1-5.9c-.9-.5-2.2-.5-3.1 0l-3.1 1.8z" transform="translate(0 39)"/><path fill="url(#E)" d="M224.8 32.8l-.1 9.6L263 64.5v-9.7z" transform="translate(0 39)"/><path d="M350.9 208.9v1.4l-5.4 3.1V212zm2.2-4.8v1.4l-7.6 4.4v-1.4z" fill="#6EA9FF"/><path fill="url(#F)" d="M224.9 83.3c1.3.7 2.1 1.8 2.1 2.9 0 2.3-3.2 4.1-7.1 4.1h-38.2c-2 0-3.7-.5-5-1.2-1.3-.7-2.1-1.8-2.1-2.9 0-2.3 3.2-4.1 7.1-4.1h38.2c1.9 0 3.7.4 5 1.2z" transform="translate(0 39)"/><path fill="#E0E9FD" d="M349.7 202.9c-2.5 1.5-4.6.3-4.6-2.6s2.1-6.5 4.6-8c2.6-1.5 4.6-.3 4.6 2.6 0 3-2.1 6.6-4.6 8z"/><path fill="#376CD1" d="M349.1 194.3l.1 4.7 1.2-.8v-4.6zm.1 5.8v1.6l1.2-.8v-1.5z"/><path fill="#E0E9FD" d="M341.6 215l-.6-3.8-.9 1.4-3.3-2.4-4.8.2-1.4-3.4-4.6-1-.8 1.8 4.2.9 1.5 3.5 5-.2 3.2 2.3-.8 1.2z"/><path fill="url(#G)" d="M23.3 4.7l-6.5 17.9L0 10.7 6.5.8z" transform="translate(261 128)"/><path fill="#A9C2FB" d="M284.3 132.7v8.1l-6.6 9.8.1-8.1z"/><path fill="url(#H)" d="M16.8 14.5l-.1 8.1L0 18.7v-8z" transform="translate(261 128)"/><path fill="url(#I)" d="M25.5 7.5L14.6 32 .3 9.4 11.2.9z" transform="translate(259 111)"/><path fill="#A9C2FB" d="M284.5 118.5l-.1 16-11 8.5.2-15.9z"/><path fill="url(#J)" d="M14.6 16.1L14.4 32 .2 25.4l.1-16z" transform="translate(259 111)"/><path fill="url(#K)" d="M297.3 138.3l4.5-4.1 6-.5 4.3-4.1-11.2-9.7-4.3 4.1-6 .5-4.5 4.1z" transform="translate(0 39)"/><path fill="#CDDEF7" d="M277.3 134.3l7.2-5.2 2.6 3.6z"/><path fill="#EEF4FB" d="M266.6 142.9l9.7 2-8.4 2.3zm-5.8-15.8l7.8 3.3-5.7.2z"/><path fill="url(#L)" d="M414.3 228.7c1.3.7 2.1 1.8 2.1 2.9 0 2.3-3.2 4.1-7.1 4.1h-38.2c-2 0-3.7-.5-5-1.2-1.3-.7-2.1-1.8-2.1-2.9 0-2.3 3.2-4.1 7.1-4.1h38.2c1.9 0 3.7.5 5 1.2z" transform="translate(0 39)"/><path fill="url(#M)" d="M378.3 201c.7.1.8.4.7 1.2 0 .8-.5 3.9-1.8 3.2-1.3-.7-.7-3.9 1.1-4.4z" transform="translate(0 39)"/><path fill="url(#N)" d="M380.5 193v-.1c0-.2 0-.3-.1-.5-.3-1.4-1-7.4-1.5-8.5-.5-1.3-3.4-2.3-2.8 3 .3 2.5 1.5 12.4 1.6 14.4 0 1.1.5 1.4 1.2.3 1-1.6 1.8-7.3 1.6-8.6z" transform="translate(0 39)"/><path fill="url(#O)" d="M11.3 57.9s-1.7-.4-2.7-.3c-.7 0-1.1.1-.9.6.2.5 2.8 2.1 4 2.4 1.2.3 2 .1 2-.6s-.1-2.1-1-2.1h-1.4z" transform="translate(364 210)"/><path fill="url(#P)" d="M13 47s.1 9.4.2 10.9c.1 1.6-1.5 1.1-2 .1 0 0-2.8-13.1-1.9-16.5 1-3.4 3.7 0 3.7 5.5z" transform="translate(364 210)"/><path fill="url(#Q)" d="M4.9 61.2s-2.5.2-3.5.3c-.7 0-1.4.1-1.2.5.2.5 3.9 1.5 5.2 1.9 1.2.3 2.2.1 2.2-.6s-.4-2.1-1.3-2.1H4.9z" transform="translate(364 210)"/><path fill="url(#R)" d="M6.6 50.3s.1 9.4.2 10.9c.1 1.6-1.5 1.1-2 .1 0 0-2.3-13.1-1.5-16.5 1-3.4 3.3 0 3.3 5.5z" transform="translate(364 210)"/><path fill="url(#S)" d="M9.7 57c1.2.7 3.6 1.4 3.6.3 0-1.1-.3-8.9-.4-11.9 0-9.1 1.4-8.4.9-13.3-.5-4.9-5-.6-5.4.7-.4 1.3.4 10.7.6 12.9.2 2.2.7 11.3.7 11.3z" transform="translate(364 210)"/><path fill="url(#T)" d="M4.2 31.5c-.3 1.6-1.6 11.3-1.6 13.6 0 2.3.6 14.8.6 14.8s3.8 1.9 3.8.2c0-.9 0-8.4-.5-12.1-.3-2.2 2.1-8.7 2.7-11.1.8-.3 2.9-1.7 2.4-5.9s-7.4.5-7.4.5z" transform="translate(364 210)"/><path fill="url(#U)" d="M14.6 34c-.1 1.8-3.9 2.5-7 2.3-3.2-.2-3.9-1.2-4.5-2 .2-2.1 1-4.8 1.3-6.3.3-4.8.1-12.2.7-13.4.6-1.4 4-2.8 6.3-3.2 1-.2 2.4.2 2.9.4 1.4.6.8 2.9.4 4.5s-.9 4.7-.7 7.9c-.1 3.2.8 7.4.6 9.8z" transform="translate(364 210)"/><path fill="url(#V)" d="M5.9 4.8c-1 1.4-.5 5.1.2 5.7.5.5 1.1.3 1.8.5.5.1.4 1.1.6 1.5.4-.3 1.5-.4 2.2-.5.7-.2.7-.5.9-.4.1-.8.5-6.1-.9-7-1.2-.9-4.1-.8-4.8.2z" transform="translate(364 210)"/><path fill="url(#W)" d="M10.8 1.9c-1.2-.7-4.8-2-5.5.8-.4 1.4.4 2.7 1 3.5.3.4.3 1.1.6 1.4.3.3.4-.6.9-.2.9.8-.7 2.4 1.7 3.1.4.1 1.3.4 1.8-.2 1.7-1.6 3.1-6 .7-6.9 0 0 .1-.8-1.2-1.5z" transform="translate(364 210)"/><path fill="url(#X)" d="M370.4 184.2c-.6.2-2.4 1.4-3.6 2.3-1.4 1.2-2.4 1.7-3.2 2.7-1.4 1.7.2 2.9 1.7 2.7 1.2-.1 2.3-.6 3.5-1 1.2-.3 3-7.4 1.6-6.7z" transform="translate(0 39)"/><path fill="url(#Y)" d="M366.4 191.3c.8-1 1.6-3.9 2.5-5.5.7-1.3 1.1-2.6 1.2-3.2.2-1-.2-1.9-.9-2.2-.9-.3-1.6.1-3.4 2.8-1.3 2-2.6 5.4-2.8 6.5-.3 1.5 2.1 3.3 3.4 1.6z" transform="translate(0 39)"/><path fill="url(#Z)" d="M373.2 178.7l-2.8 2.8c-.2.2-.4.2-.5.1l-1.3-1.4c-.1-.1-.1-.4.1-.5l2.8-2.8c.2-.2.4-.2.5-.1l1.3 1.4c.1.1 0 .4-.1.5z" transform="translate(0 39)"/><path fill="url(#aa)" d="M369.2 182.7c-1.2-.2-1.6-1.6-1.4-2.3.1-.7 1.3-2.4 2.3-1.6.5.5-.2 1.9-.2 2.5l.5.1c0 .3-.4 1.4-1.2 1.3z" transform="translate(0 39)"/><path fill="url(#ab)" d="M12.6.9L7.3.4.1 12.8 8 21.9l5.3.5z" transform="translate(173 298)"/><path fill="url(#ac)" d="M13.3 22.4l-7.9-9.1L12.6.9l7.9 9.1z" transform="translate(173 298)"/><path fill="url(#ad)" d="M182.7 264.8l-5.3-.5-1.5 2.6 5.4.5z" transform="translate(0 39)"/><path fill="#B7CFFE" d="M182.7 303.8l-1.4 2.6 7.9 9 1.4-2.5z"/><path fill="url(#ae)" d="M123.3 242.5v32l28.3 16.3c3.4 2 7.6 2 11.1 0l66.7-38.9c.8-.4 1.2-1.2 1.2-2v-69.4l-107.3 62z" transform="translate(0 39)"/><path fill="url(#af)" d="M229.3 251.9l-66.7 38.9c-3.4 2-1.1 9.2 4.6 5.9l70-40.7c5.8-3.4-6.3-5-7.9-4.1z" transform="translate(0 39)"/><path fill="#7DAAFD" d="M240.3 58.6v2.1l1.9 1v-2.1zm16.8 4.2v2.1L259 66v-2.1zM242.3 66v2.1l1.8 1.1v-2.1z"/><path fill="#5E99FC" d="M245.6 75.1v2.1l1.8 1v-2.1zm9-2.6v2.1l1.8 1.1v-2.2z"/><path fill="#468AFB" d="M232.4 47v2.2l1.9 1v-2.1zm4.5 17.8v2.1l1.9 1.1v-2.1zm10.1-.9V66l1.9 1.1v-2.2zM228.6 62v2.1l1.9 1V63z"/><path fill="url(#ag)" d="M171.1 75c1.2-5.1 2.3-7.7 4-8.3 1.7-.6 1.7 2 1.3 3.7-.6 2.2-1.6 6.1-2.8 7.6-1.2 1.5-3.3.6-2.5-3z" transform="translate(0 39)"/><path fill="url(#ah)" d="M6.7 35.7c.5-.3.2-2.4-.5-2.4-.7-.1-1.4.1-2.2.6-.9.5-2.8 1.7-3.2 2.1-.5.5.4.8 1.3.7.9-.1 3.6-.4 4.6-1z" transform="translate(166 104)"/><path fill="url(#ai)" d="M4.8 33.8S3.1 22.5 3 21.4c-.2-2.3.5-3.3 1.5-3.3.9 0 1.7 1.5 1.8 2.9.1 1.5.6 11.2.3 12.7-.2.8-1.6.6-1.8.1z" transform="translate(166 104)"/><path fill="url(#aj)" d="M12.8 39c.5-.3.2-2.4-.5-2.4-.7-.1-1.4.1-2.2.6-.9.5-2.8 1.7-3.2 2.1-.4.4.4.8 1.3.7.8-.1 3.5-.4 4.6-1z" transform="translate(166 104)"/><path fill="url(#ak)" d="M2.9 20.6l.3 11.7s1.5 1.9 3.5 1.1l.5-.1-.4-10.7s8.3.6 7.3-3.9c-.4-1.8-1.9-2.5-2.9-2.4-.7.1-4.9 1.5-6.9 2.1-.9.4-1.4 1-1.4 2.2z" transform="translate(166 104)"/><path fill="url(#al)" d="M12.3 24.2c.1 1.5.6 11.2.3 12.7-.2.9-1.5.7-1.7.1 0 0-1.7-11.3-1.8-12.4l3.2-.4z" transform="translate(166 104)"/><path fill="url(#am)" d="M13.7 17.6c-.2.6 0 2 0 2-1.6.5-2.9 1.7-3.7 2.2-.8.6-1.4 1-1.4 2.2l.3 11.7s1.5 1.9 3.5 1.1l.5-.1-.4-10.7s1.5-.5 3.2-1c2.2-.6 4.6-1.4 4.1-4-.2-1.8-1-4.9-1-4.9l-5.1 1.5z" transform="translate(166 104)"/><path fill="url(#an)" d="M19.7 20.4c.5-2.6.1-7.6-.1-10.2-.3-3.9-.9-5.2-2.6-7-.7-.7-1.8-1.2-3-1.7-.9-.4-1.1-.4-2-.5-1-.1-2.6.3-3.4.9-1.1.8-.5 3.5.5 5.6 2.3 4.7.3 3.9.7 9 .3 1.1 1.1 2.2 3.1 2.8 1.8.6 4.9.7 6.8 1.1z" transform="translate(166 104)"/><path fill="url(#ao)" d="M180.2 66.6c0-.2-.2-1.3-.2-1.5.1-1.1.3-2.5-.3-4.9-.6-2.6-2.8-2.8-4.1-2.4-1.8.5-2.5 2.7-2 4.5.5 1.9.8 3.2 2.1 3.6 1.9.6 1.3 2.2 2.2 2.3.6.1 2.2-.7 2.3-1.6z" transform="translate(0 39)"/><path fill="url(#ap)" d="M172.8 59.7c-.1-1.3 1.8-2.8 3.8-2.8 2 0 1.9.7 1.9.7 1.4.1 1.7 1.2 2 3.1.4 2.2 0 3.5-.5 3.6-.5.1-.6-1.3-.6-2.1-.1-1.1-.7-1.2-.8-.7-.1.4-.1.8-.3.9-.6.3-.5-.4-1.2-.8-.4-.2-.6-.2-1.3-.1-1.6.3-2.9-.4-3-1.8z" transform="translate(0 39)"/><path fill="url(#aq)" d="M180.5 66.7c-.1-.1-.3-.4-.3-.4-.1.3-.9 1.5-2.3 1.7-.3 0-.5-.3-.6-.6 0 0-.1.1-.1.3 0 .2.1.4.1.4s.2.7.7.7c1-.1 2.7-1.5 2.5-2.1z" transform="translate(0 39)"/><path fill="url(#ar)" d="M182.3 68.9c-1.6.5-2.3 2.4-3.6 6.8-.7-.5-1.6-1.1-2.6-1.9-2.3-1.9-3.3.3-3 1 .7 1.5 3.2 3.5 4.6 4.7.9.8 2.1 1.2 2.8.5.1-.1.2-.1.3-.2 1.3-1.4 2.5-5.2 3.2-7.4.5-1.8 0-4-1.7-3.5z" transform="translate(0 39)"/><path fill="url(#as)" d="M171.6 67c.2 0 .4.3.5.5l1.2 4.7c.1.2-.1.4-.3.4l-1.7-.3c-.2 0-.4-.3-.5-.5l-1.2-4.7c-.1-.2.1-.4.3-.4l1.7.3z" transform="translate(0 39)"/><path fill="url(#at)" d="M173.4 74.6c-1.1.3-1.7-.3-2.1-1.1-.4-.8-1.5-2.3-.8-2.6.7-.3 2.5.8 3 1.5s1.4 1.8-.1 2.2z" transform="translate(0 39)"/><path fill="url(#au)" d="M157.2 149.8c-.2-.8-.7-5.1-2.5-7.9-1.5-2.3-4-.2-3.3 2.5.7 2.7 2.1 5.4 2.6 6.5.9 2.1 4 1.9 3.2-1.1z" transform="translate(0 39)"/><path fill="url(#av)" d="M192.5 184.9c1.3.7 2.1 1.8 2.1 2.9 0 2.3-3.2 4.1-7.1 4.1h-38.2c-2 0-3.7-.5-5-1.2-1.3-.7-2.1-1.8-2.1-2.9 0-2.3 3.2-4.1 7.1-4.1h38.2c1.9-.1 3.7.4 5 1.2z" transform="translate(0 39)"/><path fill="url(#aw)" d="M7.9 48.4c-.5-.3-.2-2.4.5-2.4.7-.1 1.4.1 2.2.6.9.5 2.8 1.7 3.2 2.1.5.5-.4.8-1.3.7-.8-.2-3.6-.5-4.6-1z" transform="translate(143 177)"/><path fill="url(#ax)" d="M9.8 46.4s1.7-11.3 1.8-12.4c.2-2.3-.5-3.3-1.5-3.3-.9 0-1.7 1.5-1.8 2.9-.1 1.5-.6 11.2-.3 12.7.3.9 1.6.7 1.8.1z" transform="translate(143 177)"/><path fill="url(#ay)" d="M11 18c.7 3 1.3 11.6 1.3 14.2 0 1.6-.6 13.7-.6 13.7s-2.6.9-3.9.3c0 0 .2-11.9.1-12.9S6 21.2 6 21.2l5-3.2z" transform="translate(143 177)"/><path fill="url(#az)" d="M1 51.1c-.5-.3-.2-2.4.5-2.4.7-.1 1.4.1 2.2.6.9.5 2.2 2.2 2.7 2.7s-.4.8-1.3.7c-.9-.2-3-1-4.1-1.6z" transform="translate(143 177)"/><path fill="url(#aA)" d="M2.9 49.2s2.4-10.5 2.5-11.6c.2-2.3-.5-3.3-1.5-3.3-.9 0-1.7 1.5-1.8 2.9-.1 1.5-1.3 10.3-1 11.9.3.9 1.6.6 1.8.1z" transform="translate(143 177)"/><path fill="url(#aB)" d="M7.2 21.7C7.1 24 6.1 36.4 6.1 36.4L5 47.8s-1.5 1.9-3.5 1.1l-.5-.1 1.2-13.2s-.8-11-.1-15.6c.7-4.4 5.1 1.7 5.1 1.7z" transform="translate(143 177)"/><path fill="url(#aC)" d="M1.5 23.5c.7 3.3 10 1 10-2.4s0-6.4.3-11.3.6-5.8-1.6-7.8C9.5 1.3 8.4.7 7.1.5 6.1.4 5.2.2 4.3.5c-1.2.5-2.4 1.1-3 1.9-1.6 2 .3 5.9.4 8.4 0 2.8-.8 10.1-.2 12.7z" transform="translate(143 177)"/><path fill="url(#aD)" d="M147.5 138.3c-.7.4.6 2.9 2.5 3.5 2 .6 1.5-3 .5-3.8-1-.8-3 .3-3 .3z" transform="translate(0 39)"/><path fill="url(#aE)" d="M148.1 138.3c0-.2.2-1.3.2-1.5-.1-1.1-.3-2.5.3-4.9.6-2.6 2.8-2.8 4.2-2.4 1.8.6 2.7 2.4 2 4.5-.6 1.8-1.2 3.6-2.2 3.7-2 .3-1.3 1.7-2.2 1.8-.7.2-2.3-.3-2.3-1.2z" transform="translate(0 39)"/><path fill="url(#aF)" d="M156.3 131.7c.1-1.3-2.2-3-4.2-3s-1.9.6-1.9.6c-1.5.1-1.8 1.2-2 3.1-.2 2-.5 3.8.1 4 .5.2.8-1.7.9-2.4.1-1.1.7-1.2.9-.7.1.4.2.7.4.7.6.1.5-1.5 1.3-1.7.5-.1 1.1.4 1.8.7 1.4.6 2.6.2 2.7-1.3z" transform="translate(0 39)"/><path fill="#A9C2FB" d="M183.1 214.1l-13.8-11.8-1 3.6s5.6 8.1 14.8 8.2z"/><path stroke="#7AA8FD" stroke-linecap="round" stroke-linejoin="round" d="M138.9 187l27.9 22.2"/><path fill="url(#aG)" d="M146.5 154.2c.7-.8.7-.9 1.2-.8.5.1 1.8 1 2 1.8.2.8-.8 2.2-1.3 2-.5-.2-1.7-1-1.8-2l-.1-1z" transform="translate(0 39)"/><path fill="url(#aH)" d="M144 141c-2.3 3.4-4.1 7.2-3.7 8.5.4 1.3 4.8 5.7 5.8 5.5 1-.2 1.7-1.5 1.6-1.7-.5-1-3.8-4.7-3.9-4.7-.1 0 3.6-3.7 3.2-6.4-.3-1.7-2-2.7-3-1.2z" transform="translate(0 39)"/><path fill="url(#aI)" d="M169.1 163.8c1.7 7.4 14 11.4 14 11.4l-4.8 12s-12.3-3.9-14-11.4l4.8-12z" transform="translate(0 39)"/><path fill="url(#aJ)" d="M167.8 171.8l1.6 1.3c.3.2 1.5.7 1.7.5.2-.3-.6-1.3-.9-1.5l-1.6-1.3c-.3-.2-.9-.6-1.1-.3-.2.2.1 1.1.3 1.3" transform="translate(0 39)"/><path fill="url(#aK)" d="M154.6 158.5c-.1.9-.7 2.4-1.2 2.2-1.1-.4-1.4-.7-1.7-1.3-.3-.6.6-2.2 1.1-2.5.5-.3 1.9.2 1.8 1.6z" transform="translate(0 39)"/><path fill="url(#aL)" d="M152.3 157s1.7-5.5 2.4-6.8c.7-1.3 3.1-.9 2.5 1.4-.6 2.3-1.7 5.7-1.9 6.3-.5 1.3-3-.8-3-.9z" transform="translate(0 39)"/><path fill="#A9C2FB" d="M178.4 226.1s-12.3-3.9-14-11.4l.2-.4 13.8 11.8z"/><path fill="url(#aM)" d="M116.5 123.8s2 1.5 2.9 2c.5.4 1.2.8.8 1.1-.4.3-4.2-.7-5.4-1-1.2-.3-2-1.1-1.6-1.6.4-.5 1.4-1.6 2.2-1.2l1.1.7z" transform="translate(0 39)"/><path fill="url(#aN)" d="M116.3 113.4s-1.9 8.2-2.2 9.6c-.1.5 0 .7.5.7s1.2.1 1.5-.4c0 0 5.4-11.1 4.9-14.3-.1-.6-.3-.9-.5-1.1-1.1-1-3.4 1.7-4.2 5.5z" transform="translate(0 39)"/><path fill="url(#aO)" d="M111.6 121.9s2 1.5 2.9 2c.5.4 1.2.8.8 1.1-.4.3-4.2-.7-5.4-1-1.2-.3-2-1.1-1.6-1.6.3-.6 1.4-1.6 2.2-1.2l1.1.7z" transform="translate(0 39)"/><path fill="url(#aP)" d="M111.4 111.5s-1.9 8.2-2.2 9.6c-.1.5 0 .7.5.7s1.2.1 1.5-.4c0 0 5.4-11.1 4.9-14.3-.1-.6-.4-1.1-.7-1.3-.9-1-2.9 1.5-4 5.7z" transform="translate(0 39)"/><path fill="url(#aQ)" d="M119.1 222.4h23.7l.3 9h-20.9z" transform="translate(0 39)"/><path fill="url(#aR)" d="M67.1 186.7h16l13.9 9H70.2z" transform="translate(0 39)"/><path fill="url(#aS)" d="M44.9 179.9h21.9l2.9 8H47z" transform="translate(0 39)"/><path fill="url(#aT)" d="M160.1 250.8h23.7l.3 9h-20.9z" transform="translate(0 39)"/><path fill="url(#aU)" d="M154.2 240.7h23.6l.3 9h-20.8z" transform="translate(0 39)"/><path fill="url(#aV)" d="M106.7 200.4l3.1 9h11.6l-7.8-4.6z" transform="translate(0 39)"/><path fill="url(#aW)" d="M91.3 200.4l23.7 6-.3 11.4H93.9z" transform="translate(0 39)"/><path fill="url(#aX)" d="M.8 4.6v5.7l14.9 2.8L17.9 9V3.3z" transform="translate(77 233)"/><path fill="url(#aY)" d="M17.9 3.3l-2.2 4.1L.8 4.6 3 .5z" transform="translate(77 233)"/><path fill="url(#aZ)" d="M17.8 4.7L.6 4.5v5.7l3 3.9 14.3-3.7z" transform="translate(84 244)"/><path fill="#000" d="M96.2 250.2l-3 .7"/><path fill="url(#ba)" d="M14.8.7l3 4L3.6 8.4l-3-3.9z" transform="translate(84 244)"/><path fill="url(#bb)" d="M.1 9.9v5.6l7.3.9 2.9-9.2V1.6z" transform="translate(115 254)"/><path fill="url(#bc)" d="M3.1.7l7.2.9-2.9 9.2-7.3-.9z" transform="translate(115 254)"/><path fill="#000" d="M200.3 223.5v5.5l-1.8 1.7v-5.6zm-1.8 1.6v5.6l-6.1-2.6v-5.5z"/><path fill="url(#bd)" d="M7 8.2l-6.1.5v5.5L7 16.8l8.8-7.9V3.4z" transform="translate(188 217)"/><path fill="url(#be)" d="M7 11.2L.9 8.7l3.5-3.1 1.8-1.7L9.7.8l6.1 2.6z" transform="translate(188 217)"/><path fill="url(#bf)" d="M6.2 3.9l6.1 2.6-1.8 1.6-6.1-2.5z" transform="translate(188 217)"/><path fill="#000" d="M189 215.8l-.1 5.5-.7 2 .1-5.5z"/><path fill="url(#bg)" d="M8 6.6l-7.2 3L.7 15l7.2 1.1 3.3-9.6V1.1z" transform="translate(179 211)"/><path fill="#E100E1" d="M188.3 217.8l.7-2"/><path fill="url(#bh)" d="M2.7 3.8L4 0l7.2 1.1L8 10.6l-7.2-1L2 5.8z" transform="translate(179 211)"/><path fill="url(#bi)" d="M2.7 3.8l7.3 1-.7 2-7.3-1z" transform="translate(179 211)"/><path fill="url(#bj)" d="M.7 3.3V9l11.1 6.4 5.2-3.1V6.6z" transform="translate(98 233)"/><path fill="#B7CFFE" d="M103.1 244.5l2.3 1.4v-5.8l-2.3-1.3z"/><path fill="url(#bk)" d="M17 6.6l-5.2 3.1L.7 3.3 5.9.2z" transform="translate(98 233)"/><path fill="#A9C2FB" d="M117.2 149.6l.2 20.2-8.7 12.6-.2-20.3z"/><path fill="url(#bl)" d="M21.5 18.1l.2 20.3-21.3-5-.2-20.2z" transform="translate(87 144)"/><path fill="url(#bm)" d="M30.2 5.6l-8.7 12.5L.2 13.2 8.9.6z" transform="translate(87 144)"/><path fill="url(#bn)" d="M235.9 59.1s-2.5.2-3.5.3c-.7 0-1.4.1-1.2.5.2.5 3.9 1.5 5.2 1.9 1.2.3 2.2.1 2.2-.6s-.4-2.1-1.3-2.1h-1.4z" transform="translate(28 144)"/><path fill="url(#bo)" d="M248 48.9c-.9-.6-6.4-4.7-10.3-6.7-1.1-.6-2-.9-2.7-.8-.1 0-.1 0-.2.1-.2.1-.4.2-.5.4-.1.2-.1.3-.2.5 0 .1-.1.2-.1.3-.9 3.4 1.9 16.5 1.9 16.5.4 1.1 2.1 1.5 2-.1-.1-1.6-.2-10.9-.2-10.9v-.9c1.1 1.1 2.9 2.7 3.6 3.4 0 0 1.2 1.9 3.3 2.7 4.6 1.7 5-3.2 5-3.2s-.6-.6-1.6-1.3z" transform="translate(28 144)"/><path fill="#A9C2FB" d="M295.4 199.1l.2 20.3-20.4 6.3-.2-20.2z"/><path fill="url(#bp)" d="M11 18.5l.2 20.2L.6 26.9.4 6.6z" transform="translate(264 187)"/><path fill="url(#bq)" d="M31.4 12.1L11 18.5.4 6.6 20.8.3z" transform="translate(264 187)"/><path fill="#A9C2FB" d="M301.4 217.6v12.2l-6 6.7.1-12.2z"/><path fill="#7AA8FD" d="M297.2 229.8l-1.8 1.9.1-3.2 1.7-1.9z"/><path fill="url(#br)" d="M12.5 10.3l-.1 12.2L.9 19.1V6.8z" transform="translate(283 214)"/><path fill="url(#bs)" d="M18.4 3.6l-5.9 6.7L.9 6.8 6.8.1z" transform="translate(283 214)"/><path fill="url(#bt)" d="M1.5 1.1L.7 6.8l3.1 9.1 7.3-.2.8-5.7z" transform="translate(60 219)"/><path fill="url(#bu)" d="M11.9 10l-7.2.2-3.2-9.1L8.7.9z" transform="translate(60 219)"/><path fill="url(#bv)" d="M1.2 8l-1 5.7 7 2.2 5-7.8 1-5.7z" transform="translate(40 211)"/><path fill="url(#bw)" d="M8.2 10.3L1.2 8 6.3.2l6.9 2.2z" transform="translate(40 211)"/><path fill="url(#bx)" d="M.2 1.4v5.7l5.3 8.5 7-1.4V8.5z" transform="translate(91 232)"/><path fill="url(#by)" d="M12.5 8.5l-7 1.4L.2 1.4l7-1.4z" transform="translate(91 232)"/><path fill="url(#bz)" d="M.3 1.8v11.4l4.3 8.7 7.1-1.1.1-11.4z" transform="translate(186 203)"/><path fill="url(#bA)" d="M11.8 9.4l-7.2 1.1L.3 1.8 7.4.7z" transform="translate(186 203)"/><path fill="#DC00DC" d="M188 208.3l.9 1.8"/><path fill="url(#bB)" d="M.1 2.2v5.7l7.2 8 6.5-2 .1-5.7z" transform="translate(156 283)"/><path fill="url(#bC)" d="M13.9 8.2l-6.6 2-7.2-8 6.6-2z" transform="translate(156 283)"/><path fill="url(#bD)" d="M18.1 4.5L.8 4.7l.1 5.6L15 14.2l3.2-4z" transform="translate(155 270)"/><path fill="url(#bE)" d="M18.1 4.5l-3.3 4-14-3.8L4 .7z" transform="translate(155 270)"/><path fill="url(#bF)" d="M12.5 3L9.3 7l-3-.8 3.3-4z" transform="translate(155 270)"/><path fill="#7DAAFD" d="M35.5 175.6l-6 .4-1.1 15.3 4 1.4 7.1-15.7z"/><path fill="url(#bG)" d="M287.1 162.7l-4 1.3-10.8-11.9 4.1-1.2z" transform="translate(0 39)"/><path fill="#D1DEFB" d="M113.8 154.6l-1.8 2.6-21.4-4.9 1.8-2.6z"/><path fill="url(#bH)" d="M224.7 174.3l-10.3-3.7v5.5l10.3 7.4 5.6-3V175z" transform="translate(0 39)"/><path fill="url(#bI)" d="M214.4 170.6l5.6-3 10.3 7.4-5.6 3z" transform="translate(0 39)"/><path fill="url(#bJ)" d="M33.7 242.3v5.5l-7.2 1.2-4.2-9.2v-5.5z" transform="translate(0 39)"/><path fill="url(#bK)" d="M33.7 242.3l-7.2 1.2-4.2-9.2 7.1-1.2z" transform="translate(0 39)"/><path fill="#468AFB" d="M33.5 177.4l6-.4-1 15.3-6.1.4z"/><path fill="url(#bL)" d="M150.3 241.2l-.1 5.7 5.4 3 10.8-6.5v-5.7z" transform="translate(0 39)"/><path fill="url(#bM)" d="M161.1 234.7l5.3 3-10.8 6.5-5.3-3z" transform="translate(0 39)"/><path fill="#A9C2FB" d="M295.5 228.5l-.1 3.2-11.5-3.4V225z"/><path fill="url(#bN)" d="M196 169.9l-7.1 1.2-.9-1.8 7.1-1.2z" transform="translate(0 39)"/><path fill="#B7CFFE" d="M220.7 214.1l-.1 5.5-2.1-1.6v-5.5z"/><path fill="url(#bO)" d="M218.5 173.5l5.6-3 2.1 1.6-5.5 3z" transform="translate(0 39)"/><path fill="#B7CFFE" d="M188.9 210.1v11.4l-.9-1.8v-11.4zM24.8 278.8v5.6l-.9-1.9.1-5.6z"/><path fill="url(#bP)" d="M24 237.9l7.1-1.2.9 1.9-7.2 1.2z" transform="translate(0 39)"/><path fill="url(#bQ)" d="M38.9 147.2l-6.1.5.3-3.2 6-.4z" transform="translate(0 39)"/><path fill="#B7CFFE" d="M32.8 186.7l-4-1.4.2-3.2 4.1 1.4zm18.4 29.8l-1 5.7-1.1 1.6 1.1-5.7z"/><path fill="url(#bR)" d="M50.2 179.1l-7-2.2 1.1-1.6 6.9 2.2z" transform="translate(0 39)"/><path fill="url(#bS)" d="M70.6 186.4l-7.2.2-.6-1.9 7.2-.2z" transform="translate(0 39)"/><path fill="url(#bT)" d="M89 196.2l-2.2 4.1-3.1-.6 2.2-4.1z" transform="translate(0 39)"/><path fill="url(#bU)" d="M93.2 207.2l3 4-3 .7-3-3.9z" transform="translate(0 39)"/><path fill="url(#bV)" d="M110.6 198.1l-5.2 3-2.3-1.3 5.2-3z" transform="translate(0 39)"/><path fill="url(#bW)" d="M101.4 198.1l-7 1.5-1.1-1.8 7-1.5z" transform="translate(0 39)"/><path fill="url(#bX)" d="M116.9 219.4l7.3.8-.7 1.9-7.2-.8z" transform="translate(0 39)"/><path fill="#B7CFFE" d="M124.2 259.2v5.6l-.7 1.9v-5.6z"/><path fill="url(#bY)" d="M167 249.1l-6.6 1.9-1.5-1.7 6.6-1.9z" transform="translate(0 39)"/><path fill="#B7CFFE" d="M160.4 290v5.7l-1.5-1.7v-5.7zm1.7-10.7v5.7l-2.2 1.3v-5.7z"/><path fill="url(#bZ)" d="M159.9 241.6l-5.4-3 2.3-1.3 5.3 3z" transform="translate(0 39)"/><path fill="#B7CFFE" d="M93.2 255.8l3-.7v-4.9l-3 .7zm105.3-25.1l1.8-1.6v-5.6l-1.8 1.6zm-135.9.4l-.7-1.9.9-5.5.6 1.9zm21.1 13.3l3.1.6v-5.7l-3.1-.6zm9.6-1.8l1.1 1.7v-5.7l-1.1-1.8z"/><path fill="#7AA8FD" d="M112 161l1.8-2.6v-3.8l-1.8 2.6zm171.1 46l4-1.2v-4.1l-4 1.3z"/><path fill="url(#ca)" d="M100.7 109.3c1-.4 7.4-2.8 11.7-3.7 2-.4 3.2-.2 3.4.6.2 1.3-.4 2.4-3.5 4.2-.8.5-4.4 1.9-5.6 2.5 0 0-1.7 1.5-3.9 1.7-4.9.4-3.9-4.5-3.9-4.5s.6-.4 1.8-.8z" transform="translate(0 39)"/><path fill="url(#cb)" d="M106.5 112c1.8-1 6.7-3.9 10.8-4.7 1.9-.4 3.4.3 3.5 1.2.2 1.3-.6 1.9-3.5 3.7-1 .6-4.2 2.7-5.3 3.3 0 0-1.8 1.3-4.4 1.8-4.6.9-2.7-4.1-2.7-4.1s.6-.6 1.6-1.2z" transform="translate(0 39)"/><path fill="url(#cc)" d="M106.3 118.2h5.8l3.6-5.3s-4.9.5-9.1.5c-4.2 0-5.2 4.8-.3 4.8z" transform="translate(0 39)"/><path fill="url(#cd)" d="M98.3 109.9c-.4 1.3-1.9 4.7 1.4 6.5 3.1 1.6 6 1.9 7.6 1.6 1.6-.3 7.9-4.2 7.9-4.2 1.4-1.4 1.4-4.5-.2-5-1.6-.5-2.6-.2-3.5-1.5-.8-1.2-1.4-1.2-1.8-1.2l-11.4 3.8z" transform="translate(0 39)"/><path fill="url(#ce)" d="M111.3 97.4c-.9 1.1-2.2 3-2.8 3.6-3.5 3-3.6-1-2.2-2.1 1.3-1.1 2.7-2 3.9-2.9 1.6-1.1 2.3-.1 1.1 1.4z" transform="translate(0 39)"/><path fill="url(#cf)" d="M109.3 94.7c.5.6 0 .7-.1 5.6 0 1.3-1.5 1.6-1.6 2.5-.1 1.6-.2 3-.2 3.6-.1 1.9 0 3 .2 3.9.2 1.3-.7 2.5-2.1 2.6-3.1.2-7.3-.9-7.2-3 .1-3.2.5-3.1.2-5.7-.6-6.7-.3-12.4 2.6-13.3 0 0 6.8 2.1 8.2 3.8z" transform="translate(0 39)"/><path fill="url(#cg)" d="M109 85.5c.7 1.6-.6 5.1-1.4 5.6-.6.4-1.2.1-1.8.1-.5 0-.5.6-.8.9-.9 1.2-3.1-.1-3-1.1 0-.8.8-6.1 2.2-6.7 1.5-.6 4.3.1 4.8 1.2z" transform="translate(0 39)"/><path fill="url(#ch)" d="M103.9 81.9c-1.5.6-1.5 1.6-3 4.4-1.9 3.5-1.9 4.7-.9 6.4.7 1.3 3.6 3.2 5.7 2 .9-.5 1-2.8 1-4 0-2 .7-3.3 1.6-3.9.8-.6 1.7-1.1 1.6-2.6 0-1.6-3-3.5-6-2.3z" transform="translate(0 39)"/><path fill="url(#ci)" d="M107.4 85.2c.1-1.8-2.1-3.8-3.3-3.4-.7.2-.7.3-.7.3s2.6.3 3.4 3.2c.2.6.6.8.6-.1z" transform="translate(0 39)"/><path fill="url(#cj)" d="M114.2 95.2l-1.4-.3c-.3-.1-.6-.3-.5-.6l1.1-5.4c.1-.3.3-.4.7-.3l1.4.3c.3.1.6.3.6.6l-1.1 5.4c-.2.4-.5.4-.8.3z" transform="translate(0 39)"/><path fill="url(#ck)" d="M114.3 97c-.3-.5-.6-.6-.6-1.6s.5-1.4.6-1.3c.4.2-.2 1.2.2 1.2.3 0 .6-1.4.6-1.4s.6.6.9 1c.2.4.8 1.2.1 2.3-.1.1-.2.2-.2.3-1.4 2.6-1.6-.5-1.6-.5z" transform="translate(0 39)"/><path fill="url(#cl)" d="M110.9 95.6c.3-.2.7.4.8 1 .1.6 1.5-1.7 1.5-2.6 0-.9-.8.3-.9.5-.1.2.2-1.2.2-1.2s-1 .2-1.3 1.2c-.3 1-.3 1.1-.3 1.1z" transform="translate(0 39)"/><path fill="url(#cm)" d="M258.5 167.2s-2.5.2-3.5.3c-.7 0-1.4.1-1.2.5.2.5 3.9 1.5 5.2 1.9 1.3.4 2.2.1 2.2-.6s-.4-2.1-1.3-2.1h-1.4z" transform="translate(0 39)"/><path fill="url(#cn)" d="M260.4 156.2s.1 9.4.2 10.9c.1 1.6-1.5 1.1-2 .1 0 0-1.3-6.4-1.9-11.4l3.7.4z" transform="translate(0 39)"/><path fill="url(#co)" d="M278.3 153.8c1.5.3 2.5-1.1 2.8-1.7.3-.6-1.2-.6-1.8-.3-.6.3-1 2-1 2z" transform="translate(0 39)"/><path fill="url(#cp)" d="M278.7 137c.8 2 1.1 5.5 1.3 7.3.2 1.8-.4 7.6-.6 8.7-.2 1.1-1.4.7-1.6.3-.2-.4.3-6.3-.3-8-.6-1.7-2.1-3.1-2.2-5.1-.1-2 3.4-3.2 3.4-3.2z" transform="translate(0 39)"/><path fill="url(#cq)" d="M292.4 161.1h-19c-2 0-3.7-.5-5-1.2-1.3-.7-2.1-1.8-2.1-2.9 0-2.3 3.2-4.1 7.1-4.1h15.5l6.6 7.3-3.1.9z" transform="translate(0 39)"/><path fill="url(#cr)" d="M258.3 166.5s-1.7-6-1.9-11c-.2-5 .2-5.9 1.1-6.2.7-.3 2.8.1 5.1 1 2.6.9 2.1.8 6.7 2.8l8.1-2.5s1.5 4.1 1.2 5.9c-.3 1.8-5 3.4-7.2 3.7-2.2.3-4.2-.7-5.3-1.4-2.5-1.7-5.8-4-5.8-4s.9 10.9 1 11.7c.1 0-.2 1.3-3 0z" transform="translate(0 39)"/><path fill="url(#cs)" d="M277.3 133.2c-.1-.1-.9-.2-1.4.4-1 1.2-1.9 3.9-1.6 4.4.2.7.7 1.4 1.4 2.2 2.7.3 3.6-2.6 3.6-2.6-.4-1.2-2-4.4-2-4.4z" transform="translate(0 39)"/><path fill="url(#ct)" d="M266.8 135.3c-.7.6-1 .6-.7 2.1.1.7 1.6 1.6 1.7 3.2 0 1.3.5 2.8.6 3.7.1 1.6.1 2.8.1 3.4.1 1.9-.4 4-.4 4.8 0 .6-.2.8.1 1.3.4.5 3.7 1.7 4.4 1.8 3.1.2 5.8-1.1 5.8-3.3-.1-3.2-.6-4.5-.6-7.4.1-4.5.6-9.2-.4-11.6-.4-1.2-1.6-1.3-2.5-1.5-.1 0-6.5 2.1-8.1 3.5z" transform="translate(0 39)"/><path fill="url(#cu)" d="M262.6 140.9c.1-1 .5-4.1.5-6.2 0-1.2-.7-1.4-1.2-.2-.8 1.7-1.9 4.3-2.1 6.6-.1 2.1 2.6 1.7 2.8-.2z" transform="translate(0 39)"/><path fill="url(#cv)" d="M261.7 143c1.3-.2 4-1.7 5.5-2.8.6-.4-.4-3.9-1.2-3.4-1.4 1-4.4 2.8-5.4 3.6-1.5 1.2-.7 2.9 1.1 2.6z" transform="translate(0 39)"/><path fill="url(#cw)" d="M267.1 135c.1-.1.9.1 1.1 1 .3 1.5.1 4.3-.4 4.7-.5.5-1.2 1-2.2 1.4-2.6-.9-2.2-3.9-2.2-3.9.9-1.1 3.7-3.2 3.7-3.2z" transform="translate(0 39)"/><path fill="url(#cx)" d="M268.1 126c-1 1.4-.5 5.1.2 5.7.5.5 1.1.3 1.8.5.5.1.4.7.6 1.1.6 1.4 3 .5 3.2-.5.1-.8.5-6.1-.9-7-1.3-.9-4.2-.8-4.9.2z" transform="translate(0 39)"/><path fill="url(#cy)" d="M271.9 122.7c-1.3-.4-5 0-5 2.8 0 1.5 1 1.9 1.8 2.5.4.3.6 1 .9 1.2.3.2.2-.7.8-.4 1.1.5 0 2.5 2.4 2.6.5 0 1.3 0 1.7-.6 1.2-2 1.4-6.6-1.1-6.9 0 0-.1-.8-1.5-1.2z" transform="translate(0 39)"/><path fill="url(#cz)" d="M270.7 132.9c.8.6 2.8-.2 3.3-1.1 0 0 .1 0 .2.4s-.6 1.4-1.4 1.7c-.9.3-2.4-.1-2.3-.6 0-.4.2-.4.2-.4z" transform="translate(0 39)"/><path fill="url(#cA)" d="M262 132.6l1.4-.3c.3-.1.6-.3.5-.6l-.9-4.8c-.1-.3-.3-.4-.7-.3l-1.4.3c-.3.1-.6.3-.6.6l.9 4.8c.1.3.4.4.8.3z" transform="translate(0 39)"/><path fill="url(#cB)" d="M263.2 134c0-.6-.4-.6-.4-1.7 0-1.2-.4-1.1-.5-1-.2.4 0 1.1-.3 1.2-.7.2-.8-1-.8-1s-.6 1.1-.5 1.6c0 .5 0 1.5 1.1 2 1.7.8 1.4-1.1 1.4-1.1z" transform="translate(0 39)"/><path fill="url(#cC)" d="M115.5 98.4c-.5 1.4-1.1 3.5-1.6 4.3-2.4 3.9-3.7.2-2.8-1.3.9-1.5 1.9-2.7 2.8-4 1.3-1.5 2.2-.8 1.6 1z" transform="translate(0 39)"/><path fill="url(#cD)" d="M110.2 103.3c-1-1.5-2.2-3.6-2.7-5.1-1.9-5.4 1.6-4.7 2.8-2 .9 2 1.9 4.3 2.6 6.1.7 2.4-1.4 3-2.7 1z" transform="translate(0 39)"/><path fill="url(#cE)" d="M107.9 100.6c-.3-.6-1-2-1.3-2.7-1.1-2.2-.2-3.6 1-3.8.8-.2 1.7.4 2.1.9 1 1.6 1.2 2.1 1.4 2.5.2.3.3.6.4.9-.1 0-.9 2.2-3.6 2.2z" transform="translate(0 39)"/><path fill="url(#cF)" d="M72.8 55.3c1.3.7 2.1 1.8 2.1 2.9 0 2.3-3.2 4.1-7.1 4.1H11.2c-2 0-3.7-.5-5-1.2-1.3-.7-2.1-1.8-2.1-2.9 0-2.3 3.2-4.1 7.1-4.1h56.6c1.9 0 3.7.5 5 1.2z" transform="translate(51 248)"/><path fill="#EEF4FB" d="M82.3 255.2l.2-.4 17.8-1.5-1.7 3.6-11.3 2.1-5-3.8"/><path stroke="#7AA8FD" stroke-linecap="round" stroke-linejoin="round" d="M55.9 266.6l35.3-5"/><path fill="url(#cG)" d="M31.3 7.2c6.4 4 18-1.9 18-1.9l5.1 11.8s-11.5 6-18 1.9L31.3 7.2z" transform="translate(51 248)"/><path fill="url(#cH)" d="M7.8 54s2.5.2 3.5.3c.7 0 1.4.1 1.2.5-.2.5-3.9 1.5-5.2 1.9-1.2.3-2.2.1-2.2-.6S5.5 54 6.4 54h1.4z" transform="translate(51 249)"/><path fill="url(#cI)" d="M6.1 43.2s-.1 9.4-.2 10.9c-.1 1.6 1.5 1.1 2 .1 0 0 2.8-13.1 1.9-16.5-1-3.4-3.8 0-3.7 5.5z" transform="translate(51 249)"/><path fill="#349B2C" d="M66.1 278.7c.4 2.1 1.1 8.6.7 12.9-.2 2-.6 2.5-1.5 2.3-1.3-.2-1.6-1.2-2.5-4.7-.3-1.2-1.3-5-1.6-6.3 0 0-1.9-1.4-1.6-4.1.5-4.8 6-2.3 6-2.3s.3 1 .5 2.2z"/><path fill="url(#cJ)" d="M13.8 57.3s2.5.2 3.5.3c.7 0 1.4.1 1.2.5-.2.5-3.9 1.5-5.2 1.9-1.2.3-2.2.1-2.2-.6s.4-2.1 1.3-2.1h1.4z" transform="translate(51 249)"/><path fill="url(#cK)" d="M12.1 46.5s-.1 9.4-.2 10.9c-.1 1.6 1.5 1.1 2 .1 0 0 2.8-13.1 1.9-16.5-1-3.4-3.8-.1-3.7 5.5z" transform="translate(51 249)"/><path fill="url(#cL)" d="M9.3 53.2c-1.2.7-3.6 1.4-3.6.3 0-1.1.3-8.9.4-11.9 0-9.1-1.4-8.4-.9-13.3.5-5 5-.6 5.4.7.4 1.3-.4 10.7-.6 12.9-.2 2.2-.7 11.3-.7 11.3z" transform="translate(51 249)"/><path fill="url(#cM)" d="M15.2 27.6c.3 1.6.8 11.4.8 13.7 0 2.3-.6 14.8-.6 14.8s-3.8 1.9-3.8.2c0-.9 0-8.4.5-12.1.3-2.2-1.7-8.7-2.3-11.1-.8-.3-2.9-1.7-2.4-5.9.7-4.2 7.8.4 7.8.4z" transform="translate(51 249)"/><path fill="url(#cN)" d="M5.1 29.7c.6 1.7 4.1 1.4 7.1.4 3-1 3.4-2.3 3.2-3.2-.2-.9-4.5-15-5.8-16.7C8.3 8.5 2.1 8.4.9 9.3c-1.2.9-.5 3.6.3 5s2 4.3 2.6 7.5c.6 3.2.5 5.6 1.3 7.9z" transform="translate(51 249)"/><path fill="url(#cO)" d="M6.6 1.1c1.3 1.2 1.7 4.8 1.2 5.6-.4.6-1 .6-1.6.9-.4.2-.1 1.1-.2 1.6-.7.8-2.9.8-3.3-.1-.3-.7-1.9-5.8-.9-7C2.9.9 5.7.3 6.6 1.1z" transform="translate(51 249)"/><path fill="url(#cP)" d="M3.5 8.9C2.2 9.2.7 5.7.8 4c.1-1.7 1-3 3.3-3.5C6.5 0 7.5 1.6 7.5 2.8c0 .7-.3.6-.8 1.1-.4.4-.2 1.1-.5 1.3-.3.3-.4-.6-.9-.2-.3.3-.3.6-.3 1 .4 1.1-.5 2.6-1.5 2.9z" transform="translate(51 248)"/><path fill="url(#cQ)" d="M22.1 15.6c1.2-1.1 2.4-.7 3-.5.6.2-.2 1.9-1 2.2-.8.3-1.8.2-2-.1-.2-.3 0-1.6 0-1.6z" transform="translate(51 248)"/><path fill="url(#cR)" d="M7.7 14.7c1.2 1.3 5.5 3.8 7.3 4.2 1.8.4 6.7-.4 7.7-1s-.5-2.9-.5-2.9-6.3.7-6.7.6c-.4-.1-4.9-3.8-6.4-4.7-1.5-.9-3.4 1.5-1.4 3.8z" transform="translate(51 248)"/></g></svg>