<svg width="200" height="46" viewBox="0 0 200 46" fill="none" xmlns="http://www.w3.org/2000/svg"><path d="M171.57 38.1l-.117.06c-.152-.237-.278-.308-.415-.308a.412.412 0 0 0-.41.41v7.33c0 .227.183.408.41.408.222 0 .415-.19.415-.409v-1.938c.47.236.789.298 1.128.298.511 0 .977-.132 1.372-.426.839-.633 1.219-1.687 1.194-2.644-.01-.871-.294-1.672-.862-2.296a2.275 2.275 0 0 0-2.715-.486zm2.631 3.703h-.006c-.259.71-.799 1.352-1.578 1.352-.511 0-.901-.289-1.164-.592v-3.319c.435-.47.789-.618 1.295-.572h.005c.395.04.713.223 1.012.558.278.328.466.75.541 1.215.071.456.036.928-.105 1.358zM72.53 38.1l-.116.06c-.152-.237-.279-.308-.415-.308a.411.411 0 0 0-.41.41v7.33c0 .227.182.408.41.408a.42.42 0 0 0 .415-.409v-1.938c.47.236.79.298 1.129.298.51 0 .976-.132 1.37-.426.84-.633 1.22-1.687 1.194-2.644-.01-.871-.293-1.672-.86-2.296a2.278 2.278 0 0 0-2.717-.486zm2.632 3.703h-.006c-.258.71-.799 1.352-1.578 1.352-.511 0-.9-.289-1.164-.592v-3.319c.435-.47.79-.618 1.295-.572h.005c.395.04.713.223 1.012.558.278.328.465.75.541 1.215.071.456.035.928-.106 1.358zm106.373-3.967c-.147 0-.273.071-.404.294-.456-.233-.835-.309-1.184-.309-.466 0-.901.152-1.306.44-.623.446-1.042 1.15-1.173 2.007-.147.982.106 2.036.667 2.75.486.614 1.129.933 1.867.933.364 0 .683-.076 1.113-.314.146.238.269.304.42.304a.42.42 0 0 0 .415-.41v-5.284a.424.424 0 0 0-.415-.411zm-.41 4.676c-.318.416-.708.608-1.158.608a1.47 1.47 0 0 1-1.053-.446c-.577-.613-.743-1.469-.637-2.228.126-.883.723-1.779 1.649-1.8.436-.01.86.183 1.199.574v3.292zM43.748 40.704c.39-.481.541-1.03.414-1.632-.181-.866-.94-1.175-1.825-1.175h-1.65a.411.411 0 0 0-.41.41v5.172c0 .224.183.411.405.411h1.75c.406 0 .653-.055.942-.157.54-.197.886-.552 1.036-1.074.092-.303.102-.583.051-.927-.056-.36-.237-.643-.713-1.028zm-2.647-1.997h1.255c.421 0 .73.107.896.32.298.375.132.993-.263 1.2-.233.122-.41.127-.744.127h-1.144v-1.647zm2.53 3.744c-.165.517-.753.619-1.209.619h-1.32v-1.976h1.123c.43 0 .982-.01 1.265.355.223.283.213.678.142 1.002zm15.821-4.078c-.95-.805-2.397-.689-3.213.188-.597.648-.9 1.575-.85 2.588.046.856.406 1.708 1.037 2.255.421.365.957.547 1.59.547.622 0 1.082-.112 1.461-.349.314-.198.592-.447.81-.816.157-.268-.056-.598-.349-.598a.439.439 0 0 0-.364.198 1.501 1.501 0 0 1-.406.45c-.717.542-1.86.416-2.418-.273-.373-.466-.496-.953-.541-1.474h3.673c.41 0 .673-.152.632-.557-.075-.826-.445-1.631-1.062-2.159zm-3.198 1.976c.259-.897.76-1.692 1.71-1.692 1.012 0 1.468.805 1.706 1.692h-3.416zm86.627.355c.39-.481.542-1.03.415-1.632-.182-.866-.941-1.175-1.826-1.175h-1.65a.411.411 0 0 0-.41.41v5.172a.41.41 0 0 0 .406.411h1.75c.405 0 .653-.055.941-.157.541-.197.886-.552 1.037-1.074.092-.303.102-.583.051-.927-.055-.36-.237-.643-.714-1.028zm-2.645-1.997h1.255c.419 0 .728.107.895.32.298.375.132.993-.263 1.2-.233.122-.411.127-.744.127h-1.143v-1.647zm2.529 3.744c-.167.517-.754.619-1.209.619h-1.32v-1.976h1.123c.429 0 .981-.01 1.264.355.223.283.213.678.142 1.002zm-91.056-4.615a.408.408 0 0 0-.41.411v2.102h-2.636v-2.102a.412.412 0 0 0-.824 0v5.299c0 .222.187.405.415.405a.41.41 0 0 0 .41-.405v-2.457H51.3v2.457c0 .222.181.405.409.405.228 0 .41-.183.41-.405v-5.299a.408.408 0 0 0-.41-.411zm136.173 2.888c.283-.293.501-.567.532-.983.076-.962-.496-1.606-1.432-1.839-.77-.192-1.574.005-2.1.512a1.71 1.71 0 0 0-.394.628.44.44 0 0 0 .045.4.408.408 0 0 0 .333.172.416.416 0 0 0 .386-.268c.09-.294.378-.557.667-.638.425-.122 1.108-.046 1.457.269a.663.663 0 0 1 .228.657c-.096.472-.531.71-.921.71h-.405a.372.372 0 0 0-.37.37c0 .203.168.37.37.37h.395c.288 0 .566.101.769.264.223.177.349.43.365.709.035.688-.664 1.078-1.255 1.078-.324 0-.644-.09-.932-.273a1.35 1.35 0 0 1-.51-.537.374.374 0 0 0-.238-.198.444.444 0 0 0-.349.046c-.177.1-.233.34-.132.543.254.506.759.876 1.26 1.073.461.173.85.182 1.214.131.663-.085 1.28-.44 1.584-1.017.212-.405.242-.841.101-1.318-.101-.349-.36-.607-.668-.86zm7.112-2.888c-.148 0-.273.071-.405.294-.455-.233-.834-.309-1.183-.309-.466 0-.901.152-1.306.44-.623.446-1.042 1.15-1.173 2.007-.147.982.106 2.036.667 2.75.486.614 1.129.933 1.867.933.365 0 .683-.076 1.113-.314.147.238.268.304.42.304a.42.42 0 0 0 .415-.41v-5.284a.424.424 0 0 0-.415-.411zm-.41 4.676c-.318.416-.708.608-1.158.608a1.47 1.47 0 0 1-1.053-.446c-.576-.613-.744-1.469-.637-2.228.126-.883.724-1.779 1.649-1.8.435-.01.86.183 1.199.574v3.292zm-65.658-4.139c-.952-.805-2.399-.689-3.213.188-.596.648-.901 1.575-.85 2.588.045.856.405 1.708 1.037 2.255.42.365.956.547 1.589.547.622 0 1.083-.112 1.462-.349.313-.198.592-.447.809-.816.157-.268-.056-.598-.349-.598a.438.438 0 0 0-.364.198 1.494 1.494 0 0 1-.404.45c-.718.542-1.863.416-2.419-.273-.374-.466-.496-.953-.541-1.474h3.672c.41 0 .673-.152.633-.557-.076-.826-.445-1.631-1.062-2.159zm-3.198 1.976c.258-.897.759-1.692 1.71-1.692 1.012 0 1.468.805 1.706 1.692h-3.416zm7.638-2.249l-.116.06c-.152-.237-.278-.308-.415-.308a.411.411 0 0 0-.41.41v7.33c0 .227.182.408.41.408a.42.42 0 0 0 .415-.409v-1.938c.47.236.789.298 1.129.298.509 0 .976-.132 1.37-.426.84-.633 1.219-1.687 1.194-2.644-.01-.871-.294-1.672-.86-2.296a2.278 2.278 0 0 0-2.717-.486zm2.632 3.703h-.006c-.258.71-.8 1.352-1.579 1.352-.511 0-.9-.289-1.163-.592v-3.319c.435-.47.789-.618 1.295-.572h.005c.395.04.713.223 1.012.558.278.328.465.75.541 1.215.071.456.036.928-.106 1.358h.001zm20.403-3.905h-2.59a.417.417 0 0 0-.415.415v5.228c0 .233.187.41.415.41.217 0 .41-.187.41-.41v-4.828h2.18c.228 0 .41-.178.41-.4a.41.41 0 0 0-.41-.416zm-7.942-.062c-1.486 0-2.569 1.287-2.569 3.06 0 1.774 1.083 3.055 2.569 3.055 1.488 0 2.571-1.281 2.571-3.055 0-1.773-1.083-3.06-2.571-3.06zm1.235 4.666c-.318.41-.758.639-1.235.639-.475 0-.915-.228-1.234-.639-.318-.405-.496-.977-.496-1.606 0-.628.178-1.196.496-1.611.319-.406.759-.633 1.234-.633.477 0 .917.227 1.235.633.318.415.496.983.496 1.611 0 .629-.178 1.201-.496 1.606zM82.12 37.898h-1.522c-.961 0-1.553.399-1.826 1.23-.112.34-.122.664-.036 1.044.147.623.562.988 1.123 1.206l-1.123 1.965a.405.405 0 0 0 .355.608.4.4 0 0 0 .354-.202l1.335-2.306h.93v2.098c0 .233.188.41.415.41.223 0 .41-.177.41-.41v-5.234a.415.415 0 0 0-.415-.41zm-.41 2.806h-1.244c-.455 0-.845-.264-.926-.639-.176-.8.243-1.342 1.028-1.342h1.143v1.981zm78.806-2.868c-1.488 0-2.57 1.287-2.57 3.06 0 1.774 1.082 3.055 2.57 3.055 1.487 0 2.57-1.281 2.57-3.055 0-1.773-1.083-3.06-2.57-3.06zm1.234 4.666c-.319.41-.758.639-1.234.639s-.916-.228-1.235-.639c-.318-.405-.495-.977-.495-1.606 0-.628.177-1.196.495-1.611.319-.406.759-.633 1.235-.633.476 0 .915.227 1.234.633.32.415.496.983.496 1.611 0 .629-.176 1.201-.496 1.606zm-64.03-4.326l-1.69 4.256-1.695-4.26c-.217-.543-1.017-.391-1.017.196v5.168c0 .218.177.41.395.415a.404.404 0 0 0 .424-.405v-3.673l1.518 3.83c.06.152.217.248.374.248a.388.388 0 0 0 .38-.258l1.518-3.835v3.678c0 .218.177.41.394.415a.405.405 0 0 0 .425-.405v-5.173c0-.592-.808-.744-1.026-.197zm-8.266.197c-.95-.805-2.397-.689-3.211.188-.598.648-.901 1.575-.85 2.588.045.856.404 1.708 1.037 2.255.419.365.955.547 1.588.547.622 0 1.082-.112 1.462-.349.314-.198.592-.447.81-.816.156-.268-.056-.598-.35-.598a.44.44 0 0 0-.364.198 1.477 1.477 0 0 1-.405.45c-.718.542-1.861.416-2.417-.273-.375-.466-.497-.953-.542-1.474h3.673c.41 0 .673-.152.632-.557-.076-.826-.445-1.631-1.063-2.159zm-3.197 1.976c.258-.897.76-1.692 1.71-1.692 1.012 0 1.468.805 1.705 1.692h-3.415zm24.036 1.981c-.268.395-.603.715-1.078.785-.516.076-.991-.056-1.336-.384-.612-.593-.763-1.434-.677-2.2.096-.815.581-1.706 1.406-1.848.334-.057.672 0 .982.156.272.141.515.36.682.618a.453.453 0 0 0 .38.193.378.378 0 0 0 .319-.203.43.43 0 0 0-.021-.435c-.454-.715-1.204-1.176-2.038-1.18a2.23 2.23 0 0 0-1.533.597c-.618.551-.992 1.412-1.013 2.305-.03 1.246.502 2.594 1.665 3.056.339.13.708.181 1.103.151.592-.045.87-.208 1.133-.39a2.35 2.35 0 0 0 .754-.862.41.41 0 0 0-.02-.395c-.167-.268-.567-.227-.708.036zm11.922-4.432h-3.456a.412.412 0 0 0-.41.415v5.233c0 .222.182.405.41.405a.416.416 0 0 0 .409-.405v-4.833h2.637v4.833c0 .222.182.405.41.405a.413.413 0 0 0 .409-.405v-5.233a.419.419 0 0 0-.409-.416zm-53.657 5.171h-.483v-4.762a.411.411 0 0 0-.414-.41h-1.98c-1.046 0-1.547.238-1.547 1.514v2.234c0 .427-.01 1.006-.189 1.424h-.5a.422.422 0 0 0-.413.407c0 .228.188.414.413.414h5.113c.22 0 .413-.192.413-.409a.416.416 0 0 0-.413-.412zm-1.308.01h-2.473c.172-.704.181-1.215.181-2.037v-1.626c0-.627.163-.704.775-.704h1.517v4.367z" fill="#828282"/><path d="M125.018 19.005l-10.058 1.117 7.648-15.354 2.41 14.237zm15.432 7.54l3.989-20.443-16.837 1.894-1.181-6.94-5.827.653-13.975 28.11h3.51l3.277-6.58 12.09-1.343 1.35 7.923 4.438.001-3.18-18.825 11.48-1.284-3.421 17.507c-.335 1.73 1.197 3.24 4.391 2.401l8.68-2.452-.514 2.652h4.153l3.508-17.933-4.254.482-2.303 11.793-9.374 2.384zm18.737-22.041l-9.969 1.062-.603 3.131 9.992-1.068.58-3.125zm27.628-.069l1.609-3.243-28.005 3.23-.577 3.128 9.645-1.175-4.577 23.462h4.153l4.676-23.954 13.076-1.448z" fill="#0E95C0"/><path d="M177.859 27.217c-.336 1.73 1.197 3.241 4.39 2.403l8.675-2.435-.509 2.634h4.153L199 7.103l-4.242.477-3.364 16.608-9.249 2.374 3.504-17.957-4.248.475-3.542 18.137zM16.586 25.4c.83-4.245-1.956-7.686-6.219-7.686-4.264 0-8.392 3.441-9.221 7.686-.829 4.246 1.956 7.687 6.22 7.687 4.263 0 8.392-3.441 9.22-7.687z" fill="#0E95C0"/><path d="M76.626 26.302l-3.6.39 3.136-15.982.748-.09c2.008-.235 4.96-.383 6.65 1.755 1.549 1.815 1.095 4.23.686 6.099-.41 1.869-1.095 7.093-7.62 7.828zm-19.653-7.35l-10.184 1.14L54.57 4.75l2.404 14.202zm54.884-9.2l-24.103 2.689c-.32-.872-1.908-5.847-10.538-4.88L59.736 9.53 58.295 1l-5.7.645L38.579 29.82h3.524l3.129-6.6 12.234-1.341 1.344 7.94h4.353l-2.928-17.331 11.67-1.306-4.817 24.676 4.247-.48 1.08-5.555 4.194-.47c4.498-.492 9.503-2.188 11.143-10.582.367-1.88.427-3.312.427-3.312l9.418-1.046-3.012 15.427h4.152l3.115-15.908 8.379-.934 1.626-3.245zM21.865 5.391c-6.586 0-12.97 5.046-14.756 11.465a10.276 10.276 0 0 1 3.553-.656c5.104 0 8.437 4.12 7.445 9.2-.355 1.82-1.219 3.514-2.413 4.943.419.043.848.066 1.287.066 6.938 0 13.656-5.6 15.005-12.51 1.35-6.908-3.182-12.508-10.121-12.508z" fill="#CE2635"/></svg>