<svg width="50" height="52" viewBox="0 0 50 52" fill="none" xmlns="http://www.w3.org/2000/svg"><path fill-rule="evenodd" clip-rule="evenodd" d="M21.027 50.625l.189-6.24 5.997.181-.188 6.24-5.997-.181zm7.217-7.068l.188-6.24 5.997.182-.188 6.24-5.997-.182zm14.621-20.376l-.188 6.24 5.997.18.188-6.239-5.997-.18zM22.345 6.95l5.998.18.187-6.24-5.996-.18-.188 6.239zM35.9 21.93l5.997.181.188-6.24-5.997-.18-.188 6.24zm-.44 14.559l.189-6.24 5.997.181-.188 6.24-5.997-.181zm-6.337-22.05l5.997.182.188-6.24-5.997-.18-.188 6.239zm6.745 8.531l-.188 6.24 5.997.18.189-6.239-5.998-.18zM14.69 28.576l.188-6.24 5.997.181-.188 6.24-5.997-.181zm13.993.422l5.998.181.188-6.239-5.997-.18-.189 6.238zm-6.997-.21l.189-6.24 5.997.181-.188 6.24-5.998-.181zM7.881 22.125l-.188 6.24 5.997.18.188-6.239-5.997-.18zm-1.188 6.21l-5.997-.181.188-6.24 5.998.181-.189 6.24z" fill="#F2F2F2"/></svg>