<svg width="50" height="45" viewBox="0 0 50 45" fill="none" xmlns="http://www.w3.org/2000/svg"><path d="M24.96 32.042c1.326-6.798-3.133-12.309-9.96-12.309-6.828 0-13.439 5.511-14.766 12.309-1.327 6.798 3.132 12.309 9.959 12.309 6.828 0 13.439-5.51 14.766-12.309z" fill="#0E95C0"/><path d="M33.411 0C22.866 0 12.644 8.08 9.783 18.36c1.828-.675 3.752-1.05 5.69-1.05 8.172 0 13.51 6.596 11.921 14.733-.569 2.913-1.952 5.626-3.864 7.913.67.07 1.357.107 2.06.107 11.112 0 21.869-8.969 24.03-20.032C51.78 8.967 44.523 0 33.41 0z" fill="#CE2635"/></svg>