<svg width="16" height="16" viewBox="0 0 16 16" fill="none" xmlns="http://www.w3.org/2000/svg"><path d="M15.966 12.397c-.045-.136-.333-.337-.864-.602a26.173 26.173 0 0 0-.613-.341 58.136 58.136 0 0 1-.722-.398 24.117 24.117 0 0 1-.608-.352c-.03-.023-.125-.089-.284-.199a3.199 3.199 0 0 0-.403-.244.744.744 0 0 0-.324-.08c-.152 0-.341.108-.568.324-.227.216-.436.45-.625.705-.19.254-.39.488-.602.704-.212.216-.387.324-.523.324a.77.77 0 0 1-.256-.057 2.621 2.621 0 0 1-.233-.096 4.248 4.248 0 0 1-.272-.16 7.1 7.1 0 0 0-.216-.13c-1.038-.576-1.928-1.235-2.671-1.977-.742-.743-1.402-1.633-1.977-2.67a6.588 6.588 0 0 0-.131-.217 4.1 4.1 0 0 1-.16-.272 2.46 2.46 0 0 1-.096-.233.769.769 0 0 1-.057-.256c0-.136.108-.31.324-.523a6.8 6.8 0 0 1 .705-.602 5.53 5.53 0 0 0 .704-.625c.216-.227.324-.416.324-.568a.742.742 0 0 0-.08-.324 3.16 3.16 0 0 0-.244-.403 14.96 14.96 0 0 0-.198-.284 26.83 26.83 0 0 1-.353-.608 57.422 57.422 0 0 1-.398-.722c-.143-.265-.257-.47-.34-.613-.265-.53-.466-.819-.603-.864A.636.636 0 0 0 3.364 0a3.73 3.73 0 0 0-.801.114 4.5 4.5 0 0 0-.779.238c-.379.16-.78.621-1.204 1.386C.193 2.45 0 3.155 0 3.852a4.327 4.327 0 0 0 .182 1.25c.068.242.123.422.165.54.041.117.119.327.233.63.113.303.181.489.204.557.265.743.58 1.405.943 1.989.598.97 1.415 1.971 2.449 3.005 1.034 1.034 2.036 1.85 3.006 2.45.583.363 1.246.677 1.989.943.068.022.253.09.556.204.303.114.514.191.63.233.118.042.298.097.54.165.243.068.461.116.654.142.193.026.392.04.597.04.697 0 1.401-.193 2.114-.58.764-.424 1.226-.825 1.386-1.204.083-.19.162-.449.238-.779a3.74 3.74 0 0 0 .114-.8.635.635 0 0 0-.034-.24z" fill="#828282"/></svg>