<svg width="1249" height="505" viewBox="0 0 1249 505" fill="none" xmlns="http://www.w3.org/2000/svg"><path d="M144.914 12.538c0 1.572-.546 2.796-1.638 3.672-1.092.876-2.388 1.326-3.888 1.35V19h-2.25v-1.44a7.143 7.143 0 0 1-2.646-.558c-.816-.36-1.5-.924-2.052-1.692-.552-.78-.828-1.704-.828-2.772 0-1.56.528-2.79 1.584-3.69 1.068-.9 2.382-1.374 3.942-1.422V6.184h2.25v1.242c1.584.06 2.898.54 3.942 1.44 1.056.888 1.584 2.112 1.584 3.672zm-2.25 0c0-1.884-1.092-2.94-3.276-3.168v6.246c1.056-.132 1.866-.432 2.43-.9.564-.468.846-1.194.846-2.178zm-5.526 3.078V9.37c-2.184.228-3.276 1.284-3.276 3.168 0 .984.282 1.71.846 2.178.564.468 1.374.768 2.43.9zm15.258-9.738c1.812 0 3.282.624 4.41 1.872 1.14 1.236 1.71 2.85 1.71 4.842 0 1.992-.57 3.612-1.71 4.86-1.14 1.236-2.622 1.854-4.446 1.854-1.836 0-3.324-.618-4.464-1.854-1.128-1.236-1.692-2.856-1.692-4.86 0-1.944.552-3.546 1.656-4.806 1.116-1.272 2.628-1.908 4.536-1.908zm-.036 1.89c-1.176 0-2.118.438-2.826 1.314-.708.864-1.062 2.022-1.062 3.474 0 1.488.348 2.67 1.044 3.546.708.876 1.668 1.314 2.88 1.314 1.164 0 2.094-.438 2.79-1.314.708-.888 1.062-2.064 1.062-3.528s-.354-2.628-1.062-3.492c-.696-.876-1.638-1.314-2.826-1.314zm8.221-1.584h5.562c1.38 0 2.466.33 3.258.99.804.648 1.206 1.62 1.206 2.916 0 1.224-.372 2.196-1.116 2.916-.744.708-1.758 1.062-3.042 1.062h-3.618V19h-2.25V6.184zm2.25 1.872v4.194h3.132c1.632 0 2.448-.702 2.448-2.106 0-1.392-.882-2.088-2.646-2.088h-2.934zm23.04-1.872V19h-2.142V9.118L180.165 19h-1.836l-3.654-9.882V19h-2.124V6.184h3.15l3.582 10.026 3.456-10.026h3.132zM188.511 19V6.184h2.25v9.828l5.508-9.828h2.61V19h-2.25V9.172L191.121 19h-2.61zm13.063-12.816h5.562c1.38 0 2.466.33 3.258.99.804.648 1.206 1.62 1.206 2.916 0 1.224-.372 2.196-1.116 2.916-.744.708-1.758 1.062-3.042 1.062h-3.618V19h-2.25V6.184zm2.25 1.872v4.194h3.132c1.632 0 2.448-.702 2.448-2.106 0-1.392-.882-2.088-2.646-2.088h-2.934zm15.245-2.178c1.812 0 3.282.624 4.41 1.872 1.14 1.236 1.71 2.85 1.71 4.842 0 1.992-.57 3.612-1.71 4.86-1.14 1.236-2.622 1.854-4.446 1.854-1.836 0-3.324-.618-4.464-1.854-1.128-1.236-1.692-2.856-1.692-4.86 0-1.944.552-3.546 1.656-4.806 1.116-1.272 2.628-1.908 4.536-1.908zm-.036 1.89c-1.176 0-2.118.438-2.826 1.314-.708.864-1.062 2.022-1.062 3.474 0 1.488.348 2.67 1.044 3.546.708.876 1.668 1.314 2.88 1.314 1.164 0 2.094-.438 2.79-1.314.708-.888 1.062-2.064 1.062-3.528s-.354-2.628-1.062-3.492c-.696-.876-1.638-1.314-2.826-1.314zm8.168-1.584h5.85c1.344 0 2.37.294 3.078.882.72.576 1.08 1.356 1.08 2.34a2.87 2.87 0 0 1-.504 1.656c-.336.48-.78.828-1.332 1.044.744.18 1.332.54 1.764 1.08.432.54.648 1.218.648 2.034 0 1.128-.378 2.04-1.134 2.736-.744.696-1.716 1.044-2.916 1.044h-6.534V6.184zm2.196 1.818v3.528h3.06c.864 0 1.5-.132 1.908-.396.408-.276.612-.732.612-1.368 0-.72-.216-1.194-.648-1.422-.42-.228-1.02-.342-1.8-.342h-3.132zm0 5.148v4.014h3.366c.864 0 1.542-.144 2.034-.432.492-.288.738-.81.738-1.566 0-.42-.078-.768-.234-1.044a1.323 1.323 0 0 0-.648-.63 3.144 3.144 0 0 0-.864-.27 6.816 6.816 0 0 0-1.062-.072h-3.33zm16.346-6.984L250.693 19h-2.412l-1.224-3.402h-5.076L240.721 19h-2.322l4.95-12.834h2.394zm.72 7.74l-1.908-5.4-1.998 5.4h3.906zm15.768-7.722V19h-2.25v-5.76h-5.868V19h-2.25V6.184h2.25v5.094h5.868V6.184h2.25zM264.853 19V6.184h2.25v9.828l5.508-9.828h2.61V19h-2.25V9.172L267.463 19h-2.61zm22.242-12.816v1.89h-7.002v3.402h6.498v1.818h-6.498v3.78h7.11V19h-9.342V6.184h9.234zm18.58 16.002h-2.178V19h-8.352v3.186h-2.178v-5.13h1.242c.492-.864.894-2.124 1.206-3.78.312-1.656.468-3.36.468-5.112v-1.98h8.352v10.872h1.44v5.13zm-3.69-5.13V8.128h-3.906v.774c0 1.548-.144 3.09-.432 4.626-.276 1.524-.618 2.7-1.026 3.528h5.364zm10.758-11.178c1.812 0 3.282.624 4.41 1.872 1.14 1.236 1.71 2.85 1.71 4.842 0 1.992-.57 3.612-1.71 4.86-1.14 1.236-2.622 1.854-4.446 1.854-1.836 0-3.324-.618-4.464-1.854-1.128-1.236-1.692-2.856-1.692-4.86 0-1.944.552-3.546 1.656-4.806 1.116-1.272 2.628-1.908 4.536-1.908zm-.036 1.89c-1.176 0-2.118.438-2.826 1.314-.708.864-1.062 2.022-1.062 3.474 0 1.488.348 2.67 1.044 3.546.708.876 1.668 1.314 2.88 1.314 1.164 0 2.094-.438 2.79-1.314.708-.888 1.062-2.064 1.062-3.528s-.354-2.628-1.062-3.492c-.696-.876-1.638-1.314-2.826-1.314zm8.222-1.584h5.562c1.38 0 2.466.33 3.258.99.804.648 1.206 1.62 1.206 2.916 0 1.224-.372 2.196-1.116 2.916-.744.708-1.758 1.062-3.042 1.062h-3.618V19h-2.25V6.184zm2.25 1.872v4.194h3.132c1.632 0 2.448-.702 2.448-2.106 0-1.392-.882-2.088-2.646-2.088h-2.934zm15.246-2.178c1.812 0 3.282.624 4.41 1.872 1.14 1.236 1.71 2.85 1.71 4.842 0 1.992-.57 3.612-1.71 4.86-1.14 1.236-2.622 1.854-4.446 1.854-1.836 0-3.324-.618-4.464-1.854-1.128-1.236-1.692-2.856-1.692-4.86 0-1.944.552-3.546 1.656-4.806 1.116-1.272 2.628-1.908 4.536-1.908zm-.036 1.89c-1.176 0-2.118.438-2.826 1.314-.708.864-1.062 2.022-1.062 3.474 0 1.488.348 2.67 1.044 3.546.708.876 1.668 1.314 2.88 1.314 1.164 0 2.094-.438 2.79-1.314.708-.888 1.062-2.064 1.062-3.528s-.354-2.628-1.062-3.492c-.696-.876-1.638-1.314-2.826-1.314zm13.395 5.472L347.59 19h-2.808l5.544-7.38-4.932-5.436h2.772l5.004 5.76v-5.76h2.25v5.76l5.004-5.76h2.772l-4.932 5.436 5.544 7.38H361l-4.194-5.76-1.386 1.548V19h-2.25v-4.212l-1.386-1.548zm23.58-7.056V19h-2.25v-5.76h-5.868V19h-2.25V6.184h2.25v5.094h5.868V6.184h2.25zm8.184-.306c1.812 0 3.282.624 4.41 1.872 1.14 1.236 1.71 2.85 1.71 4.842 0 1.992-.57 3.612-1.71 4.86-1.14 1.236-2.622 1.854-4.446 1.854-1.836 0-3.324-.618-4.464-1.854-1.128-1.236-1.692-2.856-1.692-4.86 0-1.944.552-3.546 1.656-4.806 1.116-1.272 2.628-1.908 4.536-1.908zm-.036 1.89c-1.176 0-2.118.438-2.826 1.314-.708.864-1.062 2.022-1.062 3.474 0 1.488.348 2.67 1.044 3.546.708.876 1.668 1.314 2.88 1.314 1.164 0 2.094-.438 2.79-1.314.708-.888 1.062-2.064 1.062-3.528s-.354-2.628-1.062-3.492c-.696-.876-1.638-1.314-2.826-1.314zm16.286-4.824c-.096.864-.384 1.506-.864 1.926-.48.408-1.176.612-2.088.612-.912 0-1.608-.204-2.088-.612-.48-.42-.768-1.062-.864-1.926h1.044c.228.912.864 1.368 1.908 1.368s1.68-.456 1.908-1.368h1.044zM391.662 19V6.184h2.25v9.828l5.508-9.828h2.61V19h-2.25V9.172L394.272 19h-2.61zm-248.584 9.184l-5.13 5.112L143.402 41h-2.79l-4.212-6.138-1.836 1.836V41h-2.232V28.184h2.232v5.814l5.67-5.814h2.844zm7.444-.018L155.472 41h-2.412l-1.224-3.402h-5.076L145.5 41h-2.322l4.95-12.834h2.394zm.72 7.74l-1.908-5.4-1.998 5.4h3.906zm5.472-7.722h5.562c1.38 0 2.466.33 3.258.99.804.648 1.206 1.62 1.206 2.916 0 1.224-.372 2.196-1.116 2.916-.744.708-1.758 1.062-3.042 1.062h-3.618V41h-2.25V28.184zm2.25 1.872v4.194h3.132c1.632 0 2.448-.702 2.448-2.106 0-1.392-.882-2.088-2.646-2.088h-2.934zm18.918-1.872v1.944h-4.086V41h-2.25V30.128h-4.086v-1.944h10.422zm11.174 8.838c0 1.272-.384 2.256-1.152 2.952-.756.684-1.83 1.026-3.222 1.026h-5.31V28.184h2.25v4.896h3.06c1.404 0 2.484.342 3.24 1.026.756.684 1.134 1.656 1.134 2.916zm-2.25.054c0-.672-.198-1.2-.594-1.584-.396-.384-.948-.576-1.656-.576h-2.934v4.248h2.97c1.476 0 2.214-.696 2.214-2.088zm3.762-8.892h2.25V41h-2.25V28.184zm7.299 10.386v1.836c0 .936-.18 1.686-.54 2.25-.36.576-.996.966-1.908 1.17v-1.08c.744-.228 1.134-.81 1.17-1.746h-1.17v-2.43h2.448zm17.975-10.386V41h-2.25V30.128h-5.868V41h-2.25V28.184h10.368zm2.694 0h5.562c1.38 0 2.466.33 3.258.99.804.648 1.206 1.62 1.206 2.916 0 1.224-.372 2.196-1.116 2.916-.744.708-1.758 1.062-3.042 1.062h-3.618V41h-2.25V28.184zm2.25 1.872v4.194h3.132c1.632 0 2.448-.702 2.448-2.106 0-1.392-.882-2.088-2.646-2.088h-2.934zm15.246-2.178c1.812 0 3.282.624 4.41 1.872 1.14 1.236 1.71 2.85 1.71 4.842 0 1.992-.57 3.612-1.71 4.86-1.14 1.236-2.622 1.854-4.446 1.854-1.836 0-3.324-.618-4.464-1.854-1.128-1.236-1.692-2.856-1.692-4.86 0-1.944.552-3.546 1.656-4.806 1.116-1.272 2.628-1.908 4.536-1.908zm-.036 1.89c-1.176 0-2.118.438-2.826 1.314-.708.864-1.062 2.022-1.062 3.474 0 1.488.348 2.67 1.044 3.546.708.876 1.668 1.314 2.88 1.314 1.164 0 2.094-.438 2.79-1.314.708-.888 1.062-2.064 1.062-3.528s-.354-2.628-1.062-3.492c-.696-.876-1.638-1.314-2.826-1.314zm17.402-1.584v1.89h-7.002v3.402h6.498v1.818h-6.498v3.78h7.11V41h-9.342V28.184h9.234zm12.85 0l-5.13 5.112L266.572 41h-2.79l-4.212-6.138-1.836 1.836V41h-2.232V28.184h2.232v5.814l5.67-5.814h2.844zm10.792 0v1.944h-4.086V41h-2.25V30.128h-4.086v-1.944h10.422zM278.476 41V28.184h2.25v9.828l5.508-9.828h2.61V41h-2.25v-9.828L281.086 41h-2.61zm13.062-12.816h5.562c1.38 0 2.466.33 3.258.99.804.648 1.206 1.62 1.206 2.916 0 1.224-.372 2.196-1.116 2.916-.744.708-1.758 1.062-3.042 1.062h-3.618V41h-2.25V28.184zm2.25 1.872v4.194h3.132c1.632 0 2.448-.702 2.448-2.106 0-1.392-.882-2.088-2.646-2.088h-2.934zm15.246-2.178c1.812 0 3.282.624 4.41 1.872 1.14 1.236 1.71 2.85 1.71 4.842 0 1.992-.57 3.612-1.71 4.86-1.14 1.236-2.622 1.854-4.446 1.854-1.836 0-3.324-.618-4.464-1.854-1.128-1.236-1.692-2.856-1.692-4.86 0-1.944.552-3.546 1.656-4.806 1.116-1.272 2.628-1.908 4.536-1.908zm-.036 1.89c-1.176 0-2.118.438-2.826 1.314-.708.864-1.062 2.022-1.062 3.474 0 1.488.348 2.67 1.044 3.546.708.876 1.668 1.314 2.88 1.314 1.164 0 2.094-.438 2.79-1.314.708-.888 1.062-2.064 1.062-3.528s-.354-2.628-1.062-3.492c-.696-.876-1.638-1.314-2.826-1.314zm8.168-1.584h5.85c1.344 0 2.37.294 3.078.882.72.576 1.08 1.356 1.08 2.34a2.87 2.87 0 0 1-.504 1.656c-.336.48-.78.828-1.332 1.044.744.18 1.332.54 1.764 1.08.432.54.648 1.218.648 2.034 0 1.128-.378 2.04-1.134 2.736-.744.696-1.716 1.044-2.916 1.044h-6.534V28.184zm2.196 1.818v3.528h3.06c.864 0 1.5-.132 1.908-.396.408-.276.612-.732.612-1.368 0-.72-.216-1.194-.648-1.422-.42-.228-1.02-.342-1.8-.342h-3.132zm0 5.148v4.014h3.366c.864 0 1.542-.144 2.034-.432.492-.288.738-.81.738-1.566 0-.42-.078-.768-.234-1.044a1.323 1.323 0 0 0-.648-.63 3.144 3.144 0 0 0-.864-.27 6.816 6.816 0 0 0-1.062-.072h-3.33zm16.346-6.984L340.658 41h-2.412l-1.224-3.402h-5.076L330.686 41h-2.322l4.95-12.834h2.394zm.72 7.74l-1.908-5.4-1.998 5.4h3.906zm15.768-7.722V41h-2.25v-5.76h-5.868V41h-2.25V28.184h2.25v5.094h5.868v-5.094h2.25zM354.818 41V28.184h2.25v9.828l5.508-9.828h2.61V41h-2.25v-9.828L357.428 41h-2.61zm22.242-12.816v1.89h-7.002v3.402h6.498v1.818h-6.498v3.78h7.11V41h-9.342V28.184h9.234zm-244.674 22h5.562c1.38 0 2.466.33 3.258.99.804.648 1.206 1.62 1.206 2.916 0 1.224-.372 2.196-1.116 2.916-.744.708-1.758 1.062-3.042 1.062h-3.618V63h-2.25V50.184zm2.25 1.872v4.194h3.132c1.632 0 2.448-.702 2.448-2.106 0-1.392-.882-2.088-2.646-2.088h-2.934zm18.936-1.872v1.89h-7.002v3.402h6.498v1.818h-6.498v3.78h7.11V63h-9.342V50.184h9.234zM155.658 63V50.184h2.25v10.872h4.968V50.184h2.25v10.872h4.968V50.184h2.25V63h-16.686zm28.57-12.816v1.89h-7.002v3.402h6.498v1.818h-6.498v3.78h7.11V63h-9.342V50.184h9.234zm12.454 0V63h-2.25v-5.76h-5.868V63h-2.25V50.184h2.25v5.094h5.868v-5.094h2.25zM199.304 63V50.184h2.25v9.828l5.508-9.828h2.61V63h-2.25v-9.828L201.914 63h-2.61zm22.692 0h-2.25v-5.292h-2.556L213.554 63h-2.808l3.942-5.508c-1.056-.324-1.782-.804-2.178-1.44-.396-.636-.594-1.41-.594-2.322 0-1.08.372-1.938 1.116-2.574.744-.648 1.788-.972 3.132-.972h5.832V63zm-2.25-7.002V52.02h-3.348c-.768 0-1.332.156-1.692.468-.36.3-.54.78-.54 1.44 0 1.38.732 2.07 2.196 2.07h3.384zm724.682-43.46c0 1.584-.54 2.802-1.62 3.654-1.08.84-2.406 1.26-3.978 1.26V19h-1.692v-1.548c-1.56 0-2.886-.432-3.978-1.296-1.08-.864-1.62-2.07-1.62-3.618s.546-2.766 1.638-3.654c1.092-.9 2.412-1.35 3.96-1.35v-1.35h1.692v1.35c1.572 0 2.898.444 3.978 1.332 1.08.888 1.62 2.112 1.62 3.672zm-1.71 0c0-1.14-.36-2.01-1.08-2.61-.708-.612-1.644-.948-2.808-1.008v7.146c1.188-.084 2.13-.408 2.826-.972.708-.576 1.062-1.428 1.062-2.556zm-5.58 3.528V8.92c-1.164.06-2.106.396-2.826 1.008-.708.6-1.062 1.47-1.062 2.61 0 1.128.348 1.98 1.044 2.556.708.564 1.656.888 2.844.972zm12.534-.414l-4.68-9.468h1.854l3.744 7.812 3.672-7.812h1.818l-4.986 10.206c-.516 1.056-1.05 1.806-1.602 2.25-.54.444-1.14.666-1.8.666a3.816 3.816 0 0 1-1.584-.324v-1.44c.348.216.828.324 1.44.324.708 0 1.344-.588 1.908-1.764l.216-.45zm17.916-9.468V19h-1.692v-5.994h-6.768V19h-1.692V6.184h1.692v5.346h6.768V6.184h1.692zm13.242 0l-5.4 5.148L981.046 19h-2.16l-4.644-6.516-2.124 2.016V19h-1.692V6.184h1.692v6.354l6.498-6.354h2.214zm11.268 16.002V19h-9.774V6.184h1.692v11.34h6.624V6.184h1.692v11.34h1.404v4.662h-1.638zM995.422 19V6.184h1.692v10.854h.036l6.28-10.854h2.14V19h-1.69V8.11h-.03L997.546 19h-2.124zm18.388-13.122c1.95 0 3.46.612 4.54 1.836 1.08 1.212 1.62 2.802 1.62 4.77 0 1.98-.54 3.612-1.6 4.896-1.07 1.284-2.58 1.926-4.54 1.926-1 0-1.89-.18-2.68-.54a5.238 5.238 0 0 1-1.95-1.494 7.043 7.043 0 0 1-1.13-2.178 8.99 8.99 0 0 1-.38-2.646c0-2.004.55-3.6 1.66-4.788 1.11-1.188 2.6-1.782 4.46-1.782zm0 1.476c-1.43 0-2.52.504-3.29 1.512-.76.996-1.14 2.232-1.14 3.708 0 1.608.41 2.892 1.21 3.852.82.948 1.9 1.422 3.26 1.422 1.34 0 2.42-.48 3.22-1.44.8-.96 1.21-2.238 1.21-3.834 0-1.584-.41-2.85-1.23-3.798-.8-.948-1.88-1.422-3.24-1.422zm18.43-1.17V19h-1.69v-5.994h-6.77V19h-1.69V6.184h1.69v5.346h6.77V6.184h1.69zm8.22 0l5 12.816h-1.89l-1.42-3.924h-5.38L1035.31 19h-1.8l5.04-12.816h1.91zm1.19 7.542l-2.18-5.922-2.21 5.922h4.39zm14.55-7.542V19h-1.69V7.66h-4.74l-.25 7.218c-.05 1.344-.32 2.412-.83 3.204-.49.792-1.2 1.188-2.14 1.188-.38 0-.79-.084-1.22-.252v-1.44c.19.12.5.18.92.18.34 0 .62-.078.82-.234.22-.168.41-.54.56-1.116.17-.576.27-1.38.29-2.412l.23-7.812h8.05zm12.43 9.018c0 1.2-.35 2.136-1.04 2.808-.69.66-1.65.99-2.9.99h-5.62V6.184h1.69v5.202h3.93c1.26 0 2.23.336 2.91 1.008.69.66 1.03 1.596 1.03 2.808zm-1.71 0c0-1.572-.94-2.358-2.81-2.358h-3.35v4.68h3.35c1.87 0 2.81-.774 2.81-2.322zm13.98-9.018V19h-1.7v-5.994h-6.76V19h-1.7V6.184h1.7v5.346h6.76V6.184h1.7zm8.23-.306c1.95 0 3.46.612 4.54 1.836 1.08 1.212 1.62 2.802 1.62 4.77 0 1.98-.53 3.612-1.6 4.896-1.07 1.284-2.58 1.926-4.54 1.926-.99 0-1.89-.18-2.68-.54-.79-.36-1.44-.858-1.94-1.494s-.87-1.362-1.14-2.178a8.99 8.99 0 0 1-.38-2.646c0-2.004.56-3.6 1.66-4.788 1.12-1.188 2.6-1.782 4.46-1.782zm0 1.476c-1.42 0-2.52.504-3.29 1.512-.76.996-1.13 2.232-1.13 3.708 0 1.608.4 2.892 1.2 3.852.82.948 1.9 1.422 3.26 1.422 1.34 0 2.42-.48 3.22-1.44.81-.96 1.21-2.238 1.21-3.834 0-1.584-.41-2.85-1.23-3.798-.8-.948-1.88-1.422-3.24-1.422zm17.15-1.17V7.66h-7.18v4.014h6.72v1.422h-6.72v4.428h7.27V19h-8.96V6.184h8.87zm-173.84 22h2.34l4.122 10.854 3.978-10.854h2.358V41h-1.602V30.308L939.622 41h-1.476l-4.086-10.692V41h-1.62V28.184zm21.062-.306c1.944 0 3.456.612 4.536 1.836 1.08 1.212 1.62 2.802 1.62 4.77 0 1.98-.534 3.612-1.602 4.896-1.068 1.284-2.58 1.926-4.536 1.926-.996 0-1.89-.18-2.682-.54a5.154 5.154 0 0 1-1.944-1.494 7.095 7.095 0 0 1-1.134-2.178 8.925 8.925 0 0 1-.378-2.646c0-2.004.552-3.6 1.656-4.788 1.116-1.188 2.604-1.782 4.464-1.782zm0 1.476c-1.428 0-2.526.504-3.294 1.512-.756.996-1.134 2.232-1.134 3.708 0 1.608.402 2.892 1.206 3.852.816.948 1.902 1.422 3.258 1.422 1.344 0 2.418-.48 3.222-1.44.804-.96 1.206-2.238 1.206-3.834 0-1.584-.408-2.85-1.224-3.798-.804-.948-1.884-1.422-3.24-1.422zm19.561 14.832h-1.638V41h-9.27v3.186h-1.638v-4.662h1.26c.492-.876.894-2.13 1.206-3.762.312-1.644.468-3.342.468-5.094v-2.484h8.19v11.34h1.422v4.662zm-3.114-4.662V29.66h-4.842v1.746c0 1.548-.144 3.084-.432 4.608-.276 1.512-.618 2.682-1.026 3.51h6.3zm13.693-11.34v1.476h-7.182v4.014h6.714v1.422h-6.714v4.428h7.272V41h-8.964V28.184h8.874zm11.58 0V41h-1.692V29.66h-4.734l-.252 7.218c-.048 1.344-.324 2.412-.828 3.204-.492.792-1.206 1.188-2.142 1.188-.384 0-.792-.084-1.224-.252v-1.44c.192.12.498.18.918.18.348 0 .624-.078.828-.234.216-.168.402-.54.558-1.116.168-.576.264-1.38.288-2.412l.234-7.812h8.046zM998.094 41V28.184h1.692v10.854h.036l6.278-10.854h2.15V41h-1.7V30.11h-.03l-6.3 10.89h-2.126zm13.066-12.816h5.27c1.31 0 2.35.3 3.11.9.77.588 1.16 1.518 1.16 2.79 0 2.58-1.46 3.87-4.38 3.87h-3.47V41h-1.69V28.184zm1.69 1.458v4.68h3.26c.91 0 1.62-.168 2.12-.504.52-.348.77-.96.77-1.836 0-.492-.08-.9-.25-1.224a1.493 1.493 0 0 0-.7-.72 3.183 3.183 0 0 0-.97-.306c-.34-.06-.74-.09-1.21-.09h-3.02zm15.31-1.764c1.94 0 3.45.612 4.53 1.836 1.08 1.212 1.62 2.802 1.62 4.77 0 1.98-.53 3.612-1.6 4.896-1.07 1.284-2.58 1.926-4.54 1.926-.99 0-1.89-.18-2.68-.54-.79-.36-1.44-.858-1.94-1.494a7.286 7.286 0 0 1-1.14-2.178c-.25-.816-.37-1.698-.37-2.646 0-2.004.55-3.6 1.65-4.788 1.12-1.188 2.61-1.782 4.47-1.782zm0 1.476c-1.43 0-2.53.504-3.3 1.512-.75.996-1.13 2.232-1.13 3.708 0 1.608.4 2.892 1.2 3.852.82.948 1.91 1.422 3.26 1.422 1.35 0 2.42-.48 3.22-1.44.81-.96 1.21-2.238 1.21-3.834 0-1.584-.41-2.85-1.22-3.798s-1.89-1.422-3.24-1.422zm8.27-1.17h5.47c1.18 0 2.15.258 2.92.774.78.516 1.17 1.326 1.17 2.43 0 .636-.17 1.206-.52 1.71-.34.492-.79.84-1.37 1.044.79.18 1.4.552 1.82 1.116.43.564.65 1.272.65 2.124 0 2.412-1.62 3.618-4.86 3.618h-5.28V28.184zm1.66 1.44v4.05h3.04c.35 0 .64-.006.88-.018.25-.024.54-.072.85-.144.31-.072.56-.174.74-.306.19-.144.35-.348.48-.612.15-.264.22-.582.22-.954s-.06-.684-.18-.936a1.641 1.641 0 0 0-.43-.594c-.17-.144-.41-.252-.71-.324a4.03 4.03 0 0 0-.79-.126 9.027 9.027 0 0 0-.9-.036h-3.2zm0 5.382v4.572h3.38c.42 0 .76-.006 1.03-.018.26-.024.56-.078.88-.162.34-.084.6-.204.79-.36.19-.168.36-.402.49-.702.13-.312.2-.684.2-1.116 0-.36-.05-.672-.15-.936a1.164 1.164 0 0 0-.45-.63c-.2-.156-.4-.282-.59-.378-.18-.096-.45-.162-.79-.198a8.5 8.5 0 0 0-.81-.054c-.2-.012-.49-.018-.89-.018h-3.09zm16.05-6.822l5 12.816h-1.89l-1.42-3.924h-5.38L1048.99 41h-1.8l5.04-12.816h1.91zm1.18 7.542l-2.17-5.922-2.22 5.922h4.39zm15.26-7.542V41h-1.69v-5.994h-6.77V41h-1.69V28.184h1.69v5.346h6.77v-5.346h1.69zM1073.42 41V28.184h1.69v10.854h.03l6.29-10.854h2.14V41h-1.69V30.11h-.04l-6.3 10.89h-2.12zm21.86-12.816v1.476h-7.18v4.014h6.71v1.422h-6.71v4.428h7.27V41h-8.96V28.184h8.87zm-352.706 159V200h-1.692v-11.34h-6.768V200h-1.692v-12.816h10.152zm2.91 0h5.274c1.308 0 2.346.3 3.114.9.768.588 1.152 1.518 1.152 2.79 0 2.58-1.458 3.87-4.374 3.87h-3.474V200h-1.692v-12.816zm1.692 1.458v4.68h3.258c.912 0 1.62-.168 2.124-.504.516-.348.774-.96.774-1.836 0-.492-.084-.9-.252-1.224a1.515 1.515 0 0 0-.702-.72 3.16 3.16 0 0 0-.972-.306 6.968 6.968 0 0 0-1.206-.09h-3.024zm15.308-1.764c1.944 0 3.456.612 4.536 1.836 1.08 1.212 1.62 2.802 1.62 4.77 0 1.98-.534 3.612-1.602 4.896-1.068 1.284-2.58 1.926-4.536 1.926-.996 0-1.89-.18-2.682-.54a5.154 5.154 0 0 1-1.944-1.494 7.095 7.095 0 0 1-1.134-2.178 8.925 8.925 0 0 1-.378-2.646c0-2.004.552-3.6 1.656-4.788 1.116-1.188 2.604-1.782 4.464-1.782zm0 1.476c-1.428 0-2.526.504-3.294 1.512-.756.996-1.134 2.232-1.134 3.708 0 1.608.402 2.892 1.206 3.852.816.948 1.902 1.422 3.258 1.422 1.344 0 2.418-.48 3.222-1.44.804-.96 1.206-2.238 1.206-3.834 0-1.584-.408-2.85-1.224-3.798-.804-.948-1.884-1.422-3.24-1.422zm17.15-1.17v1.476h-7.182v4.014h6.714v1.422h-6.714v4.428h7.272V200h-8.964v-12.816h8.874zm12.534 0l-5.4 5.148 5.616 7.668h-2.16l-4.644-6.516-2.124 2.016v4.5h-1.692v-12.816h1.692v6.354l6.498-6.354h2.214zm10.494 0v1.476h-4.302V200h-1.692v-11.34h-4.302v-1.476h10.296zM804.106 200v-12.816h1.692v10.854h.036l6.282-10.854h2.142V200h-1.692v-10.89h-.036l-6.3 10.89h-2.124zm13.062-12.816h5.274c1.308 0 2.346.3 3.114.9.768.588 1.152 1.518 1.152 2.79 0 2.58-1.458 3.87-4.374 3.87h-3.474V200h-1.692v-12.816zm1.692 1.458v4.68h3.258c.912 0 1.62-.168 2.124-.504.516-.348.774-.96.774-1.836 0-.492-.084-.9-.252-1.224a1.515 1.515 0 0 0-.702-.72 3.16 3.16 0 0 0-.972-.306 6.968 6.968 0 0 0-1.206-.09h-3.024zm15.308-1.764c1.944 0 3.456.612 4.536 1.836 1.08 1.212 1.62 2.802 1.62 4.77 0 1.98-.534 3.612-1.602 4.896-1.068 1.284-2.58 1.926-4.536 1.926-.996 0-1.89-.18-2.682-.54a5.154 5.154 0 0 1-1.944-1.494 7.095 7.095 0 0 1-1.134-2.178 8.925 8.925 0 0 1-.378-2.646c0-2.004.552-3.6 1.656-4.788 1.116-1.188 2.604-1.782 4.464-1.782zm0 1.476c-1.428 0-2.526.504-3.294 1.512-.756.996-1.134 2.232-1.134 3.708 0 1.608.402 2.892 1.206 3.852.816.948 1.902 1.422 3.258 1.422 1.344 0 2.418-.48 3.222-1.44.804-.96 1.206-2.238 1.206-3.834 0-1.584-.408-2.85-1.224-3.798-.804-.948-1.884-1.422-3.24-1.422zm8.275-1.17h5.472c1.176 0 2.148.258 2.916.774.78.516 1.17 1.326 1.17 2.43 0 .636-.174 1.206-.522 1.71-.336.492-.792.84-1.368 1.044.792.18 1.398.552 1.818 1.116.432.564.648 1.272.648 2.124 0 2.412-1.62 3.618-4.86 3.618h-5.274v-12.816zm1.656 1.44v4.05h3.042c.348 0 .642-.006.882-.018.252-.024.534-.072.846-.144.312-.072.558-.174.738-.306.192-.144.354-.348.486-.612.144-.264.216-.582.216-.954s-.06-.684-.18-.936c-.12-.264-.264-.462-.432-.594-.168-.144-.402-.252-.702-.324a4.144 4.144 0 0 0-.792-.126 8.971 8.971 0 0 0-.9-.036h-3.204zm0 5.382v4.572h3.384c.42 0 .762-.006 1.026-.018.264-.024.558-.078.882-.162.336-.084.6-.204.792-.36.192-.168.354-.402.486-.702.132-.312.198-.684.198-1.116 0-.36-.048-.672-.144-.936a1.206 1.206 0 0 0-.45-.63 3.741 3.741 0 0 0-.594-.378c-.18-.096-.444-.162-.792-.198a8.422 8.422 0 0 0-.81-.054 15.575 15.575 0 0 0-.882-.018h-3.096zm16.049-6.822L865.152 200h-1.89l-1.422-3.924h-5.382L855 200h-1.8l5.04-12.816h1.908zm1.188 7.542l-2.178-5.922-2.214 5.922h4.392zm15.254-7.542V200h-1.692v-5.994h-6.768V200h-1.692v-12.816h1.692v5.346h6.768v-5.346h1.692zM879.428 200v-12.816h1.692v10.854h.036l6.282-10.854h2.142V200h-1.692v-10.89h-.036l-6.3 10.89h-2.124zm21.864-12.816v1.476h-7.182v4.014h6.714v1.422h-6.714v4.428h7.272V200h-8.964v-12.816h8.874zM732.422 222v-12.816h1.692v10.854h.036l6.282-10.854h2.142V222h-1.692v-10.89h-.036l-6.3 10.89h-2.124zm18.072-12.816h5.274c1.308 0 2.346.3 3.114.9.768.588 1.152 1.518 1.152 2.79 0 2.58-1.458 3.87-4.374 3.87h-3.474V222h-1.692v-12.816zm1.692 1.458v4.68h3.258c.912 0 1.62-.168 2.124-.504.516-.348.774-.96.774-1.836 0-.492-.084-.9-.252-1.224a1.515 1.515 0 0 0-.702-.72 3.16 3.16 0 0 0-.972-.306 6.968 6.968 0 0 0-1.206-.09h-3.024zm13.954-1.458L771.144 222h-1.89l-1.422-3.924h-5.382L760.992 222h-1.8l5.04-12.816h1.908zm1.188 7.542l-2.178-5.922-2.214 5.922h4.392zm14.642 1.53c0 .42-.096.858-.288 1.314a4.897 4.897 0 0 1-.846 1.296c-.372.42-.894.762-1.566 1.026s-1.434.396-2.286.396c-1.608 0-2.898-.378-3.87-1.134-.96-.768-1.44-1.896-1.44-3.384h1.638c.036 1.092.402 1.89 1.098 2.394.696.492 1.602.738 2.718.738.9 0 1.65-.246 2.25-.738.6-.492.9-1.14.9-1.944 0-.444-.084-.822-.252-1.134a1.61 1.61 0 0 0-.738-.702 3.788 3.788 0 0 0-1.026-.324 7.292 7.292 0 0 0-1.224-.09c-.408 0-.792.012-1.152.036v-1.404c.192.024.576.036 1.152.036 1.86 0 2.79-.768 2.79-2.304 0-1.368-.918-2.052-2.754-2.052-1.944 0-3.006.87-3.186 2.61h-1.638c.048-1.32.516-2.316 1.404-2.988.888-.684 2.046-1.026 3.474-1.026 1.308 0 2.364.288 3.168.864.816.576 1.224 1.44 1.224 2.592 0 .648-.21 1.236-.63 1.764-.42.516-.918.858-1.494 1.026v.054c.816.156 1.446.522 1.89 1.098.456.576.684 1.236.684 1.98zm2.204-9.072h5.274c1.308 0 2.346.3 3.114.9.768.588 1.152 1.518 1.152 2.79 0 2.58-1.458 3.87-4.374 3.87h-3.474V222h-1.692v-12.816zm1.692 1.458v4.68h3.258c.912 0 1.62-.168 2.124-.504.516-.348.774-.96.774-1.836 0-.492-.084-.9-.252-1.224a1.515 1.515 0 0 0-.702-.72 3.16 3.16 0 0 0-.972-.306 6.968 6.968 0 0 0-1.206-.09h-3.024zm13.954-1.458L804.824 222h-1.89l-1.422-3.924h-5.382L794.672 222h-1.8l5.04-12.816h1.908zm1.188 7.542l-2.178-5.922-2.214 5.922h4.392zm6.794-2.358h4.284c1.26 0 2.232.336 2.916 1.008.684.672 1.026 1.614 1.026 2.826 0 1.2-.348 2.136-1.044 2.808-.684.66-1.65.99-2.898.99h-5.976v-12.816h8.784v1.476h-7.092v3.708zm6.534 3.834c0-1.572-.936-2.358-2.808-2.358h-3.726v4.68h3.726c1.872 0 2.808-.774 2.808-2.322zm9.496-9.324c1.944 0 3.456.612 4.536 1.836 1.08 1.212 1.62 2.802 1.62 4.77 0 1.98-.534 3.612-1.602 4.896-1.068 1.284-2.58 1.926-4.536 1.926-.996 0-1.89-.18-2.682-.54a5.154 5.154 0 0 1-1.944-1.494 7.095 7.095 0 0 1-1.134-2.178 8.925 8.925 0 0 1-.378-2.646c0-2.004.552-3.6 1.656-4.788 1.116-1.188 2.604-1.782 4.464-1.782zm0 1.476c-1.428 0-2.526.504-3.294 1.512-.756.996-1.134 2.232-1.134 3.708 0 1.608.402 2.892 1.206 3.852.816.948 1.902 1.422 3.258 1.422 1.344 0 2.418-.48 3.222-1.44.804-.96 1.206-2.238 1.206-3.834 0-1.584-.408-2.85-1.224-3.798-.804-.948-1.884-1.422-3.24-1.422zm16.851-1.17v1.476h-4.302V222h-1.692v-11.34h-4.302v-1.476h10.296zm11.848 0l-5.4 5.148 5.616 7.668h-2.16l-4.644-6.516-2.124 2.016v4.5h-1.692v-12.816h1.692v6.354l6.498-6.354h2.214zm6.984 0L864.519 222h-1.89l-1.422-3.924h-5.382L854.367 222h-1.8l5.04-12.816h1.908zm1.188 7.542l-2.178-5.922-2.214 5.922h4.392zm19.004-7.542v1.476h-4.302V222h-1.692v-11.34h-4.302v-1.476h10.296zm10.984 9.072c0 .42-.096.858-.288 1.314a4.897 4.897 0 0 1-.846 1.296c-.372.42-.894.762-1.566 1.026s-1.434.396-2.286.396c-1.608 0-2.898-.378-3.87-1.134-.96-.768-1.44-1.896-1.44-3.384h1.638c.036 1.092.402 1.89 1.098 2.394.696.492 1.602.738 2.718.738.9 0 1.65-.246 2.25-.738.6-.492.9-1.14.9-1.944 0-.444-.084-.822-.252-1.134a1.61 1.61 0 0 0-.738-.702 3.788 3.788 0 0 0-1.026-.324 7.292 7.292 0 0 0-1.224-.09c-.408 0-.792.012-1.152.036v-1.404c.192.024.576.036 1.152.036 1.86 0 2.79-.768 2.79-2.304 0-1.368-.918-2.052-2.754-2.052-1.944 0-3.006.87-3.186 2.61h-1.638c.048-1.32.516-2.316 1.404-2.988.888-.684 2.046-1.026 3.474-1.026 1.308 0 2.364.288 3.168.864.816.576 1.224 1.44 1.224 2.592 0 .648-.21 1.236-.63 1.764-.42.516-.918.858-1.494 1.026v.054c.816.156 1.446.522 1.89 1.098.456.576.684 1.236.684 1.98zM637.822 367.878c1.944 0 3.456.612 4.536 1.836 1.08 1.212 1.62 2.802 1.62 4.77 0 1.98-.534 3.612-1.602 4.896-1.068 1.284-2.58 1.926-4.536 1.926-.996 0-1.89-.18-2.682-.54a5.154 5.154 0 0 1-1.944-1.494 7.095 7.095 0 0 1-1.134-2.178 8.925 8.925 0 0 1-.378-2.646c0-2.004.552-3.6 1.656-4.788 1.116-1.188 2.604-1.782 4.464-1.782zm0 1.476c-1.428 0-2.526.504-3.294 1.512-.756.996-1.134 2.232-1.134 3.708 0 1.608.402 2.892 1.206 3.852.816.948 1.902 1.422 3.258 1.422 1.344 0 2.418-.48 3.222-1.44.804-.96 1.206-2.238 1.206-3.834 0-1.584-.408-2.85-1.224-3.798-.804-.948-1.884-1.422-3.24-1.422zm18.428-1.17V381h-1.692v-11.34h-6.768V381h-1.692v-12.816h10.152zm13.998 0h1.692V381h-1.692v-12.816zm-1.602 9.018c0 1.2-.348 2.136-1.044 2.808-.684.66-1.65.99-2.898.99h-5.616v-12.816h1.692v5.202h3.924c1.26 0 2.232.336 2.916 1.008.684.66 1.026 1.596 1.026 2.808zm-1.71 0c0-1.572-.936-2.358-2.808-2.358h-3.348v4.68h3.348c1.872 0 2.808-.774 2.808-2.322zm16.724-9.018v1.476h-4.302V381h-1.692v-11.34h-4.302v-1.476h10.296zm11.596 0V381h-1.692v-5.994h-6.768V381h-1.692v-12.816h1.692v5.346h6.768v-5.346h1.692zm8.238-.306c1.944 0 3.456.612 4.536 1.836 1.08 1.212 1.62 2.802 1.62 4.77 0 1.98-.534 3.612-1.602 4.896-1.068 1.284-2.58 1.926-4.536 1.926-.996 0-1.89-.18-2.682-.54a5.154 5.154 0 0 1-1.944-1.494 7.095 7.095 0 0 1-1.134-2.178 8.925 8.925 0 0 1-.378-2.646c0-2.004.552-3.6 1.656-4.788 1.116-1.188 2.604-1.782 4.464-1.782zm0 1.476c-1.428 0-2.526.504-3.294 1.512-.756.996-1.134 2.232-1.134 3.708 0 1.608.402 2.892 1.206 3.852.816.948 1.902 1.422 3.258 1.422 1.344 0 2.418-.48 3.222-1.44.804-.96 1.206-2.238 1.206-3.834 0-1.584-.408-2.85-1.224-3.798-.804-.948-1.884-1.422-3.24-1.422zm12.974 5.886v1.512h-5.238v-1.512h5.238zm12.45-7.056V381h-1.692v-11.34h-6.768V381h-1.692v-12.816h10.152zm2.91 0h5.274c1.308 0 2.346.3 3.114.9.768.588 1.152 1.518 1.152 2.79 0 2.58-1.458 3.87-4.374 3.87h-3.474V381h-1.692v-12.816zm1.692 1.458v4.68h3.258c.912 0 1.62-.168 2.124-.504.516-.348.774-.96.774-1.836 0-.492-.084-.9-.252-1.224a1.515 1.515 0 0 0-.702-.72 3.16 3.16 0 0 0-.972-.306 6.968 6.968 0 0 0-1.206-.09h-3.024zm15.308-1.764c1.944 0 3.456.612 4.536 1.836 1.08 1.212 1.62 2.802 1.62 4.77 0 1.98-.534 3.612-1.602 4.896-1.068 1.284-2.58 1.926-4.536 1.926-.996 0-1.89-.18-2.682-.54a5.154 5.154 0 0 1-1.944-1.494 7.095 7.095 0 0 1-1.134-2.178 8.925 8.925 0 0 1-.378-2.646c0-2.004.552-3.6 1.656-4.788 1.116-1.188 2.604-1.782 4.464-1.782zm0 1.476c-1.428 0-2.526.504-3.294 1.512-.756.996-1.134 2.232-1.134 3.708 0 1.608.402 2.892 1.206 3.852.816.948 1.902 1.422 3.258 1.422 1.344 0 2.418-.48 3.222-1.44.804-.96 1.206-2.238 1.206-3.834 0-1.584-.408-2.85-1.224-3.798-.804-.948-1.884-1.422-3.24-1.422zm8.294-1.17h2.34l4.122 10.854 3.978-10.854h2.358V381h-1.602v-10.692L764.304 381h-1.476l-4.086-10.692V381h-1.62v-12.816zm26.821 0h1.692V381h-1.692v-12.816zm-1.602 9.018c0 1.2-.348 2.136-1.044 2.808-.684.66-1.65.99-2.898.99h-5.616v-12.816h1.692v5.202h3.924c1.26 0 2.232.336 2.916 1.008.684.66 1.026 1.596 1.026 2.808zm-1.71 0c0-1.572-.936-2.358-2.808-2.358h-3.348v4.68h3.348c1.872 0 2.808-.774 2.808-2.322zm7.832 3.798v-12.816h1.692v11.34h5.688v-11.34h1.692v11.34h5.688v-11.34h1.692V381h-16.452zm28.768-12.816V381h-1.692v-11.34h-4.734l-.252 7.218c-.048 1.344-.324 2.412-.828 3.204-.492.792-1.206 1.188-2.142 1.188-.384 0-.792-.084-1.224-.252v-1.44c.192.12.498.18.918.18.348 0 .624-.078.828-.234.216-.168.402-.54.558-1.116.168-.576.264-1.38.288-2.412l.234-7.812h8.046zm11.747 0v1.476h-7.182v4.014h6.714v1.422h-6.714v4.428h7.272V381h-8.964v-12.816h8.874zm12.282 0V381h-1.692v-5.994H832.8V381h-1.692v-12.816h1.692v5.346h6.768v-5.346h1.692zm12.99 0V381h-1.692v-5.994h-6.768V381h-1.692v-12.816h1.692v5.346h6.768v-5.346h1.692zm8.22 0L867.474 381h-1.89l-1.422-3.924h-5.382L857.322 381h-1.8l5.04-12.816h1.908zm1.188 7.542l-2.178-5.922-2.214 5.922h4.392zm9.926-.198l-4.23 5.472h-2.088l4.284-5.526c-1.02-.132-1.806-.504-2.358-1.116-.552-.612-.828-1.446-.828-2.502 0-1.188.354-2.094 1.062-2.718.72-.636 1.716-.954 2.988-.954h5.508V381h-1.692v-5.472h-2.646zm2.646-1.44v-4.464h-3.24c-1.944 0-2.916.744-2.916 2.232 0 1.488.972 2.232 2.916 2.232h3.24zM643.204 396.61c0 2.016-.558 3.636-1.674 4.86-1.116 1.224-2.538 1.836-4.266 1.836-1.524 0-2.772-.414-3.744-1.242-.96-.84-1.548-2.01-1.764-3.51h1.71c.192 1.068.606 1.884 1.242 2.448.636.564 1.464.846 2.484.846 1.224 0 2.226-.432 3.006-1.296.792-.876 1.224-2.064 1.296-3.564h-6.228v-1.422h6.156c-.156-1.236-.582-2.244-1.278-3.024-.696-.792-1.668-1.188-2.916-1.188-.936 0-1.734.228-2.394.684-.648.456-1.074 1.08-1.278 1.872h-1.71c.096-.84.414-1.572.954-2.196a4.934 4.934 0 0 1 1.962-1.368c.768-.3 1.578-.45 2.43-.45 1.932 0 3.414.636 4.446 1.908 1.044 1.26 1.566 2.862 1.566 4.806zm12.612-6.426l-5.4 5.148 5.616 7.668h-2.16l-4.644-6.516-2.124 2.016v4.5h-1.692v-12.816h1.692v6.354l6.498-6.354h2.214zm12.14 7.974c-.144 1.62-.708 2.886-1.692 3.798-.972.9-2.256 1.35-3.852 1.35-1.824 0-3.27-.6-4.338-1.8-1.068-1.212-1.602-2.844-1.602-4.896 0-1.92.534-3.516 1.602-4.788 1.08-1.284 2.568-1.926 4.464-1.926 1.356 0 2.55.366 3.582 1.098 1.032.732 1.608 1.746 1.728 3.042h-1.692c-.192-.84-.612-1.494-1.26-1.962-.648-.48-1.446-.72-2.394-.72-1.428 0-2.508.504-3.24 1.512-.72 1.008-1.08 2.25-1.08 3.726 0 1.632.384 2.916 1.152 3.852.768.936 1.818 1.404 3.15 1.404 1.092 0 1.962-.312 2.61-.936.648-.636 1.038-1.554 1.17-2.754h1.692zm12.288-7.974V403h-1.692v-11.34h-6.768V403h-1.692v-12.816h10.152zm12.288 0V403h-1.692v-11.34h-4.734l-.252 7.218c-.048 1.344-.324 2.412-.828 3.204-.492.792-1.206 1.188-2.142 1.188-.384 0-.792-.084-1.224-.252v-1.44c.192.12.498.18.918.18.348 0 .624-.078.828-.234.216-.168.402-.54.558-1.116.168-.576.264-1.38.288-2.412l.234-7.812h8.046zm6.112 9.468l-4.68-9.468h1.854l3.744 7.812 3.672-7.812h1.818l-4.986 10.206c-.516 1.056-1.05 1.806-1.602 2.25-.54.444-1.14.666-1.8.666a3.816 3.816 0 0 1-1.584-.324v-1.44c.348.216.828.324 1.44.324.708 0 1.344-.588 1.908-1.764l.216-.45zm11.758-9.468L715.406 403h-1.89l-1.422-3.924h-5.382L705.254 403h-1.8l5.04-12.816h1.908zm1.188 7.542l-2.178-5.922-2.214 5.922h4.392zm12.341-7.542v1.476h-4.302V403h-1.692v-11.34h-4.302v-1.476h10.296zm5.174 0L734.109 403h-1.89l-1.422-3.924h-5.382L723.957 403h-1.8l5.04-12.816h1.908zm1.188 7.542l-2.178-5.922-2.214 5.922h4.392zm14.768 8.46V403h-9.774v-12.816h1.692v11.34h6.624v-11.34h1.692v11.34h1.404v4.662h-1.638zm3.324-3.186v-12.816h1.692v10.854h.036l6.282-10.854h2.142V403h-1.692v-10.89h-.036l-6.3 10.89h-2.124zm17.814-5.472l-4.23 5.472h-2.088l4.284-5.526c-1.02-.132-1.806-.504-2.358-1.116-.552-.612-.828-1.446-.828-2.502 0-1.188.354-2.094 1.062-2.718.72-.636 1.716-.954 2.988-.954h5.508V403h-1.692v-5.472h-2.646zm2.646-1.44v-4.464h-3.24c-1.944 0-2.916.744-2.916 2.232 0 1.488.972 2.232 2.916 2.232h3.24zm274.435-19.93c-.15 1.62-.71 2.886-1.7 3.798-.97.9-2.25 1.35-3.85 1.35-1.82 0-3.27-.6-4.34-1.8-1.06-1.212-1.6-2.844-1.6-4.896 0-1.92.54-3.516 1.6-4.788 1.08-1.284 2.57-1.926 4.47-1.926 1.35 0 2.55.366 3.58 1.098 1.03.732 1.61 1.746 1.73 3.042h-1.69c-.2-.84-.62-1.494-1.26-1.962-.65-.48-1.45-.72-2.4-.72-1.43 0-2.51.504-3.24 1.512-.72 1.008-1.08 2.25-1.08 3.726 0 1.632.39 2.916 1.15 3.852.77.936 1.82 1.404 3.15 1.404 1.1 0 1.97-.312 2.61-.936.65-.636 1.04-1.554 1.17-2.754h1.7zm7.53-8.28c1.95 0 3.46.612 4.54 1.836 1.08 1.212 1.62 2.802 1.62 4.77 0 1.98-.54 3.612-1.6 4.896-1.07 1.284-2.58 1.926-4.54 1.926-1 0-1.89-.18-2.68-.54a5.238 5.238 0 0 1-1.95-1.494 7.043 7.043 0 0 1-1.13-2.178 8.99 8.99 0 0 1-.38-2.646c0-2.004.55-3.6 1.66-4.788 1.11-1.188 2.6-1.782 4.46-1.782zm0 1.476c-1.43 0-2.52.504-3.29 1.512-.76.996-1.14 2.232-1.14 3.708 0 1.608.41 2.892 1.21 3.852.82.948 1.9 1.422 3.26 1.422 1.34 0 2.42-.48 3.22-1.44.8-.96 1.21-2.238 1.21-3.834 0-1.584-.41-2.85-1.23-3.798-.8-.948-1.88-1.422-3.24-1.422zm18.43-1.17V381h-1.69v-11.34h-6.77V381h-1.69v-12.816h10.15zm2.91 0h5.27c1.31 0 2.35.3 3.12.9.77.588 1.15 1.518 1.15 2.79 0 2.58-1.46 3.87-4.37 3.87h-3.48V381h-1.69v-12.816zm1.69 1.458v4.68h3.26c.91 0 1.62-.168 2.12-.504.52-.348.78-.96.78-1.836 0-.492-.09-.9-.25-1.224a1.513 1.513 0 0 0-.71-.72 3.1 3.1 0 0 0-.97-.306 6.91 6.91 0 0 0-1.2-.09h-3.03zm15.31-1.764c1.94 0 3.46.612 4.54 1.836 1.08 1.212 1.62 2.802 1.62 4.77 0 1.98-.54 3.612-1.61 4.896-1.06 1.284-2.58 1.926-4.53 1.926-1 0-1.89-.18-2.68-.54-.8-.36-1.44-.858-1.95-1.494a7.043 7.043 0 0 1-1.13-2.178 8.99 8.99 0 0 1-.38-2.646c0-2.004.55-3.6 1.66-4.788 1.11-1.188 2.6-1.782 4.46-1.782zm0 1.476c-1.43 0-2.53.504-3.29 1.512-.76.996-1.14 2.232-1.14 3.708 0 1.608.4 2.892 1.21 3.852.81.948 1.9 1.422 3.26 1.422 1.34 0 2.41-.48 3.22-1.44.8-.96 1.2-2.238 1.2-3.834 0-1.584-.4-2.85-1.22-3.798-.8-.948-1.88-1.422-3.24-1.422zm8.28-1.17h5.47c1.17 0 2.15.258 2.91.774.78.516 1.17 1.326 1.17 2.43 0 .636-.17 1.206-.52 1.71-.33.492-.79.84-1.37 1.044.8.18 1.4.552 1.82 1.116.43.564.65 1.272.65 2.124 0 2.412-1.62 3.618-4.86 3.618h-5.27v-12.816zm1.65 1.44v4.05h3.04c.35 0 .65-.006.89-.018.25-.024.53-.072.84-.144.31-.072.56-.174.74-.306.19-.144.35-.348.49-.612s.21-.582.21-.954-.06-.684-.18-.936c-.12-.264-.26-.462-.43-.594-.17-.144-.4-.252-.7-.324a4.15 4.15 0 0 0-.79-.126 9.027 9.027 0 0 0-.9-.036h-3.21zm0 5.382v4.572h3.39c.42 0 .76-.006 1.02-.018.27-.024.56-.078.88-.162.34-.084.6-.204.8-.36.19-.168.35-.402.48-.702.13-.312.2-.684.2-1.116a2.9 2.9 0 0 0-.14-.936 1.275 1.275 0 0 0-.45-.63 4.176 4.176 0 0 0-.6-.378c-.18-.096-.44-.162-.79-.198a8.5 8.5 0 0 0-.81-.054 15.59 15.59 0 0 0-.88-.018h-3.1zm16.07-7.128c1.94 0 3.45.612 4.53 1.836 1.08 1.212 1.62 2.802 1.62 4.77 0 1.98-.53 3.612-1.6 4.896-1.07 1.284-2.58 1.926-4.53 1.926-1 0-1.89-.18-2.69-.54-.79-.36-1.44-.858-1.94-1.494a7.043 7.043 0 0 1-1.13-2.178c-.26-.816-.38-1.698-.38-2.646 0-2.004.55-3.6 1.65-4.788 1.12-1.188 2.61-1.782 4.47-1.782zm0 1.476c-1.43 0-2.53.504-3.3 1.512-.75.996-1.13 2.232-1.13 3.708 0 1.608.4 2.892 1.21 3.852.81.948 1.9 1.422 3.25 1.422s2.42-.48 3.23-1.44c.8-.96 1.2-2.238 1.2-3.834 0-1.584-.41-2.85-1.22-3.798s-1.89-1.422-3.24-1.422zM1139.83 381h-2.12l-4.68-6.372-1.52 1.584V381h-1.65v-4.788l-1.51-1.584-4.68 6.372h-2.13l5.69-7.56-5.11-5.256h2.12l5.62 5.958v-5.958h1.65v5.958l5.62-5.958h2.12l-5.11 5.256 5.69 7.56zm12.56 3.186h-1.63V381h-9.27v3.186h-1.64v-4.662h1.26c.49-.876.89-2.13 1.2-3.762.32-1.644.47-3.342.47-5.094v-2.484h8.19v11.34h1.42v4.662zm-3.11-4.662v-9.864h-4.84v1.746c0 1.548-.15 3.084-.43 4.608-.28 1.512-.62 2.682-1.03 3.51h6.3zm13.69-11.34v1.476h-7.18v4.014h6.71v1.422h-6.71v4.428h7.27V381h-8.96v-12.816h8.87zm12.28 0V381h-1.69v-5.994h-6.77V381h-1.69v-12.816h1.69v5.346h6.77v-5.346h1.69zm2.84 12.816v-12.816h1.69v10.854h.04l6.28-10.854h2.14V381h-1.69v-10.89h-.03l-6.3 10.89h-2.13zm21.87-12.816v1.476h-7.19v4.014h6.72v1.422h-6.72v4.428h7.28V381h-8.97v-12.816h8.88zM1032.42 403v-12.816h1.69v10.854h.04l6.28-10.854h2.14V403h-1.69v-10.89h-.03l-6.3 10.89h-2.13zm18.07-12.816h5.28c1.31 0 2.34.3 3.11.9.77.588 1.15 1.518 1.15 2.79 0 2.58-1.45 3.87-4.37 3.87h-3.47V403h-1.7v-12.816zm1.7 1.458v4.68h3.25c.92 0 1.62-.168 2.13-.504.51-.348.77-.96.77-1.836 0-.492-.08-.9-.25-1.224a1.538 1.538 0 0 0-.7-.72 3.183 3.183 0 0 0-.97-.306c-.34-.06-.74-.09-1.21-.09h-3.02zm13.95-1.458l5 12.816h-1.89l-1.42-3.924h-5.38l-1.46 3.924h-1.8l5.04-12.816h1.91zm1.19 7.542l-2.18-5.922-2.21 5.922h4.39zm14.64 1.53c0 .42-.1.858-.29 1.314-.19.444-.47.876-.84 1.296-.38.42-.9.762-1.57 1.026s-1.43.396-2.29.396c-1.6 0-2.89-.378-3.87-1.134-.96-.768-1.44-1.896-1.44-3.384h1.64c.04 1.092.4 1.89 1.1 2.394.7.492 1.6.738 2.72.738.9 0 1.65-.246 2.25-.738.6-.492.9-1.14.9-1.944 0-.444-.09-.822-.25-1.134a1.643 1.643 0 0 0-.74-.702 3.883 3.883 0 0 0-1.03-.324c-.35-.06-.75-.09-1.22-.09-.41 0-.79.012-1.15.036v-1.404c.19.024.57.036 1.15.036 1.86 0 2.79-.768 2.79-2.304 0-1.368-.92-2.052-2.76-2.052-1.94 0-3 .87-3.18 2.61h-1.64c.05-1.32.52-2.316 1.4-2.988.89-.684 2.05-1.026 3.48-1.026 1.31 0 2.36.288 3.17.864.81.576 1.22 1.44 1.22 2.592 0 .648-.21 1.236-.63 1.764-.42.516-.92.858-1.49 1.026v.054c.81.156 1.44.522 1.89 1.098.45.576.68 1.236.68 1.98zm2.13-9.072h5.47c1.18 0 2.15.258 2.92.774.78.516 1.17 1.326 1.17 2.43 0 .636-.17 1.206-.52 1.71-.34.492-.79.84-1.37 1.044.79.18 1.4.552 1.82 1.116.43.564.65 1.272.65 2.124 0 2.412-1.62 3.618-4.86 3.618h-5.28v-12.816zm1.66 1.44v4.05h3.04c.35 0 .64-.006.88-.018.25-.024.54-.072.85-.144.31-.072.56-.174.74-.306.19-.144.35-.348.48-.612.15-.264.22-.582.22-.954s-.06-.684-.18-.936a1.641 1.641 0 0 0-.43-.594c-.17-.144-.41-.252-.71-.324a4.03 4.03 0 0 0-.79-.126 9.027 9.027 0 0 0-.9-.036h-3.2zm0 5.382v4.572h3.38c.42 0 .76-.006 1.03-.018.26-.024.56-.078.88-.162.34-.084.6-.204.79-.36.19-.168.36-.402.49-.702.13-.312.2-.684.2-1.116 0-.36-.05-.672-.15-.936a1.164 1.164 0 0 0-.45-.63c-.2-.156-.4-.282-.59-.378-.18-.096-.45-.162-.79-.198a8.5 8.5 0 0 0-.81-.054c-.2-.012-.49-.018-.89-.018h-3.09zm10.66 5.994v-12.816h1.7v10.854h.03l6.28-10.854h2.15V403h-1.7v-10.89h-.03l-6.3 10.89h-2.13zm21.89-12.816v1.476H1114V403h-1.69v-11.34h-4.3v-1.476h10.3zm1.44 12.816v-12.816h1.69v10.854h.04l6.28-10.854h2.14V403h-1.69v-10.89h-.04l-6.3 10.89h-2.12zm21.86-12.816v1.476h-7.18v4.014h6.72v1.422h-6.72v4.428h7.27V403h-8.96v-12.816h8.87zM1031 384.6h169.66v.9H1031v-.9zm0 22h111.32v.9H1031v-.9zM342.826 187.184l-5.4 5.148 5.616 7.668h-2.16l-4.644-6.516-2.124 2.016v4.5h-1.692v-12.816h1.692v6.354l6.498-6.354h2.214zm6.685-.306c1.944 0 3.456.612 4.536 1.836 1.08 1.212 1.62 2.802 1.62 4.77 0 1.98-.534 3.612-1.602 4.896-1.068 1.284-2.58 1.926-4.536 1.926-.996 0-1.89-.18-2.682-.54a5.154 5.154 0 0 1-1.944-1.494 7.095 7.095 0 0 1-1.134-2.178 8.925 8.925 0 0 1-.378-2.646c0-2.004.552-3.6 1.656-4.788 1.116-1.188 2.604-1.782 4.464-1.782zm0 1.476c-1.428 0-2.526.504-3.294 1.512-.756.996-1.134 2.232-1.134 3.708 0 1.608.402 2.892 1.206 3.852.816.948 1.902 1.422 3.258 1.422 1.344 0 2.418-.48 3.222-1.44.804-.96 1.206-2.238 1.206-3.834 0-1.584-.408-2.85-1.224-3.798-.804-.948-1.884-1.422-3.24-1.422zm18.428-1.17V200h-1.692v-5.994h-6.768V200h-1.692v-12.816h1.692v5.346h6.768v-5.346h1.692zm14.844 6.354c0 1.584-.54 2.802-1.62 3.654-1.08.84-2.406 1.26-3.978 1.26V200h-1.692v-1.548c-1.56 0-2.886-.432-3.978-1.296-1.08-.864-1.62-2.07-1.62-3.618s.546-2.766 1.638-3.654c1.092-.9 2.412-1.35 3.96-1.35v-1.35h1.692v1.35c1.572 0 2.898.444 3.978 1.332 1.08.888 1.62 2.112 1.62 3.672zm-1.71 0c0-1.14-.36-2.01-1.08-2.61-.708-.612-1.644-.948-2.808-1.008v7.146c1.188-.084 2.13-.408 2.826-.972.708-.576 1.062-1.428 1.062-2.556zm-5.58 3.528v-7.146c-1.164.06-2.106.396-2.826 1.008-.708.6-1.062 1.47-1.062 2.61 0 1.128.348 1.98 1.044 2.556.708.564 1.656.888 2.844.972zm9.294 2.934v-12.816h1.692v10.854h.036l6.282-10.854h2.142V200h-1.692v-10.89h-.036l-6.3 10.89h-2.124zm14.682 0h-1.692v-12.816h8.424v1.476h-6.732V200zm11.392-3.348l-4.68-9.468h1.854l3.744 7.812 3.672-7.812h1.818l-4.986 10.206c-.516 1.056-1.05 1.806-1.602 2.25-.54.444-1.14.666-1.8.666a3.816 3.816 0 0 1-1.584-.324v-1.44c.348.216.828.324 1.44.324.708 0 1.344-.588 1.908-1.764l.216-.45zm7.836-9.468h5.274c1.308 0 2.346.3 3.114.9.768.588 1.152 1.518 1.152 2.79 0 2.58-1.458 3.87-4.374 3.87h-3.474V200h-1.692v-12.816zm1.692 1.458v4.68h3.258c.912 0 1.62-.168 2.124-.504.516-.348.774-.96.774-1.836 0-.492-.084-.9-.252-1.224a1.515 1.515 0 0 0-.702-.72 3.16 3.16 0 0 0-.972-.306 6.968 6.968 0 0 0-1.206-.09h-3.024zM430.297 200v-12.816h1.692v10.854h.036l6.282-10.854h2.142V200h-1.692v-10.89h-.036l-6.3 10.89h-2.124zm13.062-12.816h5.274c1.308 0 2.346.3 3.114.9.768.588 1.152 1.518 1.152 2.79 0 2.58-1.458 3.87-4.374 3.87h-3.474V200h-1.692v-12.816zm1.692 1.458v4.68h3.258c.912 0 1.62-.168 2.124-.504.516-.348.774-.96.774-1.836 0-.492-.084-.9-.252-1.224a1.515 1.515 0 0 0-.702-.72 3.16 3.16 0 0 0-.972-.306 6.968 6.968 0 0 0-1.206-.09h-3.024zm15.308-1.764c1.944 0 3.456.612 4.536 1.836 1.08 1.212 1.62 2.802 1.62 4.77 0 1.98-.534 3.612-1.602 4.896-1.068 1.284-2.58 1.926-4.536 1.926-.996 0-1.89-.18-2.682-.54a5.154 5.154 0 0 1-1.944-1.494 7.095 7.095 0 0 1-1.134-2.178 8.925 8.925 0 0 1-.378-2.646c0-2.004.552-3.6 1.656-4.788 1.116-1.188 2.604-1.782 4.464-1.782zm0 1.476c-1.428 0-2.526.504-3.294 1.512-.756.996-1.134 2.232-1.134 3.708 0 1.608.402 2.892 1.206 3.852.816.948 1.902 1.422 3.258 1.422 1.344 0 2.418-.48 3.222-1.44.804-.96 1.206-2.238 1.206-3.834 0-1.584-.408-2.85-1.224-3.798-.804-.948-1.884-1.422-3.24-1.422zm8.276-1.17h5.472c1.176 0 2.148.258 2.916.774.78.516 1.17 1.326 1.17 2.43 0 .636-.174 1.206-.522 1.71-.336.492-.792.84-1.368 1.044.792.18 1.398.552 1.818 1.116.432.564.648 1.272.648 2.124 0 2.412-1.62 3.618-4.86 3.618h-5.274v-12.816zm1.656 1.44v4.05h3.042c.348 0 .642-.006.882-.018.252-.024.534-.072.846-.144.312-.072.558-.174.738-.306.192-.144.354-.348.486-.612.144-.264.216-.582.216-.954s-.06-.684-.18-.936c-.12-.264-.264-.462-.432-.594-.168-.144-.402-.252-.702-.324a4.144 4.144 0 0 0-.792-.126 8.971 8.971 0 0 0-.9-.036h-3.204zm0 5.382v4.572h3.384c.42 0 .762-.006 1.026-.018.264-.024.558-.078.882-.162.336-.084.6-.204.792-.36.192-.168.354-.402.486-.702.132-.312.198-.684.198-1.116 0-.36-.048-.672-.144-.936a1.206 1.206 0 0 0-.45-.63 3.741 3.741 0 0 0-.594-.378c-.18-.096-.444-.162-.792-.198a8.422 8.422 0 0 0-.81-.054 15.575 15.575 0 0 0-.882-.018h-3.096zm16.048-6.822L491.343 200h-1.89l-1.422-3.924h-5.382L481.191 200h-1.8l5.04-12.816h1.908zm1.188 7.542l-2.178-5.922-2.214 5.922h4.392zm15.254-7.542V200h-1.692v-5.994h-6.768V200h-1.692v-12.816h1.692v5.346h6.768v-5.346h1.692zM505.619 200v-12.816h1.692v10.854h.036l6.282-10.854h2.142V200h-1.692v-10.89h-.036l-6.3 10.89h-2.124zm21.865-12.816v1.476h-7.182v4.014h6.714v1.422h-6.714v4.428h7.272V200h-8.964v-12.816h8.874zM332.422 222v-12.816h1.692v10.854h.036l6.282-10.854h2.142V222h-1.692v-10.89h-.036l-6.3 10.89h-2.124zm29.286 3.186h-1.638V222h-9.27v3.186h-1.638v-4.662h1.26c.492-.876.894-2.13 1.206-3.762.312-1.644.468-3.342.468-5.094v-2.484h8.19v11.34h1.422v4.662zm-3.114-4.662v-9.864h-4.842v1.746c0 1.548-.144 3.084-.432 4.608-.276 1.512-.618 2.682-1.026 3.51h6.3zm10.218-11.646c1.944 0 3.456.612 4.536 1.836 1.08 1.212 1.62 2.802 1.62 4.77 0 1.98-.534 3.612-1.602 4.896-1.068 1.284-2.58 1.926-4.536 1.926-.996 0-1.89-.18-2.682-.54a5.154 5.154 0 0 1-1.944-1.494 7.095 7.095 0 0 1-1.134-2.178 8.925 8.925 0 0 1-.378-2.646c0-2.004.552-3.6 1.656-4.788 1.116-1.188 2.604-1.782 4.464-1.782zm0 1.476c-1.428 0-2.526.504-3.294 1.512-.756.996-1.134 2.232-1.134 3.708 0 1.608.402 2.892 1.206 3.852.816.948 1.902 1.422 3.258 1.422 1.344 0 2.418-.48 3.222-1.44.804-.96 1.206-2.238 1.206-3.834 0-1.584-.408-2.85-1.224-3.798-.804-.948-1.884-1.422-3.24-1.422zm8.348-1.17h5.274c1.308 0 2.346.3 3.114.9.768.588 1.152 1.518 1.152 2.79 0 2.58-1.458 3.87-4.374 3.87h-3.474V222h-1.692v-12.816zm1.692 1.458v4.68h3.258c.912 0 1.62-.168 2.124-.504.516-.348.774-.96.774-1.836 0-.492-.084-.9-.252-1.224a1.515 1.515 0 0 0-.702-.72 3.16 3.16 0 0 0-.972-.306 6.968 6.968 0 0 0-1.206-.09h-3.024zm13.954-1.458L397.81 222h-1.89l-1.422-3.924h-5.382L387.658 222h-1.8l5.04-12.816h1.908zm1.188 7.542l-2.178-5.922-2.214 5.922h4.392zm6.794-2.358h4.284c1.26 0 2.232.336 2.916 1.008.684.672 1.026 1.614 1.026 2.826 0 1.2-.348 2.136-1.044 2.808-.684.66-1.65.99-2.898.99h-5.976v-12.816h8.784v1.476h-7.092v3.708zm6.534 3.834c0-1.572-.936-2.358-2.808-2.358h-3.726v4.68h3.726c1.872 0 2.808-.774 2.808-2.322zm9.496-9.324c1.944 0 3.456.612 4.536 1.836 1.08 1.212 1.62 2.802 1.62 4.77 0 1.98-.534 3.612-1.602 4.896-1.068 1.284-2.58 1.926-4.536 1.926-.996 0-1.89-.18-2.682-.54a5.154 5.154 0 0 1-1.944-1.494 7.095 7.095 0 0 1-1.134-2.178 8.925 8.925 0 0 1-.378-2.646c0-2.004.552-3.6 1.656-4.788 1.116-1.188 2.604-1.782 4.464-1.782zm0 1.476c-1.428 0-2.526.504-3.294 1.512-.756.996-1.134 2.232-1.134 3.708 0 1.608.402 2.892 1.206 3.852.816.948 1.902 1.422 3.258 1.422 1.344 0 2.418-.48 3.222-1.44.804-.96 1.206-2.238 1.206-3.834 0-1.584-.408-2.85-1.224-3.798-.804-.948-1.884-1.422-3.24-1.422zm16.851-1.17v1.476h-4.302V222h-1.692v-11.34h-4.302v-1.476h10.296zm11.848 0l-5.4 5.148 5.616 7.668h-2.16l-4.644-6.516-2.124 2.016v4.5h-1.692v-12.816h1.692v6.354l6.498-6.354h2.214zm6.984 0L457.505 222h-1.89l-1.422-3.924h-5.382L447.353 222h-1.8l5.04-12.816h1.908zm1.188 7.542l-2.178-5.922-2.214 5.922h4.392zm20.966.432c-.144 1.62-.708 2.886-1.692 3.798-.972.9-2.256 1.35-3.852 1.35-1.824 0-3.27-.6-4.338-1.8-1.068-1.212-1.602-2.844-1.602-4.896 0-1.92.534-3.516 1.602-4.788 1.08-1.284 2.568-1.926 4.464-1.926 1.356 0 2.55.366 3.582 1.098 1.032.732 1.608 1.746 1.728 3.042h-1.692c-.192-.84-.612-1.494-1.26-1.962-.648-.48-1.446-.72-2.394-.72-1.428 0-2.508.504-3.24 1.512-.72 1.008-1.08 2.25-1.08 3.726 0 1.632.384 2.916 1.152 3.852.768.936 1.818 1.404 3.15 1.404 1.092 0 1.962-.312 2.61-.936.648-.636 1.038-1.554 1.17-2.754h1.692zm2.136 4.842v-12.816h1.692v10.854h.036l6.282-10.854h2.142V222h-1.692v-10.89h-.036l-6.3 10.89h-2.124zm23.844-4.842c-.144 1.62-.708 2.886-1.692 3.798-.972.9-2.256 1.35-3.852 1.35-1.824 0-3.27-.6-4.338-1.8-1.068-1.212-1.602-2.844-1.602-4.896 0-1.92.534-3.516 1.602-4.788 1.08-1.284 2.568-1.926 4.464-1.926 1.356 0 2.55.366 3.582 1.098 1.032.732 1.608 1.746 1.728 3.042h-1.692c-.192-.84-.612-1.494-1.26-1.962-.648-.48-1.446-.72-2.394-.72-1.428 0-2.508.504-3.24 1.512-.72 1.008-1.08 2.25-1.08 3.726 0 1.632.384 2.916 1.152 3.852.768.936 1.818 1.404 3.15 1.404 1.092 0 1.962-.312 2.61-.936.648-.636 1.038-1.554 1.17-2.754h1.692zm10.712-7.974v1.476h-4.302V222h-1.692v-11.34h-4.302v-1.476h10.296zm10.318 0v1.476h-7.182v4.014h6.714v1.422h-6.714v4.428h7.272V222h-8.964v-12.816h8.874zm2.148 0h2.34l4.122 10.854 3.978-10.854h2.358V222h-1.602v-10.692L530.995 222h-1.476l-4.086-10.692V222h-1.62v-12.816zm26.822 0h1.692V222h-1.692v-12.816zm-1.602 9.018c0 1.2-.348 2.136-1.044 2.808-.684.66-1.65.99-2.898.99h-5.616v-12.816h1.692v5.202h3.924c1.26 0 2.232.336 2.916 1.008.684.66 1.026 1.596 1.026 2.808zm-1.71 0c0-1.572-.936-2.358-2.808-2.358h-3.348v4.68h3.348c1.872 0 2.808-.774 2.808-2.322zM242.574 368.184V381h-1.692v-11.34h-6.768V381h-1.692v-12.816h10.152zm8.238-.306c1.944 0 3.456.612 4.536 1.836 1.08 1.212 1.62 2.802 1.62 4.77 0 1.98-.534 3.612-1.602 4.896-1.068 1.284-2.58 1.926-4.536 1.926-.996 0-1.89-.18-2.682-.54a5.154 5.154 0 0 1-1.944-1.494 7.095 7.095 0 0 1-1.134-2.178 8.925 8.925 0 0 1-.378-2.646c0-2.004.552-3.6 1.656-4.788 1.116-1.188 2.604-1.782 4.464-1.782zm0 1.476c-1.428 0-2.526.504-3.294 1.512-.756.996-1.134 2.232-1.134 3.708 0 1.608.402 2.892 1.206 3.852.816.948 1.902 1.422 3.258 1.422 1.344 0 2.418-.48 3.222-1.44.804-.96 1.206-2.238 1.206-3.834 0-1.584-.408-2.85-1.224-3.798-.804-.948-1.884-1.422-3.24-1.422zm19.562 14.832h-1.638V381h-9.27v3.186h-1.638v-4.662h1.26c.492-.876.894-2.13 1.206-3.762.312-1.644.468-3.342.468-5.094v-2.484h8.19v11.34h1.422v4.662zm-3.114-4.662v-9.864h-4.842v1.746c0 1.548-.144 3.084-.432 4.608-.276 1.512-.618 2.682-1.026 3.51h6.3zm6.51 1.476h-1.692v-12.816h8.424v1.476h-6.732V381zm13.552-13.122c1.944 0 3.456.612 4.536 1.836 1.08 1.212 1.62 2.802 1.62 4.77 0 1.98-.534 3.612-1.602 4.896-1.068 1.284-2.58 1.926-4.536 1.926-.996 0-1.89-.18-2.682-.54a5.154 5.154 0 0 1-1.944-1.494 7.095 7.095 0 0 1-1.134-2.178 8.925 8.925 0 0 1-.378-2.646c0-2.004.552-3.6 1.656-4.788 1.116-1.188 2.604-1.782 4.464-1.782zm0 1.476c-1.428 0-2.526.504-3.294 1.512-.756.996-1.134 2.232-1.134 3.708 0 1.608.402 2.892 1.206 3.852.816.948 1.902 1.422 3.258 1.422 1.344 0 2.418-.48 3.222-1.44.804-.96 1.206-2.238 1.206-3.834 0-1.584-.408-2.85-1.224-3.798-.804-.948-1.884-1.422-3.24-1.422zm16.851-1.17v1.476h-4.302V381h-1.692v-11.34h-4.302v-1.476h10.296zm6.528-.306c1.944 0 3.456.612 4.536 1.836 1.08 1.212 1.62 2.802 1.62 4.77 0 1.98-.534 3.612-1.602 4.896-1.068 1.284-2.58 1.926-4.536 1.926-.996 0-1.89-.18-2.682-.54a5.154 5.154 0 0 1-1.944-1.494 7.095 7.095 0 0 1-1.134-2.178 8.925 8.925 0 0 1-.378-2.646c0-2.004.552-3.6 1.656-4.788 1.116-1.188 2.604-1.782 4.464-1.782zm0 1.476c-1.428 0-2.526.504-3.294 1.512-.756.996-1.134 2.232-1.134 3.708 0 1.608.402 2.892 1.206 3.852.816.948 1.902 1.422 3.258 1.422 1.344 0 2.418-.48 3.222-1.44.804-.96 1.206-2.238 1.206-3.834 0-1.584-.408-2.85-1.224-3.798-.804-.948-1.884-1.422-3.24-1.422zm8.276-1.17h5.472c1.176 0 2.148.258 2.916.774.78.516 1.17 1.326 1.17 2.43 0 .636-.174 1.206-.522 1.71-.336.492-.792.84-1.368 1.044.792.18 1.398.552 1.818 1.116.432.564.648 1.272.648 2.124 0 2.412-1.62 3.618-4.86 3.618h-5.274v-12.816zm1.656 1.44v4.05h3.042c.348 0 .642-.006.882-.018.252-.024.534-.072.846-.144.312-.072.558-.174.738-.306.192-.144.354-.348.486-.612.144-.264.216-.582.216-.954s-.06-.684-.18-.936c-.12-.264-.264-.462-.432-.594-.168-.144-.402-.252-.702-.324a4.144 4.144 0 0 0-.792-.126 8.971 8.971 0 0 0-.9-.036h-3.204zm0 5.382v4.572h3.384c.42 0 .762-.006 1.026-.018.264-.024.558-.078.882-.162.336-.084.6-.204.792-.36.192-.168.354-.402.486-.702.132-.312.198-.684.198-1.116 0-.36-.048-.672-.144-.936a1.206 1.206 0 0 0-.45-.63 3.741 3.741 0 0 0-.594-.378c-.18-.096-.444-.162-.792-.198a8.422 8.422 0 0 0-.81-.054 15.575 15.575 0 0 0-.882-.018h-3.096zm21.07-6.822l-5.4 5.148 5.616 7.668h-2.16l-4.644-6.516-2.124 2.016v4.5h-1.692v-12.816h1.692v6.354l6.498-6.354h2.214zm6.984 0L353.691 381h-1.89l-1.422-3.924h-5.382L343.539 381h-1.8l5.04-12.816h1.908zm1.188 7.542l-2.178-5.922-2.214 5.922h4.392zm20.515-7.542l-5.4 5.148 5.616 7.668h-2.16l-4.644-6.516-2.124 2.016v4.5h-1.692v-12.816h1.692v6.354l6.498-6.354h2.214zm-137.896 22h5.274c1.308 0 2.346.3 3.114.9.768.588 1.152 1.518 1.152 2.79 0 2.58-1.458 3.87-4.374 3.87h-3.474V403h-1.692v-12.816zm1.692 1.458v4.68h3.258c.912 0 1.62-.168 2.124-.504.516-.348.774-.96.774-1.836 0-.492-.084-.9-.252-1.224a1.515 1.515 0 0 0-.702-.72 3.16 3.16 0 0 0-.972-.306 6.968 6.968 0 0 0-1.206-.09h-3.024zm13.954-1.458L253.144 403h-1.89l-1.422-3.924h-5.382L242.992 403h-1.8l5.04-12.816h1.908zm1.188 7.542l-2.178-5.922-2.214 5.922h4.392zm14.642 1.53c0 .42-.096.858-.288 1.314a4.897 4.897 0 0 1-.846 1.296c-.372.42-.894.762-1.566 1.026s-1.434.396-2.286.396c-1.608 0-2.898-.378-3.87-1.134-.96-.768-1.44-1.896-1.44-3.384h1.638c.036 1.092.402 1.89 1.098 2.394.696.492 1.602.738 2.718.738.9 0 1.65-.246 2.25-.738.6-.492.9-1.14.9-1.944 0-.444-.084-.822-.252-1.134a1.61 1.61 0 0 0-.738-.702 3.788 3.788 0 0 0-1.026-.324 7.292 7.292 0 0 0-1.224-.09c-.408 0-.792.012-1.152.036v-1.404c.192.024.576.036 1.152.036 1.86 0 2.79-.768 2.79-2.304 0-1.368-.918-2.052-2.754-2.052-1.944 0-3.006.87-3.186 2.61h-1.638c.048-1.32.516-2.316 1.404-2.988.888-.684 2.046-1.026 3.474-1.026 1.308 0 2.364.288 3.168.864.816.576 1.224 1.44 1.224 2.592 0 .648-.21 1.236-.63 1.764-.42.516-.918.858-1.494 1.026v.054c.816.156 1.446.522 1.89 1.098.456.576.684 1.236.684 1.98zm2.132-9.072h5.472c1.176 0 2.148.258 2.916.774.78.516 1.17 1.326 1.17 2.43 0 .636-.174 1.206-.522 1.71-.336.492-.792.84-1.368 1.044.792.18 1.398.552 1.818 1.116.432.564.648 1.272.648 2.124 0 2.412-1.62 3.618-4.86 3.618h-5.274v-12.816zm1.656 1.44v4.05h3.042c.348 0 .642-.006.882-.018.252-.024.534-.072.846-.144.312-.072.558-.174.738-.306.192-.144.354-.348.486-.612.144-.264.216-.582.216-.954s-.06-.684-.18-.936c-.12-.264-.264-.462-.432-.594-.168-.144-.402-.252-.702-.324a4.144 4.144 0 0 0-.792-.126 8.971 8.971 0 0 0-.9-.036h-3.204zm0 5.382v4.572h3.384c.42 0 .762-.006 1.026-.018.264-.024.558-.078.882-.162.336-.084.6-.204.792-.36.192-.168.354-.402.486-.702.132-.312.198-.684.198-1.116 0-.36-.048-.672-.144-.936a1.206 1.206 0 0 0-.45-.63 3.741 3.741 0 0 0-.594-.378c-.18-.096-.444-.162-.792-.198a8.422 8.422 0 0 0-.81-.054 15.575 15.575 0 0 0-.882-.018h-3.096zm19.54-6.822v1.476h-7.182v4.014h6.714v1.422h-6.714v4.428h7.272V403h-8.964v-12.816h8.874zm2.202 0h5.274c1.308 0 2.346.3 3.114.9.768.588 1.152 1.518 1.152 2.79 0 2.58-1.458 3.87-4.374 3.87h-3.474V403H289.5v-12.816zm1.692 1.458v4.68h3.258c.912 0 1.62-.168 2.124-.504.516-.348.774-.96.774-1.836 0-.492-.084-.9-.252-1.224a1.515 1.515 0 0 0-.702-.72 3.16 3.16 0 0 0-.972-.306 6.968 6.968 0 0 0-1.206-.09h-3.024zm18.8-1.458v1.476h-4.302V403h-1.692v-11.34h-4.302v-1.476h10.296zm12.604 0h1.692V403h-1.692v-12.816zm-1.602 9.018c0 1.2-.348 2.136-1.044 2.808-.684.66-1.65.99-2.898.99h-5.616v-12.816h1.692v5.202h3.924c1.26 0 2.232.336 2.916 1.008.684.66 1.026 1.596 1.026 2.808zm-1.71 0c0-1.572-.936-2.358-2.808-2.358h-3.348v4.68h3.348c1.872 0 2.808-.774 2.808-2.322zm7.831-9.018h5.472c1.176 0 2.148.258 2.916.774.78.516 1.17 1.326 1.17 2.43 0 .636-.174 1.206-.522 1.71-.336.492-.792.84-1.368 1.044.792.18 1.398.552 1.818 1.116.432.564.648 1.272.648 2.124 0 2.412-1.62 3.618-4.86 3.618h-5.274v-12.816zm1.656 1.44v4.05h3.042c.348 0 .642-.006.882-.018.252-.024.534-.072.846-.144.312-.072.558-.174.738-.306.192-.144.354-.348.486-.612.144-.264.216-.582.216-.954s-.06-.684-.18-.936c-.12-.264-.264-.462-.432-.594-.168-.144-.402-.252-.702-.324a4.144 4.144 0 0 0-.792-.126 8.971 8.971 0 0 0-.9-.036h-3.204zm0 5.382v4.572h3.384c.42 0 .762-.006 1.026-.018.264-.024.558-.078.882-.162.336-.084.6-.204.792-.36.192-.168.354-.402.486-.702.132-.312.198-.684.198-1.116 0-.36-.048-.672-.144-.936a1.206 1.206 0 0 0-.45-.63 3.741 3.741 0 0 0-.594-.378c-.18-.096-.444-.162-.792-.198a8.422 8.422 0 0 0-.81-.054 15.575 15.575 0 0 0-.882-.018h-3.096zm16.049-6.822L349.824 403h-1.89l-1.422-3.924h-5.382L339.672 403h-1.8l5.04-12.816h1.908zm1.188 7.542l-2.178-5.922-2.214 5.922h4.392zm15.254-7.542V403h-1.692v-5.994h-6.768V403h-1.692v-12.816h1.692v5.346h6.768v-5.346h1.692zM364.1 403v-12.816h1.692v10.854h.036l6.282-10.854h2.142V403h-1.692v-10.89h-.036l-6.3 10.89H364.1zm17.094-5.994h-2.412V403h-1.692v-12.816h1.692v5.346h2.448c.168-1.74.768-3.114 1.8-4.122 1.044-1.02 2.388-1.53 4.032-1.53 1.86 0 3.306.612 4.338 1.836 1.044 1.212 1.566 2.802 1.566 4.77 0 1.98-.516 3.612-1.548 4.896-1.02 1.284-2.466 1.926-4.338 1.926-1.788 0-3.192-.588-4.212-1.764-1.008-1.188-1.566-2.7-1.674-4.536zm10.08-.432c0-1.584-.384-2.85-1.152-3.798-.756-.948-1.776-1.422-3.06-1.422-1.344 0-2.376.504-3.096 1.512-.72.996-1.08 2.232-1.08 3.708 0 1.596.378 2.874 1.134 3.834.768.96 1.794 1.44 3.078 1.44 1.26 0 2.268-.48 3.024-1.44.768-.96 1.152-2.238 1.152-3.834zm19.68 1.584c-.144 1.62-.708 2.886-1.692 3.798-.972.9-2.256 1.35-3.852 1.35-1.824 0-3.27-.6-4.338-1.8-1.068-1.212-1.602-2.844-1.602-4.896 0-1.92.534-3.516 1.602-4.788 1.08-1.284 2.568-1.926 4.464-1.926 1.356 0 2.55.366 3.582 1.098 1.032.732 1.608 1.746 1.728 3.042h-1.692c-.192-.84-.612-1.494-1.26-1.962-.648-.48-1.446-.72-2.394-.72-1.428 0-2.508.504-3.24 1.512-.72 1.008-1.08 2.25-1.08 3.726 0 1.632.384 2.916 1.152 3.852.768.936 1.818 1.404 3.15 1.404 1.092 0 1.962-.312 2.61-.936.648-.636 1.038-1.554 1.17-2.754h1.692zM413.09 403v-12.816h1.692v10.854h.036l6.282-10.854h2.142V403h-1.692v-10.89h-.036l-6.3 10.89h-2.124zm23.844-4.842c-.144 1.62-.708 2.886-1.692 3.798-.972.9-2.256 1.35-3.852 1.35-1.824 0-3.27-.6-4.338-1.8-1.068-1.212-1.602-2.844-1.602-4.896 0-1.92.534-3.516 1.602-4.788 1.08-1.284 2.568-1.926 4.464-1.926 1.356 0 2.55.366 3.582 1.098 1.032.732 1.608 1.746 1.728 3.042h-1.692c-.192-.84-.612-1.494-1.26-1.962-.648-.48-1.446-.72-2.394-.72-1.428 0-2.508.504-3.24 1.512-.72 1.008-1.08 2.25-1.08 3.726 0 1.632.384 2.916 1.152 3.852.768.936 1.818 1.404 3.15 1.404 1.092 0 1.962-.312 2.61-.936.648-.636 1.038-1.554 1.17-2.754h1.692zm10.712-7.974v1.476h-4.302V403h-1.692v-11.34h-4.302v-1.476h10.296zm10.318 0v1.476h-7.182v4.014h6.714v1.422h-6.714v4.428h7.272V403h-8.964v-12.816h8.874zm2.148 0h2.34l4.122 10.854 3.978-10.854h2.358V403h-1.602v-10.692L467.294 403h-1.476l-4.086-10.692V403h-1.62v-12.816zm26.822 0h1.692V403h-1.692v-12.816zm-1.602 9.018c0 1.2-.348 2.136-1.044 2.808-.684.66-1.65.99-2.898.99h-5.616v-12.816h1.692v5.202h3.924c1.26 0 2.232.336 2.916 1.008.684.66 1.026 1.596 1.026 2.808zm-1.71 0c0-1.572-.936-2.358-2.808-2.358h-3.348v4.68h3.348c1.872 0 2.808-.774 2.808-2.322zM544.67 6.184V19h-2.142V9.118L538.964 19h-1.836l-3.654-9.882V19h-2.124V6.184h3.15l3.582 10.026 3.456-10.026h3.132zm8.202-.306c1.812 0 3.282.624 4.41 1.872 1.14 1.236 1.71 2.85 1.71 4.842 0 1.992-.57 3.612-1.71 4.86-1.14 1.236-2.622 1.854-4.446 1.854-1.836 0-3.324-.618-4.464-1.854-1.128-1.236-1.692-2.856-1.692-4.86 0-1.944.552-3.546 1.656-4.806 1.116-1.272 2.628-1.908 4.536-1.908zm-.036 1.89c-1.176 0-2.118.438-2.826 1.314-.708.864-1.062 2.022-1.062 3.474 0 1.488.348 2.67 1.044 3.546.708.876 1.668 1.314 2.88 1.314 1.164 0 2.094-.438 2.79-1.314.708-.888 1.062-2.064 1.062-3.528s-.354-2.628-1.062-3.492c-.696-.876-1.638-1.314-2.826-1.314zm19.634 14.418h-2.178V19h-8.352v3.186h-2.178v-5.13h1.242c.492-.864.894-2.124 1.206-3.78.312-1.656.468-3.36.468-5.112v-1.98h8.352v10.872h1.44v5.13zm-3.69-5.13V8.128h-3.906v.774c0 1.548-.144 3.09-.432 4.626-.276 1.524-.618 2.7-1.026 3.528h5.364zm14.448-10.872v1.89h-7.002v3.402h6.498v1.818h-6.498v3.78h7.11V19h-9.342V6.184h9.234zM595.376 19h-2.25V8.128h-3.96l-.234 6.102c-.072 1.704-.42 2.964-1.044 3.78-.612.816-1.41 1.224-2.394 1.224-.432 0-.882-.078-1.35-.234v-1.728c.24.096.534.144.882.144s.63-.084.846-.252c.216-.168.408-.54.576-1.116.168-.588.27-1.398.306-2.43l.252-7.434h8.37V19zm2.612 0V6.184h2.25v9.828l5.508-9.828h2.61V19h-2.25V9.172L600.598 19h-2.61zM611.05 6.184h5.562c1.38 0 2.466.33 3.258.99.804.648 1.206 1.62 1.206 2.916 0 1.224-.372 2.196-1.116 2.916-.744.708-1.758 1.062-3.042 1.062H613.3V19h-2.25V6.184zm2.25 1.872v4.194h3.132c1.632 0 2.448-.702 2.448-2.106 0-1.392-.882-2.088-2.646-2.088H613.3zm15.246-2.178c1.812 0 3.282.624 4.41 1.872 1.14 1.236 1.71 2.85 1.71 4.842 0 1.992-.57 3.612-1.71 4.86-1.14 1.236-2.622 1.854-4.446 1.854-1.836 0-3.324-.618-4.464-1.854-1.128-1.236-1.692-2.856-1.692-4.86 0-1.944.552-3.546 1.656-4.806 1.116-1.272 2.628-1.908 4.536-1.908zm-.036 1.89c-1.176 0-2.118.438-2.826 1.314-.708.864-1.062 2.022-1.062 3.474 0 1.488.348 2.67 1.044 3.546.708.876 1.668 1.314 2.88 1.314 1.164 0 2.094-.438 2.79-1.314.708-.888 1.062-2.064 1.062-3.528s-.354-2.628-1.062-3.492c-.696-.876-1.638-1.314-2.826-1.314zm8.168-1.584h5.85c1.344 0 2.37.294 3.078.882.72.576 1.08 1.356 1.08 2.34a2.87 2.87 0 0 1-.504 1.656c-.336.48-.78.828-1.332 1.044.744.18 1.332.54 1.764 1.08.432.54.648 1.218.648 2.034 0 1.128-.378 2.04-1.134 2.736-.744.696-1.716 1.044-2.916 1.044h-6.534V6.184zm2.196 1.818v3.528h3.06c.864 0 1.5-.132 1.908-.396.408-.276.612-.732.612-1.368 0-.72-.216-1.194-.648-1.422-.42-.228-1.02-.342-1.8-.342h-3.132zm0 5.148v4.014h3.366c.864 0 1.542-.144 2.034-.432.492-.288.738-.81.738-1.566 0-.42-.078-.768-.234-1.044a1.323 1.323 0 0 0-.648-.63 3.144 3.144 0 0 0-.864-.27 6.816 6.816 0 0 0-1.062-.072h-3.33zm16.346-6.984L660.17 19h-2.412l-1.224-3.402h-5.076L650.198 19h-2.322l4.95-12.834h2.394zm.72 7.74l-1.908-5.4-1.998 5.4h3.906zm15.767-7.722V19h-2.25v-5.76h-5.868V19h-2.25V6.184h2.25v5.094h5.868V6.184h2.25zM674.33 19V6.184h2.25v9.828l5.508-9.828h2.61V19h-2.25V9.172L676.94 19h-2.61zm22.242-12.816v1.89h-7.002v3.402h6.498v1.818h-6.498v3.78h7.11V19h-9.342V6.184h9.234zm17.608 8.838c0 1.272-.384 2.256-1.152 2.952-.756.684-1.83 1.026-3.222 1.026h-6.084V6.184h9.432v1.944h-7.182v2.952h3.834c1.404 0 2.484.342 3.24 1.026.756.684 1.134 1.656 1.134 2.916zm-2.25.054c0-.672-.198-1.2-.594-1.584-.396-.384-.948-.576-1.656-.576h-3.708v4.248h3.744c1.476 0 2.214-.696 2.214-2.088zM716.341 19V6.184h2.25v9.828l5.508-9.828h2.61V19h-2.25V9.172L718.951 19h-2.61zm22.549-3.708c0 .432-.09.87-.27 1.314-.18.432-.456.858-.828 1.278-.36.408-.87.744-1.53 1.008s-1.416.396-2.268.396c-1.608 0-2.91-.384-3.906-1.152-.996-.768-1.494-1.896-1.494-3.384h2.214c0 .936.306 1.632.918 2.088.612.444 1.41.666 2.394.666.816 0 1.44-.192 1.872-.576.432-.384.648-.942.648-1.674 0-.672-.216-1.182-.648-1.53-.42-.348-1.002-.522-1.746-.522h-1.566v-1.746h1.566c.588 0 1.074-.186 1.458-.558.396-.372.594-.852.594-1.44 0-.564-.198-1.002-.594-1.314-.396-.324-.954-.486-1.674-.486-1.728 0-2.658.75-2.79 2.25h-2.142c.048-1.368.51-2.382 1.386-3.042.876-.66 2.01-.99 3.402-.99 1.356 0 2.466.294 3.33.882.864.576 1.296 1.44 1.296 2.592 0 .648-.21 1.236-.63 1.764-.42.528-.894.858-1.422.99v.054c.72.144 1.302.504 1.746 1.08.456.564.684 1.248.684 2.052zm12.481-9.108V19h-2.25v-5.76h-5.868V19h-2.25V6.184h2.25v5.094h5.868V6.184h2.25zm11.875 0v1.89h-7.002v3.402h6.498v1.818h-6.498v3.78h7.11V19h-9.342V6.184h9.234zm13.102 7.938c-.12 1.572-.684 2.832-1.692 3.78-.996.936-2.292 1.404-3.888 1.404-1.812 0-3.264-.612-4.356-1.836-1.092-1.224-1.638-2.85-1.638-4.878 0-1.224.234-2.334.702-3.33a5.737 5.737 0 0 1 2.106-2.43c.936-.624 2.034-.936 3.294-.936 1.356 0 2.538.378 3.546 1.134 1.008.744 1.614 1.824 1.818 3.24h-2.232c-.156-.768-.516-1.368-1.08-1.8-.564-.444-1.26-.666-2.088-.666-.852 0-1.578.24-2.178.72a3.987 3.987 0 0 0-1.26 1.782 6.972 6.972 0 0 0-.36 2.286c0 .624.072 1.212.216 1.764.144.552.36 1.062.648 1.53.288.456.678.822 1.17 1.098.504.276 1.086.414 1.746.414 1.908 0 3-1.092 3.276-3.276h2.25zm6.798-1.026v1.908h-5.274v-1.908h5.274zM541.682 28.184V41h-2.25V30.128h-5.868V41h-2.25V28.184h10.368zm2.694 0h5.562c1.38 0 2.466.33 3.258.99.804.648 1.206 1.62 1.206 2.916 0 1.224-.372 2.196-1.116 2.916-.744.708-1.758 1.062-3.042 1.062h-3.618V41h-2.25V28.184zm2.25 1.872v4.194h3.132c1.632 0 2.448-.702 2.448-2.106 0-1.392-.882-2.088-2.646-2.088h-2.934zm15.246-2.178c1.812 0 3.282.624 4.41 1.872 1.14 1.236 1.71 2.85 1.71 4.842 0 1.992-.57 3.612-1.71 4.86-1.14 1.236-2.622 1.854-4.446 1.854-1.836 0-3.324-.618-4.464-1.854-1.128-1.236-1.692-2.856-1.692-4.86 0-1.944.552-3.546 1.656-4.806 1.116-1.272 2.628-1.908 4.536-1.908zm-.036 1.89c-1.176 0-2.118.438-2.826 1.314-.708.864-1.062 2.022-1.062 3.474 0 1.488.348 2.67 1.044 3.546.708.876 1.668 1.314 2.88 1.314 1.164 0 2.094-.438 2.79-1.314.708-.888 1.062-2.064 1.062-3.528s-.354-2.628-1.062-3.492c-.696-.876-1.638-1.314-2.826-1.314zm18.464 9.288h1.404v5.13h-2.178V41h-9.594V28.184h2.25v10.872h5.868V28.184h2.25v10.872zm12.157-10.872v1.89h-7.002v3.402h6.498v1.818h-6.498v3.78h7.11V41h-9.342V28.184h9.234zm13.102 7.938c-.12 1.572-.684 2.832-1.692 3.78-.996.936-2.292 1.404-3.888 1.404-1.812 0-3.264-.612-4.356-1.836-1.092-1.224-1.638-2.85-1.638-4.878 0-1.224.234-2.334.702-3.33a5.737 5.737 0 0 1 2.106-2.43c.936-.624 2.034-.936 3.294-.936 1.356 0 2.538.378 3.546 1.134 1.008.744 1.614 1.824 1.818 3.24h-2.232c-.156-.768-.516-1.368-1.08-1.8-.564-.444-1.26-.666-2.088-.666-.852 0-1.578.24-2.178.72a3.987 3.987 0 0 0-1.26 1.782 6.972 6.972 0 0 0-.36 2.286c0 .624.072 1.212.216 1.764.144.552.36 1.062.648 1.53.288.456.678.822 1.17 1.098.504.276 1.086.414 1.746.414 1.908 0 3-1.092 3.276-3.276h2.25zm12.99 0c-.12 1.572-.684 2.832-1.692 3.78-.996.936-2.292 1.404-3.888 1.404-1.812 0-3.264-.612-4.356-1.836-1.092-1.224-1.638-2.85-1.638-4.878 0-1.224.234-2.334.702-3.33a5.737 5.737 0 0 1 2.106-2.43c.936-.624 2.034-.936 3.294-.936 1.356 0 2.538.378 3.546 1.134 1.008.744 1.614 1.824 1.818 3.24h-2.232c-.156-.768-.516-1.368-1.08-1.8-.564-.444-1.26-.666-2.088-.666-.852 0-1.578.24-2.178.72a3.987 3.987 0 0 0-1.26 1.782 6.972 6.972 0 0 0-.36 2.286c0 .624.072 1.212.216 1.764.144.552.36 1.062.648 1.53.288.456.678.822 1.17 1.098.504.276 1.086.414 1.746.414 1.908 0 3-1.092 3.276-3.276h2.25zm7.536-8.244c1.812 0 3.282.624 4.41 1.872 1.14 1.236 1.71 2.85 1.71 4.842 0 1.992-.57 3.612-1.71 4.86-1.14 1.236-2.622 1.854-4.446 1.854-1.836 0-3.324-.618-4.464-1.854-1.128-1.236-1.692-2.856-1.692-4.86 0-1.944.552-3.546 1.656-4.806 1.116-1.272 2.628-1.908 4.536-1.908zm-.036 1.89c-1.176 0-2.118.438-2.826 1.314-.708.864-1.062 2.022-1.062 3.474 0 1.488.348 2.67 1.044 3.546.708.876 1.668 1.314 2.88 1.314 1.164 0 2.094-.438 2.79-1.314.708-.888 1.062-2.064 1.062-3.528s-.354-2.628-1.062-3.492c-.696-.876-1.638-1.314-2.826-1.314zm8.168-1.584h5.85c1.344 0 2.37.294 3.078.882.72.576 1.08 1.356 1.08 2.34a2.87 2.87 0 0 1-.504 1.656c-.336.48-.78.828-1.332 1.044.744.18 1.332.54 1.764 1.08.432.54.648 1.218.648 2.034 0 1.128-.378 2.04-1.134 2.736-.744.696-1.716 1.044-2.916 1.044h-6.534V28.184zm2.196 1.818v3.528h3.06c.864 0 1.5-.132 1.908-.396.408-.276.612-.732.612-1.368 0-.72-.216-1.194-.648-1.422-.42-.228-1.02-.342-1.8-.342h-3.132zm0 5.148v4.014h3.366c.864 0 1.542-.144 2.034-.432.492-.288.738-.81.738-1.566 0-.42-.078-.768-.234-1.044a1.323 1.323 0 0 0-.648-.63 3.144 3.144 0 0 0-.864-.27 6.816 6.816 0 0 0-1.062-.072h-3.33zm21.391-2.088v1.872l-1.71 1.296 1.71 1.332v1.854l-2.79-2.178v-1.98l2.79-2.196zm-3.51 0v1.836l-1.746 1.314 1.746 1.35v1.872l-2.826-2.232v-1.944l2.826-2.196zm16.684-4.878l-5.13 5.112L671.302 41h-2.79l-4.212-6.138-1.836 1.836V41h-2.232V28.184h2.232v5.814l5.67-5.814h2.844zm7.445-.018L683.373 41h-2.412l-1.224-3.402h-5.076L673.401 41h-2.322l4.95-12.834h2.394zm.72 7.74l-1.908-5.4-1.998 5.4h3.906zm16.164-7.722l-5.13 5.112L695.631 41h-2.79l-4.212-6.138-1.836 1.836V41h-2.232V28.184h2.232v5.814l5.67-5.814h2.844zm15.82 0v1.89h-7.002v3.402h6.498v1.818h-6.498v3.78h7.11V41h-9.342V28.184h9.234zm13.101 7.938c-.12 1.572-.684 2.832-1.692 3.78-.996.936-2.292 1.404-3.888 1.404-1.812 0-3.264-.612-4.356-1.836-1.092-1.224-1.638-2.85-1.638-4.878 0-1.224.234-2.334.702-3.33a5.737 5.737 0 0 1 2.106-2.43c.936-.624 2.034-.936 3.294-.936 1.356 0 2.538.378 3.546 1.134 1.008.744 1.614 1.824 1.818 3.24h-2.232c-.156-.768-.516-1.368-1.08-1.8-.564-.444-1.26-.666-2.088-.666-.852 0-1.578.24-2.178.72a3.987 3.987 0 0 0-1.26 1.782 6.972 6.972 0 0 0-.36 2.286c0 .624.072 1.212.216 1.764.144.552.36 1.062.648 1.53.288.456.678.822 1.17 1.098.504.276 1.086.414 1.746.414 1.908 0 3-1.092 3.276-3.276h2.25zm10.892-7.938v1.944h-4.086V41h-2.25V30.128h-4.086v-1.944h10.422zm11.534 8.838c0 1.272-.384 2.256-1.152 2.952-.756.684-1.83 1.026-3.222 1.026h-5.67V28.184h2.25v4.896h3.42c1.404 0 2.484.342 3.24 1.026.756.684 1.134 1.656 1.134 2.916zm-2.25.054c0-.672-.198-1.2-.594-1.584-.396-.384-.948-.576-1.656-.576h-3.294v4.248h3.33c1.476 0 2.214-.696 2.214-2.088zm7.452-4.032l2.826 2.25v1.944l-2.826 2.178V37.58l1.728-1.296-1.728-1.368v-1.872zm-3.51.018l2.772 2.196v1.962l-2.772 2.16v-1.818l1.71-1.296-1.71-1.332v-1.872zm10.96 5.508v1.836c0 .936-.18 1.686-.54 2.25-.36.576-.996.966-1.908 1.17v-1.08c.744-.228 1.134-.81 1.17-1.746h-1.17v-2.43h2.448zm-222.07 16.492v1.872l-1.71 1.296 1.71 1.332v1.854l-2.79-2.178v-1.98l2.79-2.196zm-3.51 0v1.836l-1.746 1.314 1.746 1.35v1.872l-2.826-2.232v-1.944l2.826-2.196zm16.684-4.878l-5.13 5.112L550.734 63h-2.79l-4.212-6.138-1.836 1.836V63h-2.232V50.184h2.232v5.814l5.67-5.814h2.844zm7.444-.018L562.804 63h-2.412l-1.224-3.402h-5.076L552.832 63h-2.322l4.95-12.834h2.394zm.72 7.74l-1.908-5.4-1.998 5.4h3.906zm16.164-7.722l-5.13 5.112L575.062 63h-2.79l-4.212-6.138-1.836 1.836V63h-2.232V50.184h2.232v5.814l5.67-5.814h2.844zm17.08 8.838c0 1.272-.384 2.256-1.152 2.952-.756.684-1.83 1.026-3.222 1.026h-6.084V50.184h9.432v1.944h-7.182v2.952h3.834c1.404 0 2.484.342 3.24 1.026.756.684 1.134 1.656 1.134 2.916zm-2.25.054c0-.672-.198-1.2-.594-1.584-.396-.384-.948-.576-1.656-.576h-3.708v4.248h3.744c1.476 0 2.214-.696 2.214-2.088zm7.436.324l-4.428-9.216h2.484l3.096 6.876 3.168-6.876h2.43l-4.986 10.206c-.516 1.056-1.068 1.806-1.656 2.25a3.23 3.23 0 0 1-1.998.666 3.644 3.644 0 0 1-1.512-.324v-1.89c.348.216.828.324 1.44.324.384 0 .708-.15.972-.45.264-.3.588-.81.972-1.53l.018-.036zm18.603 6.786h-2.178V63h-8.352v3.186h-2.178v-5.13h1.242c.492-.864.894-2.124 1.206-3.78.312-1.656.468-3.36.468-5.112v-1.98h8.352v10.872h1.44v5.13zm-3.69-5.13v-8.928h-3.906v.774c0 1.548-.144 3.09-.432 4.626-.276 1.524-.618 2.7-1.026 3.528h5.364zm14.448-10.872v1.89h-7.002v3.402h6.498v1.818h-6.498v3.78h7.11V63h-9.342V50.184h9.234zm11.32 0v1.944h-4.086V63h-2.25V52.128h-4.086v-1.944h10.422zm4.73 4.86l2.826 2.25v1.944l-2.826 2.178V59.58l1.728-1.296-1.728-1.368v-1.872zm-3.51.018l2.772 2.196v1.962l-2.772 2.16v-1.818l1.71-1.296-1.71-1.332v-1.872z" fill="#333"/><path d="M101 8v50" stroke="#206DA9" stroke-linecap="round"/><path d="M901 4v54" stroke="#4B5686" stroke-linecap="round"/><path d="M701 185v54" stroke="#5F4C75"/><path d="M601 366v54" stroke="#9D2B42"/><path d="M1001 366v54" stroke="#AA2437"/><path d="M301 185v54" stroke="#744164"/><path d="M201 366v54" stroke="#853856"/><path d="M501 8v50" stroke="#366197" stroke-linecap="round"/><path d="M984 97H138" stroke="url(#a)" stroke-width="5" stroke-linecap="round" stroke-dasharray="6 15"/><path d="M997 98.5a1.5 1.5 0 0 1 0-3v3zm63.5 179.5l15-8.66v17.32l-15-8.66zm138-85v-11h3v11h-3zM1115 98.5H997v-3h118v3zm-41 178h41v3h-41v-3zm124.5-94.5c0-46.116-37.38-83.5-83.5-83.5v-3c47.77 0 86.5 38.727 86.5 86.5h-3zm3 11c0 47.773-38.73 86.5-86.5 86.5v-3c46.12 0 83.5-37.384 83.5-83.5h3z" fill="url(#b)"/><path d="M201 279.5a1.5 1.5 0 0 0 0-3v3zM117 459l-15-8.66v17.32l15-8.66zM3.5 374v-11h-3v11h3zM87 279.5h114v-3H87v3zm16.5 178H87v3h16.5v-3zM3.5 363c0-46.116 37.384-83.5 83.5-83.5v-3C39.227 276.5.5 315.227.5 363h3zm-3 11c0 47.773 38.727 86.5 86.5 86.5v-3c-46.116 0-83.5-37.384-83.5-83.5h-3z" fill="url(#c)"/><path d="M211 278h840.5" stroke="url(#d)" stroke-width="5" stroke-linecap="round" stroke-dasharray="6 15"/><path fill-rule="evenodd" clip-rule="evenodd" d="M1140 449.34l15 8.66-15 8.66v-7.16h-102a1.5 1.5 0 1 1 0-3h102v-7.16zM839.5 458a2.5 2.5 0 0 1-2.5 2.5h-3.044a2.5 2.5 0 0 1 0-5H837a2.5 2.5 0 0 1 2.5 2.5zm-18.262 0a2.5 2.5 0 0 1-2.5 2.5h-6.087a2.5 2.5 0 1 1 0-5h6.087a2.5 2.5 0 0 1 2.5 2.5zm-21.306 0a2.5 2.5 0 0 1-2.5 2.5h-6.087a2.5 2.5 0 1 1 0-5h6.087a2.5 2.5 0 0 1 2.5 2.5zm-21.305 0a2.5 2.5 0 0 1-2.5 2.5h-6.088a2.5 2.5 0 1 1 0-5h6.088a2.5 2.5 0 0 1 2.5 2.5zm-21.306 0a2.5 2.5 0 0 1-2.5 2.5h-6.088a2.5 2.5 0 0 1 0-5h6.088a2.5 2.5 0 0 1 2.5 2.5zm-21.306 0a2.5 2.5 0 0 1-2.5 2.5h-6.087a2.5 2.5 0 1 1 0-5h6.087a2.5 2.5 0 0 1 2.5 2.5zm-21.306 0a2.5 2.5 0 0 1-2.5 2.5h-6.087a2.5 2.5 0 1 1 0-5h6.087a2.5 2.5 0 0 1 2.5 2.5zm-21.305 0a2.5 2.5 0 0 1-2.5 2.5h-6.088a2.5 2.5 0 0 1 0-5h6.088a2.5 2.5 0 0 1 2.5 2.5zm-21.306 0a2.5 2.5 0 0 1-2.5 2.5h-6.087a2.5 2.5 0 1 1 0-5h6.087a2.5 2.5 0 0 1 2.5 2.5zm-21.306 0a2.5 2.5 0 0 1-2.5 2.5h-6.087a2.5 2.5 0 1 1 0-5h6.087a2.5 2.5 0 0 1 2.5 2.5zm-21.305 0a2.5 2.5 0 0 1-2.5 2.5h-6.088a2.5 2.5 0 1 1 0-5h6.088a2.5 2.5 0 0 1 2.5 2.5zm-21.306 0a2.5 2.5 0 0 1-2.5 2.5h-6.088a2.5 2.5 0 0 1 0-5h6.088a2.5 2.5 0 0 1 2.5 2.5zm-21.306 0a2.5 2.5 0 0 1-2.5 2.5h-6.087a2.5 2.5 0 1 1 0-5h6.087a2.5 2.5 0 0 1 2.5 2.5zm-21.306 0a2.5 2.5 0 0 1-2.5 2.5h-6.087a2.5 2.5 0 1 1 0-5h6.087a2.5 2.5 0 0 1 2.5 2.5zm-21.305 0a2.5 2.5 0 0 1-2.5 2.5h-6.088a2.5 2.5 0 0 1 0-5h6.088a2.5 2.5 0 0 1 2.5 2.5zm-21.306 0a2.5 2.5 0 0 1-2.5 2.5h-6.087a2.5 2.5 0 1 1 0-5h6.087a2.5 2.5 0 0 1 2.5 2.5zm-21.306 0a2.5 2.5 0 0 1-2.5 2.5h-6.087a2.5 2.5 0 1 1 0-5h6.087a2.5 2.5 0 0 1 2.5 2.5zm-21.305 0a2.5 2.5 0 0 1-2.5 2.5h-6.088a2.5 2.5 0 1 1 0-5h6.088a2.5 2.5 0 0 1 2.5 2.5zm-21.306 0a2.5 2.5 0 0 1-2.5 2.5h-6.088a2.5 2.5 0 0 1 0-5h6.088a2.5 2.5 0 0 1 2.5 2.5zm-21.306 0a2.5 2.5 0 0 1-2.5 2.5h-6.107a2.5 2.5 0 0 1 0-5h6.107a2.5 2.5 0 0 1 2.5 2.5zm-21.423 0a2.5 2.5 0 0 1-2.5 2.5h-6.126a2.5 2.5 0 1 1 0-5h6.126a2.5 2.5 0 0 1 2.5 2.5zm-21.442 0a2.5 2.5 0 0 1-2.5 2.5h-6.126a2.5 2.5 0 1 1 0-5h6.126a2.5 2.5 0 0 1 2.5 2.5zm-21.442 0a2.5 2.5 0 0 1-2.5 2.5h-6.126a2.5 2.5 0 1 1 0-5h6.126a2.5 2.5 0 0 1 2.5 2.5zm-21.442 0a2.5 2.5 0 0 1-2.5 2.5h-6.127a2.5 2.5 0 0 1 0-5h6.127a2.5 2.5 0 0 1 2.5 2.5zm-21.443 0a2.5 2.5 0 0 1-2.5 2.5h-6.126a2.5 2.5 0 1 1 0-5h6.126a2.5 2.5 0 0 1 2.5 2.5zm-21.442 0a2.5 2.5 0 0 1-2.5 2.5h-6.126a2.5 2.5 0 1 1 0-5h6.126a2.5 2.5 0 0 1 2.5 2.5zm-21.442 0a2.5 2.5 0 0 1-2.5 2.5h-6.126a2.5 2.5 0 1 1 0-5h6.126a2.5 2.5 0 0 1 2.5 2.5zm-21.442 0a2.5 2.5 0 0 1-2.5 2.5h-6.127a2.5 2.5 0 0 1 0-5h6.127a2.5 2.5 0 0 1 2.5 2.5zm-21.443 0a2.5 2.5 0 0 1-2.5 2.5h-6.126a2.5 2.5 0 1 1 0-5h6.126a2.5 2.5 0 0 1 2.5 2.5zm-21.442 0a2.5 2.5 0 0 1-2.5 2.5h-6.126a2.5 2.5 0 1 1 0-5h6.126a2.5 2.5 0 0 1 2.5 2.5zm-21.442 0a2.5 2.5 0 0 1-2.5 2.5h-6.126a2.5 2.5 0 1 1 0-5h6.126a2.5 2.5 0 0 1 2.5 2.5zm-21.442 0a2.5 2.5 0 0 1-2.5 2.5h-6.127a2.5 2.5 0 0 1 0-5h6.127a2.5 2.5 0 0 1 2.5 2.5zm-21.443 0a2.5 2.5 0 0 1-2.5 2.5h-6.126a2.5 2.5 0 1 1 0-5h6.126a2.5 2.5 0 0 1 2.5 2.5zm-21.442 0a2.5 2.5 0 0 1-2.5 2.5H132a2.5 2.5 0 1 1 0-5h3.063a2.5 2.5 0 0 1 2.5 2.5zM967 458l-15-8.66v7.16H850a1.5 1.5 0 0 0 0 3h102v7.16l15-8.66z" fill="url(#e)"/><circle cx="101" cy="8" r="6.5" fill="#fff" stroke="#206DA9" stroke-width="3"/><circle cx="501" cy="8" r="6.5" fill="#F2F2F2" stroke="#366197" stroke-width="3"/><circle cx="901" cy="8" r="6.5" fill="#fff" stroke="#4B5686" stroke-width="3"/><circle cx="701" cy="189" r="6.5" fill="#fff" stroke="#5F4C75" stroke-width="3"/><circle cx="601" cy="370" r="6.5" fill="#fff" stroke="#9D2B42" stroke-width="3"/><circle cx="1001" cy="370" r="6.5" fill="#fff" stroke="#AA2437" stroke-width="3"/><circle cx="301" cy="189" r="6.5" fill="#fff" stroke="#744164" stroke-width="3"/><circle cx="201" cy="370" r="6.5" fill="#fff" stroke="#853856" stroke-width="3"/><path d="M82.705 126.697c13.363 7.637 31.349.28 40.373-15.51 9.025-15.79 6.235-35.022-7.128-42.66-13.362-7.637-31.349-.279-40.373 15.511-9.024 15.79-6.235 35.022 7.128 42.659z" fill="#fff" stroke="#206DA9" stroke-width="3"/><path d="M484.201 126.697c13.363 7.637 31.349.28 40.373-15.51 9.025-15.79 6.235-35.022-7.127-42.66-13.363-7.637-31.349-.279-40.374 15.511-9.024 15.79-6.235 35.022 7.128 42.659z" fill="#fff" stroke="#366197" stroke-width="3"/><path d="M882.705 126.697c13.363 7.637 31.349.28 40.373-15.51 9.025-15.79 6.235-35.022-7.128-42.66-13.362-7.637-31.349-.279-40.373 15.511-9.024 15.79-6.235 35.022 7.128 42.659z" fill="#fff" stroke="#4B5686" stroke-width="3"/><path d="M682.705 307.697c13.363 7.637 31.349.28 40.373-15.51 9.025-15.791 6.235-35.022-7.128-42.66-13.362-7.637-31.349-.279-40.373 15.511-9.024 15.79-6.235 35.022 7.128 42.659z" fill="#fff" stroke="#654970" stroke-width="3"/><path d="M582.705 488.697c13.363 7.637 31.349.28 40.373-15.51 9.025-15.791 6.235-35.022-7.128-42.66-13.362-7.637-31.349-.279-40.373 15.511-9.024 15.79-6.235 35.022 7.128 42.659z" fill="#fff" stroke="#9D2B42" stroke-width="3"/><path d="M982.705 488.697c13.363 7.637 31.345.28 40.375-15.51 9.02-15.791 6.23-35.022-7.13-42.66-13.36-7.637-31.349-.279-40.373 15.511-9.024 15.79-6.235 35.022 7.128 42.659z" fill="#fff" stroke="#AE2234" stroke-width="3"/><path d="M282.705 308.697c13.363 7.637 31.349.28 40.373-15.51 9.025-15.791 6.235-35.022-7.128-42.66-13.362-7.637-31.349-.279-40.373 15.511-9.024 15.79-6.235 35.022 7.128 42.659z" fill="#fff" stroke="#744164" stroke-width="3"/><path d="M182.705 488.697c13.363 7.637 31.349.28 40.373-15.51 9.025-15.791 6.235-35.022-7.128-42.66-13.362-7.637-31.349-.279-40.373 15.511-9.024 15.79-6.235 35.022 7.128 42.659z" fill="#fff" stroke="#853856" stroke-width="3"/><path d="M493.31 85.73c1.28 0 2.37.24 3.27.72.92.46 1.62 1.03 2.1 1.71.48.68.86 1.57 1.14 2.67.28 1.08.45 2.06.51 2.94.06.86.09 1.9.09 3.12 0 1.12-.05 2.13-.15 3.03-.08.9-.27 1.84-.57 2.82-.28.98-.67 1.8-1.17 2.46-.5.64-1.18 1.17-2.04 1.59-.86.42-1.88.63-3.06.63-1.24 0-2.32-.21-3.24-.63-.9-.44-1.6-.98-2.1-1.62-.5-.64-.9-1.45-1.2-2.43-.28-1-.46-1.94-.54-2.82-.08-.9-.12-1.93-.12-3.09 0-1 .02-1.87.06-2.61.06-.74.16-1.57.3-2.49.16-.94.4-1.73.72-2.37.32-.66.73-1.28 1.23-1.86.5-.58 1.15-1.02 1.95-1.32.82-.3 1.76-.45 2.82-.45zm1.65 2.64c-.48-.24-1.03-.36-1.65-.36-.62 0-1.17.12-1.65.36-.48.22-.87.48-1.17.78-.3.3-.56.75-.78 1.35-.22.58-.38 1.07-.48 1.47-.08.4-.15.98-.21 1.74-.06.74-.09 1.27-.09 1.59v1.53c0 .7.01 1.28.03 1.74.02.46.07 1.06.15 1.8.08.74.22 1.36.42 1.86.2.48.45.97.75 1.47.3.48.71.85 1.23 1.11.54.24 1.16.36 1.86.36.6 0 1.13-.11 1.59-.33.48-.22.87-.48 1.17-.78.3-.3.55-.72.75-1.26.22-.56.38-1.04.48-1.44.1-.42.17-.97.21-1.65.06-.7.09-1.21.09-1.53.02-.34.03-.83.03-1.47v-1.5c0-.3-.03-.82-.09-1.56-.06-.74-.14-1.31-.24-1.71-.08-.4-.23-.89-.45-1.47s-.48-1.02-.78-1.32c-.3-.3-.69-.56-1.17-.78zm17.45-2.61V107h-2.79V91.61h-5.34v-1.92c1.72 0 3.08-.28 4.08-.84 1.02-.56 1.7-1.59 2.04-3.09h2.01z" fill="#366197"/><path d="M891.31 85.73c1.28 0 2.37.24 3.27.72.92.46 1.62 1.03 2.1 1.71.48.68.86 1.57 1.14 2.67.28 1.08.45 2.06.51 2.94.06.86.09 1.9.09 3.12 0 1.12-.05 2.13-.15 3.03-.08.9-.27 1.84-.57 2.82-.28.98-.67 1.8-1.17 2.46-.5.64-1.18 1.17-2.04 1.59-.86.42-1.88.63-3.06.63-1.24 0-2.32-.21-3.24-.63-.9-.44-1.6-.98-2.1-1.62-.5-.64-.9-1.45-1.2-2.43-.28-1-.46-1.94-.54-2.82-.08-.9-.12-1.93-.12-3.09 0-1 .02-1.87.06-2.61.06-.74.16-1.57.3-2.49.16-.94.4-1.73.72-2.37.32-.66.73-1.28 1.23-1.86.5-.58 1.15-1.02 1.95-1.32.82-.3 1.76-.45 2.82-.45zm1.65 2.64c-.48-.24-1.03-.36-1.65-.36-.62 0-1.17.12-1.65.36-.48.22-.87.48-1.17.78-.3.3-.56.75-.78 1.35-.22.58-.38 1.07-.48 1.47-.08.4-.15.98-.21 1.74-.06.74-.09 1.27-.09 1.59v1.53c0 .7.01 1.28.03 1.74.02.46.07 1.06.15 1.8.08.74.22 1.36.42 1.86.2.48.45.97.75 1.47.3.48.71.85 1.23 1.11.54.24 1.16.36 1.86.36.6 0 1.13-.11 1.59-.33.48-.22.87-.48 1.17-.78.3-.3.55-.72.75-1.26.22-.56.38-1.04.48-1.44.1-.42.17-.97.21-1.65.06-.7.09-1.21.09-1.53.02-.34.03-.83.03-1.47v-1.5c0-.3-.03-.82-.09-1.56-.06-.74-.14-1.31-.24-1.71-.08-.4-.23-.89-.45-1.47s-.48-1.02-.78-1.32c-.3-.3-.69-.56-1.17-.78zm21.32 16.32V107h-13.86c.06-1.18.24-2.21.54-3.09.3-.88.76-1.67 1.38-2.37.64-.72 1.26-1.31 1.86-1.77.6-.46 1.45-1.03 2.55-1.71 1.72-1.08 2.85-1.89 3.39-2.43 1.12-1.1 1.68-2.32 1.68-3.66 0-1.18-.38-2.14-1.14-2.88-.76-.76-1.75-1.14-2.97-1.14-1.46 0-2.51.51-3.15 1.53-.62 1-.95 2.27-.99 3.81h-2.58v-.57c0-2.1.62-3.79 1.86-5.07 1.26-1.28 2.92-1.92 4.98-1.92 2.02 0 3.63.56 4.83 1.68 1.2 1.12 1.8 2.62 1.8 4.5 0 .8-.14 1.56-.42 2.28-.26.7-.56 1.29-.9 1.77-.32.48-.82.99-1.5 1.53-.66.54-1.21.96-1.65 1.26-.44.28-1.07.67-1.89 1.17-1.64.98-2.73 1.74-3.27 2.28-.76.76-1.25 1.59-1.47 2.49h10.92z" fill="#4B5686"/><path d="M691.31 268.73c1.28 0 2.37.24 3.27.72.92.46 1.62 1.03 2.1 1.71.48.68.86 1.57 1.14 2.67.28 1.08.45 2.06.51 2.94.06.86.09 1.9.09 3.12 0 1.12-.05 2.13-.15 3.03-.08.9-.27 1.84-.57 2.82-.28.98-.67 1.8-1.17 2.46-.5.64-1.18 1.17-2.04 1.59-.86.42-1.88.63-3.06.63-1.24 0-2.32-.21-3.24-.63-.9-.44-1.6-.98-2.1-1.62-.5-.64-.9-1.45-1.2-2.43-.28-1-.46-1.94-.54-2.82-.08-.9-.12-1.93-.12-3.09 0-1 .02-1.87.06-2.61.06-.74.16-1.57.3-2.49.16-.94.4-1.73.72-2.37.32-.66.73-1.28 1.23-1.86.5-.58 1.15-1.02 1.95-1.32.82-.3 1.76-.45 2.82-.45zm1.65 2.64c-.48-.24-1.03-.36-1.65-.36-.62 0-1.17.12-1.65.36-.48.22-.87.48-1.17.78-.3.3-.56.75-.78 1.35-.22.58-.38 1.07-.48 1.47-.08.4-.15.98-.21 1.74-.06.74-.09 1.27-.09 1.59v1.53c0 .7.01 1.28.03 1.74.02.46.07 1.06.15 1.8.08.74.22 1.36.42 1.86.2.48.45.97.75 1.47.3.48.71.85 1.23 1.11.54.24 1.16.36 1.86.36.6 0 1.13-.11 1.59-.33.48-.22.87-.48 1.17-.78.3-.3.55-.72.75-1.26.22-.56.38-1.04.48-1.44.1-.42.17-.97.21-1.65.06-.7.09-1.21.09-1.53.02-.34.03-.83.03-1.47v-1.5c0-.3-.03-.82-.09-1.56-.06-.74-.14-1.31-.24-1.71-.08-.4-.23-.89-.45-1.47s-.48-1.02-.78-1.32c-.3-.3-.69-.56-1.17-.78zm8.09 4.26c.06-2.2.67-3.9 1.83-5.1 1.18-1.2 2.82-1.8 4.92-1.8 1.88 0 3.39.51 4.53 1.53 1.14 1.02 1.71 2.36 1.71 4.02 0 1-.26 1.9-.78 2.7-.5.78-1.21 1.36-2.13 1.74 1.2.28 2.15.88 2.85 1.8.7.92 1.05 2.03 1.05 3.33.02 1.96-.66 3.55-2.04 4.77-1.36 1.2-3.13 1.8-5.31 1.8-2.16 0-3.89-.59-5.19-1.77-1.28-1.2-1.92-2.81-1.92-4.83v-.39h2.52c.06 1.52.49 2.69 1.29 3.51.8.82 1.91 1.23 3.33 1.23 1.36 0 2.46-.38 3.3-1.14.86-.78 1.29-1.78 1.29-3 0-1.24-.43-2.23-1.29-2.97-.84-.74-1.98-1.11-3.42-1.11-.36 0-.82.04-1.38.12v-2.16c.28.02.57.03.87.03 1.32 0 2.36-.31 3.12-.93.78-.64 1.17-1.5 1.17-2.58 0-1.04-.34-1.88-1.02-2.52-.66-.64-1.55-.96-2.67-.96-1.28 0-2.28.41-3 1.23-.72.8-1.1 1.95-1.14 3.45h-2.49z" fill="#654970"/><path d="M592.31 447.73c1.28 0 2.37.24 3.27.72.92.46 1.62 1.03 2.1 1.71.48.68.86 1.57 1.14 2.67.28 1.08.45 2.06.51 2.94.06.86.09 1.9.09 3.12 0 1.12-.05 2.13-.15 3.03-.08.9-.27 1.84-.57 2.82-.28.98-.67 1.8-1.17 2.46-.5.64-1.18 1.17-2.04 1.59-.86.42-1.88.63-3.06.63-1.24 0-2.32-.21-3.24-.63-.9-.44-1.6-.98-2.1-1.62-.5-.64-.9-1.45-1.2-2.43-.28-1-.46-1.94-.54-2.82-.08-.9-.12-1.93-.12-3.09 0-1 .02-1.87.06-2.61.06-.74.16-1.57.3-2.49.16-.94.4-1.73.72-2.37.32-.66.73-1.28 1.23-1.86.5-.58 1.15-1.02 1.95-1.32.82-.3 1.76-.45 2.82-.45zm1.65 2.64c-.48-.24-1.03-.36-1.65-.36-.62 0-1.17.12-1.65.36-.48.22-.87.48-1.17.78-.3.3-.56.75-.78 1.35-.22.58-.38 1.07-.48 1.47-.08.4-.15.98-.21 1.74-.06.74-.09 1.27-.09 1.59v1.53c0 .7.01 1.28.03 1.74.02.46.07 1.06.15 1.8.08.74.22 1.36.42 1.86.2.48.45.97.75 1.47.3.48.71.85 1.23 1.11.54.24 1.16.36 1.86.36.6 0 1.13-.11 1.59-.33.48-.22.87-.48 1.17-.78.3-.3.55-.72.75-1.26.22-.56.38-1.04.48-1.44.1-.42.17-.97.21-1.65.06-.7.09-1.21.09-1.53.02-.34.03-.83.03-1.47v-1.5c0-.3-.03-.82-.09-1.56-.06-.74-.14-1.31-.24-1.71-.08-.4-.23-.89-.45-1.47s-.48-1.02-.78-1.32c-.3-.3-.69-.56-1.17-.78zm21.71 2.88h-2.61c-.14-1.02-.52-1.82-1.14-2.4-.6-.6-1.42-.9-2.46-.9-.72 0-1.37.13-1.95.39-.56.26-1.02.64-1.38 1.14-.34.48-.63.97-.87 1.47s-.42 1.11-.54 1.83c-.12.72-.2 1.31-.24 1.77-.04.44-.08.98-.12 1.62 1.16-1.86 2.92-2.79 5.28-2.79 1.98 0 3.57.63 4.77 1.89 1.22 1.24 1.83 2.88 1.83 4.92 0 2.1-.64 3.83-1.92 5.19-1.26 1.36-2.95 2.04-5.07 2.04-4.94 0-7.41-3.52-7.41-10.56 0-1.1.06-2.14.18-3.12.14-.98.38-1.97.72-2.97.36-1.02.82-1.89 1.38-2.61.56-.72 1.3-1.3 2.22-1.74.94-.46 2.01-.69 3.21-.69 1.78 0 3.21.49 4.29 1.47 1.08.96 1.69 2.31 1.83 4.05zm-6.48 4.35c-1.3 0-2.35.44-3.15 1.32-.8.86-1.2 1.99-1.2 3.39 0 1.46.4 2.63 1.2 3.51.82.88 1.89 1.32 3.21 1.32 1.28 0 2.31-.42 3.09-1.26.8-.86 1.2-2.01 1.2-3.45 0-1.48-.39-2.65-1.17-3.51-.78-.88-1.84-1.32-3.18-1.32z" fill="#9D2B42"/><path d="M992.31 447.73c1.28 0 2.37.24 3.27.72.92.46 1.62 1.03 2.1 1.71.48.68.86 1.57 1.14 2.67.28 1.08.45 2.06.51 2.94.06.86.09 1.9.09 3.12 0 1.12-.05 2.13-.15 3.03-.08.9-.27 1.84-.57 2.82-.28.98-.67 1.8-1.17 2.46-.5.64-1.18 1.17-2.04 1.59-.86.42-1.88.63-3.06.63-1.24 0-2.32-.21-3.24-.63-.9-.44-1.6-.98-2.1-1.62-.5-.64-.9-1.45-1.2-2.43-.28-1-.46-1.94-.54-2.82-.08-.9-.12-1.93-.12-3.09 0-1 .02-1.87.06-2.61.06-.74.16-1.57.3-2.49.16-.94.4-1.73.72-2.37.32-.66.73-1.28 1.23-1.86.5-.58 1.15-1.02 1.95-1.32.82-.3 1.76-.45 2.82-.45zm1.65 2.64c-.48-.24-1.03-.36-1.65-.36-.62 0-1.17.12-1.65.36-.48.22-.87.48-1.17.78-.3.3-.56.75-.78 1.35-.22.58-.38 1.07-.48 1.47-.08.4-.15.98-.21 1.74-.06.74-.09 1.27-.09 1.59v1.53c0 .7.01 1.28.03 1.74.02.46.07 1.06.15 1.8.08.74.22 1.36.42 1.86.2.48.45.97.75 1.47.3.48.71.85 1.23 1.11.54.24 1.16.36 1.86.36.6 0 1.13-.11 1.59-.33.48-.22.87-.48 1.17-.78.3-.3.55-.72.75-1.26.22-.56.38-1.04.48-1.44.1-.42.17-.97.21-1.65.06-.7.09-1.21.09-1.53.02-.34.03-.83.03-1.47v-1.5c0-.3-.03-.82-.09-1.56-.06-.74-.14-1.31-.24-1.71-.08-.4-.23-.89-.45-1.47s-.48-1.02-.78-1.32c-.3-.3-.69-.56-1.17-.78zm21.83-2.25v2.19c-4.64 5.3-7.35 11.53-8.13 18.69h-2.82c.24-3.28 1.1-6.53 2.58-9.75 1.5-3.22 3.42-6.12 5.76-8.7h-11.13v-2.43h13.74z" fill="#AE2234"/><path d="M291.31 268.73c1.28 0 2.37.24 3.27.72.92.46 1.62 1.03 2.1 1.71.48.68.86 1.57 1.14 2.67.28 1.08.45 2.06.51 2.94.06.86.09 1.9.09 3.12 0 1.12-.05 2.13-.15 3.03-.08.9-.27 1.84-.57 2.82-.28.98-.67 1.8-1.17 2.46-.5.64-1.18 1.17-2.04 1.59-.86.42-1.88.63-3.06.63-1.24 0-2.32-.21-3.24-.63-.9-.44-1.6-.98-2.1-1.62-.5-.64-.9-1.45-1.2-2.43-.28-1-.46-1.94-.54-2.82-.08-.9-.12-1.93-.12-3.09 0-1 .02-1.87.06-2.61.06-.74.16-1.57.3-2.49.16-.94.4-1.73.72-2.37.32-.66.73-1.28 1.23-1.86.5-.58 1.15-1.02 1.95-1.32.82-.3 1.76-.45 2.82-.45zm1.65 2.64c-.48-.24-1.03-.36-1.65-.36-.62 0-1.17.12-1.65.36-.48.22-.87.48-1.17.78-.3.3-.56.75-.78 1.35-.22.58-.38 1.07-.48 1.47-.08.4-.15.98-.21 1.74-.06.74-.09 1.27-.09 1.59v1.53c0 .7.01 1.28.03 1.74.02.46.07 1.06.15 1.8.08.74.22 1.36.42 1.86.2.48.45.97.75 1.47.3.48.71.85 1.23 1.11.54.24 1.16.36 1.86.36.6 0 1.13-.11 1.59-.33.48-.22.87-.48 1.17-.78.3-.3.55-.72.75-1.26.22-.56.38-1.04.48-1.44.1-.42.17-.97.21-1.65.06-.7.09-1.21.09-1.53.02-.34.03-.83.03-1.47v-1.5c0-.3-.03-.82-.09-1.56-.06-.74-.14-1.31-.24-1.71-.08-.4-.23-.89-.45-1.47s-.48-1.02-.78-1.32c-.3-.3-.69-.56-1.17-.78zm22.16 11.34v2.16h-2.88V290h-2.4v-5.13h-9.33v-2.4l9.66-13.74h2.07v13.98h2.88zm-5.28 0v-10.23l-7.08 10.23h7.08z" fill="#744164"/><path d="M192.31 447.73c1.28 0 2.37.24 3.27.72.92.46 1.62 1.03 2.1 1.71.48.68.86 1.57 1.14 2.67.28 1.08.45 2.06.51 2.94.06.86.09 1.9.09 3.12 0 1.12-.05 2.13-.15 3.03-.08.9-.27 1.84-.57 2.82-.28.98-.67 1.8-1.17 2.46-.5.64-1.18 1.17-2.04 1.59-.86.42-1.88.63-3.06.63-1.24 0-2.32-.21-3.24-.63-.9-.44-1.6-.98-2.1-1.62-.5-.64-.9-1.45-1.2-2.43-.28-1-.46-1.94-.54-2.82-.08-.9-.12-1.93-.12-3.09 0-1 .02-1.87.06-2.61.06-.74.16-1.57.3-2.49.16-.94.4-1.73.72-2.37.32-.66.73-1.28 1.23-1.86.5-.58 1.15-1.02 1.95-1.32.82-.3 1.76-.45 2.82-.45zm1.65 2.64c-.48-.24-1.03-.36-1.65-.36-.62 0-1.17.12-1.65.36-.48.22-.87.48-1.17.78-.3.3-.56.75-.78 1.35-.22.58-.38 1.07-.48 1.47-.08.4-.15.98-.21 1.74-.06.74-.09 1.27-.09 1.59v1.53c0 .7.01 1.28.03 1.74.02.46.07 1.06.15 1.8.08.74.22 1.36.42 1.86.2.48.45.97.75 1.47.3.48.71.85 1.23 1.11.54.24 1.16.36 1.86.36.6 0 1.13-.11 1.59-.33.48-.22.87-.48 1.17-.78.3-.3.55-.72.75-1.26.22-.56.38-1.04.48-1.44.1-.42.17-.97.21-1.65.06-.7.09-1.21.09-1.53.02-.34.03-.83.03-1.47v-1.5c0-.3-.03-.82-.09-1.56-.06-.74-.14-1.31-.24-1.71-.08-.4-.23-.89-.45-1.47s-.48-1.02-.78-1.32c-.3-.3-.69-.56-1.17-.78zm20.84-2.25v2.25h-8.61l-1.26 6.33c1.04-1.12 2.47-1.68 4.29-1.68 2 0 3.62.65 4.86 1.95 1.24 1.28 1.86 2.95 1.86 5.01 0 2.16-.68 3.94-2.04 5.34-1.36 1.4-3.13 2.1-5.31 2.1-2.02 0-3.66-.56-4.92-1.68-1.24-1.12-1.89-2.61-1.95-4.47h2.58c.1 1.18.55 2.14 1.35 2.88.8.74 1.79 1.11 2.97 1.11 1.32 0 2.42-.48 3.3-1.44.88-.96 1.32-2.15 1.32-3.57 0-1.48-.43-2.68-1.29-3.6-.86-.94-1.98-1.41-3.36-1.41-1.76 0-3.12.69-4.08 2.07l-2.19-.15 1.98-11.04h10.5z" fill="#853856"/><path d="M92.31 85.73c1.28 0 2.37.24 3.27.72.92.46 1.62 1.03 2.1 1.71.48.68.86 1.57 1.14 2.67.28 1.08.45 2.06.51 2.94.06.86.09 1.9.09 3.12 0 1.12-.05 2.13-.15 3.03-.08.9-.27 1.84-.57 2.82-.28.98-.67 1.8-1.17 2.46-.5.64-1.18 1.17-2.04 1.59-.86.42-1.88.63-3.06.63-1.24 0-2.32-.21-3.24-.63-.9-.44-1.6-.98-2.1-1.62-.5-.64-.9-1.45-1.2-2.43-.28-1-.46-1.94-.54-2.82-.08-.9-.12-1.93-.12-3.09 0-1 .02-1.87.06-2.61.06-.74.16-1.57.3-2.49.16-.94.4-1.73.72-2.37.32-.66.73-1.28 1.23-1.86.5-.58 1.15-1.02 1.95-1.32.82-.3 1.76-.45 2.82-.45zm1.65 2.64c-.48-.24-1.03-.36-1.65-.36-.62 0-1.17.12-1.65.36-.48.22-.87.48-1.17.78-.3.3-.56.75-.78 1.35-.22.58-.38 1.07-.48 1.47-.08.4-.15.98-.21 1.74-.06.74-.09 1.27-.09 1.59v1.53c0 .7.01 1.28.03 1.74.02.46.07 1.06.15 1.8.08.74.22 1.36.42 1.86.2.48.45.97.75 1.47.3.48.71.85 1.23 1.11.54.24 1.16.36 1.86.36.6 0 1.13-.11 1.59-.33.48-.22.87-.48 1.17-.78.3-.3.55-.72.75-1.26.22-.56.38-1.04.48-1.44.1-.42.17-.97.21-1.65.06-.7.09-1.21.09-1.53.02-.34.03-.83.03-1.47v-1.5c0-.3-.03-.82-.09-1.56-.06-.74-.14-1.31-.24-1.71-.08-.4-.23-.89-.45-1.47s-.48-1.02-.78-1.32c-.3-.3-.69-.56-1.17-.78zm15.02-2.64c1.28 0 2.37.24 3.27.72.92.46 1.62 1.03 2.1 1.71.48.68.86 1.57 1.14 2.67.28 1.08.45 2.06.51 2.94.06.86.09 1.9.09 3.12 0 1.12-.05 2.13-.15 3.03-.08.9-.27 1.84-.57 2.82-.28.98-.67 1.8-1.17 2.46-.5.64-1.18 1.17-2.04 1.59-.86.42-1.88.63-3.06.63-1.24 0-2.32-.21-3.24-.63-.9-.44-1.6-.98-2.1-1.62-.5-.64-.9-1.45-1.2-2.43-.28-1-.46-1.94-.54-2.82-.08-.9-.12-1.93-.12-3.09 0-1 .02-1.87.06-2.61.06-.74.16-1.57.3-2.49.16-.94.4-1.73.72-2.37.32-.66.73-1.28 1.23-1.86.5-.58 1.15-1.02 1.95-1.32.82-.3 1.76-.45 2.82-.45zm1.65 2.64c-.48-.24-1.03-.36-1.65-.36-.62 0-1.17.12-1.65.36-.48.22-.87.48-1.17.78-.3.3-.56.75-.78 1.35-.22.58-.38 1.07-.48 1.47-.08.4-.15.98-.21 1.74-.06.74-.09 1.27-.09 1.59v1.53c0 .7.01 1.28.03 1.74.02.46.07 1.06.15 1.8.08.74.22 1.36.42 1.86.2.48.45.97.75 1.47.3.48.71.85 1.23 1.11.54.24 1.16.36 1.86.36.6 0 1.13-.11 1.59-.33.48-.22.87-.48 1.17-.78.3-.3.55-.72.75-1.26.22-.56.38-1.04.48-1.44.1-.42.17-.97.21-1.65.06-.7.09-1.21.09-1.53.02-.34.03-.83.03-1.47v-1.5c0-.3-.03-.82-.09-1.56-.06-.74-.14-1.31-.24-1.71-.08-.4-.23-.89-.45-1.47s-.48-1.02-.78-1.32c-.3-.3-.69-.56-1.17-.78z" fill="#206DA9"/><defs><linearGradient id="a" x1="138" y1="97.001" x2="984" y2="97" gradientUnits="userSpaceOnUse"><stop stop-color="#206DA9"/><stop offset="1" stop-color="#4B5686"/></linearGradient><linearGradient id="b" x1="1098.5" y1="278" x2="1098.5" y2="97" gradientUnits="userSpaceOnUse"><stop stop-color="#5F4C75"/><stop offset="1" stop-color="#4B5686"/></linearGradient><linearGradient id="c" x1="101.5" y1="459" x2="101.5" y2="278" gradientUnits="userSpaceOnUse"><stop stop-color="#853856"/><stop offset="1" stop-color="#744164"/></linearGradient><linearGradient id="d" x1="1043.12" y1="277.899" x2="211.122" y2="267.899" gradientUnits="userSpaceOnUse"><stop stop-color="#5F4C75"/><stop offset="1" stop-color="#744164"/></linearGradient><linearGradient id="e" x1="143" y1="450.663" x2="1105.97" y2="473.55" gradientUnits="userSpaceOnUse"><stop stop-color="#853856"/><stop offset="1" stop-color="#CE2635"/></linearGradient></defs></svg>