<svg width="285" height="849" viewBox="0 0 285 849" fill="none" xmlns="http://www.w3.org/2000/svg"><path d="M75.822 8.974c0 1.223-.425 2.175-1.274 2.856-.85.681-1.857 1.031-3.024 1.05V14h-1.75v-1.12a5.556 5.556 0 0 1-2.058-.434 3.868 3.868 0 0 1-1.596-1.316c-.43-.607-.644-1.325-.644-2.156 0-1.213.41-2.17 1.232-2.87.83-.7 1.853-1.069 3.066-1.106v-.966h1.75v.966c1.232.047 2.254.42 3.066 1.12.821.69 1.232 1.643 1.232 2.856zm-1.75 0c0-1.465-.85-2.287-2.548-2.464v4.858c.821-.103 1.451-.336 1.89-.7.439-.364.658-.929.658-1.694zm-4.298 2.394V6.51c-1.699.177-2.548.999-2.548 2.464 0 .765.22 1.33.658 1.694.439.364 1.069.597 1.89.7zm11.867-7.574c1.41 0 2.553.485 3.43 1.456.887.961 1.33 2.217 1.33 3.766 0 1.55-.443 2.81-1.33 3.78-.887.961-2.04 1.442-3.458 1.442-1.428 0-2.585-.48-3.472-1.442-.877-.961-1.316-2.221-1.316-3.78 0-1.512.43-2.758 1.288-3.738.868-.99 2.044-1.484 3.528-1.484zm-.028 1.47c-.915 0-1.647.34-2.198 1.022-.55.672-.826 1.573-.826 2.702 0 1.157.27 2.077.812 2.758.55.681 1.297 1.022 2.24 1.022.905 0 1.629-.34 2.17-1.022.55-.69.826-1.605.826-2.744 0-1.139-.275-2.044-.826-2.716-.541-.681-1.274-1.022-2.198-1.022zm6.395-1.232h4.326c1.073 0 1.918.257 2.534.77.625.504.938 1.26.938 2.268 0 .952-.29 1.708-.868 2.268-.579.55-1.368.826-2.366.826h-2.814V14h-1.75V4.032zm1.75 1.456V8.75h2.436c1.269 0 1.904-.546 1.904-1.638 0-1.083-.686-1.624-2.058-1.624h-2.282zm17.92-1.456V14h-1.666V6.314L103.24 14h-1.428L98.97 6.314V14h-1.652V4.032h2.45l2.786 7.798 2.688-7.798h2.436zM109.731 14V4.032h1.75v7.644l4.284-7.644h2.03V14h-1.75V6.356L111.761 14h-2.03zm10.16-9.968h4.326c1.073 0 1.918.257 2.534.77.625.504.938 1.26.938 2.268 0 .952-.29 1.708-.868 2.268-.579.55-1.368.826-2.366.826h-2.814V14h-1.75V4.032zm1.75 1.456V8.75h2.436c1.269 0 1.904-.546 1.904-1.638 0-1.083-.686-1.624-2.058-1.624h-2.282zm11.857-1.694c1.41 0 2.553.485 3.43 1.456.887.961 1.33 2.217 1.33 3.766 0 1.55-.443 2.81-1.33 3.78-.886.961-2.039 1.442-3.458 1.442-1.428 0-2.585-.48-3.472-1.442-.877-.961-1.316-2.221-1.316-3.78 0-1.512.43-2.758 1.288-3.738.868-.99 2.044-1.484 3.528-1.484zm-.028 1.47c-.914 0-1.647.34-2.198 1.022-.55.672-.826 1.573-.826 2.702 0 1.157.271 2.077.812 2.758.551.681 1.298 1.022 2.24 1.022.906 0 1.629-.34 2.17-1.022.551-.69.826-1.605.826-2.744 0-1.139-.275-2.044-.826-2.716-.541-.681-1.274-1.022-2.198-1.022zm6.353-1.232h4.55c1.045 0 1.843.229 2.394.686.56.448.84 1.055.84 1.82 0 .476-.131.905-.392 1.288a2.227 2.227 0 0 1-1.036.812c.579.14 1.036.42 1.372.84.336.42.504.947.504 1.582 0 .877-.294 1.587-.882 2.128-.579.541-1.335.812-2.268.812h-5.082V4.032zm1.708 1.414V8.19h2.38c.672 0 1.167-.103 1.484-.308.317-.215.476-.57.476-1.064 0-.56-.168-.929-.504-1.106-.327-.177-.793-.266-1.4-.266h-2.436zm0 4.004v3.122h2.618c.672 0 1.199-.112 1.582-.336.383-.224.574-.63.574-1.218 0-.327-.061-.597-.182-.812a1.029 1.029 0 0 0-.504-.49 2.452 2.452 0 0 0-.672-.21 5.302 5.302 0 0 0-.826-.056h-2.59zm12.714-5.432l3.85 9.982h-1.876l-.952-2.646h-3.948l-.98 2.646h-1.806l3.85-9.982h1.862zm.56 6.02l-1.484-4.2-1.554 4.2h3.038zm12.263-6.006V14h-1.75V9.52h-4.564V14h-1.75V4.032h1.75v3.962h4.564V4.032h1.75zm2.04 9.968V4.032h1.75v7.644l4.284-7.644h2.03V14h-1.75V6.356L171.138 14h-2.03zm17.299-9.968v1.47h-5.446v2.646h5.054v1.414h-5.054v2.94h5.53V14h-7.266V4.032h7.182zm14.451 12.446h-1.694V14h-6.496v2.478h-1.694v-3.99h.966c.383-.672.696-1.652.938-2.94a21.4 21.4 0 0 0 .364-3.976v-1.54h6.496v8.456h1.12v3.99zm-2.87-3.99V5.544h-3.038v.602c0 1.204-.112 2.403-.336 3.598-.214 1.185-.48 2.1-.798 2.744h4.172zm8.368-8.694c1.409 0 2.552.485 3.43 1.456.886.961 1.33 2.217 1.33 3.766 0 1.55-.444 2.81-1.33 3.78-.887.961-2.04 1.442-3.458 1.442-1.428 0-2.586-.48-3.472-1.442-.878-.961-1.316-2.221-1.316-3.78 0-1.512.429-2.758 1.288-3.738.868-.99 2.044-1.484 3.528-1.484zm-.028 1.47c-.915 0-1.648.34-2.198 1.022-.551.672-.826 1.573-.826 2.702 0 1.157.27 2.077.812 2.758.55.681 1.297 1.022 2.24 1.022.905 0 1.628-.34 2.17-1.022.55-.69.826-1.605.826-2.744 0-1.139-.276-2.044-.826-2.716-.542-.681-1.274-1.022-2.198-1.022zm6.395-1.232h4.326c1.073 0 1.918.257 2.534.77.625.504.938 1.26.938 2.268 0 .952-.29 1.708-.868 2.268-.579.55-1.368.826-2.366.826h-2.814V14h-1.75V4.032zm1.75 1.456V8.75h2.436c1.269 0 1.904-.546 1.904-1.638 0-1.083-.686-1.624-2.058-1.624h-2.282zm11.857-1.694c1.41 0 2.553.485 3.43 1.456.887.961 1.33 2.217 1.33 3.766 0 1.55-.443 2.81-1.33 3.78-.886.961-2.039 1.442-3.458 1.442-1.428 0-2.585-.48-3.472-1.442-.877-.961-1.316-2.221-1.316-3.78 0-1.512.43-2.758 1.288-3.738.868-.99 2.044-1.484 3.528-1.484zm-.028 1.47c-.914 0-1.647.34-2.198 1.022-.55.672-.826 1.573-.826 2.702 0 1.157.271 2.077.812 2.758.551.681 1.298 1.022 2.24 1.022.906 0 1.629-.34 2.17-1.022.551-.69.826-1.605.826-2.744 0-1.139-.275-2.044-.826-2.716-.541-.681-1.274-1.022-2.198-1.022zm10.419 4.256L233.459 14h-2.184l4.312-5.74-3.836-4.228h2.156l3.892 4.48v-4.48h1.75v4.48l3.892-4.48h2.156l-3.836 4.228 4.312 5.74h-2.184l-3.262-4.48-1.078 1.204V14h-1.75v-3.276l-1.078-1.204zm18.34-5.488V14h-1.75V9.52h-4.564V14h-1.75V4.032h1.75v3.962h4.564V4.032h1.75zm6.365-.238c1.409 0 2.553.485 3.43 1.456.887.961 1.33 2.217 1.33 3.766 0 1.55-.443 2.81-1.33 3.78-.887.961-2.039 1.442-3.458 1.442-1.428 0-2.585-.48-3.472-1.442-.877-.961-1.316-2.221-1.316-3.78 0-1.512.429-2.758 1.288-3.738.868-.99 2.044-1.484 3.528-1.484zm-.028 1.47c-.915 0-1.647.34-2.198 1.022-.551.672-.826 1.573-.826 2.702 0 1.157.271 2.077.812 2.758.551.681 1.297 1.022 2.24 1.022.905 0 1.629-.34 2.17-1.022.551-.69.826-1.605.826-2.744 0-1.139-.275-2.044-.826-2.716-.541-.681-1.274-1.022-2.198-1.022zm12.667-3.752c-.075.672-.299 1.171-.672 1.498-.373.317-.915.476-1.624.476-.709 0-1.251-.159-1.624-.476-.373-.327-.597-.826-.672-1.498h.812c.177.71.672 1.064 1.484 1.064.812 0 1.307-.355 1.484-1.064h.812zM267.737 14V4.032h1.75v7.644l4.284-7.644h2.03V14h-1.75V6.356L269.767 14h-2.03zM74.394 21.032l-3.99 3.976L74.646 31h-2.17L69.2 26.226l-1.428 1.428V31h-1.736v-9.968h1.736v4.522l4.41-4.522h2.212zm5.79-.014L84.034 31h-1.876l-.952-2.646h-3.948L76.278 31h-1.806l3.85-9.982h1.862zm.56 6.02l-1.484-4.2-1.554 4.2h3.038zM85 21.032h4.326c1.073 0 1.918.257 2.534.77.625.504.938 1.26.938 2.268 0 .952-.29 1.708-.868 2.268-.579.55-1.368.826-2.366.826H86.75V31H85v-9.968zm1.75 1.456v3.262h2.436c1.27 0 1.904-.546 1.904-1.638 0-1.083-.686-1.624-2.058-1.624H86.75zm14.714-1.456v1.512h-3.178V31h-1.75v-8.456h-3.178v-1.512h8.106zm8.691 6.874c0 .99-.299 1.755-.896 2.296-.588.532-1.424.798-2.506.798h-4.13v-9.968h1.75v3.808h2.38c1.092 0 1.932.266 2.52.798.588.532.882 1.288.882 2.268zm-1.75.042c0-.523-.154-.933-.462-1.232-.308-.299-.738-.448-1.288-.448h-2.282v3.304h2.31c1.148 0 1.722-.541 1.722-1.624zm2.926-6.916h1.75V31h-1.75v-9.968zm5.676 8.078v1.428c0 .728-.14 1.311-.42 1.75-.28.448-.774.751-1.484.91v-.84c.579-.177.882-.63.91-1.358h-.91v-1.89h1.904zm13.981-8.078V31h-1.75v-8.456h-4.564V31h-1.75v-9.968h8.064zm2.096 0h4.326c1.073 0 1.918.257 2.534.77.625.504.938 1.26.938 2.268 0 .952-.289 1.708-.868 2.268-.579.55-1.367.826-2.366.826h-2.814V31h-1.75v-9.968zm1.75 1.456v3.262h2.436c1.269 0 1.904-.546 1.904-1.638 0-1.083-.686-1.624-2.058-1.624h-2.282zm11.858-1.694c1.409 0 2.552.485 3.43 1.456.886.961 1.33 2.217 1.33 3.766 0 1.55-.444 2.81-1.33 3.78-.887.961-2.04 1.442-3.458 1.442-1.428 0-2.586-.48-3.472-1.442-.878-.961-1.316-2.221-1.316-3.78 0-1.512.429-2.758 1.288-3.738.868-.99 2.044-1.484 3.528-1.484zm-.028 1.47c-.915 0-1.648.34-2.198 1.022-.551.672-.826 1.573-.826 2.702 0 1.157.27 2.077.812 2.758.55.681 1.297 1.022 2.24 1.022.905 0 1.628-.34 2.17-1.022.55-.69.826-1.605.826-2.744 0-1.139-.276-2.044-.826-2.716-.542-.681-1.274-1.022-2.198-1.022zm13.534-1.232v1.47h-5.446v2.646h5.054v1.414h-5.054v2.94h5.53V31h-7.266v-9.968h7.182zm9.995 0l-3.99 3.976L170.445 31h-2.17l-3.276-4.774-1.428 1.428V31h-1.736v-9.968h1.736v4.522l4.41-4.522h2.212zm8.394 0v1.512h-3.178V31h-1.75v-8.456h-3.178v-1.512h8.106zM179.704 31v-9.968h1.75v7.644l4.284-7.644h2.03V31h-1.75v-7.644L181.734 31h-2.03zm10.159-9.968h4.326c1.073 0 1.918.257 2.534.77.625.504.938 1.26.938 2.268 0 .952-.289 1.708-.868 2.268-.579.55-1.367.826-2.366.826h-2.814V31h-1.75v-9.968zm1.75 1.456v3.262h2.436c1.269 0 1.904-.546 1.904-1.638 0-1.083-.686-1.624-2.058-1.624h-2.282zm11.858-1.694c1.409 0 2.553.485 3.43 1.456.887.961 1.33 2.217 1.33 3.766 0 1.55-.443 2.81-1.33 3.78-.887.961-2.039 1.442-3.458 1.442-1.428 0-2.585-.48-3.472-1.442-.877-.961-1.316-2.221-1.316-3.78 0-1.512.429-2.758 1.288-3.738.868-.99 2.044-1.484 3.528-1.484zm-.028 1.47c-.915 0-1.647.34-2.198 1.022-.551.672-.826 1.573-.826 2.702 0 1.157.271 2.077.812 2.758.551.681 1.297 1.022 2.24 1.022.905 0 1.629-.34 2.17-1.022.551-.69.826-1.605.826-2.744 0-1.139-.275-2.044-.826-2.716-.541-.681-1.274-1.022-2.198-1.022zm6.353-1.232h4.55c1.045 0 1.843.229 2.394.686.56.448.84 1.055.84 1.82 0 .476-.131.905-.392 1.288a2.232 2.232 0 0 1-1.036.812c.578.14 1.036.42 1.372.84.336.42.504.947.504 1.582 0 .877-.294 1.587-.882 2.128-.579.541-1.335.812-2.268.812h-5.082v-9.968zm1.708 1.414v2.744h2.38c.672 0 1.166-.103 1.484-.308.317-.215.476-.57.476-1.064 0-.56-.168-.929-.504-1.106-.327-.177-.794-.266-1.4-.266h-2.436zm0 4.004v3.122h2.618c.672 0 1.199-.112 1.582-.336.382-.224.574-.63.574-1.218 0-.327-.061-.597-.182-.812a1.029 1.029 0 0 0-.504-.49 2.45 2.45 0 0 0-.672-.21 5.314 5.314 0 0 0-.826-.056h-2.59zm12.713-5.432l3.85 9.982h-1.876l-.952-2.646h-3.948l-.98 2.646h-1.806l3.85-9.982h1.862zm.56 6.02l-1.484-4.2-1.554 4.2h3.038zm12.264-6.006V31h-1.75v-4.48h-4.564V31h-1.75v-9.968h1.75v3.962h4.564v-3.962h1.75zm2.04 9.968v-9.968h1.75v7.644l4.284-7.644h2.03V31h-1.75v-7.644L241.111 31h-2.03zm17.299-9.968v1.47h-5.446v2.646h5.054v1.414h-5.054v2.94h5.53V31h-7.266v-9.968h7.182zm-190.302 17h4.326c1.073 0 1.918.257 2.534.77.625.504.938 1.26.938 2.268 0 .952-.29 1.708-.868 2.268-.579.55-1.367.826-2.366.826h-2.814V48h-1.75v-9.968zm1.75 1.456v3.262h2.436c1.27 0 1.904-.546 1.904-1.638 0-1.083-.686-1.624-2.058-1.624h-2.282zm14.728-1.456v1.47H77.11v2.646h5.054v1.414H77.11v2.94h5.53V48h-7.266v-9.968h7.182zM84.178 48v-9.968h1.75v8.456h3.864v-8.456h1.75v8.456h3.864v-8.456h1.75V48H84.178zm22.222-9.968v1.47h-5.446v2.646h5.054v1.414h-5.054v2.94h5.53V48h-7.266v-9.968h7.182zm9.686 0V48h-1.75v-4.48h-4.564V48h-1.75v-9.968h1.75v3.962h4.564v-3.962h1.75zm2.04 9.968v-9.968h1.75v7.644l4.284-7.644h2.03V48h-1.75v-7.644L120.156 48h-2.03zm17.649 0h-1.75v-4.116h-1.988L129.209 48h-2.184l3.066-4.284c-.821-.252-1.386-.625-1.694-1.12-.308-.495-.462-1.097-.462-1.806 0-.84.289-1.507.868-2.002.579-.504 1.391-.756 2.436-.756h4.536V48zm-1.75-5.446V39.46h-2.604c-.597 0-1.036.121-1.316.364-.28.233-.42.607-.42 1.12 0 1.073.569 1.61 1.708 1.61h2.632zm-58.581 180.42c0 1.232-.42 2.179-1.26 2.842-.84.653-1.871.98-3.094.98V228h-1.316v-1.204c-1.213 0-2.245-.336-3.094-1.008-.84-.672-1.26-1.61-1.26-2.814s.425-2.151 1.274-2.842c.85-.7 1.876-1.05 3.08-1.05v-1.05h1.316v1.05c1.223 0 2.254.345 3.094 1.036.84.691 1.26 1.643 1.26 2.856zm-1.33 0c0-.887-.28-1.563-.84-2.03-.55-.476-1.279-.737-2.184-.784v5.558c.924-.065 1.657-.317 2.198-.756.55-.448.826-1.111.826-1.988zm-4.34 2.744v-5.558c-.905.047-1.638.308-2.198.784-.55.467-.826 1.143-.826 2.03 0 .877.27 1.54.812 1.988.55.439 1.288.691 2.212.756zm9.748-.322l-3.64-7.364h1.442l2.913 6.076 2.856-6.076h1.413l-3.877 7.938c-.402.821-.817 1.405-1.247 1.75-.42.345-.886.518-1.4.518-.448 0-.858-.084-1.231-.252v-1.12c.27.168.643.252 1.12.252.55 0 1.045-.457 1.484-1.372l.167-.35zm13.935-7.364V228h-1.316v-4.662h-5.264V228h-1.316v-9.968h1.316v4.158h5.264v-4.158h1.316zm10.3 0l-4.2 4.004 4.368 5.964h-1.68l-3.612-5.068-1.652 1.568v3.5h-1.316v-9.968h1.316v4.942l5.054-4.942h1.722zm8.763 12.446V228h-7.602v-9.968h1.316v8.82h5.152v-8.82h1.316v8.82h1.092v3.626h-1.274zm2.586-2.478v-9.968h1.316v8.442h.028l4.886-8.442h1.666V228h-1.316v-8.47h-.028l-4.9 8.47h-1.652zm14.304-10.206c1.512 0 2.688.476 3.528 1.428.84.943 1.26 2.179 1.26 3.71 0 1.54-.416 2.809-1.246 3.808-.831.999-2.007 1.498-3.528 1.498-.775 0-1.47-.14-2.086-.42a4.005 4.005 0 0 1-1.512-1.162 5.504 5.504 0 0 1-.882-1.694 6.945 6.945 0 0 1-.294-2.058c0-1.559.429-2.8 1.288-3.724.868-.924 2.025-1.386 3.472-1.386zm0 1.148c-1.111 0-1.965.392-2.562 1.176-.588.775-.882 1.736-.882 2.884 0 1.251.312 2.249.938 2.996.634.737 1.479 1.106 2.534 1.106 1.045 0 1.88-.373 2.506-1.12.625-.747.938-1.741.938-2.982 0-1.232-.318-2.217-.952-2.954-.626-.737-1.466-1.106-2.52-1.106zm14.332-.91V228h-1.316v-4.662h-5.264V228h-1.316v-9.968h1.316v4.158h5.264v-4.158h1.316zm6.394 0l3.892 9.968h-1.47l-1.106-3.052h-4.186L146.132 228h-1.4l3.92-9.968h1.484zm.924 5.866l-1.694-4.606-1.722 4.606h3.416zm11.318-5.866V228h-1.316v-8.82h-3.682l-.196 5.614c-.037 1.045-.252 1.876-.644 2.492-.383.616-.938.924-1.666.924-.299 0-.616-.065-.952-.196v-1.12c.149.093.387.14.714.14.271 0 .485-.061.644-.182.168-.131.313-.42.434-.868.131-.448.205-1.073.224-1.876l.182-6.076h6.258zm9.668 7.014c0 .933-.271 1.661-.812 2.184-.532.513-1.283.77-2.254.77h-4.368v-9.968h1.316v4.046h3.052c.98 0 1.736.261 2.268.784.532.513.798 1.241.798 2.184zm-1.33 0c0-1.223-.728-1.834-2.184-1.834h-2.604v3.64h2.604c1.456 0 2.184-.602 2.184-1.806zm10.87-7.014V228h-1.316v-4.662h-5.264V228h-1.316v-9.968h1.316v4.158h5.264v-4.158h1.316zm6.408-.238c1.512 0 2.688.476 3.528 1.428.84.943 1.26 2.179 1.26 3.71 0 1.54-.416 2.809-1.246 3.808-.831.999-2.007 1.498-3.528 1.498-.775 0-1.47-.14-2.086-.42a4.005 4.005 0 0 1-1.512-1.162 5.504 5.504 0 0 1-.882-1.694 6.945 6.945 0 0 1-.294-2.058c0-1.559.429-2.8 1.288-3.724.868-.924 2.025-1.386 3.472-1.386zm0 1.148c-1.111 0-1.965.392-2.562 1.176-.588.775-.882 1.736-.882 2.884 0 1.251.312 2.249.938 2.996.634.737 1.479 1.106 2.534 1.106 1.045 0 1.88-.373 2.506-1.12.625-.747.938-1.741.938-2.982 0-1.232-.318-2.217-.952-2.954-.626-.737-1.466-1.106-2.52-1.106zm13.338-.91v1.148h-5.586v3.122h5.222v1.106h-5.222v3.444h5.656V228h-6.972v-9.968h6.902zm-135.212 17h1.82l3.206 8.442 3.094-8.442h1.834V245h-1.246v-8.316L71.706 245h-1.148l-3.178-8.316V245h-1.26v-9.968zm16.381-.238c1.512 0 2.688.476 3.528 1.428.84.943 1.26 2.179 1.26 3.71 0 1.54-.415 2.809-1.246 3.808-.83.999-2.006 1.498-3.528 1.498-.774 0-1.47-.14-2.086-.42a4.005 4.005 0 0 1-1.512-1.162 5.517 5.517 0 0 1-.882-1.694 6.945 6.945 0 0 1-.294-2.058c0-1.559.43-2.8 1.288-3.724.868-.924 2.026-1.386 3.472-1.386zm0 1.148c-1.11 0-1.964.392-2.562 1.176-.588.775-.882 1.736-.882 2.884 0 1.251.313 2.249.938 2.996.635.737 1.48 1.106 2.534 1.106 1.046 0 1.881-.373 2.506-1.12.626-.747.938-1.741.938-2.982 0-1.232-.317-2.217-.952-2.954-.625-.737-1.465-1.106-2.52-1.106zm15.215 11.536h-1.274V245h-7.21v2.478h-1.274v-3.626h.98c.383-.681.695-1.657.938-2.926.243-1.279.364-2.599.364-3.962v-1.932h6.37v8.82h1.106v3.626zm-2.422-3.626v-7.672h-3.766v1.358c0 1.204-.112 2.399-.336 3.584-.215 1.176-.48 2.086-.798 2.73h4.9zm10.65-8.82v1.148h-5.586v3.122h5.222v1.106h-5.222v3.444h5.656V245h-6.972v-9.968h6.902zm9.006 0V245h-1.316v-8.82h-3.682l-.196 5.614c-.037 1.045-.252 1.876-.644 2.492-.383.616-.938.924-1.666.924-.299 0-.616-.065-.952-.196v-1.12c.149.093.387.14.714.14.271 0 .485-.061.644-.182.168-.131.313-.42.434-.868.131-.448.205-1.073.224-1.876l.182-6.076h6.258zm2.234 9.968v-9.968h1.316v8.442h.028l4.886-8.442h1.666V245h-1.316v-8.47h-.028l-4.9 8.47h-1.652zm10.16-9.968h4.102c1.017 0 1.824.233 2.422.7.597.457.896 1.181.896 2.17 0 2.007-1.134 3.01-3.402 3.01h-2.702V245h-1.316v-9.968zm1.316 1.134v3.64h2.534c.709 0 1.26-.131 1.652-.392.401-.271.602-.747.602-1.428 0-.383-.066-.7-.196-.952a1.183 1.183 0 0 0-.546-.56 2.464 2.464 0 0 0-.756-.238 5.392 5.392 0 0 0-.938-.07h-2.352zm11.906-1.372c1.512 0 2.688.476 3.528 1.428.84.943 1.26 2.179 1.26 3.71 0 1.54-.416 2.809-1.246 3.808-.831.999-2.007 1.498-3.528 1.498-.775 0-1.47-.14-2.086-.42a4.005 4.005 0 0 1-1.512-1.162 5.504 5.504 0 0 1-.882-1.694 6.945 6.945 0 0 1-.294-2.058c0-1.559.429-2.8 1.288-3.724.868-.924 2.025-1.386 3.472-1.386zm0 1.148c-1.111 0-1.965.392-2.562 1.176-.588.775-.882 1.736-.882 2.884 0 1.251.312 2.249.938 2.996.634.737 1.479 1.106 2.534 1.106 1.045 0 1.88-.373 2.506-1.12.625-.747.938-1.741.938-2.982 0-1.232-.318-2.217-.952-2.954-.626-.737-1.466-1.106-2.52-1.106zm6.436-.91h4.256c.915 0 1.671.201 2.268.602.607.401.91 1.031.91 1.89 0 .495-.135.938-.406 1.33a2.103 2.103 0 0 1-1.064.812c.616.14 1.088.429 1.414.868.336.439.504.989.504 1.652 0 1.876-1.26 2.814-3.78 2.814h-4.102v-9.968zm1.288 1.12v3.15h2.366c.271 0 .5-.005.686-.014.196-.019.416-.056.658-.112.243-.056.434-.135.574-.238.15-.112.276-.271.378-.476a1.53 1.53 0 0 0 .168-.742c0-.289-.046-.532-.14-.728a1.209 1.209 0 0 0-.336-.462 1.285 1.285 0 0 0-.546-.252 3.193 3.193 0 0 0-.616-.098 6.865 6.865 0 0 0-.7-.028h-2.492zm0 4.186v3.556h2.632c.327 0 .593-.005.798-.014.206-.019.434-.061.686-.126.262-.065.467-.159.616-.28a1.52 1.52 0 0 0 .378-.546c.103-.243.154-.532.154-.868 0-.28-.037-.523-.112-.728a.936.936 0 0 0-.35-.49 2.897 2.897 0 0 0-.462-.294c-.14-.075-.345-.126-.616-.154a6.524 6.524 0 0 0-.63-.042 12.435 12.435 0 0 0-.686-.014h-2.408zm12.482-5.306l3.892 9.968h-1.47l-1.106-3.052h-4.186L156.768 245h-1.4l3.92-9.968h1.484zm.924 5.866l-1.694-4.606-1.722 4.606h3.416zm11.865-5.866V245h-1.316v-4.662h-5.264V245h-1.316v-9.968h1.316v4.158h5.264v-4.158h1.316zm2.207 9.968v-9.968h1.316v8.442h.028l4.886-8.442h1.666V245h-1.316v-8.47h-.028l-4.9 8.47h-1.652zm17.006-9.968v1.148h-5.586v3.122h5.222v1.106h-5.222v3.444h5.656V245h-6.972v-9.968h6.902zm-118.576 198l-4.2 4.004L74.366 443h-1.68l-3.612-5.068-1.652 1.568v3.5h-1.316v-9.968h1.316v4.942l5.054-4.942h1.722zm5.2-.238c1.512 0 2.688.476 3.528 1.428.84.943 1.26 2.179 1.26 3.71 0 1.54-.416 2.809-1.246 3.808-.83.999-2.007 1.498-3.528 1.498-.775 0-1.47-.14-2.086-.42a4.005 4.005 0 0 1-1.512-1.162 5.517 5.517 0 0 1-.882-1.694 6.945 6.945 0 0 1-.294-2.058c0-1.559.43-2.8 1.288-3.724.868-.924 2.025-1.386 3.472-1.386zm0 1.148c-1.11 0-1.965.392-2.562 1.176-.588.775-.882 1.736-.882 2.884 0 1.251.313 2.249.938 2.996.635.737 1.48 1.106 2.534 1.106 1.045 0 1.88-.373 2.506-1.12.625-.747.938-1.741.938-2.982 0-1.232-.318-2.217-.952-2.954-.626-.737-1.466-1.106-2.52-1.106zm14.333-.91V443h-1.316v-4.662H87.15V443h-1.316v-9.968h1.316v4.158h5.264v-4.158h1.317zm11.545 4.942c0 1.232-.42 2.179-1.26 2.842-.84.653-1.871.98-3.094.98V443h-1.316v-1.204c-1.213 0-2.245-.336-3.094-1.008-.84-.672-1.26-1.61-1.26-2.814s.425-2.151 1.274-2.842c.85-.7 1.876-1.05 3.08-1.05v-1.05h1.316v1.05c1.223 0 2.254.345 3.094 1.036.84.691 1.26 1.643 1.26 2.856zm-1.33 0c0-.887-.28-1.563-.84-2.03-.551-.476-1.279-.737-2.184-.784v5.558c.924-.065 1.657-.317 2.198-.756.551-.448.826-1.111.826-1.988zm-4.34 2.744v-5.558c-.905.047-1.638.308-2.198.784-.55.467-.826 1.143-.826 2.03 0 .877.27 1.54.812 1.988.55.439 1.288.691 2.212.756zm7.229 2.282v-9.968h1.316v8.442h.028l4.886-8.442h1.666V443h-1.316v-8.47h-.028l-4.9 8.47h-1.652zm11.419 0h-1.316v-9.968h6.552v1.148h-5.236V443zm8.86-2.604l-3.64-7.364h1.442l2.912 6.076 2.856-6.076h1.414l-3.878 7.938c-.401.821-.816 1.405-1.246 1.75-.42.345-.886.518-1.4.518a2.97 2.97 0 0 1-1.232-.252v-1.12c.271.168.644.252 1.12.252.551 0 1.046-.457 1.484-1.372l.168-.35zm6.095-7.364h4.102c1.017 0 1.825.233 2.422.7.597.457.896 1.181.896 2.17 0 2.007-1.134 3.01-3.402 3.01h-2.702V443h-1.316v-9.968zm1.316 1.134v3.64h2.534c.709 0 1.26-.131 1.652-.392.401-.271.602-.747.602-1.428 0-.383-.065-.7-.196-.952a1.174 1.174 0 0 0-.546-.56 2.464 2.464 0 0 0-.756-.238 5.384 5.384 0 0 0-.938-.07h-2.352zm7.706 8.834v-9.968h1.316v8.442h.028l4.886-8.442h1.666V443h-1.316v-8.47h-.028l-4.9 8.47h-1.652zm10.16-9.968h4.102c1.017 0 1.824.233 2.422.7.597.457.896 1.181.896 2.17 0 2.007-1.134 3.01-3.402 3.01h-2.702V443h-1.316v-9.968zm1.316 1.134v3.64h2.534c.709 0 1.26-.131 1.652-.392.401-.271.602-.747.602-1.428 0-.383-.066-.7-.196-.952a1.183 1.183 0 0 0-.546-.56 2.464 2.464 0 0 0-.756-.238 5.392 5.392 0 0 0-.938-.07h-2.352zm11.906-1.372c1.512 0 2.688.476 3.528 1.428.84.943 1.26 2.179 1.26 3.71 0 1.54-.416 2.809-1.246 3.808-.831.999-2.007 1.498-3.528 1.498-.775 0-1.47-.14-2.086-.42a4.005 4.005 0 0 1-1.512-1.162 5.504 5.504 0 0 1-.882-1.694 6.945 6.945 0 0 1-.294-2.058c0-1.559.429-2.8 1.288-3.724.868-.924 2.025-1.386 3.472-1.386zm0 1.148c-1.111 0-1.965.392-2.562 1.176-.588.775-.882 1.736-.882 2.884 0 1.251.312 2.249.938 2.996.634.737 1.479 1.106 2.534 1.106 1.045 0 1.88-.373 2.506-1.12.625-.747.938-1.741.938-2.982 0-1.232-.318-2.217-.952-2.954-.626-.737-1.466-1.106-2.52-1.106zm6.436-.91h4.256c.915 0 1.671.201 2.268.602.607.401.91 1.031.91 1.89 0 .495-.135.938-.406 1.33a2.103 2.103 0 0 1-1.064.812c.616.14 1.088.429 1.414.868.336.439.504.989.504 1.652 0 1.876-1.26 2.814-3.78 2.814h-4.102v-9.968zm1.288 1.12v3.15h2.366c.271 0 .5-.005.686-.014.196-.019.416-.056.658-.112.243-.056.434-.135.574-.238.15-.112.276-.271.378-.476a1.53 1.53 0 0 0 .168-.742c0-.289-.046-.532-.14-.728a1.209 1.209 0 0 0-.336-.462 1.285 1.285 0 0 0-.546-.252 3.193 3.193 0 0 0-.616-.098 6.865 6.865 0 0 0-.7-.028h-2.492zm0 4.186v3.556h2.632c.327 0 .593-.005.798-.014.206-.019.434-.061.686-.126.262-.065.467-.159.616-.28a1.52 1.52 0 0 0 .378-.546c.103-.243.154-.532.154-.868 0-.28-.037-.523-.112-.728a.936.936 0 0 0-.35-.49 2.897 2.897 0 0 0-.462-.294c-.14-.075-.345-.126-.616-.154a6.524 6.524 0 0 0-.63-.042 12.435 12.435 0 0 0-.686-.014h-2.408zm12.482-5.306l3.892 9.968h-1.47l-1.106-3.052h-4.186L181.815 443h-1.4l3.92-9.968h1.484zm.924 5.866l-1.694-4.606-1.722 4.606h3.416zm11.864-5.866V443h-1.316v-4.662h-5.264V443h-1.316v-9.968h1.316v4.158h5.264v-4.158h1.316zm2.208 9.968v-9.968h1.316v8.442h.028l4.886-8.442h1.666V443h-1.316v-8.47h-.028l-4.9 8.47h-1.652zm17.006-9.968v1.148h-5.586v3.122h5.222v1.106h-5.222v3.444h5.656V443h-6.972v-9.968h6.902zM66.106 460v-9.968h1.316v8.442h.028l4.886-8.442h1.666V460h-1.316v-8.47h-.028l-4.9 8.47h-1.652zm22.778 2.478H87.61V460H80.4v2.478h-1.274v-3.626h.98c.383-.681.695-1.657.938-2.926.243-1.279.364-2.599.364-3.962v-1.932h6.37v8.82h1.106v3.626zm-2.422-3.626v-7.672h-3.766v1.358c0 1.204-.112 2.399-.336 3.584-.215 1.176-.48 2.086-.798 2.73h4.9zm7.947-9.058c1.512 0 2.688.476 3.528 1.428.84.943 1.26 2.179 1.26 3.71 0 1.54-.415 2.809-1.246 3.808-.83.999-2.006 1.498-3.527 1.498-.775 0-1.47-.14-2.087-.42a4.005 4.005 0 0 1-1.511-1.162 5.517 5.517 0 0 1-.882-1.694 6.945 6.945 0 0 1-.294-2.058c0-1.559.429-2.8 1.287-3.724.868-.924 2.026-1.386 3.472-1.386zm0 1.148c-1.11 0-1.964.392-2.562 1.176-.587.775-.881 1.736-.881 2.884 0 1.251.312 2.249.938 2.996.634.737 1.479 1.106 2.534 1.106 1.045 0 1.88-.373 2.505-1.12.626-.747.939-1.741.939-2.982 0-1.232-.318-2.217-.953-2.954-.625-.737-1.465-1.106-2.52-1.106zm6.493-.91h4.102c1.018 0 1.825.233 2.422.7.598.457.896 1.181.896 2.17 0 2.007-1.134 3.01-3.402 3.01h-2.702V460h-1.316v-9.968zm1.316 1.134v3.64h2.534c.71 0 1.26-.131 1.652-.392.402-.271.602-.747.602-1.428 0-.383-.065-.7-.196-.952a1.174 1.174 0 0 0-.546-.56 2.447 2.447 0 0 0-.756-.238 5.384 5.384 0 0 0-.938-.07h-2.352zm10.853-1.134l3.892 9.968h-1.47l-1.106-3.052h-4.186L109.067 460h-1.4l3.92-9.968h1.484zm.924 5.866l-1.694-4.606-1.722 4.606h3.416zm5.284-1.834h3.332c.98 0 1.736.261 2.268.784.532.523.798 1.255.798 2.198 0 .933-.27 1.661-.812 2.184-.532.513-1.283.77-2.254.77h-4.648v-9.968h6.832v1.148h-5.516v2.884zm5.082 2.982c0-1.223-.728-1.834-2.184-1.834h-2.898v3.64h2.898c1.456 0 2.184-.602 2.184-1.806zm7.386-7.252c1.512 0 2.688.476 3.528 1.428.84.943 1.26 2.179 1.26 3.71 0 1.54-.415 2.809-1.246 3.808-.83.999-2.006 1.498-3.528 1.498-.774 0-1.47-.14-2.086-.42a4.005 4.005 0 0 1-1.512-1.162 5.547 5.547 0 0 1-.882-1.694 6.945 6.945 0 0 1-.294-2.058c0-1.559.43-2.8 1.288-3.724.868-.924 2.026-1.386 3.472-1.386zm0 1.148c-1.11 0-1.964.392-2.562 1.176-.588.775-.882 1.736-.882 2.884 0 1.251.313 2.249.938 2.996.635.737 1.48 1.106 2.534 1.106 1.046 0 1.881-.373 2.506-1.12.626-.747.938-1.741.938-2.982 0-1.232-.317-2.217-.952-2.954-.625-.737-1.465-1.106-2.52-1.106zm13.107-.91v1.148h-3.346V460h-1.316v-8.82h-3.346v-1.148h8.008zm9.215 0l-4.2 4.004 4.368 5.964h-1.68l-3.612-5.068-1.652 1.568v3.5h-1.316v-9.968h1.316v4.942l5.054-4.942h1.722zm5.432 0l3.892 9.968h-1.47l-1.106-3.052h-4.186L155.497 460h-1.4l3.92-9.968h1.484zm.924 5.866l-1.694-4.606-1.722 4.606h3.416zm16.307.336c-.112 1.26-.551 2.245-1.316 2.954-.756.7-1.755 1.05-2.996 1.05-1.419 0-2.544-.467-3.374-1.4-.831-.943-1.246-2.212-1.246-3.808 0-1.493.415-2.735 1.246-3.724.84-.999 1.997-1.498 3.472-1.498 1.054 0 1.983.285 2.786.854.802.569 1.25 1.358 1.344 2.366h-1.316c-.15-.653-.476-1.162-.98-1.526-.504-.373-1.125-.56-1.862-.56-1.111 0-1.951.392-2.52 1.176-.56.784-.84 1.75-.84 2.898 0 1.269.298 2.268.896 2.996.597.728 1.414 1.092 2.45 1.092.849 0 1.526-.243 2.03-.728.504-.495.807-1.209.91-2.142h1.316zm1.661 3.766v-9.968h1.316v8.442h.028l4.886-8.442h1.666V460h-1.316v-8.47h-.028l-4.9 8.47h-1.652zm18.546-3.766c-.112 1.26-.551 2.245-1.316 2.954-.756.7-1.755 1.05-2.996 1.05-1.419 0-2.544-.467-3.374-1.4-.831-.943-1.246-2.212-1.246-3.808 0-1.493.415-2.735 1.246-3.724.84-.999 1.997-1.498 3.472-1.498 1.054 0 1.983.285 2.786.854.802.569 1.25 1.358 1.344 2.366h-1.316c-.15-.653-.476-1.162-.98-1.526-.504-.373-1.125-.56-1.862-.56-1.111 0-1.951.392-2.52 1.176-.56.784-.84 1.75-.84 2.898 0 1.269.298 2.268.896 2.996.597.728 1.414 1.092 2.45 1.092.849 0 1.526-.243 2.03-.728.504-.495.807-1.209.91-2.142h1.316zm8.331-6.202v1.148h-3.346V460h-1.316v-8.82h-3.346v-1.148h8.008zm8.025 0v1.148h-5.586v3.122h5.222v1.106h-5.222v3.444h5.656V460h-6.972v-9.968h6.902zm1.671 0h1.82l3.206 8.442 3.094-8.442h1.834V460h-1.246v-8.316L220.552 460h-1.148l-3.178-8.316V460h-1.26v-9.968zm20.861 0h1.316V460h-1.316v-9.968zm-1.246 7.014c0 .933-.271 1.661-.812 2.184-.532.513-1.283.77-2.254.77h-4.368v-9.968h1.316v4.046h3.052c.98 0 1.736.261 2.268.784.532.513.798 1.241.798 2.184zm-1.33 0c0-1.223-.728-1.834-2.184-1.834h-2.604v3.64h2.604c1.456 0 2.184-.602 2.184-1.806zM70.306 645.794c1.512 0 2.688.476 3.528 1.428.84.943 1.26 2.179 1.26 3.71 0 1.54-.415 2.809-1.246 3.808-.83.999-2.007 1.498-3.528 1.498-.775 0-1.47-.14-2.086-.42a4.005 4.005 0 0 1-1.512-1.162 5.517 5.517 0 0 1-.882-1.694 6.945 6.945 0 0 1-.294-2.058c0-1.559.43-2.8 1.288-3.724.868-.924 2.025-1.386 3.472-1.386zm0 1.148c-1.11 0-1.965.392-2.562 1.176-.588.775-.882 1.736-.882 2.884 0 1.251.313 2.249.938 2.996.635.737 1.48 1.106 2.534 1.106 1.045 0 1.88-.373 2.506-1.12.625-.747.938-1.741.938-2.982 0-1.232-.317-2.217-.952-2.954-.625-.737-1.465-1.106-2.52-1.106zm14.333-.91V656h-1.316v-8.82h-5.264V656h-1.316v-9.968h7.896zm10.887 0h1.316V656h-1.316v-9.968zm-1.246 7.014c0 .933-.27 1.661-.812 2.184-.532.513-1.283.77-2.254.77h-4.368v-9.968h1.316v4.046h3.052c.98 0 1.736.261 2.268.784.532.513.798 1.241.798 2.184zm-1.33 0c0-1.223-.728-1.834-2.184-1.834h-2.604v3.64h2.604c1.456 0 2.184-.602 2.184-1.806zm13.008-7.014v1.148h-3.346V656h-1.316v-8.82h-3.347v-1.148h8.009zm9.019 0V656h-1.316v-4.662h-5.264V656h-1.316v-9.968h1.316v4.158h5.264v-4.158h1.316zm6.407-.238c1.512 0 2.688.476 3.528 1.428.84.943 1.26 2.179 1.26 3.71 0 1.54-.415 2.809-1.246 3.808-.831.999-2.007 1.498-3.528 1.498-.775 0-1.47-.14-2.086-.42a4.005 4.005 0 0 1-1.512-1.162 5.504 5.504 0 0 1-.882-1.694 6.945 6.945 0 0 1-.294-2.058c0-1.559.429-2.8 1.288-3.724.868-.924 2.025-1.386 3.472-1.386zm0 1.148c-1.111 0-1.965.392-2.562 1.176-.588.775-.882 1.736-.882 2.884 0 1.251.313 2.249.938 2.996.635.737 1.479 1.106 2.534 1.106 1.045 0 1.881-.373 2.506-1.12.625-.747.938-1.741.938-2.982 0-1.232-.317-2.217-.952-2.954-.625-.737-1.465-1.106-2.52-1.106zm10.091 4.578v1.176h-4.074v-1.176h4.074zm9.683-5.488V656h-1.316v-8.82h-5.264V656h-1.316v-9.968h7.896zm2.264 0h4.102c1.017 0 1.824.233 2.422.7.597.457.896 1.181.896 2.17 0 2.007-1.134 3.01-3.402 3.01h-2.702V656h-1.316v-9.968zm1.316 1.134v3.64h2.534c.709 0 1.26-.131 1.652-.392.401-.271.602-.747.602-1.428 0-.383-.066-.7-.196-.952a1.183 1.183 0 0 0-.546-.56 2.464 2.464 0 0 0-.756-.238 5.392 5.392 0 0 0-.938-.07h-2.352zm11.906-1.372c1.512 0 2.688.476 3.528 1.428.84.943 1.26 2.179 1.26 3.71 0 1.54-.415 2.809-1.246 3.808-.831.999-2.007 1.498-3.528 1.498-.775 0-1.47-.14-2.086-.42a4.005 4.005 0 0 1-1.512-1.162 5.504 5.504 0 0 1-.882-1.694 6.945 6.945 0 0 1-.294-2.058c0-1.559.429-2.8 1.288-3.724.868-.924 2.025-1.386 3.472-1.386zm0 1.148c-1.111 0-1.965.392-2.562 1.176-.588.775-.882 1.736-.882 2.884 0 1.251.313 2.249.938 2.996.635.737 1.479 1.106 2.534 1.106 1.045 0 1.881-.373 2.506-1.12.625-.747.938-1.741.938-2.982 0-1.232-.317-2.217-.952-2.954-.625-.737-1.465-1.106-2.52-1.106zm6.451-.91h1.82l3.206 8.442 3.094-8.442h1.834V656h-1.246v-8.316L168.681 656h-1.148l-3.178-8.316V656h-1.26v-9.968zm20.861 0h1.316V656h-1.316v-9.968zm-1.246 7.014c0 .933-.271 1.661-.812 2.184-.532.513-1.283.77-2.254.77h-4.368v-9.968h1.316v4.046h3.052c.98 0 1.736.261 2.268.784.532.513.798 1.241.798 2.184zm-1.33 0c0-1.223-.728-1.834-2.184-1.834h-2.604v3.64h2.604c1.456 0 2.184-.602 2.184-1.806zm6.091 2.954v-9.968h1.316v8.82h4.424v-8.82h1.316v8.82h4.424v-8.82h1.316V656h-12.796zm22.376-9.968V656h-1.316v-8.82h-3.682l-.196 5.614c-.038 1.045-.252 1.876-.644 2.492-.383.616-.938.924-1.666.924-.299 0-.616-.065-.952-.196v-1.12c.149.093.387.14.714.14.27 0 .485-.061.644-.182.168-.131.312-.42.434-.868.13-.448.205-1.073.224-1.876l.182-6.076h6.258zm9.136 0v1.148h-5.586v3.122h5.222v1.106h-5.222v3.444h5.656V656h-6.972v-9.968h6.902zm9.552 0V656h-1.316v-4.662h-5.264V656h-1.316v-9.968h1.316v4.158h5.264v-4.158h1.316zm10.104 0V656h-1.316v-4.662h-5.264V656h-1.316v-9.968h1.316v4.158h5.264v-4.158h1.316zm6.393 0l3.892 9.968h-1.47l-1.106-3.052h-4.186L241.028 656h-1.4l3.92-9.968h1.484zm.924 5.866l-1.694-4.606-1.722 4.606h3.416zm7.72-.154l-3.29 4.256h-1.624l3.332-4.298c-.793-.103-1.404-.392-1.834-.868-.429-.476-.644-1.125-.644-1.946 0-.924.276-1.629.826-2.114.56-.495 1.335-.742 2.324-.742h4.284V656h-1.316v-4.256h-2.058zm2.058-1.12v-3.472h-2.52c-1.512 0-2.268.579-2.268 1.736s.756 1.736 2.268 1.736h2.52zM74.492 668.03c0 1.568-.434 2.828-1.302 3.78-.868.952-1.974 1.428-3.318 1.428-1.185 0-2.156-.322-2.912-.966-.747-.653-1.204-1.563-1.372-2.73h1.33c.15.831.471 1.465.966 1.904.495.439 1.139.658 1.932.658.952 0 1.731-.336 2.338-1.008.616-.681.952-1.605 1.008-2.772h-4.844v-1.106h4.788c-.121-.961-.453-1.745-.994-2.352-.541-.616-1.297-.924-2.268-.924-.728 0-1.349.177-1.862.532-.504.355-.835.84-.994 1.456h-1.33a3.085 3.085 0 0 1 .742-1.708 3.84 3.84 0 0 1 1.526-1.064 5.155 5.155 0 0 1 1.89-.35c1.503 0 2.655.495 3.458 1.484.812.98 1.218 2.226 1.218 3.738zm9.81-4.998l-4.2 4.004L84.469 673h-1.68l-3.612-5.068-1.652 1.568v3.5H76.21v-9.968h1.316v4.942l5.054-4.942h1.723zm9.441 6.202c-.112 1.26-.55 2.245-1.316 2.954-.756.7-1.754 1.05-2.996 1.05-1.418 0-2.543-.467-3.374-1.4-.83-.943-1.246-2.212-1.246-3.808 0-1.493.416-2.735 1.246-3.724.84-.999 1.998-1.498 3.472-1.498 1.055 0 1.984.285 2.786.854.803.569 1.251 1.358 1.344 2.366h-1.316c-.149-.653-.476-1.162-.98-1.526-.504-.373-1.124-.56-1.862-.56-1.11 0-1.95.392-2.52 1.176-.56.784-.84 1.75-.84 2.898 0 1.269.299 2.268.896 2.996.598.728 1.414 1.092 2.45 1.092.85 0 1.526-.243 2.03-.728.504-.495.808-1.209.91-2.142h1.316zm9.558-6.202V673h-1.316v-8.82h-5.264V673h-1.316v-9.968h7.896zm9.557 0V673h-1.316v-8.82h-3.682l-.196 5.614c-.037 1.045-.252 1.876-.644 2.492-.382.616-.938.924-1.666.924-.298 0-.616-.065-.952-.196v-1.12c.15.093.388.14.714.14.271 0 .486-.061.644-.182.168-.131.313-.42.434-.868.131-.448.206-1.073.224-1.876l.182-6.076h6.258zm4.754 7.364l-3.64-7.364h1.442l2.912 6.076 2.856-6.076h1.414l-3.878 7.938c-.401.821-.816 1.405-1.246 1.75-.42.345-.886.518-1.4.518a2.97 2.97 0 0 1-1.232-.252v-1.12c.271.168.644.252 1.12.252.551 0 1.046-.457 1.484-1.372l.168-.35zm9.145-7.364l3.892 9.968h-1.47l-1.106-3.052h-4.186L122.753 673h-1.4l3.92-9.968h1.484zm.924 5.866l-1.694-4.606-1.722 4.606h3.416zm9.599-5.866v1.148h-3.346V673h-1.316v-8.82h-3.346v-1.148h8.008zm4.024 0l3.892 9.968h-1.47l-1.106-3.052h-4.186L137.3 673h-1.4l3.92-9.968h1.484zm.924 5.866l-1.694-4.606-1.722 4.606h3.416zm11.486 6.58V673h-7.602v-9.968h1.316v8.82h5.152v-8.82h1.316v8.82h1.092v3.626h-1.274zm2.585-2.478v-9.968h1.316v8.442h.028l4.886-8.442h1.666V673h-1.316v-8.47h-.028l-4.9 8.47h-1.652zm13.856-4.256l-3.29 4.256h-1.624l3.332-4.298c-.793-.103-1.405-.392-1.834-.868-.429-.476-.644-1.125-.644-1.946 0-.924.275-1.629.826-2.114.56-.495 1.335-.742 2.324-.742h4.284V673h-1.316v-4.256h-2.058zm2.058-1.12v-3.472h-2.52c-1.512 0-2.268.579-2.268 1.736s.756 1.736 2.268 1.736h2.52zM27.851 111.032V121h-1.666v-7.686L23.413 121h-1.428l-2.842-7.686V121h-1.652v-9.968h2.45l2.786 7.798 2.688-7.798h2.436zm6.38-.238c1.41 0 2.552.485 3.43 1.456.886.961 1.33 2.217 1.33 3.766s-.444 2.809-1.33 3.78c-.887.961-2.04 1.442-3.458 1.442-1.428 0-2.586-.481-3.472-1.442-.878-.961-1.316-2.221-1.316-3.78 0-1.512.43-2.758 1.288-3.738.868-.989 2.044-1.484 3.528-1.484zm-.028 1.47c-.915 0-1.648.341-2.198 1.022-.55.672-.826 1.573-.826 2.702 0 1.157.27 2.077.812 2.758.55.681 1.297 1.022 2.24 1.022.905 0 1.628-.341 2.17-1.022.55-.691.826-1.605.826-2.744 0-1.139-.275-2.044-.826-2.716-.542-.681-1.274-1.022-2.198-1.022zm15.27 11.214H47.78V121h-6.496v2.478H39.59v-3.99h.967c.382-.672.695-1.652.938-2.94.242-1.288.364-2.613.364-3.976v-1.54h6.495v8.456h1.12v3.99zm-2.87-3.99v-6.944h-3.038v.602c0 1.204-.111 2.403-.335 3.598-.215 1.185-.481 2.1-.798 2.744h4.171zm11.238-8.456v1.47h-5.446v2.646h5.054v1.414h-5.054v2.94h5.53V121h-7.266v-9.968h7.182zM67.289 121h-1.75v-8.456h-3.08l-.182 4.746c-.056 1.325-.326 2.305-.812 2.94-.476.635-1.096.952-1.862.952-.336 0-.686-.061-1.05-.182v-1.344c.187.075.416.112.686.112.271 0 .49-.065.658-.196.168-.131.318-.42.448-.868.131-.457.21-1.087.238-1.89l.196-5.782h6.51V121zm2.032 0v-9.968h1.75v7.644l4.284-7.644h2.03V121h-1.75v-7.644L71.35 121h-2.03zm10.16-9.968h4.325c1.074 0 1.918.257 2.534.77.626.504.938 1.26.938 2.268 0 .952-.289 1.708-.868 2.268-.578.551-1.367.826-2.366.826H81.23V121h-1.75v-9.968zm1.75 1.456v3.262h2.435c1.27 0 1.904-.546 1.904-1.638 0-1.083-.686-1.624-2.058-1.624H81.23zm11.857-1.694c1.41 0 2.553.485 3.43 1.456.887.961 1.33 2.217 1.33 3.766s-.443 2.809-1.33 3.78c-.886.961-2.04 1.442-3.458 1.442-1.428 0-2.585-.481-3.472-1.442-.877-.961-1.316-2.221-1.316-3.78 0-1.512.43-2.758 1.288-3.738.868-.989 2.044-1.484 3.528-1.484zm-.028 1.47c-.914 0-1.647.341-2.198 1.022-.55.672-.826 1.573-.826 2.702 0 1.157.27 2.077.812 2.758.55.681 1.298 1.022 2.24 1.022.906 0 1.629-.341 2.17-1.022.55-.691.826-1.605.826-2.744 0-1.139-.275-2.044-.826-2.716-.541-.681-1.274-1.022-2.198-1.022zm6.353-1.232h4.55c1.045 0 1.843.229 2.394.686.56.448.84 1.055.84 1.82 0 .476-.131.905-.392 1.288a2.23 2.23 0 0 1-1.036.812c.579.14 1.036.42 1.372.84.336.42.504.947.504 1.582 0 .877-.294 1.587-.882 2.128-.579.541-1.335.812-2.268.812h-5.082v-9.968zm1.708 1.414v2.744h2.38c.672 0 1.167-.103 1.484-.308.317-.215.476-.569.476-1.064 0-.56-.168-.929-.504-1.106-.327-.177-.793-.266-1.4-.266h-2.436zm0 4.004v3.122h2.618c.672 0 1.199-.112 1.582-.336.383-.224.574-.63.574-1.218 0-.327-.061-.597-.182-.812a1.03 1.03 0 0 0-.504-.49 2.43 2.43 0 0 0-.672-.21 5.342 5.342 0 0 0-.826-.056h-2.59zm12.713-5.432l3.85 9.982h-1.876l-.952-2.646h-3.948l-.98 2.646h-1.806l3.85-9.982h1.862zm.56 6.02l-1.484-4.2-1.554 4.2h3.038zm12.264-6.006V121h-1.75v-4.48h-4.564V121h-1.75v-9.968h1.75v3.962h4.564v-3.962h1.75zm2.04 9.968v-9.968h1.75v7.644l4.284-7.644h2.03V121h-1.75v-7.644L130.728 121h-2.03zm17.299-9.968v1.47h-5.446v2.646h5.054v1.414h-5.054v2.94h5.53V121h-7.266v-9.968h7.182zm13.695 6.874c0 .989-.299 1.755-.896 2.296-.588.532-1.423.798-2.506.798h-4.732v-9.968h7.336v1.512h-5.586v2.296h2.982c1.092 0 1.932.266 2.52.798.588.532.882 1.288.882 2.268zm-1.75.042c0-.523-.154-.933-.462-1.232-.308-.299-.737-.448-1.288-.448h-2.884v3.304h2.912c1.148 0 1.722-.541 1.722-1.624zm3.432 3.052v-9.968h1.75v7.644l4.284-7.644h2.03V121h-1.75v-7.644L163.404 121h-2.03zm17.537-2.884c0 .336-.07.677-.21 1.022-.14.336-.355.667-.644.994-.28.317-.677.579-1.19.784-.513.205-1.101.308-1.764.308-1.251 0-2.263-.299-3.038-.896-.775-.597-1.162-1.475-1.162-2.632h1.722c0 .728.238 1.269.714 1.624.476.345 1.097.518 1.862.518.635 0 1.12-.149 1.456-.448.336-.299.504-.733.504-1.302 0-.523-.168-.919-.504-1.19-.327-.271-.779-.406-1.358-.406h-1.218v-1.358h1.218c.457 0 .835-.145 1.134-.434.308-.289.462-.663.462-1.12 0-.439-.154-.779-.462-1.022-.308-.252-.742-.378-1.302-.378-1.344 0-2.067.583-2.17 1.75h-1.666c.037-1.064.397-1.853 1.078-2.366.681-.513 1.563-.77 2.646-.77 1.055 0 1.918.229 2.59.686.672.448 1.008 1.12 1.008 2.016 0 .504-.163.961-.49 1.372-.327.411-.695.667-1.106.77v.042c.56.112 1.013.392 1.358.84.355.439.532.971.532 1.596zm9.708-7.084V121h-1.75v-4.48h-4.564V121h-1.75v-9.968h1.75v3.962h4.564v-3.962h1.75zm9.236 0v1.47h-5.446v2.646h5.054v1.414h-5.054v2.94h5.53V121h-7.266v-9.968h7.182zm10.19 6.174c-.093 1.223-.532 2.203-1.316 2.94-.775.728-1.783 1.092-3.024 1.092-1.409 0-2.539-.476-3.388-1.428-.849-.952-1.274-2.217-1.274-3.794 0-.952.182-1.815.546-2.59a4.462 4.462 0 0 1 1.638-1.89c.728-.485 1.582-.728 2.562-.728 1.055 0 1.974.294 2.758.882.784.579 1.255 1.419 1.414 2.52h-1.736c-.121-.597-.401-1.064-.84-1.4-.439-.345-.98-.518-1.624-.518-.663 0-1.227.187-1.694.56a3.1 3.1 0 0 0-.98 1.386 5.412 5.412 0 0 0-.28 1.778c0 .485.056.943.168 1.372.112.429.28.826.504 1.19a2.5 2.5 0 0 0 .91.854c.392.215.845.322 1.358.322 1.484 0 2.333-.849 2.548-2.548h1.75zm5.288-.798v1.484h-4.102v-1.484h4.102zM43.738 128.032V138h-1.75v-8.456h-4.564V138h-1.75v-9.968h8.064zm2.096 0h4.326c1.073 0 1.918.257 2.534.77.625.504.938 1.26.938 2.268 0 .952-.29 1.708-.868 2.268-.579.551-1.367.826-2.366.826h-2.814V138h-1.75v-9.968zm1.75 1.456v3.262h2.436c1.27 0 1.904-.546 1.904-1.638 0-1.083-.686-1.624-2.058-1.624h-2.282zm11.858-1.694c1.41 0 2.552.485 3.43 1.456.886.961 1.33 2.217 1.33 3.766s-.444 2.809-1.33 3.78c-.887.961-2.04 1.442-3.458 1.442-1.428 0-2.586-.481-3.472-1.442-.878-.961-1.316-2.221-1.316-3.78 0-1.512.43-2.758 1.288-3.738.868-.989 2.044-1.484 3.528-1.484zm-.028 1.47c-.915 0-1.648.341-2.198 1.022-.55.672-.826 1.573-.826 2.702 0 1.157.27 2.077.812 2.758.55.681 1.297 1.022 2.24 1.022.905 0 1.628-.341 2.17-1.022.55-.691.826-1.605.826-2.744 0-1.139-.276-2.044-.826-2.716-.542-.681-1.274-1.022-2.198-1.022zm14.36 7.224h1.093v3.99h-1.695V138H65.71v-9.968h1.75v8.456h4.565v-8.456h1.75v8.456zm9.456-8.456v1.47h-5.446v2.646h5.054v1.414h-5.054v2.94h5.53V138h-7.266v-9.968h7.182zm10.19 6.174c-.093 1.223-.532 2.203-1.316 2.94-.775.728-1.783 1.092-3.024 1.092-1.41 0-2.539-.476-3.388-1.428-.85-.952-1.274-2.217-1.274-3.794 0-.952.182-1.815.546-2.59a4.462 4.462 0 0 1 1.638-1.89c.728-.485 1.582-.728 2.562-.728 1.055 0 1.974.294 2.758.882.784.579 1.255 1.419 1.414 2.52H91.6c-.121-.597-.401-1.064-.84-1.4-.439-.345-.98-.518-1.624-.518-.663 0-1.227.187-1.694.56a3.097 3.097 0 0 0-.98 1.386 5.42 5.42 0 0 0-.28 1.778c0 .485.056.943.168 1.372.112.429.28.826.504 1.19a2.5 2.5 0 0 0 .91.854c.392.215.845.322 1.358.322 1.484 0 2.333-.849 2.548-2.548h1.75zm10.104 0c-.094 1.223-.532 2.203-1.316 2.94-.775.728-1.783 1.092-3.024 1.092-1.41 0-2.54-.476-3.388-1.428-.85-.952-1.274-2.217-1.274-3.794 0-.952.182-1.815.546-2.59a4.462 4.462 0 0 1 1.638-1.89c.728-.485 1.582-.728 2.562-.728 1.054 0 1.974.294 2.758.882.784.579 1.255 1.419 1.414 2.52h-1.736c-.122-.597-.402-1.064-.84-1.4-.439-.345-.98-.518-1.624-.518-.663 0-1.228.187-1.694.56a3.098 3.098 0 0 0-.98 1.386 5.42 5.42 0 0 0-.28 1.778c0 .485.056.943.168 1.372.112.429.28.826.504 1.19a2.5 2.5 0 0 0 .91.854c.392.215.844.322 1.358.322 1.484 0 2.333-.849 2.548-2.548h1.75zm5.861-6.412c1.409 0 2.553.485 3.43 1.456.887.961 1.33 2.217 1.33 3.766s-.443 2.809-1.33 3.78c-.887.961-2.039 1.442-3.458 1.442-1.428 0-2.585-.481-3.472-1.442-.877-.961-1.316-2.221-1.316-3.78 0-1.512.429-2.758 1.288-3.738.868-.989 2.044-1.484 3.528-1.484zm-.028 1.47c-.915 0-1.647.341-2.198 1.022-.551.672-.826 1.573-.826 2.702 0 1.157.271 2.077.812 2.758.551.681 1.297 1.022 2.24 1.022.905 0 1.629-.341 2.17-1.022.551-.691.826-1.605.826-2.744 0-1.139-.275-2.044-.826-2.716-.541-.681-1.274-1.022-2.198-1.022zm6.353-1.232h4.55c1.045 0 1.843.229 2.394.686.56.448.84 1.055.84 1.82 0 .476-.131.905-.392 1.288a2.234 2.234 0 0 1-1.036.812c.578.14 1.036.42 1.372.84.336.42.504.947.504 1.582 0 .877-.294 1.587-.882 2.128-.579.541-1.335.812-2.268.812h-5.082v-9.968zm1.708 1.414v2.744h2.38c.672 0 1.166-.103 1.484-.308.317-.215.476-.569.476-1.064 0-.56-.168-.929-.504-1.106-.327-.177-.794-.266-1.4-.266h-2.436zm0 4.004v3.122h2.618c.672 0 1.199-.112 1.582-.336.382-.224.574-.63.574-1.218 0-.327-.061-.597-.182-.812a1.03 1.03 0 0 0-.504-.49 2.43 2.43 0 0 0-.672-.21 5.352 5.352 0 0 0-.826-.056h-2.59zm16.638-1.624v1.456l-1.33 1.008 1.33 1.036v1.442l-2.17-1.694v-1.54l2.17-1.708zm-2.73 0v1.428l-1.358 1.022 1.358 1.05v1.456l-2.198-1.736v-1.512l2.198-1.708zm12.976-3.794l-3.99 3.976 4.242 5.992h-2.17l-3.276-4.774-1.428 1.428V138h-1.736v-9.968h1.736v4.522l4.41-4.522h2.212zm5.79-.014l3.85 9.982h-1.876l-.952-2.646h-3.948l-.98 2.646h-1.806l3.85-9.982h1.862zm.56 6.02l-1.484-4.2-1.554 4.2h3.038zm12.572-6.006l-3.99 3.976 4.242 5.992h-2.17l-3.276-4.774-1.428 1.428V138h-1.736v-9.968h1.736v4.522l4.41-4.522h2.212zm12.305 0v1.47h-5.446v2.646h5.054v1.414h-5.054v2.94h5.53V138h-7.266v-9.968h7.182zm10.19 6.174c-.093 1.223-.532 2.203-1.316 2.94-.775.728-1.783 1.092-3.024 1.092-1.409 0-2.539-.476-3.388-1.428-.849-.952-1.274-2.217-1.274-3.794 0-.952.182-1.815.546-2.59a4.462 4.462 0 0 1 1.638-1.89c.728-.485 1.582-.728 2.562-.728 1.055 0 1.974.294 2.758.882.784.579 1.255 1.419 1.414 2.52h-1.736c-.121-.597-.401-1.064-.84-1.4-.439-.345-.98-.518-1.624-.518-.663 0-1.227.187-1.694.56a3.1 3.1 0 0 0-.98 1.386 5.412 5.412 0 0 0-.28 1.778c0 .485.056.943.168 1.372.112.429.28.826.504 1.19a2.5 2.5 0 0 0 .91.854c.392.215.845.322 1.358.322 1.484 0 2.333-.849 2.548-2.548h1.75zm8.471-6.174v1.512h-3.178V138h-1.75v-8.456h-3.178v-1.512h8.106zm8.971 6.874c0 .989-.299 1.755-.896 2.296-.588.532-1.423.798-2.506.798h-4.41v-9.968h1.75v3.808h2.66c1.092 0 1.932.266 2.52.798.588.532.882 1.288.882 2.268zm-1.75.042c0-.523-.154-.933-.462-1.232-.308-.299-.737-.448-1.288-.448h-2.562v3.304h2.59c1.148 0 1.722-.541 1.722-1.624zm5.796-3.136l2.198 1.75v1.512l-2.198 1.694v-1.428l1.344-1.008-1.344-1.064v-1.456zm-2.73.014l2.156 1.708v1.526l-2.156 1.68v-1.414l1.33-1.008-1.33-1.036v-1.456zm8.525 4.284v1.428c0 .728-.14 1.311-.42 1.75-.28.448-.775.751-1.484.91v-.84c.578-.177.882-.63.91-1.358h-.91v-1.89h1.904zm-83.704 12.716v1.456l-1.33 1.008 1.33 1.036v1.442l-2.17-1.694v-1.54l2.17-1.708zm-2.73 0v1.428l-1.358 1.022 1.358 1.05v1.456l-2.198-1.736v-1.512l2.198-1.708zm12.976-3.794l-3.99 3.976 4.242 5.992h-2.17l-3.276-4.774-1.428 1.428V155h-1.736v-9.968h1.736v4.522l4.41-4.522h2.212zm5.79-.014l3.85 9.982h-1.876l-.952-2.646h-3.948l-.98 2.646h-1.806l3.85-9.982h1.862zm.56 6.02l-1.484-4.2-1.554 4.2h3.038zm12.572-6.006l-3.99 3.976 4.242 5.992h-2.17l-3.276-4.774-1.428 1.428V155h-1.736v-9.968h1.736v4.522l4.41-4.522h2.212zm13.285 6.874c0 .989-.299 1.755-.896 2.296-.588.532-1.424.798-2.506.798h-4.732v-9.968h7.336v1.512h-5.586v2.296h2.982c1.092 0 1.932.266 2.52.798.588.532.882 1.288.882 2.268zm-1.75.042c0-.523-.154-.933-.462-1.232-.308-.299-.738-.448-1.288-.448h-2.884v3.304h2.912c1.148 0 1.722-.541 1.722-1.624zm5.783.252l-3.444-7.168h1.932l2.408 5.348 2.464-5.348h1.89l-3.878 7.938c-.401.821-.831 1.405-1.288 1.75a2.513 2.513 0 0 1-1.554.518c-.411 0-.803-.084-1.176-.252v-1.47c.271.168.644.252 1.12.252a.969.969 0 0 0 .756-.35c.205-.233.457-.63.756-1.19l.014-.028zm14.469 5.278h-1.694V155h-6.496v2.478h-1.694v-3.99h.966c.382-.672.695-1.652.938-2.94.242-1.288.364-2.613.364-3.976v-1.54h6.496v8.456h1.12v3.99zm-2.87-3.99v-6.944h-3.038v.602c0 1.204-.112 2.403-.336 3.598-.215 1.185-.481 2.1-.798 2.744h4.172zm11.237-8.456v1.47h-5.446v2.646h5.054v1.414h-5.054v2.94h5.53V155h-7.266v-9.968h7.182zm8.805 0v1.512h-3.178V155h-1.75v-8.456h-3.178v-1.512h8.106zm3.679 3.78l2.198 1.75v1.512l-2.198 1.694v-1.428l1.344-1.008-1.344-1.064v-1.456zm-2.73.014l2.156 1.708v1.526l-2.156 1.68v-1.414l1.33-1.008-1.33-1.036v-1.456zM90.002 325.032V335h-1.316v-8.82h-5.264V335h-1.316v-9.968h7.896zm2.264 0h4.102c1.017 0 1.824.233 2.422.7.597.457.895 1.181.895 2.17 0 2.007-1.133 3.01-3.401 3.01H93.58V335h-1.316v-9.968zm1.316 1.134v3.64h2.534c.709 0 1.26-.131 1.651-.392.402-.271.603-.747.603-1.428 0-.383-.066-.7-.197-.952a1.177 1.177 0 0 0-.546-.56 2.459 2.459 0 0 0-.755-.238 5.387 5.387 0 0 0-.939-.07h-2.352zm11.906-1.372c1.512 0 2.688.476 3.528 1.428.84.943 1.26 2.179 1.26 3.71 0 1.54-.416 2.809-1.246 3.808-.831.999-2.007 1.498-3.528 1.498-.775 0-1.47-.14-2.086-.42a4.005 4.005 0 0 1-1.512-1.162 5.504 5.504 0 0 1-.882-1.694 6.945 6.945 0 0 1-.294-2.058c0-1.559.429-2.8 1.288-3.724.868-.924 2.025-1.386 3.472-1.386zm0 1.148c-1.111 0-1.965.392-2.562 1.176-.588.775-.882 1.736-.882 2.884 0 1.251.312 2.249.938 2.996.634.737 1.479 1.106 2.534 1.106 1.045 0 1.88-.373 2.506-1.12.625-.747.938-1.741.938-2.982 0-1.232-.318-2.217-.952-2.954-.626-.737-1.466-1.106-2.52-1.106zm13.338-.91v1.148h-5.586v3.122h5.222v1.106h-5.222v3.444h5.656V335h-6.972v-9.968h6.902zm9.749 0l-4.2 4.004 4.368 5.964h-1.68l-3.612-5.068-1.652 1.568v3.5h-1.316v-9.968h1.316v4.942l5.054-4.942h1.722zm8.162 0v1.148h-3.346V335h-1.316v-8.82h-3.346v-1.148h8.008zM137.86 335v-9.968h1.316v8.442h.028l4.886-8.442h1.666V335h-1.316v-8.47h-.028l-4.9 8.47h-1.652zm10.159-9.968h4.102c1.018 0 1.825.233 2.422.7.598.457.896 1.181.896 2.17 0 2.007-1.134 3.01-3.402 3.01h-2.702V335h-1.316v-9.968zm1.316 1.134v3.64h2.534c.71 0 1.26-.131 1.652-.392.402-.271.602-.747.602-1.428 0-.383-.065-.7-.196-.952a1.174 1.174 0 0 0-.546-.56 2.447 2.447 0 0 0-.756-.238 5.384 5.384 0 0 0-.938-.07h-2.352zm11.907-1.372c1.512 0 2.688.476 3.528 1.428.84.943 1.26 2.179 1.26 3.71 0 1.54-.416 2.809-1.246 3.808-.831.999-2.007 1.498-3.528 1.498-.775 0-1.47-.14-2.086-.42a4.005 4.005 0 0 1-1.512-1.162 5.504 5.504 0 0 1-.882-1.694 6.945 6.945 0 0 1-.294-2.058c0-1.559.429-2.8 1.288-3.724.868-.924 2.025-1.386 3.472-1.386zm0 1.148c-1.111 0-1.965.392-2.562 1.176-.588.775-.882 1.736-.882 2.884 0 1.251.312 2.249.938 2.996.634.737 1.479 1.106 2.534 1.106 1.045 0 1.88-.373 2.506-1.12.625-.747.938-1.741.938-2.982 0-1.232-.318-2.217-.952-2.954-.626-.737-1.466-1.106-2.52-1.106zm6.436-.91h4.256c.915 0 1.671.201 2.268.602.607.401.91 1.031.91 1.89 0 .495-.135.938-.406 1.33a2.103 2.103 0 0 1-1.064.812c.616.14 1.088.429 1.414.868.336.439.504.989.504 1.652 0 1.876-1.26 2.814-3.78 2.814h-4.102v-9.968zm1.288 1.12v3.15h2.366c.271 0 .5-.005.686-.014.196-.019.416-.056.658-.112.243-.056.434-.135.574-.238.15-.112.276-.271.378-.476a1.53 1.53 0 0 0 .168-.742c0-.289-.046-.532-.14-.728a1.209 1.209 0 0 0-.336-.462 1.285 1.285 0 0 0-.546-.252 3.193 3.193 0 0 0-.616-.098 6.865 6.865 0 0 0-.7-.028h-2.492zm0 4.186v3.556h2.632c.327 0 .593-.005.798-.014.206-.019.434-.061.686-.126.262-.065.467-.159.616-.28a1.52 1.52 0 0 0 .378-.546c.103-.243.154-.532.154-.868 0-.28-.037-.523-.112-.728a.936.936 0 0 0-.35-.49 2.897 2.897 0 0 0-.462-.294c-.14-.075-.345-.126-.616-.154a6.524 6.524 0 0 0-.63-.042 12.435 12.435 0 0 0-.686-.014h-2.408zm12.482-5.306L185.34 335h-1.47l-1.106-3.052h-4.186L177.444 335h-1.4l3.92-9.968h1.484zm.924 5.866l-1.694-4.606-1.722 4.606h3.416zm11.864-5.866V335h-1.316v-4.662h-5.264V335h-1.316v-9.968h1.316v4.158h5.264v-4.158h1.316zm2.208 9.968v-9.968h1.316v8.442h.028l4.886-8.442h1.666V335h-1.316v-8.47h-.028l-4.9 8.47h-1.652zm17.005-9.968v1.148h-5.586v3.122h5.222v1.106h-5.222v3.444h5.656V335h-6.972v-9.968h6.902zM90.35 352v-9.968h1.316v8.442h.028l4.886-8.442h1.666V352H96.93v-8.47h-.028l-4.9 8.47H90.35zm14.056-9.968h4.102c1.017 0 1.825.233 2.422.7.597.457.896 1.181.896 2.17 0 2.007-1.134 3.01-3.402 3.01h-2.702V352h-1.316v-9.968zm1.316 1.134v3.64h2.534c.709 0 1.26-.131 1.652-.392.401-.271.602-.747.602-1.428 0-.383-.065-.7-.196-.952a1.174 1.174 0 0 0-.546-.56 2.464 2.464 0 0 0-.756-.238 5.384 5.384 0 0 0-.938-.07h-2.352zm10.853-1.134l3.892 9.968h-1.47l-1.106-3.052h-4.186L112.571 352h-1.4l3.92-9.968h1.484zm.924 5.866l-1.694-4.606-1.722 4.606h3.416zm11.388 1.19c0 .327-.074.667-.224 1.022a3.795 3.795 0 0 1-.658 1.008c-.289.327-.695.593-1.218.798-.522.205-1.115.308-1.778.308-1.25 0-2.254-.294-3.01-.882-.746-.597-1.12-1.475-1.12-2.632h1.274c.028.849.313 1.47.854 1.862.542.383 1.246.574 2.114.574.7 0 1.284-.191 1.75-.574.467-.383.7-.887.7-1.512 0-.345-.065-.639-.196-.882a1.245 1.245 0 0 0-.574-.546 2.97 2.97 0 0 0-.798-.252 5.63 5.63 0 0 0-.952-.07c-.317 0-.616.009-.896.028v-1.092c.15.019.448.028.896.028 1.447 0 2.17-.597 2.17-1.792 0-1.064-.714-1.596-2.142-1.596-1.512 0-2.338.677-2.478 2.03h-1.274c.038-1.027.402-1.801 1.092-2.324.691-.532 1.592-.798 2.702-.798 1.018 0 1.839.224 2.464.672.635.448.952 1.12.952 2.016 0 .504-.163.961-.49 1.372-.326.401-.714.667-1.162.798v.042c.635.121 1.125.406 1.47.854.355.448.532.961.532 1.54zm1.714-7.056h4.102c1.018 0 1.825.233 2.422.7.598.457.896 1.181.896 2.17 0 2.007-1.134 3.01-3.402 3.01h-2.702V352h-1.316v-9.968zm1.316 1.134v3.64h2.534c.71 0 1.26-.131 1.652-.392.402-.271.602-.747.602-1.428 0-.383-.065-.7-.196-.952a1.174 1.174 0 0 0-.546-.56 2.447 2.447 0 0 0-.756-.238 5.384 5.384 0 0 0-.938-.07h-2.352zm10.854-1.134l3.892 9.968h-1.47l-1.106-3.052h-4.186L138.767 352h-1.4l3.92-9.968h1.484zm.924 5.866l-1.694-4.606-1.722 4.606h3.416zm5.284-1.834h3.332c.98 0 1.736.261 2.268.784.532.523.798 1.255.798 2.198 0 .933-.271 1.661-.812 2.184-.532.513-1.284.77-2.254.77h-4.648v-9.968h6.832v1.148h-5.516v2.884zm5.082 2.982c0-1.223-.728-1.834-2.184-1.834h-2.898v3.64h2.898c1.456 0 2.184-.602 2.184-1.806zm7.386-7.252c1.512 0 2.688.476 3.528 1.428.84.943 1.26 2.179 1.26 3.71 0 1.54-.416 2.809-1.246 3.808-.831.999-2.007 1.498-3.528 1.498-.775 0-1.47-.14-2.086-.42a4.005 4.005 0 0 1-1.512-1.162 5.504 5.504 0 0 1-.882-1.694 6.945 6.945 0 0 1-.294-2.058c0-1.559.429-2.8 1.288-3.724.868-.924 2.025-1.386 3.472-1.386zm0 1.148c-1.111 0-1.965.392-2.562 1.176-.588.775-.882 1.736-.882 2.884 0 1.251.312 2.249.938 2.996.634.737 1.479 1.106 2.534 1.106 1.045 0 1.88-.373 2.506-1.12.625-.747.938-1.741.938-2.982 0-1.232-.318-2.217-.952-2.954-.626-.737-1.466-1.106-2.52-1.106zm13.106-.91v1.148h-3.346V352h-1.316v-8.82h-3.346v-1.148h8.008zm9.215 0l-4.2 4.004 4.368 5.964h-1.68l-3.612-5.068-1.652 1.568v3.5h-1.316v-9.968h1.316v4.942l5.054-4.942h1.722zm5.432 0l3.892 9.968h-1.47l-1.106-3.052h-4.186L185.196 352h-1.4l3.92-9.968h1.484zm.924 5.866l-1.694-4.606-1.722 4.606h3.416zm14.781-5.866v1.148h-3.346V352h-1.316v-8.82h-3.346v-1.148h8.008zm8.543 7.056c0 .327-.075.667-.224 1.022a3.82 3.82 0 0 1-.658 1.008c-.289.327-.695.593-1.218.798-.523.205-1.115.308-1.778.308-1.251 0-2.254-.294-3.01-.882-.747-.597-1.12-1.475-1.12-2.632h1.274c.028.849.313 1.47.854 1.862.541.383 1.246.574 2.114.574.7 0 1.283-.191 1.75-.574.467-.383.7-.887.7-1.512 0-.345-.065-.639-.196-.882a1.25 1.25 0 0 0-.574-.546 2.97 2.97 0 0 0-.798-.252 5.64 5.64 0 0 0-.952-.07c-.317 0-.616.009-.896.028v-1.092c.149.019.448.028.896.028 1.447 0 2.17-.597 2.17-1.792 0-1.064-.714-1.596-2.142-1.596-1.512 0-2.338.677-2.478 2.03h-1.274c.037-1.027.401-1.801 1.092-2.324.691-.532 1.591-.798 2.702-.798 1.017 0 1.839.224 2.464.672.635.448.952 1.12.952 2.016 0 .504-.163.961-.49 1.372-.327.401-.714.667-1.162.798v.042c.635.121 1.125.406 1.47.854.355.448.532.961.532 1.54zm-99.001 189.944V549h-1.316v-8.82h-5.264V549h-1.316v-9.968h7.896zm6.408-.238c1.512 0 2.688.476 3.528 1.428.84.943 1.26 2.179 1.26 3.71 0 1.54-.416 2.809-1.246 3.808-.831.999-2.007 1.498-3.528 1.498-.775 0-1.47-.14-2.086-.42a4.005 4.005 0 0 1-1.512-1.162 5.504 5.504 0 0 1-.882-1.694 6.945 6.945 0 0 1-.294-2.058c0-1.559.429-2.8 1.288-3.724.868-.924 2.025-1.386 3.472-1.386zm0 1.148c-1.111 0-1.965.392-2.562 1.176-.588.775-.882 1.736-.882 2.884 0 1.251.312 2.249.938 2.996.634.737 1.479 1.106 2.534 1.106 1.045 0 1.88-.373 2.506-1.12.625-.747.938-1.741.938-2.982 0-1.232-.318-2.217-.952-2.954-.626-.737-1.466-1.106-2.52-1.106zm15.215 11.536h-1.274V549h-7.21v2.478h-1.274v-3.626h.98c.382-.681.695-1.657.938-2.926.242-1.279.364-2.599.364-3.962v-1.932h6.37v8.82h1.106v3.626zm-2.422-3.626v-7.672h-3.766v1.358c0 1.204-.112 2.399-.336 3.584-.215 1.176-.481 2.086-.798 2.73h4.9zm5.063 1.148h-1.316v-9.968h6.552v1.148h-5.236V549zm10.54-10.206c1.512 0 2.688.476 3.528 1.428.84.943 1.26 2.179 1.26 3.71 0 1.54-.415 2.809-1.246 3.808-.83.999-2.006 1.498-3.528 1.498-.774 0-1.47-.14-2.086-.42a4.005 4.005 0 0 1-1.512-1.162 5.547 5.547 0 0 1-.882-1.694 6.945 6.945 0 0 1-.294-2.058c0-1.559.43-2.8 1.288-3.724.868-.924 2.026-1.386 3.472-1.386zm0 1.148c-1.11 0-1.964.392-2.562 1.176-.588.775-.882 1.736-.882 2.884 0 1.251.313 2.249.938 2.996.635.737 1.48 1.106 2.534 1.106 1.046 0 1.881-.373 2.506-1.12.626-.747.938-1.741.938-2.982 0-1.232-.317-2.217-.952-2.954-.625-.737-1.465-1.106-2.52-1.106zm13.107-.91v1.148h-3.346V549h-1.316v-8.82h-3.346v-1.148h8.008zm5.077-.238c1.512 0 2.688.476 3.528 1.428.84.943 1.26 2.179 1.26 3.71 0 1.54-.415 2.809-1.246 3.808-.831.999-2.007 1.498-3.528 1.498-.775 0-1.47-.14-2.086-.42a4.005 4.005 0 0 1-1.512-1.162 5.504 5.504 0 0 1-.882-1.694 6.945 6.945 0 0 1-.294-2.058c0-1.559.429-2.8 1.288-3.724.868-.924 2.025-1.386 3.472-1.386zm0 1.148c-1.111 0-1.965.392-2.562 1.176-.588.775-.882 1.736-.882 2.884 0 1.251.313 2.249.938 2.996.635.737 1.479 1.106 2.534 1.106 1.045 0 1.881-.373 2.506-1.12.625-.747.938-1.741.938-2.982 0-1.232-.317-2.217-.952-2.954-.625-.737-1.465-1.106-2.52-1.106zm6.437-.91h4.256c.914 0 1.67.201 2.268.602.606.401.91 1.031.91 1.89 0 .495-.136.938-.406 1.33a2.107 2.107 0 0 1-1.064.812c.616.14 1.087.429 1.414.868.336.439.504.989.504 1.652 0 1.876-1.26 2.814-3.78 2.814h-4.102v-9.968zm1.288 1.12v3.15h2.366c.27 0 .499-.005.686-.014.196-.019.415-.056.658-.112.242-.056.434-.135.574-.238.149-.112.275-.271.378-.476a1.53 1.53 0 0 0 .168-.742c0-.289-.047-.532-.14-.728a1.23 1.23 0 0 0-.336-.462 1.296 1.296 0 0 0-.546-.252 3.205 3.205 0 0 0-.616-.098 6.892 6.892 0 0 0-.7-.028h-2.492zm0 4.186v3.556h2.632c.326 0 .592-.005.798-.014.205-.019.434-.061.686-.126.261-.065.466-.159.616-.28.149-.131.275-.313.378-.546.102-.243.154-.532.154-.868 0-.28-.038-.523-.112-.728a.941.941 0 0 0-.35-.49 2.99 2.99 0 0 0-.462-.294c-.14-.075-.346-.126-.616-.154a6.563 6.563 0 0 0-.63-.042 12.46 12.46 0 0 0-.686-.014h-2.408zm16.388-5.306l-4.2 4.004 4.368 5.964h-1.68l-3.612-5.068-1.652 1.568v3.5h-1.316v-9.968h1.316v4.942l5.054-4.942h1.722zm5.432 0l3.892 9.968h-1.471l-1.105-3.052h-4.186L192.976 549h-1.401l3.921-9.968h1.484zm.924 5.866l-1.694-4.606-1.722 4.606h3.416zm15.956-5.866l-4.2 4.004 4.368 5.964h-1.68l-3.612-5.068-1.652 1.568v3.5h-1.316v-9.968h1.316v4.942l5.054-4.942h1.722zm-200.167 17h4.102c1.018 0 1.825.233 2.422.7.598.457.896 1.181.896 2.17 0 2.007-1.134 3.01-3.402 3.01H15.01V566h-1.316v-9.968zm1.316 1.134v3.64h2.534c.71 0 1.26-.131 1.652-.392.402-.271.602-.747.602-1.428 0-.383-.065-.7-.196-.952a1.177 1.177 0 0 0-.546-.56 2.459 2.459 0 0 0-.756-.238 5.388 5.388 0 0 0-.938-.07H15.01zm10.853-1.134L29.754 566h-1.47l-1.106-3.052h-4.186L21.858 566h-1.4l3.92-9.968h1.484zm.924 5.866l-1.694-4.606-1.722 4.606h3.416zm11.388 1.19c0 .327-.074.667-.224 1.022a3.795 3.795 0 0 1-.658 1.008c-.289.327-.695.593-1.218.798-.522.205-1.115.308-1.778.308-1.25 0-2.254-.294-3.01-.882-.746-.597-1.12-1.475-1.12-2.632h1.274c.028.849.313 1.47.854 1.862.542.383 1.246.574 2.114.574.7 0 1.284-.191 1.75-.574.467-.383.7-.887.7-1.512 0-.345-.065-.639-.196-.882a1.248 1.248 0 0 0-.574-.546 2.97 2.97 0 0 0-.798-.252 5.636 5.636 0 0 0-.952-.07c-.317 0-.616.009-.896.028v-1.092c.15.019.448.028.896.028 1.447 0 2.17-.597 2.17-1.792 0-1.064-.714-1.596-2.142-1.596-1.512 0-2.338.677-2.478 2.03h-1.274c.038-1.027.402-1.801 1.092-2.324.691-.532 1.592-.798 2.702-.798 1.018 0 1.84.224 2.464.672.635.448.952 1.12.952 2.016 0 .504-.163.961-.49 1.372-.326.401-.714.667-1.162.798v.042c.635.121 1.125.406 1.47.854.355.448.532.961.532 1.54zm1.659-7.056h4.256c.914 0 1.67.201 2.268.602.606.401.91 1.031.91 1.89 0 .495-.136.938-.406 1.33a2.105 2.105 0 0 1-1.064.812c.616.14 1.087.429 1.414.868.336.439.504.989.504 1.652 0 1.876-1.26 2.814-3.78 2.814h-4.102v-9.968zm1.288 1.12v3.15h2.366c.27 0 .499-.005.686-.014.196-.019.415-.056.658-.112.242-.056.434-.135.574-.238a1.32 1.32 0 0 0 .378-.476 1.53 1.53 0 0 0 .168-.742 1.69 1.69 0 0 0-.14-.728 1.217 1.217 0 0 0-.336-.462 1.293 1.293 0 0 0-.546-.252 3.198 3.198 0 0 0-.616-.098 6.88 6.88 0 0 0-.7-.028H41.12zm0 4.186v3.556h2.632c.326 0 .592-.005.798-.014.205-.019.434-.061.686-.126.26-.065.466-.159.616-.28.149-.131.275-.313.378-.546.102-.243.154-.532.154-.868 0-.28-.038-.523-.112-.728a.938.938 0 0 0-.35-.49 2.961 2.961 0 0 0-.462-.294c-.14-.075-.346-.126-.616-.154a6.551 6.551 0 0 0-.63-.042 12.46 12.46 0 0 0-.686-.014H41.12zm15.197-5.306v1.148h-5.585v3.122h5.222v1.106h-5.222v3.444h5.656V566h-6.973v-9.968h6.903zm1.713 0h4.102c1.017 0 1.825.233 2.422.7.597.457.896 1.181.896 2.17 0 2.007-1.134 3.01-3.402 3.01h-2.702V566h-1.316v-9.968zm1.316 1.134v3.64h2.534c.71 0 1.26-.131 1.652-.392.401-.271.602-.747.602-1.428 0-.383-.065-.7-.196-.952a1.177 1.177 0 0 0-.546-.56 2.457 2.457 0 0 0-.756-.238 5.387 5.387 0 0 0-.938-.07h-2.352zm14.622-1.134v1.148h-3.346V566h-1.316v-8.82h-3.346v-1.148h8.008zm9.803 0h1.316V566h-1.316v-9.968zm-1.246 7.014c0 .933-.27 1.661-.812 2.184-.532.513-1.283.77-2.254.77h-4.368v-9.968h1.316v4.046h3.052c.98 0 1.736.261 2.268.784.532.513.798 1.241.798 2.184zm-1.33 0c0-1.223-.728-1.834-2.184-1.834h-2.604v3.64h2.604c1.456 0 2.184-.602 2.184-1.806zm6.092-7.014h4.256c.914 0 1.67.201 2.268.602.606.401.91 1.031.91 1.89 0 .495-.136.938-.406 1.33a2.104 2.104 0 0 1-1.064.812c.616.14 1.087.429 1.414.868.336.439.504.989.504 1.652 0 1.876-1.26 2.814-3.78 2.814h-4.102v-9.968zm1.288 1.12v3.15h2.366c.27 0 .499-.005.686-.014a5.17 5.17 0 0 0 .658-.112c.242-.056.434-.135.574-.238.149-.112.275-.271.378-.476a1.53 1.53 0 0 0 .168-.742c0-.289-.047-.532-.14-.728a1.215 1.215 0 0 0-.336-.462 1.291 1.291 0 0 0-.546-.252 3.196 3.196 0 0 0-.616-.098 6.877 6.877 0 0 0-.7-.028h-2.492zm0 4.186v3.556h2.632c.326 0 .592-.005.798-.014.205-.019.434-.061.686-.126.261-.065.466-.159.616-.28.149-.131.275-.313.378-.546a2.22 2.22 0 0 0 .154-.868c0-.28-.038-.523-.112-.728a.938.938 0 0 0-.35-.49 2.952 2.952 0 0 0-.462-.294c-.14-.075-.346-.126-.616-.154a6.548 6.548 0 0 0-.63-.042 12.46 12.46 0 0 0-.686-.014h-2.408zm12.482-5.306L104.95 566h-1.47l-1.106-3.052h-4.186L97.054 566h-1.4l3.92-9.968h1.484zm.924 5.866l-1.694-4.606-1.722 4.606h3.416zm11.864-5.866V566h-1.316v-4.662h-5.264V566h-1.316v-9.968h1.316v4.158h5.264v-4.158h1.316zm2.207 9.968v-9.968h1.316v8.442h.028l4.886-8.442h1.666V566h-1.316v-8.47h-.028l-4.9 8.47h-1.652zm13.296-4.662h-1.876V566h-1.316v-9.968h1.316v4.158h1.904c.13-1.353.597-2.422 1.4-3.206.812-.793 1.857-1.19 3.136-1.19 1.446 0 2.571.476 3.374 1.428.812.943 1.218 2.179 1.218 3.71 0 1.54-.402 2.809-1.204 3.808-.794.999-1.918 1.498-3.374 1.498-1.391 0-2.483-.457-3.276-1.372-.784-.924-1.218-2.1-1.302-3.528zm7.84-.336c0-1.232-.299-2.217-.896-2.954-.588-.737-1.382-1.106-2.38-1.106-1.046 0-1.848.392-2.408 1.176-.56.775-.84 1.736-.84 2.884 0 1.241.294 2.235.882 2.982.597.747 1.395 1.12 2.394 1.12.98 0 1.764-.373 2.352-1.12.597-.747.896-1.741.896-2.982zm15.306 1.232c-.112 1.26-.55 2.245-1.316 2.954-.756.7-1.754 1.05-2.996 1.05-1.418 0-2.543-.467-3.374-1.4-.83-.943-1.246-2.212-1.246-3.808 0-1.493.416-2.735 1.246-3.724.84-.999 1.998-1.498 3.472-1.498 1.055 0 1.984.285 2.786.854.803.569 1.251 1.358 1.344 2.366h-1.316c-.149-.653-.476-1.162-.98-1.526-.504-.373-1.124-.56-1.862-.56-1.11 0-1.95.392-2.52 1.176-.56.784-.84 1.75-.84 2.898 0 1.269.299 2.268.896 2.996.598.728 1.414 1.092 2.45 1.092.85 0 1.526-.243 2.03-.728.504-.495.808-1.209.91-2.142h1.316zm1.662 3.766v-9.968h1.316v8.442h.028l4.886-8.442h1.666V566h-1.316v-8.47h-.028l-4.9 8.47h-1.652zm18.545-3.766c-.112 1.26-.55 2.245-1.316 2.954-.756.7-1.754 1.05-2.996 1.05-1.418 0-2.543-.467-3.374-1.4-.83-.943-1.246-2.212-1.246-3.808 0-1.493.416-2.735 1.246-3.724.84-.999 1.998-1.498 3.472-1.498 1.055 0 1.984.285 2.786.854.803.569 1.251 1.358 1.344 2.366h-1.316c-.149-.653-.476-1.162-.98-1.526-.504-.373-1.124-.56-1.862-.56-1.11 0-1.95.392-2.52 1.176-.56.784-.84 1.75-.84 2.898 0 1.269.299 2.268.896 2.996.598.728 1.414 1.092 2.45 1.092.85 0 1.526-.243 2.03-.728.504-.495.808-1.209.91-2.142h1.316zm8.332-6.202v1.148h-3.346V566h-1.316v-8.82h-3.346v-1.148h8.008zm8.025 0v1.148h-5.586v3.122h5.222v1.106h-5.222v3.444h5.656V566h-6.972v-9.968h6.902zm1.67 0h1.82l3.206 8.442 3.094-8.442h1.834V566h-1.246v-8.316L196.315 566h-1.148l-3.178-8.316V566h-1.26v-9.968zm20.862 0h1.316V566h-1.316v-9.968zm-1.246 7.014c0 .933-.271 1.661-.812 2.184-.532.513-1.284.77-2.254.77h-4.368v-9.968h1.316v4.046h3.052c.98 0 1.736.261 2.268.784.532.513.798 1.241.798 2.184zm-1.33 0c0-1.223-.728-1.834-2.184-1.834h-2.604v3.64h2.604c1.456 0 2.184-.602 2.184-1.806zM91.587 759.234c-.112 1.26-.55 2.245-1.316 2.954-.756.7-1.755 1.05-2.996 1.05-1.419 0-2.543-.467-3.374-1.4-.83-.943-1.246-2.212-1.246-3.808 0-1.493.415-2.735 1.246-3.724.84-.999 1.997-1.498 3.472-1.498 1.055 0 1.983.285 2.786.854.803.569 1.25 1.358 1.344 2.366h-1.316c-.15-.653-.476-1.162-.98-1.526-.504-.373-1.125-.56-1.862-.56-1.11 0-1.95.392-2.52 1.176-.56.784-.84 1.75-.84 2.898 0 1.269.299 2.268.896 2.996.597.728 1.414 1.092 2.45 1.092.85 0 1.526-.243 2.03-.728.504-.495.807-1.209.91-2.142h1.316zm5.862-6.44c1.512 0 2.688.476 3.528 1.428.84.943 1.26 2.179 1.26 3.71 0 1.54-.416 2.809-1.246 3.808-.831.999-2.007 1.498-3.528 1.498-.775 0-1.47-.14-2.086-.42a4.005 4.005 0 0 1-1.512-1.162 5.517 5.517 0 0 1-.882-1.694 6.945 6.945 0 0 1-.294-2.058c0-1.559.429-2.8 1.288-3.724.868-.924 2.025-1.386 3.472-1.386zm0 1.148c-1.111 0-1.965.392-2.562 1.176-.588.775-.882 1.736-.882 2.884 0 1.251.312 2.249.938 2.996.634.737 1.479 1.106 2.534 1.106 1.045 0 1.88-.373 2.506-1.12.625-.747.938-1.741.938-2.982 0-1.232-.318-2.217-.952-2.954-.626-.737-1.466-1.106-2.52-1.106zm14.332-.91V763h-1.316v-8.82h-5.264V763h-1.316v-9.968h7.896zm2.264 0h4.102c1.017 0 1.824.233 2.422.7.597.457.896 1.181.896 2.17 0 2.007-1.134 3.01-3.402 3.01h-2.702V763h-1.316v-9.968zm1.316 1.134v3.64h2.534c.709 0 1.26-.131 1.652-.392.401-.271.602-.747.602-1.428 0-.383-.066-.7-.196-.952a1.183 1.183 0 0 0-.546-.56 2.464 2.464 0 0 0-.756-.238 5.392 5.392 0 0 0-.938-.07h-2.352zm11.906-1.372c1.512 0 2.688.476 3.528 1.428.84.943 1.26 2.179 1.26 3.71 0 1.54-.415 2.809-1.246 3.808-.831.999-2.007 1.498-3.528 1.498-.775 0-1.47-.14-2.086-.42a4.005 4.005 0 0 1-1.512-1.162 5.504 5.504 0 0 1-.882-1.694 6.945 6.945 0 0 1-.294-2.058c0-1.559.429-2.8 1.288-3.724.868-.924 2.025-1.386 3.472-1.386zm0 1.148c-1.111 0-1.965.392-2.562 1.176-.588.775-.882 1.736-.882 2.884 0 1.251.313 2.249.938 2.996.635.737 1.479 1.106 2.534 1.106 1.045 0 1.881-.373 2.506-1.12.625-.747.938-1.741.938-2.982 0-1.232-.317-2.217-.952-2.954-.625-.737-1.465-1.106-2.52-1.106zm6.437-.91h4.256c.914 0 1.67.201 2.268.602.606.401.91 1.031.91 1.89 0 .495-.136.938-.406 1.33a2.107 2.107 0 0 1-1.064.812c.616.14 1.087.429 1.414.868.336.439.504.989.504 1.652 0 1.876-1.26 2.814-3.78 2.814h-4.102v-9.968zm1.288 1.12v3.15h2.366c.27 0 .499-.005.686-.014.196-.019.415-.056.658-.112.242-.056.434-.135.574-.238.149-.112.275-.271.378-.476a1.53 1.53 0 0 0 .168-.742c0-.289-.047-.532-.14-.728a1.23 1.23 0 0 0-.336-.462 1.296 1.296 0 0 0-.546-.252 3.205 3.205 0 0 0-.616-.098 6.892 6.892 0 0 0-.7-.028h-2.492zm0 4.186v3.556h2.632c.326 0 .592-.005.798-.014.205-.019.434-.061.686-.126.261-.065.466-.159.616-.28.149-.131.275-.313.378-.546.102-.243.154-.532.154-.868 0-.28-.038-.523-.112-.728a.941.941 0 0 0-.35-.49 2.99 2.99 0 0 0-.462-.294c-.14-.075-.346-.126-.616-.154a6.563 6.563 0 0 0-.63-.042 12.46 12.46 0 0 0-.686-.014h-2.408zm12.496-5.544c1.512 0 2.688.476 3.528 1.428.84.943 1.26 2.179 1.26 3.71 0 1.54-.416 2.809-1.246 3.808-.831.999-2.007 1.498-3.528 1.498-.775 0-1.47-.14-2.086-.42a4.005 4.005 0 0 1-1.512-1.162 5.504 5.504 0 0 1-.882-1.694 6.945 6.945 0 0 1-.294-2.058c0-1.559.429-2.8 1.288-3.724.868-.924 2.025-1.386 3.472-1.386zm0 1.148c-1.111 0-1.965.392-2.562 1.176-.588.775-.882 1.736-.882 2.884 0 1.251.312 2.249.938 2.996.634.737 1.479 1.106 2.534 1.106 1.045 0 1.88-.373 2.506-1.12.625-.747.938-1.741.938-2.982 0-1.232-.318-2.217-.952-2.954-.626-.737-1.466-1.106-2.52-1.106zM166.684 763h-1.652l-3.64-4.956-1.176 1.232V763h-1.288v-3.724l-1.176-1.232-3.64 4.956h-1.652l4.424-5.88-3.976-4.088h1.652l4.368 4.634v-4.634h1.288v4.634l4.368-4.634h1.652l-3.976 4.088 4.424 5.88zm9.772 2.478h-1.274V763h-7.21v2.478h-1.274v-3.626h.98c.383-.681.696-1.657.938-2.926.243-1.279.364-2.599.364-3.962v-1.932h6.37v8.82h1.106v3.626zm-2.422-3.626v-7.672h-3.766v1.358c0 1.204-.112 2.399-.336 3.584-.214 1.176-.48 2.086-.798 2.73h4.9zm10.65-8.82v1.148h-5.586v3.122h5.222v1.106h-5.222v3.444h5.656V763h-6.972v-9.968h6.902zm9.552 0V763h-1.316v-4.662h-5.264V763h-1.316v-9.968h1.316v4.158h5.264v-4.158h1.316zm2.208 9.968v-9.968h1.316v8.442h.028l4.886-8.442h1.666V763h-1.316v-8.47h-.028l-4.9 8.47h-1.652zm17.005-9.968v1.148h-5.586v3.122h5.222v1.106h-5.222v3.444h5.656V763h-6.972v-9.968h6.902zM128.522 780v-9.968h1.316v8.442h.028l4.886-8.442h1.666V780h-1.316v-8.47h-.028l-4.9 8.47h-1.652zm14.056-9.968h4.102c1.017 0 1.825.233 2.422.7.597.457.896 1.181.896 2.17 0 2.007-1.134 3.01-3.402 3.01h-2.702V780h-1.316v-9.968zm1.316 1.134v3.64h2.534c.709 0 1.26-.131 1.652-.392.401-.271.602-.747.602-1.428 0-.383-.065-.7-.196-.952a1.174 1.174 0 0 0-.546-.56 2.464 2.464 0 0 0-.756-.238 5.384 5.384 0 0 0-.938-.07h-2.352zm10.853-1.134l3.892 9.968h-1.47l-1.106-3.052h-4.186L150.743 780h-1.4l3.92-9.968h1.484zm.924 5.866l-1.694-4.606-1.722 4.606h3.416zm11.388 1.19c0 .327-.074.667-.224 1.022a3.795 3.795 0 0 1-.658 1.008c-.289.327-.695.593-1.218.798-.522.205-1.115.308-1.778.308-1.25 0-2.254-.294-3.01-.882-.746-.597-1.12-1.475-1.12-2.632h1.274c.028.849.313 1.47.854 1.862.542.383 1.246.574 2.114.574.7 0 1.284-.191 1.75-.574.467-.383.7-.887.7-1.512 0-.345-.065-.639-.196-.882a1.245 1.245 0 0 0-.574-.546 2.97 2.97 0 0 0-.798-.252 5.63 5.63 0 0 0-.952-.07c-.317 0-.616.009-.896.028v-1.092c.15.019.448.028.896.028 1.447 0 2.17-.597 2.17-1.792 0-1.064-.714-1.596-2.142-1.596-1.512 0-2.338.677-2.478 2.03h-1.274c.038-1.027.402-1.801 1.092-2.324.691-.532 1.592-.798 2.702-.798 1.018 0 1.839.224 2.464.672.635.448.952 1.12.952 2.016 0 .504-.163.961-.49 1.372-.326.401-.714.667-1.162.798v.042c.635.121 1.125.406 1.47.854.355.448.532.961.532 1.54zm1.658-7.056h4.256c.915 0 1.671.201 2.268.602.607.401.91 1.031.91 1.89 0 .495-.135.938-.406 1.33a2.103 2.103 0 0 1-1.064.812c.616.14 1.088.429 1.414.868.336.439.504.989.504 1.652 0 1.876-1.26 2.814-3.78 2.814h-4.102v-9.968zm1.288 1.12v3.15h2.366c.271 0 .5-.005.686-.014.196-.019.416-.056.658-.112.243-.056.434-.135.574-.238.15-.112.276-.271.378-.476a1.53 1.53 0 0 0 .168-.742c0-.289-.046-.532-.14-.728a1.209 1.209 0 0 0-.336-.462 1.285 1.285 0 0 0-.546-.252 3.193 3.193 0 0 0-.616-.098 6.865 6.865 0 0 0-.7-.028h-2.492zm0 4.186v3.556h2.632c.327 0 .593-.005.798-.014.206-.019.434-.061.686-.126.262-.065.467-.159.616-.28a1.52 1.52 0 0 0 .378-.546c.103-.243.154-.532.154-.868 0-.28-.037-.523-.112-.728a.936.936 0 0 0-.35-.49 2.897 2.897 0 0 0-.462-.294c-.14-.075-.345-.126-.616-.154a6.524 6.524 0 0 0-.63-.042 12.435 12.435 0 0 0-.686-.014h-2.408zm8.296 4.662v-9.968h1.316v8.442h.028l4.886-8.442h1.666V780h-1.316v-8.47h-.028l-4.9 8.47h-1.652zm17.02-9.968v1.148h-3.346V780h-1.316v-8.82h-3.346v-1.148h8.008zm1.123 9.968v-9.968h1.316v8.442h.028l4.886-8.442h1.666V780h-1.316v-8.47h-.028l-4.9 8.47h-1.652zm17.005-9.968v1.148h-5.586v3.122h5.222v1.106h-5.222v3.444h5.656V780h-6.972v-9.968h6.902zM82.04 765.8h131.955v.7H82.039v-.7zm45.376 17h86.579v.7h-86.579v-.7z" fill="#333"/><path d="M36 1v29" stroke="#206DA9" stroke-linecap="round"/><path d="M36 218v26" stroke="#4B5686" stroke-linecap="round"/><path d="M36 433v26" stroke="#744164" stroke-linecap="round"/><path d="M35 646v26" stroke="#9D2B42" stroke-linecap="round"/><path d="M245 111v26" stroke="#366197" stroke-linecap="round"/><path d="M246 325v26" stroke="#654970" stroke-linecap="round"/><path d="M246 539v26" stroke="#853856" stroke-linecap="round"/><path d="M245 753v26" stroke="#C3293A" stroke-linecap="round"/><path d="M196 66H55" stroke="#206DA9" stroke-width="3" stroke-linecap="round" stroke-dasharray="6 10"/><path d="M194 280h-90" stroke="url(#a)" stroke-width="3" stroke-linecap="round" stroke-dasharray="6 10"/><path d="M194 494h-90" stroke="#744164" stroke-width="3" stroke-linecap="round" stroke-dasharray="6 10"/><path d="M194 708h-90" stroke="#9D2B42" stroke-width="3" stroke-linecap="round" stroke-dasharray="6 10"/><path d="M173 172H83" stroke="#366197" stroke-width="3" stroke-linecap="round" stroke-dasharray="6 10"/><path d="M173 388H83" stroke="#654970" stroke-width="3" stroke-linecap="round" stroke-dasharray="6 10"/><path d="M173 601H83" stroke="#853856" stroke-width="3" stroke-linecap="round" stroke-dasharray="6 10"/><circle cx="36" cy="6" r="5" fill="#fff" stroke="#206DA9" stroke-width="2"/><circle cx="36" cy="220" r="5" fill="#fff" stroke="#4B5686" stroke-width="2"/><circle cx="36" cy="435" r="5" fill="#fff" stroke="#744164" stroke-width="2"/><circle cx="35" cy="648" r="5" fill="#fff" stroke="#9D2B42" stroke-width="2"/><circle cx="245" cy="113" r="5" fill="#fff" stroke="#366197" stroke-width="2"/><circle cx="246" cy="327" r="5" fill="#fff" stroke="#654970" stroke-width="2"/><circle cx="246" cy="541" r="5" fill="#fff" stroke="#853856" stroke-width="2"/><circle cx="245" cy="755" r="5" fill="#fff" stroke="#C3293A" stroke-width="2"/><path d="M21.696 87.239c11.042 6.31 25.987.253 33.513-12.915s5.16-29.12-5.883-35.43c-11.043-6.312-25.987-.254-33.513 12.914s-5.16 29.12 5.883 35.43z" fill="#fff" stroke="#206DA9" stroke-width="2"/><path d="M21.696 301.239c11.042 6.311 25.987.253 33.513-12.915s5.16-29.119-5.883-35.43c-11.043-6.312-25.987-.254-33.513 12.914s-5.16 29.12 5.883 35.431z" fill="#fff" stroke="#4B5686" stroke-width="2"/><path d="M21.696 516.239c11.042 6.311 25.987.253 33.513-12.915s5.16-29.119-5.883-35.43c-11.043-6.312-25.987-.254-33.513 12.914s-5.16 29.12 5.883 35.431z" fill="#fff" stroke="#744164" stroke-width="2"/><path d="M21.696 729.239c11.042 6.311 25.987.253 33.513-12.915s5.16-29.119-5.883-35.43c-11.043-6.312-25.987-.254-33.513 12.914s-5.16 29.12 5.883 35.431z" fill="#fff" stroke="#9D2B42" stroke-width="2"/><path fill-rule="evenodd" clip-rule="evenodd" d="M209.868 65a1 1 0 0 0 0 2h16.414c28.837 0 52.223 23.5 52.223 52.5 0 10.575-3.11 20.419-8.46 28.659.393.635.759 1.29 1.098 1.963 5.909-8.728 9.362-19.27 9.362-30.622 0-30.095-24.271-54.5-54.223-54.5h-16.414zm5.557 109c.037-.664.093-1.331.166-2H194.5v-4.774l-10 5.774 10 5.774V174h20.925z" fill="url(#b)"/><path fill-rule="evenodd" clip-rule="evenodd" d="M209.868 279a1 1 0 0 0 0 2h16.414c28.837 0 52.223 23.5 52.223 52.5 0 10.575-3.11 20.419-8.46 28.659.393.635.759 1.29 1.098 1.963 5.909-8.728 9.362-19.27 9.362-30.622 0-30.095-24.271-54.5-54.223-54.5h-16.414zm5.557 109c.037-.664.093-1.331.166-2H194.5v-4.774l-10 5.774 10 5.774V388h20.925z" fill="url(#c)"/><path fill-rule="evenodd" clip-rule="evenodd" d="M71.132 172a1 1 0 0 1 0 2H54.718c-28.837 0-52.223 23.5-52.223 52.5 0 12.628 4.434 24.214 11.823 33.27a43.31 43.31 0 0 0-1.16 1.737C5.255 252.037.496 239.826.496 226.5c0-30.095 24.271-54.5 54.223-54.5h16.414zm-6.838 109c.179-.667.34-1.334.482-2H86.5v-4.774l10 5.774-10 5.774V281H64.294z" fill="url(#d)"/><path fill-rule="evenodd" clip-rule="evenodd" d="M71.132 600a1 1 0 0 1 0 2H54.718c-28.837 0-52.223 23.5-52.223 52.5 0 12.628 4.434 24.214 11.823 33.27a43.31 43.31 0 0 0-1.16 1.737C5.255 680.037.496 667.826.496 654.5c0-30.095 24.271-54.5 54.223-54.5h16.414zm-6.838 109c.179-.667.34-1.334.482-2H86.5v-4.774l10 5.774-10 5.774V709H64.294z" fill="url(#e)"/><path fill-rule="evenodd" clip-rule="evenodd" d="M71.132 387a1 1 0 0 1 0 2H54.718c-28.837 0-52.223 23.5-52.223 52.5 0 12.628 4.434 24.214 11.823 33.27a43.31 43.31 0 0 0-1.16 1.737C5.255 467.037.496 454.826.496 441.5c0-30.095 24.271-54.5 54.223-54.5h16.414zm-6.838 109c.179-.667.34-1.334.482-2H86.5v-4.774l10 5.774-10 5.774V496H64.294z" fill="url(#f)"/><path d="M231.334 194.239c11.043 6.311 25.988.253 33.514-12.915 7.526-13.168 5.16-29.119-5.883-35.43-11.043-6.312-25.988-.254-33.514 12.914-7.525 13.168-5.159 29.12 5.883 35.431z" fill="#fff" stroke="#366197" stroke-width="2"/><path fill-rule="evenodd" clip-rule="evenodd" d="M209.868 707a1 1 0 0 0 0 2h16.414c28.837 0 52.223 23.5 52.223 52.5 0 10.575-3.11 20.419-8.46 28.659.393.635.759 1.29 1.098 1.963 5.909-8.728 9.362-19.27 9.362-30.622 0-30.095-24.271-54.5-54.223-54.5h-16.414zm5.557 109c.037-.664.093-1.331.166-2H70.5v-4.774L60.5 815l10 5.774V816h144.925z" fill="url(#g)"/><path fill-rule="evenodd" clip-rule="evenodd" d="M209.868 493a1 1 0 0 0 0 2h16.414c28.837 0 52.223 23.5 52.223 52.5 0 10.575-3.11 20.419-8.46 28.659.393.635.759 1.29 1.098 1.963 5.909-8.728 9.362-19.27 9.362-30.622 0-30.095-24.271-54.5-54.223-54.5h-16.414zm5.557 109c.037-.664.093-1.331.166-2H194.5v-4.774l-10 5.774 10 5.774V602h20.925z" fill="url(#h)"/><path d="M231.696 408.239c11.042 6.311 25.987.253 33.513-12.915s5.16-29.119-5.883-35.43c-11.043-6.312-25.987-.254-33.513 12.914s-5.16 29.12 5.883 35.431z" fill="#fff" stroke="#654970" stroke-width="2"/><path d="M231.696 622.239c11.042 6.311 25.987.253 33.513-12.915s5.16-29.119-5.883-35.43c-11.043-6.312-25.987-.254-33.513 12.914s-5.16 29.12 5.883 35.431z" fill="#fff" stroke="#853856" stroke-width="2"/><path d="M231.696 836.239c11.042 6.311 25.987.253 33.513-12.915s5.16-29.119-5.883-35.43c-11.043-6.312-25.987-.254-33.513 12.914s-5.16 29.12 5.883 35.431z" fill="#fff" stroke="#C3293A" stroke-width="2"/><path d="M28.648 52.984c1.024 0 1.896.192 2.616.576.736.368 1.296.824 1.68 1.368.384.544.688 1.256.912 2.136.224.864.36 1.648.408 2.352.048.688.072 1.52.072 2.496 0 .896-.04 1.704-.12 2.424-.064.72-.216 1.472-.456 2.256-.224.784-.536 1.44-.936 1.968-.4.512-.944.936-1.632 1.272-.688.336-1.504.504-2.448.504-.992 0-1.856-.168-2.592-.504-.72-.352-1.28-.784-1.68-1.296-.4-.512-.72-1.16-.96-1.944a12.65 12.65 0 0 1-.432-2.256 28.228 28.228 0 0 1-.096-2.472c0-.8.016-1.496.048-2.088a28.89 28.89 0 0 1 .24-1.992c.128-.752.32-1.384.576-1.896a6.854 6.854 0 0 1 .984-1.488c.4-.464.92-.816 1.56-1.056.656-.24 1.408-.36 2.256-.36zm1.32 2.112a2.913 2.913 0 0 0-1.32-.288c-.496 0-.936.096-1.32.288a3.184 3.184 0 0 0-.936.624c-.24.24-.448.6-.624 1.08-.176.464-.304.856-.384 1.176-.064.32-.12.784-.168 1.392a17.964 17.964 0 0 0-.072 1.272v1.224c0 .56.008 1.024.024 1.392.016.368.056.848.12 1.44s.176 1.088.336 1.488c.16.384.36.776.6 1.176.24.384.568.68.984.888.432.192.928.288 1.488.288.48 0 .904-.088 1.272-.264.384-.176.696-.384.936-.624.24-.24.44-.576.6-1.008.176-.448.304-.832.384-1.152.08-.336.136-.776.168-1.32.048-.56.072-.968.072-1.224.016-.272.024-.664.024-1.176v-1.2c0-.24-.024-.656-.072-1.248-.048-.592-.112-1.048-.192-1.368a7.692 7.692 0 0 0-.36-1.176c-.176-.464-.384-.816-.624-1.056a3.184 3.184 0 0 0-.936-.624zm12.016-2.112c1.024 0 1.896.192 2.616.576.736.368 1.296.824 1.68 1.368.384.544.688 1.256.912 2.136.224.864.36 1.648.408 2.352.048.688.072 1.52.072 2.496 0 .896-.04 1.704-.12 2.424-.064.72-.216 1.472-.456 2.256-.224.784-.536 1.44-.936 1.968-.4.512-.944.936-1.632 1.272-.688.336-1.504.504-2.448.504-.992 0-1.856-.168-2.592-.504-.72-.352-1.28-.784-1.68-1.296-.4-.512-.72-1.16-.96-1.944a12.65 12.65 0 0 1-.432-2.256 28.228 28.228 0 0 1-.096-2.472c0-.8.016-1.496.048-2.088a28.89 28.89 0 0 1 .24-1.992c.128-.752.32-1.384.576-1.896a6.854 6.854 0 0 1 .984-1.488c.4-.464.92-.816 1.56-1.056.656-.24 1.408-.36 2.256-.36zm1.32 2.112a2.913 2.913 0 0 0-1.32-.288c-.496 0-.936.096-1.32.288a3.184 3.184 0 0 0-.936.624c-.24.24-.448.6-.624 1.08-.176.464-.304.856-.384 1.176-.064.32-.12.784-.168 1.392a17.964 17.964 0 0 0-.072 1.272v1.224c0 .56.008 1.024.024 1.392.016.368.056.848.12 1.44s.176 1.088.336 1.488c.16.384.36.776.6 1.176.24.384.568.68.984.888.432.192.928.288 1.488.288.48 0 .904-.088 1.272-.264.384-.176.696-.384.936-.624.24-.24.44-.576.6-1.008.176-.448.304-.832.384-1.152.08-.336.136-.776.168-1.32.048-.56.072-.968.072-1.224.016-.272.024-.664.024-1.176v-1.2c0-.24-.024-.656-.072-1.248-.048-.592-.112-1.048-.192-1.368a7.692 7.692 0 0 0-.36-1.176c-.176-.464-.384-.816-.624-1.056a3.184 3.184 0 0 0-.936-.624z" fill="#206DA9"/><path d="M28.648 266.984c1.024 0 1.896.192 2.616.576.736.368 1.296.824 1.68 1.368.384.544.688 1.256.912 2.136.224.864.36 1.648.408 2.352.048.688.072 1.52.072 2.496 0 .896-.04 1.704-.12 2.424-.064.72-.216 1.472-.456 2.256-.224.784-.536 1.44-.936 1.968-.4.512-.944.936-1.632 1.272-.688.336-1.504.504-2.448.504-.992 0-1.856-.168-2.592-.504-.72-.352-1.28-.784-1.68-1.296-.4-.512-.72-1.16-.96-1.944a12.65 12.65 0 0 1-.432-2.256 28.228 28.228 0 0 1-.096-2.472c0-.8.016-1.496.048-2.088a28.89 28.89 0 0 1 .24-1.992c.128-.752.32-1.384.576-1.896a6.854 6.854 0 0 1 .984-1.488c.4-.464.92-.816 1.56-1.056.656-.24 1.408-.36 2.256-.36zm1.32 2.112a2.913 2.913 0 0 0-1.32-.288c-.496 0-.936.096-1.32.288a3.184 3.184 0 0 0-.936.624c-.24.24-.448.6-.624 1.08-.176.464-.304.856-.384 1.176-.064.32-.12.784-.168 1.392a17.964 17.964 0 0 0-.072 1.272v1.224c0 .56.008 1.024.024 1.392.016.368.056.848.12 1.44s.176 1.088.336 1.488c.16.384.36.776.6 1.176.24.384.568.68.984.888.432.192.928.288 1.488.288.48 0 .904-.088 1.272-.264.384-.176.696-.384.936-.624.24-.24.44-.576.6-1.008.176-.448.304-.832.384-1.152.08-.336.136-.776.168-1.32.048-.56.072-.968.072-1.224.016-.272.024-.664.024-1.176v-1.2c0-.24-.024-.656-.072-1.248-.048-.592-.112-1.048-.192-1.368a7.692 7.692 0 0 0-.36-1.176c-.176-.464-.384-.816-.624-1.056a3.184 3.184 0 0 0-.936-.624zm17.056 13.056V284H35.936c.048-.944.192-1.768.432-2.472a5.518 5.518 0 0 1 1.104-1.896 10.918 10.918 0 0 1 1.488-1.416c.48-.368 1.16-.824 2.04-1.368 1.376-.864 2.28-1.512 2.712-1.944.896-.88 1.344-1.856 1.344-2.928 0-.944-.304-1.712-.912-2.304-.608-.608-1.4-.912-2.376-.912-1.168 0-2.008.408-2.52 1.224-.496.8-.76 1.816-.792 3.048h-2.064v-.456c0-1.68.496-3.032 1.488-4.056 1.008-1.024 2.336-1.536 3.984-1.536 1.616 0 2.904.448 3.864 1.344.96.896 1.44 2.096 1.44 3.6 0 .64-.112 1.248-.336 1.824a6.151 6.151 0 0 1-.72 1.416c-.256.384-.656.792-1.2 1.224-.528.432-.968.768-1.32 1.008-.352.224-.856.536-1.512.936-1.312.784-2.184 1.392-2.616 1.824-.608.608-1 1.272-1.176 1.992h8.736z" fill="#4B5686"/><path d="M28.648 484.984c1.024 0 1.896.192 2.616.576.736.368 1.296.824 1.68 1.368.384.544.688 1.256.912 2.136.224.864.36 1.648.408 2.352.048.688.072 1.52.072 2.496 0 .896-.04 1.704-.12 2.424-.064.72-.216 1.472-.456 2.256-.224.784-.536 1.44-.936 1.968-.4.512-.944.936-1.632 1.272-.688.336-1.504.504-2.448.504-.992 0-1.856-.168-2.592-.504-.72-.352-1.28-.784-1.68-1.296-.4-.512-.72-1.16-.96-1.944a12.65 12.65 0 0 1-.432-2.256 28.228 28.228 0 0 1-.096-2.472c0-.8.016-1.496.048-2.088a28.89 28.89 0 0 1 .24-1.992c.128-.752.32-1.384.576-1.896a6.854 6.854 0 0 1 .984-1.488c.4-.464.92-.816 1.56-1.056.656-.24 1.408-.36 2.256-.36zm1.32 2.112a2.913 2.913 0 0 0-1.32-.288c-.496 0-.936.096-1.32.288a3.184 3.184 0 0 0-.936.624c-.24.24-.448.6-.624 1.08-.176.464-.304.856-.384 1.176-.064.32-.12.784-.168 1.392a17.964 17.964 0 0 0-.072 1.272v1.224c0 .56.008 1.024.024 1.392.016.368.056.848.12 1.44s.176 1.088.336 1.488c.16.384.36.776.6 1.176.24.384.568.68.984.888.432.192.928.288 1.488.288.48 0 .904-.088 1.272-.264.384-.176.696-.384.936-.624.24-.24.44-.576.6-1.008.176-.448.304-.832.384-1.152.08-.336.136-.776.168-1.32.048-.56.072-.968.072-1.224.016-.272.024-.664.024-1.176v-1.2c0-.24-.024-.656-.072-1.248-.048-.592-.112-1.048-.192-1.368a7.692 7.692 0 0 0-.36-1.176c-.176-.464-.384-.816-.624-1.056a3.184 3.184 0 0 0-.936-.624zm17.728 9.072v1.728h-2.304V502h-1.92v-4.104h-7.464v-1.92l7.728-10.992h1.656v11.184h2.304zm-4.224 0v-8.184l-5.664 8.184h5.664z" fill="#744164"/><path d="M28.648 694.984c1.024 0 1.896.192 2.616.576.736.368 1.296.824 1.68 1.368.384.544.688 1.256.912 2.136.224.864.36 1.648.408 2.352.048.688.072 1.52.072 2.496 0 .896-.04 1.704-.12 2.424-.064.72-.216 1.472-.456 2.256-.224.784-.536 1.44-.936 1.968-.4.512-.944.936-1.632 1.272-.688.336-1.504.504-2.448.504-.992 0-1.856-.168-2.592-.504-.72-.352-1.28-.784-1.68-1.296-.4-.512-.72-1.16-.96-1.944a12.65 12.65 0 0 1-.432-2.256 28.228 28.228 0 0 1-.096-2.472c0-.8.016-1.496.048-2.088a28.89 28.89 0 0 1 .24-1.992c.128-.752.32-1.384.576-1.896a6.854 6.854 0 0 1 .984-1.488c.4-.464.92-.816 1.56-1.056.656-.24 1.408-.36 2.256-.36zm1.32 2.112a2.913 2.913 0 0 0-1.32-.288c-.496 0-.936.096-1.32.288a3.184 3.184 0 0 0-.936.624c-.24.24-.448.6-.624 1.08-.176.464-.304.856-.384 1.176-.064.32-.12.784-.168 1.392a17.964 17.964 0 0 0-.072 1.272v1.224c0 .56.008 1.024.024 1.392.016.368.056.848.12 1.44s.176 1.088.336 1.488c.16.384.36.776.6 1.176.24.384.568.68.984.888.432.192.928.288 1.488.288.48 0 .904-.088 1.272-.264.384-.176.696-.384.936-.624.24-.24.44-.576.6-1.008.176-.448.304-.832.384-1.152.08-.336.136-.776.168-1.32.048-.56.072-.968.072-1.224.016-.272.024-.664.024-1.176v-1.2c0-.24-.024-.656-.072-1.248-.048-.592-.112-1.048-.192-1.368a7.692 7.692 0 0 0-.36-1.176c-.176-.464-.384-.816-.624-1.056a3.184 3.184 0 0 0-.936-.624zm17.368 2.304h-2.088c-.112-.816-.416-1.456-.912-1.92-.48-.48-1.136-.72-1.968-.72-.576 0-1.096.104-1.56.312a2.782 2.782 0 0 0-1.104.912 8.097 8.097 0 0 0-.696 1.176c-.192.4-.336.888-.432 1.464-.096.576-.16 1.048-.192 1.416-.032.352-.064.784-.096 1.296.928-1.488 2.336-2.232 4.224-2.232 1.584 0 2.856.504 3.816 1.512.976.992 1.464 2.304 1.464 3.936 0 1.68-.512 3.064-1.536 4.152-1.008 1.088-2.36 1.632-4.056 1.632-3.952 0-5.928-2.816-5.928-8.448 0-.88.048-1.712.144-2.496.112-.784.304-1.576.576-2.376.288-.816.656-1.512 1.104-2.088.448-.576 1.04-1.04 1.776-1.392.752-.368 1.608-.552 2.568-.552 1.424 0 2.568.392 3.432 1.176.864.768 1.352 1.848 1.464 3.24zm-5.184 3.48c-1.04 0-1.88.352-2.52 1.056-.64.688-.96 1.592-.96 2.712 0 1.168.32 2.104.96 2.808.656.704 1.512 1.056 2.568 1.056 1.024 0 1.848-.336 2.472-1.008.64-.688.96-1.608.96-2.76 0-1.184-.312-2.12-.936-2.808-.624-.704-1.472-1.056-2.544-1.056z" fill="#9D2B42"/><path d="M238.648 159.984c1.024 0 1.896.192 2.616.576.736.368 1.296.824 1.68 1.368.384.544.688 1.256.912 2.136.224.864.36 1.648.408 2.352.048.688.072 1.52.072 2.496 0 .896-.04 1.704-.12 2.424-.064.72-.216 1.472-.456 2.256-.224.784-.536 1.44-.936 1.968-.4.512-.944.936-1.632 1.272-.688.336-1.504.504-2.448.504-.992 0-1.856-.168-2.592-.504-.72-.352-1.28-.784-1.68-1.296-.4-.512-.72-1.16-.96-1.944a12.65 12.65 0 0 1-.432-2.256 28.228 28.228 0 0 1-.096-2.472c0-.8.016-1.496.048-2.088a28.89 28.89 0 0 1 .24-1.992c.128-.752.32-1.384.576-1.896a6.854 6.854 0 0 1 .984-1.488c.4-.464.92-.816 1.56-1.056.656-.24 1.408-.36 2.256-.36zm1.32 2.112a2.913 2.913 0 0 0-1.32-.288c-.496 0-.936.096-1.32.288a3.184 3.184 0 0 0-.936.624c-.24.24-.448.6-.624 1.08-.176.464-.304.856-.384 1.176-.064.32-.12.784-.168 1.392a17.964 17.964 0 0 0-.072 1.272v1.224c0 .56.008 1.024.024 1.392.016.368.056.848.12 1.44s.176 1.088.336 1.488c.16.384.36.776.6 1.176.24.384.568.68.984.888.432.192.928.288 1.488.288.48 0 .904-.088 1.272-.264.384-.176.696-.384.936-.624.24-.24.44-.576.6-1.008.176-.448.304-.832.384-1.152.08-.336.136-.776.168-1.32.048-.56.072-.968.072-1.224.016-.272.024-.664.024-1.176v-1.2c0-.24-.024-.656-.072-1.248-.048-.592-.112-1.048-.192-1.368a7.692 7.692 0 0 0-.36-1.176c-.176-.464-.384-.816-.624-1.056a3.184 3.184 0 0 0-.936-.624zm13.96-2.088V177h-2.232v-12.312h-4.272v-1.536c1.376 0 2.464-.224 3.264-.672.816-.448 1.36-1.272 1.632-2.472h1.608z" fill="#366197"/><path d="M238.648 373.984c1.024 0 1.896.192 2.616.576.736.368 1.296.824 1.68 1.368.384.544.688 1.256.912 2.136.224.864.36 1.648.408 2.352.048.688.072 1.52.072 2.496 0 .896-.04 1.704-.12 2.424-.064.72-.216 1.472-.456 2.256-.224.784-.536 1.44-.936 1.968-.4.512-.944.936-1.632 1.272-.688.336-1.504.504-2.448.504-.992 0-1.856-.168-2.592-.504-.72-.352-1.28-.784-1.68-1.296-.4-.512-.72-1.16-.96-1.944a12.65 12.65 0 0 1-.432-2.256 28.228 28.228 0 0 1-.096-2.472c0-.8.016-1.496.048-2.088a28.89 28.89 0 0 1 .24-1.992c.128-.752.32-1.384.576-1.896a6.854 6.854 0 0 1 .984-1.488c.4-.464.92-.816 1.56-1.056.656-.24 1.408-.36 2.256-.36zm1.32 2.112a2.913 2.913 0 0 0-1.32-.288c-.496 0-.936.096-1.32.288a3.184 3.184 0 0 0-.936.624c-.24.24-.448.6-.624 1.08-.176.464-.304.856-.384 1.176-.064.32-.12.784-.168 1.392a17.964 17.964 0 0 0-.072 1.272v1.224c0 .56.008 1.024.024 1.392.016.368.056.848.12 1.44s.176 1.088.336 1.488c.16.384.36.776.6 1.176.24.384.568.68.984.888.432.192.928.288 1.488.288.48 0 .904-.088 1.272-.264.384-.176.696-.384.936-.624.24-.24.44-.576.6-1.008.176-.448.304-.832.384-1.152.08-.336.136-.776.168-1.32.048-.56.072-.968.072-1.224.016-.272.024-.664.024-1.176v-1.2c0-.24-.024-.656-.072-1.248-.048-.592-.112-1.048-.192-1.368a7.692 7.692 0 0 0-.36-1.176c-.176-.464-.384-.816-.624-1.056a3.184 3.184 0 0 0-.936-.624zm6.472 3.408c.048-1.76.536-3.12 1.464-4.08.944-.96 2.256-1.44 3.936-1.44 1.504 0 2.712.408 3.624 1.224.912.816 1.368 1.888 1.368 3.216 0 .8-.208 1.52-.624 2.16-.4.624-.968 1.088-1.704 1.392.96.224 1.72.704 2.28 1.44.56.736.84 1.624.84 2.664.016 1.568-.528 2.84-1.632 3.816-1.088.96-2.504 1.44-4.248 1.44-1.728 0-3.112-.472-4.152-1.416-1.024-.96-1.536-2.248-1.536-3.864v-.312h2.016c.048 1.216.392 2.152 1.032 2.808.64.656 1.528.984 2.664.984 1.088 0 1.968-.304 2.64-.912.688-.624 1.032-1.424 1.032-2.4 0-.992-.344-1.784-1.032-2.376-.672-.592-1.584-.888-2.736-.888a8.11 8.11 0 0 0-1.104.096v-1.728c.224.016.456.024.696.024 1.056 0 1.888-.248 2.496-.744.624-.512.936-1.2.936-2.064 0-.832-.272-1.504-.816-2.016-.528-.512-1.24-.768-2.136-.768-1.024 0-1.824.328-2.4.984-.576.64-.88 1.56-.912 2.76h-1.992z" fill="#654970"/><path d="M238.648 587.984c1.024 0 1.896.192 2.616.576.736.368 1.296.824 1.68 1.368.384.544.688 1.256.912 2.136.224.864.36 1.648.408 2.352.048.688.072 1.52.072 2.496 0 .896-.04 1.704-.12 2.424-.064.72-.216 1.472-.456 2.256-.224.784-.536 1.44-.936 1.968-.4.512-.944.936-1.632 1.272-.688.336-1.504.504-2.448.504-.992 0-1.856-.168-2.592-.504-.72-.352-1.28-.784-1.68-1.296-.4-.512-.72-1.16-.96-1.944a12.65 12.65 0 0 1-.432-2.256 28.228 28.228 0 0 1-.096-2.472c0-.8.016-1.496.048-2.088a28.89 28.89 0 0 1 .24-1.992c.128-.752.32-1.384.576-1.896a6.854 6.854 0 0 1 .984-1.488c.4-.464.92-.816 1.56-1.056.656-.24 1.408-.36 2.256-.36zm1.32 2.112a2.913 2.913 0 0 0-1.32-.288c-.496 0-.936.096-1.32.288a3.184 3.184 0 0 0-.936.624c-.24.24-.448.6-.624 1.08-.176.464-.304.856-.384 1.176-.064.32-.12.784-.168 1.392a17.964 17.964 0 0 0-.072 1.272v1.224c0 .56.008 1.024.024 1.392.016.368.056.848.12 1.44s.176 1.088.336 1.488c.16.384.36.776.6 1.176.24.384.568.68.984.888.432.192.928.288 1.488.288.48 0 .904-.088 1.272-.264.384-.176.696-.384.936-.624.24-.24.44-.576.6-1.008.176-.448.304-.832.384-1.152.08-.336.136-.776.168-1.32.048-.56.072-.968.072-1.224.016-.272.024-.664.024-1.176v-1.2c0-.24-.024-.656-.072-1.248-.048-.592-.112-1.048-.192-1.368a7.692 7.692 0 0 0-.36-1.176c-.176-.464-.384-.816-.624-1.056a3.184 3.184 0 0 0-.936-.624zm16.672-1.8v1.8h-6.888l-1.008 5.064c.832-.896 1.976-1.344 3.432-1.344 1.6 0 2.896.52 3.888 1.56.992 1.024 1.488 2.36 1.488 4.008 0 1.728-.544 3.152-1.632 4.272-1.088 1.12-2.504 1.68-4.248 1.68-1.616 0-2.928-.448-3.936-1.344-.992-.896-1.512-2.088-1.56-3.576h2.064c.08.944.44 1.712 1.08 2.304.64.592 1.432.888 2.376.888 1.056 0 1.936-.384 2.64-1.152.704-.768 1.056-1.72 1.056-2.856 0-1.184-.344-2.144-1.032-2.88-.688-.752-1.584-1.128-2.688-1.128-1.408 0-2.496.552-3.264 1.656l-1.752-.12 1.584-8.832h8.4z" fill="#853856"/><path d="M238.648 801.984c1.024 0 1.896.192 2.616.576.736.368 1.296.824 1.68 1.368.384.544.688 1.256.912 2.136.224.864.36 1.648.408 2.352.048.688.072 1.52.072 2.496 0 .896-.04 1.704-.12 2.424-.064.72-.216 1.472-.456 2.256-.224.784-.536 1.44-.936 1.968-.4.512-.944.936-1.632 1.272-.688.336-1.504.504-2.448.504-.992 0-1.856-.168-2.592-.504-.72-.352-1.28-.784-1.68-1.296-.4-.512-.72-1.16-.96-1.944a12.65 12.65 0 0 1-.432-2.256 28.228 28.228 0 0 1-.096-2.472c0-.8.016-1.496.048-2.088a28.89 28.89 0 0 1 .24-1.992c.128-.752.32-1.384.576-1.896a6.854 6.854 0 0 1 .984-1.488c.4-.464.92-.816 1.56-1.056.656-.24 1.408-.36 2.256-.36zm1.32 2.112a2.913 2.913 0 0 0-1.32-.288c-.496 0-.936.096-1.32.288a3.184 3.184 0 0 0-.936.624c-.24.24-.448.6-.624 1.08-.176.464-.304.856-.384 1.176-.064.32-.12.784-.168 1.392a17.964 17.964 0 0 0-.072 1.272v1.224c0 .56.008 1.024.024 1.392.016.368.056.848.12 1.44s.176 1.088.336 1.488c.16.384.36.776.6 1.176.24.384.568.68.984.888.432.192.928.288 1.488.288.48 0 .904-.088 1.272-.264.384-.176.696-.384.936-.624.24-.24.44-.576.6-1.008.176-.448.304-.832.384-1.152.08-.336.136-.776.168-1.32.048-.56.072-.968.072-1.224.016-.272.024-.664.024-1.176v-1.2c0-.24-.024-.656-.072-1.248-.048-.592-.112-1.048-.192-1.368a7.692 7.692 0 0 0-.36-1.176c-.176-.464-.384-.816-.624-1.056a3.184 3.184 0 0 0-.936-.624zm17.464-1.8v1.752c-3.712 4.24-5.88 9.224-6.504 14.952h-2.256c.192-2.624.88-5.224 2.064-7.8a27.709 27.709 0 0 1 4.608-6.96h-8.904v-1.944h10.992z" fill="#C3293A"/><defs><linearGradient id="a" x1="104" y1="280.001" x2="194" y2="280.001" gradientUnits="userSpaceOnUse"><stop stop-color="#4B5686"/><stop offset="1" stop-color="#4B5686"/></linearGradient><linearGradient id="b" x1="235.267" y1="178.774" x2="235.267" y2="65" gradientUnits="userSpaceOnUse"><stop stop-color="#366197"/><stop offset="1" stop-color="#206DA9"/></linearGradient><linearGradient id="c" x1="235.267" y1="392.774" x2="235.267" y2="279" gradientUnits="userSpaceOnUse"><stop stop-color="#654970"/><stop offset="1" stop-color="#4B5686"/></linearGradient><linearGradient id="d" x1="45.733" y1="285.774" x2="45.733" y2="172" gradientUnits="userSpaceOnUse"><stop stop-color="#4B5686"/><stop offset="1" stop-color="#366197"/></linearGradient><linearGradient id="e" x1="45.733" y1="713.774" x2="45.733" y2="600" gradientUnits="userSpaceOnUse"><stop stop-color="#9D2B42"/><stop offset="1" stop-color="#853856"/></linearGradient><linearGradient id="f" x1="45.733" y1="500.774" x2="45.733" y2="387" gradientUnits="userSpaceOnUse"><stop stop-color="#744164"/><stop offset="1" stop-color="#654970"/></linearGradient><linearGradient id="g" x1="176.838" y1="820.774" x2="176.838" y2="707" gradientUnits="userSpaceOnUse"><stop stop-color="#C3293A"/><stop offset="1" stop-color="#9D2B42"/></linearGradient><linearGradient id="h" x1="235.267" y1="606.774" x2="235.267" y2="493" gradientUnits="userSpaceOnUse"><stop stop-color="#853856"/><stop offset="1" stop-color="#744164"/></linearGradient></defs></svg>