<svg width="48" height="49" viewBox="0 0 48 49" fill="none" xmlns="http://www.w3.org/2000/svg"><path fill-rule="evenodd" clip-rule="evenodd" d="M21 .477V6.52h6V.477h-6zm7 7.05v6.043h6V7.527h-6zM42 27.67v-6.043h6v6.043h-6zM21 42.777h6v6.043h-6v-6.043zm14-14.1h6v6.043h-6v-6.043zm0-14.1v6.043h6v-6.043h-6zm-7 21.15h6v6.043h-6v-6.043zm7-8.057v-6.043h6v6.043h-6zm-21-6.043v6.043h6v-6.043h-6zm14 0h6v6.043h-6v-6.043zm-7 0v6.043h6v-6.043h-6zM7 27.67v-6.043h6v6.043H7zm-1-6.043H0v6.043h6v-6.043z" fill="#9EBCCA"/></svg>