<svg width="80" height="82" viewBox="0 0 80 82" fill="none" xmlns="http://www.w3.org/2000/svg"><g clip-path="url(#a)" fill="#206DA9"><path d="M12.404 21.885h.084c3.182-.004 5.76-2.64 5.763-5.893V14.03c-.003-3.252-2.581-5.888-5.763-5.892h-.084c-3.182.004-5.76 2.64-5.763 5.892v1.962c.002 3.253 2.581 5.89 5.763 5.893zm-3.318-7.854c.002-1.873 1.485-3.39 3.318-3.393h.084c1.832.003 3.316 1.52 3.318 3.393v1.961c-.002 1.873-1.486 3.391-3.318 3.393h-.084c-1.833-.002-3.316-1.52-3.318-3.393v-1.96zm10.141 9.734h-2.412c-.312.001-.61.122-.837.34l-3.357 3.221-3.223-3.207a1.21 1.21 0 0 0-.853-.354h-2.56a5.926 5.926 0 0 0-4.418 1.991 6.205 6.205 0 0 0-1.543 4.678V44.78c0 2.117 1.678 3.833 3.749 3.834h.044a3.584 3.584 0 0 0 1.457-.328l.644 25.94c.055 1.596 1.022 3.01 2.47 3.61a3.895 3.895 0 0 0 4.23-.834 3.895 3.895 0 0 0 4.237.831c1.45-.603 2.415-2.022 2.465-3.62l.643-25.906a3.68 3.68 0 0 0 3.54-.328 3.861 3.861 0 0 0 1.685-3.201V30.435a6.208 6.208 0 0 0-1.543-4.678 5.928 5.928 0 0 0-4.418-1.992zm-3.868 51.866c-.838 0-1.518-.696-1.519-1.552V48.094h-2.445V74.08c0 .843-.66 1.532-1.484 1.55-.825.02-1.513-.639-1.55-1.481L7.632 44.83h9.972l-.729 29.303c-.027.836-.7 1.5-1.517 1.497zm7.39-45.382a1.302 1.302 0 0 0-.007.126v14.402c-.008.732-.591 1.322-1.308 1.322-.717 0-1.3-.59-1.308-1.322v-3.053l.014-.58h-.014v-6.007H17.68v6.558l-.016.636H7.571l-.03-1.25h-.016v-5.944H5.081v9.57c.016.75-.558 1.376-1.291 1.407a1.291 1.291 0 0 1-.933-.385 1.352 1.352 0 0 1-.387-.95V30.377c0-.043-.002-.085-.006-.127a3.67 3.67 0 0 1 .895-2.791 3.506 3.506 0 0 1 2.626-1.192H8.05l3.703 3.684.018.015c.037.035.075.068.116.099l.009.007a1.242 1.242 0 0 0 .304.162l.013.005a1.254 1.254 0 0 0 .327.063l.02.002c.053.001.105 0 .156-.005l.037-.004a1.26 1.26 0 0 0 .152-.028l.006-.001a1.2 1.2 0 0 0 .159-.055l.012-.005c.005-.001.009-.004.013-.006.1-.045.195-.103.28-.174l.032-.028c.011-.01.025-.02.037-.032l3.856-3.7h1.93c1 0 1.953.434 2.624 1.193a3.67 3.67 0 0 1 .895 2.79zm43.727-8.364h.085c3.181-.004 5.759-2.64 5.763-5.893V14.03c-.004-3.252-2.582-5.888-5.763-5.892h-.085c-3.182.004-5.76 2.64-5.763 5.892v1.962c.003 3.253 2.581 5.89 5.763 5.893zm-3.318-7.854c.002-1.873 1.486-3.39 3.318-3.393h.085c1.832.003 3.316 1.52 3.318 3.393v1.961c-.002 1.873-1.486 3.391-3.318 3.393h-.085c-1.832-.002-3.316-1.52-3.318-3.393v-1.96zM73.3 23.765h-2.413a1.21 1.21 0 0 0-.836.34l-3.358 3.22-3.222-3.206a1.21 1.21 0 0 0-.853-.354h-2.56a5.93 5.93 0 0 0-4.42 1.991 6.208 6.208 0 0 0-1.542 4.678V44.78c.001 2.117 1.68 3.833 3.75 3.834h.043a3.602 3.602 0 0 0 1.456-.328l.644 25.94c.055 1.596 1.023 3.01 2.47 3.61a3.896 3.896 0 0 0 4.231-.834 3.895 3.895 0 0 0 4.237.83c1.449-.602 2.415-2.021 2.465-3.62l.643-25.905a3.682 3.682 0 0 0 3.54-.328 3.861 3.861 0 0 0 1.684-3.201V30.435a6.205 6.205 0 0 0-1.542-4.678 5.928 5.928 0 0 0-4.417-1.992zm-3.868 51.866c-.839 0-1.518-.696-1.519-1.552V48.094h-2.445V74.08c.002.845-.657 1.536-1.484 1.555-.826.018-1.515-.642-1.55-1.486l-.729-29.317h9.972l-.728 29.303c-.027.836-.699 1.5-1.517 1.497zm7.389-45.382a1.302 1.302 0 0 0-.006.126v14.402c0 .739-.585 1.337-1.308 1.337-.722 0-1.308-.598-1.308-1.337v-3.053l.015-.58h-.015v-6.007h-2.445v6.557l-.015.636H61.643l-.03-1.25h-.015v-5.943h-2.445v9.57c.016.75-.558 1.376-1.291 1.407a1.288 1.288 0 0 1-.932-.385 1.35 1.35 0 0 1-.388-.95V30.377c0-.043-.002-.085-.006-.127a3.67 3.67 0 0 1 .896-2.791 3.505 3.505 0 0 1 2.625-1.192h2.064l3.705 3.684.017.014c.037.036.075.07.116.1l.009.007c.045.032.091.061.14.087l.028.015c.044.023.09.042.138.06l.011.004a1.146 1.146 0 0 0 .328.064l.021.002a1.158 1.158 0 0 0 .192-.01.97.97 0 0 0 .152-.028h.005c.055-.015.107-.033.16-.055l.012-.005c.004-.001.008-.004.013-.007.1-.044.194-.102.28-.173l.032-.028.036-.032 3.856-3.7h1.93c1 0 1.954.434 2.625 1.193.67.759.996 1.773.895 2.79h-.001zm-37.382-8.364h.085c3.181-.004 5.76-2.64 5.763-5.893V14.03c-.003-3.252-2.582-5.888-5.763-5.892h-.085c-3.181.004-5.76 2.64-5.763 5.892v1.962c.003 3.253 2.581 5.89 5.763 5.893zm-3.318-7.854c.002-1.873 1.486-3.39 3.318-3.393h.085c1.832.003 3.316 1.52 3.318 3.393v1.961c-.002 1.873-1.486 3.391-3.318 3.393h-.085c-1.832-.002-3.316-1.52-3.318-3.393V14.03v.001zm10.143 9.734h-2.413c-.312.001-.61.122-.837.34l-3.357 3.221-3.223-3.207a1.209 1.209 0 0 0-.852-.354h-2.56a5.928 5.928 0 0 0-4.419 1.991 6.205 6.205 0 0 0-1.543 4.678V44.78c.001 2.117 1.68 3.833 3.75 3.834h.043a3.601 3.601 0 0 0 1.456-.328l.645 25.94c.054 1.596 1.022 3.01 2.47 3.61a3.895 3.895 0 0 0 4.23-.834 3.896 3.896 0 0 0 4.237.831c1.449-.603 2.415-2.022 2.465-3.62L47 48.305a3.682 3.682 0 0 0 3.54-.328 3.86 3.86 0 0 0 1.684-3.201V30.435a6.204 6.204 0 0 0-1.542-4.678 5.93 5.93 0 0 0-4.417-1.992zm-3.87 51.866c-.837 0-1.516-.696-1.517-1.552V48.094h-2.445V74.08c0 .843-.66 1.532-1.484 1.55-.825.02-1.513-.639-1.55-1.481l-.729-29.317h9.972l-.729 29.303c-.026.836-.699 1.5-1.517 1.497zm7.39-45.382a1.114 1.114 0 0 0-.006.126v14.402c0 .739-.585 1.337-1.308 1.337-.722 0-1.307-.598-1.307-1.337v-3.053l.014-.58h-.014v-6.007h-2.445v6.557l-.016.636H34.607l-.031-1.25h-.015v-5.943h-2.444v9.57c.016.75-.558 1.376-1.291 1.407a1.29 1.29 0 0 1-.933-.385 1.353 1.353 0 0 1-.388-.95V30.377c0-.043-.002-.085-.006-.127a3.672 3.672 0 0 1 .896-2.791 3.502 3.502 0 0 1 2.626-1.192h2.064l3.704 3.684.018.014c.036.036.075.07.116.1l.01.007a1.15 1.15 0 0 0 .167.102c.044.023.09.042.136.059l.013.006c.05.016.1.03.152.04l.037.007c.045.008.092.013.138.016l.021.002a1.173 1.173 0 0 0 .193-.01.99.99 0 0 0 .152-.028h.005a1.2 1.2 0 0 0 .16-.055l.011-.005a1.21 1.21 0 0 0 .293-.18l.033-.028c.01-.01.024-.02.035-.032l3.857-3.7h1.929c1 0 1.954.434 2.625 1.193.671.759.996 1.773.895 2.79zM31.929 10.888V8.926c-.003-3.253-2.581-5.889-5.763-5.892h-.085c-3.181.003-5.76 2.64-5.763 5.892v1.962c.004 3.252 2.582 5.888 5.763 5.892h.085c3.182-.003 5.76-2.64 5.763-5.892zm-2.445 0c-.002 1.873-1.486 3.39-3.318 3.392h-.085c-1.831-.002-3.316-1.52-3.318-3.392V8.926c.002-1.872 1.487-3.39 3.318-3.392h.085c1.832.002 3.316 1.52 3.318 3.392v1.962zm29.482 0V8.926c-.004-3.253-2.582-5.889-5.763-5.892h-.086c-3.18.003-5.758 2.64-5.762 5.892v1.962c.004 3.252 2.582 5.888 5.763 5.892h.085c3.181-.003 5.76-2.64 5.763-5.892zm-2.445 0c-.002 1.873-1.487 3.39-3.318 3.392h-.086c-1.831-.002-3.316-1.52-3.318-3.392V8.926c.002-1.872 1.487-3.39 3.319-3.392h.085c1.831.002 3.316 1.52 3.318 3.392v1.962z"/></g><defs><clipPath id="a"><path fill="#fff" d="M0 0h79.283v81.065H0z"/></clipPath></defs></svg>