<svg width="66" height="66" viewBox="0 0 66 66" fill="none" xmlns="http://www.w3.org/2000/svg"><g clip-path="url(#a)"><path d="M14.664 28.595a16.724 16.724 0 0 0-6.83 6.046 16.63 16.63 0 0 0-2.634 9c0 2.728.673 5.435 1.946 7.828a1.237 1.237 0 0 0 1.674.511l.023.044-.023-.044c.603-.32.832-1.07.51-1.673l.045-.024-.044.024a14.237 14.237 0 0 1-1.657-6.665c0-5.431 3.165-10.462 8.063-12.816a1.237 1.237 0 1 0-1.072-2.23zm20.287 6.709a1.237 1.237 0 0 0-.511 1.673l-.044.024.044-.024a14.237 14.237 0 0 1 1.656 6.665c0 5.431-3.164 10.462-8.062 12.816a1.238 1.238 0 0 0 1.072 2.23l.022.046-.022-.045a16.724 16.724 0 0 0 6.832-6.046 16.63 16.63 0 0 0 2.633-9 16.72 16.72 0 0 0-1.946-7.828 1.238 1.238 0 0 0-1.674-.511z" fill="#206DA9" stroke="#8AA6B3" stroke-width=".1"/><path d="M16.086 22.57l-.01.022-.023.007C6.836 25.157.05 33.62.05 43.642c0 12.04 9.795 21.835 21.835 21.835 6.286 0 11.959-2.67 15.946-6.936l.015-.016H53.04a5.879 5.879 0 0 0 5.872-5.872c0-1.86-.87-3.518-2.223-4.595l-.049-.04.05-.038a5.862 5.862 0 0 0 0-9.191l-.05-.04.05-.038a5.862 5.862 0 0 0 0-9.191l-.05-.04.05-.038a5.862 5.862 0 0 0 2.222-4.596 5.879 5.879 0 0 0-5.872-5.872h-3.453l.054-.078a5.837 5.837 0 0 0 1.031-3.319 5.84 5.84 0 0 0-1.031-3.319l-.054-.078h10.405a5.879 5.879 0 0 0 5.871-5.872A5.879 5.879 0 0 0 59.991.436h-31.54a5.879 5.879 0 0 0-5.872 5.872c0 1.231.381 2.374 1.031 3.319l.054.078H13.26a5.879 5.879 0 0 0-5.872 5.872 5.879 5.879 0 0 0 5.872 5.872h3.446l-.053.078a5.866 5.866 0 0 0-.567 1.043zm3.957-.685l-.026-.095a3.396 3.396 0 0 1 1.482-.341h31.54a3.401 3.401 0 0 1 3.398 3.397 3.401 3.401 0 0 1-3.398 3.397H37.352l-.015-.014c-3.956-3.965-9.422-6.422-15.452-6.422-.62 0-1.235.027-1.842.078zm19.488 8.912l-.058-.079H53.04a3.4 3.4 0 0 1 3.398 3.397 3.4 3.4 0 0 1-3.398 3.397H42.843l-.01-.036a21.775 21.775 0 0 0-3.302-6.678zm3.892 9.248l-.01-.058h9.626a3.4 3.4 0 0 1 3.398 3.397 3.4 3.4 0 0 1-3.398 3.397h-9.545l.008-.057a21.922 21.922 0 0 0-.08-6.679zm-.446 9.248l.01-.037H53.04a3.4 3.4 0 0 1 3.398 3.397 3.4 3.4 0 0 1-3.398 3.397H39.842l.054-.078a21.749 21.749 0 0 0 3.081-6.679zM9.863 15.577a3.4 3.4 0 0 1 3.397-3.397H44.8a3.4 3.4 0 0 1 3.398 3.397 3.401 3.401 0 0 1-3.398 3.397H13.26a3.401 3.401 0 0 1-3.397-3.397zm53.525-9.269a3.401 3.401 0 0 1-3.397 3.397h-31.54a3.4 3.4 0 0 1-3.397-3.397 3.4 3.4 0 0 1 3.397-3.397h31.54a3.401 3.401 0 0 1 3.397 3.397zM41.246 43.642c0 10.675-8.686 19.36-19.36 19.36-10.676 0-19.361-8.685-19.361-19.36 0-10.676 8.685-19.36 19.36-19.36 10.675 0 19.36 8.684 19.36 19.36z" fill="#206DA9" stroke="#8AA6B3" stroke-width=".1"/><g clip-path="url(#b)"><path d="M19.847 42.913v.142h5.503c1.83 0 2.906-1.233 3.092-2.59.186-1.356-.515-2.84-2.21-3.341l-.003-.001-.037.137.037-.137h-.002l-.004-.002-.017-.004a3.857 3.857 0 0 0-.265-.06 2.983 2.983 0 0 0-.546-.068h-1.779a16.81 16.81 0 0 0-.393 0h-.627a7.407 7.407 0 0 0-.272 0h-.591a8.117 8.117 0 0 0-.285 0h-1.601v5.924zm-2.715.142h.142v-7.459c0-.665.573-1.213 1.221-1.213h6.636c.938 0 1.671.17 2.343.458a5.686 5.686 0 0 1 1.286.785c.439.383.675.608 1.027 1.109.186.264.386.58.518.875.713 1.595.726 3.377-.042 4.955-.99 2.033-2.93 3.142-5.176 3.142h-5.24v1.413h5.855c.244 0 .517.148.735.383.217.235.354.53.354.785v.225c0 .302-.135.607-.35.838-.214.231-.497.376-.782.376h-5.812v.142c0 .164.004.373.01.606l.002.156c.006.296.011.62.01.936a11.13 11.13 0 0 1-.034.88c-.023.263-.06.461-.108.573-.263.611-.872.842-1.428.745-.553-.097-1.025-.514-1.025-1.186v-2.852h-.142c-.15 0-.293.004-.427.007l-.19.005a3.901 3.901 0 0 1-.513-.016 1.211 1.211 0 0 1-.801-.39c-.353-.373-.413-.926-.241-1.395.171-.467.56-.818 1.074-.818h1.24v-1.413h-1.152c-1.047 0-1.73-1.377-.878-2.256l-.101-.099.101.1c.258-.267.478-.361.749-.395.14-.017.298-.018.486-.015l.175.005c.143.004.303.008.478.008z" fill="#206DA9" stroke="#8AA6B3" stroke-width=".284"/></g></g><defs><clipPath id="a"><path transform="matrix(-1 0 0 1 65.913 0)" fill="#fff" d="M0 0h65.913v65.913H0z"/></clipPath><clipPath id="b"><path fill="#fff" d="M14.553 34.24h16.264v19.688H14.553z"/></clipPath></defs></svg>