<svg width="76" height="76" viewBox="0 0 76 76" fill="none" xmlns="http://www.w3.org/2000/svg"><g clip-path="url(#a)" fill="#206DA9"><path d="M74.417 72.834H1.583a1.584 1.584 0 0 0 0 3.166h72.834a1.584 1.584 0 0 0 0-3.166z"/><path d="M14.25 53.834h-9.5c-.874 0-1.583.709-1.583 1.583v19c0 .874.71 1.583 1.583 1.583h9.5c.874 0 1.584-.71 1.584-1.583v-19c0-.874-.71-1.584-1.584-1.584zm-1.583 19H6.334V57h6.333v15.834zM33.25 38h-9.5c-.874 0-1.583.71-1.583 1.583v34.834c0 .874.71 1.583 1.583 1.583h9.5c.874 0 1.584-.71 1.584-1.583V39.583c0-.874-.71-1.583-1.584-1.583zm-1.583 34.833h-6.333V41.167h6.333v31.666zM52.25 44.334h-9.5c-.874 0-1.583.709-1.583 1.583v28.5c0 .874.71 1.583 1.583 1.583h9.5c.874 0 1.584-.71 1.584-1.583v-28.5c0-.874-.71-1.584-1.584-1.584zm-1.583 28.5h-6.333V47.5h6.333v25.334zm20.583-47.5h-9.5c-.874 0-1.583.709-1.583 1.583v47.5c0 .874.71 1.583 1.583 1.583h9.5c.874 0 1.584-.71 1.584-1.583v-47.5c0-.874-.71-1.584-1.584-1.584zm-1.583 47.5h-6.333V28.5h6.333v44.334zM9.5 28.5a6.34 6.34 0 0 0-6.333 6.333A6.34 6.34 0 0 0 9.5 41.167a6.34 6.34 0 0 0 6.334-6.334A6.34 6.34 0 0 0 9.5 28.5zm0 9.5a3.17 3.17 0 0 1-3.166-3.167A3.17 3.17 0 0 1 9.5 31.667a3.17 3.17 0 0 1 3.167 3.166A3.17 3.17 0 0 1 9.5 38zm19-25.334A6.34 6.34 0 0 0 22.167 19a6.34 6.34 0 0 0 6.333 6.333A6.34 6.34 0 0 0 34.834 19a6.34 6.34 0 0 0-6.334-6.334zm0 9.5A3.17 3.17 0 0 1 25.334 19a3.17 3.17 0 0 1 3.166-3.167A3.17 3.17 0 0 1 31.667 19a3.17 3.17 0 0 1-3.167 3.166zM47.5 19a6.34 6.34 0 0 0-6.333 6.333 6.34 6.34 0 0 0 6.333 6.334 6.34 6.34 0 0 0 6.334-6.334A6.34 6.34 0 0 0 47.5 19zm0 9.5a3.17 3.17 0 0 1-3.166-3.167 3.17 3.17 0 0 1 3.166-3.166 3.17 3.17 0 0 1 3.167 3.166A3.17 3.17 0 0 1 47.5 28.5zM66.5 0a6.34 6.34 0 0 0-6.333 6.333 6.34 6.34 0 0 0 6.333 6.334 6.34 6.34 0 0 0 6.334-6.334A6.34 6.34 0 0 0 66.5 0zm0 9.5a3.17 3.17 0 0 1-3.166-3.167A3.17 3.17 0 0 1 66.5 3.167a3.17 3.17 0 0 1 3.167 3.166A3.17 3.17 0 0 1 66.5 9.5z"/><path d="M64.264 8.569a1.585 1.585 0 0 0-2.239 0L49.74 20.855a1.585 1.585 0 0 0 0 2.24c.31.306.715.462 1.12.462.403 0 .808-.152 1.118-.463l12.287-12.287a1.585 1.585 0 0 0 0-2.238zm-20.593 13.11l-10.171-2.9a1.568 1.568 0 0 0-1.954 1.088 1.583 1.583 0 0 0 1.086 1.957l10.171 2.901a1.585 1.585 0 0 0 .868-3.046zm-17.641-.706a1.584 1.584 0 0 0-2.223-.253l-11.938 9.518a1.582 1.582 0 0 0 .988 2.822c.345 0 .693-.114.984-.342l11.939-9.519a1.582 1.582 0 0 0 .25-2.226z"/></g><defs><clipPath id="a"><path fill="#fff" d="M0 0h76v76H0z"/></clipPath></defs></svg>