<svg width="94" height="94" viewBox="0 0 94 94" fill="none" xmlns="http://www.w3.org/2000/svg"><g clip-path="url(#a)"><path d="M87.905 12.524L83.924 9.02l3.981-3.505a1.95 1.95 0 0 0 .54-2.169 1.95 1.95 0 0 0-1.838-1.272H70.131v-.708a1.365 1.365 0 1 0-2.731 0v18.416l-11.215 6.09a4.32 4.32 0 0 0-.443-1.435l-1.58-3.085a4.32 4.32 0 0 0-5.808-1.874l-1.221.626a4.287 4.287 0 0 0-2.14 2.516 4.284 4.284 0 0 0 .266 3.292l1.58 3.085a4.29 4.29 0 0 0 1.555 1.69c-.839 1.13-1.237 2.518-1.646 3.961l-1.976 6.987a1.365 1.365 0 1 0 2.628.742l1.976-6.984c.598-2.11.966-3.24 2.136-3.876l2.097-1.14.26-.131c.085-.044.165-.094.247-.143l14.95-8.118a5.779 5.779 0 0 1-2.757 4.64L56.59 32.53a.233.233 0 0 0-.034.02l-3.026 1.837a1.367 1.367 0 0 0 1.305 2.396l-2.296 6.94-1.678.688-4.563 1.87 1.315-4.648a1.367 1.367 0 0 0-2.629-.744l-2.077 7.348a1.307 1.307 0 0 0-.05.297l-.543 9.988c-.016.381.065 1.101-.112 1.473L36.162 72.7h-4.388a4.667 4.667 0 0 0-4.662 4.661v3.942a4.625 4.625 0 0 0-1.93-.42H14.036a4.666 4.666 0 0 0-4.662 4.66v4.891H6.097a1.365 1.365 0 1 0 0 2.731h80.508a1.365 1.365 0 1 0 0-2.73h-3.551V55.24a4.667 4.667 0 0 0-4.662-4.662h-8.26v-23.82a8.516 8.516 0 0 0 1.371-7.298 1.363 1.363 0 0 0-1.371-1.003v-2.492h16.474a1.95 1.95 0 0 0 1.839-1.271 1.952 1.952 0 0 0-.54-2.17zM47.593 23.458a1.57 1.57 0 0 1 .785-.924l1.222-.626a1.586 1.586 0 0 1 2.132.687l1.58 3.086c.37.721.13 1.595-.525 2.036l-.445.24-.94.482a1.586 1.586 0 0 1-2.131-.688l-1.58-3.085a1.575 1.575 0 0 1-.098-1.208zM44.849 73.12a4.634 4.634 0 0 0-1.499-.4l1.499-1.99v2.39zm6.483-11.003c.657-.787.838-1.706.985-2.446.037-.177.71-3.857.71-3.857s.638.397.705.426c.046.02.079.066.084.12l.743 7.55h-4.577l1.35-1.793zm8.075-7.536l-1.153 9.322h-.952l-.768-7.811a2.874 2.874 0 0 0-1.609-2.309l-1.373-.87.915-5.07s3.854 4.578 3.943 4.694c.798 1.037 1.07 1.452.997 2.044zm-14.75 6.608a7.4 7.4 0 0 0 .383-2.535l.496-9.11 6.316-2.587-1.148 6.358a.635.635 0 0 0-.01.052l-.949 5.258c-.124.545-.232 1.37-.572 1.82L39.947 72.7h-.76l5.47-11.511zm-32.55 24.355c0-1.064.866-1.93 1.93-1.93h11.145c1.065 0 1.931.866 1.931 1.93v4.891H12.106v-4.89zm17.737 0v-8.182c0-1.065.866-1.93 1.93-1.93H42.92c1.064 0 1.93.865 1.93 1.93v13.073H29.843v-4.89zm50.48-30.304v35.195H65.317v-8.187a1.365 1.365 0 1 0-2.731 0v8.187H47.58V68.572c0-1.064.866-1.93 1.93-1.93h11.145c1.065 0 1.93.866 1.93 1.93v14.612a1.365 1.365 0 1 0 2.732 0V55.24c0-1.065.866-1.93 1.93-1.93h11.145c1.065 0 1.931.866 1.931 1.93zm-13.075-4.662a4.667 4.667 0 0 0-4.662 4.662v9.091a4.622 4.622 0 0 0-1.583-.406l1.114-9.007c.22-1.756-.676-2.92-1.542-4.045-.092-.12-5.4-6.422-5.4-6.422l3.257-9.844 8.969-5.45v21.421h-.153zm2.883-37.345V4.805h14.446l-3.111 2.74a1.966 1.966 0 0 0 0 2.95l3.111 2.739-14.445-.001z" fill="#206DA9"/></g><defs><clipPath id="a"><path fill="#fff" d="M0 0h93.166v93.166H0z"/></clipPath></defs></svg>