<svg width="88" height="82" viewBox="0 0 88 82" fill="none" xmlns="http://www.w3.org/2000/svg"><g clip-path="url(#a)" fill="#206DA9"><path d="M50.6 36.553H38.867c-8.906.01-16.123 6.672-16.134 14.893v28.43c0 .748.657 1.355 1.467 1.355h41.067c.81 0 1.467-.607 1.467-1.354V51.446c-.01-8.22-7.228-14.883-16.134-14.892zm-6.02 6.167l-1.873-3.459h4.053l-1.88 3.457a1.266 1.266 0 0 0-.135.77l2.844 21.008-2.855 2.636-2.856-2.636 2.844-21.005a1.27 1.27 0 0 0-.142-.77zM63.8 78.523H25.667V51.446c.009-6.726 5.913-12.177 13.2-12.185h.56l2.33 4.3-2.878 21.256c-.057.414.098.83.418 1.125l4.4 4.061a1.555 1.555 0 0 0 2.073 0l4.4-4.061c.32-.296.474-.711.418-1.125L47.711 43.56l2.329-4.3h.56c7.287.008 13.191 5.459 13.2 12.185v27.077zM59.4 2.708a1.56 1.56 0 0 0-.755.193l-6.35 3.52L45.77.396a1.555 1.555 0 0 0-2.074 0l-6.524 6.022-6.35-3.52c-.695-.385-1.596-.178-2.013.463-.137.211-.21.453-.21.7v12.185c0 .747.657 1.354 1.467 1.354h1.467v5.415c0 6.73 5.91 12.185 13.2 12.185 7.29 0 13.2-5.456 13.2-12.185v-5.416H59.4c.81 0 1.466-.606 1.466-1.353V4.06c0-.748-.657-1.354-1.467-1.353zM55 23.014c0 5.234-4.596 9.477-10.266 9.477s-10.267-4.243-10.267-9.477v-5.416h20.534v5.416zm2.934-8.123h-26.4v-8.44l5.111 2.83a1.56 1.56 0 0 0 1.792-.202l6.297-5.812L51.03 9.08a1.56 1.56 0 0 0 1.792.203l5.112-2.831v8.44zm24.933 6.77c-2.43 0-4.4-1.818-4.4-4.062 0-.747-.657-1.353-1.467-1.353s-1.466.606-1.466 1.354c0 2.243-1.97 4.061-4.4 4.061-.81 0-1.467.606-1.467 1.354 0 .747.657 1.354 1.467 1.354 2.43 0 4.4 1.818 4.4 4.061 0 .748.656 1.354 1.466 1.354.81 0 1.467-.606 1.467-1.354 0-2.243 1.97-4.061 4.4-4.061.81 0 1.467-.607 1.467-1.354 0-.748-.657-1.354-1.467-1.354zM77 24.411a7.06 7.06 0 0 0-1.512-1.396A7.062 7.062 0 0 0 77 21.619a7.064 7.064 0 0 0 1.513 1.396A7.066 7.066 0 0 0 77 24.41zM21.267 36.554c-2.43 0-4.4-1.819-4.4-4.062 0-.748-.657-1.354-1.467-1.354s-1.467.606-1.467 1.354c0 2.243-1.97 4.062-4.4 4.062-.81 0-1.467.606-1.467 1.353 0 .748.657 1.354 1.467 1.354 2.43 0 4.4 1.819 4.4 4.062 0 .748.657 1.354 1.467 1.354s1.466-.606 1.466-1.354c0-2.243 1.97-4.062 4.4-4.062.81 0 1.467-.606 1.467-1.354 0-.747-.657-1.353-1.466-1.353zm-5.867 2.75a7.067 7.067 0 0 0-1.512-1.397 7.066 7.066 0 0 0 1.512-1.395 7.061 7.061 0 0 0 1.512 1.395 7.069 7.069 0 0 0-1.512 1.396zm1.466-27.12c-2.43 0-4.4-1.818-4.4-4.061 0-.748-.657-1.354-1.467-1.354s-1.466.606-1.466 1.354c0 2.243-1.97 4.061-4.4 4.061-.81 0-1.467.606-1.467 1.354 0 .748.657 1.354 1.467 1.354 2.43 0 4.4 1.818 4.4 4.061 0 .748.656 1.354 1.466 1.354.81 0 1.467-.606 1.467-1.354 0-2.243 1.97-4.061 4.4-4.061.81 0 1.467-.606 1.467-1.354 0-.748-.657-1.354-1.467-1.354zM11 14.934a7.065 7.065 0 0 0-1.512-1.396A7.067 7.067 0 0 0 11 12.142a7.064 7.064 0 0 0 1.512 1.396A7.066 7.066 0 0 0 11 14.934z"/></g><defs><clipPath id="a"><path fill="#fff" d="M0 0h88v81.231H0z"/></clipPath></defs></svg>